<svg width="70" height="70" viewBox="0 0 70 70" fill="none" xmlns="http://www.w3.org/2000/svg">
<path d="M35.2564 69.4874C54.4448 69.4874 70.0001 53.9321 70.0001 34.7437C70.0001 15.5553 54.4448 0 35.2564 0C16.068 0 0.512695 15.5553 0.512695 34.7437C0.512695 53.9321 16.068 69.4874 35.2564 69.4874Z" fill="#1D1D1D"/>
<path d="M50.2013 16.3232C46.9609 13.2835 42.4765 11.6094 37.5742 11.6094C30.0859 11.6094 25.4802 14.6088 22.9351 17.1249C19.7985 20.2257 18 24.343 18 28.4212C18 33.5417 20.1919 37.4719 23.8624 38.934C24.1088 39.0327 24.3568 39.0824 24.5999 39.0824C25.3743 39.0824 25.9878 38.5872 26.2004 37.7931C26.3243 37.3375 26.6114 36.2134 26.7362 35.7255C27.0034 34.7619 26.7875 34.2984 26.2048 33.6274C25.1432 32.3999 24.6488 30.9485 24.6488 29.0595C24.6488 23.4486 28.9244 17.4855 36.8489 17.4855C43.1366 17.4855 47.0424 20.9775 47.0424 26.5987C47.0424 30.146 46.2605 33.4311 44.8403 35.8492C43.8533 37.5295 42.1179 39.5324 39.4537 39.5324C38.3016 39.5324 37.2667 39.07 36.6137 38.2637C35.9968 37.5016 35.7934 36.517 36.0416 35.4909C36.3219 34.3316 36.7041 33.1223 37.074 31.9532C37.7486 29.818 38.3863 27.8012 38.3863 26.1922C38.3863 23.4401 36.6548 21.5908 34.078 21.5908C30.8033 21.5908 28.2378 24.8409 28.2378 28.9899C28.2378 31.0247 28.7912 32.5466 29.0418 33.131C28.6292 34.8389 26.1774 44.9931 25.7123 46.9079C25.4434 48.0257 23.8235 56.8541 26.5047 57.5581C29.5172 58.349 32.21 49.7507 32.4841 48.7791C32.7062 47.9889 33.4834 45.001 33.9597 43.1643C35.414 44.533 37.7556 45.4584 40.0339 45.4584C44.3292 45.4584 48.1919 43.5697 50.9108 40.1406C53.5477 36.8146 55 32.1788 55 27.0879C54.9998 23.1079 53.2507 19.1842 50.2013 16.3232Z" fill="white"/>
</svg>
