<svg width="71" height="70" viewBox="0 0 71 70" fill="none" xmlns="http://www.w3.org/2000/svg">
<path d="M0.614258 33.354C0.614258 17.6307 0.614258 9.76915 5.49883 4.88457C10.3834 0 18.2449 0 33.9682 0H36.7477C52.471 0 60.3325 0 65.2171 4.88457C70.1017 9.76915 70.1017 17.6307 70.1017 33.354V36.1334C70.1017 51.8567 70.1017 59.7182 65.2171 64.6029C60.3325 69.4874 52.471 69.4874 36.7477 69.4874H33.9682C18.2449 69.4874 10.3834 69.4874 5.49883 64.6029C0.614258 59.7182 0.614258 51.8567 0.614258 36.1334V33.354Z" fill="#1D1D1D"/>
<path d="M38.1435 49.6094C21.7438 49.6094 12.3898 39.4742 12 22.6094H20.2149C20.4847 34.9878 26.5408 40.231 31.3378 41.3121V22.6094H39.0732V33.285C43.8103 32.8256 48.7866 27.9607 50.4655 22.6094H58.2008C56.9116 29.204 51.515 34.0688 47.6774 36.0688C51.515 37.6905 57.6615 41.9337 60 49.6094H51.485C49.6562 44.4742 45.0995 40.5013 39.0732 39.9607V49.6094H38.1435Z" fill="white"/>
</svg>
