<svg width="32" height="32" viewBox="0 0 32 32" fill="none" xmlns="http://www.w3.org/2000/svg">
<rect opacity="0.08" width="32" height="32" rx="4" fill="#6F99C6"/>
<path fill-rule="evenodd" clip-rule="evenodd" d="M18.4 16.0002C18.4 15.5584 18.7582 15.2002 19.2 15.2002C20.5218 15.2002 21.6 16.2784 21.6 17.6002C21.6 18.922 20.5218 20.0002 19.2 20.0002C18.7582 20.0002 18.4 19.642 18.4 19.2002C18.4 18.7584 18.7582 18.4002 19.2 18.4002C19.6382 18.4002 20 18.0384 20 17.6002C20 17.162 19.6382 16.8002 19.2 16.8002C18.7582 16.8002 18.4 16.442 18.4 16.0002Z" fill="#6F99C6"/>
<path fill-rule="evenodd" clip-rule="evenodd" d="M23.4667 20.7999V11.1999C23.4667 10.6108 22.9891 10.1332 22.4 10.1332H9.6C9.0109 10.1332 8.53333 10.6108 8.53333 11.1999V20.7999C8.53333 21.389 9.0109 21.8665 9.6 21.8665H22.4C22.9891 21.8665 23.4667 21.389 23.4667 20.7999ZM9.6 8.5332C8.12724 8.5332 6.93333 9.72711 6.93333 11.1999V20.7999C6.93333 22.2726 8.12724 23.4665 9.6 23.4665H22.4C23.8728 23.4665 25.0667 22.2726 25.0667 20.7999V11.1999C25.0667 9.72711 23.8728 8.5332 22.4 8.5332H9.6Z" fill="black"/>
<path fill-rule="evenodd" clip-rule="evenodd" d="M7.46667 12.5332C7.46667 12.0914 7.82484 11.7332 8.26667 11.7332L21.0667 11.7332C21.5085 11.7332 21.8667 12.0914 21.8667 12.5332C21.8667 12.975 21.5085 13.3332 21.0667 13.3332L8.26667 13.3332C7.82484 13.3332 7.46667 12.975 7.46667 12.5332Z" fill="black"/>
</svg>
