<svg width="32" height="32" viewBox="0 0 32 32" fill="none" xmlns="http://www.w3.org/2000/svg">
<rect opacity="0.08" width="32" height="32" rx="4" fill="#B182BC"/>
<path fill-rule="evenodd" clip-rule="evenodd" d="M13.8667 11.4668C14.1854 11.4668 14.4737 11.656 14.6005 11.9483L16.2503 15.7498L20.0518 17.3996C20.3442 17.5265 20.5333 17.8148 20.5333 18.1335C20.5333 18.4522 20.3442 18.7405 20.0518 18.8673L16.2503 20.5171L14.6005 24.3186C14.4737 24.611 14.1854 24.8001 13.8667 24.8001C13.548 24.8001 13.2597 24.611 13.1328 24.3186L11.483 20.5171L7.68151 18.8673C7.38916 18.7405 7.2 18.4522 7.2 18.1335C7.2 17.8148 7.38916 17.5265 7.68151 17.3996L11.483 15.7498L13.1328 11.9483C13.2597 11.656 13.548 11.4668 13.8667 11.4668ZM13.8667 14.2763L12.825 16.6765C12.7443 16.8626 12.5958 17.0111 12.4097 17.0918L10.0095 18.1335L12.4097 19.1751C12.5958 19.2559 12.7443 19.4043 12.825 19.5905L13.8667 21.9906L14.9083 19.5905C14.9891 19.4043 15.1375 19.2559 15.3237 19.1751L17.7238 18.1335L15.3237 17.0918C15.1375 17.0111 14.9891 16.8626 14.9083 16.6765L13.8667 14.2763Z" fill="black"/>
<path fill-rule="evenodd" clip-rule="evenodd" d="M20.5333 6.66699C20.852 6.66699 21.1403 6.85615 21.2672 7.1485L22.1906 9.27634L24.3185 10.1998C24.6108 10.3267 24.8 10.615 24.8 10.9337C24.8 11.2524 24.6108 11.5407 24.3185 11.6675L22.1906 12.591L21.2672 14.7188C21.1403 15.0112 20.852 15.2003 20.5333 15.2003C20.2146 15.2003 19.9263 15.0112 19.7995 14.7188L18.876 12.591L16.7482 11.6675C16.4558 11.5407 16.2667 11.2524 16.2667 10.9337C16.2667 10.615 16.4558 10.3267 16.7482 10.1998L18.876 9.27634L19.7995 7.1485C19.9263 6.85615 20.2146 6.66699 20.5333 6.66699ZM20.5333 9.47649L20.218 10.203C20.1373 10.3891 19.9888 10.5376 19.8027 10.6184L19.0762 10.9337L19.8027 11.2489C19.9888 11.3297 20.1373 11.4782 20.218 11.6643L20.5333 12.3908L20.8486 11.6643C20.9294 11.4782 21.0779 11.3297 21.264 11.2489L21.9905 10.9337L21.264 10.6184C21.0779 10.5376 20.9294 10.3891 20.8486 10.203L20.5333 9.47649Z" fill="#B182BC"/>
</svg>
