<svg width="191" height="44" viewBox="0 0 191 44" fill="none" xmlns="http://www.w3.org/2000/svg">
<g clip-path="url(#clip0_638_16474)">
<path fill-rule="evenodd" clip-rule="evenodd" d="M22.9607 0.72571C18.6667 0.26051 14.3381 1.17456 10.5697 3.34223C6.80136 5.5099 3.77827 8.82478 1.91598 12.8312C0.053699 16.8377 -0.556359 21.339 0.169663 25.7165C0.895685 30.094 2.92215 34.1328 5.97051 37.2777C9.01887 40.4226 12.9395 42.5193 17.1935 43.2796C21.4474 44.0398 25.8259 43.4263 29.7271 41.5233C33.6283 39.6204 36.8607 36.5214 38.9799 32.6524C41.0992 28.7834 42.0013 24.3343 41.5623 19.9166C41.0792 15.006 38.9656 10.4166 35.5775 6.92116C32.1894 3.42573 27.7337 1.23778 22.9607 0.72571V0.72571ZM22.2835 33.4772C19.9741 33.7958 17.6256 33.3622 15.5682 32.2372C13.5108 31.1123 11.8478 29.3525 10.813 27.2053C9.77826 25.0581 9.42368 22.6313 9.79913 20.2662C10.1746 17.901 11.2612 15.7163 12.9062 14.019C14.5513 12.3218 16.6721 11.1974 18.9706 10.8039C21.269 10.4103 23.6296 10.7674 25.7206 11.8249C27.8116 12.8825 29.5278 14.5873 30.628 16.6998C31.7282 18.8123 32.1572 21.2263 31.8546 23.6025C31.5371 26.1019 30.4273 28.4239 28.697 30.209C26.9668 31.9941 24.7126 33.1428 22.2835 33.4772V33.4772ZM52.7405 1.57607C52.0156 1.57785 51.3003 1.74581 50.6465 2.06774C49.9927 2.38966 49.4169 2.85744 48.961 3.43705C48.5051 4.01665 48.1806 4.6935 48.011 5.41833C47.8415 6.14316 47.8312 6.89775 47.9809 7.62719C48.4395 9.99033 50.5857 11.605 52.9236 11.605H66.491L45.377 40.3426C45.2209 40.5547 45.1253 40.8074 45.1009 41.0723C45.0766 41.3372 45.1244 41.6039 45.2392 41.8424C45.3539 42.0809 45.531 42.2818 45.7505 42.4226C45.97 42.5634 46.2233 42.6385 46.482 42.6395H79.6014C81.9377 42.6395 84.0854 41.0253 84.544 38.6617C84.6937 37.9324 84.6835 37.1779 84.5142 36.4532C84.3448 35.7284 84.0204 35.0516 83.5648 34.472C83.1091 33.8923 82.5335 33.4244 81.88 33.1023C81.2264 32.7802 80.5112 32.6119 79.7865 32.6098H63.2556L84.3534 3.89455C84.5111 3.68034 84.6076 3.42517 84.6321 3.15768C84.6567 2.89019 84.6083 2.62095 84.4923 2.38019C84.3764 2.13942 84.1975 1.93664 83.9757 1.7946C83.754 1.65257 83.4981 1.57689 83.2369 1.57607H52.7405V1.57607ZM185.083 1.69175C183.987 1.95991 183.012 2.6049 182.32 3.52009C181.629 4.43528 181.261 5.56585 181.279 6.72488V23.4227L154.972 1.89145C154.766 1.72302 154.517 1.61791 154.255 1.58822C153.994 1.55852 153.729 1.60544 153.492 1.72358C153.255 1.84172 153.055 2.02628 152.916 2.25603C152.776 2.48577 152.702 2.75138 152.703 3.02228V37.4996C152.685 38.6587 153.052 39.7893 153.744 40.7045C154.436 41.6197 155.411 42.2647 156.507 42.5328C157.219 42.6939 157.957 42.6886 158.667 42.5172C159.377 42.3458 160.04 42.0127 160.608 41.5425C161.176 41.0723 161.634 40.477 161.948 39.8004C162.262 39.1239 162.425 38.3834 162.424 37.6336V20.7913L188.732 42.3229C188.938 42.4913 189.186 42.5963 189.448 42.626C189.71 42.6556 189.974 42.6087 190.211 42.4906C190.448 42.3725 190.648 42.1881 190.787 41.9584C190.927 41.7288 191 41.4633 191 41.1925V6.58931C191.001 5.83967 190.838 5.0994 190.523 4.4231C190.209 3.7468 189.751 3.1517 189.183 2.68169C188.615 2.21167 187.952 1.87872 187.243 1.70739C186.533 1.53606 185.795 1.53071 185.083 1.69175V1.69175ZM116.586 10.645C127.714 10.645 136.028 16.6929 136.028 22.1027C136.028 27.5125 127.714 33.5604 116.586 33.5604C105.459 33.5604 97.1449 27.5125 97.1449 22.1027C97.1449 16.6929 105.459 10.645 116.586 10.645M116.586 0.616523C100.48 0.616523 87.4238 10.2363 87.4238 22.1027C87.4238 33.9691 100.48 43.5889 116.586 43.5889C132.693 43.5889 145.748 33.9691 145.748 22.1027C145.748 10.2363 132.692 0.616523 116.586 0.616523V0.616523Z" fill="#1D1D1D"/>
</g>
<defs>
<clipPath id="clip0_638_16474">
<rect width="191" height="43" fill="white" transform="translate(0 0.609375)"/>
</clipPath>
</defs>
</svg>
