<svg width="40" height="32" viewBox="0 0 40 32" fill="none" xmlns="http://www.w3.org/2000/svg">
<path d="M11.2661 11.3586C9.7256 11.3586 8.47675 12.6075 8.47675 14.148C8.47675 15.6885 9.7256 16.9374 11.2661 16.9374C12.8067 16.9374 14.0555 15.6885 14.0555 14.148C14.0555 12.6075 12.8067 11.3586 11.2661 11.3586Z" fill="#F2F2F2"/>
<path d="M20.1921 11.3586C18.6516 11.3586 17.4028 12.6075 17.4028 14.148C17.4028 15.6885 18.6516 16.9374 20.1921 16.9374C21.7327 16.9374 22.9815 15.6885 22.9815 14.148C22.9815 12.6075 21.7327 11.3586 20.1921 11.3586Z" fill="#F2F2F2"/>
<path d="M26.3288 14.148C26.3288 12.6075 27.5776 11.3586 29.1181 11.3586C30.6587 11.3586 31.9075 12.6075 31.9075 14.148C31.9075 15.6885 30.6587 16.9374 29.1181 16.9374C27.5776 16.9374 26.3288 15.6885 26.3288 14.148Z" fill="#F2F2F2"/>
<path fill-rule="evenodd" clip-rule="evenodd" d="M29.3429 0.408179C23.3308 -0.104529 17.2873 -0.134284 11.2705 0.319203L10.8393 0.351702C5.1014 0.784162 0.666504 5.56589 0.666504 11.32V30.3264C0.666504 30.9152 0.975937 31.4607 1.48133 31.7629C1.98673 32.065 2.61372 32.0793 3.1324 31.8006L11.8593 27.1106C12.2653 26.8925 12.7189 26.7783 13.1798 26.7783H33.2106C35.7369 26.7783 37.9019 24.9721 38.3547 22.4868C39.2725 17.4498 39.345 12.2951 38.5692 7.23424L38.3406 5.74288C37.9244 3.0277 35.7032 0.950585 32.9663 0.717179L29.3429 0.408179ZM11.522 3.65699C17.3604 3.21695 23.2247 3.24582 29.0585 3.74332L32.6819 4.05232C33.8787 4.15439 34.85 5.0627 35.032 6.25003L35.2606 7.7414C35.98 12.4349 35.9128 17.2154 35.0617 21.8868C34.8987 22.7811 34.1197 23.431 33.2106 23.431H13.1798C12.1659 23.431 11.1679 23.6822 10.2748 24.1622L4.01375 27.5269V11.32C4.01375 7.31694 7.09906 3.99034 11.0908 3.68948L11.522 3.65699Z" fill="#F2F2F2"/>
</svg>
