<svg width="54" height="54" viewBox="0 0 54 54" fill="none" xmlns="http://www.w3.org/2000/svg">
<path d="M27.1765 53.5293C41.9582 53.5293 53.9412 41.5464 53.9412 26.7647C53.9412 11.9829 41.9582 0 27.1765 0C12.3948 0 0.411865 11.9829 0.411865 26.7647C0.411865 41.5464 12.3948 53.5293 27.1765 53.5293Z" fill="white"/>
<path d="M11.5508 26.534C11.5508 26.534 24.9332 21.0418 29.5744 19.1079C31.3536 18.3344 37.3872 15.8591 37.3872 15.8591C37.3872 15.8591 40.172 14.7761 39.9399 17.4061C39.8626 18.4891 39.2438 22.2795 38.6249 26.3793C37.6967 32.1809 36.6911 38.5239 36.6911 38.5239C36.6911 38.5239 36.5363 40.3031 35.2213 40.6125C33.9063 40.9219 31.7404 39.5295 31.3536 39.2201C31.0442 38.9881 25.552 35.5071 23.5408 33.8053C22.9993 33.3412 22.3805 32.4129 23.6181 31.33C26.4029 28.7773 29.7292 25.6057 31.7404 23.5945C32.6686 22.6663 33.5969 20.5003 29.7292 23.1304C24.237 26.9208 18.8222 30.4791 18.8222 30.4791C18.8222 30.4791 17.5845 31.2526 15.2639 30.5564C12.9432 29.8602 10.2358 28.932 10.2358 28.932C10.2358 28.932 8.3793 27.7717 11.5508 26.534Z" fill="#1D1D1D"/>
</svg>
