<svg width="54" height="54" viewBox="0 0 54 54" fill="none" xmlns="http://www.w3.org/2000/svg">
<path d="M0 25.6941C0 13.5817 0 7.52562 3.76281 3.76281C7.52562 0 13.5817 0 25.6941 0H27.8352C39.9476 0 46.0037 0 49.7666 3.76281C53.5293 7.52562 53.5293 13.5817 53.5293 25.6941V27.8352C53.5293 39.9476 53.5293 46.0037 49.7666 49.7666C46.0037 53.5293 39.9476 53.5293 27.8352 53.5293H25.6941C13.5817 53.5293 7.52562 53.5293 3.76281 49.7666C0 46.0037 0 39.9476 0 27.8352V25.6941Z" fill="white"/>
<path d="M26.9737 39.4805C15.6988 39.4805 9.26796 30.4715 9 15.4805H14.6477C14.8332 26.4835 18.9968 31.1441 22.2947 32.1051V15.4805H27.6128V24.97C30.8696 24.5615 34.2908 20.2372 35.445 15.4805H40.7631C39.8767 21.3423 36.1666 25.6667 33.5282 27.4444C36.1666 28.8859 40.3923 32.6576 42 39.4805H36.146C34.8886 34.9159 31.7559 31.3844 27.6128 30.9039V39.4805H26.9737Z" fill="#1D1D1D"/>
</svg>
