<?xml version="1.0" standalone="no"?>
<!DOCTYPE svg PUBLIC "-//W3C//DTD SVG 1.1//EN" "http://www.w3.org/Graphics/SVG/1.1/DTD/svg11.dtd" >
<svg xmlns="http://www.w3.org/2000/svg" xmlns:xlink="http://www.w3.org/1999/xlink" version="1.1">
<metadata>
Created by FontForge 20190801 at Wed Nov  6 22:53:16 2019
 By Jimmy Wärting
\(c\) Nikita Kanarev Fonts, 2018
</metadata>
<defs>
<font id="Archaism-Ct0Wd75" horiz-adv-x="493" >
  <font-face 
    font-family="Archaism"
    font-weight="200"
    font-stretch="normal"
    units-per-em="1000"
    panose-1="0 0 0 0 0 0 0 0 0 0"
    ascent="750"
    descent="-250"
    x-height="500"
    cap-height="700"
    bbox="-111 -278 1048 1143"
    underline-thickness="50"
    underline-position="-100"
    stemh="96"
    stemv="97"
    unicode-range="U+000D-FB02"
  />
<missing-glyph horiz-adv-x="1068" 
d="M365 425l-59 -60s-3 -9 -10 -16c-33 -34 -89 -35 -126 -65c20 -27 77 -84 118 -118c24 43 23 104 51 131c2 3 5 4 9 4c7 0 15 -5 20 -8c1 -1 2 -1 4 -1s4 1 5 2l-21 21l59 60zM520 238c-35 36 -45 67 -45 67l-61 60l-49 -50l74 -74c45 -44 108 -88 150 -130
c33 -32 60 -68 68 -90l15 -8l40 40c-9 15 -29 39 -58 69c-57 56 -83 67 -134 116zM757 380l-49 49l-7 -5l50 -50zM572 200c17 13 33 27 121 115l-50 50l-60 -60s-11 -31 -50 -70c14 -15 27 -26 39 -35zM762 349c-7 7 -10 16 -10 16l-60 60l-50 -50l59 -60l-21 -21
c1 -1 3 -2 5 -2c1 0 2 0 3 1c5 3 14 8 21 8c4 0 7 -1 10 -4c27 -27 27 -88 51 -131c40 34 98 91 118 118c-38 30 -93 31 -126 65zM524 161l-39 32c-24 -20 -47 -38 -81 -71c-30 -30 -49 -54 -59 -69l41 -40l14 8c20 48 83 105 124 140zM350 429l-50 -49l6 -6l50 50z
M524 -278l-504 504v19l505 505h19l504 -504v-18l-505 -506h-19z" />
    <glyph glyph-name="fb" unicode="fb" horiz-adv-x="808" 
d="M84 575c0 110 62 175 171 175h220v-302c24 40 61 61 115 61c122 0 183 -90 183 -259s-61 -259 -183 -259c-54 0 -91 21 -115 61v-52h-97v656h-123c-51 0 -74 -31 -74 -81v-75h102v-92h-102v-408h-97v408h-49v92h49v75zM574 416c-66 0 -99 -51 -99 -141v-50
c0 -90 33 -141 99 -141c72 0 102 48 102 166s-30 166 -102 166z" />
    <glyph glyph-name="fh" unicode="fh" horiz-adv-x="803" 
d="M84 575c0 110 62 175 171 175h220v-301c23 40 59 60 110 60c104 0 154 -66 154 -205v-304h-97v304c0 77 -23 113 -76 113c-60 0 -91 -51 -91 -142v-275h-97v656h-123c-51 0 -74 -31 -74 -81v-75h102v-92h-102v-408h-97v408h-49v92h49v75z" />
    <glyph glyph-name="fj" unicode="fj" horiz-adv-x="542" 
d="M279 760c122 0 196 -71 196 -196v-11h-97v11c0 69 -34 103 -99 103s-98 -34 -98 -103v-64h102v-92h-102v-408h-97v408h-49v92h49v64c0 125 73 196 195 196zM337 -257c-91 0 -137 58 -137 178h97c0 -70 14 -86 40 -86s40 16 40 86v579h97v-579c0 -124 -46 -178 -137 -178z
" />
    <glyph glyph-name="fk" unicode="fk" horiz-adv-x="767" 
d="M84 575c0 110 62 175 171 175h220v-449h55l97 199h107l-124 -246l135 -254h-108l-108 209h-54v-209h-97v656h-123c-51 0 -74 -31 -74 -81v-75h102v-92h-102v-408h-97v408h-49v92h49v75z" />
    <glyph glyph-name="ft" unicode="ft" horiz-adv-x="661" 
d="M491 83c26 0 41 16 41 86h97c0 -113 -46 -178 -138 -178s-138 55 -138 178v239h-172v-408h-97v408h-49v92h49v75c0 110 62 175 171 175h39v-94h-39c-51 0 -74 -31 -74 -81v-75h172l21 107h76v-107h128v-92h-128v-239c0 -70 14 -86 41 -86z" />
    <glyph glyph-name="fi" unicode="fi" horiz-adv-x="542" 
d="M279 760c122 0 196 -71 196 -196v-11h-97v11c0 69 -34 103 -99 103s-98 -34 -98 -103v-64h102v-92h-102v-408h-97v408h-49v92h49v64c0 125 73 196 195 196zM378 500h97v-500h-97v500z" />
    <glyph glyph-name="fl" unicode="fl" horiz-adv-x="542" 
d="M84 575c0 110 62 175 171 175h220v-750h-97v656h-123c-51 0 -74 -31 -74 -81v-75h102v-92h-102v-408h-97v408h-49v92h49v75z" />
    <glyph glyph-name=".notdef" horiz-adv-x="1068" 
d="M365 425l-59 -60s-3 -9 -10 -16c-33 -34 -89 -35 -126 -65c20 -27 77 -84 118 -118c24 43 23 104 51 131c2 3 5 4 9 4c7 0 15 -5 20 -8c1 -1 2 -1 4 -1s4 1 5 2l-21 21l59 60zM520 238c-35 36 -45 67 -45 67l-61 60l-49 -50l74 -74c45 -44 108 -88 150 -130
c33 -32 60 -68 68 -90l15 -8l40 40c-9 15 -29 39 -58 69c-57 56 -83 67 -134 116zM757 380l-49 49l-7 -5l50 -50zM572 200c17 13 33 27 121 115l-50 50l-60 -60s-11 -31 -50 -70c14 -15 27 -26 39 -35zM762 349c-7 7 -10 16 -10 16l-60 60l-50 -50l59 -60l-21 -21
c1 -1 3 -2 5 -2c1 0 2 0 3 1c5 3 14 8 21 8c4 0 7 -1 10 -4c27 -27 27 -88 51 -131c40 34 98 91 118 118c-38 30 -93 31 -126 65zM524 161l-39 32c-24 -20 -47 -38 -81 -71c-30 -30 -49 -54 -59 -69l41 -40l14 8c20 48 83 105 124 140zM350 429l-50 -49l6 -6l50 50z
M524 -278l-504 504v19l505 505h19l504 -504v-18l-505 -506h-19z" />
    <glyph glyph-name="uni0000" horiz-adv-x="0" 
 />
    <glyph glyph-name="uni0000" horiz-adv-x="0" 
 />
    <glyph glyph-name="uni000D" unicode="&#xd;" horiz-adv-x="250" 
 />
    <glyph glyph-name="space" unicode=" " horiz-adv-x="228" 
 />
    <glyph glyph-name="uni2009" unicode="&#x2009;" horiz-adv-x="50" 
 />
    <glyph glyph-name="A" unicode="A" horiz-adv-x="534" 
d="M374 134h-216l-32 -134h-102l167 700h150l170 -700h-105zM177 230h177l-65 270l-23 112h-3l-23 -112z" />
    <glyph glyph-name="Agrave" unicode="&#xc0;" horiz-adv-x="534" 
d="M374 134h-216l-32 -134h-102l167 700h150l170 -700h-105zM177 230h177l-65 270l-23 112h-3l-23 -112zM264 999l46 -219h-85l-83 219h122z" />
    <glyph glyph-name="Aacute" unicode="&#xc1;" horiz-adv-x="534" 
d="M374 134h-216l-32 -134h-102l167 700h150l170 -700h-105zM177 230h177l-65 270l-23 112h-3l-23 -112zM311 780h-85l46 219h122z" />
    <glyph glyph-name="Acircumflex" unicode="&#xc2;" horiz-adv-x="534" 
d="M374 134h-216l-32 -134h-102l167 700h150l170 -700h-105zM172 780h-108l164 219h78l164 -219h-108l-95 136zM177 230h177l-65 270l-23 112h-3l-23 -112z" />
    <glyph glyph-name="Atilde" unicode="&#xc3;" horiz-adv-x="534" 
d="M374 134h-216l-32 -134h-102l167 700h150l170 -700h-105zM183 869c43 0 64 140 166 140c81 0 137 -42 137 -184v-45h-100v65c0 47 -14 64 -37 64c-42 0 -69 -139 -166 -139c-81 0 -137 42 -137 184v45h100v-65c0 -47 13 -65 37 -65zM177 230h177l-65 270l-23 112h-3
l-23 -112z" />
    <glyph glyph-name="Adieresis" unicode="&#xc4;" horiz-adv-x="534" 
d="M374 134h-216l-32 -134h-102l167 700h150l170 -700h-105zM177 230h177l-65 270l-23 112h-3l-23 -112zM442 889c0 -43 -25 -68 -65 -68c-41 0 -65 25 -65 68c0 44 24 69 65 69c40 0 65 -25 65 -69zM218 889c0 -43 -25 -68 -65 -68c-41 0 -64 25 -64 68c0 44 23 69 64 69
c40 0 65 -25 65 -69z" />
    <glyph glyph-name="Aring" unicode="&#xc5;" horiz-adv-x="534" 
d="M398 837c0 -67 -20 -113 -57 -138l170 -699h-105l-32 134h-216l-32 -134h-102l167 698c-38 25 -58 72 -58 139c0 105 49 159 133 159c83 0 132 -54 132 -159zM177 230h177l-65 270l-23 112h-3l-23 -112zM214 837c0 -53 19 -77 52 -77c32 0 52 24 52 77s-20 77 -52 77
c-33 0 -52 -24 -52 -77z" />
    <glyph glyph-name="Amacron" unicode="&#x100;" horiz-adv-x="534" 
d="M374 134h-216l-32 -134h-102l167 700h150l170 -700h-105zM451 937v-96h-371v96h371zM177 230h177l-65 270l-23 112h-3l-23 -112z" />
    <glyph glyph-name="Abreve" unicode="&#x102;" horiz-adv-x="534" 
d="M374 134h-216l-32 -134h-102l167 700h150l170 -700h-105zM165 984c0 -78 33 -118 102 -118c70 0 102 40 102 118v15h101v-15c0 -137 -72 -214 -203 -214s-203 77 -203 214v15h101v-15zM177 230h177l-65 270l-23 112h-3l-23 -112z" />
    <glyph glyph-name="Aogonek" unicode="&#x104;" horiz-adv-x="534" 
d="M366 -118c0 51 16 89 46 118h-7l-31 134h-217l-32 -134h-101l166 700h150l170 -700c-30 -15 -45 -44 -45 -86c0 -37 20 -54 45 -54c20 0 30 2 41 6v-96c-21 -5 -40 -7 -58 -7c-76 0 -127 34 -127 119zM176 230h177l-65 270l-23 112h-3l-22 -112z" />
    <glyph glyph-name="Aringacute" unicode="&#x1fa;" horiz-adv-x="534" 
d="M398 837c0 -67 -20 -113 -57 -138l170 -699h-105l-32 134h-216l-32 -134h-102l167 698c-38 25 -58 72 -58 139c0 95 40 148 110 158l49 148h105l-77 -156c50 -20 78 -70 78 -150zM177 230h177l-65 270l-23 112h-3l-23 -112zM214 837c0 -53 19 -77 52 -77
c32 0 52 24 52 77s-20 77 -52 77c-33 0 -52 -24 -52 -77z" />
    <glyph glyph-name="B" unicode="B" horiz-adv-x="530" 
d="M481 204c0 -129 -71 -204 -198 -204h-215v700h215c131 0 188 -73 188 -196c0 -72 -24 -123 -83 -146c61 -27 93 -81 93 -154zM380 204c0 66 -33 105 -97 105h-115v-213h115c64 0 97 39 97 108zM371 504c0 61 -20 100 -88 100h-115v-199h115c68 0 88 36 88 99z" />
    <glyph glyph-name="C" unicode="C" horiz-adv-x="584" 
d="M537 417h-102v15c0 119 -58 183 -136 183c-101 0 -154 -100 -154 -265s53 -264 154 -264c78 0 137 69 137 193v18h102v-18c0 -193 -101 -290 -239 -290c-161 0 -254 122 -254 361c0 240 93 361 254 361c135 0 238 -93 238 -279v-15z" />
    <glyph glyph-name="Ccedilla" unicode="&#xc7;" horiz-adv-x="584" 
d="M299 711c135 0 238 -93 238 -279v-15h-102v15c0 119 -58 183 -136 183c-101 0 -154 -100 -154 -265s53 -264 154 -264c78 0 137 69 137 193v18h102v-18c0 -170 -79 -266 -192 -286v-12c47 -14 61 -55 61 -101c0 -81 -52 -117 -126 -117c-18 0 -38 2 -59 7v96
c14 -4 30 -6 44 -6c30 0 42 10 42 39c0 23 -8 33 -33 33h-28v62c-129 24 -202 144 -202 356c0 240 93 361 254 361z" />
    <glyph glyph-name="Cacute" unicode="&#x106;" horiz-adv-x="584" 
d="M537 417h-102v15c0 119 -58 183 -136 183c-101 0 -154 -100 -154 -265s53 -264 154 -264c78 0 137 69 137 193v18h102v-18c0 -193 -101 -290 -239 -290c-161 0 -254 122 -254 361c0 240 93 361 254 361c135 0 238 -93 238 -279v-15zM245 780l46 219h123l-84 -219h-85z
" />
    <glyph glyph-name="Ccircumflex" unicode="&#x108;" horiz-adv-x="584" 
d="M299 711c135 0 238 -93 238 -279v-15h-102v15c0 119 -58 183 -136 183c-101 0 -154 -100 -154 -265s53 -264 154 -264c78 0 137 69 137 193v18h102v-18c0 -193 -101 -290 -239 -290c-161 0 -254 122 -254 361c0 240 93 361 254 361zM199 780h-108l164 219h78l164 -219
h-108l-95 136z" />
    <glyph glyph-name="Cdotaccent" unicode="&#x10a;" horiz-adv-x="584" 
d="M537 417h-102v15c0 119 -58 183 -136 183c-101 0 -154 -100 -154 -265s53 -264 154 -264c78 0 137 69 137 193v18h102v-18c0 -193 -101 -290 -239 -290c-161 0 -254 122 -254 361c0 240 93 361 254 361c135 0 238 -93 238 -279v-15zM292 821c-42 0 -65 25 -65 68
c0 44 23 69 65 69c40 0 65 -25 65 -69c0 -43 -25 -68 -65 -68z" />
    <glyph glyph-name="Ccaron" unicode="&#x10c;" horiz-adv-x="584" 
d="M299 711c135 0 238 -93 238 -279v-15h-102v15c0 119 -58 183 -136 183c-101 0 -154 -100 -154 -265s53 -264 154 -264c78 0 137 69 137 193v18h102v-18c0 -193 -101 -290 -239 -290c-161 0 -254 122 -254 361c0 240 93 361 254 361zM255 780l-164 219h113l90 -119l90 119
h113l-164 -219h-78z" />
    <glyph glyph-name="D" unicode="D" horiz-adv-x="576" 
d="M68 700h203c170 0 261 -127 261 -350c0 -222 -91 -350 -261 -350h-203v700zM271 604h-103v-508h103c106 0 160 95 160 254c0 158 -54 254 -160 254z" />
    <glyph glyph-name="Dcaron" unicode="&#x10e;" horiz-adv-x="578" 
d="M533 350c0 -222 -91 -350 -260 -350h-204v700h204c169 0 260 -127 260 -350zM433 350c0 158 -54 254 -160 254h-103v-508h103c106 0 160 95 160 254zM232 780l-163 219h112l90 -120l90 120h113l-163 -219h-79z" />
    <glyph glyph-name="E" unicode="E" horiz-adv-x="482" 
d="M68 0v700h367v-96h-267v-200h254v-96h-254v-212h267v-96h-367z" />
    <glyph glyph-name="Egrave" unicode="&#xc8;" horiz-adv-x="482" 
d="M68 0v700h367v-96h-267v-200h254v-96h-254v-212h267v-96h-367zM293 780h-85l-83 219h122z" />
    <glyph glyph-name="Eacute" unicode="&#xc9;" horiz-adv-x="482" 
d="M68 0v700h367v-96h-267v-200h254v-96h-254v-212h267v-96h-367zM228 780l46 219h122l-83 -219h-85z" />
    <glyph glyph-name="Ecircumflex" unicode="&#xca;" horiz-adv-x="482" 
d="M435 0h-367v700h367v-96h-267v-200h254v-96h-254v-212h267v-96zM160 780h-108l163 219h79l163 -219h-108l-94 136z" />
    <glyph glyph-name="Edieresis" unicode="&#xcb;" horiz-adv-x="482" 
d="M68 0v700h367v-96h-267v-200h254v-96h-254v-212h267v-96h-367zM365 821c-41 0 -64 25 -64 68c0 44 23 69 64 69s66 -25 66 -69c0 -43 -25 -68 -66 -68zM142 821c-42 0 -65 25 -65 68c0 44 23 69 65 69c40 0 65 -25 65 -69c0 -43 -25 -68 -65 -68z" />
    <glyph glyph-name="Emacron" unicode="&#x112;" horiz-adv-x="482" 
d="M68 0v700h367v-96h-267v-200h254v-96h-254v-212h267v-96h-367zM439 841h-372v96h372v-96z" />
    <glyph glyph-name="Ebreve" unicode="&#x114;" horiz-adv-x="482" 
d="M68 0v700h367v-96h-267v-200h254v-96h-254v-212h267v-96h-367zM251 866c69 0 102 40 102 118v15h100v-15c0 -137 -72 -214 -202 -214c-131 0 -203 77 -203 214v15h101v-15c0 -78 33 -118 102 -118z" />
    <glyph glyph-name="Edotaccent" unicode="&#x116;" horiz-adv-x="482" 
d="M68 0v700h367v-96h-267v-200h254v-96h-254v-212h267v-96h-367zM256 821c-41 0 -65 25 -65 68c0 44 24 69 65 69c40 0 65 -25 65 -69c0 -43 -25 -68 -65 -68z" />
    <glyph glyph-name="Eogonek" unicode="&#x118;" horiz-adv-x="482" 
d="M291 -118c0 51 16 89 46 118h-269v700h367v-96h-267v-200h254v-96h-254v-212h267v-96c-30 -15 -45 -44 -45 -86c0 -37 20 -54 45 -54c20 0 30 2 41 6v-96c-21 -5 -40 -7 -58 -7c-76 0 -127 34 -127 119z" />
    <glyph glyph-name="Ecaron" unicode="&#x11a;" horiz-adv-x="482" 
d="M435 0h-367v700h367v-96h-267v-200h254v-96h-254v-212h267v-96zM217 780l-163 219h113l90 -119l90 119h112l-163 -219h-79z" />
    <glyph glyph-name="F" unicode="F" horiz-adv-x="472" 
d="M168 0h-100v700h367v-96h-267v-201h254v-96h-254v-307z" />
    <glyph glyph-name="G" unicode="G" horiz-adv-x="596" 
d="M299 86c80 0 141 46 141 133v8h-153v96h253v-323h-100v62c-32 -49 -82 -73 -141 -73c-161 0 -254 127 -254 361c0 240 93 361 254 361c135 0 238 -93 238 -279v-15h-102v15c0 119 -58 183 -136 183c-101 0 -154 -100 -154 -265s53 -264 154 -264z" />
    <glyph glyph-name="Gcircumflex" unicode="&#x11c;" horiz-adv-x="595" 
d="M299 86c80 0 141 46 141 133v8h-153v96h253v-323h-100v62c-32 -49 -82 -73 -141 -73c-161 0 -254 127 -254 361c0 240 93 361 254 361c135 0 238 -93 238 -279v-15h-102v15c0 119 -58 183 -136 183c-101 0 -154 -100 -154 -265s53 -264 154 -264zM203 780h-108l163 219
h79l163 -219h-108l-94 136z" />
    <glyph glyph-name="Gbreve" unicode="&#x11e;" horiz-adv-x="595" 
d="M299 86c80 0 141 46 141 133v8h-153v96h253v-323h-100v62c-32 -49 -82 -73 -141 -73c-161 0 -254 127 -254 361c0 240 93 361 254 361c135 0 238 -93 238 -279v-15h-102v15c0 119 -58 183 -136 183c-101 0 -154 -100 -154 -265s53 -264 154 -264zM191 984
c0 -78 33 -118 102 -118c70 0 102 40 102 118v15h101v-15c0 -137 -72 -214 -203 -214s-203 77 -203 214v15h101v-15z" />
    <glyph glyph-name="Gdotaccent" unicode="&#x120;" horiz-adv-x="595" 
d="M299 86c80 0 141 46 141 133v8h-153v96h253v-323h-100v62c-32 -49 -82 -73 -141 -73c-161 0 -254 127 -254 361c0 240 93 361 254 361c135 0 238 -93 238 -279v-15h-102v15c0 119 -58 183 -136 183c-101 0 -154 -100 -154 -265s53 -264 154 -264zM363 889
c0 -43 -25 -68 -66 -68s-64 25 -64 68c0 44 23 69 64 69s66 -25 66 -69z" />
    <glyph glyph-name="uni0122" unicode="&#x122;" horiz-adv-x="595" 
d="M299 86c80 0 141 46 141 133v8h-153v96h253v-323h-100v62c-32 -49 -82 -73 -141 -73c-161 0 -254 127 -254 361c0 240 93 361 254 361c135 0 238 -93 238 -279v-15h-102v15c0 119 -58 183 -136 183c-101 0 -154 -100 -154 -265s53 -264 154 -264zM359 -122
c0 -19 -7 -46 -21 -70l-31 -59h-65v129c0 39 21 63 58 63c38 0 59 -24 59 -63z" />
    <glyph glyph-name="H" unicode="H" horiz-adv-x="579" 
d="M512 0h-101v309h-243v-309h-100v700h100v-295h243v295h101v-700z" />
    <glyph glyph-name="Hcircumflex" unicode="&#x124;" horiz-adv-x="579" 
d="M512 700v-700h-101v309h-243v-309h-100v700h100v-295h243v295h101zM195 780h-108l163 219h79l163 -219h-108l-94 137z" />
    <glyph glyph-name="I" unicode="I" horiz-adv-x="303" 
d="M63 0v96h38v508h-38v96h176v-96h-37v-508h37v-96h-176z" />
    <glyph glyph-name="Igrave" unicode="&#xcc;" horiz-adv-x="302" 
d="M63 0v96h38v508h-38v96h176v-96h-37v-508h37v-96h-176zM195 780h-85l-84 219h123z" />
    <glyph glyph-name="Iacute" unicode="&#xcd;" horiz-adv-x="302" 
d="M63 0v96h38v508h-38v96h176v-96h-37v-508h37v-96h-176zM108 780l46 219h123l-84 -219h-85z" />
    <glyph glyph-name="Icircumflex" unicode="&#xce;" horiz-adv-x="302" 
d="M239 0h-176v96h38v508h-38v96h176v-96h-37v-508h37v-96zM93 780h-112l131 219h78l131 -219h-112l-58 116z" />
    <glyph glyph-name="Idieresis" unicode="&#xcf;" horiz-adv-x="302" 
d="M63 0v96h38v508h-38v96h176v-96h-37v-508h37v-96h-176zM237 821c-41 0 -64 25 -64 68c0 44 23 69 64 69s66 -25 66 -69c0 -43 -25 -68 -66 -68zM64 821c-42 0 -65 25 -65 68c0 44 23 69 65 69c40 0 65 -25 65 -69c0 -43 -25 -68 -65 -68z" />
    <glyph glyph-name="Itilde" unicode="&#x128;" horiz-adv-x="302" 
d="M63 0v96h38v508h-38v96h176v-96h-37v-508h37v-96h-176zM234 1009c81 0 137 -42 137 -184v-45h-100v65c0 47 -13 64 -37 64c-42 0 -69 -139 -166 -139c-81 0 -137 42 -137 184v45h100v-65c0 -47 14 -65 37 -65c43 0 65 140 166 140z" />
    <glyph glyph-name="Imacron" unicode="&#x12a;" horiz-adv-x="302" 
d="M63 0v96h38v508h-38v96h176v-96h-37v-508h37v-96h-176zM337 841h-372v96h372v-96z" />
    <glyph glyph-name="Ibreve" unicode="&#x12c;" horiz-adv-x="302" 
d="M63 0v96h38v508h-38v96h176v-96h-37v-508h37v-96h-176zM158 866c60 0 87 40 87 118v15h100v-15c0 -137 -66 -214 -187 -214c-122 0 -188 77 -188 214v15h101v-15c0 -78 28 -118 87 -118z" />
    <glyph glyph-name="Iogonek" unicode="&#x12e;" horiz-adv-x="302" 
d="M95 -118c0 51 16 89 46 118h-78v96h38v508h-38v96h176v-96h-37v-508h37v-96c-30 -15 -45 -44 -45 -86c0 -37 20 -54 45 -54c20 0 30 2 41 6v-96c-21 -5 -40 -7 -58 -7c-76 0 -127 34 -127 119z" />
    <glyph glyph-name="Idotaccent" unicode="&#x130;" horiz-adv-x="304" 
d="M64 0v96h38v508h-38v96h176v-96h-38v-508h38v-96h-176zM152 821c-42 0 -65 25 -65 68c0 44 23 69 65 69c40 0 65 -25 65 -69c0 -43 -25 -68 -65 -68z" />
    <glyph glyph-name="J" unicode="J" horiz-adv-x="491" 
d="M132 253v-23c0 -97 15 -144 97 -144s97 47 97 144v470h101v-470c0 -156 -49 -241 -198 -241s-198 84 -198 241v23h101z" />
    <glyph glyph-name="Jcircumflex" unicode="&#x134;" horiz-adv-x="496" 
d="M234 -11c-149 0 -198 84 -198 241v23h100v-23c0 -97 16 -144 98 -144s97 47 97 144v470h100v-470c0 -156 -48 -241 -197 -241zM139 780h-108l163 219h79l163 -219h-108l-94 136z" />
    <glyph glyph-name="K" unicode="K" horiz-adv-x="538" 
d="M68 0v700h100v-294h68l151 294h113l-178 -341l188 -359h-116l-159 310h-67v-310h-100z" />
    <glyph glyph-name="uni0136" unicode="&#x136;" horiz-adv-x="538" 
d="M68 0v700h100v-294h68l151 294h113l-178 -341l188 -359h-116l-159 310h-67v-310h-100zM318 -122c0 -19 -7 -46 -21 -70l-31 -59h-65v129c0 39 21 63 58 63c38 0 59 -24 59 -63z" />
    <glyph glyph-name="L" unicode="L" horiz-adv-x="459" 
d="M430 96v-96h-362v700h100v-604h262z" />
    <glyph glyph-name="Lacute" unicode="&#x139;" horiz-adv-x="459" 
d="M430 96v-96h-362v700h100v-604h262zM80 780l46 219h122l-83 -219h-85z" />
    <glyph glyph-name="uni013B" unicode="&#x13b;" horiz-adv-x="459" 
d="M430 96v-96h-362v700h100v-604h262zM255 -251h-65v129c0 39 21 63 58 63c38 0 60 -24 60 -63c0 -19 -7 -46 -22 -70z" />
    <glyph glyph-name="Lcaron" unicode="&#x13d;" horiz-adv-x="459" 
d="M430 96v-96h-362v700h100v-604h262zM359 575h-65v130c0 39 21 62 58 62s59 -23 59 -62c0 -19 -7 -47 -21 -71z" />
    <glyph glyph-name="M" unicode="M" horiz-adv-x="734" 
d="M666 700v-700h-100v500l1 62l-153 -432h-97l-153 429l1 -59v-500h-97v700h149l149 -440h2l149 440h149z" />
    <glyph glyph-name="N" unicode="N" horiz-adv-x="597" 
d="M375 0l-211 594h-2l3 -94v-500h-97v700h153l213 -593h1l-2 93v500h97v-700h-155z" />
    <glyph glyph-name="Ntilde" unicode="&#xd1;" horiz-adv-x="597" 
d="M375 0l-211 594h-2l3 -94v-500h-97v700h153l213 -593h1l-2 93v500h97v-700h-155zM384 1009c82 0 137 -42 137 -184v-45h-99v65c0 47 -14 64 -38 64c-42 0 -69 -139 -165 -139c-82 0 -137 42 -137 184v45h99v-65c0 -47 14 -65 38 -65c42 0 64 140 165 140z" />
    <glyph glyph-name="Nacute" unicode="&#x143;" horiz-adv-x="597" 
d="M375 0l-211 594h-2l3 -94v-500h-97v700h153l213 -593h1l-2 93v500h97v-700h-155zM230 780l46 219h122l-83 -219h-85z" />
    <glyph glyph-name="uni0145" unicode="&#x145;" horiz-adv-x="597" 
d="M375 0l-211 594h-2l3 -94v-500h-97v700h153l213 -593h1l-2 93v500h97v-700h-155zM304 -251h-65v129c0 39 21 63 58 63c38 0 60 -24 60 -63c0 -19 -7 -46 -22 -70z" />
    <glyph glyph-name="Ncaron" unicode="&#x147;" horiz-adv-x="597" 
d="M165 0h-97v700h153l213 -593h1l-2 93v500h97v-700h-155l-211 594h-2l3 -94v-500zM262 780l-163 219h112l90 -120l90 120h113l-163 -219h-79z" />
    <glyph glyph-name="O" unicode="O" horiz-adv-x="597" 
d="M452 350c0 165 -52 265 -153 265s-154 -100 -154 -265s53 -264 154 -264s153 99 153 264zM45 350c0 240 92 361 254 361c161 0 254 -121 254 -361c0 -239 -93 -361 -254 -361c-162 0 -254 122 -254 361z" />
    <glyph glyph-name="Ograve" unicode="&#xd2;" horiz-adv-x="597" 
d="M452 350c0 165 -52 265 -153 265s-154 -100 -154 -265s53 -264 154 -264s153 99 153 264zM45 350c0 240 92 361 254 361c161 0 254 -121 254 -361c0 -239 -93 -361 -254 -361c-162 0 -254 122 -254 361zM344 780h-85l-84 219h123z" />
    <glyph glyph-name="Oacute" unicode="&#xd3;" horiz-adv-x="597" 
d="M452 350c0 165 -52 265 -153 265s-154 -100 -154 -265s53 -264 154 -264s153 99 153 264zM45 350c0 240 92 361 254 361c161 0 254 -121 254 -361c0 -239 -93 -361 -254 -361c-162 0 -254 122 -254 361zM271 780l46 219h122l-83 -219h-85z" />
    <glyph glyph-name="Ocircumflex" unicode="&#xd4;" horiz-adv-x="597" 
d="M299 -11c-162 0 -254 122 -254 361c0 240 92 361 254 361c161 0 254 -121 254 -361c0 -239 -93 -361 -254 -361zM299 86c101 0 153 99 153 264s-52 265 -153 265s-154 -100 -154 -265s53 -264 154 -264zM205 780h-108l163 219h79l163 -219h-108l-94 137z" />
    <glyph glyph-name="Otilde" unicode="&#xd5;" horiz-adv-x="597" 
d="M452 350c0 165 -52 265 -153 265s-154 -100 -154 -265s53 -264 154 -264s153 99 153 264zM45 350c0 240 92 361 254 361c161 0 254 -121 254 -361c0 -239 -93 -361 -254 -361c-162 0 -254 122 -254 361zM382 1009c81 0 137 -42 137 -184v-45h-100v65c0 47 -13 64 -37 64
c-42 0 -69 -139 -166 -139c-81 0 -137 42 -137 184v45h100v-65c0 -47 13 -65 37 -65c43 0 65 140 166 140z" />
    <glyph glyph-name="Odieresis" unicode="&#xd6;" horiz-adv-x="597" 
d="M452 350c0 165 -52 265 -153 265s-154 -100 -154 -265s53 -264 154 -264s153 99 153 264zM45 350c0 240 92 361 254 361c161 0 254 -121 254 -361c0 -239 -93 -361 -254 -361c-162 0 -254 122 -254 361zM411 821c-42 0 -65 25 -65 68c0 44 23 69 65 69
c40 0 65 -25 65 -69c0 -43 -25 -68 -65 -68zM187 821c-41 0 -65 25 -65 68c0 44 24 69 65 69c40 0 65 -25 65 -69c0 -43 -25 -68 -65 -68z" />
    <glyph glyph-name="Omacron" unicode="&#x14c;" horiz-adv-x="597" 
d="M452 350c0 165 -52 265 -153 265s-154 -100 -154 -265s53 -264 154 -264s153 99 153 264zM45 350c0 240 92 361 254 361c161 0 254 -121 254 -361c0 -239 -93 -361 -254 -361c-162 0 -254 122 -254 361zM485 841h-372v96h372v-96z" />
    <glyph glyph-name="Obreve" unicode="&#x14e;" horiz-adv-x="597" 
d="M452 350c0 165 -52 265 -153 265s-154 -100 -154 -265s53 -264 154 -264s153 99 153 264zM45 350c0 240 92 361 254 361c161 0 254 -121 254 -361c0 -239 -93 -361 -254 -361c-162 0 -254 122 -254 361zM299 866c70 0 102 40 102 118v15h101v-15
c0 -137 -72 -214 -203 -214c-130 0 -202 77 -202 214v15h100v-15c0 -78 34 -118 102 -118z" />
    <glyph glyph-name="Ohungarumlaut" unicode="&#x150;" horiz-adv-x="598" 
d="M452 350c0 165 -52 265 -153 265s-154 -100 -154 -265s53 -264 154 -264s153 99 153 264zM45 350c0 240 92 361 254 361c161 0 254 -121 254 -361c0 -239 -93 -361 -254 -361c-162 0 -254 122 -254 361zM238 780h-85l48 219h122zM447 780h-85l65 219h122z" />
    <glyph glyph-name="P" unicode="P" horiz-adv-x="503" 
d="M268 604h-100v-236h100c60 0 94 38 94 118s-34 118 -94 118zM68 700h200c123 0 195 -74 195 -214s-72 -214 -195 -214h-100v-272h-100v700z" />
    <glyph glyph-name="Q" unicode="Q" horiz-adv-x="621" 
d="M300 -12c-163 0 -255 129 -255 362s92 362 255 362s256 -129 256 -362c0 -122 -29 -217 -91 -266h114v-96h-279zM300 84c102 0 155 101 155 266c0 166 -53 266 -155 266s-155 -100 -155 -266c0 -165 53 -266 155 -266z" />
    <glyph glyph-name="R" unicode="R" horiz-adv-x="538" 
d="M480 486c0 -99 -39 -168 -107 -197l122 -289h-108l-114 272h-105v-272h-100v700h217c123 0 195 -79 195 -214zM379 486c0 75 -34 118 -94 118h-117v-236h117c60 0 94 43 94 118z" />
    <glyph glyph-name="Racute" unicode="&#x154;" horiz-adv-x="538" 
d="M480 486c0 -99 -39 -168 -107 -197l122 -289h-108l-114 272h-105v-272h-100v700h217c123 0 195 -79 195 -214zM379 486c0 75 -34 118 -94 118h-117v-236h117c60 0 94 43 94 118zM276 780h-85l46 219h122z" />
    <glyph glyph-name="uni0156" unicode="&#x156;" horiz-adv-x="538" 
d="M480 486c0 -99 -39 -168 -107 -197l122 -289h-108l-114 272h-105v-272h-100v700h217c123 0 195 -79 195 -214zM379 486c0 75 -34 118 -94 118h-117v-236h117c60 0 94 43 94 118zM333 -122c0 -19 -7 -46 -22 -70l-31 -59h-65v129c0 39 21 63 58 63c38 0 60 -24 60 -63z
" />
    <glyph glyph-name="Rcaron" unicode="&#x158;" horiz-adv-x="538" 
d="M480 486c0 -99 -39 -168 -107 -197l122 -289h-108l-114 272h-105v-272h-100v700h217c123 0 195 -79 195 -214zM379 486c0 75 -34 118 -94 118h-117v-236h117c60 0 94 43 94 118zM232 780l-164 219h113l90 -119l90 119h113l-164 -219h-78z" />
    <glyph glyph-name="S" unicode="S" horiz-adv-x="533" 
d="M488 198c2 -112 -67 -209 -222 -209c-150 0 -221 76 -221 247v18h101v-18c0 -110 27 -150 120 -150c87 0 122 46 122 112c0 153 -335 64 -335 320c0 101 62 193 212 193c148 0 215 -80 215 -241v-18h-101v18c0 104 -23 145 -114 145c-78 0 -111 -44 -111 -97
c0 -153 334 -65 334 -320z" />
    <glyph glyph-name="Sacute" unicode="&#x15a;" horiz-adv-x="533" 
d="M488 198c2 -112 -67 -209 -222 -209c-150 0 -221 76 -221 247v18h101v-18c0 -110 27 -150 120 -150c87 0 122 46 122 112c0 153 -335 64 -335 320c0 101 62 193 212 193c148 0 215 -80 215 -241v-18h-101v18c0 104 -23 145 -114 145c-78 0 -111 -44 -111 -97
c0 -153 334 -65 334 -320zM219 780l46 219h123l-84 -219h-85z" />
    <glyph glyph-name="Scircumflex" unicode="&#x15c;" horiz-adv-x="533" 
d="M154 518c0 -153 334 -65 334 -320c2 -112 -67 -209 -222 -209c-150 0 -221 76 -221 247v18h101v-18c0 -110 27 -150 120 -150c87 0 122 46 122 112c0 153 -335 64 -335 320c0 101 62 193 212 193c148 0 215 -80 215 -241v-18h-101v18c0 104 -23 145 -114 145
c-78 0 -111 -44 -111 -97zM169 780h-108l163 219h79l163 -219h-108l-94 137z" />
    <glyph glyph-name="Scedilla" unicode="&#x15e;" horiz-adv-x="533" 
d="M154 518c0 -153 334 -65 334 -320c2 -99 -52 -187 -173 -205v-12c48 -14 62 -55 62 -101c0 -81 -52 -117 -127 -117c-18 0 -38 2 -58 7v96c14 -4 29 -6 43 -6c31 0 43 10 43 39c0 23 -9 33 -33 33h-29v60c-116 16 -171 93 -171 244v18h101v-18c0 -110 27 -150 120 -150
c87 0 122 46 122 112c0 153 -335 64 -335 320c0 101 62 193 212 193c148 0 215 -80 215 -241v-18h-101v18c0 104 -23 145 -114 145c-78 0 -111 -44 -111 -97z" />
    <glyph glyph-name="Scaron" unicode="&#x160;" horiz-adv-x="533" 
d="M154 518c0 -153 334 -65 334 -320c2 -112 -67 -209 -222 -209c-150 0 -221 76 -221 247v18h101v-18c0 -110 27 -150 120 -150c87 0 122 46 122 112c0 153 -335 64 -335 320c0 101 62 193 212 193c148 0 215 -80 215 -241v-18h-101v18c0 104 -23 145 -114 145
c-78 0 -111 -44 -111 -97zM224 780l-163 219h112l90 -120l90 120h113l-163 -219h-79z" />
    <glyph glyph-name="uni0218" unicode="&#x218;" horiz-adv-x="533" 
d="M488 198c2 -112 -67 -209 -222 -209c-150 0 -221 76 -221 247v18h101v-18c0 -110 27 -150 120 -150c87 0 122 46 122 112c0 153 -335 64 -335 320c0 101 62 193 212 193c148 0 215 -80 215 -241v-18h-101v18c0 104 -23 145 -114 145c-78 0 -111 -44 -111 -97
c0 -153 334 -65 334 -320zM270 -251h-65v129c0 39 21 63 58 63s59 -24 59 -63c0 -19 -7 -46 -21 -70z" />
    <glyph glyph-name="T" unicode="T" horiz-adv-x="483" 
d="M20 604v96h444v-96h-172v-604h-100v604h-172z" />
    <glyph glyph-name="uni0162" unicode="&#x162;" horiz-adv-x="483" 
d="M20 604v96h444v-96h-172v-604h-100v604h-172zM247 -251h-65v129c0 39 21 63 58 63c38 0 59 -24 59 -63c0 -19 -7 -46 -21 -70z" />
    <glyph glyph-name="Tcaron" unicode="&#x164;" horiz-adv-x="483" 
d="M192 604h-172v96h444v-96h-172v-604h-100v604zM201 780l-163 219h113l90 -119l90 119h112l-163 -219h-79z" />
    <glyph glyph-name="U" unicode="U" horiz-adv-x="573" 
d="M509 700v-403c0 -204 -78 -308 -222 -308c-148 0 -222 104 -222 308v403h100v-403c0 -141 41 -211 122 -211c80 0 121 70 121 211v403h101z" />
    <glyph glyph-name="Ugrave" unicode="&#xd9;" horiz-adv-x="573" 
d="M509 700v-403c0 -204 -78 -308 -222 -308c-148 0 -222 104 -222 308v403h100v-403c0 -141 41 -211 122 -211c80 0 121 70 121 211v403h101zM319 780h-85l-83 219h122z" />
    <glyph glyph-name="Uacute" unicode="&#xda;" horiz-adv-x="573" 
d="M509 700v-403c0 -204 -78 -308 -222 -308c-148 0 -222 104 -222 308v403h100v-403c0 -141 41 -211 122 -211c80 0 121 70 121 211v403h101zM257 780l46 219h123l-84 -219h-85z" />
    <glyph glyph-name="Ucircumflex" unicode="&#xdb;" horiz-adv-x="573" 
d="M287 86c80 0 121 70 121 211v403h101v-403c0 -204 -78 -308 -222 -308c-148 0 -222 104 -222 308v403h100v-403c0 -141 41 -211 122 -211zM191 780h-108l163 219h79l163 -219h-108l-94 136z" />
    <glyph glyph-name="Udieresis" unicode="&#xdc;" horiz-adv-x="573" 
d="M509 700v-403c0 -204 -78 -308 -222 -308c-148 0 -222 104 -222 308v403h100v-403c0 -141 41 -211 122 -211c80 0 121 70 121 211v403h101zM397 821c-41 0 -64 25 -64 68c0 44 23 69 64 69c40 0 65 -25 65 -69c0 -43 -25 -68 -65 -68zM173 821c-41 0 -64 25 -64 68
c0 44 23 69 64 69s66 -25 66 -69c0 -43 -25 -68 -66 -68z" />
    <glyph glyph-name="Utilde" unicode="&#x168;" horiz-adv-x="573" 
d="M509 700v-403c0 -204 -78 -308 -222 -308c-148 0 -222 104 -222 308v403h100v-403c0 -141 41 -211 122 -211c80 0 121 70 121 211v403h101zM370 1009c81 0 137 -42 137 -184v-45h-100v65c0 47 -14 64 -37 64c-42 0 -69 -139 -166 -139c-81 0 -137 42 -137 184v45h100v-65
c0 -47 13 -65 37 -65c43 0 64 140 166 140z" />
    <glyph glyph-name="Umacron" unicode="&#x16a;" horiz-adv-x="573" 
d="M509 700v-403c0 -204 -78 -308 -222 -308c-148 0 -222 104 -222 308v403h100v-403c0 -141 41 -211 122 -211c80 0 121 70 121 211v403h101zM472 841h-372v96h372v-96z" />
    <glyph glyph-name="Ubreve" unicode="&#x16c;" horiz-adv-x="573" 
d="M509 700v-403c0 -204 -78 -308 -222 -308c-148 0 -222 104 -222 308v403h100v-403c0 -141 41 -211 122 -211c80 0 121 70 121 211v403h101zM286 866c69 0 102 40 102 118v15h100v-15c0 -137 -72 -214 -202 -214c-131 0 -203 77 -203 214v15h101v-15
c0 -78 33 -118 102 -118z" />
    <glyph glyph-name="Uring" unicode="&#x16e;" horiz-adv-x="573" 
d="M509 700v-403c0 -204 -78 -308 -222 -308c-148 0 -222 104 -222 308v403h100v-403c0 -141 41 -211 122 -211c80 0 121 70 121 211v403h101zM286 706c-84 0 -133 55 -133 159c0 105 49 159 133 159c83 0 132 -54 132 -159c0 -104 -49 -159 -132 -159zM286 788
c32 0 52 24 52 77s-20 77 -52 77c-33 0 -52 -24 -52 -77s19 -77 52 -77z" />
    <glyph glyph-name="Uhungarumlaut" unicode="&#x170;" horiz-adv-x="573" 
d="M509 700v-403c0 -204 -78 -308 -222 -308c-148 0 -222 104 -222 308v403h100v-403c0 -141 41 -211 122 -211c80 0 121 70 121 211v403h101zM220 780h-86l49 219h122zM429 780h-85l65 219h122z" />
    <glyph glyph-name="Uogonek" unicode="&#x172;" horiz-adv-x="573" 
d="M213 -118c0 46 13 81 36 109c-123 17 -184 121 -184 306v403h100v-403c0 -142 41 -213 122 -213c80 0 121 71 121 213v403h101v-403c0 -169 -52 -269 -150 -299c-30 -9 -47 -43 -47 -84c0 -37 20 -54 45 -54c20 0 30 2 41 6v-96c-21 -5 -40 -7 -58 -7
c-76 0 -127 34 -127 119z" />
    <glyph glyph-name="V" unicode="V" horiz-adv-x="526" 
d="M328 0h-129l-178 700h106l126 -500l11 -74h2l12 74l126 500h102z" />
    <glyph glyph-name="W" unicode="W" horiz-adv-x="824" 
d="M804 700l-149 -700h-131l-105 500l-6 65h-2l-5 -65l-106 -500h-131l-149 700h101l105 -500l10 -90h2l10 90l105 500h123l105 -500l9 -90h2l10 90l105 500h97z" />
    <glyph glyph-name="Wcircumflex" unicode="&#x174;" horiz-adv-x="824" 
d="M707 700h97l-149 -700h-131l-105 500l-6 65h-2l-5 -65l-106 -500h-131l-149 700h101l105 -500l10 -90h2l10 90l105 500h123l105 -500l9 -90h2l10 90zM317 780h-108l163 219h79l163 -219h-108l-94 136z" />
    <glyph glyph-name="Wgrave" unicode="&#x1e80;" horiz-adv-x="824" 
d="M804 700l-149 -700h-131l-105 500l-6 65h-2l-5 -65l-106 -500h-131l-149 700h101l105 -500l10 -90h2l10 90l105 500h123l105 -500l9 -90h2l10 90l105 500h97zM442 780h-85l-84 219h123z" />
    <glyph glyph-name="Wacute" unicode="&#x1e82;" horiz-adv-x="824" 
d="M804 700l-149 -700h-131l-105 500l-6 65h-2l-5 -65l-106 -500h-131l-149 700h101l105 -500l10 -90h2l10 90l105 500h123l105 -500l9 -90h2l10 90l105 500h97zM376 780l46 219h122l-83 -219h-85z" />
    <glyph glyph-name="Wdieresis" unicode="&#x1e84;" horiz-adv-x="824" 
d="M804 700l-149 -700h-131l-105 500l-6 65h-2l-5 -65l-106 -500h-131l-149 700h101l105 -500l10 -90h2l10 90l105 500h123l105 -500l9 -90h2l10 90l105 500h97zM523 821c-41 0 -65 25 -65 68c0 44 24 69 65 69c40 0 65 -25 65 -69c0 -43 -25 -68 -65 -68zM299 821
c-41 0 -64 25 -64 68c0 44 23 69 64 69c40 0 65 -25 65 -69c0 -43 -25 -68 -65 -68z" />
    <glyph glyph-name="X" unicode="X" horiz-adv-x="541" 
d="M385 700h108l-158 -334l172 -366h-118l-90 200l-29 83h-3l-30 -83l-92 -200h-111l171 360l-157 340h115l78 -181l29 -82h2l30 82z" />
    <glyph glyph-name="Y" unicode="Y" horiz-adv-x="489" 
d="M194 0v206l-177 494h106l97 -272l24 -92h2l26 92l96 272h104l-177 -494v-206h-101z" />
    <glyph glyph-name="Yacute" unicode="&#xdd;" horiz-adv-x="489" 
d="M194 0v206l-177 494h106l97 -272l24 -92h2l26 92l96 272h104l-177 -494v-206h-101zM294 780h-85l46 219h122z" />
    <glyph glyph-name="Ycircumflex" unicode="&#x176;" horiz-adv-x="489" 
d="M194 0v206l-177 494h106l97 -272l24 -92h2l26 92l96 272h104l-177 -494v-206h-101zM146 780h-108l163 219h79l163 -219h-108l-94 136z" />
    <glyph glyph-name="Ydieresis" unicode="&#x178;" horiz-adv-x="489" 
d="M194 0v206l-177 494h106l97 -272l24 -92h2l26 92l96 272h104l-177 -494v-206h-101zM193 889c0 -43 -25 -68 -65 -68c-42 0 -65 25 -65 68c0 44 23 69 65 69c40 0 65 -25 65 -69zM417 889c0 -43 -25 -68 -66 -68s-64 25 -64 68c0 44 23 69 64 69s66 -25 66 -69z" />
    <glyph glyph-name="Ygrave" unicode="&#x1ef2;" horiz-adv-x="489" 
d="M194 0v206l-177 494h106l97 -272l24 -92h2l26 92l96 272h104l-177 -494v-206h-101zM224 999l46 -219h-85l-83 219h122z" />
    <glyph glyph-name="Z" unicode="Z" horiz-adv-x="489" 
d="M435 604l-273 -506v-2h282v-96h-399v96l274 506v2h-263v96h379v-96z" />
    <glyph glyph-name="Zacute" unicode="&#x179;" horiz-adv-x="489" 
d="M435 604l-273 -506v-2h282v-96h-399v96l274 506v2h-263v96h379v-96zM192 780l46 219h122l-83 -219h-85z" />
    <glyph glyph-name="Zdotaccent" unicode="&#x17b;" horiz-adv-x="489" 
d="M435 604l-273 -506v-2h282v-96h-399v96l274 506v2h-263v96h379v-96zM252 821c-41 0 -65 25 -65 68c0 44 24 69 65 69c40 0 65 -25 65 -69c0 -43 -25 -68 -65 -68z" />
    <glyph glyph-name="Zcaron" unicode="&#x17d;" horiz-adv-x="489" 
d="M435 700v-96l-273 -506v-2h282v-96h-399v96l274 506v2h-263v96h379zM205 780l-163 219h112l91 -119l90 119h112l-163 -219h-79z" />
    <glyph glyph-name="AE" unicode="&#xc6;" horiz-adv-x="774" 
d="M125 0h-102l191 700h513v-99h-267v-195h254v-99h-254v-208h267v-99h-368v135h-199zM359 601h-76l-97 -367h173v367z" />
    <glyph glyph-name="AEacute" unicode="&#x1fc;" horiz-adv-x="774" 
d="M125 0h-102l191 700h513v-99h-267v-195h254v-99h-254v-208h267v-99h-368v135h-199zM359 601h-76l-97 -367h173v367zM463 780h-85l46 219h123z" />
    <glyph glyph-name="Eth" unicode="&#xd0;" horiz-adv-x="576" 
d="M532 350c0 -222 -91 -350 -261 -350h-203v309h-75v96h75v295h203c170 0 261 -127 261 -350zM431 350c0 158 -54 254 -160 254h-103v-199h116v-96h-116v-213h103c106 0 160 95 160 254z" />
    <glyph glyph-name="Oslash" unicode="&#xd8;" horiz-adv-x="615" 
d="M308 711c50 0 92 -15 128 -43l19 32h111l-53 -91c37 -60 57 -147 57 -259c0 -232 -93 -361 -263 -361c-50 0 -93 15 -129 44l-19 -33h-110l53 91c-38 60 -57 148 -57 259c0 232 93 361 263 361zM470 350c0 59 -6 111 -19 152l-223 -383c21 -22 48 -33 79 -33
c107 0 163 100 163 264zM145 350c0 -60 6 -111 19 -152l222 384c-21 21 -47 33 -78 33c-107 0 -163 -100 -163 -265z" />
    <glyph glyph-name="Oslashacute" unicode="&#x1fe;" horiz-adv-x="615" 
d="M308 711c50 0 92 -15 128 -43l19 32h111l-53 -91c37 -60 57 -147 57 -259c0 -232 -93 -361 -263 -361c-50 0 -93 15 -129 44l-19 -33h-110l53 91c-38 60 -57 148 -57 259c0 232 93 361 263 361zM470 350c0 59 -6 111 -19 152l-223 -383c21 -22 48 -33 79 -33
c107 0 163 100 163 264zM145 350c0 -60 6 -111 19 -152l222 384c-21 21 -47 33 -78 33c-107 0 -163 -100 -163 -265zM336 777h-77l57 173h106z" />
    <glyph glyph-name="Thorn" unicode="&#xde;" horiz-adv-x="501" 
d="M168 231h100c60 0 94 43 94 118s-34 118 -94 118h-100v-236zM68 700h100v-137h100c123 0 195 -79 195 -214s-72 -214 -195 -214h-100v-135h-100v700z" />
    <glyph glyph-name="Dcroat" unicode="&#x110;" horiz-adv-x="576" 
d="M532 350c0 -222 -91 -350 -261 -350h-203v309h-75v96h75v295h203c170 0 261 -127 261 -350zM431 350c0 158 -54 254 -160 254h-103v-199h116v-96h-116v-213h103c106 0 160 95 160 254z" />
    <glyph glyph-name="Hbar" unicode="&#x126;" horiz-adv-x="579" 
d="M512 511v-511h-101v309h-243v-309h-100v511h-59v96h59v93h100v-93h243v93h101v-93h58v-96h-58zM411 405v106h-243v-106h243z" />
    <glyph glyph-name="IJ" unicode="&#x132;" horiz-adv-x="561" 
d="M64 297v96h38v211h-38v96h176v-96h-38v-211h38v-96h-176zM342 700h155v-470c0 -157 -49 -242 -198 -242s-197 84 -197 242v25h100v-25c0 -95 15 -141 97 -141s97 46 97 141v374h-54v96z" />
    <glyph glyph-name="Ldot" unicode="&#x13f;" horiz-adv-x="459" 
d="M430 96v-96h-362v700h100v-604h262zM309 287c-41 0 -64 25 -64 68c0 44 23 69 64 69c40 0 65 -25 65 -69c0 -43 -25 -68 -65 -68z" />
    <glyph glyph-name="Lslash" unicode="&#x141;" horiz-adv-x="459" 
d="M168 433l212 149h6v-108l-218 -153v-225h262v-96h-362v250l-66 -46h-6v108l72 51v337h100v-267z" />
    <glyph glyph-name="Eng" unicode="&#x14a;" horiz-adv-x="597" 
d="M530 -43c0 -136 -50 -215 -194 -215h-20v100h20c82 0 97 43 97 115v43h-58l-211 594h-2l3 -94v-500h-97v700h153l213 -593h1l-2 93v500h97v-743z" />
    <glyph glyph-name="OE" unicode="&#x152;" horiz-adv-x="866" 
d="M291 -11c-157 0 -246 122 -246 361c0 240 89 361 246 361c68 0 123 -27 161 -81v70h368v-97h-267v-198h253v-97h-253v-211h267v-97h-368v70c-38 -54 -93 -81 -161 -81zM299 89c101 0 153 98 153 261s-52 262 -153 262s-154 -99 -154 -262s53 -261 154 -261z" />
    <glyph glyph-name="Tbar" unicode="&#x166;" horiz-adv-x="483" 
d="M192 604h-172v96h444v-96h-172v-199h135v-96h-135v-309h-100v309h-137v96h137v199z" />
    <glyph glyph-name="uni0402" unicode="&#x402;" horiz-adv-x="656" 
d="M292 381c26 28 66 45 123 45c171 0 207 -104 207 -219c0 -114 -36 -219 -207 -219h-27v96h19c99 0 115 63 115 123s-16 123 -115 123c-100 0 -115 -61 -115 -117v-213h-100v604h-172v96h444v-96h-172v-223z" />
    <glyph glyph-name="uni0404" unicode="&#x404;" horiz-adv-x="584" 
d="M299 711c135 0 238 -93 238 -279v-15h-102v15c0 119 -58 183 -136 183c-95 0 -143 -64 -152 -210h221v-96h-222c7 -156 55 -223 153 -223c78 0 137 69 137 193v18h102v-18c0 -193 -101 -290 -239 -290c-173 0 -254 117 -254 361s81 361 254 361z" />
    <glyph glyph-name="uni0405" unicode="&#x405;" horiz-adv-x="530" 
d="M488 198c2 -112 -67 -209 -222 -209c-150 0 -221 76 -221 247v18h101v-18c0 -110 27 -150 120 -150c87 0 122 46 122 112c0 153 -335 64 -335 320c0 101 62 193 212 193c148 0 215 -80 215 -241v-18h-101v18c0 104 -23 145 -114 145c-78 0 -111 -44 -111 -97
c0 -153 334 -65 334 -320z" />
    <glyph glyph-name="uni0406" unicode="&#x406;" horiz-adv-x="303" 
d="M63 0v96h38v508h-38v96h176v-96h-37v-508h37v-96h-176z" />
    <glyph glyph-name="uni0407" unicode="&#x407;" horiz-adv-x="302" 
d="M63 0v96h38v508h-38v96h176v-96h-37v-508h37v-96h-176zM237 821c-41 0 -64 25 -64 68c0 44 23 69 64 69s66 -25 66 -69c0 -43 -25 -68 -66 -68zM64 821c-42 0 -65 25 -65 68c0 44 23 69 65 69c40 0 65 -25 65 -69c0 -43 -25 -68 -65 -68z" />
    <glyph glyph-name="uni0408" unicode="&#x408;" horiz-adv-x="492" 
d="M132 253v-23c0 -97 15 -144 97 -144s97 47 97 144v470h101v-470c0 -156 -49 -241 -198 -241s-198 84 -198 241v23h101z" />
    <glyph glyph-name="uni0409" unicode="&#x409;" horiz-adv-x="832" 
d="M56 94c46 0 72 16 82 326l9 280h360v-281h89c123 0 195 -72 195 -209s-72 -210 -195 -210h-190v604h-162l-6 -184c-14 -387 -63 -426 -182 -426h-23v100h23zM691 210c0 76 -34 113 -95 113h-89v-227h89c61 0 95 37 95 114z" />
    <glyph glyph-name="uni040A" unicode="&#x40a;" horiz-adv-x="827" 
d="M786 203c0 -132 -72 -203 -195 -203h-190v310h-233v-310h-100v700h100v-294h233v294h100v-294h90c123 0 195 -71 195 -203zM686 203c0 72 -35 107 -95 107h-90v-214h90c60 0 95 35 95 107z" />
    <glyph glyph-name="uni040B" unicode="&#x40b;" horiz-adv-x="664" 
d="M417 426c169 0 205 -91 205 -211v-215h-100v215c0 65 -15 115 -114 115c-98 0 -116 -56 -116 -122v-208h-100v604h-172v96h444v-96h-172v-223c27 28 67 45 125 45z" />
    <glyph glyph-name="uni040F" unicode="&#x40f;" horiz-adv-x="581" 
d="M240 -199v199h-172v700h100v-604h245v604h100v-700h-172v-199h-101z" />
    <glyph glyph-name="uni0410" unicode="&#x410;" horiz-adv-x="534" 
d="M374 134h-217l-31 -134h-102l166 700h151l170 -700h-105zM177 230h177l-66 270l-23 112h-3l-22 -112z" />
    <glyph glyph-name="uni0411" unicode="&#x411;" horiz-adv-x="503" 
d="M463 214c0 -135 -72 -214 -195 -214h-200v700h369v-96h-269v-176h100c123 0 195 -79 195 -214zM362 214c0 75 -34 118 -94 118h-100v-236h100c60 0 94 43 94 118z" />
    <glyph glyph-name="uni0412" unicode="&#x412;" horiz-adv-x="527" 
d="M481 204c0 -129 -71 -204 -198 -204h-215v700h215c131 0 188 -73 188 -196c0 -72 -24 -123 -83 -146c61 -27 93 -81 93 -154zM380 204c0 66 -33 105 -97 105h-115v-213h115c64 0 97 39 97 108zM371 504c0 61 -20 100 -88 100h-115v-199h115c68 0 88 36 88 99z" />
    <glyph glyph-name="uni0413" unicode="&#x413;" horiz-adv-x="442" 
d="M430 700v-96h-262v-604h-100v700h362z" />
    <glyph glyph-name="uni0403" unicode="&#x403;" horiz-adv-x="442" 
d="M430 700v-96h-262v-604h-100v700h362zM202 780l46 219h123l-84 -219h-85z" />
    <glyph glyph-name="uni0414" unicode="&#x414;" horiz-adv-x="622" 
d="M90 96c22 64 40 179 49 488l4 116h383v-604h66v-295h-100v199h-363v-199h-101v295h62zM237 584c-8 -279 -27 -417 -48 -488h236v508h-187z" />
    <glyph glyph-name="uni0415" unicode="&#x415;" horiz-adv-x="482" 
d="M68 0v700h367v-96h-267v-200h254v-96h-254v-212h267v-96h-367z" />
    <glyph glyph-name="uni0401" unicode="&#x401;" horiz-adv-x="482" 
d="M68 0v700h367v-96h-267v-200h254v-96h-254v-212h267v-96h-367zM362 821c-41 0 -64 25 -64 68c0 44 23 69 64 69c40 0 65 -25 65 -69c0 -43 -25 -68 -65 -68zM138 821c-41 0 -64 25 -64 68c0 44 23 69 64 69s66 -25 66 -69c0 -43 -25 -68 -66 -68z" />
    <glyph glyph-name="uni0416" unicode="&#x416;" horiz-adv-x="811" 
d="M655 700h113l-148 -332l167 -368h-112l-141 320h-78v-320h-101v320h-79l-141 -320h-112l168 370l-148 330h113l121 -284h78v284h101v-284h78z" />
    <glyph glyph-name="uni0417" unicode="&#x417;" horiz-adv-x="512" 
d="M255 -11c-134 0 -211 76 -211 208v56h100v-56c0 -75 39 -111 111 -111c71 0 110 36 110 111c0 71 -26 112 -92 112h-81v96h81c72 0 83 39 83 104c0 70 -35 106 -101 106c-72 0 -109 -36 -109 -106v-58h-100v58c0 134 77 202 209 202c126 0 202 -68 202 -202
c0 -73 -19 -126 -74 -151c58 -29 83 -86 83 -161c0 -132 -75 -208 -211 -208z" />
    <glyph glyph-name="uni0418" unicode="&#x418;" horiz-adv-x="601" 
d="M376 700h157v-700h-100v500l2 94h-2l-207 -594h-158v700h100v-500l-2 -93h2z" />
    <glyph glyph-name="uni0419" unicode="&#x419;" horiz-adv-x="601" 
d="M376 700h157v-700h-100v500l2 94h-2l-207 -594h-158v700h100v-500l-2 -93h2zM301 866c69 0 102 40 102 118v15h100v-15c0 -137 -72 -214 -202 -214c-131 0 -203 77 -203 214v15h100v-15c0 -78 34 -118 103 -118z" />
    <glyph glyph-name="uni041A" unicode="&#x41a;" horiz-adv-x="538" 
d="M68 0v700h100v-294h68l151 294h113l-178 -341l188 -359h-116l-159 310h-67v-310h-100z" />
    <glyph glyph-name="uni040C" unicode="&#x40c;" horiz-adv-x="538" 
d="M68 0v700h100v-294h68l151 294h113l-178 -341l188 -359h-116l-159 310h-67v-310h-100zM292 780h-85l46 219h122z" />
    <glyph glyph-name="uni041B" unicode="&#x41b;" horiz-adv-x="584" 
d="M56 94c46 0 72 16 82 326l9 280h370v-700h-101v604h-172l-6 -184c-14 -387 -63 -426 -182 -426h-23v100h23z" />
    <glyph glyph-name="uni041C" unicode="&#x41c;" horiz-adv-x="734" 
d="M666 700v-700h-100v500l1 62l-153 -432h-97l-153 429l1 -59v-500h-97v700h149l149 -440h2l149 440h149z" />
    <glyph glyph-name="uni041D" unicode="&#x41d;" horiz-adv-x="579" 
d="M512 0h-101v309h-243v-309h-100v700h100v-295h243v295h101v-700z" />
    <glyph glyph-name="uni041E" unicode="&#x41e;" horiz-adv-x="597" 
d="M452 350c0 165 -52 265 -153 265s-154 -100 -154 -265s53 -264 154 -264s153 99 153 264zM45 350c0 240 92 361 254 361c161 0 254 -121 254 -361c0 -239 -93 -361 -254 -361c-162 0 -254 122 -254 361z" />
    <glyph glyph-name="uni041F" unicode="&#x41f;" horiz-adv-x="581" 
d="M513 0h-100v604h-245v-604h-100v700h445v-700z" />
    <glyph glyph-name="uni0420" unicode="&#x420;" horiz-adv-x="503" 
d="M268 604h-100v-236h100c60 0 94 38 94 118s-34 118 -94 118zM68 700h200c123 0 195 -74 195 -214s-72 -214 -195 -214h-100v-272h-100v700z" />
    <glyph glyph-name="uni0421" unicode="&#x421;" horiz-adv-x="584" 
d="M537 417h-102v15c0 119 -58 183 -136 183c-101 0 -154 -100 -154 -265s53 -264 154 -264c78 0 137 69 137 193v18h102v-18c0 -193 -101 -290 -239 -290c-161 0 -254 122 -254 361c0 240 93 361 254 361c135 0 238 -93 238 -279v-15z" />
    <glyph glyph-name="uni0422" unicode="&#x422;" horiz-adv-x="483" 
d="M20 604v96h444v-96h-172v-604h-100v604h-172z" />
    <glyph glyph-name="uni0423" unicode="&#x423;" horiz-adv-x="491" 
d="M124 700l107 -285l25 -83h2l23 83l95 285h101l-169 -502c-58 -178 -93 -202 -192 -202h-13v99h13c36 0 67 8 92 105l-190 500h106z" />
    <glyph glyph-name="uni040E" unicode="&#x40e;" horiz-adv-x="491" 
d="M124 700l107 -285l25 -83h2l23 83l95 285h101l-169 -502c-58 -178 -93 -202 -192 -202h-13v99h13c36 0 67 8 92 105l-190 500h106zM256 866c70 0 102 40 102 118v15h101v-15c0 -137 -72 -214 -203 -214s-203 77 -203 214v15h101v-15c0 -78 33 -118 102 -118z" />
    <glyph glyph-name="uni0424" unicode="&#x424;" horiz-adv-x="711" 
d="M37 380c0 198 94 302 238 302h30v68h101v-68h30c144 0 239 -105 239 -302s-95 -302 -239 -302h-30v-78h-101v78h-30c-144 0 -238 105 -238 302zM137 380c0 -135 60 -206 138 -206h32v412h-32c-78 0 -138 -71 -138 -206zM574 380c0 135 -60 206 -138 206h-32v-412h32
c78 0 138 72 138 206z" />
    <glyph glyph-name="uni0425" unicode="&#x425;" horiz-adv-x="541" 
d="M385 700h108l-158 -334l172 -366h-118l-90 200l-29 83h-3l-30 -83l-92 -200h-111l171 360l-157 340h115l78 -181l29 -82h2l30 82z" />
    <glyph glyph-name="uni0426" unicode="&#x426;" horiz-adv-x="609" 
d="M479 0h-411v700h100v-604h245v604h100v-604h66v-295h-100v199z" />
    <glyph glyph-name="uni0427" unicode="&#x427;" horiz-adv-x="541" 
d="M230 370h143v330h101v-700h-101v274h-143c-154 0 -187 95 -187 193v233h100v-233c0 -45 12 -97 87 -97z" />
    <glyph glyph-name="uni0428" unicode="&#x428;" horiz-adv-x="792" 
d="M624 700h100v-700h-656v700h100v-604h178v604h100v-604h178v604z" />
    <glyph glyph-name="uni0429" unicode="&#x429;" horiz-adv-x="820" 
d="M690 0h-622v700h100v-604h178v604h100v-604h178v604h100v-604h66v-295h-100v199z" />
    <glyph glyph-name="uni042A" unicode="&#x42a;" horiz-adv-x="591" 
d="M356 96c60 0 94 38 94 118s-34 118 -94 118h-100v-236h100zM256 700v-272h100c123 0 195 -74 195 -214s-72 -214 -195 -214h-200v604h-136v96h236z" />
    <glyph glyph-name="uni042B" unicode="&#x42b;" horiz-adv-x="699" 
d="M68 0v700h100v-272h100c123 0 195 -74 195 -214s-72 -214 -195 -214h-200zM268 96c60 0 94 38 94 118s-34 118 -94 118h-100v-236h100zM632 700v-700h-101v700h101z" />
    <glyph glyph-name="uni042C" unicode="&#x42c;" horiz-adv-x="503" 
d="M68 0v700h100v-272h100c123 0 195 -74 195 -214s-72 -214 -195 -214h-200zM268 96c60 0 94 38 94 118s-34 118 -94 118h-100v-236h100z" />
    <glyph glyph-name="uni042D" unicode="&#x42d;" horiz-adv-x="584" 
d="M286 615c-79 0 -137 -64 -137 -183v-15h-101v15c0 186 102 279 238 279c173 0 254 -117 254 -361s-81 -361 -254 -361c-139 0 -240 97 -240 290v18h102v-18c0 -124 59 -193 138 -193c97 0 145 67 152 223h-222v96h221c-9 146 -57 210 -151 210z" />
    <glyph glyph-name="uni042E" unicode="&#x42e;" horiz-adv-x="785" 
d="M494 -11c-148 0 -236 108 -246 320h-80v-309h-100v700h100v-295h81c13 203 100 306 245 306c157 0 247 -121 247 -361c0 -239 -90 -361 -247 -361zM494 86c96 0 146 99 146 264s-50 265 -146 265s-147 -100 -147 -265s51 -264 147 -264z" />
    <glyph glyph-name="uni042F" unicode="&#x42f;" horiz-adv-x="551" 
d="M63 482c0 138 73 218 197 218h223v-700h-100v264h-123h-5l-98 -264h-109l107 289c-59 34 -92 100 -92 193zM163 482c0 -78 36 -122 97 -122h123v244h-123c-61 0 -97 -44 -97 -122z" />
    <glyph glyph-name="uni0490" unicode="&#x490;" horiz-adv-x="442" 
d="M68 700h262v199h100v-295h-262v-604h-100v700z" />
    <glyph glyph-name="uni0492" unicode="&#x492;" horiz-adv-x="440" 
d="M65 308h-59v96h59v296h363v-96h-262v-200h169v-96h-169v-308h-101v308z" />
    <glyph glyph-name="uni0496" unicode="&#x496;" horiz-adv-x="830" 
d="M655 700h113l-148 -332l123 -272h63v-295h-100v199h-31l-141 320h-78v-320h-101v320h-79l-141 -320h-112l168 370l-148 330h113l121 -284h78v284h101v-284h78z" />
    <glyph glyph-name="uni0498" unicode="&#x498;" horiz-adv-x="512" 
d="M205 -7c-103 17 -161 89 -161 204v56h100v-56c0 -75 39 -111 111 -111c71 0 110 36 110 111c0 71 -26 112 -92 112h-81v96h81c72 0 83 39 83 104c0 70 -35 106 -101 106c-72 0 -109 -36 -109 -106v-58h-100v58c0 134 77 202 209 202c126 0 202 -68 202 -202
c0 -73 -19 -126 -74 -151c58 -29 83 -86 83 -161c0 -115 -57 -187 -161 -204v-192h-100v192z" />
    <glyph glyph-name="uni049A" unicode="&#x49a;" horiz-adv-x="549" 
d="M68 0v700h100v-294h68l151 294h113l-178 -341l134 -263h69v-295h-101v199h-30l-159 310h-67v-310h-100z" />
    <glyph glyph-name="uni049C" unicode="&#x49c;" horiz-adv-x="639" 
d="M212 541h100v-135h27l149 294h113l-175 -341l184 -359h-116l-155 310h-27v-135h-100v135h-44v-310h-100v700h100v-294h44v135z" />
    <glyph glyph-name="uni04A0" unicode="&#x4a0;" horiz-adv-x="626" 
d="M475 700h113l-178 -341l188 -359h-116l-159 310h-67v-310h-100v604h-136v96h236v-294h68z" />
    <glyph glyph-name="uni04A2" unicode="&#x4a2;" horiz-adv-x="608" 
d="M512 96h66v-295h-101v199h-66v309h-243v-309h-100v700h100v-295h243v295h101v-604z" />
    <glyph glyph-name="uni04AA" unicode="&#x4aa;" horiz-adv-x="584" 
d="M538 279c0 -170 -79 -265 -193 -286v-192h-100v193c-128 25 -200 144 -200 356c0 240 93 361 254 361c135 0 238 -93 238 -279v-15h-102v15c0 119 -58 183 -136 183c-101 0 -154 -100 -154 -265s53 -264 154 -264c78 0 137 69 137 193v18h102v-18z" />
    <glyph glyph-name="uni04AE" unicode="&#x4ae;" horiz-adv-x="489" 
d="M194 0v206l-177 494h106l97 -272l24 -92h2l26 92l96 272h104l-177 -494v-206h-101z" />
    <glyph glyph-name="uni04B0" unicode="&#x4b0;" horiz-adv-x="489" 
d="M472 700l-177 -494v-14h114v-96h-114v-96h-101v96h-114v96h114v14l-177 494h106l97 -272l24 -92h2l26 92l96 272h104z" />
    <glyph glyph-name="uni04B2" unicode="&#x4b2;" horiz-adv-x="544" 
d="M205 360l-157 340h115l78 -181l29 -82h2l30 82l83 181h108l-158 -334l122 -270h63v-295h-101v199h-30l-90 200l-29 83h-3l-30 -83l-92 -200h-111z" />
    <glyph glyph-name="uni04B6" unicode="&#x4b6;" horiz-adv-x="570" 
d="M43 700h100v-233c0 -45 12 -97 87 -97h143v330h101v-604h66v-295h-100v199h-67v274h-143c-154 0 -187 95 -187 193v233z" />
    <glyph glyph-name="uni04BA" unicode="&#x4ba;" horiz-adv-x="541" 
d="M311 330h-143v-330h-100v700h100v-274h143c155 0 188 -95 188 -193v-233h-101v233c0 45 -11 97 -87 97z" />
    <glyph glyph-name="uni04C0" unicode="&#x4c0;" horiz-adv-x="235" 
d="M168 0h-101v700h101v-700z" />
    <glyph glyph-name="uni04D8" unicode="&#x4d8;" horiz-adv-x="584" 
d="M286 -11c-140 0 -240 100 -240 308v69h393c-3 155 -55 249 -153 249c-79 0 -137 -61 -137 -175v-5h-101v5c0 179 102 271 238 271c161 0 254 -121 254 -361c0 -254 -93 -361 -254 -361zM286 86c85 0 135 54 149 183h-286c7 -123 63 -183 137 -183z" />
    <glyph glyph-name="uni04E8" unicode="&#x4e8;" horiz-adv-x="597" 
d="M299 -11c-162 0 -254 122 -254 361c0 240 92 361 254 361c161 0 254 -121 254 -361c0 -239 -93 -361 -254 -361zM146 307c9 -139 61 -221 153 -221c91 0 143 82 152 221h-305zM450 403c-10 133 -62 212 -151 212c-90 0 -142 -79 -152 -212h303z" />
    <glyph glyph-name="a" unicode="a" horiz-adv-x="466" 
d="M232 509c106 0 170 -51 170 -157v-352h-98v54c-25 -39 -64 -63 -116 -63c-87 0 -140 57 -140 150c0 94 55 149 145 149h111v62c0 48 -26 65 -72 65c-49 0 -74 -17 -74 -65v-12h-97v12c0 103 64 157 171 157zM145 144c0 -41 20 -61 55 -61c64 0 104 28 104 94v30h-99
c-38 0 -60 -20 -60 -63z" />
    <glyph glyph-name="agrave" unicode="&#xe0;" horiz-adv-x="466" 
d="M232 509c106 0 170 -51 170 -157v-352h-98v54c-25 -39 -64 -63 -116 -63c-87 0 -140 57 -140 150c0 94 55 149 145 149h111v62c0 48 -26 65 -72 65c-49 0 -74 -17 -74 -65v-12h-97v12c0 103 64 157 171 157zM145 144c0 -41 20 -61 55 -61c64 0 104 28 104 94v30h-99
c-38 0 -60 -20 -60 -63zM195 750l57 -173h-77l-86 173h106z" />
    <glyph glyph-name="aacute" unicode="&#xe1;" horiz-adv-x="466" 
d="M232 509c106 0 170 -51 170 -157v-352h-98v54c-25 -39 -64 -63 -116 -63c-87 0 -140 57 -140 150c0 94 55 149 145 149h111v62c0 48 -26 65 -72 65c-49 0 -74 -17 -74 -65v-12h-97v12c0 103 64 157 171 157zM145 144c0 -41 20 -61 55 -61c64 0 104 28 104 94v30h-99
c-38 0 -60 -20 -60 -63zM281 577h-77l57 173h106z" />
    <glyph glyph-name="acircumflex" unicode="&#xe2;" horiz-adv-x="466" 
d="M232 509c106 0 170 -51 170 -157v-352h-98v54c-25 -39 -64 -63 -116 -63c-87 0 -140 57 -140 150c0 94 55 149 145 149h111v62c0 48 -26 65 -72 65c-49 0 -74 -17 -74 -65v-12h-97v12c0 103 64 157 171 157zM175 577h-118l134 173h69l133 -173h-118l-50 77zM145 144
c0 -41 20 -61 55 -61c64 0 104 28 104 94v30h-99c-38 0 -60 -20 -60 -63z" />
    <glyph glyph-name="atilde" unicode="&#xe3;" horiz-adv-x="466" 
d="M232 509c106 0 170 -51 170 -157v-352h-97v55c-25 -40 -64 -64 -117 -64c-87 0 -140 57 -140 150c0 94 55 149 145 149h112v62c0 48 -26 65 -73 65c-49 0 -74 -17 -74 -65v-12h-97v12c0 103 64 157 171 157zM287 671c-34 0 -50 -104 -129 -104c-67 0 -113 41 -113 153v30
h96v-45c0 -33 9 -49 24 -49c34 0 50 104 129 104c67 0 113 -41 113 -153v-30h-96v45c0 33 -9 49 -24 49zM146 144c0 -41 19 -61 54 -61c64 0 105 28 105 94v30h-100c-38 0 -59 -20 -59 -63z" />
    <glyph glyph-name="adieresis" unicode="&#xe4;" horiz-adv-x="466" 
d="M232 509c106 0 170 -51 170 -157v-352h-98v54c-25 -39 -64 -63 -116 -63c-87 0 -140 57 -140 150c0 94 55 149 145 149h111v62c0 48 -26 65 -72 65c-49 0 -74 -17 -74 -65v-12h-97v12c0 103 64 157 171 157zM145 144c0 -41 20 -61 55 -61c64 0 104 28 104 94v30h-99
c-38 0 -60 -20 -60 -63zM394 668c0 -44 -28 -70 -70 -70c-44 0 -69 26 -69 70c0 45 25 71 69 71s70 -26 70 -71zM203 668c0 -44 -28 -70 -70 -70c-44 0 -69 26 -69 70c0 45 25 71 69 71s70 -26 70 -71z" />
    <glyph glyph-name="aring" unicode="&#xe5;" horiz-adv-x="466" 
d="M232 509c106 0 170 -51 170 -157v-352h-98v54c-25 -39 -64 -63 -116 -63c-87 0 -140 57 -140 150c0 94 55 149 145 149h111v62c0 48 -26 65 -72 65c-49 0 -74 -17 -74 -65v-12h-97v12c0 103 64 157 171 157zM366 715c0 -104 -50 -159 -133 -159c-84 0 -133 55 -133 159
c0 105 49 159 133 159c83 0 133 -54 133 -159zM145 144c0 -41 20 -61 55 -61c64 0 104 28 104 94v30h-99c-38 0 -60 -20 -60 -63zM181 715c0 -53 19 -77 52 -77s52 24 52 77s-19 77 -52 77s-52 -24 -52 -77z" />
    <glyph glyph-name="amacron" unicode="&#x101;" horiz-adv-x="466" 
d="M232 509c106 0 170 -51 170 -157v-352h-98v54c-25 -39 -64 -63 -116 -63c-87 0 -140 57 -140 150c0 94 55 149 145 149h111v62c0 48 -26 65 -72 65c-49 0 -74 -17 -74 -65v-12h-97v12c0 103 64 157 171 157zM61 617v92h336v-92h-336zM145 144c0 -41 20 -61 55 -61
c64 0 104 28 104 94v30h-99c-38 0 -60 -20 -60 -63z" />
    <glyph glyph-name="abreve" unicode="&#x103;" horiz-adv-x="466" 
d="M232 509c106 0 170 -51 170 -157v-352h-98v54c-25 -39 -64 -63 -116 -63c-87 0 -140 57 -140 150c0 94 55 149 145 149h111v62c0 48 -26 65 -72 65c-49 0 -74 -17 -74 -65v-12h-97v12c0 103 64 157 171 157zM158 739c0 -59 24 -84 70 -84c47 0 70 25 70 84v11h98v-11
c0 -117 -64 -172 -168 -172s-167 55 -167 172v11h97v-11zM145 144c0 -41 20 -61 55 -61c64 0 104 28 104 94v30h-99c-38 0 -60 -20 -60 -63z" />
    <glyph glyph-name="aogonek" unicode="&#x105;" horiz-adv-x="466" 
d="M232 509c106 0 170 -51 170 -157v-352c-29 -10 -44 -35 -44 -70c0 -39 20 -52 45 -52c15 0 23 1 32 4v-93c-14 -4 -27 -6 -48 -6c-72 0 -120 35 -120 122c0 38 16 70 43 95h-6v54c-25 -39 -64 -63 -116 -63c-87 0 -140 57 -140 150c0 94 55 149 145 149h111v62
c0 48 -26 65 -72 65c-49 0 -74 -17 -74 -65v-12h-97v12c0 103 64 157 171 157zM145 144c0 -41 20 -61 55 -61c64 0 104 28 104 94v30h-99c-38 0 -60 -20 -60 -63z" />
    <glyph glyph-name="aringacute" unicode="&#x1fb;" horiz-adv-x="466" 
d="M230 509c106 0 170 -51 170 -157v-352h-97v55c-25 -40 -64 -64 -116 -64c-87 0 -140 57 -140 150c0 94 54 149 145 149h111v62c0 48 -26 65 -73 65c-48 0 -74 -17 -74 -65v-12h-97v12c0 103 65 157 171 157zM362 715c0 -104 -50 -159 -133 -159c-84 0 -133 55 -133 159
c0 89 35 141 97 155l47 142h106l-72 -144c56 -17 88 -69 88 -153zM144 144c0 -41 19 -61 54 -61c64 0 105 28 105 94v30h-100c-38 0 -59 -20 -59 -63zM177 715c0 -53 19 -77 52 -77s52 24 52 77s-19 77 -52 77s-52 -24 -52 -77z" />
    <glyph glyph-name="b" unicode="b" horiz-adv-x="497" 
d="M462 250c0 -169 -61 -259 -183 -259c-54 0 -91 21 -115 61v-52h-97v750h97v-302c24 40 61 61 115 61c122 0 183 -90 183 -259zM264 416c-67 0 -100 -51 -100 -141v-50c0 -90 33 -141 100 -141c72 0 101 48 101 166s-29 166 -101 166z" />
    <glyph glyph-name="c" unicode="c" horiz-adv-x="460" 
d="M235 416c-73 0 -103 -49 -103 -166c0 -118 30 -166 103 -166c61 0 92 38 92 112v8h97v-8c0 -129 -72 -205 -189 -205c-133 0 -200 91 -200 259s67 259 200 259c117 0 189 -71 189 -195v-8h-97v8c0 67 -31 102 -92 102z" />
    <glyph glyph-name="ccedilla" unicode="&#xe7;" horiz-adv-x="460" 
d="M327 314c0 67 -31 102 -92 102c-73 0 -103 -49 -103 -166c0 -118 30 -166 103 -166c61 0 92 38 92 112v8h97v-8c0 -112 -55 -184 -146 -201v-15c49 -17 62 -54 62 -97c0 -78 -49 -105 -118 -105c-16 0 -33 1 -51 6v90c10 -3 19 -4 35 -4c25 0 39 7 39 35
c0 24 -7 36 -29 36h-24v54c-104 18 -157 106 -157 255c0 168 67 259 200 259c117 0 189 -71 189 -195v-8h-97v8z" />
    <glyph glyph-name="cacute" unicode="&#x107;" horiz-adv-x="460" 
d="M235 416c-73 0 -103 -49 -103 -166c0 -118 30 -166 103 -166c61 0 92 38 92 112v8h97v-8c0 -129 -72 -205 -189 -205c-133 0 -200 91 -200 259s67 259 200 259c117 0 189 -71 189 -195v-8h-97v8c0 67 -31 102 -92 102zM213 577l57 173h106l-86 -173h-77z" />
    <glyph glyph-name="ccircumflex" unicode="&#x109;" horiz-adv-x="460" 
d="M327 314c0 67 -31 102 -92 102c-73 0 -103 -49 -103 -166c0 -118 30 -166 103 -166c61 0 92 38 92 112v8h97v-8c0 -129 -72 -205 -189 -205c-133 0 -200 91 -200 259s67 259 200 259c117 0 189 -71 189 -195v-8h-97v8zM184 577h-118l134 173h69l133 -173h-118l-50 77z
" />
    <glyph glyph-name="cdotaccent" unicode="&#x10b;" horiz-adv-x="460" 
d="M235 416c-73 0 -103 -49 -103 -166c0 -118 30 -166 103 -166c61 0 92 38 92 112v8h97v-8c0 -129 -72 -205 -189 -205c-133 0 -200 91 -200 259s67 259 200 259c117 0 189 -71 189 -195v-8h-97v8c0 67 -31 102 -92 102zM243 598c-42 0 -65 24 -65 65s23 66 65 66
c41 0 64 -25 64 -66s-26 -65 -64 -65z" />
    <glyph glyph-name="ccaron" unicode="&#x10d;" horiz-adv-x="460" 
d="M327 314c0 67 -31 102 -92 102c-73 0 -103 -49 -103 -166c0 -118 30 -166 103 -166c61 0 92 38 92 112v8h97v-8c0 -129 -72 -205 -189 -205c-133 0 -200 91 -200 259s67 259 200 259c117 0 189 -71 189 -195v-8h-97v8zM287 750h118l-134 -173h-69l-133 173h118l50 -77z
" />
    <glyph glyph-name="d" unicode="d" horiz-adv-x="497" 
d="M333 51c-24 -40 -61 -60 -115 -60c-121 0 -183 90 -183 259s62 259 183 259c54 0 91 -20 115 -59v300h97v-750h-97v51zM234 84c66 0 99 51 99 141v50c0 90 -33 141 -99 141c-72 0 -102 -48 -102 -166s30 -166 102 -166z" />
    <glyph glyph-name="dcaron" unicode="&#x10f;" horiz-adv-x="603" 
d="M333 51c-24 -40 -61 -60 -115 -60c-121 0 -183 90 -183 259s62 259 183 259c54 0 91 -20 115 -59v300h97v-750h-97v51zM234 84c66 0 99 51 99 141v50c0 90 -33 141 -99 141c-72 0 -102 -48 -102 -166s30 -166 102 -166zM607 705c0 -19 -7 -46 -21 -71l-31 -58h-65v129
c0 39 21 62 58 62s59 -23 59 -62z" />
    <glyph glyph-name="e" unicode="e" horiz-adv-x="460" 
d="M35 250c0 168 67 259 200 259c119 0 187 -75 187 -221v-65h-289c4 -99 35 -139 102 -139c58 0 85 29 85 74v4h97v-4c0 -98 -68 -167 -182 -167c-133 0 -200 87 -200 259zM235 416c-57 0 -87 -32 -97 -109h187v7c0 68 -38 102 -90 102z" />
    <glyph glyph-name="egrave" unicode="&#xe8;" horiz-adv-x="460" 
d="M35 250c0 168 67 259 200 259c119 0 187 -75 187 -221v-65h-289c4 -99 35 -139 102 -139c58 0 85 29 85 74v4h97v-4c0 -98 -68 -167 -182 -167c-133 0 -200 87 -200 259zM235 416c-57 0 -87 -32 -97 -109h187v7c0 68 -38 102 -90 102zM217 750l57 -173h-77l-85 173h105z
" />
    <glyph glyph-name="eacute" unicode="&#xe9;" horiz-adv-x="460" 
d="M35 250c0 168 67 259 200 259c119 0 187 -75 187 -221v-65h-289c4 -99 35 -139 102 -139c58 0 85 29 85 74v4h97v-4c0 -98 -68 -167 -182 -167c-133 0 -200 87 -200 259zM235 416c-57 0 -87 -32 -97 -109h187v7c0 68 -38 102 -90 102zM270 577h-77l57 173h106z" />
    <glyph glyph-name="ecircumflex" unicode="&#xea;" horiz-adv-x="460" 
d="M35 250c0 168 67 259 200 259c119 0 187 -75 187 -221v-65h-289c4 -99 35 -139 102 -139c58 0 85 29 85 74v4h97v-4c0 -98 -68 -167 -182 -167c-133 0 -200 87 -200 259zM184 577h-118l134 173h69l133 -173h-118l-50 77zM235 416c-57 0 -87 -32 -97 -109h187v7
c0 68 -38 102 -90 102z" />
    <glyph glyph-name="edieresis" unicode="&#xeb;" horiz-adv-x="460" 
d="M35 250c0 168 67 259 200 259c119 0 187 -75 187 -221v-65h-289c4 -99 35 -139 102 -139c58 0 85 29 85 74v4h97v-4c0 -98 -68 -167 -182 -167c-133 0 -200 87 -200 259zM235 416c-57 0 -87 -32 -97 -109h187v7c0 68 -38 102 -90 102zM394 668c0 -44 -28 -70 -70 -70
c-44 0 -69 26 -69 70c0 45 25 71 69 71s70 -26 70 -71zM203 668c0 -44 -28 -70 -69 -70c-45 0 -69 26 -69 70c0 45 24 71 69 71c44 0 69 -26 69 -71z" />
    <glyph glyph-name="emacron" unicode="&#x113;" horiz-adv-x="460" 
d="M35 250c0 168 67 259 200 259c119 0 187 -75 187 -221v-65h-289c4 -99 35 -139 102 -139c58 0 85 29 85 74v4h97v-4c0 -98 -68 -167 -182 -167c-133 0 -200 87 -200 259zM405 709v-92h-336v92h336zM235 416c-57 0 -87 -32 -97 -109h187v7c0 68 -38 102 -90 102z" />
    <glyph glyph-name="ebreve" unicode="&#x115;" horiz-adv-x="460" 
d="M35 250c0 168 67 259 200 259c119 0 187 -75 187 -221v-65h-289c4 -99 35 -139 102 -139c58 0 85 29 85 74v4h97v-4c0 -98 -68 -167 -182 -167c-133 0 -200 87 -200 259zM166 739c0 -59 25 -84 71 -84c47 0 70 25 70 84v11h98v-11c0 -117 -65 -172 -168 -172
c-104 0 -168 55 -168 172v11h97v-11zM235 416c-57 0 -87 -32 -97 -109h187v7c0 68 -38 102 -90 102z" />
    <glyph glyph-name="edotaccent" unicode="&#x117;" horiz-adv-x="460" 
d="M35 250c0 168 67 259 200 259c119 0 187 -75 187 -221v-65h-289c4 -99 35 -139 102 -139c58 0 85 29 85 74v4h97v-4c0 -98 -68 -167 -182 -167c-133 0 -200 87 -200 259zM235 416c-57 0 -87 -32 -97 -109h187v7c0 68 -38 102 -90 102zM300 663c0 -41 -26 -65 -65 -65
c-42 0 -64 24 -64 65s22 66 64 66c41 0 65 -25 65 -66z" />
    <glyph glyph-name="eogonek" unicode="&#x119;" horiz-adv-x="460" 
d="M35 250c0 168 67 259 200 259c119 0 187 -75 187 -221v-65h-289c4 -99 35 -139 102 -139c58 0 85 29 85 74v4h97v-4c0 -78 -43 -137 -118 -159c-28 -10 -42 -35 -42 -69c0 -39 20 -52 45 -52c15 0 23 1 32 4v-93c-14 -4 -27 -6 -48 -6c-72 0 -120 35 -120 122
c0 35 13 64 36 88c-111 14 -167 100 -167 257zM235 416c-57 0 -87 -32 -97 -109h187v7c0 68 -38 102 -90 102z" />
    <glyph glyph-name="ecaron" unicode="&#x11b;" horiz-adv-x="460" 
d="M35 250c0 168 67 259 200 259c119 0 187 -75 187 -221v-65h-289c4 -99 35 -139 102 -139c58 0 85 29 85 74v4h97v-4c0 -98 -68 -167 -182 -167c-133 0 -200 87 -200 259zM288 750h118l-134 -173h-69l-133 173h117l51 -77zM235 416c-57 0 -87 -32 -97 -109h187v7
c0 68 -38 102 -90 102z" />
    <glyph glyph-name="f" unicode="f" horiz-adv-x="311" 
d="M255 656c-51 0 -74 -31 -74 -81v-75h102v-92h-102v-408h-97v408h-49v92h49v75c0 110 62 175 171 175h39v-94h-39z" />
    <glyph glyph-name="g" unicode="g" horiz-adv-x="480" 
d="M363 427c15 51 43 73 90 73h8v-95h-7c-36 0 -55 -29 -55 -97c0 -119 -68 -187 -179 -187h-47c-24 0 -38 -13 -38 -33c0 -22 14 -35 38 -35h99c107 0 170 -58 170 -154c0 -99 -81 -156 -212 -156c-141 0 -212 50 -212 142c0 63 25 104 84 120c-32 14 -49 40 -49 72
c0 30 21 59 60 72c-48 27 -74 77 -74 159c0 128 62 201 181 201c73 0 119 -29 143 -82zM220 417c-56 0 -85 -37 -85 -109c0 -68 29 -104 85 -104c55 0 83 36 83 104c0 72 -28 109 -83 109zM345 -101c0 45 -25 66 -73 66h-91c-47 0 -73 -22 -73 -66c0 -45 34 -69 122 -69
c83 0 115 24 115 69z" />
    <glyph glyph-name="gcircumflex" unicode="&#x11d;" horiz-adv-x="480" 
d="M363 427c15 51 43 73 90 73h8v-95h-7c-36 0 -55 -29 -55 -97c0 -119 -68 -187 -179 -187h-47c-24 0 -38 -13 -38 -33c0 -22 14 -35 38 -35h99c107 0 170 -58 170 -154c0 -99 -81 -156 -212 -156c-141 0 -212 50 -212 142c0 63 25 104 84 120c-32 14 -49 40 -49 72
c0 30 21 59 60 72c-48 27 -74 77 -74 159c0 128 62 201 181 201c73 0 119 -29 143 -82zM220 417c-56 0 -85 -37 -85 -109c0 -68 29 -104 85 -104c55 0 83 36 83 104c0 72 -28 109 -83 109zM174 577h-117l134 173h68l133 -173h-117l-50 78zM345 -101c0 45 -25 66 -73 66h-91
c-47 0 -73 -22 -73 -66c0 -45 34 -69 122 -69c83 0 115 24 115 69z" />
    <glyph glyph-name="gbreve" unicode="&#x11f;" horiz-adv-x="480" 
d="M363 427c15 51 43 73 90 73h8v-95h-7c-36 0 -55 -29 -55 -97c0 -119 -68 -187 -179 -187h-47c-24 0 -38 -13 -38 -33c0 -22 14 -35 38 -35h99c107 0 170 -58 170 -154c0 -99 -81 -156 -212 -156c-141 0 -212 50 -212 142c0 63 25 104 84 120c-32 14 -49 40 -49 72
c0 30 21 59 60 72c-48 27 -74 77 -74 159c0 128 62 201 181 201c73 0 119 -29 143 -82zM160 739c0 -59 24 -84 70 -84c47 0 70 25 70 84v11h98v-11c0 -117 -64 -172 -168 -172s-168 55 -168 172v11h98v-11zM220 417c-56 0 -85 -37 -85 -109c0 -68 29 -104 85 -104
c55 0 83 36 83 104c0 72 -28 109 -83 109zM345 -101c0 45 -25 66 -73 66h-91c-47 0 -73 -22 -73 -66c0 -45 34 -69 122 -69c83 0 115 24 115 69z" />
    <glyph glyph-name="gdotaccent" unicode="&#x121;" horiz-adv-x="480" 
d="M363 427c15 51 43 73 90 73h8v-95h-7c-36 0 -55 -29 -55 -97c0 -119 -68 -187 -179 -187h-47c-24 0 -38 -13 -38 -33c0 -22 14 -35 38 -35h99c107 0 170 -58 170 -154c0 -99 -81 -156 -212 -156c-141 0 -212 50 -212 142c0 63 25 104 84 120c-32 14 -49 40 -49 72
c0 30 21 59 60 72c-48 27 -74 77 -74 159c0 128 62 201 181 201c73 0 119 -29 143 -82zM220 417c-56 0 -85 -37 -85 -109c0 -68 29 -104 85 -104c55 0 83 36 83 104c0 72 -28 109 -83 109zM345 -101c0 45 -25 66 -73 66h-91c-47 0 -73 -22 -73 -66c0 -45 34 -69 122 -69
c83 0 115 24 115 69zM318 663c0 -41 -25 -65 -64 -65c-42 0 -65 24 -65 65s23 66 65 66c41 0 64 -25 64 -66z" />
    <glyph glyph-name="uni0123" unicode="&#x123;" horiz-adv-x="480" 
d="M363 427c15 51 43 73 90 73h8v-95h-7c-36 0 -55 -29 -55 -97c0 -119 -68 -187 -179 -187h-47c-24 0 -38 -13 -38 -33c0 -22 14 -35 38 -35h99c107 0 170 -58 170 -154c0 -99 -81 -156 -212 -156c-141 0 -212 50 -212 142c0 63 25 104 84 120c-32 14 -49 40 -49 72
c0 30 21 59 60 72c-48 27 -74 77 -74 159c0 128 62 201 181 201c73 0 119 -29 143 -82zM220 417c-56 0 -85 -37 -85 -109c0 -68 29 -104 85 -104c55 0 83 36 83 104c0 72 -28 109 -83 109zM345 -101c0 45 -25 66 -73 66h-91c-47 0 -73 -22 -73 -66c0 -45 34 -69 122 -69
c83 0 115 24 115 69zM163 652c0 19 7 46 22 70l31 59h65v-129c0 -39 -21 -63 -58 -63c-38 0 -60 24 -60 63z" />
    <glyph glyph-name="h" unicode="h" 
d="M164 449c23 40 59 60 110 60c104 0 155 -66 155 -205v-304h-97v304c0 77 -24 113 -77 113c-60 0 -91 -51 -91 -142v-275h-97v750h97v-301z" />
    <glyph glyph-name="hcircumflex" unicode="&#x125;" 
d="M164 449c23 40 59 60 110 60c104 0 155 -66 155 -205v-304h-97v304c0 77 -24 113 -77 113c-60 0 -91 -51 -91 -142v-275h-97v750h97v-301zM190 807h-118l134 173h69l133 -173h-118l-50 77z" />
    <glyph glyph-name="i" unicode="i" horiz-adv-x="232" 
d="M165 500v-500h-97v500h97zM118 598c-42 0 -65 24 -65 65s23 66 65 66c41 0 64 -25 64 -66s-25 -65 -64 -65z" />
    <glyph glyph-name="igrave" unicode="&#xec;" horiz-adv-x="231" 
d="M164 500v-500h-97v500h97zM151 577h-77l-70 173h105z" />
    <glyph glyph-name="iacute" unicode="&#xed;" horiz-adv-x="231" 
d="M164 500v-500h-97v500h97zM79 577l42 173h106l-71 -173h-77z" />
    <glyph glyph-name="icircumflex" unicode="&#xee;" horiz-adv-x="231" 
d="M67 500h97v-500h-97v500zM64 577h-116l127 173h68l126 -173h-116l-44 78z" />
    <glyph glyph-name="idieresis" unicode="&#xef;" horiz-adv-x="232" 
d="M165 500v-500h-97v500h97zM39 598c-42 0 -64 24 -64 65s22 66 64 66c41 0 65 -25 65 -66s-26 -65 -65 -65zM192 598c-42 0 -65 24 -65 65s23 66 65 66c41 0 64 -25 64 -66s-25 -65 -64 -65z" />
    <glyph glyph-name="itilde" unicode="&#x129;" horiz-adv-x="231" 
d="M164 500v-500h-97v500h97zM51 567c-73 0 -110 41 -110 153v30h97v-45c0 -33 7 -49 20 -49c30 0 34 104 109 104c73 0 109 -41 109 -153v-30h-96v45c0 33 -7 49 -20 49c-29 0 -33 -104 -109 -104z" />
    <glyph glyph-name="imacron" unicode="&#x12b;" horiz-adv-x="231" 
d="M164 500v-500h-97v500h97zM239 617h-246v92h246v-92z" />
    <glyph glyph-name="ibreve" unicode="&#x12d;" horiz-adv-x="231" 
d="M164 500v-500h-97v500h97zM111 655c37 0 55 25 55 84v11h98v-11c0 -117 -58 -172 -153 -172s-153 55 -153 172v11h98v-11c0 -59 19 -84 55 -84z" />
    <glyph glyph-name="iogonek" unicode="&#x12f;" horiz-adv-x="231" 
d="M30 -95c0 38 15 70 42 95h-4v500h97v-500h-1c-29 -10 -44 -35 -44 -70c0 -39 21 -52 45 -52c15 0 23 1 33 4v-93c-15 -4 -27 -6 -49 -6c-71 0 -119 35 -119 122zM182 663c0 -41 -25 -65 -64 -65c-42 0 -65 24 -65 65s23 66 65 66c41 0 64 -25 64 -66z" />
    <glyph glyph-name="j" unicode="j" horiz-adv-x="231" 
d="M-110 -79h97c0 -70 14 -86 40 -86s40 16 40 86v579h97v-579c0 -124 -46 -178 -137 -178s-137 58 -137 178zM119 598c-42 0 -65 24 -65 65s23 66 65 66c41 0 64 -25 64 -66s-25 -65 -64 -65z" />
    <glyph glyph-name="jcircumflex" unicode="&#x135;" horiz-adv-x="231" 
d="M27 -257c-92 0 -138 58 -138 178h97c0 -70 15 -86 41 -86s39 16 39 86v579h98v-579c0 -124 -46 -178 -137 -178zM58 577h-118l134 173h69l133 -173h-117l-51 77z" />
    <glyph glyph-name="k" unicode="k" horiz-adv-x="456" 
d="M164 0h-97v750h97v-449h55l98 199h107l-125 -246l136 -254h-109l-107 209h-55v-209z" />
    <glyph glyph-name="uni0137" unicode="&#x137;" horiz-adv-x="456" 
d="M164 0h-97v750h97v-449h55l98 199h107l-125 -246l136 -254h-109l-107 209h-55v-209zM307 -129c0 -19 -7 -46 -21 -70l-31 -59h-65v129c0 39 21 63 58 63s59 -24 59 -63z" />
    <glyph glyph-name="l" unicode="l" horiz-adv-x="231" 
d="M164 750v-750h-97v750h97z" />
    <glyph glyph-name="lacute" unicode="&#x13a;" horiz-adv-x="231" 
d="M164 750v-750h-97v750h97zM76 787l57 173h105l-85 -173h-77z" />
    <glyph glyph-name="uni013C" unicode="&#x13c;" horiz-adv-x="231" 
d="M164 750v-750h-97v750h97zM124 -258h-64v129c0 39 20 63 58 63c37 0 59 -24 59 -63c0 -19 -7 -46 -22 -70z" />
    <glyph glyph-name="lcaron" unicode="&#x13e;" horiz-adv-x="336" 
d="M164 750v-750h-97v750h97zM288 575h-64v130c0 39 20 62 58 62c37 0 59 -23 59 -62c0 -19 -7 -47 -22 -71z" />
    <glyph glyph-name="m" unicode="m" horiz-adv-x="730" 
d="M164 452c22 38 56 57 103 57c56 0 95 -20 119 -62c28 41 71 62 132 62c100 0 148 -66 148 -205v-304h-97v304c0 77 -21 113 -69 113c-56 0 -85 -51 -85 -142v-275h-97v304c0 77 -21 113 -69 113c-56 0 -85 -51 -85 -142v-275h-97v500h97v-48z" />
    <glyph glyph-name="n" unicode="n" 
d="M164 449c23 40 60 60 111 60c104 0 154 -64 154 -205v-304h-97v304c0 79 -24 113 -76 113c-61 0 -92 -46 -92 -142v-275h-97v500h97v-51z" />
    <glyph glyph-name="ntilde" unicode="&#xf1;" 
d="M164 449c23 40 60 60 111 60c104 0 154 -64 154 -205v-304h-97v304c0 79 -24 113 -76 113c-61 0 -92 -46 -92 -142v-275h-97v500h97v-51zM309 672c-34 0 -50 -105 -129 -105c-67 0 -113 41 -113 154v29h96v-44c0 -33 9 -50 24 -50c34 0 50 104 129 104
c67 0 113 -40 113 -153v-30h-96v45c0 33 -9 50 -24 50z" />
    <glyph glyph-name="nacute" unicode="&#x144;" 
d="M164 449c23 40 60 60 111 60c104 0 154 -64 154 -205v-304h-97v304c0 79 -24 113 -76 113c-61 0 -92 -46 -92 -142v-275h-97v500h97v-51zM304 577h-77l57 173h106z" />
    <glyph glyph-name="uni0146" unicode="&#x146;" 
d="M164 449c23 40 60 60 111 60c104 0 154 -64 154 -205v-304h-97v304c0 79 -24 113 -76 113c-61 0 -92 -46 -92 -142v-275h-97v500h97v-51zM308 -129c0 -19 -7 -46 -21 -70l-31 -59h-65v129c0 39 21 63 58 63c38 0 59 -24 59 -63z" />
    <glyph glyph-name="ncaron" unicode="&#x148;" 
d="M164 449c23 40 60 60 111 60c104 0 154 -64 154 -205v-304h-97v304c0 79 -24 113 -76 113c-61 0 -92 -46 -92 -142v-275h-97v500h97v-51zM297 750h118l-134 -173h-69l-133 173h117l51 -77z" />
    <glyph glyph-name="o" unicode="o" horiz-adv-x="470" 
d="M235 509c133 0 200 -91 200 -259s-67 -259 -200 -259s-200 91 -200 259s67 259 200 259zM235 84c73 0 103 48 103 166c0 117 -30 166 -103 166s-103 -49 -103 -166c0 -118 30 -166 103 -166z" />
    <glyph glyph-name="ograve" unicode="&#xf2;" horiz-adv-x="470" 
d="M235 509c133 0 200 -91 200 -259s-67 -259 -200 -259s-200 91 -200 259s67 259 200 259zM235 84c73 0 103 48 103 166c0 117 -30 166 -103 166s-103 -49 -103 -166c0 -118 30 -166 103 -166zM270 577h-77l-85 173h105z" />
    <glyph glyph-name="oacute" unicode="&#xf3;" horiz-adv-x="470" 
d="M235 509c133 0 200 -91 200 -259s-67 -259 -200 -259s-200 91 -200 259s67 259 200 259zM235 84c73 0 103 48 103 166c0 117 -30 166 -103 166s-103 -49 -103 -166c0 -118 30 -166 103 -166zM201 577l57 173h106l-86 -173h-77z" />
    <glyph glyph-name="ocircumflex" unicode="&#xf4;" horiz-adv-x="470" 
d="M35 250c0 168 67 259 200 259s200 -91 200 -259s-67 -259 -200 -259s-200 91 -200 259zM132 250c0 -118 30 -166 103 -166s103 48 103 166c0 117 -30 166 -103 166s-103 -49 -103 -166zM187 577h-118l134 173h69l133 -173h-118l-50 77z" />
    <glyph glyph-name="otilde" unicode="&#xf5;" horiz-adv-x="470" 
d="M235 509c133 0 200 -91 200 -259s-67 -259 -200 -259s-200 91 -200 259s67 259 200 259zM235 84c73 0 103 48 103 166c0 117 -30 166 -103 166s-103 -49 -103 -166c0 -118 30 -166 103 -166zM169 567c-67 0 -113 41 -113 153v30h96v-45c0 -33 9 -49 24 -49
c34 0 50 104 129 104c67 0 113 -41 113 -153v-30h-96v45c0 33 -8 49 -23 49c-35 0 -50 -104 -130 -104z" />
    <glyph glyph-name="odieresis" unicode="&#xf6;" horiz-adv-x="470" 
d="M235 509c133 0 200 -91 200 -259s-67 -259 -200 -259s-200 91 -200 259s67 259 200 259zM235 84c73 0 103 48 103 166c0 117 -30 166 -103 166s-103 -49 -103 -166c0 -118 30 -166 103 -166zM144 598c-44 0 -69 26 -69 70c0 45 25 71 69 71s70 -26 70 -71
c0 -44 -28 -70 -70 -70zM335 598c-45 0 -69 26 -69 70c0 45 24 71 69 71c44 0 69 -26 69 -71c0 -44 -28 -70 -69 -70z" />
    <glyph glyph-name="omacron" unicode="&#x14d;" horiz-adv-x="470" 
d="M235 509c133 0 200 -91 200 -259s-67 -259 -200 -259s-200 91 -200 259s67 259 200 259zM235 84c73 0 103 48 103 166c0 117 -30 166 -103 166s-103 -49 -103 -166c0 -118 30 -166 103 -166zM414 617h-335v92h335v-92z" />
    <glyph glyph-name="obreve" unicode="&#x14f;" horiz-adv-x="470" 
d="M235 509c133 0 200 -91 200 -259s-67 -259 -200 -259s-200 91 -200 259s67 259 200 259zM235 84c73 0 103 48 103 166c0 117 -30 166 -103 166s-103 -49 -103 -166c0 -118 30 -166 103 -166zM239 655c47 0 71 25 71 84v11h98v-11c0 -117 -65 -172 -169 -172
c-103 0 -167 55 -167 172v11h97v-11c0 -59 24 -84 70 -84z" />
    <glyph glyph-name="ohungarumlaut" unicode="&#x151;" horiz-adv-x="470" 
d="M235 509c133 0 200 -91 200 -259s-67 -259 -200 -259s-200 91 -200 259s67 259 200 259zM235 84c73 0 103 48 103 166c0 117 -30 166 -103 166s-103 -49 -103 -166c0 -118 30 -166 103 -166zM176 577h-77l40 173h106zM349 577h-77l57 173h105z" />
    <glyph glyph-name="p" unicode="p" horiz-adv-x="498" 
d="M164 448c24 40 61 61 115 61c122 0 184 -90 184 -259c0 -168 -62 -259 -184 -259c-54 0 -91 21 -115 61v-302h-97v750h97v-52zM264 416c-66 0 -100 -51 -100 -141v-50c0 -90 34 -141 100 -141c72 0 101 49 101 166c0 118 -29 166 -101 166z" />
    <glyph glyph-name="q" unicode="q" horiz-adv-x="497" 
d="M35 250c0 169 62 259 183 259c54 0 91 -20 115 -59v50h97v-750h-97v301c-24 -40 -61 -60 -115 -60c-121 0 -183 91 -183 259zM234 84c66 0 99 51 99 141v50c0 90 -33 141 -99 141c-72 0 -102 -48 -102 -166c0 -117 30 -166 102 -166z" />
    <glyph glyph-name="r" unicode="r" horiz-adv-x="324" 
d="M164 437c22 47 57 72 106 72h29v-95h-29c-71 0 -106 -69 -106 -186v-228h-97v500h97v-63z" />
    <glyph glyph-name="racute" unicode="&#x155;" horiz-adv-x="324" 
d="M164 437c22 47 57 72 106 72h29v-95h-29c-71 0 -106 -69 -106 -186v-228h-97v500h97v-63zM210 577h-77l57 173h105z" />
    <glyph glyph-name="uni0157" unicode="&#x157;" horiz-adv-x="324" 
d="M164 437c22 47 57 72 106 72h29v-95h-29c-71 0 -106 -69 -106 -186v-228h-97v500h97v-63zM175 -129c0 -19 -7 -46 -21 -70l-31 -59h-65v129c0 39 21 63 58 63s59 -24 59 -63z" />
    <glyph glyph-name="rcaron" unicode="&#x159;" horiz-adv-x="324" 
d="M164 437c22 47 57 72 106 72h29v-95h-29c-71 0 -106 -69 -106 -186v-228h-97v500h97v-63zM220 750h117l-134 -173h-68l-133 173h117l51 -78z" />
    <glyph glyph-name="s" unicode="s" horiz-adv-x="427" 
d="M290 141c0 96 -247 37 -247 220c0 78 51 148 171 148c110 0 169 -58 169 -161v-14h-97v14c0 50 -23 68 -72 68c-59 0 -74 -24 -74 -55c0 -96 247 -37 247 -220c0 -81 -53 -150 -175 -150c-111 0 -174 60 -174 163v19h97v-19c0 -50 26 -70 77 -70c62 0 78 24 78 57z" />
    <glyph glyph-name="sacute" unicode="&#x15b;" horiz-adv-x="427" 
d="M290 141c0 96 -247 37 -247 220c0 78 51 148 171 148c110 0 169 -58 169 -161v-14h-97v14c0 50 -23 68 -72 68c-59 0 -74 -24 -74 -55c0 -96 247 -37 247 -220c0 -81 -53 -150 -175 -150c-111 0 -174 60 -174 163v19h97v-19c0 -50 26 -70 77 -70c62 0 78 24 78 57z
M193 577l57 173h106l-86 -173h-77z" />
    <glyph glyph-name="scircumflex" unicode="&#x15d;" horiz-adv-x="427" 
d="M212 84c62 0 78 24 78 57c0 96 -247 37 -247 220c0 78 51 148 171 148c110 0 169 -58 169 -161v-14h-97v14c0 50 -23 68 -72 68c-59 0 -74 -24 -74 -55c0 -96 247 -37 247 -220c0 -81 -53 -150 -175 -150c-111 0 -174 60 -174 163v19h97v-19c0 -50 26 -70 77 -70z
M164 577h-118l134 173h69l133 -173h-117l-51 77z" />
    <glyph glyph-name="scedilla" unicode="&#x15f;" horiz-adv-x="427" 
d="M212 84c62 0 78 24 78 57c0 96 -247 37 -247 220c0 78 51 148 171 148c110 0 169 -58 169 -161v-14h-97v14c0 50 -23 68 -72 68c-59 0 -74 -24 -74 -55c0 -96 247 -37 247 -220c0 -73 -43 -136 -141 -148v-13c49 -17 62 -54 62 -97c0 -78 -49 -105 -118 -105
c-16 0 -33 1 -51 6v90c10 -3 19 -4 35 -4c25 0 39 7 39 35c0 24 -7 36 -29 36h-24v55c-78 16 -122 72 -122 158v19h97v-19c0 -50 26 -70 77 -70z" />
    <glyph glyph-name="scaron" unicode="&#x161;" horiz-adv-x="427" 
d="M212 84c62 0 78 24 78 57c0 96 -247 37 -247 220c0 78 51 148 171 148c110 0 169 -58 169 -161v-14h-97v14c0 50 -23 68 -72 68c-59 0 -74 -24 -74 -55c0 -96 247 -37 247 -220c0 -81 -53 -150 -175 -150c-111 0 -174 60 -174 163v19h97v-19c0 -50 26 -70 77 -70z
M267 750h118l-134 -173h-69l-133 173h118l50 -77z" />
    <glyph glyph-name="uni0219" unicode="&#x219;" horiz-adv-x="427" 
d="M290 141c0 96 -247 37 -247 220c0 78 51 148 171 148c110 0 169 -58 169 -161v-14h-97v14c0 50 -23 68 -72 68c-59 0 -74 -24 -74 -55c0 -96 247 -37 247 -220c0 -81 -53 -150 -175 -150c-111 0 -174 60 -174 163v19h97v-19c0 -50 26 -70 77 -70c62 0 78 24 78 57z
M221 -256h-65v129c0 39 21 63 58 63s59 -24 59 -63c0 -19 -7 -46 -21 -70z" />
    <glyph glyph-name="t" unicode="t" horiz-adv-x="392" 
d="M222 83c26 0 41 16 41 86h97c0 -113 -46 -178 -138 -178s-138 55 -138 178v239h-49v92h49l21 107h76v-107h128v-92h-128v-239c0 -70 14 -86 41 -86z" />
    <glyph glyph-name="uni0163" unicode="&#x163;" horiz-adv-x="392" 
d="M222 83c26 0 41 16 41 86h97c0 -113 -46 -178 -138 -178s-138 55 -138 178v239h-49v92h49l21 107h76v-107h128v-92h-128v-239c0 -70 14 -86 41 -86zM267 -123c0 -19 -7 -47 -21 -71l-31 -59h-65v130c0 39 21 62 58 62s59 -23 59 -62z" />
    <glyph glyph-name="tcaron" unicode="&#x165;" horiz-adv-x="394" 
d="M222 83c26 0 41 16 41 86h97c0 -113 -46 -178 -138 -178s-138 55 -138 178v239h-49v92h49l21 107h76v-107h128v-92h-128v-239c0 -70 14 -86 41 -86zM370 705c0 -19 -7 -46 -21 -71l-31 -58h-65v129c0 39 21 62 58 62c38 0 59 -23 59 -62z" />
    <glyph glyph-name="u" unicode="u" 
d="M329 51c-23 -39 -59 -60 -110 -60c-105 0 -155 66 -155 205v304h97v-304c0 -76 23 -112 76 -112c61 0 92 51 92 141v275h97v-500h-97v51z" />
    <glyph glyph-name="ugrave" unicode="&#xf9;" 
d="M329 51c-23 -39 -59 -60 -110 -60c-105 0 -155 66 -155 205v304h97v-304c0 -76 23 -112 76 -112c61 0 92 51 92 141v275h97v-500h-97v51zM221 750l57 -173h-77l-85 173h105z" />
    <glyph glyph-name="uacute" unicode="&#xfa;" 
d="M329 51c-23 -39 -59 -60 -110 -60c-105 0 -155 66 -155 205v304h97v-304c0 -76 23 -112 76 -112c61 0 92 51 92 141v275h97v-500h-97v51zM291 577h-77l57 173h105z" />
    <glyph glyph-name="ucircumflex" unicode="&#xfb;" 
d="M329 51c-23 -39 -59 -60 -110 -60c-105 0 -155 66 -155 205v304h97v-304c0 -76 23 -112 76 -112c61 0 92 51 92 141v275h97v-500h-97v51zM196 577h-117l134 173h68l133 -173h-117l-50 78z" />
    <glyph glyph-name="udieresis" unicode="&#xfc;" 
d="M329 51c-23 -39 -59 -60 -110 -60c-105 0 -155 66 -155 205v304h97v-304c0 -76 23 -112 76 -112c61 0 92 51 92 141v275h97v-500h-97v51zM411 668c0 -44 -28 -70 -70 -70c-44 0 -69 26 -69 70c0 45 25 71 69 71s70 -26 70 -71zM220 668c0 -44 -28 -70 -69 -70
c-45 0 -69 26 -69 70c0 45 24 71 69 71c44 0 69 -26 69 -71z" />
    <glyph glyph-name="utilde" unicode="&#x169;" 
d="M329 51c-23 -39 -59 -60 -110 -60c-105 0 -155 66 -155 205v304h97v-304c0 -76 23 -112 76 -112c61 0 92 51 92 141v275h97v-500h-97v51zM303 671c-34 0 -50 -104 -129 -104c-67 0 -113 41 -113 153v30h96v-45c0 -33 8 -49 23 -49c35 0 51 104 130 104
c67 0 113 -41 113 -153v-30h-96v45c0 33 -9 49 -24 49z" />
    <glyph glyph-name="umacron" unicode="&#x16b;" 
d="M329 51c-23 -39 -59 -60 -110 -60c-105 0 -155 66 -155 205v304h97v-304c0 -76 23 -112 76 -112c61 0 92 51 92 141v275h97v-500h-97v51zM414 709v-92h-335v92h335z" />
    <glyph glyph-name="ubreve" unicode="&#x16d;" 
d="M329 51c-23 -39 -59 -60 -110 -60c-105 0 -155 66 -155 205v304h97v-304c0 -76 23 -112 76 -112c61 0 92 51 92 141v275h97v-500h-97v51zM176 739c0 -59 24 -84 70 -84c47 0 70 25 70 84v11h98v-11c0 -117 -64 -172 -168 -172s-167 55 -167 172v11h97v-11z" />
    <glyph glyph-name="uring" unicode="&#x16f;" 
d="M329 51c-23 -39 -59 -60 -110 -60c-105 0 -155 66 -155 205v304h97v-304c0 -76 23 -112 76 -112c61 0 92 51 92 141v275h97v-500h-97v51zM379 715c0 -104 -50 -159 -133 -159s-132 55 -132 159c0 105 49 159 132 159s133 -54 133 -159zM194 715c0 -53 19 -77 52 -77
s52 24 52 77s-19 77 -52 77s-52 -24 -52 -77z" />
    <glyph glyph-name="uhungarumlaut" unicode="&#x171;" 
d="M329 51c-23 -39 -59 -60 -110 -60c-105 0 -155 66 -155 205v304h97v-304c0 -76 23 -112 76 -112c61 0 92 51 92 141v275h97v-500h-97v51zM342 750h106l-85 -173h-78zM259 750l-69 -173h-77l40 173h106z" />
    <glyph glyph-name="uogonek" unicode="&#x173;" 
d="M329 51c-23 -39 -59 -60 -110 -60c-105 0 -155 66 -155 205v304h97v-304c0 -76 23 -112 76 -112c61 0 92 51 92 141v275h97v-500c-29 -10 -44 -35 -44 -70c0 -39 20 -52 45 -52c15 0 23 1 32 4v-93c-14 -4 -27 -6 -48 -6c-72 0 -120 35 -120 122c0 38 16 70 43 95h-5v51z
" />
    <glyph glyph-name="v" unicode="v" horiz-adv-x="428" 
d="M270 0h-112l-144 500h96l85 -300l18 -94h2l19 94l85 300h95z" />
    <glyph glyph-name="w" unicode="w" horiz-adv-x="649" 
d="M632 500l-116 -500h-110l-69 293l-11 86h-2l-12 -86l-69 -293h-110l-116 500h93l66 -300l11 -94h3l11 94l69 300h109l69 -300l11 -95h3l11 95l66 300h93z" />
    <glyph glyph-name="wcircumflex" unicode="&#x175;" horiz-adv-x="649" 
d="M539 500h93l-116 -500h-110l-69 293l-11 86h-2l-12 -86l-69 -293h-110l-116 500h93l66 -300l11 -94h3l11 94l69 300h109l69 -300l11 -95h3l11 95zM271 577h-117l134 173h68l133 -173h-117l-50 78z" />
    <glyph glyph-name="wgrave" unicode="&#x1e81;" horiz-adv-x="649" 
d="M632 500l-116 -500h-110l-69 293l-11 86h-2l-12 -86l-69 -293h-110l-116 500h93l66 -300l11 -94h3l11 94l69 300h109l69 -300l11 -95h3l11 95l66 300h93zM355 577h-77l-86 173h106z" />
    <glyph glyph-name="wacute" unicode="&#x1e83;" horiz-adv-x="649" 
d="M632 500l-116 -500h-110l-69 293l-11 86h-2l-12 -86l-69 -293h-110l-116 500h93l66 -300l11 -94h3l11 94l69 300h109l69 -300l11 -95h3l11 95l66 300h93zM299 577l57 173h105l-85 -173h-77z" />
    <glyph glyph-name="wdieresis" unicode="&#x1e85;" horiz-adv-x="649" 
d="M632 500l-116 -500h-110l-69 293l-11 86h-2l-12 -86l-69 -293h-110l-116 500h93l66 -300l11 -94h3l11 94l69 300h109l69 -300l11 -95h3l11 95l66 300h93zM229 598c-45 0 -69 26 -69 70c0 45 24 71 69 71c44 0 69 -26 69 -71c0 -44 -28 -70 -69 -70zM419 598
c-44 0 -69 26 -69 70c0 45 25 71 69 71s70 -26 70 -71c0 -44 -28 -70 -70 -70z" />
    <glyph glyph-name="x" unicode="x" horiz-adv-x="442" 
d="M408 500l-126 -237l137 -263h-111l-87 195h-4l-43 -97l-46 -98h-105l138 256l-127 244h111l48 -100l28 -73h4l30 73l48 100h105z" />
    <glyph glyph-name="y" unicode="y" horiz-adv-x="429" 
d="M419 500l-172 -586c-49 -143 -96 -171 -164 -171h-20v97h20c24 0 48 12 69 74l19 84l-154 502h103l73 -236l28 -125h3l27 125l71 236h97z" />
    <glyph glyph-name="yacute" unicode="&#xfd;" horiz-adv-x="429" 
d="M419 500l-172 -586c-49 -143 -96 -171 -164 -171h-20v97h20c24 0 48 12 69 74l19 84l-154 502h103l73 -236l28 -125h3l27 125l71 236h97zM178 577l57 173h105l-85 -173h-77z" />
    <glyph glyph-name="ydieresis" unicode="&#xff;" horiz-adv-x="429" 
d="M419 500l-172 -586c-49 -143 -96 -171 -164 -171h-20v97h20c24 0 48 12 69 74l19 84l-154 502h103l73 -236l28 -125h3l27 125l71 236h97zM114 598c-45 0 -69 26 -69 70c0 45 24 71 69 71c44 0 69 -26 69 -71c0 -44 -28 -70 -69 -70zM304 598c-44 0 -69 26 -69 70
c0 45 25 71 69 71s70 -26 70 -71c0 -44 -28 -70 -70 -70z" />
    <glyph glyph-name="ycircumflex" unicode="&#x177;" horiz-adv-x="429" 
d="M83 -160c24 0 48 12 69 74l19 84l-154 502h103l73 -236l28 -125h3l27 125l71 236h97l-172 -586c-49 -143 -96 -171 -164 -171h-20v97h20zM168 577h-118l134 173h69l133 -173h-118l-50 77z" />
    <glyph glyph-name="ygrave" unicode="&#x1ef3;" horiz-adv-x="429" 
d="M419 500l-172 -586c-49 -143 -96 -171 -164 -171h-20v97h20c24 0 48 12 69 74l19 84l-154 502h103l73 -236l28 -125h3l27 125l71 236h97zM252 577h-77l-85 173h105z" />
    <glyph glyph-name="z" unicode="z" horiz-adv-x="392" 
d="M344 500v-86l-188 -322h194v-92h-307v86l187 322h-178v92h292z" />
    <glyph glyph-name="zacute" unicode="&#x17a;" horiz-adv-x="392" 
d="M344 500v-86l-188 -322h194v-92h-307v86l187 322h-178v92h292zM238 577h-77l57 173h106z" />
    <glyph glyph-name="zdotaccent" unicode="&#x17c;" horiz-adv-x="392" 
d="M344 500v-86l-188 -322h194v-92h-307v86l187 322h-178v92h292zM263 663c0 -41 -26 -65 -64 -65c-42 0 -65 24 -65 65s23 66 65 66c41 0 64 -25 64 -66z" />
    <glyph glyph-name="zcaron" unicode="&#x17e;" horiz-adv-x="392" 
d="M344 500v-86l-188 -322h194v-92h-307v86l187 322h-178v92h292zM248 750h118l-134 -173h-69l-133 173h118l50 -77z" />
    <glyph glyph-name="ordfeminine" unicode="&#xaa;" horiz-adv-x="337" 
d="M151 409c39 0 66 19 66 63v17h-65c-23 0 -37 -12 -37 -42c0 -24 13 -38 36 -38zM156 554h61v26c0 36 -17 50 -46 50c-31 0 -47 -14 -47 -50v-8h-85v8c0 87 50 132 132 132c81 0 131 -45 131 -132v-231h-85v36c-19 -30 -49 -48 -88 -48c-62 0 -100 40 -100 107
s49 110 127 110z" />
    <glyph glyph-name="ordmasculine" unicode="&#xba;" horiz-adv-x="363" 
d="M182 420c46 0 67 32 67 104c0 73 -21 105 -67 105s-68 -32 -68 -105c0 -72 22 -104 68 -104zM182 712c100 0 152 -72 152 -188c0 -115 -52 -187 -152 -187c-99 0 -153 72 -153 187c0 116 54 188 153 188z" />
    <glyph glyph-name="germandbls" unicode="&#xdf;" horiz-adv-x="523" 
d="M67 575c0 103 65 175 171 175h241v-92l-105 -169c74 -36 114 -122 114 -240c0 -159 -71 -258 -201 -258h-51v93h51c71 0 103 50 103 165c0 114 -32 165 -103 165h-51v93h51l90 151h-139c-49 0 -74 -34 -74 -83v-575h-97v575z" />
    <glyph glyph-name="ae" unicode="&#xe6;" horiz-adv-x="727" 
d="M684 158c0 -98 -68 -167 -181 -167c-71 0 -119 31 -151 92c-31 -56 -86 -92 -164 -92c-87 0 -140 57 -140 150c0 95 55 150 145 150h111v61c0 48 -26 65 -72 65c-49 0 -74 -17 -74 -65v-12h-97v12c0 103 64 157 171 157c60 0 107 -20 135 -67c31 45 77 67 136 67
c118 0 186 -75 186 -221v-77h-286c7 -90 37 -127 100 -127c57 0 84 29 84 74v6h97v-6zM503 416c-58 0 -89 -35 -98 -121h187v19c0 68 -38 102 -89 102zM145 144c0 -41 20 -61 55 -61c64 0 104 28 104 94v30h-99c-38 0 -60 -20 -60 -63z" />
    <glyph glyph-name="aeacute" unicode="&#x1fd;" horiz-adv-x="727" 
d="M684 158c0 -98 -68 -167 -181 -167c-71 0 -119 31 -151 92c-31 -56 -86 -92 -164 -92c-87 0 -140 57 -140 150c0 95 55 150 145 150h111v61c0 48 -26 65 -72 65c-49 0 -74 -17 -74 -65v-12h-97v12c0 103 64 157 171 157c60 0 107 -20 135 -67c31 45 77 67 136 67
c118 0 186 -75 186 -221v-77h-286c7 -90 37 -127 100 -127c57 0 84 29 84 74v6h97v-6zM503 416c-58 0 -89 -35 -98 -121h187v19c0 68 -38 102 -89 102zM145 144c0 -41 20 -61 55 -61c64 0 104 28 104 94v30h-99c-38 0 -60 -20 -60 -63zM422 577h-77l57 173h106z" />
    <glyph glyph-name="eth" unicode="&#xf0;" horiz-adv-x="481" 
d="M247 371c-73 0 -103 -42 -103 -143c0 -102 30 -144 103 -144s102 42 102 144c0 100 -30 142 -102 143zM153 508l-54 85l57 47l-65 110h113l27 -48l58 48l55 -85l-62 -50l100 -171c45 -78 65 -127 65 -216c0 -154 -68 -237 -200 -237c-133 0 -200 83 -200 237
c0 144 67 221 200 221c7 0 14 0 21 -1l-61 104z" />
    <glyph glyph-name="oslash" unicode="&#xf8;" horiz-adv-x="496" 
d="M44 250c0 168 68 259 204 259c36 0 68 -8 93 -26l11 17h109l-46 -73c26 -42 38 -101 38 -177c0 -168 -68 -259 -204 -259c-36 0 -67 8 -93 27l-11 -18h-109l46 73c-26 41 -38 101 -38 177zM356 250c0 30 -2 55 -5 75l-144 -226c12 -10 26 -15 42 -15c76 0 107 48 107 166
zM141 250c0 -29 2 -54 6 -75l142 226c-11 10 -24 15 -41 15c-76 0 -107 -49 -107 -166z" />
    <glyph glyph-name="oslashacute" unicode="&#x1ff;" horiz-adv-x="496" 
d="M44 250c0 168 68 259 204 259c36 0 68 -8 93 -26l11 17h109l-46 -73c26 -42 38 -101 38 -177c0 -168 -68 -259 -204 -259c-36 0 -67 8 -93 27l-11 -18h-109l46 73c-26 41 -38 101 -38 177zM356 250c0 30 -2 55 -5 75l-144 -226c12 -10 26 -15 42 -15c76 0 107 48 107 166
zM141 250c0 -29 2 -54 6 -75l142 226c-11 10 -24 15 -41 15c-76 0 -107 -49 -107 -166zM283 577h-77l56 173h106z" />
    <glyph glyph-name="thorn" unicode="&#xfe;" horiz-adv-x="497" 
d="M164 448c24 40 61 61 115 61c122 0 183 -90 183 -259c0 -168 -61 -259 -183 -259c-54 0 -91 21 -115 61v-302h-97v1000h97v-302zM264 416c-67 0 -100 -51 -100 -141v-50c0 -90 33 -141 100 -141c72 0 101 49 101 166c0 118 -29 166 -101 166z" />
    <glyph glyph-name="dcroat" unicode="&#x111;" horiz-adv-x="497" 
d="M333 51c-24 -40 -61 -60 -115 -60c-121 0 -183 90 -183 259s62 259 183 259c54 0 91 -20 115 -59v134h-93v92h93v74h97v-74h58v-92h-58v-584h-97v51zM234 84c66 0 99 51 99 141v50c0 90 -33 141 -99 141c-72 0 -102 -48 -102 -166s30 -166 102 -166z" />
    <glyph glyph-name="hbar" unicode="&#x127;" 
d="M164 449c23 40 59 60 110 60c104 0 155 -66 155 -205v-304h-97v304c0 77 -24 113 -77 113c-60 0 -91 -51 -91 -142v-275h-97v592h-50v84h50v74h97v-74h121v-84h-121v-143z" />
    <glyph glyph-name="dotlessi" unicode="&#x131;" horiz-adv-x="231" 
d="M164 500v-500h-97v500h97z" />
    <glyph glyph-name="ij" unicode="&#x133;" horiz-adv-x="412" 
d="M165 500v-500h-97v500h97zM68 -79h97c0 -70 14 -86 40 -86s40 16 40 86v579h97v-579c0 -124 -46 -178 -137 -178s-137 58 -137 178zM119 598c-42 0 -65 24 -65 65s23 66 65 66c41 0 64 -25 64 -66s-26 -65 -64 -65zM297 598c-42 0 -65 24 -65 65s23 66 65 66
c41 0 64 -25 64 -66s-25 -65 -64 -65z" />
    <glyph glyph-name="ldot" unicode="&#x140;" horiz-adv-x="322" 
d="M164 750v-750h-97v750h97zM215 250c0 41 21 66 61 66s62 -25 62 -66s-22 -65 -62 -65s-61 24 -61 65z" />
    <glyph glyph-name="lslash" unicode="&#x142;" horiz-adv-x="237" 
d="M167 467l71 55v-115l-71 -55v-352h-97v278l-72 -56v115l72 56v357h97v-283z" />
    <glyph glyph-name="napostrophe" unicode="&#x149;" 
d="M164 449c23 40 60 60 111 60c104 0 154 -64 154 -205v-304h-97v304c0 79 -24 113 -76 113c-61 0 -92 -46 -92 -142v-275h-97v500h97v-51zM184 698c0 -19 -7 -47 -21 -71l-31 -59h-65v130c0 39 21 62 58 62c38 0 59 -23 59 -62z" />
    <glyph glyph-name="eng" unicode="&#x14b;" horiz-adv-x="492" 
d="M274 509c104 0 155 -66 155 -205v-363c0 -135 -56 -198 -167 -198h-21v94h21c47 0 70 34 70 104v363c0 77 -24 113 -77 113c-60 0 -91 -51 -91 -142v-275h-97v500h97v-51c23 40 59 60 110 60z" />
    <glyph glyph-name="oe" unicode="&#x153;" horiz-adv-x="763" 
d="M720 158c0 -98 -68 -167 -183 -167c-67 0 -118 28 -151 79c-32 -52 -83 -79 -151 -79c-133 0 -200 91 -200 259s67 259 200 259c68 0 118 -26 151 -79c33 52 83 79 151 79c119 0 188 -75 188 -221v-74h-289c6 -93 37 -130 101 -130c58 0 86 29 86 74v6h97v-6zM132 250
c0 -118 30 -166 103 -166s103 48 103 166c0 117 -30 166 -103 166s-103 -49 -103 -166zM537 416c-58 0 -88 -35 -97 -118h187v16c0 68 -38 102 -90 102z" />
    <glyph glyph-name="tbar" unicode="&#x167;" horiz-adv-x="392" 
d="M222 83c26 0 41 16 41 86h97c0 -113 -46 -178 -138 -178s-138 55 -138 178v66h-49v90h49v83h-49v92h49l21 107h76v-107h128v-92h-128v-83h125v-90h-125v-66c0 -70 14 -86 41 -86z" />
    <glyph glyph-name="uni0237" unicode="&#x237;" horiz-adv-x="234" 
d="M-110 -79h97c0 -70 14 -86 40 -86s40 16 40 86v579h97v-579c0 -124 -46 -178 -137 -178s-137 58 -137 178z" />
    <glyph glyph-name="uni0430" unicode="&#x430;" horiz-adv-x="466" 
d="M232 509c106 0 170 -51 170 -157v-352h-97v55c-25 -40 -64 -64 -116 -64c-87 0 -140 57 -140 150c0 94 54 149 145 149h111v62c0 48 -26 65 -73 65c-48 0 -74 -17 -74 -65v-12h-97v12c0 103 65 157 171 157zM146 144c0 -41 19 -61 54 -61c64 0 105 28 105 94v30h-100
c-38 0 -59 -20 -59 -63z" />
    <glyph glyph-name="uni0431" unicode="&#x431;" horiz-adv-x="485" 
d="M250 -9c-133 0 -200 84 -200 242v216c0 180 65 248 178 248h67c39 0 45 13 45 45v7h97v-30c0 -79 -31 -118 -127 -118h-82c-56 0 -85 -28 -85 -152v-46c25 46 65 71 125 71c120 0 182 -78 182 -241c0 -158 -67 -242 -200 -242zM251 381c-69 0 -104 -52 -104 -148
c2 -109 30 -150 103 -150s103 41 103 150c0 107 -29 148 -102 148z" />
    <glyph glyph-name="uni0432" unicode="&#x432;" horiz-adv-x="451" 
d="M403 148c0 -92 -59 -148 -158 -148h-178v500h178c104 0 151 -53 151 -144c0 -45 -15 -80 -47 -102c35 -23 54 -59 54 -106zM305 148c0 39 -20 64 -57 64h-84v-126h84c37 0 57 23 57 62zM299 356c0 38 -13 58 -51 58h-84v-117h84c38 0 51 20 51 59z" />
    <glyph glyph-name="uni0433" unicode="&#x433;" horiz-adv-x="360" 
d="M342 500v-92h-178v-408h-97v500h275z" />
    <glyph glyph-name="uni0453" unicode="&#x453;" horiz-adv-x="360" 
d="M342 500v-92h-178v-408h-97v500h275zM168 577l57 173h106l-86 -173h-77z" />
    <glyph glyph-name="uni0434" unicode="&#x434;" horiz-adv-x="506" 
d="M71 92c14 38 27 95 34 296l3 112h317v-408h51v-241h-98v149h-258v-149h-98v241h49zM200 388c-6 -170 -19 -250 -34 -296h162v316h-128v-20z" />
    <glyph glyph-name="uni0435" unicode="&#x435;" horiz-adv-x="460" 
d="M35 250c0 168 67 259 200 259c119 0 187 -75 187 -221v-65h-289c4 -99 35 -139 102 -139c58 0 85 29 85 74v4h97v-4c0 -98 -68 -167 -182 -167c-133 0 -200 87 -200 259zM235 416c-57 0 -87 -32 -97 -109h187v7c0 68 -38 102 -90 102z" />
    <glyph glyph-name="uni0451" unicode="&#x451;" horiz-adv-x="460" 
d="M35 250c0 168 67 259 200 259c119 0 187 -75 187 -221v-65h-289c4 -99 35 -139 102 -139c58 0 85 29 85 74v4h97v-4c0 -98 -68 -167 -182 -167c-133 0 -200 87 -200 259zM235 416c-57 0 -87 -32 -97 -109h187v7c0 68 -38 102 -90 102zM394 668c0 -44 -28 -70 -70 -70
c-44 0 -69 26 -69 70c0 45 25 71 69 71s70 -26 70 -71zM203 668c0 -44 -28 -70 -70 -70c-44 0 -69 26 -69 70c0 45 25 71 69 71s70 -26 70 -71z" />
    <glyph glyph-name="uni0436" unicode="&#x436;" horiz-adv-x="651" 
d="M277 208h-51l-90 -208h-108l117 259l-108 241h103l87 -200h50v200h97v-200h51l87 200h103l-108 -240l117 -260h-108l-90 208h-52v-208h-97v208z" />
    <glyph glyph-name="uni04C2" unicode="&#x4c2;" horiz-adv-x="651" 
d="M277 208h-51l-90 -208h-108l117 259l-108 241h103l87 -200h50v200h97v-200h51l87 200h103l-108 -240l117 -260h-108l-90 208h-52v-208h-97v208zM255 739c0 -59 24 -84 70 -84c47 0 70 25 70 84v11h98v-11c0 -117 -64 -172 -168 -172s-167 55 -167 172v11h97v-11z" />
    <glyph glyph-name="uni0437" unicode="&#x437;" horiz-adv-x="450" 
d="M402 150c0 -87 -55 -159 -179 -159s-178 72 -178 164v30h97v-30c0 -40 17 -71 81 -71c65 0 82 29 82 66c0 34 -12 59 -56 59h-63v92h61c42 0 52 21 52 54c0 37 -15 61 -76 61c-60 0 -75 -26 -75 -66v-26h-97v26c0 92 53 159 172 159c121 0 173 -65 173 -154
c0 -48 -18 -81 -56 -100c41 -20 62 -55 62 -105z" />
    <glyph glyph-name="uni0438" unicode="&#x438;" horiz-adv-x="514" 
d="M164 500v-373h2l142 373h139v-500h-98v372h-2l-141 -372h-139v500h97z" />
    <glyph glyph-name="uni0439" unicode="&#x439;" horiz-adv-x="514" 
d="M164 500v-373h2l142 373h139v-500h-98v372h-2l-141 -372h-139v500h97zM263 655c47 0 70 25 70 84v11h98v-11c0 -117 -64 -172 -168 -172s-167 55 -167 172v11h97v-11c0 -59 24 -84 70 -84z" />
    <glyph glyph-name="uni04E3" unicode="&#x4e3;" horiz-adv-x="514" 
d="M164 500v-373h2l142 373h139v-500h-98v372h-2l-141 -372h-139v500h97zM425 617h-336v92h336v-92z" />
    <glyph glyph-name="uni043A" unicode="&#x43a;" horiz-adv-x="456" 
d="M164 0h-97v500h97v-199h55l98 199h107l-125 -246l136 -254h-109l-108 209h-54v-209z" />
    <glyph glyph-name="uni045C" unicode="&#x45c;" horiz-adv-x="456" 
d="M164 0h-97v500h97v-199h55l98 199h107l-125 -246l136 -254h-109l-108 209h-54v-209zM245 577h-77l57 173h105z" />
    <glyph glyph-name="uni043B" unicode="&#x43b;" horiz-adv-x="487" 
d="M114 500h306v-500h-97v408h-117l-4 -118c-8 -267 -51 -294 -143 -294h-27v99h27c24 0 41 14 47 196z" />
    <glyph glyph-name="uni043C" unicode="&#x43c;" horiz-adv-x="626" 
d="M559 500v-500h-97v286l3 95h-2l-105 -292h-92l-105 292h-4l4 -95v-286h-94v500h139l80 -216l26 -87h3l25 87l80 216h139z" />
    <glyph glyph-name="uni043D" unicode="&#x43d;" horiz-adv-x="496" 
d="M429 0h-97v209h-168v-209h-97v500h97v-199h168v199h97v-500z" />
    <glyph glyph-name="uni043E" unicode="&#x43e;" horiz-adv-x="470" 
d="M235 509c133 0 200 -91 200 -259s-67 -259 -200 -259s-200 91 -200 259s67 259 200 259zM235 84c73 0 103 48 103 166c0 117 -30 166 -103 166s-103 -49 -103 -166c0 -118 30 -166 103 -166z" />
    <glyph glyph-name="uni04E7" unicode="&#x4e7;" horiz-adv-x="470" 
d="M235 509c133 0 200 -91 200 -259s-67 -259 -200 -259s-200 91 -200 259s67 259 200 259zM235 84c73 0 103 48 103 166c0 117 -30 166 -103 166s-103 -49 -103 -166c0 -118 30 -166 103 -166zM137 598c-44 0 -69 26 -69 70c0 45 25 71 69 71s70 -26 70 -71
c0 -44 -28 -70 -70 -70zM328 598c-44 0 -69 26 -69 70c0 45 25 71 69 71s70 -26 70 -71c0 -44 -28 -70 -70 -70z" />
    <glyph glyph-name="uni043F" unicode="&#x43f;" horiz-adv-x="496" 
d="M429 0h-97v408h-168v-408h-97v500h362v-500z" />
    <glyph glyph-name="uni0440" unicode="&#x440;" horiz-adv-x="498" 
d="M165 448c24 40 61 61 115 61c122 0 183 -90 183 -259c0 -168 -61 -259 -183 -259c-54 0 -91 21 -115 61v-302h-97v750h97v-52zM265 416c-67 0 -100 -51 -100 -141v-50c0 -90 33 -141 100 -141c72 0 101 49 101 166c0 118 -29 166 -101 166z" />
    <glyph glyph-name="uni0441" unicode="&#x441;" horiz-adv-x="460" 
d="M235 416c-73 0 -103 -49 -103 -166c0 -118 30 -166 103 -166c61 0 92 38 92 112v8h97v-8c0 -129 -72 -205 -189 -205c-133 0 -200 91 -200 259s67 259 200 259c117 0 189 -71 189 -195v-8h-97v8c0 67 -31 102 -92 102z" />
    <glyph glyph-name="uni0442" unicode="&#x442;" horiz-adv-x="367" 
d="M18 408v92h331v-92h-117v-408h-97v408h-117z" />
    <glyph glyph-name="uni0443" unicode="&#x443;" horiz-adv-x="429" 
d="M418 500l-173 -586c-48 -143 -96 -171 -164 -171h-19v97h19c24 0 48 12 69 74l20 84l-154 502h102l73 -236l28 -125h3l28 125l71 236h97z" />
    <glyph glyph-name="uni045E" unicode="&#x45e;" horiz-adv-x="429" 
d="M418 500l-173 -586c-48 -143 -96 -171 -164 -171h-19v97h19c24 0 48 12 69 74l20 84l-154 502h102l73 -236l28 -125h3l28 125l71 236h97zM219 655c47 0 70 25 70 84v11h98v-11c0 -117 -64 -172 -168 -172s-168 55 -168 172v11h98v-11c0 -59 24 -84 70 -84z" />
    <glyph glyph-name="uni04EF" unicode="&#x4ef;" horiz-adv-x="429" 
d="M418 500l-173 -586c-48 -143 -96 -171 -164 -171h-19v97h19c24 0 48 12 69 74l20 84l-154 502h102l73 -236l28 -125h3l28 125l71 236h97zM376 617h-336v92h336v-92z" />
    <glyph glyph-name="uni04F3" unicode="&#x4f3;" horiz-adv-x="429" 
d="M418 500l-173 -586c-48 -143 -96 -171 -164 -171h-19v97h19c24 0 48 12 69 74l20 84l-154 502h102l73 -236l28 -125h3l28 125l71 236h97zM151 577h-78l41 173h105zM323 577h-77l57 173h105z" />
    <glyph glyph-name="uni0444" unicode="&#x444;" horiz-adv-x="612" 
d="M377 0h-23v-250h-97v250h-23c-130 0 -199 93 -199 250s69 250 199 250h23v250h97v-250h23c131 0 200 -93 200 -250s-69 -250 -200 -250zM234 92h26v316h-26c-67 0 -102 -58 -102 -158c0 -99 35 -158 102 -158zM377 408h-26v-316h26c66 0 103 59 103 158
c0 100 -37 158 -103 158z" />
    <glyph glyph-name="uni0445" unicode="&#x445;" horiz-adv-x="442" 
d="M408 500l-126 -237l137 -263h-111l-87 195h-4l-43 -97l-46 -98h-105l138 256l-127 244h111l48 -100l28 -73h4l30 73l48 100h105z" />
    <glyph glyph-name="uni0446" unicode="&#x446;" horiz-adv-x="509" 
d="M479 -149h-97v149h-315v500h97v-408h168v408h97v-408h50v-241z" />
    <glyph glyph-name="uni0447" unicode="&#x447;" horiz-adv-x="455" 
d="M202 271h88v229h98v-500h-98v179h-88c-125 0 -158 75 -158 152v169h97v-169c0 -27 14 -60 61 -60z" />
    <glyph glyph-name="uni0448" unicode="&#x448;" horiz-adv-x="680" 
d="M516 500h97v-500h-546v500h97v-408h128v408h97v-408h127v408z" />
    <glyph glyph-name="uni0449" unicode="&#x449;" horiz-adv-x="694" 
d="M663 -149h-97v149h-499v500h97v-408h128v408h97v-408h127v408h97v-408h50v-241z" />
    <glyph glyph-name="uni044A" unicode="&#x44a;" horiz-adv-x="471" 
d="M104 408h-98v92h195v-157h81c104 0 157 -60 157 -171s-53 -172 -157 -172h-178v408zM201 92h81c39 0 59 26 59 80s-20 79 -59 79h-81v-159z" />
    <glyph glyph-name="uni044B" unicode="&#x44b;" horiz-adv-x="622" 
d="M164 343h81c105 0 158 -60 158 -171s-53 -172 -158 -172h-178v500h97v-157zM164 92h81c40 0 60 26 60 80s-20 79 -60 79h-81v-159zM555 500v-500h-97v500h97z" />
    <glyph glyph-name="uni044C" unicode="&#x44c;" horiz-adv-x="435" 
d="M164 343h81c105 0 158 -60 158 -171s-53 -172 -158 -172h-178v500h97v-157zM164 92h81c40 0 60 26 60 80s-20 79 -60 79h-81v-159z" />
    <glyph glyph-name="uni044D" unicode="&#x44d;" horiz-adv-x="467" 
d="M333 299c-9 82 -41 117 -105 117c-63 0 -94 -35 -94 -102v-8h-97v8c0 124 73 195 191 195c136 0 204 -91 204 -259s-68 -259 -204 -259c-119 0 -191 76 -191 205v8h97v-8c0 -74 31 -112 94 -112c67 0 99 37 106 127h-155v88h154z" />
    <glyph glyph-name="uni044E" unicode="&#x44e;" horiz-adv-x="667" 
d="M242 299c12 138 76 210 194 210c132 0 196 -89 196 -259s-64 -259 -196 -259c-119 0 -184 74 -194 216h-78v-207h-97v500h97v-201h78zM337 250c0 -111 32 -166 99 -166c68 0 99 55 99 166s-31 166 -99 166c-67 0 -99 -55 -99 -166z" />
    <glyph glyph-name="uni044F" unicode="&#x44f;" horiz-adv-x="455" 
d="M53 332c0 104 52 168 158 168h177v-500h-97v166h-72l-69 -166h-104l80 192c-48 25 -73 73 -73 140zM150 332c0 -53 20 -82 61 -82h80v158h-80c-41 0 -61 -29 -61 -76z" />
    <glyph glyph-name="uni0452" unicode="&#x452;" 
d="M274 509c104 0 155 -66 155 -205v-363c0 -135 -56 -198 -167 -198h-21v94h21c47 0 70 34 70 104v363c0 77 -24 113 -77 113c-60 0 -91 -51 -91 -142v-275h-97v592h-50v84h50v74h97v-74h121v-84h-121v-143c23 40 59 60 110 60z" />
    <glyph glyph-name="uni0454" unicode="&#x454;" horiz-adv-x="467" 
d="M333 314c0 67 -31 102 -94 102c-64 0 -96 -35 -105 -117h154v-88h-155c7 -90 39 -127 106 -127c63 0 94 38 94 112v8h97v-8c0 -129 -72 -205 -191 -205c-136 0 -204 91 -204 259s68 259 204 259c118 0 191 -71 191 -195v-8h-97v8z" />
    <glyph glyph-name="uni0455" unicode="&#x455;" horiz-adv-x="434" 
d="M290 141c0 96 -247 37 -247 220c0 78 51 148 171 148c110 0 169 -58 169 -161v-14h-97v14c0 50 -23 68 -72 68c-59 0 -74 -24 -74 -55c0 -96 247 -37 247 -220c0 -81 -53 -150 -175 -150c-111 0 -174 60 -174 163v19h97v-19c0 -50 26 -70 77 -70c62 0 78 24 78 57z" />
    <glyph glyph-name="uni0456" unicode="&#x456;" horiz-adv-x="232" 
d="M165 500v-500h-97v500h97zM118 598c-42 0 -65 24 -65 65s23 66 65 66c41 0 64 -25 64 -66s-25 -65 -64 -65z" />
    <glyph glyph-name="uni0457" unicode="&#x457;" horiz-adv-x="232" 
d="M165 500v-500h-97v500h97zM39 598c-42 0 -64 24 -64 65s22 66 64 66c41 0 65 -25 65 -66s-26 -65 -65 -65zM192 598c-42 0 -65 24 -65 65s23 66 65 66c41 0 64 -25 64 -66s-25 -65 -64 -65z" />
    <glyph glyph-name="uni0458" unicode="&#x458;" horiz-adv-x="239" 
d="M-107 -79h97c0 -70 14 -86 40 -86s40 16 40 86v579h97v-579c0 -124 -46 -178 -137 -178s-137 58 -137 178zM122 598c-42 0 -65 24 -65 65s23 66 65 66c41 0 64 -25 64 -66s-25 -65 -64 -65z" />
    <glyph glyph-name="uni0459" unicode="&#x459;" horiz-adv-x="667" 
d="M408 92h69c40 0 60 26 60 80s-20 79 -60 79h-69v-159zM311 0v408h-105l-4 -118c-8 -267 -51 -294 -143 -294h-27v99h27c24 0 41 14 47 196l8 209h294v-157h69c105 0 158 -60 158 -171s-53 -172 -158 -172h-166z" />
    <glyph glyph-name="uni045A" unicode="&#x45a;" horiz-adv-x="676" 
d="M417 92h69c40 0 60 20 60 59c0 40 -20 58 -60 58h-69v-117zM320 0v209h-156v-209h-97v500h97v-199h156v199h97v-199h69c105 0 158 -52 158 -150c0 -97 -53 -151 -158 -151h-166z" />
    <glyph glyph-name="uni045B" unicode="&#x45b;" 
d="M164 449c23 40 59 60 110 60c104 0 155 -66 155 -205v-304h-97v304c0 77 -24 113 -77 113c-60 0 -91 -51 -91 -142v-275h-97v592h-50v84h50v74h97v-74h121v-84h-121v-143z" />
    <glyph glyph-name="uni045F" unicode="&#x45f;" horiz-adv-x="496" 
d="M297 0v-149h-98v149h-132v500h97v-408h168v408h97v-500h-132z" />
    <glyph glyph-name="uni0491" unicode="&#x491;" horiz-adv-x="360" 
d="M67 500h178v149h97v-241h-178v-408h-97v500z" />
    <glyph glyph-name="uni0493" unicode="&#x493;" horiz-adv-x="360" 
d="M266 270v-92h-102v-178h-97v178h-48v92h48v230h275v-92h-178v-138h102z" />
    <glyph glyph-name="uni0497" unicode="&#x497;" horiz-adv-x="651" 
d="M277 208h-51l-90 -208h-108l117 259l-108 241h103l87 -200h50v200h97v-200h51l87 200h103l-108 -240l76 -168h52v-241h-97v149h-22l-90 208h-52v-208h-97v208z" />
    <glyph glyph-name="uni0499" unicode="&#x499;" horiz-adv-x="450" 
d="M305 150c0 34 -12 59 -56 59h-63v92h61c42 0 52 21 52 54c0 37 -15 61 -76 61c-60 0 -75 -26 -75 -66v-26h-97v26c0 92 53 159 172 159c121 0 173 -65 173 -154c0 -48 -18 -81 -56 -100c41 -20 62 -55 62 -105c0 -76 -42 -141 -137 -156v-143h-97v145
c-85 19 -123 82 -123 159v30h97v-30c0 -40 17 -71 81 -71c65 0 82 29 82 66z" />
    <glyph glyph-name="uni049B" unicode="&#x49b;" horiz-adv-x="466" 
d="M164 0h-97v500h97v-199h55l98 199h107l-125 -246l87 -162h59v-241h-97v149h-22l-108 209h-54v-209z" />
    <glyph glyph-name="uni049D" unicode="&#x49d;" horiz-adv-x="557" 
d="M298 80h-97v129h-37v-209h-97v500h97v-199h37v119h97v-119h24l94 199h108l-121 -245l132 -255h-110l-103 209h-24v-129z" />
    <glyph glyph-name="uni04A1" unicode="&#x4a1;" 
d="M353 500h107l-125 -245l136 -255h-109l-108 209h-53v-209h-97v408h-98v92h195v-199h54z" />
    <glyph glyph-name="uni04A3" unicode="&#x4a3;" horiz-adv-x="509" 
d="M429 500v-408h50v-241h-97v149h-50v209h-168v-209h-97v500h97v-199h168v199h97z" />
    <glyph glyph-name="uni04AB" unicode="&#x4ab;" horiz-adv-x="460" 
d="M327 314c0 67 -31 102 -92 102c-73 0 -103 -49 -103 -166c0 -118 30 -166 103 -166c61 0 92 38 92 112v8h97v-8c0 -112 -54 -184 -145 -201v-144h-97v146c-98 22 -147 109 -147 253c0 168 67 259 200 259c117 0 189 -71 189 -195v-8h-97v8z" />
    <glyph glyph-name="uni04AF" unicode="&#x4af;" horiz-adv-x="425" 
d="M164 -250v263l-152 487h95l83 -273l22 -104h3l21 104l83 273h94l-152 -487v-263h-97z" />
    <glyph glyph-name="uni04B1" unicode="&#x4b1;" horiz-adv-x="425" 
d="M164 -50v63l-152 487h95l83 -273l22 -104h3l21 104l83 273h94l-152 -487v-63h102v-92h-102v-108h-97v108h-103v92h103z" />
    <glyph glyph-name="uni04B3" unicode="&#x4b3;" horiz-adv-x="443" 
d="M303 500h105l-126 -237l89 -171h56v-241h-97v149h-22l-87 195h-4l-43 -97l-46 -98h-105l138 256l-127 244h111l48 -100l28 -73h4l30 73z" />
    <glyph glyph-name="uni04B7" unicode="&#x4b7;" horiz-adv-x="468" 
d="M141 331c0 -27 14 -60 61 -60h88v229h98v-408h50v-241h-97v149h-51v179h-88c-125 0 -158 75 -158 152v169h97v-169z" />
    <glyph glyph-name="uni04BB" unicode="&#x4bb;" 
d="M164 449c23 40 59 60 110 60c104 0 155 -66 155 -205v-304h-97v304c0 77 -24 113 -77 113c-60 0 -91 -51 -91 -142v-275h-97v750h97v-301z" />
    <glyph glyph-name="uni04CF" unicode="&#x4cf;" horiz-adv-x="231" 
d="M164 750v-750h-97v750h97z" />
    <glyph glyph-name="uni04D9" unicode="&#x4d9;" horiz-adv-x="458" 
d="M423 250c0 -167 -67 -259 -200 -259c-119 0 -187 75 -187 221v66h288c-4 98 -35 138 -101 138c-58 0 -85 -29 -85 -74v-4h-97v4c0 99 67 167 182 167c133 0 200 -87 200 -259zM223 84c56 0 87 32 97 110h-187v-8c0 -67 38 -102 90 -102z" />
    <glyph glyph-name="uni04E9" unicode="&#x4e9;" horiz-adv-x="470" 
d="M35 250c0 168 67 259 200 259s200 -91 200 -259s-67 -259 -200 -259s-200 91 -200 259zM133 210c7 -89 38 -126 102 -126s95 37 102 126h-204zM235 416c-62 0 -93 -36 -101 -119h202c-8 83 -39 119 -101 119z" />
    <glyph glyph-name="zero" unicode="0" horiz-adv-x="504" 
d="M354 209v284c0 83 -33 123 -102 123s-102 -40 -102 -123v-284c0 -82 33 -123 102 -123s102 41 102 123zM455 493v-284c0 -142 -71 -219 -203 -219s-202 77 -202 219v284c0 143 70 219 202 219s203 -76 203 -219z" />
    <glyph glyph-name="one" unicode="1" horiz-adv-x="436" 
d="M189 96v488l-113 -78h-10v109l123 85h100v-604h121v-96h-365v96h144z" />
    <glyph glyph-name="two" unicode="2" horiz-adv-x="505" 
d="M455 499c0 -108 -67 -197 -180 -308l-90 -94h270v-97h-405v96l123 129c150 140 181 197 181 274c0 81 -33 117 -102 117s-102 -39 -102 -120v-55h-100v55c0 142 71 216 202 216c133 0 203 -72 203 -213z" />
    <glyph glyph-name="three" unicode="3" horiz-adv-x="516" 
d="M360 204c0 83 -36 116 -102 116h-46v96l125 188h-170v-104h-100v200h381v-96l-138 -200c96 -16 151 -81 151 -200c0 -149 -75 -216 -203 -216c-126 0 -203 67 -203 216v45h101v-45c0 -87 34 -119 102 -119c67 0 102 32 102 119z" />
    <glyph glyph-name="four" unicode="4" horiz-adv-x="488" 
d="M33 226l112 474h105l-112 -474h175v351h100v-351h41v-96h-41v-130h-100v130h-280v96z" />
    <glyph glyph-name="five" unicode="5" horiz-adv-x="499" 
d="M359 200c0 80 -34 120 -103 120h-188v380h373v-96h-273v-188h88c133 0 203 -76 203 -216c0 -138 -70 -212 -203 -212c-131 0 -202 73 -202 212v15h100v-15c0 -78 34 -116 102 -116c69 0 103 38 103 116z" />
    <glyph glyph-name="six" unicode="6" horiz-adv-x="514" 
d="M261 616c-74 0 -110 -39 -110 -120v-130c28 36 69 54 120 54c132 0 201 -75 201 -216s-72 -216 -211 -216c-136 0 -211 75 -211 216v292c0 142 73 216 211 216c136 0 211 -75 211 -216v-15h-100v15c0 81 -35 120 -111 120zM261 324c-73 0 -110 -39 -110 -120
s35 -119 110 -119c74 0 110 38 110 119s-36 120 -110 120z" />
    <glyph glyph-name="seven" unicode="7" horiz-adv-x="430" 
d="M21 604v96h379v-96l-185 -604h-106l185 604h-273z" />
    <glyph glyph-name="eight" unicode="8" horiz-adv-x="506" 
d="M464 199c0 -137 -73 -209 -211 -209s-211 72 -211 209c0 75 24 129 73 160c-42 31 -63 81 -63 151c0 131 70 202 201 202c132 0 202 -71 202 -202c0 -70 -21 -120 -63 -151c48 -32 72 -85 72 -160zM253 86c74 0 111 37 111 113s-37 112 -111 112s-110 -36 -110 -112
s36 -113 110 -113zM253 616c-68 0 -101 -36 -101 -106c0 -72 33 -107 101 -107c69 0 101 35 101 107c0 70 -32 106 -101 106z" />
    <glyph glyph-name="nine" unicode="9" horiz-adv-x="514" 
d="M253 85c74 0 111 38 111 120v130c-28 -36 -69 -54 -120 -54c-132 0 -202 74 -202 215s73 216 211 216c137 0 211 -75 211 -215v-292c0 -142 -72 -217 -211 -217c-136 0 -211 75 -211 217v15h101v-15c0 -82 35 -120 110 -120zM253 377c73 0 111 38 111 119v1
c0 80 -35 119 -111 119c-74 0 -110 -39 -110 -120s36 -119 110 -119z" />
    <glyph glyph-name="underscore" unicode="_" horiz-adv-x="762" 
d="M67 86h628v-98h-628v98z" />
    <glyph glyph-name="hyphen" unicode="-" horiz-adv-x="384" 
d="M322 314v-96h-259v96h259z" />
    <glyph glyph-name="endash" unicode="&#x2013;" horiz-adv-x="457" 
d="M34 215v103h390v-103h-390z" />
    <glyph glyph-name="emdash" unicode="&#x2014;" horiz-adv-x="608" 
d="M25 215v103h558v-103h-558z" />
    <glyph glyph-name="parenleft" unicode="(" horiz-adv-x="302" 
d="M50 311c0 471 91 561 232 561h10v-96h-10c-77 0 -131 -62 -131 -465s54 -465 131 -465h10v-96h-10c-141 0 -232 90 -232 561z" />
    <glyph glyph-name="parenright" unicode=")" horiz-adv-x="302" 
d="M252 311c0 -471 -90 -561 -231 -561h-11v96h11c76 0 131 62 131 465s-55 465 -131 465h-11v96h11c141 0 231 -90 231 -561z" />
    <glyph glyph-name="bracketleft" unicode="[" horiz-adv-x="277" 
d="M76 -250v1122h191v-96h-91v-930h91v-96h-191z" />
    <glyph glyph-name="bracketright" unicode="]" horiz-adv-x="277" 
d="M202 872v-1122h-192v96h91v930h-91v96h192z" />
    <glyph glyph-name="braceleft" unicode="{" horiz-adv-x="304" 
d="M109 208c0 36 -18 58 -53 58h-22v88h22c35 0 53 22 53 59v308c0 96 54 150 144 150h41v-96h-41c-28 0 -43 -17 -43 -54v-308c0 -47 -19 -82 -55 -103c36 -21 55 -56 55 -102v-308c0 -37 15 -54 43 -54h41v-96h-41c-90 0 -144 54 -144 150v308z" />
    <glyph glyph-name="braceright" unicode="}" horiz-adv-x="304" 
d="M195 208v-308c0 -96 -53 -150 -144 -150h-41v96h41c29 0 44 17 44 54v308c0 46 19 81 55 102c-36 21 -55 56 -55 103v308c0 37 -15 54 -44 54h-41v96h41c91 0 144 -54 144 -150v-308c0 -37 19 -59 53 -59h23v-88h-23c-34 0 -53 -22 -53 -58z" />
    <glyph glyph-name="numbersign" unicode="#" horiz-adv-x="570" 
d="M207 176l-16 -176h-97l16 176h-76v92h85l14 161h-99v92h108l16 179h98l-17 -179h124l17 179h97l-17 -179h77v-92h-85l-15 -161h100v-92h-109l-16 -176h-97l16 176h-124zM231 429l-15 -161h124l15 161h-124z" />
    <glyph glyph-name="percent" unicode="%" horiz-adv-x="649" 
d="M169 474c33 0 52 24 52 77s-19 77 -52 77c-35 0 -52 -24 -52 -77s17 -77 52 -77zM169 392c-89 0 -135 55 -135 159c0 105 46 159 135 159c86 0 136 -54 136 -159c0 -104 -50 -159 -136 -159zM198 0h-111l359 700h111zM474 73c33 0 52 24 52 77c0 52 -19 77 -52 77
c-35 0 -52 -24 -52 -77s17 -77 52 -77zM474 -9c-89 0 -135 55 -135 159c0 105 46 159 135 159c86 0 136 -55 136 -159s-50 -159 -136 -159z" />
    <glyph glyph-name="perthousand" unicode="&#x2030;" horiz-adv-x="833" 
d="M794 150c0 -104 -46 -159 -135 -159c-39 0 -70 15 -93 43c-22 -28 -53 -43 -92 -43c-89 0 -135 55 -135 159c0 105 46 159 135 159c39 0 70 -14 93 -43c22 28 54 43 92 43c89 0 135 -54 135 -159zM305 551c0 -104 -50 -159 -136 -159c-89 0 -135 55 -135 159
c0 105 46 159 135 159c86 0 136 -54 136 -159zM557 700l-359 -700h-111l359 700h111zM117 551c0 -53 17 -77 52 -77c33 0 52 24 52 77s-19 77 -52 77c-35 0 -52 -24 -52 -77zM607 150c0 -53 19 -77 52 -77c35 0 52 24 52 77s-17 77 -52 77c-33 0 -52 -25 -52 -77zM422 150
c0 -53 17 -77 52 -77c33 0 52 24 52 77c0 52 -19 77 -52 77c-35 0 -52 -24 -52 -77z" />
    <glyph glyph-name="quotesingle" unicode="'" horiz-adv-x="192" 
d="M119 509h-77v241h101v-35z" />
    <glyph glyph-name="quotedbl" unicode="&#x22;" horiz-adv-x="333" 
d="M119 509h-77v241h101v-35zM260 509h-77v241h100v-35z" />
    <glyph glyph-name="quoteleft" unicode="&#x2018;" horiz-adv-x="190" 
d="M149 750v-188c0 -42 -21 -66 -61 -66s-63 24 -63 66c0 18 7 45 12 62l37 126h75z" />
    <glyph glyph-name="quoteright" unicode="&#x2019;" horiz-adv-x="190" 
d="M42 496v189c0 41 20 65 61 65c39 0 62 -24 62 -65c0 -19 -7 -46 -12 -63l-37 -126h-74z" />
    <glyph glyph-name="quotedblleft" unicode="&#x201c;" horiz-adv-x="357" 
d="M149 750v-188c0 -42 -21 -66 -61 -66s-63 24 -63 66c0 18 7 45 12 62l37 126h75zM315 750v-188c0 -42 -21 -66 -61 -66s-62 24 -62 66c0 18 6 45 12 62l37 126h74z" />
    <glyph glyph-name="quotedblright" unicode="&#x201d;" horiz-adv-x="357" 
d="M42 496v189c0 41 20 65 61 65c39 0 62 -24 62 -65c0 -19 -7 -46 -12 -63l-37 -126h-74zM208 496v189c0 41 21 65 61 65s62 -24 62 -65c0 -19 -6 -46 -11 -63l-37 -126h-75z" />
    <glyph glyph-name="quotesinglbase" unicode="&#x201a;" horiz-adv-x="190" 
d="M42 -120v189c0 41 20 65 61 65c39 0 62 -24 62 -65c0 -19 -7 -46 -12 -63l-37 -126h-74z" />
    <glyph glyph-name="quotedblbase" unicode="&#x201e;" horiz-adv-x="357" 
d="M42 -120v189c0 41 20 65 61 65c39 0 62 -24 62 -65c0 -19 -7 -46 -12 -63l-37 -126h-74zM208 -120v189c0 41 21 65 61 65s62 -24 62 -65c0 -19 -6 -46 -11 -63l-37 -126h-75z" />
    <glyph glyph-name="guilsinglleft" unicode="&#x2039;" horiz-adv-x="270" 
d="M140 248l74 -90v-127h-6l-183 219l183 218h6v-127l-74 -91v-2z" />
    <glyph glyph-name="guilsinglright" unicode="&#x203a;" horiz-adv-x="270" 
d="M56 158l74 90v2l-74 91v127h6l183 -218l-183 -219h-6v127z" />
    <glyph glyph-name="guillemotleft" unicode="&#xab;" horiz-adv-x="482" 
d="M140 248l74 -90v-127h-6l-183 219l183 218h6v-127l-74 -91v-2zM352 248l74 -90v-127h-6l-182 219l182 218h6v-127l-74 -91v-2z" />
    <glyph glyph-name="guillemotright" unicode="&#xbb;" horiz-adv-x="482" 
d="M56 158l74 90v2l-74 91v127h6l183 -218l-183 -219h-6v127zM268 158l74 90v2l-74 91v127h6l183 -218l-183 -219h-6v127z" />
    <glyph glyph-name="asterisk" unicode="*" horiz-adv-x="381" 
d="M328 388l-66 -43l-52 95l-18 41h-2l-19 -41l-52 -96l-66 45l87 134l-128 36l24 75l121 -46l-6 162h80l-6 -162l122 46l22 -76l-128 -35z" />
    <glyph glyph-name="dagger" unicode="&#x2020;" horiz-adv-x="405" 
d="M253 0h-101v404h-118v96h118v200h101v-200h119v-96h-119v-404z" />
    <glyph glyph-name="daggerdbl" unicode="&#x2021;" horiz-adv-x="405" 
d="M253 0h-101v162h-118v96h118v146h-118v96h118v200h101v-200h119v-96h-119v-146h119v-96h-119v-162z" />
    <glyph glyph-name="period" unicode="." horiz-adv-x="174" 
d="M25 54c0 41 21 65 62 65c39 0 62 -24 62 -65c0 -42 -23 -66 -62 -66c-41 0 -62 24 -62 66z" />
    <glyph glyph-name="comma" unicode="," horiz-adv-x="174" 
d="M25 -120v189c0 41 21 65 61 65s63 -24 63 -65c0 -19 -7 -46 -12 -63l-37 -126h-75z" />
    <glyph glyph-name="colon" unicode=":" horiz-adv-x="174" 
d="M25 54c0 41 21 65 62 65c39 0 62 -24 62 -65c0 -42 -23 -66 -62 -66c-41 0 -62 24 -62 66zM25 370c0 41 21 65 62 65c39 0 62 -24 62 -65c0 -42 -23 -66 -62 -66c-41 0 -62 24 -62 66z" />
    <glyph glyph-name="semicolon" unicode=";" horiz-adv-x="174" 
d="M25 -120v189c0 41 21 65 61 65s63 -24 63 -65c0 -19 -7 -46 -12 -63l-37 -126h-75zM25 370c0 41 21 65 62 65c39 0 62 -24 62 -65c0 -42 -23 -66 -62 -66c-41 0 -62 24 -62 66z" />
    <glyph glyph-name="ellipsis" unicode="&#x2026;" horiz-adv-x="549" 
d="M25 54c0 41 21 65 62 65c39 0 62 -24 62 -65c0 -42 -23 -66 -62 -66c-41 0 -62 24 -62 66zM213 54c0 41 21 65 61 65c39 0 62 -24 62 -65c0 -42 -23 -66 -62 -66c-40 0 -61 24 -61 66zM400 54c0 41 21 65 62 65c39 0 62 -24 62 -65c0 -42 -23 -66 -62 -66
c-41 0 -62 24 -62 66z" />
    <glyph glyph-name="exclam" unicode="!" horiz-adv-x="257" 
d="M79 700h100l-1 -518h-98zM67 54c0 41 21 65 61 65s62 -24 62 -65c0 -42 -22 -66 -62 -66s-61 24 -61 66z" />
    <glyph glyph-name="exclamdown" unicode="&#xa1;" horiz-adv-x="257" 
d="M179 -203h-100l1 518h98zM67 444c0 41 21 65 61 65s62 -24 62 -65c0 -42 -22 -66 -62 -66s-61 24 -61 66z" />
    <glyph glyph-name="question" unicode="?" horiz-adv-x="507" 
d="M455 503c0 -101 -54 -168 -150 -188v-133h-100v211h39c71 0 111 42 111 110c0 70 -36 111 -102 111s-101 -37 -101 -101v-45h-100v45c0 126 75 199 201 199c127 0 202 -77 202 -209zM255 -12c-40 0 -61 24 -61 66c0 41 21 65 61 65c39 0 62 -24 62 -65
c0 -42 -23 -66 -62 -66z" />
    <glyph glyph-name="questiondown" unicode="&#xbf;" horiz-adv-x="507" 
d="M52 -5c0 100 54 168 149 187v134h101v-211h-39c-71 0 -111 -42 -111 -110c0 -70 36 -111 101 -111c67 0 102 37 102 101v45h100v-45c0 -126 -75 -199 -202 -199c-126 0 -201 77 -201 209zM252 510c40 0 61 -24 61 -65c0 -42 -21 -66 -61 -66s-62 24 -62 66
c0 41 22 65 62 65z" />
    <glyph glyph-name="slash" unicode="/" horiz-adv-x="364" 
d="M314 700l-162 -700h-102l163 700h101z" />
    <glyph glyph-name="backslash" unicode="\" horiz-adv-x="364" 
d="M213 0l-163 700h102l162 -700h-101z" />
    <glyph glyph-name="fraction" unicode="&#x2044;" horiz-adv-x="295" 
d="M213 0h-111l354 700h111z" />
    <glyph glyph-name="bar" unicode="|" horiz-adv-x="277" 
d="M88 -250v950h101v-950h-101z" />
    <glyph glyph-name="brokenbar" unicode="&#xa6;" horiz-adv-x="293" 
d="M96 -250v416h101v-416h-101zM96 304v396h101v-396h-101z" />
    <glyph glyph-name="at" unicode="@" horiz-adv-x="794" 
d="M752 250c0 -298 -126 -462 -355 -462c-238 0 -355 164 -355 462s117 462 355 462c230 0 355 -164 355 -462zM134 250c0 -237 85 -374 263 -374c174 0 263 135 263 374c0 237 -90 374 -263 374c-178 0 -263 -137 -263 -374zM393 509c106 0 170 -51 170 -157v-352h-97v55
c-25 -40 -64 -64 -117 -64c-87 0 -140 57 -140 150c0 94 55 149 145 149h112v62c0 48 -26 65 -73 65c-49 0 -74 -17 -74 -65v-12h-97v12c0 103 64 157 171 157zM307 144c0 -41 19 -61 54 -61c64 0 105 28 105 94v30h-100c-38 0 -59 -20 -59 -63z" />
    <glyph glyph-name="ampersand" unicode="&#x26;" horiz-adv-x="552" 
d="M156 509c0 -65 11 -104 83 -104h289v-96h-60v-112c0 -132 -77 -209 -211 -209c-136 0 -211 77 -211 209c0 75 26 132 84 161c-56 25 -74 78 -74 151c0 136 75 204 201 204c132 0 210 -69 210 -204v-41h-101v41c0 72 -37 108 -109 108c-66 0 -101 -36 -101 -108zM257 85
c72 0 111 36 111 112v112h-129c-65 0 -92 -41 -92 -112c0 -76 39 -112 110 -112z" />
    <glyph glyph-name="section" unicode="&#xa7;" horiz-adv-x="433" 
d="M301 135c0 103 -252 24 -252 215c0 40 18 84 62 111c-40 28 -59 65 -59 103c0 83 52 148 167 148c103 0 166 -53 166 -154v-18h-89v18c0 50 -28 70 -77 70c-62 0 -77 -28 -77 -64c0 -103 246 -24 246 -214c0 -40 -18 -82 -60 -110c43 -28 63 -66 63 -105
c0 -81 -53 -147 -173 -147c-107 0 -173 52 -173 154v18h89v-18c0 -51 30 -70 84 -70c66 0 83 28 83 63zM218 418c-65 0 -81 -30 -81 -68c0 -37 16 -68 81 -68c64 0 80 31 80 68c0 38 -16 68 -80 68z" />
    <glyph glyph-name="paragraph" unicode="&#xb6;" horiz-adv-x="528" 
d="M42 482c0 138 70 218 190 218h230v-951h-100v855h-101v-854h-100v525c-76 27 -119 99 -119 207z" />
    <glyph glyph-name="uni2116" unicode="&#x2116;" horiz-adv-x="929" 
d="M723 278c33 0 52 29 52 83s-19 83 -52 83c-35 0 -53 -29 -53 -83s18 -83 53 -83zM723 202c-87 0 -132 55 -132 159c0 105 45 159 132 159c83 0 132 -54 132 -159c0 -104 -49 -159 -132 -159zM431 700h409v-96h-312v-604h-154l-212 594h-2l3 -94v-500h-97v700h154
l212 -593h2l-3 93v500z" />
    <glyph glyph-name="periodcentered" unicode="&#xb7;" horiz-adv-x="174" 
d="M25 270c0 41 21 65 62 65c39 0 62 -24 62 -65c0 -42 -23 -66 -62 -66c-41 0 -62 24 -62 66z" />
    <glyph glyph-name="bullet" unicode="&#x2022;" horiz-adv-x="707" 
d="M354 -9c-200 0 -304 136 -304 360c0 226 104 359 304 359c190 0 303 -133 303 -359c0 -224 -113 -360 -303 -360z" />
    <glyph glyph-name="minute" unicode="&#x2032;" horiz-adv-x="179" 
d="M127 509h-100l23 206v35h101v-35z" />
    <glyph glyph-name="second" unicode="&#x2033;" horiz-adv-x="340" 
d="M127 509h-100l23 206v35h101v-35zM288 509h-101l24 206v35h100v-35z" />
    <glyph glyph-name="plus" unicode="+" horiz-adv-x="433" 
d="M403 405v-96h-138v-172h-97v172h-138v96h138v171h97v-171h138z" />
    <glyph glyph-name="minus" unicode="&#x2212;" horiz-adv-x="430" 
d="M401 405v-96h-373v96h373z" />
    <glyph glyph-name="plusminus" unicode="&#xb1;" horiz-adv-x="430" 
d="M28 427v96h138v169h97v-169h138v-96h-138v-172h-97v172h-138zM28 194h373v-96h-373v96z" />
    <glyph glyph-name="divide" unicode="&#xf7;" horiz-adv-x="430" 
d="M401 415v-96h-373v96h373zM153 169c0 41 21 66 62 66c39 0 62 -25 62 -66s-23 -65 -62 -65c-41 0 -62 24 -62 65zM153 564c0 41 21 66 62 66c39 0 62 -25 62 -66s-23 -65 -62 -65c-41 0 -62 24 -62 65z" />
    <glyph glyph-name="multiply" unicode="&#xd7;" horiz-adv-x="430" 
d="M149 357l-117 142l72 66l111 -130l111 130l72 -66l-117 -142l118 -142l-73 -67l-111 131l-112 -130l-72 67z" />
    <glyph glyph-name="equal" unicode="=" horiz-adv-x="430" 
d="M401 287v-96h-373v96h373zM401 523v-96h-373v96h373z" />
    <glyph glyph-name="less" unicode="&#x3c;" horiz-adv-x="418" 
d="M17 306v90l334 220h7v-109l-230 -157l230 -159v-108h-7z" />
    <glyph glyph-name="greater" unicode="&#x3e;" horiz-adv-x="418" 
d="M401 396v-90l-334 -223h-6v108l230 159l-230 157v109h6z" />
    <glyph glyph-name="lessequal" unicode="&#x2264;" horiz-adv-x="418" 
d="M17 389v90l334 220h7v-109l-230 -157l230 -158v-109h-7zM17 96h346v-96h-346v96z" />
    <glyph glyph-name="greaterequal" unicode="&#x2265;" horiz-adv-x="418" 
d="M401 480v-90l-334 -223h-6v108l230 159l-230 157v109h6zM55 96h346v-96h-346v96z" />
    <glyph glyph-name="approxequal" unicode="&#x2248;" horiz-adv-x="430" 
d="M288 331c59 0 113 -37 113 -135v-34h-96v27c0 27 -11 45 -33 45c-42 0 -52 -77 -130 -77c-59 0 -113 37 -113 135v34h96v-26c0 -28 10 -45 32 -45c43 0 52 76 131 76zM288 548c59 0 113 -37 113 -136v-33h-96v26c0 28 -11 45 -33 45c-42 0 -52 -77 -130 -77
c-59 0 -113 37 -113 135v34h96v-26c0 -28 10 -45 32 -45c43 0 52 77 131 77z" />
    <glyph glyph-name="dollar" unicode="$" horiz-adv-x="528" 
d="M397 470c0 93 -19 136 -85 145v-210c91 -29 194 -65 194 -207c0 -106 -60 -198 -194 -209v-121h-88v121c-132 9 -194 87 -194 247v18h100v-18c0 -99 22 -142 94 -150v227c-89 30 -186 68 -186 205c0 96 54 184 186 194v110h88v-110c128 -10 185 -91 185 -242v-18h-100v18
zM405 198c0 54 -40 77 -93 97v-208c66 9 93 52 93 111zM138 518c0 -50 37 -75 86 -94v191c-60 -9 -86 -49 -86 -97z" />
    <glyph glyph-name="cent" unicode="&#xa2;" horiz-adv-x="467" 
d="M20 250c0 155 57 244 170 257v143h88v-142c102 -9 164 -79 164 -194v-8h-97v8c0 58 -22 91 -67 100v-328c45 9 67 46 67 110v8h97v-8c0 -120 -61 -194 -164 -204v-142h-88v143c-113 13 -170 102 -170 257zM117 250c0 -100 22 -150 73 -163v326c-51 -13 -73 -64 -73 -163z
" />
    <glyph glyph-name="sterling" unicode="&#xa3;" horiz-adv-x="551" 
d="M81 96c48 0 70 26 70 124v52h-51v92h51v147c0 115 51 201 178 201c125 0 181 -74 181 -243v-18h-100v18c0 109 -17 147 -81 147c-55 0 -78 -41 -78 -105v-147h124v-92h-124v-52c0 -54 -13 -96 -40 -124h299v-96h-444v96h15z" />
    <glyph glyph-name="yen" unicode="&#xa5;" horiz-adv-x="498" 
d="M370 700h108l-126 -357h81v-99h-122v-23h107v-152h-107v-53h-128v53h-104v152h104v23h-118v99h79l-124 357h108l92 -260l27 -97h2l26 97z" />
    <glyph glyph-name="Euro" unicode="&#x20ac;" horiz-adv-x="585" 
d="M305 712c141 0 248 -96 248 -280v-15h-102v15c0 120 -63 184 -146 184c-75 0 -125 -49 -148 -135h204l-33 -96h-185c-1 -11 -1 -23 -1 -35v-25h166l-33 -96h-120c22 -92 72 -145 150 -145c83 0 147 70 147 195v18h102v-18c0 -191 -105 -291 -249 -291
c-135 0 -225 85 -254 241h-50v96h40v25c0 12 0 24 1 35h-41v96h52c31 150 120 231 252 231z" />
    <glyph glyph-name="uni20B4" unicode="&#x20b4;" horiz-adv-x="526" 
d="M50 155c0 25 8 50 26 70h-59v96h485v-96h-274c-55 0 -78 -35 -78 -70c0 -38 34 -71 111 -71c78 0 112 35 112 70v13h100v-13c0 -87 -64 -166 -212 -166c-147 0 -211 77 -211 167zM473 545c0 -25 -8 -48 -25 -68h54v-96h-485v96h278c54 0 78 33 78 68c0 38 -34 71 -112 71
c-77 0 -111 -35 -111 -70v-13h-100v13c0 87 64 166 211 166c148 0 212 -77 212 -167z" />
    <glyph glyph-name="uni20B8" unicode="&#x20b8;" horiz-adv-x="482" 
d="M19 424v96h444v-96h-171v-424h-101v424h-172zM463 604h-444v96h444v-96z" />
    <glyph glyph-name="asciicircum" unicode="^" horiz-adv-x="416" 
d="M388 387v-18h-99l-60 133l-19 60h-3l-19 -60l-60 -133h-99v18l150 313h58z" />
    <glyph glyph-name="acute" unicode="&#xb4;" horiz-adv-x="205" 
d="M30 577l57 173h106l-86 -173h-77z" />
    <glyph glyph-name="grave" unicode="`" horiz-adv-x="202" 
d="M180 577h-77l-85 173h105z" />
    <glyph glyph-name="hungarumlaut" unicode="&#x2dd;" horiz-adv-x="441" 
d="M128 577h-77l40 173h106zM301 577h-77l57 173h105z" />
    <glyph glyph-name="circumflex" unicode="&#x2c6;" horiz-adv-x="392" 
d="M143 577h-118l134 173h69l133 -173h-117l-51 77z" />
    <glyph glyph-name="caron" unicode="&#x2c7;" horiz-adv-x="386" 
d="M243 750h118l-134 -173h-69l-133 173h118l50 -77z" />
    <glyph glyph-name="breve" unicode="&#x2d8;" horiz-adv-x="436" 
d="M218 655c47 0 70 25 70 84v11h98v-11c0 -117 -64 -172 -168 -172s-168 55 -168 172v11h98v-11c0 -59 24 -84 70 -84z" />
    <glyph glyph-name="tilde" unicode="&#x2dc;" horiz-adv-x="468" 
d="M163 567c-67 0 -113 41 -113 153v30h96v-45c0 -33 9 -49 24 -49c34 0 50 104 129 104c67 0 113 -41 113 -153v-30h-96v45c0 33 -8 49 -23 49c-35 0 -50 -104 -130 -104z" />
    <glyph glyph-name="macron" unicode="&#xaf;" horiz-adv-x="422" 
d="M386 617h-336v92h336v-92z" />
    <glyph glyph-name="dieresis" unicode="&#xa8;" horiz-adv-x="448" 
d="M129 598c-44 0 -69 26 -69 70c0 45 25 71 69 71s70 -26 70 -71c0 -44 -28 -70 -70 -70zM320 598c-45 0 -69 26 -69 70c0 45 24 71 69 71c44 0 69 -26 69 -71c0 -44 -28 -70 -69 -70z" />
    <glyph glyph-name="dotaccent" unicode="&#x2d9;" horiz-adv-x="234" 
d="M117 598c-42 0 -64 24 -64 65s22 66 64 66c41 0 65 -25 65 -66s-26 -65 -65 -65z" />
    <glyph glyph-name="ring" unicode="&#x2da;" horiz-adv-x="368" 
d="M185 506c-84 0 -133 55 -133 159c0 105 49 159 133 159c83 0 132 -54 132 -159c0 -104 -49 -159 -132 -159zM185 588c32 0 51 24 51 77s-19 77 -51 77c-33 0 -52 -24 -52 -77s19 -77 52 -77z" />
    <glyph glyph-name="cedilla" unicode="&#xb8;" horiz-adv-x="247" 
d="M101 -95c0 24 -6 36 -29 36h-23v97h85v-58c49 -17 62 -54 62 -97c0 -78 -48 -105 -118 -105c-15 0 -33 1 -51 6v90c10 -3 19 -4 35 -4c25 0 39 7 39 35z" />
    <glyph glyph-name="ogonek" unicode="&#x2db;" horiz-adv-x="245" 
d="M143 42l11 -42c-29 -10 -44 -35 -44 -70c0 -39 21 -52 45 -52c15 0 23 1 33 4v-93c-15 -4 -27 -6 -49 -6c-71 0 -119 35 -119 122c0 67 47 116 123 137z" />
    <glyph glyph-name="copyright" unicode="&#xa9;" horiz-adv-x="795" 
d="M398 -124c174 0 263 135 263 374c0 237 -91 374 -263 374c-178 0 -264 -137 -264 -374s86 -374 264 -374zM398 -212c-238 0 -356 164 -356 462s118 462 356 462c230 0 355 -164 355 -462s-127 -462 -355 -462zM401 416c-73 0 -103 -49 -103 -166c0 -118 30 -166 103 -166
c61 0 91 38 91 112v8h97v-8c0 -129 -71 -205 -188 -205c-133 0 -200 91 -200 259s67 259 200 259c116 0 188 -71 188 -195v-8h-97v8c0 67 -30 102 -91 102z" />
    <glyph glyph-name="uni24C5" unicode="&#x24c5;" horiz-adv-x="794" 
d="M347 148v-148h-98v500h178c105 0 158 -67 158 -176c0 -111 -53 -176 -158 -176h-80zM347 408v-168h80c40 0 60 30 60 84c0 53 -20 84 -60 84h-80zM397 -124c174 0 263 135 263 374c0 237 -90 374 -263 374c-178 0 -263 -137 -263 -374s85 -374 263 -374zM397 -212
c-238 0 -355 164 -355 462s117 462 355 462c230 0 355 -164 355 -462s-126 -462 -355 -462z" />
    <glyph glyph-name="registered" unicode="&#xae;" horiz-adv-x="795" 
d="M753 250c0 -298 -127 -462 -355 -462c-238 0 -356 164 -356 462s118 462 356 462c230 0 355 -164 355 -462zM134 250c0 -237 86 -374 264 -374c174 0 263 135 263 374c0 237 -91 374 -263 374c-178 0 -264 -137 -264 -374zM570 324c0 -67 -25 -115 -72 -139l80 -185h-105
l-67 158h-74v-158h-97v500h177c106 0 158 -67 158 -176zM473 324c0 53 -20 84 -61 84h-80v-168h80c41 0 61 30 61 84z" />
    <glyph glyph-name="trademark" unicode="&#x2122;" horiz-adv-x="696" 
d="M111 618h-81v82h364l73 -192l73 192h116v-351h-85v233l-72 -191h-65l-73 189v-231h-83v269h-83v-269h-84v269z" />
    <glyph glyph-name="degree" unicode="&#xb0;" horiz-adv-x="315" 
d="M158 474c32 0 52 24 52 77s-20 77 -52 77c-35 0 -53 -24 -53 -77s18 -77 53 -77zM158 392c-90 0 -136 55 -136 159c0 105 46 159 136 159c86 0 135 -54 135 -159c0 -104 -49 -159 -135 -159z" />
    <glyph glyph-name="uniF6C3" unicode="&#xf6c3;" horiz-adv-x="202" 
d="M95 781h64v-129c0 -39 -20 -63 -58 -63c-37 0 -59 24 -59 63c0 19 7 46 22 70z" />
    <glyph glyph-name="uniF6C9" unicode="&#xf6c9;" horiz-adv-x="237" 
d="M42 780l46 219h122l-83 -219h-85z" />
    <glyph glyph-name="uniF6CA" unicode="&#xf6ca;" horiz-adv-x="506" 
d="M214 780l-164 219h113l90 -119l90 119h113l-164 -219h-78z" />
    <glyph glyph-name="uniF6CB" unicode="&#xf6cb;" horiz-adv-x="508" 
d="M365 821c-41 0 -64 25 -64 68c0 44 23 69 64 69s66 -25 66 -69c0 -43 -25 -68 -66 -68zM142 821c-42 0 -65 25 -65 68c0 44 23 69 65 69c40 0 65 -25 65 -69c0 -43 -25 -68 -65 -68z" />
    <glyph glyph-name="uniF6CE" unicode="&#xf6ce;" horiz-adv-x="237" 
d="M210 780h-85l-83 219h122z" />
    <glyph glyph-name="uniF6CF" unicode="&#xf6cf;" horiz-adv-x="520" 
d="M144 780h-85l48 219h123zM354 780h-86l65 219h123z" />
    <glyph glyph-name="uniF6D0" unicode="&#xf6d0;" horiz-adv-x="506" 
d="M439 841h-372v96h372v-96z" />
    <glyph glyph-name="uni20BD" unicode="&#x20bd;" horiz-adv-x="502" 
d="M462 486c0 -140 -72 -214 -195 -214h-99v-63h237v-96h-237v-113h-101v113h-67v96h67v63h-67v96h67v332h200c123 0 195 -74 195 -214zM362 486c0 80 -34 118 -95 118h-99v-236h99c61 0 95 38 95 118z" />
    <glyph glyph-name="Breve" horiz-adv-x="506" 
d="M253 866c70 0 102 40 102 118v15h101v-15c0 -137 -72 -214 -203 -214s-203 77 -203 214v15h101v-15c0 -78 33 -118 102 -118z" />
    <glyph glyph-name="Cedilla" horiz-adv-x="268" 
d="M131 -101c0 23 -8 33 -33 33h-28v115h99v-66c47 -14 61 -55 61 -101c0 -81 -52 -117 -126 -117c-18 0 -38 2 -59 7v96c14 -4 30 -6 44 -6c30 0 42 10 42 39z" />
    <glyph glyph-name="Circumflex" horiz-adv-x="506" 
d="M158 780h-108l164 219h78l164 -219h-108l-95 136z" />
    <glyph glyph-name="Dotaccent" horiz-adv-x="284" 
d="M142 821c-42 0 -65 25 -65 68c0 44 23 69 65 69c40 0 65 -25 65 -69c0 -43 -25 -68 -65 -68z" />
    <glyph glyph-name="Ogonek" horiz-adv-x="272" 
d="M198 46l16 -46c-31 -15 -45 -44 -45 -86c0 -37 20 -54 45 -54c19 0 29 2 41 6v-96c-21 -5 -41 -7 -59 -7c-75 0 -126 34 -126 119c0 87 48 139 128 164z" />
    <glyph glyph-name="Tilde" horiz-adv-x="507" 
d="M336 1009c82 0 137 -42 137 -184v-45h-99v65c0 47 -14 64 -38 64c-42 0 -69 -139 -165 -139c-82 0 -137 42 -137 184v45h99v-65c0 -47 14 -65 38 -65c42 0 64 140 165 140z" />
    <glyph glyph-name="idotaccent" horiz-adv-x="234" 
d="M165 500v-500h-97v500h97zM118 598c-42 0 -65 24 -65 65s23 66 65 66c41 0 64 -25 64 -66s-25 -65 -64 -65z" />
    <glyph glyph-name="undercommaaccent" horiz-adv-x="200" 
d="M105 -258h-65v129c0 39 21 63 58 63c38 0 60 -24 60 -63c0 -19 -7 -46 -22 -70z" />
    <glyph glyph-name="hyphen.uc" horiz-adv-x="384" 
d="M322 405v-96h-259v96h259z" />
    <glyph glyph-name="endash.uc" horiz-adv-x="457" 
d="M34 305v103h390v-103h-390z" />
    <glyph glyph-name="emdash.uc" horiz-adv-x="608" 
d="M25 305v103h558v-103h-558z" />
    <glyph glyph-name="guillemotleft.uc" horiz-adv-x="482" 
d="M140 348l74 -90v-127h-6l-183 219l183 218h6v-127l-74 -91v-2zM352 348l74 -90v-127h-6l-182 219l182 218h6v-127l-74 -91v-2z" />
    <glyph glyph-name="guillemotright.uc" horiz-adv-x="482" 
d="M56 258l74 90v2l-74 91v127h6l183 -218l-183 -219h-6v127zM268 258l74 90v2l-74 91v127h6l183 -218l-183 -219h-6v127z" />
    <glyph glyph-name="at.uc" horiz-adv-x="794" 
d="M752 350c0 -297 -126 -462 -355 -462c-238 0 -355 165 -355 462c0 298 117 462 355 462c230 0 355 -164 355 -462zM134 350c0 -237 85 -374 263 -374c174 0 263 135 263 374c0 237 -90 374 -263 374c-178 0 -263 -137 -263 -374zM408 609c106 0 170 -51 170 -157v-352
h-97v55c-25 -40 -64 -64 -117 -64c-87 0 -140 57 -140 150c0 94 55 149 145 149h112v62c0 48 -26 65 -73 65c-49 0 -74 -17 -74 -65v-12h-97v12c0 103 64 157 171 157zM322 244c0 -41 19 -61 54 -61c64 0 105 28 105 94v30h-100c-38 0 -59 -20 -59 -63z" />
    <glyph glyph-name="exclamdown.uc" horiz-adv-x="257" 
d="M179 0h-100l1 518h98zM67 647c0 41 21 65 61 65s62 -24 62 -65c0 -42 -22 -66 -62 -66s-61 24 -61 66z" />
    <glyph glyph-name="questiondown.uc" horiz-adv-x="507" 
d="M52 197c0 100 54 168 149 187v134h101v-211h-39c-71 0 -111 -42 -111 -110c0 -70 36 -110 101 -110c67 0 102 36 102 100v45h100v-45c0 -126 -75 -199 -202 -199c-126 0 -201 77 -201 209zM252 712c40 0 61 -24 61 -65c0 -42 -21 -66 -61 -66s-62 24 -62 66
c0 41 22 65 62 65z" />
    <glyph glyph-name="uni0414.bgr" horiz-adv-x="603" 
d="M585 96v-295h-101v199h-364v-199h-101v295h54l166 604h129l166 -604h51zM178 96h248l-110 404l-13 80h-3l-13 -80z" />
    <glyph glyph-name="uni0416.bgr" horiz-adv-x="811" 
d="M655 700h113l-148 -332l167 -368h-112l-141 320h-78v-320h-101v320h-79l-141 -320h-112l168 370l-148 330h113l121 -284h78v284h101v-284h78z" />
    <glyph glyph-name="uni041A.bgr" horiz-adv-x="538" 
d="M68 0v700h100v-294h68l151 294h113l-178 -341l188 -359h-116l-159 310h-67v-310h-100z" />
    <glyph glyph-name="uni041B.bgr" horiz-adv-x="532" 
d="M201 700h130l177 -700h-105l-115 464l-23 119h-2l-22 -119l-115 -464h-102z" />
    <glyph glyph-name="uni0432.bgr" horiz-adv-x="481" 
d="M251 -10c-115 0 -184 72 -184 206v342c0 160 65 222 178 222c109 0 177 -62 177 -222c0 -81 -23 -142 -73 -175c56 -32 87 -97 87 -167c0 -134 -69 -206 -185 -206zM245 666c-54 0 -81 -25 -81 -128v-138h78c64 0 83 50 83 138c0 103 -27 128 -80 128zM338 196
c0 73 -23 120 -71 120h-103v-120c0 -77 32 -112 87 -112c59 0 87 35 87 112z" />
    <glyph glyph-name="uni0433.bgr" horiz-adv-x="434" 
d="M140 141c0 -33 16 -57 78 -57c51 0 77 20 77 70v19h97v-19c0 -103 -63 -163 -174 -163c-122 0 -175 69 -175 150c0 183 247 124 247 220c0 31 -15 55 -74 55c-49 0 -72 -18 -72 -68v-14h-97v14c0 103 59 161 169 161c120 0 171 -70 171 -148c0 -183 -247 -124 -247 -220z
" />
    <glyph glyph-name="uni0434.bgr" horiz-adv-x="501" 
d="M39 250c0 169 61 259 183 259c54 0 91 -21 115 -61v52h97v-559c0 -141 -65 -199 -197 -199c-133 0 -198 58 -198 199h97c0 -76 33 -106 101 -106s100 30 100 106v111c-24 -40 -61 -61 -115 -61c-122 0 -183 91 -183 259zM238 84c66 0 99 51 99 141v50
c0 90 -33 141 -99 141c-72 0 -102 -48 -102 -166c0 -117 30 -166 102 -166z" />
    <glyph glyph-name="uni0436.bgr" horiz-adv-x="651" 
d="M28 0l117 259l-108 241h103l87 -200h50v450h97v-450h51l87 200h103l-108 -240l117 -260h-108l-90 208h-52v-208h-97v208h-51l-90 -208h-108z" />
    <glyph glyph-name="uni0437.bgr" horiz-adv-x="433" 
d="M215 416c-69 0 -86 -38 -86 -105v-31h-97v31c0 116 56 198 183 198s183 -81 183 -200c0 -75 -20 -126 -65 -155c49 -32 71 -93 71 -183c0 -139 -58 -231 -189 -231s-189 92 -189 231v34h97v-34c0 -83 19 -137 92 -137s92 52 92 137c0 79 -20 138 -92 138h-65v92h65
c70 0 86 41 86 108c0 69 -17 107 -86 107z" />
    <glyph glyph-name="uni0438.bgr" 
d="M329 51c-23 -39 -59 -60 -110 -60c-105 0 -155 66 -155 205v304h97v-304c0 -76 23 -112 76 -112c61 0 92 51 92 141v275h97v-500h-97v51z" />
    <glyph glyph-name="uni0439.bgr" 
d="M329 51c-23 -39 -59 -60 -110 -60c-105 0 -155 66 -155 205v304h97v-304c0 -76 23 -112 76 -112c61 0 92 51 92 141v275h97v-500h-97v51zM176 739c0 -59 24 -84 70 -84c47 0 70 25 70 84v11h98v-11c0 -117 -64 -172 -168 -172s-167 55 -167 172v11h97v-11z" />
    <glyph glyph-name="uni043A.bgr" horiz-adv-x="456" 
d="M164 0h-97v750h97v-449h55l98 199h107l-125 -246l136 -254h-109l-107 209h-55v-209z" />
    <glyph glyph-name="uni043B.bgr" horiz-adv-x="424" 
d="M268 500l144 -500h-96l-79 281l-23 110h-4l-24 -110l-79 -281h-95l144 500h112z" />
    <glyph glyph-name="uni043C.bgr" horiz-adv-x="733" 
d="M167 452c22 38 56 57 103 57c56 0 95 -20 119 -62c28 41 71 62 132 62c100 0 148 -66 148 -205v-304h-97v304c0 77 -21 113 -69 113c-56 0 -85 -51 -85 -142v-275h-97v304c0 77 -21 113 -69 113c-56 0 -85 -51 -85 -142v-275h-97v500h97v-48z" />
    <glyph glyph-name="uni043F.bgr" 
d="M164 449c23 40 60 60 111 60c104 0 154 -64 154 -205v-304h-97v304c0 79 -24 113 -76 113c-61 0 -92 -46 -92 -142v-275h-97v500h97v-51z" />
    <glyph glyph-name="uni0446.bgr" horiz-adv-x="506" 
d="M329 51c-23 -39 -59 -60 -110 -60c-105 0 -155 66 -155 205v304h97v-304c0 -76 23 -112 76 -112c61 0 92 51 92 141v275h97v-408h50v-241h-97v149h-50v51z" />
    <glyph glyph-name="uni0448.bgr" horiz-adv-x="733" 
d="M575 48c-22 -37 -56 -57 -103 -57c-56 0 -95 20 -119 63c-28 -41 -71 -63 -132 -63c-100 0 -148 66 -148 205v304h97v-304c0 -76 21 -113 70 -113c56 0 84 51 84 142v275h97v-304c0 -76 21 -113 70 -113c56 0 84 51 84 142v275h97v-500h-97v48z" />
    <glyph glyph-name="uni0449.bgr" horiz-adv-x="744" 
d="M566 39c-22 -32 -54 -48 -97 -48c-56 0 -95 20 -119 63c-28 -41 -71 -63 -132 -63c-100 0 -148 66 -148 205v304h97v-304c0 -76 21 -113 70 -113c56 0 84 51 84 142v275h97v-304c0 -76 21 -113 70 -113c56 0 84 51 84 142v275h97v-408h44v-241h-97v149h-50v39z" />
    <glyph glyph-name="uni044A.bgr" horiz-adv-x="471" 
d="M201 250v-84c0 -59 23 -83 70 -83s70 24 70 83c0 54 -19 84 -60 84h-80zM104 408h-98v92h195v-158h80c106 0 158 -65 158 -176c0 -116 -56 -176 -168 -176c-111 0 -167 60 -167 176v242z" />
    <glyph glyph-name="uni044B.bgr" horiz-adv-x="622" 
d="M164 250v-84c0 -59 24 -83 71 -83s70 24 70 83c0 54 -20 84 -60 84h-81zM67 166v334h97v-158h81c105 0 158 -65 158 -176c0 -116 -56 -176 -168 -176s-168 60 -168 176zM555 500v-500h-97v500h97z" />
    <glyph glyph-name="uni044C.bgr" horiz-adv-x="435" 
d="M164 250v-84c0 -59 24 -83 71 -83s70 24 70 83c0 54 -20 84 -60 84h-81zM67 166v334h97v-158h81c105 0 158 -65 158 -176c0 -116 -56 -176 -168 -176s-168 60 -168 176z" />
    <glyph glyph-name="uni044E.bgr" horiz-adv-x="667" 
d="M242 299c12 138 76 210 194 210c132 0 196 -89 196 -259s-64 -259 -196 -259c-119 0 -184 74 -194 216h-78v-207h-97v750h97v-451h78zM337 250c0 -111 32 -166 99 -166c68 0 99 55 99 166s-31 166 -99 166c-67 0 -99 -55 -99 -166z" />
    <glyph glyph-name="uni04C1" unicode="&#x4c1;" horiz-adv-x="811" 
d="M655 700h113l-148 -332l167 -368h-112l-141 320h-78v-320h-101v320h-79l-141 -320h-112l168 370l-148 330h113l121 -284h78v284h101v-284h78zM303 984c0 -78 33 -118 102 -118s102 40 102 118v15h100v-15c0 -137 -72 -214 -202 -214c-131 0 -203 77 -203 214v15h101v-15z
" />
    <glyph glyph-name="uni04E2" unicode="&#x4e2;" horiz-adv-x="601" 
d="M376 700h157v-700h-100v500l2 94h-2l-207 -594h-158v700h100v-500l-2 -93h2zM486 841h-371v96h371v-96z" />
    <glyph glyph-name="uni04E6" unicode="&#x4e6;" horiz-adv-x="600" 
d="M452 350c0 165 -52 265 -153 265s-154 -100 -154 -265s53 -264 154 -264s153 99 153 264zM45 350c0 240 92 361 254 361c161 0 254 -121 254 -361c0 -239 -93 -361 -254 -361c-162 0 -254 122 -254 361zM412 821c-42 0 -65 25 -65 68c0 44 23 69 65 69
c40 0 65 -25 65 -69c0 -43 -25 -68 -65 -68zM188 821c-41 0 -65 25 -65 68c0 44 24 69 65 69c40 0 65 -25 65 -69c0 -43 -25 -68 -65 -68z" />
    <glyph glyph-name="uni04EE" unicode="&#x4ee;" horiz-adv-x="491" 
d="M129 700l107 -285l24 -83h2l23 83l95 285h101l-168 -502c-59 -178 -94 -202 -192 -202h-13v99h13c36 0 67 8 92 105l-191 500h107zM438 841h-372v96h372v-96z" />
    <glyph glyph-name="uni04F2" unicode="&#x4f2;" horiz-adv-x="491" 
d="M124 700l107 -285l25 -83h2l23 83l95 285h101l-169 -502c-58 -178 -93 -202 -192 -202h-13v99h13c36 0 67 8 92 105l-190 500h106zM170 780h-86l49 219h122zM379 780h-85l65 219h122z" />
    </font>
</defs>
</svg>
