<?xml version="1.0" standalone="no"?>
<!DOCTYPE svg PUBLIC "-//W3C//DTD SVG 1.1//EN" "http://www.w3.org/Graphics/SVG/1.1/DTD/svg11.dtd" >
<svg xmlns="http://www.w3.org/2000/svg" xmlns:xlink="http://www.w3.org/1999/xlink" version="1.1">
<metadata>
Created by FontForge 20190801 at Wed Nov  6 22:53:38 2019
 By Jimmy Wärting
\(c\) Nikita Kanarev Fonts, 2018
</metadata>
<defs>
<font id="Archaism-Ct2Wd50" horiz-adv-x="397" >
  <font-face 
    font-family="Archaism"
    font-weight="650"
    font-stretch="normal"
    units-per-em="1000"
    panose-1="0 0 0 0 0 0 0 0 0 0"
    ascent="750"
    descent="-250"
    x-height="500"
    cap-height="700"
    bbox="-106 -278 1048 1143"
    underline-thickness="50"
    underline-position="-100"
    stemh="116"
    stemv="35"
    unicode-range="U+000D-FB02"
  />
<missing-glyph horiz-adv-x="1068" 
d="M365 425l-59 -60s-3 -9 -10 -16c-33 -34 -89 -35 -126 -65c20 -27 77 -84 118 -118c24 43 23 104 51 131c2 3 5 4 9 4c7 0 15 -5 20 -8c1 -1 2 -1 4 -1s4 1 5 2l-21 21l59 60zM520 238c-35 36 -45 67 -45 67l-61 60l-49 -50l74 -74c45 -44 108 -88 150 -130
c33 -32 60 -68 68 -90l15 -8l40 40c-9 15 -29 39 -58 69c-57 56 -83 67 -134 116zM757 380l-49 49l-7 -5l50 -50zM572 200c17 13 33 27 121 115l-50 50l-60 -60s-11 -31 -50 -70c14 -15 27 -26 39 -35zM762 349c-7 7 -10 16 -10 16l-60 60l-50 -50l59 -60l-21 -21
c1 -1 3 -2 5 -2c1 0 2 0 3 1c5 3 14 8 21 8c4 0 7 -1 10 -4c27 -27 27 -88 51 -131c40 34 98 91 118 118c-38 30 -93 31 -126 65zM524 161l-39 32c-24 -20 -47 -38 -81 -71c-30 -30 -49 -54 -59 -69l41 -40l14 8c20 48 83 105 124 140zM350 429l-50 -49l6 -6l50 50z
M524 -278l-504 504v19l505 505h19l504 -504v-18l-505 -506h-19z" />
    <glyph glyph-name="fb" unicode="fb" horiz-adv-x="673" 
d="M68 555c0 115 50 195 136 195h162v-346c19 68 57 105 124 105c100 0 153 -100 153 -259c0 -160 -53 -259 -153 -259c-67 0 -105 37 -124 105v-96h-41v638h-121c-62 0 -96 -34 -96 -83v-55h120v-112h-120v-388h-40v388h-40v112h40v55zM483 396c-78 0 -117 -44 -117 -121
v-50c0 -77 39 -121 117 -121c83 0 120 42 120 146c0 103 -37 146 -120 146z" />
    <glyph glyph-name="fh" unicode="fh" horiz-adv-x="668" 
d="M68 555c0 115 50 195 136 195h162v-345c18 67 55 104 116 104c88 0 134 -71 134 -205v-304h-40v304c0 61 -35 93 -102 93c-71 0 -108 -44 -108 -122v-275h-41v638h-121c-62 0 -96 -34 -96 -83v-55h120v-112h-120v-388h-40v388h-40v112h40v55z" />
    <glyph glyph-name="fj" unicode="fj" horiz-adv-x="420" 
d="M216 760c93 0 150 -80 150 -195v-12h-41v12c0 49 -38 83 -109 83s-108 -34 -108 -83v-65h120v-112h-120v-388h-40v388h-40v112h40v65c0 115 55 195 148 195zM266 -257c-64 0 -100 65 -100 180h40c0 -50 21 -68 60 -68s59 21 59 71v574h41v-579c0 -116 -37 -178 -100 -178
z" />
    <glyph glyph-name="fk" unicode="fk" horiz-adv-x="638" 
d="M68 555c0 115 50 195 136 195h162v-439h51l112 189h83l-145 -245l154 -255h-51l-120 199h-84v-199h-41v638h-121c-62 0 -96 -34 -96 -83v-55h120v-112h-120v-388h-40v388h-40v112h40v55z" />
    <glyph glyph-name="ft" unicode="ft" horiz-adv-x="533" 
d="M398 104c47 0 73 15 73 65h40c0 -111 -41 -178 -113 -178s-113 62 -113 178v219h-177v-388h-40v388h-40v112h40v55c0 115 50 195 136 195h33v-112h-33c-62 0 -96 -34 -96 -83v-55h177l8 107h32v-107h141v-112h-141v-219c0 -50 26 -65 73 -65z" />
    <glyph glyph-name="fi" unicode="fi" horiz-adv-x="437" 
d="M216 760c93 0 150 -80 150 -195v-12h-41v12c0 49 -38 83 -109 83s-108 -34 -108 -83v-65h120v-112h-120v-388h-40v388h-40v112h40v65c0 115 55 195 148 195zM325 500h41v-500h-41v500z" />
    <glyph glyph-name="fl" unicode="fl" horiz-adv-x="413" 
d="M68 555c0 115 50 195 136 195h162v-750h-41v638h-121c-62 0 -96 -34 -96 -83v-55h120v-112h-120v-388h-40v388h-40v112h40v55z" />
    <glyph glyph-name=".notdef" horiz-adv-x="1068" 
d="M365 425l-59 -60s-3 -9 -10 -16c-33 -34 -89 -35 -126 -65c20 -27 77 -84 118 -118c24 43 23 104 51 131c2 3 5 4 9 4c7 0 15 -5 20 -8c1 -1 2 -1 4 -1s4 1 5 2l-21 21l59 60zM520 238c-35 36 -45 67 -45 67l-61 60l-49 -50l74 -74c45 -44 108 -88 150 -130
c33 -32 60 -68 68 -90l15 -8l40 40c-9 15 -29 39 -58 69c-57 56 -83 67 -134 116zM757 380l-49 49l-7 -5l50 -50zM572 200c17 13 33 27 121 115l-50 50l-60 -60s-11 -31 -50 -70c14 -15 27 -26 39 -35zM762 349c-7 7 -10 16 -10 16l-60 60l-50 -50l59 -60l-21 -21
c1 -1 3 -2 5 -2c1 0 2 0 3 1c5 3 14 8 21 8c4 0 7 -1 10 -4c27 -27 27 -88 51 -131c40 34 98 91 118 118c-38 30 -93 31 -126 65zM524 161l-39 32c-24 -20 -47 -38 -81 -71c-30 -30 -49 -54 -59 -69l41 -40l14 8c20 48 83 105 124 140zM350 429l-50 -49l6 -6l50 50z
M524 -278l-504 504v19l505 505h19l504 -504v-18l-505 -506h-19z" />
    <glyph glyph-name="uni0000" horiz-adv-x="0" 
 />
    <glyph glyph-name="uni0000" horiz-adv-x="0" 
 />
    <glyph glyph-name="uni000D" unicode="&#xd;" horiz-adv-x="250" 
 />
    <glyph glyph-name="space" unicode=" " horiz-adv-x="205" 
 />
    <glyph glyph-name="uni2009" unicode="&#x2009;" horiz-adv-x="50" 
 />
    <glyph glyph-name="A" unicode="A" horiz-adv-x="434" 
d="M345 124h-257l-23 -124h-44l134 700h121l137 -700h-44zM109 240h214l-51 260l-17 91h-79z" />
    <glyph glyph-name="Agrave" unicode="&#xc0;" horiz-adv-x="434" 
d="M345 124h-257l-23 -124h-44l134 700h121l137 -700h-44zM109 240h214l-51 260l-17 91h-79zM192 999l37 -219h-36l-100 219h99z" />
    <glyph glyph-name="Aacute" unicode="&#xc1;" horiz-adv-x="434" 
d="M345 124h-257l-23 -124h-44l134 700h121l137 -700h-44zM109 240h214l-51 260l-17 91h-79zM237 780h-37l23 219h98z" />
    <glyph glyph-name="Acircumflex" unicode="&#xc2;" horiz-adv-x="434" 
d="M345 124h-257l-23 -124h-44l134 700h121l137 -700h-44zM109 240h214l-51 260l-17 91h-79zM151 780h-97l148 219h33l148 -219h-96l-68 166z" />
    <glyph glyph-name="Atilde" unicode="&#xc3;" horiz-adv-x="434" 
d="M345 124h-257l-23 -124h-44l134 700h121l137 -700h-44zM167 886c56 0 56 123 135 123c63 0 96 -56 79 -206l-3 -23h-82l3 36c7 55 -9 77 -30 77c-56 0 -56 -123 -135 -123c-63 0 -95 56 -78 206l2 23h82l-2 -36c-8 -54 8 -77 29 -77zM109 240h214l-51 260l-17 91h-79z
" />
    <glyph glyph-name="Adieresis" unicode="&#xc4;" horiz-adv-x="434" 
d="M345 124h-257l-23 -124h-44l134 700h121l137 -700h-44zM109 240h214l-51 260l-17 91h-79zM355 889c0 -49 -21 -77 -53 -77c-33 0 -52 28 -52 77s19 77 52 77c32 0 53 -28 53 -77zM174 889c0 -49 -20 -77 -52 -77c-33 0 -52 28 -52 77s19 77 52 77c32 0 52 -28 52 -77z
" />
    <glyph glyph-name="Aring" unicode="&#xc5;" horiz-adv-x="434" 
d="M322 837c0 -64 -16 -111 -46 -137l137 -700h-44l-24 124h-257l-23 -124h-44l134 699c-30 26 -46 74 -46 138c0 100 38 159 106 159s107 -59 107 -159zM109 240h214l-51 260l-17 91h-79zM142 837c0 -38 26 -61 73 -61s74 23 74 61s-27 61 -74 61s-73 -23 -73 -61z" />
    <glyph glyph-name="Amacron" unicode="&#x100;" horiz-adv-x="434" 
d="M345 124h-257l-23 -124h-44l134 700h121l137 -700h-44zM109 240h214l-51 260l-17 91h-79zM367 947v-116h-300v116h300z" />
    <glyph glyph-name="Abreve" unicode="&#x102;" horiz-adv-x="434" 
d="M345 124h-257l-23 -124h-44l134 700h121l137 -700h-44zM109 240h214l-51 260l-17 91h-79zM96 984c0 -63 42 -98 121 -98c81 0 121 35 121 98v15h42v-15c0 -136 -62 -214 -163 -214c-102 0 -163 78 -163 214v15h42v-15z" />
    <glyph glyph-name="Aogonek" unicode="&#x104;" horiz-adv-x="433" 
d="M315 -117c0 63 14 108 49 138l-20 103h-256l-23 -124h-45l134 700h122l137 -700c-37 -13 -49 -39 -49 -71c0 -36 12 -50 39 -50c14 0 26 2 40 6v-115c-13 -4 -27 -6 -44 -6c-56 0 -84 45 -84 119zM109 240h213l-51 260l-16 91h-80l-16 -91z" />
    <glyph glyph-name="Aringacute" unicode="&#x1fa;" horiz-adv-x="434" 
d="M322 837c0 -64 -16 -111 -46 -137l137 -700h-44l-24 124h-257l-23 -124h-44l134 699c-30 26 -46 74 -46 138c0 94 33 151 94 158l26 148h85l-73 -150c52 -14 81 -70 81 -156zM109 240h214l-51 260l-17 91h-79zM142 837c0 -38 26 -61 73 -61s74 23 74 61s-27 61 -74 61
s-73 -23 -73 -61z" />
    <glyph glyph-name="B" unicode="B" horiz-adv-x="429" 
d="M388 210c0 -133 -55 -210 -153 -210h-180v700h181c99 0 145 -75 145 -201c0 -67 -19 -116 -61 -141c44 -27 68 -79 68 -148zM346 210c0 56 -38 89 -111 89h-138v-183h138c73 0 111 34 111 94zM339 499c0 52 -24 85 -103 85h-139v-169h139c79 0 103 31 103 84z" />
    <glyph glyph-name="C" unicode="C" horiz-adv-x="476" 
d="M437 417h-42v15c0 107 -68 164 -152 164c-106 0 -164 -93 -164 -246s58 -246 164 -246c84 0 152 63 152 175v18h43v-18c0 -186 -85 -291 -195 -291c-129 0 -206 134 -206 362s77 362 206 362c109 0 194 -101 194 -280v-15z" />
    <glyph glyph-name="Ccedilla" unicode="&#xc7;" horiz-adv-x="476" 
d="M243 712c109 0 194 -101 194 -280v-15h-42v15c0 107 -68 164 -152 164c-106 0 -164 -93 -164 -246s58 -246 164 -246c84 0 152 63 152 175v18h43v-18c0 -175 -75 -278 -175 -290v-8c59 -10 66 -58 66 -101c0 -71 -29 -117 -101 -117c-18 0 -33 3 -45 7v115
c19 -5 36 -6 53 -6c36 0 44 9 44 29c0 16 -7 28 -41 28h-15v53c-118 13 -187 144 -187 361c0 228 77 362 206 362z" />
    <glyph glyph-name="Cacute" unicode="&#x106;" horiz-adv-x="476" 
d="M437 417h-42v15c0 107 -68 164 -152 164c-106 0 -164 -93 -164 -246s58 -246 164 -246c84 0 152 63 152 175v18h43v-18c0 -186 -85 -291 -195 -291c-129 0 -206 134 -206 362s77 362 206 362c109 0 194 -101 194 -280v-15zM221 780l22 219h99l-85 -219h-36z" />
    <glyph glyph-name="Ccircumflex" unicode="&#x108;" horiz-adv-x="476" 
d="M243 712c109 0 194 -101 194 -280v-15h-42v15c0 107 -68 164 -152 164c-106 0 -164 -93 -164 -246s58 -246 164 -246c84 0 152 63 152 175v18h43v-18c0 -186 -85 -291 -195 -291c-129 0 -206 134 -206 362s77 362 206 362zM170 780h-97l148 219h33l148 -219h-97l-67 166z
" />
    <glyph glyph-name="Cdotaccent" unicode="&#x10a;" horiz-adv-x="476" 
d="M437 417h-42v15c0 107 -68 164 -152 164c-106 0 -164 -93 -164 -246s58 -246 164 -246c84 0 152 63 152 175v18h43v-18c0 -186 -85 -291 -195 -291c-129 0 -206 134 -206 362s77 362 206 362c109 0 194 -101 194 -280v-15zM235 812c-33 0 -52 28 -52 77s19 77 52 77
s53 -28 53 -77s-20 -77 -53 -77z" />
    <glyph glyph-name="Ccaron" unicode="&#x10c;" horiz-adv-x="476" 
d="M243 712c109 0 194 -101 194 -280v-15h-42v15c0 107 -68 164 -152 164c-106 0 -164 -93 -164 -246s58 -246 164 -246c84 0 152 63 152 175v18h43v-18c0 -186 -85 -291 -195 -291c-129 0 -206 134 -206 362s77 362 206 362zM221 780l-148 219h97l68 -165l67 165h97
l-148 -219h-33z" />
    <glyph glyph-name="D" unicode="D" horiz-adv-x="466" 
d="M55 700h168c129 0 206 -130 206 -350s-77 -350 -206 -350h-168v700zM223 584h-126v-468h126c106 0 164 87 164 234c0 145 -58 234 -164 234z" />
    <glyph glyph-name="Dcaron" unicode="&#x10e;" horiz-adv-x="466" 
d="M429 350c0 -220 -77 -350 -206 -350h-168v700h168c129 0 206 -130 206 -350zM387 350c0 145 -58 234 -164 234h-126v-468h126c106 0 164 87 164 234zM223 780l-148 219h97l68 -165l68 165h96l-148 -219h-33z" />
    <glyph glyph-name="E" unicode="E" horiz-adv-x="390" 
d="M55 0v700h297v-116h-255v-170h244v-116h-244v-182h255v-116h-297z" />
    <glyph glyph-name="Egrave" unicode="&#xc8;" horiz-adv-x="386" 
d="M55 0v700h297v-116h-255v-170h244v-116h-244v-182h255v-116h-297zM226 780h-37l-99 219h98z" />
    <glyph glyph-name="Eacute" unicode="&#xc9;" horiz-adv-x="386" 
d="M55 0v700h297v-116h-255v-170h244v-116h-244v-182h255v-116h-297zM190 780l22 219h99l-85 -219h-36z" />
    <glyph glyph-name="Ecircumflex" unicode="&#xca;" horiz-adv-x="389" 
d="M354 0h-297v700h297v-116h-255v-170h244v-116h-244v-182h255v-116zM139 780h-97l148 219h33l148 -219h-97l-67 166z" />
    <glyph glyph-name="Edieresis" unicode="&#xcb;" horiz-adv-x="386" 
d="M55 0v700h297v-116h-255v-170h244v-116h-244v-182h255v-116h-297zM295 812c-34 0 -52 28 -52 77s18 77 52 77c32 0 52 -28 52 -77s-20 -77 -52 -77zM114 812c-33 0 -52 28 -52 77s19 77 52 77s53 -28 53 -77s-20 -77 -53 -77z" />
    <glyph glyph-name="Emacron" unicode="&#x112;" horiz-adv-x="386" 
d="M55 0v700h297v-116h-255v-170h244v-116h-244v-182h255v-116h-297zM352 831h-299v116h299v-116z" />
    <glyph glyph-name="Ebreve" unicode="&#x114;" horiz-adv-x="386" 
d="M55 0v700h297v-116h-255v-170h244v-116h-244v-182h255v-116h-297zM203 886c80 0 121 35 121 98v15h42v-15c0 -136 -62 -214 -163 -214c-102 0 -164 78 -164 214v15h42v-15c0 -63 43 -98 122 -98z" />
    <glyph glyph-name="Edotaccent" unicode="&#x116;" horiz-adv-x="386" 
d="M55 0v700h297v-116h-255v-170h244v-116h-244v-182h255v-116h-297zM205 812c-33 0 -52 28 -52 77s19 77 52 77s53 -28 53 -77s-20 -77 -53 -77z" />
    <glyph glyph-name="Eogonek" unicode="&#x118;" horiz-adv-x="386" 
d="M254 -117c0 50 9 88 30 117h-229v700h297v-116h-255v-170h244v-116h-244v-182h255v-116c-37 -13 -49 -39 -49 -71c0 -36 12 -50 39 -50c14 0 26 2 40 6v-115c-13 -4 -27 -6 -44 -6c-56 0 -84 45 -84 119z" />
    <glyph glyph-name="Ecaron" unicode="&#x11a;" horiz-adv-x="389" 
d="M352 0h-297v700h297v-116h-255v-170h244v-116h-244v-182h255v-116zM190 780l-148 219h97l68 -165l67 165h97l-148 -219h-33z" />
    <glyph glyph-name="F" unicode="F" horiz-adv-x="380" 
d="M97 0h-42v700h297v-116h-255v-170h244v-116h-244v-298z" />
    <glyph glyph-name="G" unicode="G" horiz-adv-x="486" 
d="M243 104c85 0 155 33 155 94v9h-160v116h202v-323h-42v99c-27 -73 -85 -111 -155 -111c-129 0 -206 134 -206 362s77 362 206 362c108 0 193 -101 193 -280v-15h-42v15c0 107 -67 164 -151 164c-106 0 -164 -93 -164 -246s58 -246 164 -246z" />
    <glyph glyph-name="Gcircumflex" unicode="&#x11c;" horiz-adv-x="485" 
d="M243 104c85 0 155 33 155 94v9h-160v116h202v-323h-42v99c-27 -73 -85 -111 -155 -111c-129 0 -206 134 -206 362s77 362 206 362c108 0 193 -101 193 -280v-15h-42v15c0 107 -67 164 -151 164c-106 0 -164 -93 -164 -246s58 -246 164 -246zM169 780h-97l148 219h33
l148 -219h-97l-67 166z" />
    <glyph glyph-name="Gbreve" unicode="&#x11e;" horiz-adv-x="485" 
d="M243 104c85 0 155 33 155 94v9h-160v116h202v-323h-42v99c-27 -73 -85 -111 -155 -111c-129 0 -206 134 -206 362s77 362 206 362c108 0 193 -101 193 -280v-15h-42v15c0 107 -67 164 -151 164c-106 0 -164 -93 -164 -246s58 -246 164 -246zM116 984
c0 -63 42 -98 121 -98c81 0 121 35 121 98v15h42v-15c0 -136 -62 -214 -163 -214c-102 0 -163 78 -163 214v15h42v-15z" />
    <glyph glyph-name="Gdotaccent" unicode="&#x120;" horiz-adv-x="485" 
d="M243 104c85 0 155 33 155 94v9h-160v116h202v-323h-42v99c-27 -73 -85 -111 -155 -111c-129 0 -206 134 -206 362s77 362 206 362c108 0 193 -101 193 -280v-15h-42v15c0 107 -67 164 -151 164c-106 0 -164 -93 -164 -246s58 -246 164 -246zM291 889
c0 -49 -20 -77 -53 -77s-52 28 -52 77s19 77 52 77s53 -28 53 -77z" />
    <glyph glyph-name="uni0122" unicode="&#x122;" horiz-adv-x="485" 
d="M243 104c85 0 155 33 155 94v9h-160v116h202v-323h-42v99c-27 -73 -85 -111 -155 -111c-129 0 -206 134 -206 362s77 362 206 362c108 0 193 -101 193 -280v-15h-42v15c0 107 -67 164 -151 164c-106 0 -164 -93 -164 -246s58 -246 164 -246zM287 -129
c0 -17 -3 -41 -17 -65l-35 -57h-32l-9 120c-4 43 15 71 46 71c29 0 47 -26 47 -69z" />
    <glyph glyph-name="H" unicode="H" horiz-adv-x="468" 
d="M413 0h-42v299h-274v-299h-42v700h42v-285h274v285h42v-700z" />
    <glyph glyph-name="Hcircumflex" unicode="&#x124;" horiz-adv-x="466" 
d="M413 700v-700h-42v299h-274v-299h-42v700h42v-285h274v285h42zM168 780h-97l148 219h33l148 -219h-97l-67 166z" />
    <glyph glyph-name="I" unicode="I" horiz-adv-x="220" 
d="M54 0v116h35v468h-35v116h112v-116h-35v-468h35v-116h-112z" />
    <glyph glyph-name="Igrave" unicode="&#xcc;" horiz-adv-x="220" 
d="M54 0v116h35v468h-35v116h112v-116h-35v-468h35v-116h-112zM127 780h-37l-100 219h99z" />
    <glyph glyph-name="Iacute" unicode="&#xcd;" horiz-adv-x="220" 
d="M54 0v116h35v468h-35v116h112v-116h-35v-468h35v-116h-112zM89 780l23 219h98l-84 -219h-37z" />
    <glyph glyph-name="Icircumflex" unicode="&#xce;" horiz-adv-x="220" 
d="M166 0h-112v116h35v468h-35v116h112v-116h-35v-468h35v-116zM66 780h-96l124 219h33l123 -219h-96l-44 170z" />
    <glyph glyph-name="Idieresis" unicode="&#xcf;" horiz-adv-x="220" 
d="M54 0v116h35v468h-35v116h112v-116h-35v-468h35v-116h-112zM185 812c-34 0 -52 28 -52 77s18 77 52 77c32 0 52 -28 52 -77s-20 -77 -52 -77zM35 812c-33 0 -52 28 -52 77s19 77 52 77s53 -28 53 -77s-20 -77 -53 -77z" />
    <glyph glyph-name="Itilde" unicode="&#x128;" horiz-adv-x="220" 
d="M54 0v116h35v468h-35v116h112v-116h-35v-468h35v-116h-112zM183 1009c59 0 91 -56 74 -206l-3 -23h-77l3 36c7 55 -9 77 -30 77c-37 0 -48 -123 -115 -123c-59 0 -91 57 -74 206l3 23h77l-2 -36c-8 -54 8 -77 29 -77c37 0 48 123 115 123z" />
    <glyph glyph-name="Imacron" unicode="&#x12a;" horiz-adv-x="220" 
d="M54 0v116h35v468h-35v116h112v-116h-35v-468h35v-116h-112zM259 831h-300v116h300v-116z" />
    <glyph glyph-name="Ibreve" unicode="&#x12c;" horiz-adv-x="220" 
d="M54 -1v117h35v468h-35v116h112v-116h-35v-468h35v-117h-112zM110 886c67 0 101 35 101 98v15h42v-15c0 -136 -55 -214 -143 -214c-90 0 -144 78 -144 214v15h42v-15c0 -63 36 -98 102 -98z" />
    <glyph glyph-name="Iogonek" unicode="&#x12e;" horiz-adv-x="220" 
d="M69 -117c0 50 9 88 30 117h-45v116h35v468h-35v116h112v-116h-35v-468h35v-116c-36 -13 -49 -39 -49 -71c0 -36 13 -50 40 -50c14 0 26 2 40 6v-115c-13 -4 -28 -6 -45 -6c-55 0 -83 45 -83 119z" />
    <glyph glyph-name="Idotaccent" unicode="&#x130;" horiz-adv-x="222" 
d="M56 0v116h35v468h-35v116h112v-116h-35v-468h35v-116h-112zM111 812c-33 0 -52 28 -52 77s19 77 52 77c32 0 52 -28 52 -77s-20 -77 -52 -77z" />
    <glyph glyph-name="J" unicode="J" horiz-adv-x="395" 
d="M66 253v-23c0 -80 20 -126 117 -126c100 0 117 46 117 126v470h42v-470c0 -153 -40 -242 -159 -242c-117 0 -159 89 -159 242v23h42z" />
    <glyph glyph-name="Jcircumflex" unicode="&#x134;" horiz-adv-x="406" 
d="M189 -12c-117 0 -159 89 -159 242v23h42v-23c0 -80 20 -126 117 -126c100 0 117 46 117 126v470h42v-470c0 -153 -40 -242 -159 -242zM121 780h-97l148 219h33l148 -219h-97l-67 166z" />
    <glyph glyph-name="K" unicode="K" horiz-adv-x="435" 
d="M55 0v700h42v-279h63l139 279h97l-175 -348l-16 28l207 -380h-55l-168 305h-92v-305h-42z" />
    <glyph glyph-name="uni0136" unicode="&#x136;" horiz-adv-x="435" 
d="M55 0v700h42v-279h63l139 279h97l-175 -348l-16 28l207 -380h-55l-168 305h-92v-305h-42zM255 -128c0 -18 -3 -42 -17 -66l-35 -56h-32l-9 119c-4 43 15 72 46 72c29 0 47 -26 47 -69z" />
    <glyph glyph-name="L" unicode="L" horiz-adv-x="371" 
d="M348 116v-116h-293v700h42v-584h251z" />
    <glyph glyph-name="Lacute" unicode="&#x139;" horiz-adv-x="371" 
d="M348 116v-116h-293v700h42v-584h251zM60 780l22 219h99l-85 -219h-36z" />
    <glyph glyph-name="uni013B" unicode="&#x13b;" horiz-adv-x="371" 
d="M348 116v-116h-293v700h42v-584h251zM196 -251h-32l-9 120c-4 43 15 71 46 71c29 0 47 -26 47 -69c0 -17 -3 -41 -17 -65z" />
    <glyph glyph-name="Lcaron" unicode="&#x13d;" horiz-adv-x="392" 
d="M369 116v-116h-292v700h42v-584h250zM300 576h-32l-9 120c-3 43 15 71 46 71c29 0 47 -26 47 -69c0 -17 -3 -41 -16 -65z" />
    <glyph glyph-name="M" unicode="M" horiz-adv-x="593" 
d="M537 700v-700h-42v500l1 72h-9l-150 -442h-45l-148 442h-9l1 -72v-500h-81v700h93l148 -439h2l149 439h90z" />
    <glyph glyph-name="N" unicode="N" horiz-adv-x="483" 
d="M337 0l-241 592h-2l2 -92v-500h-41v700h91l242 -591h2l-3 91v500h41v-700h-91z" />
    <glyph glyph-name="Ntilde" unicode="&#xd1;" horiz-adv-x="481" 
d="M337 0l-241 592h-2l2 -92v-500h-41v700h91l242 -591h2l-3 91v500h41v-700h-91zM326 1009c63 0 95 -56 78 -206l-2 -23h-82l2 36c8 55 -8 77 -30 77c-55 0 -56 -123 -135 -123c-63 0 -95 56 -78 206l3 23h82l-3 -36c-7 -54 9 -77 30 -77c56 0 55 123 135 123z" />
    <glyph glyph-name="Nacute" unicode="&#x143;" horiz-adv-x="481" 
d="M337 0l-241 592h-2l2 -92v-500h-41v700h91l242 -591h2l-3 91v500h41v-700h-91zM211 780l23 219h98l-84 -219h-37z" />
    <glyph glyph-name="uni0145" unicode="&#x145;" horiz-adv-x="481" 
d="M337 0l-241 592h-2l2 -92v-500h-41v700h91l242 -591h2l-3 91v500h41v-700h-91zM234 -251h-32l-9 120c-4 43 15 71 46 71c29 0 47 -26 47 -69c0 -17 -3 -41 -17 -65z" />
    <glyph glyph-name="Ncaron" unicode="&#x147;" horiz-adv-x="481" 
d="M96 0h-41v700h91l242 -591h2l-3 91v500h41v-700h-91l-241 592h-2l2 -92v-500zM226 780l-148 219h97l68 -165l67 165h97l-148 -219h-33z" />
    <glyph glyph-name="O" unicode="O" horiz-adv-x="486" 
d="M409 350c0 153 -58 246 -166 246c-107 0 -166 -93 -166 -246s59 -246 166 -246c108 0 166 93 166 246zM37 350c0 228 77 362 206 362s206 -134 206 -362s-77 -362 -206 -362s-206 134 -206 362z" />
    <glyph glyph-name="Ograve" unicode="&#xd2;" horiz-adv-x="486" 
d="M409 350c0 153 -58 246 -166 246c-107 0 -166 -93 -166 -246s59 -246 166 -246c108 0 166 93 166 246zM37 350c0 228 77 362 206 362s206 -134 206 -362s-77 -362 -206 -362s-206 134 -206 362zM261 780h-37l-99 219h98z" />
    <glyph glyph-name="Oacute" unicode="&#xd3;" horiz-adv-x="486" 
d="M409 350c0 153 -58 246 -166 246c-107 0 -166 -93 -166 -246s59 -246 166 -246c108 0 166 93 166 246zM37 350c0 228 77 362 206 362s206 -134 206 -362s-77 -362 -206 -362s-206 134 -206 362zM233 780l22 219h99l-85 -219h-36z" />
    <glyph glyph-name="Ocircumflex" unicode="&#xd4;" horiz-adv-x="486" 
d="M243 -12c-129 0 -206 134 -206 362s77 362 206 362s206 -134 206 -362s-77 -362 -206 -362zM243 104c108 0 166 93 166 246s-58 246 -166 246c-107 0 -166 -93 -166 -246s59 -246 166 -246zM176 780h-97l148 219h33l148 -219h-97l-67 166z" />
    <glyph glyph-name="Otilde" unicode="&#xd5;" horiz-adv-x="486" 
d="M409 350c0 153 -58 246 -166 246c-107 0 -166 -93 -166 -246s59 -246 166 -246c108 0 166 93 166 246zM37 350c0 228 77 362 206 362s206 -134 206 -362s-77 -362 -206 -362s-206 134 -206 362zM327 1009c63 0 95 -56 78 -206l-2 -23h-82l2 36c8 55 -8 77 -30 77
c-55 0 -56 -123 -135 -123c-63 0 -95 56 -78 206l3 23h82l-3 -36c-7 -54 9 -77 30 -77c56 0 55 123 135 123z" />
    <glyph glyph-name="Odieresis" unicode="&#xd6;" horiz-adv-x="486" 
d="M409 350c0 153 -58 246 -166 246c-107 0 -166 -93 -166 -246s59 -246 166 -246c108 0 166 93 166 246zM37 350c0 228 77 362 206 362s206 -134 206 -362s-77 -362 -206 -362s-206 134 -206 362zM331 812c-33 0 -52 28 -52 77s19 77 52 77c32 0 53 -28 53 -77
s-21 -77 -53 -77zM151 812c-33 0 -52 28 -52 77s19 77 52 77c32 0 52 -28 52 -77s-20 -77 -52 -77z" />
    <glyph glyph-name="Omacron" unicode="&#x14c;" horiz-adv-x="486" 
d="M409 350c0 153 -58 246 -166 246c-107 0 -166 -93 -166 -246s59 -246 166 -246c108 0 166 93 166 246zM37 350c0 228 77 362 206 362s206 -134 206 -362s-77 -362 -206 -362s-206 134 -206 362zM391 831h-299v116h299v-116z" />
    <glyph glyph-name="Obreve" unicode="&#x14e;" horiz-adv-x="486" 
d="M409 350c0 153 -58 246 -166 246c-107 0 -166 -93 -166 -246s59 -246 166 -246c108 0 166 93 166 246zM37 350c0 228 77 362 206 362s206 -134 206 -362s-77 -362 -206 -362s-206 134 -206 362zM242 886c80 0 121 35 121 98v15h42v-15c0 -136 -62 -214 -163 -214
c-102 0 -164 78 -164 214v15h42v-15c0 -63 43 -98 122 -98z" />
    <glyph glyph-name="Ohungarumlaut" unicode="&#x150;" horiz-adv-x="494" 
d="M409 350c0 153 -58 246 -166 246c-107 0 -166 -93 -166 -246s59 -246 166 -246c108 0 166 93 166 246zM37 350c0 228 77 362 206 362s206 -134 206 -362s-77 -362 -206 -362s-206 134 -206 362zM167 780h-35l39 219h99zM337 780h-36l52 219h99z" />
    <glyph glyph-name="P" unicode="P" horiz-adv-x="407" 
d="M221 584h-124v-196h124c72 0 111 36 111 98s-39 98 -111 98zM55 700h166c97 0 153 -79 153 -214s-56 -214 -153 -214h-124v-272h-42v700z" />
    <glyph glyph-name="Q" unicode="Q" horiz-adv-x="503" 
d="M243 -12c-129 0 -206 134 -206 362s77 362 206 362s206 -134 206 -362c0 -100 -20 -192 -66 -246h85v-116h-225zM243 104c106 0 164 93 164 246s-58 246 -164 246s-164 -93 -164 -246s58 -246 164 -246z" />
    <glyph glyph-name="R" unicode="R" horiz-adv-x="436" 
d="M387 486c0 -117 -42 -192 -117 -210l128 -276h-44l-126 272h-131v-272h-42v700h178c98 0 154 -79 154 -214zM345 486c0 62 -39 98 -112 98h-136v-196h136c73 0 112 36 112 98z" />
    <glyph glyph-name="Racute" unicode="&#x154;" horiz-adv-x="436" 
d="M387 486c0 -117 -42 -192 -117 -210l128 -276h-44l-126 272h-131v-272h-42v700h178c98 0 154 -79 154 -214zM345 486c0 62 -39 98 -112 98h-136v-196h136c73 0 112 36 112 98zM218 780h-36l22 219h99z" />
    <glyph glyph-name="uni0156" unicode="&#x156;" horiz-adv-x="436" 
d="M387 486c0 -117 -42 -192 -117 -210l128 -276h-44l-126 272h-131v-272h-42v700h178c98 0 154 -79 154 -214zM345 486c0 62 -39 98 -112 98h-136v-196h136c73 0 112 36 112 98zM274 -128c0 -18 -3 -42 -17 -66l-35 -56h-32l-9 119c-4 43 15 72 46 72c29 0 47 -26 47 -69z
" />
    <glyph glyph-name="Rcaron" unicode="&#x158;" horiz-adv-x="436" 
d="M387 486c0 -117 -42 -192 -117 -210l128 -276h-44l-126 272h-131v-272h-42v700h178c98 0 154 -79 154 -214zM345 486c0 62 -39 98 -112 98h-136v-196h136c73 0 112 36 112 98zM205 780l-148 219h97l68 -165l67 165h97l-148 -219h-33z" />
    <glyph glyph-name="S" unicode="S" horiz-adv-x="433" 
d="M395 207c1 -112 -56 -219 -179 -219c-118 0 -178 81 -178 247v18h42v-18c0 -91 30 -131 136 -131c97 0 137 38 137 103c0 184 -308 80 -308 300c0 108 52 205 171 205c114 0 172 -81 172 -243v-18h-42v18c0 88 -27 127 -130 127c-91 0 -129 -33 -129 -89
c0 -182 308 -79 308 -300z" />
    <glyph glyph-name="Sacute" unicode="&#x15a;" horiz-adv-x="433" 
d="M395 207c1 -112 -56 -219 -179 -219c-118 0 -178 81 -178 247v18h42v-18c0 -91 30 -131 136 -131c97 0 137 38 137 103c0 184 -308 80 -308 300c0 108 52 205 171 205c114 0 172 -81 172 -243v-18h-42v18c0 88 -27 127 -130 127c-91 0 -129 -33 -129 -89
c0 -182 308 -79 308 -300zM195 780l23 219h98l-84 -219h-37z" />
    <glyph glyph-name="Scircumflex" unicode="&#x15c;" horiz-adv-x="433" 
d="M87 507c0 -182 308 -79 308 -300c1 -112 -56 -219 -179 -219c-118 0 -178 81 -178 247v18h42v-18c0 -91 30 -131 136 -131c97 0 137 38 137 103c0 184 -308 80 -308 300c0 108 52 205 171 205c114 0 172 -81 172 -243v-18h-42v18c0 88 -27 127 -130 127
c-91 0 -129 -33 -129 -89zM147 780h-97l148 219h33l148 -219h-97l-67 166z" />
    <glyph glyph-name="Scedilla" unicode="&#x15e;" horiz-adv-x="433" 
d="M87 507c0 -182 308 -79 308 -300c1 -106 -50 -207 -159 -218v-8c59 -10 65 -58 65 -101c0 -71 -29 -117 -101 -117c-17 0 -33 3 -45 7v115c20 -5 36 -6 53 -6c36 0 45 9 45 29c0 16 -7 28 -42 28h-14v53c-105 8 -159 89 -159 246v18h42v-18c0 -91 30 -131 136 -131
c97 0 137 38 137 103c0 184 -308 80 -308 300c0 108 52 205 171 205c114 0 172 -81 172 -243v-18h-42v18c0 88 -27 127 -130 127c-91 0 -129 -33 -129 -89z" />
    <glyph glyph-name="Scaron" unicode="&#x160;" horiz-adv-x="433" 
d="M87 507c0 -182 308 -79 308 -300c1 -112 -56 -219 -179 -219c-118 0 -178 81 -178 247v18h42v-18c0 -91 30 -131 136 -131c97 0 137 38 137 103c0 184 -308 80 -308 300c0 108 52 205 171 205c114 0 172 -81 172 -243v-18h-42v18c0 88 -27 127 -130 127
c-91 0 -129 -33 -129 -89zM197 780l-148 219h97l68 -165l68 165h96l-148 -219h-33z" />
    <glyph glyph-name="uni0218" unicode="&#x218;" horiz-adv-x="433" 
d="M395 207c1 -112 -56 -219 -179 -219c-118 0 -178 81 -178 247v18h42v-18c0 -91 30 -131 136 -131c97 0 137 38 137 103c0 184 -308 80 -308 300c0 108 52 205 171 205c114 0 172 -81 172 -243v-18h-42v18c0 88 -27 127 -130 127c-91 0 -129 -33 -129 -89
c0 -182 308 -79 308 -300zM209 -250h-32l-9 119c-4 43 15 72 46 72c29 0 47 -26 47 -69c0 -18 -3 -42 -17 -66z" />
    <glyph glyph-name="T" unicode="T" horiz-adv-x="391" 
d="M17 584v116h358v-116h-158v-584h-42v584h-158z" />
    <glyph glyph-name="uni0162" unicode="&#x162;" horiz-adv-x="391" 
d="M17 584v116h358v-116h-158v-584h-42v584h-158zM190 -251h-32l-9 120c-3 43 15 71 46 71c30 0 47 -26 47 -69c0 -17 -2 -41 -16 -65z" />
    <glyph glyph-name="Tcaron" unicode="&#x164;" horiz-adv-x="391" 
d="M175 584h-158v116h358v-116h-158v-584h-42v584zM180 780l-148 219h97l68 -165l68 165h96l-148 -219h-33z" />
    <glyph glyph-name="U" unicode="U" horiz-adv-x="465" 
d="M412 700v-403c0 -196 -66 -309 -179 -309c-116 0 -180 113 -180 309v403h42v-403c0 -122 49 -193 138 -193c88 0 137 71 137 193v403h42z" />
    <glyph glyph-name="Ugrave" unicode="&#xd9;" horiz-adv-x="462" 
d="M412 700v-403c0 -196 -66 -309 -179 -309c-116 0 -180 113 -180 309v403h42v-403c0 -122 49 -193 138 -193c88 0 137 71 137 193v403h42zM259 780h-36l-100 219h99z" />
    <glyph glyph-name="Uacute" unicode="&#xda;" horiz-adv-x="462" 
d="M412 700v-403c0 -196 -66 -309 -179 -309c-116 0 -180 113 -180 309v403h42v-403c0 -122 49 -193 138 -193c88 0 137 71 137 193v403h42zM214 780l23 219h98l-84 -219h-37z" />
    <glyph glyph-name="Ucircumflex" unicode="&#xdb;" horiz-adv-x="462" 
d="M233 104c88 0 137 71 137 193v403h42v-403c0 -196 -66 -309 -179 -309c-116 0 -180 113 -180 309v403h42v-403c0 -122 49 -193 138 -193zM164 780h-97l148 219h33l148 -219h-97l-67 166z" />
    <glyph glyph-name="Udieresis" unicode="&#xdc;" horiz-adv-x="462" 
d="M412 700v-403c0 -196 -66 -309 -179 -309c-116 0 -180 113 -180 309v403h42v-403c0 -122 49 -193 138 -193c88 0 137 71 137 193v403h42zM321 812c-34 0 -52 28 -52 77s18 77 52 77c32 0 52 -28 52 -77s-20 -77 -52 -77zM140 812c-33 0 -52 28 -52 77s19 77 52 77
s53 -28 53 -77s-20 -77 -53 -77z" />
    <glyph glyph-name="Utilde" unicode="&#x168;" horiz-adv-x="462" 
d="M412 700v-403c0 -196 -66 -309 -179 -309c-116 0 -180 113 -180 309v403h42v-403c0 -122 49 -193 138 -193c88 0 137 71 137 193v403h42zM316 1009c63 0 96 -56 79 -206l-3 -23h-82l3 36c7 55 -9 77 -30 77c-56 0 -56 -123 -135 -123c-63 0 -95 56 -78 206l2 23h82
l-2 -36c-8 -54 8 -77 29 -77c56 0 56 123 135 123z" />
    <glyph glyph-name="Umacron" unicode="&#x16a;" horiz-adv-x="462" 
d="M412 700v-403c0 -196 -66 -309 -179 -309c-116 0 -180 113 -180 309v403h42v-403c0 -122 49 -193 138 -193c88 0 137 71 137 193v403h42zM381 831h-300v116h300v-116z" />
    <glyph glyph-name="Ubreve" unicode="&#x16c;" horiz-adv-x="462" 
d="M412 700v-403c0 -196 -66 -309 -179 -309c-116 0 -180 113 -180 309v403h42v-403c0 -122 49 -193 138 -193c88 0 137 71 137 193v403h42zM231 886c81 0 121 35 121 98v15h42v-15c0 -136 -62 -214 -163 -214c-102 0 -163 78 -163 214v15h42v-15c0 -63 42 -98 121 -98z" />
    <glyph glyph-name="Uring" unicode="&#x16e;" horiz-adv-x="462" 
d="M412 700v-403c0 -196 -66 -309 -179 -309c-116 0 -180 113 -180 309v403h42v-403c0 -122 49 -193 138 -193c88 0 137 71 137 193v403h42zM231 706c-68 0 -107 60 -107 159c0 100 39 159 107 159s106 -59 106 -159c0 -99 -38 -159 -106 -159zM231 804c47 0 73 23 73 61
s-26 61 -73 61s-74 -23 -74 -61s27 -61 74 -61z" />
    <glyph glyph-name="Uhungarumlaut" unicode="&#x170;" horiz-adv-x="462" 
d="M412 700v-403c0 -196 -66 -309 -179 -309c-116 0 -180 113 -180 309v403h42v-403c0 -122 49 -193 138 -193c88 0 137 71 137 193v403h42zM144 780h-35l39 219h99zM314 780h-36l52 219h99z" />
    <glyph glyph-name="Uogonek" unicode="&#x172;" horiz-adv-x="462" 
d="M188 -117c0 44 8 78 26 106c-104 12 -161 123 -161 308v403h42v-403c0 -122 49 -193 138 -193c88 0 137 71 137 193v403h42v-403c0 -167 -46 -273 -126 -301c-36 -11 -49 -37 -49 -67c0 -36 12 -50 39 -50c14 0 26 2 40 6v-115c-13 -4 -27 -6 -44 -6
c-56 0 -84 45 -84 119z" />
    <glyph glyph-name="V" unicode="V" horiz-adv-x="425" 
d="M255 0h-85l-153 700h44l109 -500l23 -120h2l22 120l110 500h81z" />
    <glyph glyph-name="W" unicode="W" horiz-adv-x="668" 
d="M650 700l-120 -700h-88l-90 497l-17 100h-2l-16 -100l-90 -497h-88l-121 700h43l102 -589h2l107 589h85l108 -589h2l102 589h81z" />
    <glyph glyph-name="Wcircumflex" unicode="&#x174;" horiz-adv-x="668" 
d="M569 700h81l-120 -700h-88l-90 497l-17 100h-2l-16 -100l-90 -497h-88l-121 700h43l102 -589h2l107 589h85l108 -589h2zM266 780h-97l148 219h33l148 -219h-97l-67 166z" />
    <glyph glyph-name="Wgrave" unicode="&#x1e80;" horiz-adv-x="668" 
d="M650 700l-120 -700h-88l-90 497l-17 100h-2l-16 -100l-90 -497h-88l-121 700h43l102 -589h2l107 589h85l108 -589h2l102 589h81zM348 780h-36l-100 219h99z" />
    <glyph glyph-name="Wacute" unicode="&#x1e82;" horiz-adv-x="668" 
d="M650 700l-120 -700h-88l-90 497l-17 100h-2l-16 -100l-90 -497h-88l-121 700h43l102 -589h2l107 589h85l108 -589h2l102 589h81zM304 780l23 219h98l-84 -219h-37z" />
    <glyph glyph-name="Wdieresis" unicode="&#x1e84;" horiz-adv-x="668" 
d="M650 700l-120 -700h-88l-90 497l-17 100h-2l-16 -100l-90 -497h-88l-121 700h43l102 -589h2l107 589h85l108 -589h2l102 589h81zM423 812c-34 0 -52 28 -52 77s18 77 52 77c32 0 52 -28 52 -77s-20 -77 -52 -77zM242 812c-33 0 -52 28 -52 77s19 77 52 77s53 -28 53 -77
s-20 -77 -53 -77z" />
    <glyph glyph-name="X" unicode="X" horiz-adv-x="433" 
d="M308 700h88l-138 -353l149 -347h-48l-93 211l-33 97h-3l-31 -97l-82 -211h-91l150 377l-139 323h47l85 -193l33 -94h3l29 94z" />
    <glyph glyph-name="Y" unicode="Y" horiz-adv-x="396" 
d="M177 0v206l-162 494h43l94 -279l25 -96h2l25 96l94 279h83l-162 -494v-206h-42z" />
    <glyph glyph-name="Yacute" unicode="&#xdd;" horiz-adv-x="396" 
d="M177 0v206l-162 494h43l94 -279l25 -96h2l25 96l94 279h83l-162 -494v-206h-42zM210 780h-36l22 219h99z" />
    <glyph glyph-name="Ycircumflex" unicode="&#x176;" horiz-adv-x="396" 
d="M177 0v206l-162 494h43l94 -279l25 -96h2l25 96l94 279h83l-162 -494v-206h-42zM131 780h-97l148 219h33l148 -219h-97l-67 166z" />
    <glyph glyph-name="Ydieresis" unicode="&#x178;" horiz-adv-x="396" 
d="M177 0v206l-162 494h43l94 -279l25 -96h2l25 96l94 279h83l-162 -494v-206h-42zM339 889c0 -49 -21 -77 -53 -77c-33 0 -52 28 -52 77s19 77 52 77c32 0 53 -28 53 -77zM158 889c0 -49 -20 -77 -52 -77c-33 0 -52 28 -52 77s19 77 52 77c32 0 52 -28 52 -77z" />
    <glyph glyph-name="Ygrave" unicode="&#x1ef2;" horiz-adv-x="396" 
d="M177 0v206l-162 494h43l94 -279l25 -96h2l25 96l94 279h83l-162 -494v-206h-42zM180 999l37 -219h-36l-100 219h99z" />
    <glyph glyph-name="Z" unicode="Z" horiz-adv-x="393" 
d="M351 584l-268 -466v-2h274v-116h-321v116l268 466v2h-254v116h301v-116z" />
    <glyph glyph-name="Zacute" unicode="&#x179;" horiz-adv-x="393" 
d="M351 584l-268 -466v-2h274v-116h-321v116l268 466v2h-254v116h301v-116zM167 780l23 219h98l-84 -219h-37z" />
    <glyph glyph-name="Zdotaccent" unicode="&#x17b;" horiz-adv-x="393" 
d="M351 584l-268 -466v-2h274v-116h-321v116l268 466v2h-254v116h301v-116zM197 812c-33 0 -52 28 -52 77s19 77 52 77c32 0 52 -28 52 -77s-20 -77 -52 -77z" />
    <glyph glyph-name="Zcaron" unicode="&#x17d;" horiz-adv-x="396" 
d="M354 700v-116l-268 -466v-2h274v-116h-321v116l268 466v2h-254v116h301zM182 780l-148 219h97l68 -165l68 165h96l-148 -219h-33z" />
    <glyph glyph-name="AE" unicode="&#xc6;" horiz-adv-x="626" 
d="M62 0h-42l184 700h383v-116h-234v-170h223v-116h-223v-182h234v-116h-276v128h-215zM311 584h-95l-90 -340h185v340z" />
    <glyph glyph-name="AEacute" unicode="&#x1fc;" horiz-adv-x="626" 
d="M62 0h-42l184 700h383v-116h-234v-170h223v-116h-223v-182h234v-116h-276v128h-215zM311 584h-95l-90 -340h185v340zM352 780h-36l22 219h99z" />
    <glyph glyph-name="Eth" unicode="&#xd0;" horiz-adv-x="466" 
d="M429 350c0 -220 -77 -350 -206 -350h-168v299h-45v116h45v285h168c129 0 206 -130 206 -350zM387 350c0 145 -58 234 -164 234h-126v-169h150v-116h-150v-183h126c106 0 164 87 164 234z" />
    <glyph glyph-name="Oslash" unicode="&#xd8;" horiz-adv-x="498" 
d="M249 712c54 0 100 -23 135 -65l28 53h45l-48 -91c34 -62 52 -150 52 -259c0 -228 -79 -362 -212 -362c-56 0 -101 22 -136 65l-28 -53h-45l49 92c-35 62 -53 149 -53 258c0 228 80 362 213 362zM419 350c0 76 -18 136 -53 177l9 19l-220 -414c26 -19 57 -28 94 -28
c110 0 170 93 170 246zM78 350c0 -74 18 -133 52 -174l-18 -40l230 433c-25 18 -56 27 -93 27c-110 0 -171 -93 -171 -246z" />
    <glyph glyph-name="Oslashacute" unicode="&#x1fe;" horiz-adv-x="498" 
d="M249 712c54 0 100 -23 135 -65l28 53h45l-48 -91c34 -62 52 -150 52 -259c0 -228 -79 -362 -212 -362c-56 0 -101 22 -136 65l-28 -53h-45l49 92c-35 62 -53 149 -53 258c0 228 80 362 213 362zM419 350c0 76 -18 136 -53 177l9 19l-220 -414c26 -19 57 -28 94 -28
c110 0 170 93 170 246zM78 350c0 -74 18 -133 52 -174l-18 -40l230 433c-25 18 -56 27 -93 27c-110 0 -171 -93 -171 -246zM263 777h-32l31 173h86z" />
    <glyph glyph-name="Thorn" unicode="&#xde;" horiz-adv-x="405" 
d="M97 251h123c73 0 112 36 112 98s-39 98 -112 98h-123v-196zM55 700h42v-137h123c97 0 154 -79 154 -214s-57 -214 -154 -214h-123v-135h-42v700z" />
    <glyph glyph-name="Dcroat" unicode="&#x110;" horiz-adv-x="466" 
d="M429 350c0 -220 -77 -350 -206 -350h-168v299h-45v116h45v285h168c129 0 206 -130 206 -350zM387 350c0 145 -58 234 -164 234h-126v-169h150v-116h-150v-183h126c106 0 164 87 164 234z" />
    <glyph glyph-name="Hbar" unicode="&#x126;" horiz-adv-x="466" 
d="M413 501v-501h-42v299h-274v-299h-42v501h-48v116h48v83h42v-83h274v83h42v-83h46v-116h-46zM371 415v86h-274v-86h274z" />
    <glyph glyph-name="IJ" unicode="&#x132;" horiz-adv-x="455" 
d="M53 298v116h31v170h-31v116h103v-116h-30v-170h30v-116h-103zM277 700h125v-470c0 -153 -40 -242 -159 -242s-159 89 -159 242v26h42v-26c0 -76 17 -120 117 -120s117 44 117 120v354h-83v116z" />
    <glyph glyph-name="Ldot" unicode="&#x13f;" horiz-adv-x="369" 
d="M348 116v-116h-293v700h42v-584h251zM223 278c-33 0 -52 28 -52 77s19 77 52 77s53 -28 53 -77s-20 -77 -53 -77z" />
    <glyph glyph-name="Lslash" unicode="&#x141;" horiz-adv-x="369" 
d="M97 398l228 184h5v-123l-233 -188v-155h251v-116h-293v237l-35 -28h-5v123l40 32v336h42v-302z" />
    <glyph glyph-name="Eng" unicode="&#x14a;" horiz-adv-x="481" 
d="M428 -15c0 -153 -41 -242 -156 -242h-16v122h16c96 0 116 44 116 120v15h-51l-241 592h-2l2 -92v-500h-41v700h91l242 -591h2l-3 91v500h41v-715z" />
    <glyph glyph-name="OE" unicode="&#x152;" horiz-adv-x="703" 
d="M231 -12c-121 0 -194 134 -194 362s73 362 194 362c71 0 125 -46 157 -131v119h276v-118h-234v-167h224v-118h-224v-179h234v-118h-276v119c-32 -85 -86 -131 -157 -131zM233 108c100 0 155 91 155 242s-55 242 -155 242c-99 0 -154 -91 -154 -242s55 -242 154 -242z" />
    <glyph glyph-name="Tbar" unicode="&#x166;" horiz-adv-x="391" 
d="M175 584h-158v116h358v-116h-158v-169h128v-116h-128v-299h-42v299h-130v116h130v169z" />
    <glyph glyph-name="uni0402" unicode="&#x402;" horiz-adv-x="530" 
d="M217 350c20 45 55 76 117 76c138 0 167 -107 167 -219s-29 -219 -167 -219h-22v116h16c112 0 131 55 131 103s-19 103 -131 103c-84 0 -106 -38 -111 -78v-232h-42v584h-158v116h358v-116h-158v-234z" />
    <glyph glyph-name="uni0404" unicode="&#x404;" horiz-adv-x="476" 
d="M243 712c108 0 193 -101 193 -280v-15h-42v15c0 107 -67 164 -151 164c-90 0 -145 -67 -160 -181h257v-116h-259c12 -122 68 -195 162 -195c84 0 152 63 152 175v18h43v-18c0 -186 -85 -291 -195 -291c-129 0 -206 134 -206 362s77 362 206 362z" />
    <glyph glyph-name="uni0405" unicode="&#x405;" horiz-adv-x="431" 
d="M395 207c1 -112 -56 -219 -179 -219c-118 0 -178 81 -178 247v18h42v-18c0 -91 30 -131 136 -131c97 0 137 38 137 103c0 184 -308 80 -308 300c0 108 52 205 171 205c114 0 172 -81 172 -243v-18h-42v18c0 88 -27 127 -130 127c-91 0 -129 -33 -129 -89
c0 -182 308 -79 308 -300z" />
    <glyph glyph-name="uni0406" unicode="&#x406;" horiz-adv-x="220" 
d="M54 0v116h35v468h-35v116h112v-116h-35v-468h35v-116h-112z" />
    <glyph glyph-name="uni0407" unicode="&#x407;" horiz-adv-x="220" 
d="M54 0v116h35v468h-35v116h112v-116h-35v-468h35v-116h-112zM185 812c-34 0 -52 28 -52 77s18 77 52 77c32 0 52 -28 52 -77s-20 -77 -52 -77zM35 812c-33 0 -52 28 -52 77s19 77 52 77s53 -28 53 -77s-20 -77 -53 -77z" />
    <glyph glyph-name="uni0408" unicode="&#x408;" 
d="M66 253v-23c0 -80 20 -126 117 -126c100 0 117 46 117 126v470h42v-470c0 -153 -40 -242 -159 -242c-117 0 -159 89 -159 242v23h42z" />
    <glyph glyph-name="uni0409" unicode="&#x409;" horiz-adv-x="670" 
d="M47 114c34 0 57 10 61 206l12 380h268v-284h96c97 0 153 -77 153 -208s-56 -208 -153 -208h-138v584h-190l-8 -264c-6 -297 -38 -326 -101 -326h-20v120h20zM597 208c0 58 -39 92 -113 92h-96v-184h96c74 0 113 34 113 92z" />
    <glyph glyph-name="uni040A" unicode="&#x40a;" horiz-adv-x="666" 
d="M633 208c0 -131 -56 -208 -153 -208h-138v300h-246v-300h-42v700h42v-284h246v284h42v-284h96c97 0 153 -77 153 -208zM591 208c0 58 -39 92 -111 92h-96v-184h96c72 0 111 34 111 92z" />
    <glyph glyph-name="uni040B" unicode="&#x40b;" horiz-adv-x="535" 
d="M217 346c21 48 59 80 127 80c130 0 157 -105 157 -213v-213h-42v213c0 46 -17 97 -118 97c-95 0 -119 -38 -124 -79v-231h-42v584h-158v116h358v-116h-158v-238z" />
    <glyph glyph-name="uni040F" unicode="&#x40f;" horiz-adv-x="469" 
d="M214 -199v199h-159v700h42v-584h275v584h42v-700h-158v-199h-42z" />
    <glyph glyph-name="uni0410" unicode="&#x410;" horiz-adv-x="434" 
d="M344 124h-256l-23 -124h-45l134 700h122l137 -700h-45zM109 240h213l-51 260l-16 91h-80l-16 -91z" />
    <glyph glyph-name="uni0411" unicode="&#x411;" horiz-adv-x="407" 
d="M374 214c0 -135 -56 -214 -153 -214h-166v700h283v-116h-241v-156h124c97 0 153 -79 153 -214zM332 214c0 62 -39 98 -111 98h-124v-196h124c72 0 111 36 111 98z" />
    <glyph glyph-name="uni0412" unicode="&#x412;" horiz-adv-x="427" 
d="M388 210c0 -133 -55 -210 -153 -210h-180v700h181c99 0 145 -75 145 -201c0 -67 -19 -116 -61 -141c44 -27 68 -79 68 -148zM346 210c0 56 -38 89 -111 89h-138v-183h138c73 0 111 34 111 94zM339 499c0 52 -24 85 -103 85h-139v-169h139c79 0 103 31 103 84z" />
    <glyph glyph-name="uni0413" unicode="&#x413;" horiz-adv-x="360" 
d="M348 700v-116h-251v-584h-42v700h293z" />
    <glyph glyph-name="uni0403" unicode="&#x403;" horiz-adv-x="360" 
d="M348 700v-116h-251v-584h-42v700h293zM180 780l22 219h99l-85 -219h-36z" />
    <glyph glyph-name="uni0414" unicode="&#x414;" horiz-adv-x="505" 
d="M76 116c16 64 29 176 36 468l3 116h310v-584h55v-315h-42v199h-372v-199h-43v315h53zM154 584c-8 -269 -21 -397 -37 -468h266v468h-229z" />
    <glyph glyph-name="uni0415" unicode="&#x415;" horiz-adv-x="390" 
d="M55 0v700h297v-116h-255v-170h244v-116h-244v-182h255v-116h-297z" />
    <glyph glyph-name="uni0401" unicode="&#x401;" horiz-adv-x="390" 
d="M55 0v700h297v-116h-255v-170h244v-116h-244v-182h255v-116h-297zM292 812c-33 0 -52 28 -52 77s19 77 52 77c32 0 53 -28 53 -77s-21 -77 -53 -77zM112 812c-33 0 -52 28 -52 77s19 77 52 77c32 0 52 -28 52 -77s-20 -77 -52 -77z" />
    <glyph glyph-name="uni0416" unicode="&#x416;" horiz-adv-x="655" 
d="M523 700h97l-163 -335l179 -365h-50l-150 310h-87v-310h-42v310h-40l-150 -310h-98l181 368l-164 332h49l136 -274h86v274h42v-274h39z" />
    <glyph glyph-name="uni0417" unicode="&#x417;" horiz-adv-x="416" 
d="M207 -12c-106 0 -170 78 -170 214v51h42v-51c0 -63 44 -98 128 -98c83 0 128 35 128 98c0 61 -31 97 -104 97h-77v116h77c85 0 96 33 96 89c0 57 -40 92 -120 92c-85 0 -127 -35 -127 -92v-53h-42v53c0 131 62 208 169 208c102 0 162 -77 162 -208
c0 -73 -16 -123 -67 -145c52 -26 75 -82 75 -157c0 -136 -62 -214 -170 -214z" />
    <glyph glyph-name="uni0418" unicode="&#x418;" horiz-adv-x="486" 
d="M340 700h91v-700h-42v500l3 92h-2l-244 -592h-91v700h42v-500l-2 -91h2z" />
    <glyph glyph-name="uni0419" unicode="&#x419;" horiz-adv-x="486" 
d="M340 700h91v-700h-42v500l3 92h-2l-244 -592h-91v700h42v-500l-2 -91h2zM243 886c81 0 121 35 121 98v15h42v-15c0 -136 -62 -214 -163 -214c-102 0 -163 78 -163 214v15h42v-15c0 -63 42 -98 121 -98z" />
    <glyph glyph-name="uni041A" unicode="&#x41a;" horiz-adv-x="435" 
d="M55 0v700h42v-279h63l139 279h97l-175 -348l-16 28l207 -380h-55l-168 305h-92v-305h-42z" />
    <glyph glyph-name="uni040C" unicode="&#x40c;" horiz-adv-x="435" 
d="M55 0v700h42v-279h63l139 279h97l-175 -348l-16 28l207 -380h-55l-168 305h-92v-305h-42zM218 780h-37l23 219h98z" />
    <glyph glyph-name="uni041B" unicode="&#x41b;" horiz-adv-x="473" 
d="M47 114c34 0 57 10 61 206l12 380h298v-700h-42v584h-220l-8 -264c-6 -297 -38 -326 -101 -326h-20v120h20z" />
    <glyph glyph-name="uni041C" unicode="&#x41c;" horiz-adv-x="592" 
d="M537 700v-700h-42v500l1 72h-9l-150 -442h-45l-148 442h-9l1 -72v-500h-81v700h93l148 -439h2l149 439h90z" />
    <glyph glyph-name="uni041D" unicode="&#x41d;" horiz-adv-x="468" 
d="M413 0h-42v299h-274v-299h-42v700h42v-285h274v285h42v-700z" />
    <glyph glyph-name="uni041E" unicode="&#x41e;" horiz-adv-x="486" 
d="M409 350c0 153 -58 246 -166 246c-107 0 -166 -93 -166 -246s59 -246 166 -246c108 0 166 93 166 246zM37 350c0 228 77 362 206 362s206 -134 206 -362s-77 -362 -206 -362s-206 134 -206 362z" />
    <glyph glyph-name="uni041F" unicode="&#x41f;" horiz-adv-x="469" 
d="M414 0h-42v584h-275v-584h-42v700h359v-700z" />
    <glyph glyph-name="uni0420" unicode="&#x420;" horiz-adv-x="407" 
d="M221 584h-124v-196h124c72 0 111 36 111 98s-39 98 -111 98zM55 700h166c97 0 153 -79 153 -214s-56 -214 -153 -214h-124v-272h-42v700z" />
    <glyph glyph-name="uni0421" unicode="&#x421;" horiz-adv-x="476" 
d="M437 417h-42v15c0 107 -68 164 -152 164c-106 0 -164 -93 -164 -246s58 -246 164 -246c84 0 152 63 152 175v18h43v-18c0 -186 -85 -291 -195 -291c-129 0 -206 134 -206 362s77 362 206 362c109 0 194 -101 194 -280v-15z" />
    <glyph glyph-name="uni0422" unicode="&#x422;" horiz-adv-x="391" 
d="M17 584v116h358v-116h-158v-584h-42v584h-158z" />
    <glyph glyph-name="uni0423" unicode="&#x423;" horiz-adv-x="399" 
d="M58 700l108 -298l24 -78h3l21 78l89 298h82l-148 -493c-59 -189 -81 -211 -157 -211h-11v116h11c47 0 89 3 116 92l-181 496h43z" />
    <glyph glyph-name="uni040E" unicode="&#x40e;" horiz-adv-x="399" 
d="M58 700l108 -298l24 -78h3l21 78l89 298h82l-148 -493c-59 -189 -81 -211 -157 -211h-11v116h11c47 0 89 3 116 92l-181 496h43zM201 886c80 0 121 35 121 98v15h42v-15c0 -136 -62 -214 -163 -214c-102 0 -164 78 -164 214v15h42v-15c0 -63 43 -98 122 -98z" />
    <glyph glyph-name="uni0424" unicode="&#x424;" horiz-adv-x="576" 
d="M31 380c0 190 81 302 192 302h44v68h42v-68h44c112 0 192 -113 192 -302c0 -190 -80 -302 -192 -302h-44v-78h-42v78h-44c-111 0 -192 113 -192 302zM503 380c0 118 -69 186 -150 186h-45v-372h45c81 0 150 69 150 186zM73 380c0 -118 69 -186 150 -186h45v372h-45
c-81 0 -150 -69 -150 -186z" />
    <glyph glyph-name="uni0425" unicode="&#x425;" horiz-adv-x="433" 
d="M308 700h88l-138 -353l149 -347h-48l-93 211l-33 97h-3l-31 -97l-82 -211h-91l150 377l-139 323h47l85 -193l33 -94h3l29 94z" />
    <glyph glyph-name="uni0426" unicode="&#x426;" horiz-adv-x="493" 
d="M426 0h-371v700h42v-584h275v584h42v-584h54v-315h-42v199z" />
    <glyph glyph-name="uni0427" unicode="&#x427;" horiz-adv-x="438" 
d="M140 390h201v310h42v-700h-42v274h-201c-87 0 -105 95 -105 193v233h42v-233c0 -36 8 -77 63 -77z" />
    <glyph glyph-name="uni0428" unicode="&#x428;" horiz-adv-x="639" 
d="M542 700h42v-700h-529v700h42v-584h202v584h42v-584h201v584z" />
    <glyph glyph-name="uni0429" unicode="&#x429;" horiz-adv-x="663" 
d="M596 0h-541v700h42v-584h202v584h42v-584h201v584h42v-584h54v-315h-42v199z" />
    <glyph glyph-name="uni042A" unicode="&#x42a;" horiz-adv-x="485" 
d="M299 116c72 0 111 36 111 98s-39 98 -111 98h-123v-196h123zM176 700v-272h123c97 0 153 -79 153 -214s-56 -214 -153 -214h-165v584h-117v116h159z" />
    <glyph glyph-name="uni042B" unicode="&#x42b;" horiz-adv-x="565" 
d="M56 0v700h42v-272h124c97 0 153 -79 153 -214s-56 -214 -153 -214h-166zM222 116c72 0 111 36 111 98s-39 98 -111 98h-124v-196h124zM510 700v-700h-42v700h42z" />
    <glyph glyph-name="uni042C" unicode="&#x42c;" horiz-adv-x="407" 
d="M55 0v700h42v-272h124c97 0 153 -79 153 -214s-56 -214 -153 -214h-166zM221 116c72 0 111 36 111 98s-39 98 -111 98h-124v-196h124z" />
    <glyph glyph-name="uni042D" unicode="&#x42d;" horiz-adv-x="475" 
d="M233 596c-84 0 -151 -57 -151 -164v-15h-42v15c0 179 85 280 193 280c128 0 205 -134 205 -362s-77 -362 -205 -362c-110 0 -195 105 -195 291v18h43v-18c0 -112 68 -175 152 -175c92 0 149 73 161 195h-258v116h256c-15 114 -71 181 -159 181z" />
    <glyph glyph-name="uni042E" unicode="&#x42e;" horiz-adv-x="638" 
d="M400 -12c-115 0 -188 114 -199 311h-104v-299h-42v700h42v-285h105c13 188 85 297 198 297c126 0 201 -134 201 -362s-75 -362 -201 -362zM400 104c100 0 159 93 159 246s-59 246 -159 246c-102 0 -158 -93 -158 -246s56 -246 158 -246z" />
    <glyph glyph-name="uni042F" unicode="&#x42f;" horiz-adv-x="438" 
d="M45 482c0 138 56 218 154 218h184v-700h-42v264h-142h-10l-103 -264h-47l106 273c-64 25 -100 99 -100 209zM87 482c0 -65 39 -102 112 -102h142v204h-142c-73 0 -112 -37 -112 -102z" />
    <glyph glyph-name="uni0490" unicode="&#x490;" horiz-adv-x="360" 
d="M347 700h1v-116h-251v-584h-42v700h250v199h42v-199z" />
    <glyph glyph-name="uni0492" unicode="&#x492;" horiz-adv-x="361" 
d="M57 298h-52v116h52v286h292v-116h-250v-170h171v-116h-171v-298h-42v298z" />
    <glyph glyph-name="uni0496" unicode="&#x496;" horiz-adv-x="675" 
d="M523 700h97l-163 -335l122 -249h86v-315h-42v199h-37l-150 310h-87v-310h-42v310h-40l-150 -310h-98l181 368l-164 332h49l136 -274h86v274h42v-274h39z" />
    <glyph glyph-name="uni0498" unicode="&#x498;" horiz-adv-x="416" 
d="M186 -11c-93 10 -149 86 -149 213v51h42v-51c0 -63 44 -98 128 -98c83 0 128 35 128 98c0 61 -31 97 -104 97h-77v116h77c85 0 96 33 96 89c0 57 -40 92 -120 92c-85 0 -127 -35 -127 -92v-53h-42v53c0 131 62 208 169 208c102 0 162 -77 162 -208
c0 -73 -16 -123 -67 -145c52 -26 75 -82 75 -157c0 -127 -54 -203 -149 -213v-188h-42v188z" />
    <glyph glyph-name="uni049A" unicode="&#x49a;" horiz-adv-x="446" 
d="M55 0v700h42v-279h63l139 279h97l-175 -348l-16 28l148 -264h83v-315h-42v199h-37l-168 305h-92v-305h-42z" />
    <glyph glyph-name="uni049C" unicode="&#x49c;" horiz-adv-x="456" 
d="M120 541h42v-120h16l139 279h100l-175 -348l-16 28l207 -380h-58l-168 305h-45v-130h-42v130h-23v-305h-42v700h42v-279h23v120z" />
    <glyph glyph-name="uni04A0" unicode="&#x4a0;" horiz-adv-x="507" 
d="M371 700h97l-176 -348l192 -352h-55l-168 305h-92v-305h-42v584h-110v116h152v-279h63z" />
    <glyph glyph-name="uni04A2" unicode="&#x4a2;" horiz-adv-x="492" 
d="M413 116h54v-315h-42v199h-54v299h-274v-299h-42v700h42v-285h274v285h42v-584z" />
    <glyph glyph-name="uni04AA" unicode="&#x4aa;" horiz-adv-x="476" 
d="M438 279c0 -171 -74 -274 -173 -289v-189h-42v189c-117 16 -186 146 -186 360c0 228 77 362 206 362c109 0 194 -101 194 -280v-15h-42v15c0 107 -68 164 -152 164c-106 0 -164 -93 -164 -246s58 -246 164 -246c84 0 152 63 152 175v18h43v-18z" />
    <glyph glyph-name="uni04AE" unicode="&#x4ae;" horiz-adv-x="396" 
d="M177 0v206l-162 494h43l94 -279l25 -96h2l25 96l94 279h83l-162 -494v-206h-42z" />
    <glyph glyph-name="uni04B0" unicode="&#x4b0;" horiz-adv-x="396" 
d="M381 700l-162 -494v-19h112v-116h-112v-71h-42v71h-112v116h112v19l-162 494h43l94 -279l25 -96h2l25 96l94 279h83z" />
    <glyph glyph-name="uni04B2" unicode="&#x4b2;" horiz-adv-x="448" 
d="M176 377l-139 323h47l85 -193l33 -94h3l29 94l74 193h88l-138 -354l107 -270h73v-275h-42v199h-37l-93 211l-33 97h-3l-31 -97l-82 -211h-91z" />
    <glyph glyph-name="uni04B6" unicode="&#x4b6;" horiz-adv-x="461" 
d="M35 700h42v-233c0 -36 8 -77 63 -77h201v310h42v-584h53v-315h-42v199h-53v274h-201c-87 0 -105 95 -105 193v233z" />
    <glyph glyph-name="uni04BA" unicode="&#x4ba;" horiz-adv-x="436" 
d="M296 310h-201v-310h-42v700h42v-274h201c87 0 105 -95 105 -193v-233h-42v233c0 36 -8 77 -63 77z" />
    <glyph glyph-name="uni04C0" unicode="&#x4c0;" horiz-adv-x="152" 
d="M97 0h-42v700h42v-700z" />
    <glyph glyph-name="uni04D8" unicode="&#x4d8;" horiz-adv-x="475" 
d="M233 -12c-109 0 -195 85 -195 291v136h355c-12 140 -68 181 -160 181c-94 0 -152 -50 -152 -114v-15h-42v15c0 137 80 230 194 230c128 0 205 -94 205 -362c0 -248 -77 -362 -205 -362zM233 104c94 0 150 59 161 195h-313v-20c0 -132 68 -175 152 -175z" />
    <glyph glyph-name="uni04E8" unicode="&#x4e8;" horiz-adv-x="486" 
d="M243 -12c-129 0 -206 134 -206 362s77 362 206 362s206 -134 206 -362s-77 -362 -206 -362zM80 297c12 -121 69 -193 163 -193c93 0 149 72 163 193h-326zM405 413c-14 115 -70 183 -162 183c-91 0 -147 -68 -161 -183h323z" />
    <glyph glyph-name="a" unicode="a" horiz-adv-x="375" 
d="M186 509c85 0 137 -59 137 -157v-352h-41v103c-21 -68 -67 -112 -135 -112c-67 0 -109 58 -109 155c0 95 42 151 109 151h135v55c0 30 -35 45 -96 45c-62 0 -97 -15 -97 -45v-12h-41v12c0 98 52 157 138 157zM79 150c0 -31 27 -47 73 -47c80 0 130 28 130 94h-130
c-46 0 -73 -15 -73 -47z" />
    <glyph glyph-name="agrave" unicode="&#xe0;" horiz-adv-x="375" 
d="M186 509c85 0 137 -59 137 -157v-352h-41v103c-21 -68 -67 -112 -135 -112c-67 0 -109 58 -109 155c0 95 42 151 109 151h135v55c0 30 -35 45 -96 45c-62 0 -97 -15 -97 -45v-12h-41v12c0 98 52 157 138 157zM79 150c0 -31 27 -47 73 -47c80 0 130 28 130 94h-130
c-46 0 -73 -15 -73 -47zM156 750l46 -173h-32l-99 173h85z" />
    <glyph glyph-name="aacute" unicode="&#xe1;" horiz-adv-x="375" 
d="M186 509c85 0 137 -59 137 -157v-352h-41v103c-21 -68 -67 -112 -135 -112c-67 0 -109 58 -109 155c0 95 42 151 109 151h135v55c0 30 -35 45 -96 45c-62 0 -97 -15 -97 -45v-12h-41v12c0 98 52 157 138 157zM79 150c0 -31 27 -47 73 -47c80 0 130 28 130 94h-130
c-46 0 -73 -15 -73 -47zM203 577h-32l31 173h85z" />
    <glyph glyph-name="acircumflex" unicode="&#xe2;" horiz-adv-x="375" 
d="M186 509c85 0 137 -59 137 -157v-352h-41v103c-21 -68 -67 -112 -135 -112c-67 0 -109 58 -109 155c0 95 42 151 109 151h135v55c0 30 -35 45 -96 45c-62 0 -97 -15 -97 -45v-12h-41v12c0 98 52 157 138 157zM134 577h-90l122 173h29l120 -173h-89l-46 118zM79 150
c0 -31 27 -47 73 -47c80 0 130 28 130 94h-130c-46 0 -73 -15 -73 -47z" />
    <glyph glyph-name="atilde" unicode="&#xe3;" horiz-adv-x="377" 
d="M190 509c85 0 137 -59 137 -157v-352h-41v103c-21 -68 -67 -112 -135 -112c-67 0 -109 58 -109 155c0 95 42 151 109 151h135v55c0 30 -35 45 -96 45c-62 0 -97 -15 -97 -45v-12h-41v12c0 98 52 157 138 157zM225 661c-47 0 -47 -94 -115 -94c-51 0 -75 49 -63 170l1 13
h75l-1 -23c-5 -41 6 -60 22 -60c47 0 47 93 115 93c51 0 79 -50 63 -169l-2 -14h-74l2 24c5 41 -7 60 -23 60zM83 150c0 -31 27 -47 73 -47c80 0 130 28 130 94h-130c-46 0 -73 -15 -73 -47z" />
    <glyph glyph-name="adieresis" unicode="&#xe4;" horiz-adv-x="375" 
d="M186 509c85 0 137 -59 137 -157v-352h-41v103c-21 -68 -67 -112 -135 -112c-67 0 -109 58 -109 155c0 95 42 151 109 151h135v55c0 30 -35 45 -96 45c-62 0 -97 -15 -97 -45v-12h-41v12c0 98 52 157 138 157zM79 150c0 -31 27 -47 73 -47c80 0 130 28 130 94h-130
c-46 0 -73 -15 -73 -47zM309 663c0 -46 -19 -73 -50 -73s-49 27 -49 73s18 73 49 73s50 -27 50 -73zM156 663c0 -46 -19 -73 -50 -73s-49 27 -49 73s18 73 49 73s50 -27 50 -73z" />
    <glyph glyph-name="aring" unicode="&#xe5;" horiz-adv-x="375" 
d="M186 509c85 0 137 -59 137 -157v-352h-41v103c-21 -68 -67 -112 -135 -112c-67 0 -109 58 -109 155c0 95 42 151 109 151h135v55c0 30 -35 45 -96 45c-62 0 -97 -15 -97 -45v-12h-41v12c0 98 52 157 138 157zM295 715c0 -99 -38 -159 -106 -159s-107 60 -107 159
c0 100 39 159 107 159s106 -59 106 -159zM79 150c0 -31 27 -47 73 -47c80 0 130 28 130 94h-130c-46 0 -73 -15 -73 -47zM115 715c0 -38 27 -61 74 -61s73 23 73 61s-26 61 -73 61s-74 -23 -74 -61z" />
    <glyph glyph-name="amacron" unicode="&#x101;" horiz-adv-x="375" 
d="M186 509c85 0 137 -59 137 -157v-352h-41v103c-21 -68 -67 -112 -135 -112c-67 0 -109 58 -109 155c0 95 42 151 109 151h135v55c0 30 -35 45 -96 45c-62 0 -97 -15 -97 -45v-12h-41v12c0 98 52 157 138 157zM317 719v-112h-270v112h270zM79 150c0 -31 27 -47 73 -47
c80 0 130 28 130 94h-130c-46 0 -73 -15 -73 -47z" />
    <glyph glyph-name="abreve" unicode="&#x103;" horiz-adv-x="375" 
d="M186 509c85 0 137 -59 137 -157v-352h-41v103c-21 -68 -67 -112 -135 -112c-67 0 -109 58 -109 155c0 95 42 151 109 151h135v55c0 30 -35 45 -96 45c-62 0 -97 -15 -97 -45v-12h-41v12c0 98 52 157 138 157zM87 739c0 -43 33 -67 94 -67c65 0 95 24 95 67v11h41v-11
c0 -109 -53 -172 -136 -172s-135 63 -135 172v11h41v-11zM79 150c0 -31 27 -47 73 -47c80 0 130 28 130 94h-130c-46 0 -73 -15 -73 -47z" />
    <glyph glyph-name="aogonek" unicode="&#x105;" horiz-adv-x="375" 
d="M186 509c85 0 137 -59 137 -157v-352c-39 -14 -51 -30 -51 -58s14 -41 42 -41c16 0 26 2 36 4v-109c-12 -4 -22 -6 -39 -6c-52 0 -87 40 -87 117c0 59 21 94 58 117v79c-21 -68 -67 -112 -135 -112c-67 0 -109 58 -109 155c0 95 42 151 109 151h135v55
c0 30 -35 45 -96 45c-62 0 -97 -15 -97 -45v-12h-41v12c0 98 52 157 138 157zM79 150c0 -31 27 -47 73 -47c80 0 130 28 130 94h-130c-46 0 -73 -15 -73 -47z" />
    <glyph glyph-name="aringacute" unicode="&#x1fb;" horiz-adv-x="375" 
d="M185 509c85 0 137 -59 137 -157v-352h-41v103c-21 -68 -67 -112 -135 -112c-67 0 -109 58 -109 155c0 95 42 151 109 151h135v55c0 30 -35 45 -96 45c-62 0 -97 -15 -97 -45v-12h-41v12c0 98 52 157 138 157zM291 715c0 -99 -38 -159 -106 -159s-107 60 -107 159
c0 92 33 149 91 158l25 139h86l-69 -141c51 -14 80 -69 80 -156zM78 150c0 -31 27 -47 73 -47c80 0 130 28 130 94h-130c-46 0 -73 -15 -73 -47zM111 715c0 -38 27 -61 74 -61s73 23 73 61s-26 61 -73 61s-74 -23 -74 -61z" />
    <glyph glyph-name="b" unicode="b" horiz-adv-x="402" 
d="M372 250c0 -160 -53 -259 -153 -259c-67 0 -105 37 -124 105v-96h-41v750h41v-346c19 68 57 105 124 105c100 0 153 -100 153 -259zM212 396c-78 0 -117 -44 -117 -121v-50c0 -77 39 -121 117 -121c83 0 120 42 120 146c0 103 -37 146 -120 146z" />
    <glyph glyph-name="c" unicode="c" horiz-adv-x="374" 
d="M192 396c-86 0 -123 -45 -123 -146c0 -102 37 -146 123 -146c73 0 111 35 111 92v8h40v-8c0 -121 -58 -205 -151 -205c-106 0 -162 99 -162 259c0 159 56 259 162 259c93 0 151 -78 151 -195v-8h-40v8c0 50 -38 82 -111 82z" />
    <glyph glyph-name="ccedilla" unicode="&#xe7;" horiz-adv-x="374" 
d="M303 314c0 50 -38 82 -111 82c-86 0 -123 -45 -123 -146c0 -102 37 -146 123 -146c73 0 111 35 111 92v8h40v-8c0 -115 -52 -196 -137 -204v-13c54 -10 69 -54 69 -96c0 -73 -39 -105 -93 -105c-13 0 -26 1 -41 6v110c11 -3 20 -4 38 -4c31 0 41 8 41 26
c0 15 -9 25 -37 25h-11v51c-93 12 -142 108 -142 258c0 159 56 259 162 259c93 0 151 -78 151 -195v-8h-40v8z" />
    <glyph glyph-name="cacute" unicode="&#x107;" horiz-adv-x="374" 
d="M192 396c-86 0 -123 -45 -123 -146c0 -102 37 -146 123 -146c73 0 111 35 111 92v8h40v-8c0 -121 -58 -205 -151 -205c-106 0 -162 99 -162 259c0 159 56 259 162 259c93 0 151 -78 151 -195v-8h-40v8c0 50 -38 82 -111 82zM179 577l31 173h85l-84 -173h-32z" />
    <glyph glyph-name="ccircumflex" unicode="&#x109;" horiz-adv-x="374" 
d="M303 314c0 50 -38 82 -111 82c-86 0 -123 -45 -123 -146c0 -102 37 -146 123 -146c73 0 111 35 111 92v8h40v-8c0 -121 -58 -205 -151 -205c-106 0 -162 99 -162 259c0 159 56 259 162 259c93 0 151 -78 151 -195v-8h-40v8zM143 577h-90l121 173h29l120 -173h-89l-46 119
z" />
    <glyph glyph-name="cdotaccent" unicode="&#x10b;" horiz-adv-x="374" 
d="M192 396c-86 0 -123 -45 -123 -146c0 -102 37 -146 123 -146c73 0 111 35 111 92v8h40v-8c0 -121 -58 -205 -151 -205c-106 0 -162 99 -162 259c0 159 56 259 162 259c93 0 151 -78 151 -195v-8h-40v8c0 50 -38 82 -111 82zM188 590c-34 0 -52 27 -52 73s18 73 52 73
c33 0 52 -27 52 -73s-21 -73 -52 -73z" />
    <glyph glyph-name="ccaron" unicode="&#x10d;" horiz-adv-x="374" 
d="M303 314c0 50 -38 82 -111 82c-86 0 -123 -45 -123 -146c0 -102 37 -146 123 -146c73 0 111 35 111 92v8h40v-8c0 -121 -58 -205 -151 -205c-106 0 -162 99 -162 259c0 159 56 259 162 259c93 0 151 -78 151 -195v-8h-40v8zM233 750h90l-121 -173h-29l-120 173h89
l46 -119z" />
    <glyph glyph-name="d" unicode="d" horiz-adv-x="402" 
d="M308 97c-19 -68 -58 -106 -125 -106c-99 0 -153 99 -153 259c0 159 54 259 153 259c67 0 106 -38 125 -106v347h40v-750h-40v97zM190 104c78 0 118 44 118 121v50c0 77 -40 121 -118 121c-83 0 -119 -43 -119 -146c0 -104 36 -146 119 -146z" />
    <glyph glyph-name="dcaron" unicode="&#x10f;" horiz-adv-x="478" 
d="M308 97c-19 -68 -58 -106 -125 -106c-99 0 -153 99 -153 259c0 159 54 259 153 259c67 0 106 -38 125 -106v347h40v-750h-40v97zM190 104c78 0 118 44 118 121v50c0 77 -40 121 -118 121c-83 0 -119 -43 -119 -146c0 -104 36 -146 119 -146zM486 699
c0 -17 -3 -41 -16 -65l-36 -57h-32l-9 120c-3 43 15 71 46 71c29 0 47 -26 47 -69z" />
    <glyph glyph-name="e" unicode="e" horiz-adv-x="374" 
d="M30 250c0 159 56 259 162 259c94 0 150 -81 150 -221v-73h-271c8 -79 45 -111 121 -111c69 0 105 21 105 54v4h41v-4c0 -98 -58 -167 -146 -167c-106 0 -162 99 -162 259zM192 396c-66 0 -111 -25 -121 -82h232c0 54 -51 82 -111 82z" />
    <glyph glyph-name="egrave" unicode="&#xe8;" horiz-adv-x="374" 
d="M30 250c0 159 56 259 162 259c94 0 150 -81 150 -221v-73h-271c8 -79 45 -111 121 -111c69 0 105 21 105 54v4h41v-4c0 -98 -58 -167 -146 -167c-106 0 -162 99 -162 259zM192 396c-66 0 -111 -25 -121 -82h232c0 54 -51 82 -111 82zM158 750l46 -173h-32l-99 173h85z
" />
    <glyph glyph-name="eacute" unicode="&#xe9;" horiz-adv-x="374" 
d="M30 250c0 159 56 259 162 259c94 0 150 -81 150 -221v-73h-271c8 -79 45 -111 121 -111c69 0 105 21 105 54v4h41v-4c0 -98 -58 -167 -146 -167c-106 0 -162 99 -162 259zM192 396c-66 0 -111 -25 -121 -82h232c0 54 -51 82 -111 82zM209 577h-32l31 173h86z" />
    <glyph glyph-name="ecircumflex" unicode="&#xea;" horiz-adv-x="374" 
d="M30 250c0 159 56 259 162 259c94 0 150 -81 150 -221v-73h-271c8 -79 45 -111 121 -111c69 0 105 21 105 54v4h41v-4c0 -98 -58 -167 -146 -167c-106 0 -162 99 -162 259zM142 577h-90l122 173h29l120 -173h-89l-46 118zM192 396c-66 0 -111 -25 -121 -82h232
c0 54 -51 82 -111 82z" />
    <glyph glyph-name="edieresis" unicode="&#xeb;" horiz-adv-x="374" 
d="M30 250c0 159 56 259 162 259c94 0 150 -81 150 -221v-73h-271c8 -79 45 -111 121 -111c69 0 105 21 105 54v4h41v-4c0 -98 -58 -167 -146 -167c-106 0 -162 99 -162 259zM192 396c-66 0 -111 -25 -121 -82h232c0 54 -51 82 -111 82zM161 663c0 -46 -19 -73 -50 -73
s-50 27 -50 73s19 73 50 73s50 -27 50 -73zM314 663c0 -46 -19 -73 -50 -73s-49 27 -49 73s18 73 49 73s50 -27 50 -73z" />
    <glyph glyph-name="emacron" unicode="&#x113;" horiz-adv-x="374" 
d="M30 250c0 159 56 259 162 259c94 0 150 -81 150 -221v-73h-271c8 -79 45 -111 121 -111c69 0 105 21 105 54v4h41v-4c0 -98 -58 -167 -146 -167c-106 0 -162 99 -162 259zM323 719v-112h-271v112h271zM192 396c-66 0 -111 -25 -121 -82h232c0 54 -51 82 -111 82z" />
    <glyph glyph-name="ebreve" unicode="&#x115;" horiz-adv-x="374" 
d="M30 250c0 159 56 259 162 259c94 0 150 -81 150 -221v-73h-271c8 -79 45 -111 121 -111c69 0 105 21 105 54v4h41v-4c0 -98 -58 -167 -146 -167c-106 0 -162 99 -162 259zM93 739c0 -43 33 -67 94 -67c65 0 95 24 95 67v11h41v-11c0 -109 -53 -172 -136 -172
s-135 63 -135 172v11h41v-11zM192 396c-66 0 -111 -25 -121 -82h232c0 54 -51 82 -111 82z" />
    <glyph glyph-name="edotaccent" unicode="&#x117;" horiz-adv-x="374" 
d="M30 250c0 159 56 259 162 259c94 0 150 -81 150 -221v-73h-271c8 -79 45 -111 121 -111c69 0 105 21 105 54v4h41v-4c0 -98 -58 -167 -146 -167c-106 0 -162 99 -162 259zM192 396c-66 0 -111 -25 -121 -82h232c0 54 -51 82 -111 82zM239 663c0 -46 -21 -73 -52 -73
c-33 0 -52 27 -52 73s19 73 52 73s52 -27 52 -73z" />
    <glyph glyph-name="eogonek" unicode="&#x119;" horiz-adv-x="374" 
d="M30 250c0 159 56 259 162 259c94 0 150 -81 150 -221v-73h-271c8 -79 45 -111 121 -111c69 0 105 21 105 54v4h41v-4c0 -77 -36 -136 -94 -158c-39 -14 -52 -30 -52 -58s14 -41 43 -41c15 0 26 2 35 4v-109c-11 -4 -21 -6 -38 -6c-52 0 -87 40 -87 117c0 37 8 65 23 86
c-90 14 -138 109 -138 257zM192 396c-66 0 -111 -25 -121 -82h232c0 54 -51 82 -111 82z" />
    <glyph glyph-name="ecaron" unicode="&#x11b;" horiz-adv-x="374" 
d="M30 250c0 159 56 259 162 259c94 0 150 -81 150 -221v-73h-271c8 -79 45 -111 121 -111c69 0 105 21 105 54v4h41v-4c0 -98 -58 -167 -146 -167c-106 0 -162 99 -162 259zM233 750h90l-122 -173h-29l-120 173h89l46 -118zM192 396c-66 0 -111 -25 -121 -82h232
c0 54 -51 82 -111 82z" />
    <glyph glyph-name="f" unicode="f" horiz-adv-x="250" 
d="M204 638c-62 0 -96 -34 -96 -83v-55h125v-112h-125v-388h-40v388h-40v112h40v55c0 115 50 195 136 195h33v-112h-33z" />
    <glyph glyph-name="g" unicode="g" horiz-adv-x="388" 
d="M306 401c8 64 25 99 57 99h9v-112h-9c-27 0 -40 -28 -40 -80c0 -119 -56 -187 -145 -187h-58c-20 0 -33 -12 -33 -35c0 -21 13 -34 33 -34h101c86 0 137 -56 137 -153c0 -99 -67 -156 -176 -156c-110 0 -167 52 -167 149c0 59 20 97 65 112c-19 17 -28 42 -28 69
c0 32 12 64 36 80c-36 27 -55 76 -55 155c0 128 50 201 145 201c70 0 111 -38 128 -108zM178 397c-69 0 -107 -30 -107 -89c0 -58 38 -89 107 -89c70 0 107 31 107 89c0 59 -37 89 -107 89zM319 -101c0 31 -33 47 -98 47h-82c-31 0 -87 -4 -87 -47c0 -34 36 -52 130 -52
c100 0 137 18 137 52z" />
    <glyph glyph-name="gcircumflex" unicode="&#x11d;" horiz-adv-x="388" 
d="M306 401c8 64 25 99 57 99h9v-112h-9c-27 0 -40 -28 -40 -80c0 -119 -56 -187 -145 -187h-58c-20 0 -33 -12 -33 -35c0 -21 13 -34 33 -34h101c86 0 137 -56 137 -153c0 -99 -67 -156 -176 -156c-110 0 -167 52 -167 149c0 59 20 97 65 112c-19 17 -28 42 -28 69
c0 32 12 64 36 80c-36 27 -55 76 -55 155c0 128 50 201 145 201c70 0 111 -38 128 -108zM178 397c-69 0 -107 -30 -107 -89c0 -58 38 -89 107 -89c70 0 107 31 107 89c0 59 -37 89 -107 89zM319 -101c0 31 -33 47 -98 47h-84c-56 0 -85 -16 -85 -47c0 -34 36 -52 130 -52
c100 0 137 18 137 52zM133 577h-90l121 173h29l120 -173h-89l-46 119z" />
    <glyph glyph-name="gbreve" unicode="&#x11f;" horiz-adv-x="388" 
d="M306 401c8 64 25 99 57 99h9v-112h-9c-27 0 -40 -28 -40 -80c0 -119 -56 -187 -145 -187h-58c-20 0 -33 -12 -33 -35c0 -21 13 -34 33 -34h101c86 0 137 -56 137 -153c0 -99 -67 -156 -176 -156c-110 0 -167 52 -167 149c0 59 20 97 65 112c-19 17 -28 42 -28 69
c0 32 12 64 36 80c-36 27 -55 76 -55 155c0 128 50 201 145 201c70 0 111 -38 128 -108zM178 397c-69 0 -107 -30 -107 -89c0 -58 38 -89 107 -89c70 0 107 31 107 89c0 59 -37 89 -107 89zM87 739c0 -43 32 -67 94 -67c65 0 94 24 94 67v11h41v-11
c0 -109 -52 -172 -135 -172s-135 63 -135 172v11h41v-11zM319 -101c0 31 -33 47 -98 47h-82c-31 0 -87 -4 -87 -47c0 -34 36 -52 130 -52c100 0 137 18 137 52z" />
    <glyph glyph-name="gdotaccent" unicode="&#x121;" horiz-adv-x="388" 
d="M306 401c8 64 25 99 57 99h9v-112h-9c-27 0 -40 -28 -40 -80c0 -119 -56 -187 -145 -187h-58c-20 0 -33 -12 -33 -35c0 -21 13 -34 33 -34h101c86 0 137 -56 137 -153c0 -99 -67 -156 -176 -156c-110 0 -167 52 -167 149c0 59 20 97 65 112c-19 17 -28 42 -28 69
c0 32 12 64 36 80c-36 27 -55 76 -55 155c0 128 50 201 145 201c70 0 111 -38 128 -108zM178 397c-69 0 -107 -30 -107 -89c0 -58 38 -89 107 -89c70 0 107 31 107 89c0 59 -37 89 -107 89zM319 -101c0 31 -33 47 -98 47h-82c-31 0 -87 -4 -87 -47c0 -34 36 -52 130 -52
c100 0 137 18 137 52zM231 663c0 -46 -21 -73 -52 -73c-33 0 -52 27 -52 73s19 73 52 73s52 -27 52 -73z" />
    <glyph glyph-name="uni0123" unicode="&#x123;" horiz-adv-x="388" 
d="M306 401c8 64 25 99 57 99h9v-112h-9c-27 0 -40 -28 -40 -80c0 -119 -56 -187 -145 -187h-58c-20 0 -33 -12 -33 -35c0 -21 13 -34 33 -34h101c86 0 137 -56 137 -153c0 -99 -67 -156 -176 -156c-110 0 -167 52 -167 149c0 59 20 97 65 112c-19 17 -28 42 -28 69
c0 32 12 64 36 80c-36 27 -55 76 -55 155c0 128 50 201 145 201c70 0 111 -38 128 -108zM178 397c-69 0 -107 -30 -107 -89c0 -58 38 -89 107 -89c70 0 107 31 107 89c0 59 -37 89 -107 89zM319 -101c0 31 -33 47 -98 47h-82c-31 0 -87 -4 -87 -47c0 -34 36 -52 130 -52
c100 0 137 18 137 52zM129 658c0 18 3 42 17 66l35 56h32l9 -119c4 -43 -15 -72 -46 -72c-29 0 -47 26 -47 69z" />
    <glyph glyph-name="h" unicode="h" 
d="M95 405c18 67 55 104 115 104c89 0 135 -71 135 -205v-304h-40v304c0 61 -35 93 -102 93c-71 0 -108 -44 -108 -122v-275h-41v750h41v-345z" />
    <glyph glyph-name="hcircumflex" unicode="&#x125;" 
d="M95 405c18 67 55 104 115 104c89 0 135 -71 135 -205v-304h-40v304c0 61 -35 93 -102 93c-71 0 -108 -44 -108 -122v-275h-41v750h41v-345zM155 807h-90l121 173h29l120 -173h-89l-46 119z" />
    <glyph glyph-name="i" unicode="i" horiz-adv-x="154" 
d="M97 500v-500h-40v500h40zM77 590c-33 0 -52 27 -52 73s19 73 52 73s52 -27 52 -73s-21 -73 -52 -73z" />
    <glyph glyph-name="igrave" unicode="&#xec;" horiz-adv-x="154" 
d="M97 500v-500h-40v500h40zM90 577h-32l-80 173h86z" />
    <glyph glyph-name="iacute" unicode="&#xed;" horiz-adv-x="154" 
d="M97 500v-500h-40v500h40zM61 577l31 173h85l-84 -173h-32z" />
    <glyph glyph-name="icircumflex" unicode="&#xee;" horiz-adv-x="154" 
d="M57 500h40v-500h-40v500zM42 577h-86l107 173h29l105 -173h-84l-36 126z" />
    <glyph glyph-name="idieresis" unicode="&#xef;" horiz-adv-x="154" 
d="M97 500v-500h-40v500h40zM21 590c-34 0 -52 27 -52 73s18 73 52 73c33 0 52 -27 52 -73s-21 -73 -52 -73zM134 590c-33 0 -52 27 -52 73s19 73 52 73s52 -27 52 -73s-21 -73 -52 -73z" />
    <glyph glyph-name="itilde" unicode="&#x129;" horiz-adv-x="154" 
d="M97 500v-500h-40v500h40zM12 567c-51 0 -75 49 -64 170l2 13h75l-1 -23c-5 -41 6 -60 22 -60c28 0 39 93 95 93c51 0 79 -50 63 -169l-2 -14h-74l2 24c5 41 -7 60 -23 60c-28 0 -39 -94 -95 -94z" />
    <glyph glyph-name="imacron" unicode="&#x12b;" horiz-adv-x="154" 
d="M97 500v-500h-40v500h40zM182 607h-211v112h211v-112z" />
    <glyph glyph-name="ibreve" unicode="&#x12d;" horiz-adv-x="154" 
d="M97 500v-500h-40v500h40zM77 672c51 0 74 24 74 67v11h41v-11c0 -109 -44 -172 -115 -172s-116 63 -116 172v11h42v-11c0 -43 25 -67 74 -67z" />
    <glyph glyph-name="iogonek" unicode="&#x12f;" horiz-adv-x="154" 
d="M-2 -93c0 59 21 95 59 117v476h40v-501c-39 -14 -51 -29 -51 -58c0 -28 14 -40 42 -40c16 0 26 1 36 4v-110c-12 -4 -22 -6 -39 -6c-52 0 -87 41 -87 118zM129 663c0 -46 -21 -73 -52 -73c-33 0 -52 27 -52 73s19 73 52 73s52 -27 52 -73z" />
    <glyph glyph-name="j" unicode="j" horiz-adv-x="149" 
d="M-105 -77h40c0 -50 21 -68 60 -68s60 21 60 71v574h40v-579c0 -116 -36 -178 -100 -178s-100 65 -100 180zM73 590c-33 0 -52 27 -52 73s19 73 52 73s52 -27 52 -73s-21 -73 -52 -73z" />
    <glyph glyph-name="jcircumflex" unicode="&#x135;" horiz-adv-x="149" 
d="M-6 -257c-63 0 -100 65 -100 180h41c0 -50 20 -68 59 -68c40 0 60 21 60 71v574h41v-579c0 -116 -37 -178 -101 -178zM30 577h-90l122 173h29l120 -173h-89l-46 118z" />
    <glyph glyph-name="k" unicode="k" horiz-adv-x="367" 
d="M95 0h-41v750h41v-439h51l112 189h83l-145 -245l154 -255h-51l-120 199h-84v-199z" />
    <glyph glyph-name="uni0137" unicode="&#x137;" horiz-adv-x="367" 
d="M95 0h-41v750h41v-439h51l112 189h83l-145 -245l154 -255h-51l-120 199h-84v-199zM243 -135c0 -18 -3 -42 -16 -66l-36 -56h-32l-9 119c-3 43 15 72 46 72c29 0 47 -26 47 -69z" />
    <glyph glyph-name="l" unicode="l" horiz-adv-x="149" 
d="M95 750v-750h-41v750h41z" />
    <glyph glyph-name="lacute" unicode="&#x13a;" horiz-adv-x="149" 
d="M95 750v-750h-41v750h41zM59 780l31 173h86l-85 -173h-32z" />
    <glyph glyph-name="uni013C" unicode="&#x13c;" horiz-adv-x="149" 
d="M95 750v-750h-41v750h41zM71 -257h-31l-9 119c-4 43 15 72 45 72s47 -26 47 -69c0 -18 -2 -42 -16 -66z" />
    <glyph glyph-name="lcaron" unicode="&#x13e;" horiz-adv-x="224" 
d="M95 750v-750h-41v750h41zM180 576h-31l-9 120c-4 43 15 71 45 71s47 -26 47 -69c0 -17 -2 -41 -16 -65z" />
    <glyph glyph-name="m" unicode="m" horiz-adv-x="588" 
d="M95 410c17 64 49 99 101 99c54 0 90 -33 107 -97c19 63 55 97 114 97c79 0 119 -71 119 -205v-304h-40v304c0 61 -27 93 -87 93c-62 0 -94 -44 -94 -122v-275h-40v304c0 61 -27 93 -87 93c-62 0 -93 -44 -93 -122v-275h-41v500h41v-90z" />
    <glyph glyph-name="n" unicode="n" 
d="M95 405c18 67 55 104 115 104c89 0 135 -71 135 -205v-304h-40v304c0 61 -35 93 -102 93c-71 0 -108 -44 -108 -122v-275h-41v500h41v-95z" />
    <glyph glyph-name="ntilde" unicode="&#xf1;" 
d="M95 406c18 67 55 104 115 104c89 0 135 -71 135 -205v-304h-40v304c0 61 -35 93 -102 93c-71 0 -108 -44 -108 -122v-275h-41v500h41v-95zM240 661c-47 0 -47 -93 -115 -93c-51 0 -75 49 -63 169l1 14h75l-1 -24c-5 -41 6 -60 22 -60c47 0 47 94 115 94
c51 0 79 -50 63 -170l-2 -13h-74l2 23c5 41 -7 60 -23 60z" />
    <glyph glyph-name="nacute" unicode="&#x144;" 
d="M95 405c18 67 55 104 115 104c89 0 135 -71 135 -205v-304h-40v304c0 61 -35 93 -102 93c-71 0 -108 -44 -108 -122v-275h-41v500h41v-95zM231 577h-32l31 173h86z" />
    <glyph glyph-name="uni0146" unicode="&#x146;" 
d="M95 405c18 67 55 104 115 104c89 0 135 -71 135 -205v-304h-40v304c0 61 -35 93 -102 93c-71 0 -108 -44 -108 -122v-275h-41v500h41v-95zM247 -132c0 -17 -2 -41 -16 -65l-36 -57h-31l-9 120c-4 43 15 71 45 71s47 -26 47 -69z" />
    <glyph glyph-name="ncaron" unicode="&#x148;" 
d="M95 405c18 67 55 104 115 104c89 0 135 -71 135 -205v-304h-40v304c0 61 -35 93 -102 93c-71 0 -108 -44 -108 -122v-275h-41v500h41v-95zM245 750h90l-121 -173h-29l-120 173h89l46 -119z" />
    <glyph glyph-name="o" unicode="o" horiz-adv-x="382" 
d="M192 509c104 0 160 -100 160 -259c0 -160 -56 -259 -160 -259c-106 0 -162 99 -162 259c0 159 56 259 162 259zM192 104c84 0 121 44 121 146c0 101 -37 146 -121 146c-86 0 -123 -45 -123 -146c0 -102 37 -146 123 -146z" />
    <glyph glyph-name="ograve" unicode="&#xf2;" horiz-adv-x="382" 
d="M192 509c104 0 160 -100 160 -259c0 -160 -56 -259 -160 -259c-106 0 -162 99 -162 259c0 159 56 259 162 259zM192 104c84 0 121 44 121 146c0 101 -37 146 -121 146c-86 0 -123 -45 -123 -146c0 -102 37 -146 123 -146zM206 577h-32l-99 173h85z" />
    <glyph glyph-name="oacute" unicode="&#xf3;" horiz-adv-x="382" 
d="M192 509c104 0 160 -100 160 -259c0 -160 -56 -259 -160 -259c-106 0 -162 99 -162 259c0 159 56 259 162 259zM192 104c84 0 121 44 121 146c0 101 -37 146 -121 146c-86 0 -123 -45 -123 -146c0 -102 37 -146 123 -146zM180 577l31 173h85l-84 -173h-32z" />
    <glyph glyph-name="ocircumflex" unicode="&#xf4;" horiz-adv-x="382" 
d="M30 250c0 159 56 259 162 259c104 0 160 -100 160 -259c0 -160 -56 -259 -160 -259c-106 0 -162 99 -162 259zM69 250c0 -102 37 -146 123 -146c84 0 121 44 121 146c0 101 -37 146 -121 146c-86 0 -123 -45 -123 -146zM146 577h-90l122 173h29l120 -173h-89l-46 118z
" />
    <glyph glyph-name="otilde" unicode="&#xf5;" horiz-adv-x="382" 
d="M192 509c104 0 160 -100 160 -259c0 -160 -56 -259 -160 -259c-106 0 -162 99 -162 259c0 159 56 259 162 259zM192 104c84 0 121 44 121 146c0 101 -37 146 -121 146c-86 0 -123 -45 -123 -146c0 -102 37 -146 123 -146zM117 567c-51 0 -75 49 -63 170l1 13h75l-1 -23
c-5 -41 6 -60 22 -60c47 0 47 93 115 93c51 0 79 -50 63 -169l-2 -14h-74l2 24c5 41 -7 60 -23 60c-47 0 -47 -94 -115 -94z" />
    <glyph glyph-name="odieresis" unicode="&#xf6;" horiz-adv-x="382" 
d="M192 509c104 0 160 -100 160 -259c0 -160 -56 -259 -160 -259c-106 0 -162 99 -162 259c0 159 56 259 162 259zM192 104c84 0 121 44 121 146c0 101 -37 146 -121 146c-86 0 -123 -45 -123 -146c0 -102 37 -146 123 -146zM115 590c-31 0 -49 27 -49 73s18 73 49 73
s50 -27 50 -73s-19 -73 -50 -73zM268 590c-31 0 -49 27 -49 73s18 73 49 73s50 -27 50 -73s-19 -73 -50 -73z" />
    <glyph glyph-name="omacron" unicode="&#x14d;" horiz-adv-x="382" 
d="M192 509c104 0 160 -100 160 -259c0 -160 -56 -259 -160 -259c-106 0 -162 99 -162 259c0 159 56 259 162 259zM192 104c84 0 121 44 121 146c0 101 -37 146 -121 146c-86 0 -123 -45 -123 -146c0 -102 37 -146 123 -146zM327 607h-270v112h270v-112z" />
    <glyph glyph-name="obreve" unicode="&#x14f;" horiz-adv-x="382" 
d="M192 509c104 0 160 -100 160 -259c0 -160 -56 -259 -160 -259c-106 0 -162 99 -162 259c0 159 56 259 162 259zM192 104c84 0 121 44 121 146c0 101 -37 146 -121 146c-86 0 -123 -45 -123 -146c0 -102 37 -146 123 -146zM192 672c65 0 94 24 94 67v11h41v-11
c0 -109 -52 -172 -135 -172s-135 63 -135 172v11h41v-11c0 -43 32 -67 94 -67z" />
    <glyph glyph-name="ohungarumlaut" unicode="&#x151;" horiz-adv-x="382" 
d="M192 509c104 0 160 -100 160 -259c0 -160 -56 -259 -160 -259c-106 0 -162 99 -162 259c0 159 56 259 162 259zM192 104c84 0 121 44 121 146c0 101 -37 146 -121 146c-86 0 -123 -45 -123 -146c0 -102 37 -146 123 -146zM133 577h-33l19 173h85zM272 577h-33l32 173h85z
" />
    <glyph glyph-name="p" unicode="p" horiz-adv-x="403" 
d="M95 403c19 68 58 106 125 106c100 0 153 -99 153 -259c0 -159 -53 -259 -153 -259c-67 0 -106 38 -125 106v-347h-41v750h41v-97zM213 396c-78 0 -118 -44 -118 -121v-50c0 -77 40 -121 118 -121c83 0 119 43 119 146c0 104 -36 146 -119 146z" />
    <glyph glyph-name="q" unicode="q" horiz-adv-x="402" 
d="M30 250c0 160 54 259 153 259c67 0 106 -38 125 -106v97h40v-750h-40v347c-19 -68 -58 -106 -125 -106c-99 0 -153 100 -153 259zM190 104c78 0 118 44 118 121v50c0 77 -40 121 -118 121c-83 0 -119 -42 -119 -146c0 -103 36 -146 119 -146z" />
    <glyph glyph-name="r" unicode="r" horiz-adv-x="260" 
d="M95 382c19 82 58 127 123 127h23v-113h-23c-83 0 -123 -62 -123 -168v-228h-41v500h41v-118z" />
    <glyph glyph-name="racute" unicode="&#x155;" horiz-adv-x="260" 
d="M95 382c19 82 58 127 123 127h23v-113h-23c-83 0 -123 -62 -123 -168v-228h-41v500h41v-118zM149 577h-32l31 173h86z" />
    <glyph glyph-name="uni0157" unicode="&#x157;" horiz-adv-x="260" 
d="M95 382c19 82 58 127 123 127h23v-113h-23c-83 0 -123 -62 -123 -168v-228h-41v500h41v-118zM124 -135c0 -18 -2 -42 -16 -66l-36 -56h-31l-9 119c-4 43 15 72 45 72s47 -26 47 -69z" />
    <glyph glyph-name="rcaron" unicode="&#x159;" horiz-adv-x="260" 
d="M95 382c19 82 58 127 123 127h23v-113h-23c-83 0 -123 -62 -123 -168v-228h-41v500h41v-118zM196 750h90l-121 -173h-29l-120 173h89l46 -119z" />
    <glyph glyph-name="s" unicode="s" horiz-adv-x="347" 
d="M274 155c0 111 -237 41 -237 190c0 86 42 164 137 164c85 0 137 -61 137 -164v-11h-41v11c0 40 -32 51 -96 51c-78 0 -97 -19 -97 -51c0 -111 237 -41 237 -190c0 -84 -43 -164 -141 -164c-87 0 -141 67 -141 164v18h41v-18c0 -37 34 -51 100 -51c79 0 101 21 101 51z
" />
    <glyph glyph-name="sacute" unicode="&#x15b;" horiz-adv-x="347" 
d="M274 155c0 111 -237 41 -237 190c0 86 42 164 137 164c85 0 137 -61 137 -164v-11h-41v11c0 40 -32 51 -96 51c-78 0 -97 -19 -97 -51c0 -111 237 -41 237 -190c0 -84 -43 -164 -141 -164c-87 0 -141 67 -141 164v18h41v-18c0 -37 34 -51 100 -51c79 0 101 21 101 51z
M160 577l31 173h86l-85 -173h-32z" />
    <glyph glyph-name="scircumflex" unicode="&#x15d;" horiz-adv-x="347" 
d="M173 104c79 0 101 21 101 51c0 111 -237 41 -237 190c0 86 42 164 137 164c85 0 137 -61 137 -164v-11h-41v11c0 40 -32 51 -96 51c-78 0 -97 -19 -97 -51c0 -111 237 -41 237 -190c0 -84 -43 -164 -141 -164c-87 0 -141 67 -141 164v18h41v-18c0 -37 34 -51 100 -51z
M127 577h-90l122 173h29l120 -173h-89l-46 118z" />
    <glyph glyph-name="scedilla" unicode="&#x15f;" horiz-adv-x="347" 
d="M173 104c79 0 101 21 101 51c0 111 -237 41 -237 190c0 86 42 164 137 164c85 0 137 -61 137 -164v-11h-41v11c0 40 -32 51 -96 51c-78 0 -97 -19 -97 -51c0 -111 237 -41 237 -190c0 -82 -41 -160 -134 -164v-12c54 -10 69 -54 69 -96c0 -73 -39 -105 -93 -105
c-13 0 -26 1 -41 6v110c11 -3 20 -4 38 -4c31 0 41 8 41 26c0 15 -9 25 -37 25h-11v52c-71 13 -114 75 -114 162v18h41v-18c0 -37 34 -51 100 -51z" />
    <glyph glyph-name="scaron" unicode="&#x161;" horiz-adv-x="347" 
d="M173 104c79 0 101 21 101 51c0 111 -237 41 -237 190c0 86 42 164 137 164c85 0 137 -61 137 -164v-11h-41v11c0 40 -32 51 -96 51c-78 0 -97 -19 -97 -51c0 -111 237 -41 237 -190c0 -84 -43 -164 -141 -164c-87 0 -141 67 -141 164v18h41v-18c0 -37 34 -51 100 -51z
M218 750h90l-121 -173h-29l-120 173h89l46 -119z" />
    <glyph glyph-name="uni0219" unicode="&#x219;" horiz-adv-x="347" 
d="M274 155c0 111 -237 41 -237 190c0 86 42 164 137 164c85 0 137 -61 137 -164v-11h-41v11c0 40 -32 51 -96 51c-78 0 -97 -19 -97 -51c0 -111 237 -41 237 -190c0 -84 -43 -164 -141 -164c-87 0 -141 67 -141 164v18h41v-18c0 -37 34 -51 100 -51c79 0 101 21 101 51z
M170 -254h-31l-9 120c-4 43 15 71 45 71s47 -26 47 -69c0 -17 -2 -41 -16 -65z" />
    <glyph glyph-name="t" unicode="t" horiz-adv-x="315" 
d="M180 104c48 0 73 15 73 65h40c0 -111 -40 -178 -113 -178c-72 0 -113 62 -113 178v219h-39v112h39l9 107h32v-107h141v-112h-141v-219c0 -50 26 -65 72 -65z" />
    <glyph glyph-name="uni0163" unicode="&#x163;" horiz-adv-x="315" 
d="M180 104c48 0 73 15 73 65h40c0 -111 -40 -178 -113 -178c-72 0 -113 62 -113 178v219h-39v112h39l9 107h32v-107h141v-112h-141v-219c0 -50 26 -65 72 -65zM226 -132c0 -17 -3 -41 -16 -65l-36 -57h-32l-9 120c-3 43 15 71 46 71c29 0 47 -26 47 -69z" />
    <glyph glyph-name="tcaron" unicode="&#x165;" horiz-adv-x="316" 
d="M180 104c48 0 73 15 73 65h40c0 -111 -40 -178 -113 -178c-72 0 -113 62 -113 178v219h-39v112h39l9 107h32v-107h141v-112h-141v-219c0 -50 26 -65 72 -65zM301 699c0 -17 -3 -41 -16 -65l-36 -57h-32l-9 120c-3 43 15 71 46 71c29 0 47 -26 47 -69z" />
    <glyph glyph-name="u" unicode="u" 
d="M303 96c-18 -68 -55 -105 -116 -105c-89 0 -135 71 -135 205v304h40v-304c0 -60 35 -92 102 -92c72 0 109 44 109 121v275h40v-500h-40v96z" />
    <glyph glyph-name="ugrave" unicode="&#xf9;" 
d="M303 96c-18 -68 -55 -105 -116 -105c-89 0 -135 71 -135 205v304h40v-304c0 -60 35 -92 102 -92c72 0 109 44 109 121v275h40v-500h-40v96zM168 750l46 -173h-32l-99 173h85z" />
    <glyph glyph-name="uacute" unicode="&#xfa;" 
d="M303 96c-18 -68 -55 -105 -116 -105c-89 0 -135 71 -135 205v304h40v-304c0 -60 35 -92 102 -92c72 0 109 44 109 121v275h40v-500h-40v96zM212 577h-32l31 173h85z" />
    <glyph glyph-name="ucircumflex" unicode="&#xfb;" 
d="M303 96c-18 -68 -55 -105 -116 -105c-89 0 -135 71 -135 205v304h40v-304c0 -60 35 -92 102 -92c72 0 109 44 109 121v275h40v-500h-40v96zM152 577h-90l121 173h29l120 -173h-89l-46 119z" />
    <glyph glyph-name="udieresis" unicode="&#xfc;" 
d="M303 96c-18 -68 -55 -105 -116 -105c-89 0 -135 71 -135 205v304h40v-304c0 -60 35 -92 102 -92c72 0 109 44 109 121v275h40v-500h-40v96zM171 663c0 -46 -19 -73 -50 -73s-50 27 -50 73s19 73 50 73s50 -27 50 -73zM324 663c0 -46 -19 -73 -50 -73s-49 27 -49 73
s18 73 49 73s50 -27 50 -73z" />
    <glyph glyph-name="utilde" unicode="&#x169;" horiz-adv-x="396" 
d="M301 95c-18 -67 -55 -104 -116 -104c-88 0 -134 71 -134 205v304h40v-304c0 -60 35 -92 102 -92c71 0 108 44 108 121v275h41v-500h-41v95zM236 661c-47 0 -47 -94 -115 -94c-51 0 -75 49 -63 170l1 13h75l-1 -23c-5 -41 6 -60 22 -60c47 0 47 93 115 93
c51 0 79 -50 63 -169l-2 -14h-74l2 24c5 41 -7 60 -23 60z" />
    <glyph glyph-name="umacron" unicode="&#x16b;" 
d="M303 96c-18 -68 -55 -105 -116 -105c-89 0 -135 71 -135 205v304h40v-304c0 -60 35 -92 102 -92c72 0 109 44 109 121v275h40v-500h-40v96zM333 719v-112h-271v112h271z" />
    <glyph glyph-name="ubreve" unicode="&#x16d;" 
d="M303 96c-18 -68 -55 -105 -116 -105c-89 0 -135 71 -135 205v304h40v-304c0 -60 35 -92 102 -92c72 0 109 44 109 121v275h40v-500h-40v96zM103 739c0 -43 33 -67 94 -67c65 0 95 24 95 67v11h41v-11c0 -109 -53 -172 -136 -172s-135 63 -135 172v11h41v-11z" />
    <glyph glyph-name="uring" unicode="&#x16f;" 
d="M303 715c0 -99 -38 -159 -106 -159s-107 60 -107 159c0 100 39 159 107 159s106 -59 106 -159zM303 96c-18 -68 -55 -105 -116 -105c-89 0 -135 71 -135 205v304h40v-304c0 -60 35 -92 102 -92c72 0 109 44 109 121v275h40v-500h-40v96zM123 715c0 -38 27 -61 74 -61
s73 23 73 61s-26 61 -73 61s-74 -23 -74 -61z" />
    <glyph glyph-name="uhungarumlaut" unicode="&#x171;" 
d="M303 96c-18 -68 -55 -105 -116 -105c-89 0 -135 71 -135 205v304h40v-304c0 -60 35 -92 102 -92c72 0 109 44 109 121v275h40v-500h-40v96zM290 750h85l-84 -173h-33zM223 750l-71 -173h-33l19 173h85z" />
    <glyph glyph-name="uogonek" unicode="&#x173;" 
d="M303 96c-18 -68 -55 -105 -116 -105c-89 0 -135 71 -135 205v304h40v-304c0 -60 35 -92 102 -92c72 0 109 44 109 121v275h40v-500c-39 -14 -51 -30 -51 -58s14 -41 42 -41c16 0 26 2 36 4v-109c-12 -4 -22 -6 -39 -6c-52 0 -87 40 -87 117c0 59 21 95 59 118v71z" />
    <glyph glyph-name="v" unicode="v" horiz-adv-x="346" 
d="M208 0h-70l-126 500h41l82 -301l18 -91h2l17 91l82 301h80z" />
    <glyph glyph-name="w" unicode="w" horiz-adv-x="526" 
d="M511 500l-93 -500h-67l-72 325l-13 78h-3l-12 -78l-73 -325h-69l-94 500h38l72 -390h3l14 77l70 313h67l69 -313l15 -77h2l13 77l58 313h75z" />
    <glyph glyph-name="wcircumflex" unicode="&#x175;" horiz-adv-x="526" 
d="M436 500h75l-93 -500h-67l-72 325l-13 78h-3l-12 -78l-73 -325h-69l-94 500h38l72 -390h3l14 77l70 313h67l69 -313l15 -77h2l13 77zM215 577h-90l121 173h29l120 -173h-89l-46 119z" />
    <glyph glyph-name="wgrave" unicode="&#x1e81;" horiz-adv-x="526" 
d="M511 500l-93 -500h-67l-72 325l-13 78h-3l-12 -78l-73 -325h-69l-94 500h38l72 -390h3l14 77l70 313h67l69 -313l15 -77h2l13 77l58 313h75zM266 577h-32l-99 173h85z" />
    <glyph glyph-name="wacute" unicode="&#x1e83;" horiz-adv-x="526" 
d="M511 500l-93 -500h-67l-72 325l-13 78h-3l-12 -78l-73 -325h-69l-94 500h38l72 -390h3l14 77l70 313h67l69 -313l15 -77h2l13 77l58 313h75zM243 577l31 173h86l-85 -173h-32z" />
    <glyph glyph-name="wdieresis" unicode="&#x1e85;" horiz-adv-x="526" 
d="M511 500l-93 -500h-67l-72 325l-13 78h-3l-12 -78l-73 -325h-69l-94 500h38l72 -390h3l14 77l70 313h67l69 -313l15 -77h2l13 77l58 313h75zM184 590c-31 0 -50 27 -50 73s19 73 50 73s50 -27 50 -73s-19 -73 -50 -73zM337 590c-31 0 -49 27 -49 73s18 73 49 73
s50 -27 50 -73s-19 -73 -50 -73z" />
    <glyph glyph-name="x" unicode="x" horiz-adv-x="355" 
d="M329 500l-114 -253l122 -247h-46l-74 136l-26 65h-2l-22 -65l-63 -136h-86l122 270l-113 230h46l66 -118l25 -63h2l21 63l56 118h86z" />
    <glyph glyph-name="y" unicode="y" horiz-adv-x="348" 
d="M338 500l-145 -553c-44 -167 -73 -204 -126 -204h-16v112h16c25 0 65 6 87 92l13 49l-153 504h42l87 -276l21 -85h3l18 85l73 276h80z" />
    <glyph glyph-name="yacute" unicode="&#xfd;" horiz-adv-x="348" 
d="M338 500l-145 -553c-44 -167 -73 -204 -126 -204h-16v112h16c25 0 65 6 87 92l13 49l-153 504h42l87 -276l21 -85h3l18 85l73 276h80zM155 577l31 173h86l-85 -173h-32z" />
    <glyph glyph-name="ydieresis" unicode="&#xff;" horiz-adv-x="348" 
d="M338 500l-145 -553c-44 -167 -73 -204 -126 -204h-16v112h16c25 0 65 6 87 92l13 49l-153 504h42l87 -276l21 -85h3l18 85l73 276h80zM98 590c-31 0 -49 27 -49 73s18 73 49 73s50 -27 50 -73s-19 -73 -50 -73zM251 590c-31 0 -49 27 -49 73s18 73 49 73s50 -27 50 -73
s-19 -73 -50 -73z" />
    <glyph glyph-name="ycircumflex" unicode="&#x177;" horiz-adv-x="348" 
d="M67 -145c25 0 65 6 87 92l13 49l-153 504h42l87 -276l21 -85h3l18 85l73 276h80l-145 -553c-44 -167 -73 -204 -126 -204h-16v112h16zM131 577h-90l121 173h29l120 -173h-89l-46 119z" />
    <glyph glyph-name="ygrave" unicode="&#x1ef3;" horiz-adv-x="348" 
d="M338 500l-145 -553c-44 -167 -73 -204 -126 -204h-16v112h16c25 0 65 6 87 92l13 49l-153 504h42l87 -276l21 -85h3l18 85l73 276h80zM195 577h-32l-99 173h85z" />
    <glyph glyph-name="z" unicode="z" horiz-adv-x="315" 
d="M276 500v-106l-188 -282h193v-112h-247v106l188 282h-180v112h234z" />
    <glyph glyph-name="zacute" unicode="&#x17a;" horiz-adv-x="315" 
d="M276 500v-106l-188 -282h193v-112h-247v106l188 282h-180v112h234zM174 577h-32l31 173h85z" />
    <glyph glyph-name="zdotaccent" unicode="&#x17c;" horiz-adv-x="315" 
d="M276 500v-106l-188 -282h193v-112h-247v106l188 282h-180v112h234zM212 663c0 -46 -21 -73 -52 -73c-33 0 -52 27 -52 73s19 73 52 73s52 -27 52 -73z" />
    <glyph glyph-name="zcaron" unicode="&#x17e;" horiz-adv-x="315" 
d="M276 500v-106l-188 -282h193v-112h-247v106l188 282h-180v112h234zM202 750h90l-121 -173h-29l-120 173h89l46 -119z" />
    <glyph glyph-name="ordfeminine" unicode="&#xaa;" horiz-adv-x="274" 
d="M138 712c65 0 106 -50 106 -132v-231h-36v68c-15 -49 -49 -80 -99 -80c-53 0 -85 42 -85 112c0 69 38 110 98 110h86v21c0 22 -26 33 -70 33c-47 0 -72 -11 -72 -33v-8h-35v8c0 82 41 132 107 132zM60 452c0 -19 21 -30 60 -30c53 0 88 18 88 60h-88
c-39 0 -60 -10 -60 -30z" />
    <glyph glyph-name="ordmasculine" unicode="&#xba;" horiz-adv-x="293" 
d="M147 437c59 0 87 27 87 87c0 61 -28 88 -87 88c-60 0 -88 -27 -88 -88c0 -60 28 -87 88 -87zM147 712c80 0 123 -72 123 -188c0 -115 -43 -187 -123 -187c-79 0 -124 72 -124 187c0 116 45 188 124 188z" />
    <glyph glyph-name="germandbls" unicode="&#xdf;" horiz-adv-x="423" 
d="M54 555c0 115 53 195 138 195h194v-112l-110 -135c76 -25 117 -118 117 -253c0 -160 -57 -259 -160 -259h-42v113h42c80 0 119 44 119 146c0 101 -39 146 -119 146h-42v113h35l106 129h-140c-65 0 -97 -34 -97 -83v-555h-41v555z" />
    <glyph glyph-name="ae" unicode="&#xe6;" horiz-adv-x="589" 
d="M553 158c0 -98 -52 -167 -133 -167c-62 0 -104 40 -127 110c-21 -67 -70 -110 -145 -110c-68 0 -110 58 -110 155c0 95 42 151 110 151h126v50c0 34 -34 50 -92 50c-60 0 -93 -15 -93 -45v-12h-41v12c0 98 51 157 134 157c60 0 103 -29 121 -82c25 52 64 82 117 82
c86 0 137 -81 137 -221v-85h-240c9 -70 41 -99 103 -99c60 0 92 21 92 54v6h41v-6zM420 396c-60 0 -101 -28 -105 -94h201v6c0 58 -44 88 -96 88zM79 150c0 -31 26 -47 74 -47c73 0 120 28 120 94h-120c-48 0 -74 -15 -74 -47z" />
    <glyph glyph-name="aeacute" unicode="&#x1fd;" horiz-adv-x="589" 
d="M553 158c0 -98 -52 -167 -133 -167c-62 0 -104 40 -127 110c-21 -67 -70 -110 -145 -110c-68 0 -110 58 -110 155c0 95 42 151 110 151h126v50c0 34 -34 50 -92 50c-60 0 -93 -15 -93 -45v-12h-41v12c0 98 51 157 134 157c60 0 103 -29 121 -82c25 52 64 82 117 82
c86 0 137 -81 137 -221v-85h-240c9 -70 41 -99 103 -99c60 0 92 21 92 54v6h41v-6zM420 396c-60 0 -101 -28 -105 -94h201v6c0 58 -44 88 -96 88zM79 150c0 -31 26 -47 74 -47c73 0 120 28 120 94h-120c-48 0 -74 -15 -74 -47zM321 577h-32l31 173h86z" />
    <glyph glyph-name="eth" unicode="&#xf0;" horiz-adv-x="391" 
d="M361 230c0 -148 -58 -239 -162 -239s-161 91 -161 239c0 135 57 219 161 219c24 0 45 -3 64 -10l-73 135l-77 -80l-24 99l58 60l-53 97h48l34 -66l63 66l24 -99l-46 -48l78 -152c53 -94 66 -145 66 -221zM320 230c0 86 -39 126 -121 126c-81 0 -121 -39 -121 -126
c0 -88 40 -126 121 -126c85 0 121 38 121 126z" />
    <glyph glyph-name="oslash" unicode="&#xf8;" horiz-adv-x="404" 
d="M37 250c0 159 58 259 166 259c43 0 78 -15 104 -45l22 36h45l-43 -72c24 -44 36 -104 36 -178c0 -160 -57 -259 -164 -259c-44 0 -80 16 -106 46l-22 -37h-45l43 72c-24 44 -36 105 -36 178zM78 250c0 -48 12 -81 38 -103l-14 -26l160 267c-16 5 -36 8 -59 8
c-87 0 -125 -45 -125 -146zM326 250c0 48 -12 82 -38 104l10 18l-155 -259c16 -6 36 -9 60 -9c85 0 123 44 123 146z" />
    <glyph glyph-name="oslashacute" unicode="&#x1ff;" horiz-adv-x="404" 
d="M37 250c0 159 58 259 166 259c43 0 78 -15 104 -45l22 36h45l-43 -72c24 -44 36 -104 36 -178c0 -160 -57 -259 -164 -259c-44 0 -80 16 -106 46l-22 -37h-45l43 72c-24 44 -36 105 -36 178zM78 250c0 -48 12 -81 38 -103l-14 -26l160 267c-16 5 -36 8 -59 8
c-87 0 -125 -45 -125 -146zM326 250c0 48 -12 82 -38 104l10 18l-155 -259c16 -6 36 -9 60 -9c85 0 123 44 123 146zM215 577h-32l31 173h86z" />
    <glyph glyph-name="thorn" unicode="&#xfe;" horiz-adv-x="403" 
d="M95 403c19 68 58 106 124 106c100 0 154 -99 154 -259c0 -159 -54 -259 -154 -259c-66 0 -105 38 -124 106v-347h-41v1000h41v-347zM213 396c-78 0 -118 -44 -118 -121v-50c0 -77 40 -121 118 -121c83 0 119 43 119 146c0 104 -36 146 -119 146z" />
    <glyph glyph-name="dcroat" unicode="&#x111;" horiz-adv-x="402" 
d="M308 97c-19 -68 -58 -106 -125 -106c-99 0 -153 99 -153 259c0 159 54 259 153 259c67 0 106 -38 125 -106v161h-117v112h117v74h40v-74h43v-112h-43v-564h-40v97zM190 104c78 0 118 44 118 121v50c0 77 -40 121 -118 121c-83 0 -119 -43 -119 -146
c0 -104 36 -146 119 -146z" />
    <glyph glyph-name="hbar" unicode="&#x127;" 
d="M95 405c18 67 55 104 115 104c89 0 135 -71 135 -205v-304h-40v304c0 61 -35 93 -102 93c-71 0 -108 -44 -108 -122v-275h-41v575h-40v101h40v74h41v-74h135v-101h-135v-170z" />
    <glyph glyph-name="dotlessi" unicode="&#x131;" horiz-adv-x="149" 
d="M95 500v-500h-41v500h41z" />
    <glyph glyph-name="ij" unicode="&#x133;" horiz-adv-x="312" 
d="M97 500v-500h-40v500h40zM57 -77h40c0 -50 21 -68 60 -68s59 21 59 71v574h41v-579c0 -116 -37 -178 -100 -178c-64 0 -100 65 -100 180zM77 590c-33 0 -52 27 -52 73s19 73 52 73s52 -27 52 -73s-21 -73 -52 -73zM235 590c-34 0 -52 27 -52 73s18 73 52 73
c33 0 52 -27 52 -73s-21 -73 -52 -73z" />
    <glyph glyph-name="ldot" unicode="&#x140;" horiz-adv-x="219" 
d="M95 750v-750h-41v750h41zM134 250c0 46 17 73 49 73s50 -27 50 -73s-18 -73 -50 -73s-49 27 -49 73z" />
    <glyph glyph-name="lslash" unicode="&#x142;" horiz-adv-x="149" 
d="M95 444l55 58v-132l-55 -58v-312h-41v270l-55 -58v132l55 58v348h41v-306z" />
    <glyph glyph-name="napostrophe" unicode="&#x149;" 
d="M95 405c18 67 55 104 115 104c89 0 135 -71 135 -205v-304h-40v304c0 61 -35 93 -102 93c-71 0 -108 -44 -108 -122v-275h-41v500h41v-95zM140 691c0 -17 -3 -41 -17 -65l-35 -57h-32l-9 120c-4 43 15 71 46 71c29 0 47 -26 47 -69z" />
    <glyph glyph-name="eng" unicode="&#x14b;" 
d="M211 509c89 0 135 -71 135 -205v-363c0 -135 -45 -198 -135 -198h-16v112h16c65 0 95 28 95 86v363c0 61 -35 93 -102 93c-72 0 -109 -44 -109 -122v-275h-41v500h41v-96c18 68 55 105 116 105z" />
    <glyph glyph-name="oe" unicode="&#x153;" horiz-adv-x="618" 
d="M582 158c0 -98 -54 -167 -136 -167c-59 0 -108 29 -134 89c-27 -60 -71 -89 -130 -89c-99 0 -152 99 -152 259c0 159 53 259 152 259c58 0 104 -28 130 -90c23 61 74 90 134 90c88 0 140 -81 140 -221v-85h-250c10 -70 47 -99 110 -99s95 21 95 54v6h41v-6zM71 250
c0 -102 34 -146 111 -146c76 0 110 44 110 146c0 101 -34 146 -110 146c-77 0 -111 -45 -111 -146zM446 396c-62 0 -107 -28 -111 -94h210v12c0 54 -43 82 -99 82z" />
    <glyph glyph-name="tbar" unicode="&#x167;" horiz-adv-x="315" 
d="M180 104c48 0 73 15 73 65h40c0 -111 -40 -178 -113 -178c-72 0 -113 62 -113 178v46h-39v105h39v68h-39v112h39l9 107h32v-107h141v-112h-141v-68h141v-105h-141v-46c0 -50 26 -65 72 -65z" />
    <glyph glyph-name="uni0237" unicode="&#x237;" horiz-adv-x="150" 
d="M-106 -77h41c0 -50 20 -68 59 -68c40 0 60 21 60 71v574h41v-579c0 -116 -37 -178 -101 -178c-63 0 -100 65 -100 180z" />
    <glyph glyph-name="uni0430" unicode="&#x430;" horiz-adv-x="376" 
d="M187 509c85 0 137 -59 137 -157v-352h-41v103c-21 -68 -67 -112 -135 -112c-67 0 -109 58 -109 155c0 95 42 151 109 151h135v55c0 30 -35 45 -96 45c-62 0 -97 -15 -97 -45v-12h-41v12c0 98 52 157 138 157zM80 150c0 -31 27 -47 73 -47c80 0 130 28 130 94h-130
c-46 0 -73 -15 -73 -47z" />
    <glyph glyph-name="uni0431" unicode="&#x431;" horiz-adv-x="395" 
d="M204 -9c-104 0 -162 91 -162 239v241c0 178 46 229 121 229h95c43 0 58 12 58 40v9h40v-49c0 -83 -30 -112 -98 -112h-95c-58 0 -83 -20 -83 -117v-124c18 78 59 122 131 122c101 0 153 -92 153 -239c0 -148 -56 -239 -160 -239zM204 356c-82 0 -121 -46 -121 -126
c4 -91 39 -127 121 -127c81 0 120 36 120 127c0 89 -39 126 -120 126z" />
    <glyph glyph-name="uni0432" unicode="&#x432;" horiz-adv-x="363" 
d="M324 153c0 -95 -44 -153 -123 -153h-147v500h147c80 0 118 -55 118 -149c0 -42 -12 -76 -38 -97c28 -22 43 -56 43 -101zM283 153c0 31 -27 50 -81 50h-107v-100h107c54 0 81 18 81 50zM278 351c0 30 -20 46 -76 46h-107v-92h107c56 0 76 16 76 46z" />
    <glyph glyph-name="uni0433" unicode="&#x433;" horiz-adv-x="291" 
d="M276 500v-112h-181v-388h-41v500h222z" />
    <glyph glyph-name="uni0453" unicode="&#x453;" horiz-adv-x="291" 
d="M276 500v-112h-181v-388h-41v500h222zM157 577l31 173h86l-85 -173h-32z" />
    <glyph glyph-name="uni0434" unicode="&#x434;" horiz-adv-x="409" 
d="M59 112c11 37 21 93 25 276l3 112h257v-388h40v-261h-41v149h-283v-149h-41v261h40zM124 388c-4 -168 -13 -234 -24 -276h203v276h-179z" />
    <glyph glyph-name="uni0435" unicode="&#x435;" horiz-adv-x="374" 
d="M30 250c0 159 56 259 162 259c94 0 150 -81 150 -221v-73h-271c8 -79 45 -111 121 -111c69 0 105 21 105 54v4h41v-4c0 -98 -58 -167 -146 -167c-106 0 -162 99 -162 259zM192 396c-66 0 -111 -25 -121 -82h232c0 54 -51 82 -111 82z" />
    <glyph glyph-name="uni0451" unicode="&#x451;" horiz-adv-x="374" 
d="M30 250c0 159 56 259 162 259c94 0 150 -81 150 -221v-73h-271c8 -79 45 -111 121 -111c69 0 105 21 105 54v4h41v-4c0 -98 -58 -167 -146 -167c-106 0 -162 99 -162 259zM192 396c-66 0 -111 -25 -121 -82h232c0 54 -51 82 -111 82zM304 663c0 -46 -19 -73 -50 -73
s-49 27 -49 73s18 73 49 73s50 -27 50 -73zM151 663c0 -46 -19 -73 -50 -73s-49 27 -49 73s18 73 49 73s50 -27 50 -73z" />
    <glyph glyph-name="uni0436" unicode="&#x436;" horiz-adv-x="525" 
d="M243 198h-30l-109 -198h-81l140 261l-133 239h47l106 -190h60v190h40v-190h25l106 190h82l-133 -239l140 -261h-48l-107 198h-65v-198h-40v198z" />
    <glyph glyph-name="uni04C2" unicode="&#x4c2;" horiz-adv-x="525" 
d="M243 198h-30l-109 -198h-81l140 261l-133 239h47l106 -190h60v190h40v-190h25l106 190h82l-133 -239l140 -261h-48l-107 198h-65v-198h-40v198zM169 739c0 -43 32 -67 94 -67c65 0 94 24 94 67v11h41v-11c0 -109 -52 -172 -135 -172s-135 63 -135 172v11h41v-11z" />
    <glyph glyph-name="uni0437" unicode="&#x437;" horiz-adv-x="363" 
d="M324 155c0 -90 -44 -164 -144 -164c-99 0 -144 74 -144 164v30h40v-30c0 -29 22 -51 104 -51s103 22 103 51c0 25 -17 44 -90 44h-48v112h47c69 0 87 15 87 39c0 28 -19 46 -99 46c-79 0 -98 -18 -98 -46v-26h-41v26c0 87 42 159 139 159c96 0 139 -72 139 -159
c0 -48 -18 -79 -58 -95c43 -16 63 -49 63 -100z" />
    <glyph glyph-name="uni0438" unicode="&#x438;" horiz-adv-x="414" 
d="M95 500v-353h2l206 353h57v-500h-41v352h-2l-206 -352h-57v500h41z" />
    <glyph glyph-name="uni0439" unicode="&#x439;" horiz-adv-x="414" 
d="M95 500v-353h2l206 353h57v-500h-41v352h-2l-206 -352h-57v500h41zM207 672c65 0 94 24 94 67v11h41v-11c0 -109 -52 -172 -135 -172s-135 63 -135 172v11h41v-11c0 -43 32 -67 94 -67z" />
    <glyph glyph-name="uni04E3" unicode="&#x4e3;" horiz-adv-x="414" 
d="M95 500v-353h2l206 353h57v-500h-41v352h-2l-206 -352h-57v500h41zM342 607h-270v112h270v-112z" />
    <glyph glyph-name="uni043A" unicode="&#x43a;" horiz-adv-x="368" 
d="M95 0h-41v500h41v-189h51l112 189h84l-145 -244l154 -256h-52l-120 199h-84v-199z" />
    <glyph glyph-name="uni045C" unicode="&#x45c;" horiz-adv-x="368" 
d="M95 0h-41v500h41v-189h51l112 189h84l-145 -244l154 -256h-52l-120 199h-84v-199zM183 577h-32l31 173h86z" />
    <glyph glyph-name="uni043B" unicode="&#x43b;" horiz-adv-x="393" 
d="M92 500h247v-500h-41v388h-172l-5 -144c-5 -219 -24 -248 -69 -248h-26v116h26c17 0 29 7 32 133z" />
    <glyph glyph-name="uni043C" unicode="&#x43c;" horiz-adv-x="504" 
d="M450 500v-500h-40v313l7 94h-2l-126 -315h-39l-126 315h-2l6 -94v-313h-74v500h82l92 -228l23 -68h2l24 68l91 228h82z" />
    <glyph glyph-name="uni043D" unicode="&#x43d;" horiz-adv-x="399" 
d="M345 0h-40v199h-210v-199h-41v500h41v-189h210v189h40v-500z" />
    <glyph glyph-name="uni043E" unicode="&#x43e;" horiz-adv-x="382" 
d="M192 509c104 0 160 -100 160 -259c0 -160 -56 -259 -160 -259c-106 0 -162 99 -162 259c0 159 56 259 162 259zM192 104c84 0 121 44 121 146c0 101 -37 146 -121 146c-86 0 -123 -45 -123 -146c0 -102 37 -146 123 -146z" />
    <glyph glyph-name="uni04E7" unicode="&#x4e7;" horiz-adv-x="382" 
d="M192 509c104 0 160 -100 160 -259c0 -160 -56 -259 -160 -259c-106 0 -162 99 -162 259c0 159 56 259 162 259zM192 104c84 0 121 44 121 146c0 101 -37 146 -121 146c-86 0 -123 -45 -123 -146c0 -102 37 -146 123 -146zM111 590c-31 0 -49 27 -49 73s18 73 49 73
s50 -27 50 -73s-19 -73 -50 -73zM264 590c-31 0 -49 27 -49 73s18 73 49 73s50 -27 50 -73s-19 -73 -50 -73z" />
    <glyph glyph-name="uni043F" unicode="&#x43f;" horiz-adv-x="399" 
d="M345 0h-40v388h-210v-388h-41v500h291v-500z" />
    <glyph glyph-name="uni0440" unicode="&#x440;" horiz-adv-x="404" 
d="M96 404c19 68 57 105 124 105c100 0 154 -99 154 -259c0 -159 -54 -259 -154 -259c-67 0 -105 37 -124 105v-346h-41v750h41v-96zM213 396c-77 0 -117 -44 -117 -121v-50c0 -77 40 -121 117 -121c84 0 120 43 120 146c0 104 -36 146 -120 146z" />
    <glyph glyph-name="uni0441" unicode="&#x441;" horiz-adv-x="374" 
d="M192 396c-86 0 -123 -45 -123 -146c0 -102 37 -146 123 -146c73 0 111 35 111 92v8h40v-8c0 -121 -58 -205 -151 -205c-106 0 -162 99 -162 259c0 159 56 259 162 259c93 0 151 -78 151 -195v-8h-40v8c0 50 -38 82 -111 82z" />
    <glyph glyph-name="uni0442" unicode="&#x442;" horiz-adv-x="296" 
d="M15 388v112h266v-112h-113v-388h-40v388h-113z" />
    <glyph glyph-name="uni0443" unicode="&#x443;" horiz-adv-x="348" 
d="M337 500l-145 -553c-44 -167 -73 -204 -126 -204h-16v112h16c25 0 65 6 87 92l13 49l-153 504h42l87 -276l21 -85h3l18 85l73 276h80z" />
    <glyph glyph-name="uni045E" unicode="&#x45e;" horiz-adv-x="348" 
d="M337 500l-145 -553c-44 -167 -73 -204 -126 -204h-16v112h16c25 0 65 6 87 92l13 49l-153 504h42l87 -276l21 -85h3l18 85l73 276h80zM174 672c65 0 94 24 94 67v11h41v-11c0 -109 -52 -172 -135 -172s-135 63 -135 172v11h41v-11c0 -43 32 -67 94 -67z" />
    <glyph glyph-name="uni04EF" unicode="&#x4ef;" horiz-adv-x="348" 
d="M337 500l-145 -553c-44 -167 -73 -204 -126 -204h-16v112h16c25 0 65 6 87 92l13 49l-153 504h42l87 -276l21 -85h3l18 85l73 276h80zM309 607h-270v112h270v-112z" />
    <glyph glyph-name="uni04F3" unicode="&#x4f3;" horiz-adv-x="348" 
d="M337 500l-145 -553c-44 -167 -73 -204 -126 -204h-16v112h16c25 0 65 6 87 92l13 49l-153 504h42l87 -276l21 -85h3l18 85l73 276h80zM105 577h-33l19 173h85zM244 577h-33l32 173h85z" />
    <glyph glyph-name="uni0444" unicode="&#x444;" horiz-adv-x="495" 
d="M307 0h-39v-250h-41v250h-39c-105 0 -158 93 -158 250s53 250 158 250h39v250h41v-250h39c103 0 158 -93 158 -250s-55 -250 -158 -250zM188 112h41v276h-41c-77 0 -118 -51 -118 -138s41 -138 118 -138zM307 388h-41v-276h41c74 0 118 51 118 138s-44 138 -118 138z" />
    <glyph glyph-name="uni0445" unicode="&#x445;" horiz-adv-x="355" 
d="M329 500l-114 -253l122 -247h-46l-74 136l-26 65h-2l-22 -65l-63 -136h-86l122 270l-113 230h46l66 -118l25 -63h2l21 63l56 118h86z" />
    <glyph glyph-name="uni0446" unicode="&#x446;" horiz-adv-x="411" 
d="M386 -149h-40v149h-292v500h41v-388h211v388h40v-388h40v-261z" />
    <glyph glyph-name="uni0447" unicode="&#x447;" horiz-adv-x="367" 
d="M135 281h137v219h41v-500h-41v169h-137c-77 0 -99 80 -99 162v169h41v-169c0 -23 13 -50 58 -50z" />
    <glyph glyph-name="uni0448" unicode="&#x448;" horiz-adv-x="548" 
d="M454 500h40v-500h-440v500h41v-388h159v388h40v-388h160v388z" />
    <glyph glyph-name="uni0449" unicode="&#x449;" horiz-adv-x="559" 
d="M535 -149h-40v149h-441v500h41v-388h159v388h40v-388h160v388h40v-388h41v-261z" />
    <glyph glyph-name="uni044A" unicode="&#x44a;" horiz-adv-x="381" 
d="M84 388h-78v112h119v-148h106c83 0 124 -65 124 -176c0 -109 -41 -176 -124 -176h-147v388zM125 112h106c57 0 83 24 83 64c0 41 -26 64 -83 64h-106v-128z" />
    <glyph glyph-name="uni044B" unicode="&#x44b;" horiz-adv-x="502" 
d="M95 352h106c83 0 124 -65 124 -176c0 -109 -41 -176 -124 -176h-147v500h41v-148zM95 112h106c57 0 83 24 83 64c0 41 -26 64 -83 64h-106v-128zM448 500v-500h-41v500h41z" />
    <glyph glyph-name="uni044C" unicode="&#x44c;" horiz-adv-x="351" 
d="M95 352h106c83 0 124 -65 124 -176c0 -109 -41 -176 -124 -176h-147v500h41v-148zM95 112h106c57 0 83 24 83 64c0 41 -26 64 -83 64h-106v-128z" />
    <glyph glyph-name="uni044D" unicode="&#x44d;" horiz-adv-x="380" 
d="M303 309c-13 60 -52 87 -117 87c-75 0 -115 -32 -115 -82v-8h-40v8c0 117 60 195 155 195c106 0 164 -100 164 -259c0 -160 -58 -259 -164 -259c-95 0 -155 84 -155 205v8h40v-8c0 -57 40 -92 115 -92c69 0 108 30 119 97h-195v108h193z" />
    <glyph glyph-name="uni044E" unicode="&#x44e;" horiz-adv-x="540" 
d="M196 309c12 126 64 200 156 200c104 0 158 -97 158 -259c0 -163 -54 -259 -158 -259c-93 0 -146 75 -157 206h-100v-197h-41v500h41v-191h101zM234 250c0 -93 40 -146 118 -146c76 0 118 53 118 146c0 92 -42 146 -118 146c-78 0 -118 -54 -118 -146z" />
    <glyph glyph-name="uni044F" unicode="&#x44f;" horiz-adv-x="365" 
d="M40 324c0 109 41 176 124 176h147v-500h-41v158h-120l-68 -158h-44l73 174c-46 18 -71 69 -71 150zM80 324c0 -41 28 -64 84 -64h106v128h-106c-56 0 -84 -24 -84 -64z" />
    <glyph glyph-name="uni0452" unicode="&#x452;" 
d="M210 509c89 0 135 -71 135 -205v-363c0 -135 -44 -198 -134 -198h-17v112h17c64 0 94 28 94 86v363c0 61 -35 93 -102 93c-71 0 -108 -44 -108 -122v-275h-41v575h-40v101h40v74h41v-74h135v-101h-135v-170c18 67 55 104 115 104z" />
    <glyph glyph-name="uni0454" unicode="&#x454;" horiz-adv-x="380" 
d="M309 314c0 50 -40 82 -115 82c-65 0 -104 -27 -117 -87h193v-108h-195c11 -67 50 -97 119 -97c75 0 115 35 115 92v8h40v-8c0 -121 -60 -205 -155 -205c-106 0 -164 99 -164 259c0 159 58 259 164 259c95 0 155 -78 155 -195v-8h-40v8z" />
    <glyph glyph-name="uni0455" unicode="&#x455;" horiz-adv-x="352" 
d="M274 155c0 111 -237 41 -237 190c0 86 42 164 137 164c85 0 137 -61 137 -164v-11h-41v11c0 40 -32 51 -96 51c-78 0 -97 -19 -97 -51c0 -111 237 -41 237 -190c0 -84 -43 -164 -141 -164c-87 0 -141 67 -141 164v18h41v-18c0 -37 34 -51 100 -51c79 0 101 21 101 51z
" />
    <glyph glyph-name="uni0456" unicode="&#x456;" horiz-adv-x="160" 
d="M100 500v-500h-40v500h40zM80 590c-33 0 -52 27 -52 73s19 73 52 73s52 -27 52 -73s-21 -73 -52 -73z" />
    <glyph glyph-name="uni0457" unicode="&#x457;" horiz-adv-x="154" 
d="M97 500v-500h-40v500h40zM21 590c-34 0 -52 27 -52 73s18 73 52 73c33 0 52 -27 52 -73s-21 -73 -52 -73zM134 590c-33 0 -52 27 -52 73s19 73 52 73s52 -27 52 -73s-21 -73 -52 -73z" />
    <glyph glyph-name="uni0458" unicode="&#x458;" horiz-adv-x="149" 
d="M-105 -77h40c0 -50 21 -68 60 -68s60 21 60 71v574h40v-579c0 -116 -36 -178 -100 -178s-100 65 -100 180zM73 590c-33 0 -52 27 -52 73s19 73 52 73s52 -27 52 -73s-21 -73 -52 -73z" />
    <glyph glyph-name="uni0459" unicode="&#x459;" horiz-adv-x="538" 
d="M311 112h77c59 0 85 24 85 64c0 41 -26 64 -85 64h-77v-128zM270 0v388h-144l-4 -144c-6 -219 -25 -248 -70 -248h-26v116h26c17 0 29 12 32 133l8 255h219v-148h77c84 0 124 -65 124 -176c0 -109 -40 -176 -124 -176h-118z" />
    <glyph glyph-name="uni045A" unicode="&#x45a;" horiz-adv-x="545" 
d="M317 112h78c59 0 85 17 85 44c0 28 -26 43 -85 43h-78v-87zM277 0v199h-182v-199h-41v500h41v-189h182v189h40v-189h78c84 0 124 -57 124 -155c0 -97 -40 -156 -124 -156h-118z" />
    <glyph glyph-name="uni045B" unicode="&#x45b;" 
d="M95 405c18 67 55 104 115 104c89 0 135 -71 135 -205v-304h-40v304c0 61 -35 93 -102 93c-71 0 -108 -44 -108 -122v-275h-41v575h-40v101h40v74h41v-74h135v-101h-135v-170z" />
    <glyph glyph-name="uni045F" unicode="&#x45f;" horiz-adv-x="400" 
d="M221 0v-149h-41v149h-126v500h41v-388h211v388h40v-500h-125z" />
    <glyph glyph-name="uni0491" unicode="&#x491;" horiz-adv-x="292" 
d="M54 500h182v149h40v-261h-181v-388h-41v500z" />
    <glyph glyph-name="uni0493" unicode="&#x493;" horiz-adv-x="291" 
d="M215 280v-112h-120v-168h-41v168h-39v112h39v220h222v-112h-181v-108h120z" />
    <glyph glyph-name="uni0497" unicode="&#x497;" horiz-adv-x="536" 
d="M243 198h-30l-109 -198h-81l140 261l-133 239h47l106 -190h60v190h40v-190h25l106 190h82l-133 -239l80 -149h84v-261h-40v149h-32l-107 198h-65v-198h-40v198z" />
    <glyph glyph-name="uni0499" unicode="&#x499;" horiz-adv-x="363" 
d="M283 155c0 25 -17 44 -90 44h-48v112h47c69 0 87 15 87 39c0 28 -19 46 -99 46c-79 0 -98 -18 -98 -46v-26h-41v26c0 87 42 159 139 159c96 0 139 -72 139 -159c0 -48 -18 -79 -58 -95c43 -16 63 -49 63 -100c0 -85 -40 -156 -129 -163v-141h-41v142
c-81 12 -118 80 -118 162v30h40v-30c0 -29 22 -51 104 -51s103 22 103 51z" />
    <glyph glyph-name="uni049B" unicode="&#x49b;" horiz-adv-x="378" 
d="M96 0h-41v500h41v-189h51l112 189h84l-145 -244l86 -144h94v-261h-40v149h-38l-120 199h-84v-199z" />
    <glyph glyph-name="uni049D" unicode="&#x49d;" horiz-adv-x="390" 
d="M155 80h-40v119h-19v-199h-41v500h41v-189h19v109h40v-109h13l112 189h84l-145 -244l154 -256h-44l-120 199h-54v-119z" />
    <glyph glyph-name="uni04A1" unicode="&#x4a1;" horiz-adv-x="398" 
d="M286 500h86l-145 -244l154 -256h-46l-120 199h-90v-199h-41v388h-78v112h119v-189h49z" />
    <glyph glyph-name="uni04A3" unicode="&#x4a3;" horiz-adv-x="410" 
d="M345 500v-388h41v-261h-40v149h-41v199h-210v-199h-41v500h41v-189h210v189h40z" />
    <glyph glyph-name="uni04AB" unicode="&#x4ab;" horiz-adv-x="374" 
d="M303 314c0 50 -38 82 -111 82c-86 0 -123 -45 -123 -146c0 -102 37 -146 123 -146c73 0 111 35 111 92v8h40v-8c0 -113 -51 -194 -134 -204v-141h-41v142c-90 14 -138 110 -138 257c0 159 56 259 162 259c93 0 151 -78 151 -195v-8h-40v8z" />
    <glyph glyph-name="uni04AF" unicode="&#x4af;" horiz-adv-x="346" 
d="M152 -250v250l-140 500h41l100 -359h3l21 86l77 273h80l-141 -500v-250h-41z" />
    <glyph glyph-name="uni04B1" unicode="&#x4b1;" horiz-adv-x="346" 
d="M152 -40v40l-140 500h41l100 -359h3l21 86l77 273h80l-141 -500v-40h101v-112h-101v-98h-41v98h-101v112h101z" />
    <glyph glyph-name="uni04B3" unicode="&#x4b3;" horiz-adv-x="376" 
d="M243 500h86l-114 -253l67 -135h79v-261h-40v149h-30l-74 136l-26 65h-2l-22 -65l-63 -136h-86l122 270l-113 230h46l66 -118l25 -63h2l21 63z" />
    <glyph glyph-name="uni04B7" unicode="&#x4b7;" horiz-adv-x="376" 
d="M77 331c0 -23 13 -50 58 -50h137v219h41v-388h38v-261h-40v149h-39v169h-137c-77 0 -99 80 -99 162v169h41v-169z" />
    <glyph glyph-name="uni04BB" unicode="&#x4bb;" 
d="M95 405c18 67 55 104 115 104c89 0 135 -71 135 -205v-304h-40v304c0 61 -35 93 -102 93c-71 0 -108 -44 -108 -122v-275h-41v750h41v-345z" />
    <glyph glyph-name="uni04CF" unicode="&#x4cf;" horiz-adv-x="149" 
d="M95 750v-750h-41v750h41z" />
    <glyph glyph-name="uni04D9" unicode="&#x4d9;" horiz-adv-x="369" 
d="M339 250c0 -159 -56 -259 -161 -259c-95 0 -151 81 -151 221v73h271c-8 79 -45 111 -120 111c-70 0 -106 -21 -106 -54v-4h-41v4c0 98 58 167 147 167c105 0 161 -99 161 -259zM178 104c65 0 110 25 120 82h-232c0 -54 52 -82 112 -82z" />
    <glyph glyph-name="uni04E9" unicode="&#x4e9;" horiz-adv-x="382" 
d="M30 250c0 159 56 259 162 259c104 0 160 -100 160 -259c0 -160 -56 -259 -160 -259c-106 0 -162 99 -162 259zM72 203c11 -69 49 -99 120 -99c70 0 107 30 118 99h-238zM192 396c-68 0 -105 -28 -118 -89h234c-13 61 -50 89 -116 89z" />
    <glyph glyph-name="zero" unicode="0" horiz-adv-x="407" 
d="M325 219v264c0 72 -43 113 -122 113c-80 0 -121 -41 -121 -113v-264c0 -71 41 -113 121 -113c79 0 122 42 122 113zM367 483v-264c0 -144 -62 -229 -164 -229c-101 0 -163 85 -163 229v264c0 145 62 229 163 229c102 0 164 -84 164 -229z" />
    <glyph glyph-name="one" unicode="1" horiz-adv-x="354" 
d="M191 116v450l-133 -78h-4v127l137 85h42v-584h97v-116h-294v116h155z" />
    <glyph glyph-name="two" unicode="2" horiz-adv-x="407" 
d="M367 496c0 -102 -58 -167 -190 -302l-74 -77h264v-117h-327v117l113 115c152 148 172 193 172 264c0 64 -43 100 -122 100c-78 0 -121 -36 -121 -100v-55h-42v55c0 137 62 216 163 216c104 0 164 -79 164 -216z" />
    <glyph glyph-name="three" unicode="3" horiz-adv-x="415" 
d="M330 204c0 67 -45 106 -122 106h-39v116l135 158h-208v-84h-42v200h307v-116l-146 -168c98 -4 157 -81 157 -212c0 -137 -62 -216 -164 -216s-163 79 -163 216v45h42v-45c0 -64 42 -100 121 -100c77 0 122 36 122 100z" />
    <glyph glyph-name="four" unicode="4" horiz-adv-x="395" 
d="M28 246l91 454h43l-91 -454h222v331h42v-331h33v-116h-33v-130h-42v130h-265v116z" />
    <glyph glyph-name="five" unicode="5" horiz-adv-x="402" 
d="M328 204c0 67 -42 106 -121 106h-152v390h301v-116h-259v-158h110c104 0 163 -82 163 -222c0 -137 -59 -216 -163 -216c-100 0 -164 79 -164 216v15h42v-15c0 -64 43 -100 122 -100s121 36 121 100z" />
    <glyph glyph-name="six" unicode="6" horiz-adv-x="415" 
d="M211 596c-84 0 -128 -36 -128 -100v-174c24 63 71 98 132 98c104 0 166 -79 166 -216s-62 -216 -170 -216c-105 0 -170 79 -170 216v292c0 137 64 216 170 216s170 -79 170 -216v-15h-42v15c0 64 -42 100 -128 100zM211 304c-84 0 -128 -36 -128 -100s44 -100 128 -100
c83 0 128 36 128 100s-45 100 -128 100z" />
    <glyph glyph-name="seven" unicode="7" horiz-adv-x="347" 
d="M18 584v116h306v-116l-172 -584h-42l172 584h-264z" />
    <glyph glyph-name="eight" unicode="8" horiz-adv-x="408" 
d="M374 204c0 -136 -63 -214 -170 -214c-108 0 -170 78 -170 214c0 70 20 122 56 155c-31 33 -49 82 -49 145c0 131 62 208 163 208c103 0 163 -77 163 -208c0 -63 -17 -113 -48 -145c36 -33 55 -85 55 -155zM204 106c81 0 128 35 128 98s-47 98 -128 98
c-83 0 -128 -35 -128 -98s45 -98 128 -98zM204 596c-79 0 -121 -35 -121 -92c0 -58 42 -92 121 -92c78 0 121 34 121 92c0 57 -43 92 -121 92z" />
    <glyph glyph-name="nine" unicode="9" horiz-adv-x="415" 
d="M204 104c81 0 128 36 128 100v174c-24 -63 -71 -98 -132 -98c-104 0 -166 79 -166 216s62 216 170 216c105 0 170 -79 170 -216v-292c0 -137 -63 -216 -170 -216c-106 0 -170 79 -170 216v15h42v-15c0 -64 42 -100 128 -100zM204 396c84 0 128 36 128 100
s-44 100 -128 100c-83 0 -128 -36 -128 -100s45 -100 128 -100z" />
    <glyph glyph-name="underscore" unicode="_" horiz-adv-x="614" 
d="M54 108h507v-120h-507v120z" />
    <glyph glyph-name="hyphen" unicode="-" horiz-adv-x="309" 
d="M259 324v-116h-208v116h208z" />
    <glyph glyph-name="endash" unicode="&#x2013;" horiz-adv-x="369" 
d="M27 205v123h315v-123h-315z" />
    <glyph glyph-name="emdash" unicode="&#x2014;" horiz-adv-x="491" 
d="M21 205v123h449v-123h-449z" />
    <glyph glyph-name="parenleft" unicode="(" horiz-adv-x="246" 
d="M41 311c0 471 73 561 187 561h8v-116h-8c-85 0 -145 -59 -145 -445s60 -445 145 -445h8v-116h-8c-114 0 -187 90 -187 561z" />
    <glyph glyph-name="parenright" unicode=")" horiz-adv-x="246" 
d="M205 311c0 -471 -73 -561 -187 -561h-8v116h8c85 0 145 59 145 445s-60 445 -145 445h-8v116h8c114 0 187 -90 187 -561z" />
    <glyph glyph-name="bracketleft" unicode="[" horiz-adv-x="226" 
d="M61 -250v1122h155v-116h-113v-890h113v-116h-155z" />
    <glyph glyph-name="bracketright" unicode="]" horiz-adv-x="226" 
d="M165 872v-1122h-155v116h113v890h-113v116h155z" />
    <glyph glyph-name="braceleft" unicode="{" horiz-adv-x="247" 
d="M88 190c0 42 -13 67 -38 67h-23v106h23c25 0 38 25 38 67v266c0 109 37 175 100 175h49v-116h-49c-39 0 -58 -19 -58 -59v-266c0 -54 -10 -95 -28 -120c18 -25 28 -66 28 -120v-265c0 -40 19 -59 58 -59h49v-116h-49c-63 0 -100 66 -100 175v265z" />
    <glyph glyph-name="braceright" unicode="}" horiz-adv-x="247" 
d="M159 190v-265c0 -109 -37 -175 -100 -175h-49v116h49c39 0 58 19 58 59v265c0 54 10 95 28 120c-18 25 -28 66 -28 120v266c0 40 -19 59 -58 59h-49v116h49c63 0 100 -66 100 -175v-266c0 -42 13 -67 38 -67h23v-106h-23c-25 0 -38 -25 -38 -67z" />
    <glyph glyph-name="numbersign" unicode="#" horiz-adv-x="460" 
d="M138 166l-21 -166h-41l21 166h-70v112h85l18 141h-103v112h117l22 169h41l-22 -169h137l22 169h40l-22 -169h71v-112h-85l-18 -141h103v-112h-118l-21 -166h-40l21 166h-137zM171 419l-18 -141h137l18 141h-137z" />
    <glyph glyph-name="percent" unicode="%" horiz-adv-x="519" 
d="M137 490c46 0 74 23 74 61s-28 61 -74 61c-51 0 -75 -23 -75 -61s24 -61 75 -61zM137 392c-73 0 -110 60 -110 159c0 100 37 159 110 159c68 0 109 -59 109 -159c0 -99 -41 -159 -109 -159zM114 0h-43l335 700h43zM382 89c48 0 75 23 75 61c0 37 -27 61 -75 61
c-51 0 -74 -23 -74 -61s23 -61 74 -61zM382 -9c-71 0 -109 60 -109 159c0 100 38 159 109 159c69 0 110 -60 110 -159s-41 -159 -110 -159z" />
    <glyph glyph-name="perthousand" unicode="&#x2030;" horiz-adv-x="702" 
d="M675 150c0 -99 -40 -159 -110 -159c-43 0 -74 23 -91 62c-18 -39 -49 -62 -92 -62c-71 0 -109 60 -109 159c0 100 38 159 109 159c43 0 74 -21 92 -60c17 39 47 60 91 60c70 0 110 -59 110 -159zM246 551c0 -99 -41 -159 -109 -159c-73 0 -110 60 -110 159
c0 100 37 159 110 159c68 0 109 -59 109 -159zM449 700l-335 -700h-43l335 700h43zM308 150c0 -38 23 -61 74 -61c48 0 75 23 75 61c0 37 -27 61 -75 61c-51 0 -74 -23 -74 -61zM491 150c0 -38 24 -61 74 -61c48 0 75 23 75 61s-27 61 -75 61c-50 0 -74 -23 -74 -61zM62 551
c0 -38 24 -61 75 -61c46 0 74 23 74 61s-28 61 -74 61c-51 0 -75 -23 -75 -61z" />
    <glyph glyph-name="quotesingle" unicode="'" horiz-adv-x="154" 
d="M66 509h-32v241h81v-35z" />
    <glyph glyph-name="quotedbl" unicode="&#x22;" horiz-adv-x="267" 
d="M66 509h-32v241h81v-35zM179 509h-32v241h81v-35z" />
    <glyph glyph-name="quoteleft" unicode="&#x2018;" horiz-adv-x="155" 
d="M112 750l10 -178c3 -46 -15 -76 -49 -76c-32 0 -50 27 -50 73c0 18 6 43 13 61l45 120h31z" />
    <glyph glyph-name="quoteright" unicode="&#x2019;" horiz-adv-x="155" 
d="M43 496l-10 179c-2 46 16 75 49 75c32 0 50 -27 50 -73c0 -18 -6 -43 -13 -61l-45 -120h-31z" />
    <glyph glyph-name="quotedblleft" unicode="&#x201c;" horiz-adv-x="291" 
d="M112 750l10 -178c3 -46 -15 -76 -49 -76c-32 0 -50 27 -50 73c0 18 6 43 13 61l45 120h31zM248 750l10 -178c3 -46 -15 -76 -49 -76c-32 0 -50 27 -50 73c0 18 6 43 13 61l45 120h31z" />
    <glyph glyph-name="quotedblright" unicode="&#x201d;" horiz-adv-x="291" 
d="M43 496l-10 179c-2 46 16 75 49 75c32 0 50 -27 50 -73c0 -18 -6 -43 -13 -61l-45 -120h-31zM179 496l-10 179c-2 46 16 75 49 75c32 0 50 -27 50 -73c0 -18 -6 -43 -13 -61l-45 -120h-31z" />
    <glyph glyph-name="quotesinglbase" unicode="&#x201a;" horiz-adv-x="155" 
d="M43 -120l-10 179c-2 46 16 75 49 75c32 0 50 -27 50 -73c0 -18 -6 -43 -13 -61l-45 -120h-31z" />
    <glyph glyph-name="quotedblbase" unicode="&#x201e;" horiz-adv-x="291" 
d="M43 -120l-10 179c-2 46 16 75 49 75c32 0 50 -27 50 -73c0 -18 -6 -43 -13 -61l-45 -120h-31zM179 -120l-10 179c-2 46 16 75 49 75c32 0 50 -27 50 -73c0 -18 -6 -43 -13 -61l-45 -120h-31z" />
    <glyph glyph-name="guilsinglleft" unicode="&#x2039;" horiz-adv-x="215" 
d="M68 248l105 -100v-117h-6l-146 219l146 218h6v-117l-105 -101v-2z" />
    <glyph glyph-name="guilsinglright" unicode="&#x203a;" horiz-adv-x="215" 
d="M42 148l106 100v2l-106 101v117h6l147 -218l-147 -219h-6v117z" />
    <glyph glyph-name="guillemotleft" unicode="&#xab;" horiz-adv-x="386" 
d="M68 248l105 -100v-117h-6l-146 219l146 218h6v-117l-105 -101v-2zM238 248l106 -100v-117h-6l-147 219l147 218h6v-117l-106 -101v-2z" />
    <glyph glyph-name="guillemotright" unicode="&#xbb;" horiz-adv-x="386" 
d="M42 148l106 100v2l-106 101v117h6l147 -218l-147 -219h-6v117zM213 148l105 100v2l-105 101v117h6l146 -218l-146 -219h-6v117z" />
    <glyph glyph-name="asterisk" unicode="*" horiz-adv-x="307" 
d="M262 401l-52 -55l-48 126l-7 21h-2l-7 -21l-49 -127l-52 57l80 125l-115 34l20 91l108 -73l-17 171h65l-16 -171l108 73l19 -92l-114 -34z" />
    <glyph glyph-name="dagger" unicode="&#x2020;" horiz-adv-x="327" 
d="M185 0h-42v384h-116v116h116v200h42v-200h115v-116h-115v-384z" />
    <glyph glyph-name="daggerdbl" unicode="&#x2021;" horiz-adv-x="327" 
d="M185 0h-42v152h-116v116h116v116h-116v116h116v200h42v-200h115v-116h-115v-116h115v-116h-115v-152z" />
    <glyph glyph-name="period" unicode="." horiz-adv-x="140" 
d="M21 61c0 46 16 73 49 73c32 0 50 -27 50 -73s-18 -73 -50 -73c-33 0 -49 27 -49 73z" />
    <glyph glyph-name="comma" unicode="," horiz-adv-x="140" 
d="M31 -120l-10 179c-3 46 15 75 49 75c32 0 50 -27 50 -73c0 -18 -6 -43 -13 -61l-45 -120h-31z" />
    <glyph glyph-name="colon" unicode=":" horiz-adv-x="140" 
d="M21 61c0 46 16 73 49 73c32 0 50 -27 50 -73s-18 -73 -50 -73c-33 0 -49 27 -49 73zM21 377c0 46 16 73 49 73c32 0 50 -27 50 -73s-18 -73 -50 -73c-33 0 -49 27 -49 73z" />
    <glyph glyph-name="semicolon" unicode=";" horiz-adv-x="140" 
d="M31 -120l-10 179c-3 46 15 75 49 75c32 0 50 -27 50 -73c0 -18 -6 -43 -13 -61l-45 -120h-31zM21 377c0 46 16 73 49 73c32 0 50 -27 50 -73s-18 -73 -50 -73c-33 0 -49 27 -49 73z" />
    <glyph glyph-name="ellipsis" unicode="&#x2026;" horiz-adv-x="450" 
d="M21 61c0 46 16 73 49 73c32 0 50 -27 50 -73s-18 -73 -50 -73c-33 0 -49 27 -49 73zM176 61c0 46 16 73 49 73c32 0 50 -27 50 -73s-18 -73 -50 -73c-33 0 -49 27 -49 73zM331 61c0 46 16 73 49 73c32 0 50 -27 50 -73s-18 -73 -50 -73c-33 0 -49 27 -49 73z" />
    <glyph glyph-name="exclam" unicode="!" horiz-adv-x="207" 
d="M63 700h82l-20 -518h-42zM54 61c0 46 17 73 50 73c31 0 49 -27 49 -73s-18 -73 -49 -73c-33 0 -50 27 -50 73z" />
    <glyph glyph-name="exclamdown" unicode="&#xa1;" horiz-adv-x="207" 
d="M145 -203h-82l20 518h42zM54 436c0 46 17 73 50 73c31 0 49 -27 49 -73s-18 -73 -49 -73c-33 0 -50 27 -50 73z" />
    <glyph glyph-name="question" unicode="?" horiz-adv-x="407" 
d="M366 503c0 -103 -48 -179 -140 -189v-132h-42v226h18c79 0 122 36 122 95s-43 93 -120 93c-81 0 -121 -30 -121 -83v-45h-42v45c0 126 60 199 163 199c102 0 162 -77 162 -209zM205 -12c-32 0 -49 27 -49 73s17 73 49 73s50 -27 50 -73s-18 -73 -50 -73z" />
    <glyph glyph-name="questiondown" unicode="&#xbf;" horiz-adv-x="407" 
d="M41 -5c0 103 48 179 140 189v132h42v-226h-18c-79 0 -122 -36 -122 -95s43 -93 120 -93c81 0 121 30 121 83v45h42v-45c0 -126 -60 -199 -163 -199c-102 0 -162 77 -162 209zM202 510c32 0 49 -27 49 -73s-17 -73 -49 -73s-50 27 -50 73s18 73 50 73z" />
    <glyph glyph-name="slash" unicode="/" horiz-adv-x="294" 
d="M253 700l-170 -700h-42l170 700h42z" />
    <glyph glyph-name="backslash" unicode="\" horiz-adv-x="294" 
d="M211 0l-170 700h42l170 -700h-42z" />
    <glyph glyph-name="fraction" unicode="&#x2044;" horiz-adv-x="290" 
d="M127 0h-44l330 700h44z" />
    <glyph glyph-name="bar" unicode="|" horiz-adv-x="184" 
d="M71 -250v950h42v-950h-42z" />
    <glyph glyph-name="brokenbar" unicode="&#xa6;" horiz-adv-x="197" 
d="M78 -250v416h42v-416h-42zM78 304v396h42v-396h-42z" />
    <glyph glyph-name="at" unicode="@" horiz-adv-x="640" 
d="M606 250c0 -291 -108 -462 -286 -462c-187 0 -286 171 -286 462s99 462 286 462c180 0 286 -171 286 -462zM72 250c0 -221 84 -356 248 -356c160 0 248 132 248 356c0 221 -90 356 -248 356c-164 0 -248 -135 -248 -356zM319 509c85 0 137 -59 137 -157v-352h-41v103
c-21 -68 -67 -112 -135 -112c-67 0 -109 58 -109 155c0 95 42 151 109 151h135v55c0 30 -35 45 -96 45c-62 0 -97 -15 -97 -45v-12h-41v12c0 98 52 157 138 157zM212 150c0 -31 27 -47 73 -47c80 0 130 28 130 94h-130c-46 0 -73 -15 -73 -47z" />
    <glyph glyph-name="ampersand" unicode="&#x26;" horiz-adv-x="449" 
d="M87 504c0 -56 16 -89 112 -89h227v-116h-48v-97c0 -136 -65 -214 -171 -214s-170 78 -170 214c0 71 18 126 60 156c-39 27 -52 77 -52 146c0 131 62 208 162 208c106 0 169 -77 169 -208v-36h-42v36c0 57 -41 92 -127 92c-77 0 -120 -35 -120 -92zM207 104
c85 0 129 35 129 98v97h-137c-85 0 -120 -36 -120 -97c0 -63 48 -98 128 -98z" />
    <glyph glyph-name="section" unicode="&#xa7;" horiz-adv-x="350" 
d="M278 142c0 92 -239 5 -239 208c0 39 16 78 46 107c-29 28 -43 64 -43 101c0 79 41 154 134 154c82 0 134 -63 134 -154v-18h-37v18c0 34 -35 53 -97 53c-79 0 -97 -24 -97 -53c0 -92 234 -5 234 -208c0 -39 -14 -77 -44 -105c31 -28 46 -65 46 -103
c0 -79 -42 -154 -139 -154c-85 0 -139 63 -139 154v18h37v-18c0 -34 35 -53 102 -53c82 0 102 24 102 53zM176 408c-79 0 -100 -26 -100 -58s21 -58 100 -58s100 26 100 58s-21 58 -100 58z" />
    <glyph glyph-name="paragraph" unicode="&#xb6;" horiz-adv-x="426" 
d="M34 482c0 138 58 218 158 218h181v-951h-42v835h-131v-834h-42v517c-79 17 -124 93 -124 215z" />
    <glyph glyph-name="uni2116" unicode="&#x2116;" horiz-adv-x="746" 
d="M582 293c47 0 74 25 74 68c0 42 -27 68 -74 68c-50 0 -73 -26 -73 -68c0 -43 23 -68 73 -68zM582 202c-70 0 -106 60 -106 159c0 100 36 159 106 159c68 0 107 -59 107 -159c0 -99 -39 -159 -107 -159zM386 700h296v-116h-256v-584h-90l-242 592h-2l3 -92v-500h-41v700
h90l242 -591h2l-2 91v500z" />
    <glyph glyph-name="periodcentered" unicode="&#xb7;" horiz-adv-x="140" 
d="M21 277c0 46 16 73 49 73c32 0 50 -27 50 -73s-18 -73 -50 -73c-33 0 -49 27 -49 73z" />
    <glyph glyph-name="bullet" unicode="&#x2022;" horiz-adv-x="600" 
d="M300 -9c-164 0 -250 136 -250 360c0 226 86 359 250 359c157 0 250 -133 250 -359c0 -224 -93 -360 -250 -360z" />
    <glyph glyph-name="minute" unicode="&#x2032;" horiz-adv-x="135" 
d="M64 509h-42l10 206v35h81v-35z" />
    <glyph glyph-name="second" unicode="&#x2033;" horiz-adv-x="266" 
d="M64 509h-42l10 206v35h81v-35zM195 509h-42l10 206v35h81v-35z" />
    <glyph glyph-name="plus" unicode="+" horiz-adv-x="383" 
d="M345 415v-116h-132v-162h-42v162h-133v116h133v161h42v-161h132z" />
    <glyph glyph-name="minus" unicode="&#x2212;" horiz-adv-x="376" 
d="M342 415v-116h-307v116h307z" />
    <glyph glyph-name="plusminus" unicode="&#xb1;" horiz-adv-x="376" 
d="M35 417v116h132v156h42v-156h133v-116h-133v-163h-42v163h-132zM35 204h307v-116h-307v116z" />
    <glyph glyph-name="divide" unicode="&#xf7;" horiz-adv-x="376" 
d="M342 425v-116h-307v116h307zM139 169c0 46 16 73 49 73c32 0 50 -27 50 -73s-18 -73 -50 -73c-33 0 -49 27 -49 73zM139 564c0 46 16 73 49 73c32 0 50 -27 50 -73s-18 -73 -50 -73c-33 0 -49 27 -49 73z" />
    <glyph glyph-name="multiply" unicode="&#xd7;" horiz-adv-x="347" 
d="M138 357l-112 134l57 85l91 -166l90 166l57 -85l-111 -133l112 -136l-58 -85l-91 168l-90 -167l-58 85z" />
    <glyph glyph-name="equal" unicode="=" horiz-adv-x="376" 
d="M342 297v-116h-307v116h307zM342 533v-116h-307v116h307z" />
    <glyph glyph-name="less" unicode="&#x3c;" horiz-adv-x="336" 
d="M14 310v81l270 225h5v-120l-237 -146l237 -148v-119h-5z" />
    <glyph glyph-name="greater" unicode="&#x3e;" horiz-adv-x="336" 
d="M322 391v-81l-270 -227h-5v119l237 148l-237 146v120h5z" />
    <glyph glyph-name="lessequal" unicode="&#x2264;" horiz-adv-x="332" 
d="M14 393v81l270 225h5v-120l-237 -146l237 -148v-119h-5zM14 116h275v-116h-275v116z" />
    <glyph glyph-name="greaterequal" unicode="&#x2265;" horiz-adv-x="332" 
d="M44 580v120h5l270 -225v-81l-270 -227h-5v119l236 148zM44 116h275v-116h-275v116z" />
    <glyph glyph-name="approxequal" unicode="&#x2248;" horiz-adv-x="376" 
d="M262 341c55 0 95 -53 95 -174v-10h-41v10c0 41 -15 61 -38 61c-71 0 -85 -81 -163 -81c-55 0 -95 54 -95 174v10h41v-10c0 -41 13 -61 38 -61c71 0 84 81 163 81zM262 567c55 0 95 -53 95 -174v-10h-41v10c0 41 -15 61 -38 61c-71 0 -85 -81 -163 -81
c-55 0 -95 54 -95 174v10h41v-10c0 -41 13 -61 38 -61c71 0 84 81 163 81z" />
    <glyph glyph-name="dollar" unicode="$" horiz-adv-x="426" 
d="M359 469c0 86 -27 125 -125 127v-199c83 -18 174 -39 174 -190c0 -110 -55 -215 -174 -219v-120h-37v120c-115 4 -173 85 -173 247v18h42v-18c0 -89 29 -129 131 -131v216c-81 18 -166 42 -166 187c0 106 51 201 166 205v110h37v-110c111 -3 167 -84 167 -243v-18h-42v18
zM366 207c0 80 -63 96 -132 110v-213c93 2 132 40 132 103zM73 507c0 -76 58 -93 124 -106v195c-87 -2 -124 -35 -124 -89z" />
    <glyph glyph-name="cent" unicode="&#xa2;" horiz-adv-x="384" 
d="M20 250c0 155 53 254 154 259v141h37v-141c92 -3 149 -80 149 -195v-8h-40v8c0 49 -37 80 -109 82v-292c72 2 109 37 109 92v8h40v-8c0 -118 -57 -201 -149 -205v-141h-37v141c-101 5 -154 103 -154 259zM61 250c0 -99 35 -143 113 -146v292c-78 -3 -113 -48 -113 -146z
" />
    <glyph glyph-name="sterling" unicode="&#xa3;" horiz-adv-x="446" 
d="M122 252v12h-41v112h41v135c0 106 44 201 144 201c97 0 145 -81 145 -243v-18h-42v18c0 88 -22 127 -103 127c-71 0 -102 -41 -102 -85v-135h139v-112h-139v-12c0 -59 -8 -105 -24 -136h271v-116h-357v116h12c38 0 56 28 56 136z" />
    <glyph glyph-name="yen" unicode="&#xa5;" horiz-adv-x="406" 
d="M341 700h46l-88 -308h52v-120h-28v-226h-241v226h-27v120h51l-87 308h46l88 -308h100z" />
    <glyph glyph-name="Euro" unicode="&#x20ac;" horiz-adv-x="474" 
d="M246 712c111 0 200 -101 200 -280v-15h-42v15c0 107 -72 164 -158 164c-65 0 -114 -34 -143 -95h167l-14 -116h-180c-1 -11 -1 -23 -1 -35c0 -9 0 -17 1 -25h172l-14 -116h-135c28 -67 78 -105 147 -105c87 0 158 63 158 175v18h43v-18c0 -186 -86 -291 -201 -291
c-102 0 -173 80 -201 221h-44v116h32v25c0 12 0 24 1 35h-33v116h46c29 135 100 211 199 211z" />
    <glyph glyph-name="uni20B4" unicode="&#x20b4;" horiz-adv-x="423" 
d="M382 541c0 -18 -5 -35 -16 -50h39v-116h-391v116h224c70 0 102 24 102 50c0 28 -38 55 -129 55c-90 0 -129 -25 -129 -50v-13h-42v13c0 87 53 166 171 166c119 0 171 -81 171 -171zM40 159c0 18 5 35 15 50h-41v116h391v-116h-221c-73 0 -102 -24 -102 -50
c0 -27 39 -55 129 -55s129 25 129 50v13h42v-13c0 -87 -52 -166 -171 -166c-118 0 -171 82 -171 171z" />
    <glyph glyph-name="uni20B8" unicode="&#x20b8;" horiz-adv-x="389" 
d="M16 404v116h358v-116h-158v-404h-42v404h-158zM374 584h-358v116h358v-116z" />
    <glyph glyph-name="asciicircum" unicode="^" horiz-adv-x="336" 
d="M313 387v-24h-34l-74 135l-35 71h-3l-35 -71l-74 -135h-35v24l131 313h29z" />
    <glyph glyph-name="acute" unicode="&#xb4;" horiz-adv-x="168" 
d="M39 577l31 173h86l-85 -173h-32z" />
    <glyph glyph-name="grave" unicode="`" horiz-adv-x="162" 
d="M145 577h-32l-99 173h85z" />
    <glyph glyph-name="hungarumlaut" unicode="&#x2dd;" horiz-adv-x="354" 
d="M88 577h-33l19 173h85zM227 577h-33l32 173h85z" />
    <glyph glyph-name="circumflex" unicode="&#x2c6;" horiz-adv-x="316" 
d="M111 577h-90l121 173h29l120 -173h-89l-46 119z" />
    <glyph glyph-name="caron" unicode="&#x2c7;" horiz-adv-x="311" 
d="M201 750h90l-121 -173h-29l-120 173h89l46 -119z" />
    <glyph glyph-name="breve" unicode="&#x2d8;" horiz-adv-x="351" 
d="M176 672c65 0 94 24 94 67v11h41v-11c0 -109 -52 -172 -135 -172s-135 63 -135 172v11h41v-11c0 -43 32 -67 94 -67z" />
    <glyph glyph-name="tilde" unicode="&#x2dc;" horiz-adv-x="376" 
d="M112 567c-51 0 -75 49 -64 170l2 13h75l-2 -23c-5 -41 6 -60 22 -60c47 0 47 93 115 93c51 0 79 -50 64 -169l-2 -14h-74l1 24c5 41 -6 60 -22 60c-47 0 -47 -94 -115 -94z" />
    <glyph glyph-name="macron" unicode="&#xaf;" horiz-adv-x="342" 
d="M311 607h-270v112h270v-112z" />
    <glyph glyph-name="dieresis" unicode="&#xa8;" horiz-adv-x="351" 
d="M99 590c-31 0 -49 27 -49 73s18 73 49 73s50 -27 50 -73s-19 -73 -50 -73zM252 590c-31 0 -49 27 -49 73s18 73 49 73s50 -27 50 -73s-19 -73 -50 -73z" />
    <glyph glyph-name="dotaccent" unicode="&#x2d9;" horiz-adv-x="189" 
d="M95 590c-34 0 -52 27 -52 73s18 73 52 73c33 0 52 -27 52 -73s-21 -73 -52 -73z" />
    <glyph glyph-name="ring" unicode="&#x2da;" horiz-adv-x="297" 
d="M149 506c-68 0 -107 60 -107 159c0 100 39 159 107 159s106 -59 106 -159c0 -99 -38 -159 -106 -159zM149 604c47 0 73 23 73 61s-26 61 -73 61s-74 -23 -74 -61s27 -61 74 -61z" />
    <glyph glyph-name="cedilla" unicode="&#xb8;" horiz-adv-x="194" 
d="M102 -84c0 15 -9 25 -37 25h-11v102h34v-64c54 -10 69 -54 69 -96c0 -73 -39 -105 -93 -105c-13 0 -26 1 -41 6v110c11 -3 20 -4 38 -4c31 0 41 8 41 26z" />
    <glyph glyph-name="ogonek" unicode="&#x2db;" horiz-adv-x="192" 
d="M114 40l9 -40c-39 -14 -51 -30 -51 -58s14 -41 42 -41c16 0 26 2 36 4v-109c-12 -4 -22 -6 -39 -6c-52 0 -87 40 -87 117c0 74 33 111 90 133z" />
    <glyph glyph-name="copyright" unicode="&#xa9;" horiz-adv-x="641" 
d="M321 -106c160 0 248 132 248 356c0 221 -90 356 -248 356c-165 0 -248 -135 -248 -356s83 -356 248 -356zM321 -212c-188 0 -287 171 -287 462s99 462 287 462c179 0 286 -171 286 -462s-108 -462 -286 -462zM319 396c-85 0 -122 -45 -122 -146c0 -102 37 -146 122 -146
c74 0 112 35 112 92v8h40v-8c0 -121 -59 -205 -152 -205c-105 0 -161 99 -161 259c0 159 56 259 161 259c93 0 152 -78 152 -195v-8h-40v8c0 50 -38 82 -112 82z" />
    <glyph glyph-name="uni24C5" unicode="&#x24c5;" horiz-adv-x="640" 
d="M243 148v-148h-41v500h147c83 0 124 -67 124 -176c0 -111 -41 -176 -124 -176h-106zM243 388v-128h106c57 0 83 23 83 64c0 40 -26 64 -83 64h-106zM320 -106c160 0 248 132 248 356c0 221 -90 356 -248 356c-164 0 -248 -135 -248 -356s84 -356 248 -356zM320 -212
c-187 0 -286 171 -286 462s99 462 286 462c180 0 286 -171 286 -462s-108 -462 -286 -462z" />
    <glyph glyph-name="registered" unicode="&#xae;" horiz-adv-x="641" 
d="M607 250c0 -291 -108 -462 -286 -462c-188 0 -287 171 -287 462s99 462 287 462c179 0 286 -171 286 -462zM73 250c0 -221 83 -356 248 -356c160 0 248 132 248 356c0 221 -90 356 -248 356c-165 0 -248 -135 -248 -356zM459 324c0 -80 -21 -132 -63 -151l70 -173h-46
l-67 158h-124v-158h-40v500h151c80 0 119 -67 119 -176zM418 324c0 40 -23 64 -78 64h-111v-128h111c55 0 78 23 78 64z" />
    <glyph glyph-name="trademark" unicode="&#x2122;" horiz-adv-x="560" 
d="M104 602h-82v98h262l91 -177l89 177h63v-351h-36v240l-93 -198h-47l-94 197v-239h-35v253h-83v-253h-35v253z" />
    <glyph glyph-name="degree" unicode="&#xb0;" horiz-adv-x="254" 
d="M127 490c50 0 75 23 75 61s-25 61 -75 61c-51 0 -74 -23 -74 -61s23 -61 74 -61zM127 392c-73 0 -109 60 -109 159c0 100 36 159 109 159c69 0 110 -59 110 -159c0 -99 -41 -159 -110 -159z" />
    <glyph glyph-name="uniF6C3" unicode="&#xf6c3;" horiz-adv-x="163" 
d="M87 780h32l9 -119c3 -43 -15 -72 -46 -72c-30 0 -47 26 -47 69c0 18 2 42 16 66z" />
    <glyph glyph-name="uniF6C9" unicode="&#xf6c9;" horiz-adv-x="194" 
d="M49 780l23 219h98l-84 -219h-37z" />
    <glyph glyph-name="uniF6CA" unicode="&#xf6ca;" horiz-adv-x="410" 
d="M189 780l-148 219h97l68 -165l67 165h97l-148 -219h-33z" />
    <glyph glyph-name="uniF6CB" unicode="&#xf6cb;" horiz-adv-x="409" 
d="M295 812c-34 0 -52 28 -52 77s18 77 52 77c32 0 52 -28 52 -77s-20 -77 -52 -77zM114 812c-33 0 -52 28 -52 77s19 77 52 77s53 -28 53 -77s-20 -77 -53 -77z" />
    <glyph glyph-name="uniF6CE" unicode="&#xf6ce;" horiz-adv-x="194" 
d="M170 780h-36l-100 219h99z" />
    <glyph glyph-name="uniF6CF" unicode="&#xf6cf;" horiz-adv-x="419" 
d="M83 780h-35l39 219h98zM252 780h-36l53 219h98z" />
    <glyph glyph-name="uniF6D0" unicode="&#xf6d0;" horiz-adv-x="408" 
d="M354 831h-300v116h300v-116z" />
    <glyph glyph-name="uni20BD" unicode="&#x20bd;" horiz-adv-x="405" 
d="M373 486c0 -135 -57 -214 -154 -214h-123v-64h243v-116h-243v-92h-42v92h-54v116h54v64h-54v116h54v312h165c97 0 154 -79 154 -214zM331 486c0 62 -40 98 -112 98h-123v-196h123c72 0 112 36 112 98z" />
    <glyph glyph-name="Breve" horiz-adv-x="408" 
d="M204 886c81 0 121 35 121 98v15h42v-15c0 -136 -62 -214 -163 -214c-102 0 -163 78 -163 214v15h42v-15c0 -63 42 -98 121 -98z" />
    <glyph glyph-name="Cedilla" horiz-adv-x="213" 
d="M134 -92c0 16 -7 28 -42 28h-14v118h39v-73c59 -10 65 -58 65 -101c0 -71 -29 -117 -101 -117c-17 0 -33 3 -45 7v115c20 -5 36 -6 53 -6c36 0 45 9 45 29z" />
    <glyph glyph-name="Circumflex" horiz-adv-x="410" 
d="M138 780h-97l148 219h33l148 -219h-97l-67 166z" />
    <glyph glyph-name="Dotaccent" horiz-adv-x="229" 
d="M114 812c-33 0 -52 28 -52 77s19 77 52 77s53 -28 53 -77s-20 -77 -53 -77z" />
    <glyph glyph-name="Ogonek" horiz-adv-x="220" 
d="M159 46l8 -46c-36 -13 -49 -39 -49 -71c0 -36 13 -50 40 -50c14 0 26 2 40 6v-115c-13 -4 -28 -6 -45 -6c-55 0 -83 45 -83 119c0 83 25 135 89 163z" />
    <glyph glyph-name="Tilde" horiz-adv-x="409" 
d="M290 1009c63 0 95 -56 78 -206l-2 -23h-82l2 36c8 55 -8 77 -30 77c-55 0 -56 -123 -135 -123c-63 0 -95 56 -78 206l3 23h82l-3 -36c-7 -54 9 -77 30 -77c56 0 55 123 135 123z" />
    <glyph glyph-name="idotaccent" horiz-adv-x="189" 
d="M97 500v-500h-40v500h40zM77 590c-33 0 -52 27 -52 73s19 73 52 73s52 -27 52 -73s-21 -73 -52 -73z" />
    <glyph glyph-name="undercommaaccent" horiz-adv-x="161" 
d="M74 -257h-31l-9 119c-4 43 15 72 45 72s47 -26 47 -69c0 -18 -2 -42 -16 -66z" />
    <glyph glyph-name="hyphen.uc" horiz-adv-x="309" 
d="M259 415v-116h-208v116h208z" />
    <glyph glyph-name="endash.uc" horiz-adv-x="369" 
d="M27 295v123h315v-123h-315z" />
    <glyph glyph-name="emdash.uc" horiz-adv-x="491" 
d="M21 295v123h449v-123h-449z" />
    <glyph glyph-name="guillemotleft.uc" horiz-adv-x="386" 
d="M68 348l105 -100v-117h-6l-146 219l146 218h6v-117l-105 -101v-2zM238 348l106 -100v-117h-6l-147 219l147 218h6v-117l-106 -101v-2z" />
    <glyph glyph-name="guillemotright.uc" horiz-adv-x="386" 
d="M42 248l106 100v2l-106 101v117h6l147 -218l-147 -219h-6v117zM213 248l105 100v2l-105 101v117h6l146 -218l-146 -219h-6v117z" />
    <glyph glyph-name="at.uc" horiz-adv-x="639" 
d="M606 350c0 -291 -108 -462 -286 -462c-188 0 -286 171 -286 462s98 462 286 462c179 0 286 -171 286 -462zM72 350c0 -221 83 -356 248 -356c160 0 248 132 248 356c0 221 -90 356 -248 356c-165 0 -248 -135 -248 -356zM325 609c85 0 137 -59 137 -157v-352h-41v103
c-21 -68 -67 -112 -135 -112c-67 0 -109 58 -109 155c0 95 42 151 109 151h135v55c0 30 -35 45 -96 45c-62 0 -97 -15 -97 -45v-12h-41v12c0 98 52 157 138 157zM218 250c0 -31 27 -47 73 -47c80 0 130 28 130 94h-130c-46 0 -73 -15 -73 -47z" />
    <glyph glyph-name="exclamdown.uc" horiz-adv-x="207" 
d="M145 0h-82l20 518h42zM54 639c0 46 17 73 50 73c31 0 49 -27 49 -73s-18 -73 -49 -73c-33 0 -50 27 -50 73z" />
    <glyph glyph-name="questiondown.uc" horiz-adv-x="407" 
d="M41 197c0 103 48 179 140 189v132h42v-226h-18c-79 0 -122 -36 -122 -95s43 -93 120 -93c81 0 121 30 121 83v45h42v-45c0 -126 -60 -199 -163 -199c-102 0 -162 77 -162 209zM202 712c32 0 49 -27 49 -73s-17 -73 -49 -73s-50 27 -50 73s18 73 50 73z" />
    <glyph glyph-name="uni0414.bgr" horiz-adv-x="491" 
d="M474 116v-315h-42v199h-373v-199h-42v315h45l133 584h103l133 -584h43zM105 116h282l-89 389l-16 76h-71z" />
    <glyph glyph-name="uni0416.bgr" horiz-adv-x="655" 
d="M523 700h97l-163 -335l179 -365h-50l-150 310h-87v-310h-42v310h-40l-150 -310h-98l181 368l-164 332h49l136 -274h86v274h42v-274h39z" />
    <glyph glyph-name="uni041A.bgr" horiz-adv-x="435" 
d="M55 0v700h42v-279h63l139 279h97l-175 -348l-16 28l207 -380h-55l-168 305h-92v-305h-42z" />
    <glyph glyph-name="uni041B.bgr" horiz-adv-x="432" 
d="M162 700h107l142 -700h-43l-119 594h-67l-119 -594h-43z" />
    <glyph glyph-name="uni0432.bgr" horiz-adv-x="388" 
d="M203 -10c-93 0 -149 83 -149 215v328c0 156 52 227 143 227c89 0 143 -71 143 -227c0 -77 -17 -137 -52 -171c41 -33 64 -92 64 -157c0 -132 -56 -215 -149 -215zM197 647c-68 0 -102 -27 -102 -114v-124h102c79 0 103 45 103 124c0 87 -36 114 -103 114zM311 205
c0 62 -32 102 -100 102h-116v-102c0 -65 39 -102 108 -102c72 0 108 37 108 102z" />
    <glyph glyph-name="uni0433.bgr" horiz-adv-x="352" 
d="M75 155c0 -30 22 -51 101 -51c66 0 100 14 100 51v18h41v-18c0 -97 -54 -164 -141 -164c-98 0 -141 80 -141 164c0 149 237 79 237 190c0 32 -19 51 -97 51c-64 0 -96 -11 -96 -51v-11h-41v11c0 103 52 164 137 164c95 0 137 -78 137 -164c0 -149 -237 -79 -237 -190z
" />
    <glyph glyph-name="uni0434.bgr" horiz-adv-x="405" 
d="M33 250c0 160 52 259 147 259c70 0 111 -38 130 -108v99h41v-559c0 -135 -52 -198 -159 -198s-159 63 -159 198h40c0 -58 39 -86 119 -86c82 0 118 28 118 86v158c-19 -70 -60 -108 -130 -108c-95 0 -147 100 -147 259zM193 104c80 0 117 44 117 121v50
c0 77 -37 121 -117 121c-81 0 -120 -42 -120 -146c0 -103 39 -146 120 -146z" />
    <glyph glyph-name="uni0436.bgr" horiz-adv-x="525" 
d="M104 0h-81l140 261l-133 239h47l106 -190h60v440h40v-440h25l106 190h82l-133 -239l140 -261h-48l-107 198h-65v-198h-40v198h-30z" />
    <glyph glyph-name="uni0437.bgr" horiz-adv-x="349" 
d="M172 396c-84 0 -108 -35 -108 -90v-26h-40v26c0 109 45 203 148 203s148 -93 148 -206c0 -71 -15 -120 -47 -149c35 -34 51 -92 51 -178c0 -130 -46 -236 -152 -236c-104 0 -153 106 -153 236v30h41v-30c0 -70 23 -123 112 -123s112 53 112 123s-26 123 -112 123h-65v112
h65c89 0 107 35 107 92s-21 93 -107 93z" />
    <glyph glyph-name="uni0438.bgr" 
d="M303 96c-18 -68 -55 -105 -116 -105c-89 0 -135 71 -135 205v304h40v-304c0 -60 35 -92 102 -92c72 0 109 44 109 121v275h40v-500h-40v96z" />
    <glyph glyph-name="uni0439.bgr" 
d="M303 96c-18 -68 -55 -105 -116 -105c-89 0 -135 71 -135 205v304h40v-304c0 -60 35 -92 102 -92c72 0 109 44 109 121v275h40v-500h-40v96zM102 739c0 -43 33 -67 94 -67c65 0 95 24 95 67v11h41v-11c0 -109 -53 -172 -136 -172s-135 63 -135 172v11h41v-11z" />
    <glyph glyph-name="uni043A.bgr" horiz-adv-x="367" 
d="M95 0h-41v750h41v-439h51l112 189h83l-145 -245l154 -255h-51l-120 199h-84v-199z" />
    <glyph glyph-name="uni043B.bgr" horiz-adv-x="341" 
d="M216 500l116 -500h-41l-69 297l-18 89h-67l-18 -89l-69 -297h-40l116 500h90z" />
    <glyph glyph-name="uni043C.bgr" horiz-adv-x="588" 
d="M95 410c17 64 49 99 101 99c54 0 90 -33 107 -97c19 63 55 97 114 97c79 0 119 -71 119 -205v-304h-40v304c0 61 -27 93 -87 93c-62 0 -94 -44 -94 -122v-275h-40v304c0 61 -27 93 -87 93c-62 0 -93 -44 -93 -122v-275h-41v500h41v-90z" />
    <glyph glyph-name="uni043F.bgr" 
d="M95 405c18 67 55 104 115 104c89 0 135 -71 135 -205v-304h-40v304c0 61 -35 93 -102 93c-71 0 -108 -44 -108 -122v-275h-41v500h41v-95z" />
    <glyph glyph-name="uni0446.bgr" horiz-adv-x="408" 
d="M303 96c-18 -68 -55 -105 -116 -105c-89 0 -135 71 -135 205v304h40v-304c0 -60 35 -92 102 -92c72 0 109 44 109 121v275h40v-388h40v-261h-40v149h-40v96z" />
    <glyph glyph-name="uni0448.bgr" horiz-adv-x="591" 
d="M497 90c-17 -64 -49 -99 -101 -99c-54 0 -90 33 -108 96c-19 -62 -55 -96 -113 -96c-80 0 -120 71 -120 205v304h41v-304c0 -61 27 -93 87 -93c62 0 93 44 93 122v275h41v-304c0 -61 27 -93 87 -93c61 0 93 44 93 122v275h40v-500h-40v90z" />
    <glyph glyph-name="uni0449.bgr" horiz-adv-x="596" 
d="M491 76c-18 -55 -49 -85 -97 -85c-54 0 -90 33 -108 96c-19 -62 -55 -96 -113 -96c-80 0 -120 71 -120 205v304h41v-304c0 -61 27 -93 87 -93c62 0 93 44 93 122v275h41v-304c0 -61 27 -93 87 -93c61 0 93 44 93 122v275h40v-388h36v-261h-40v149h-40v76z" />
    <glyph glyph-name="uni044A.bgr" horiz-adv-x="381" 
d="M125 240v-69c0 -43 29 -69 94 -69s95 26 95 69c0 44 -25 69 -83 69h-106zM84 388h-78v112h119v-148h106c83 0 124 -67 124 -181c0 -112 -45 -181 -136 -181c-90 0 -135 69 -135 181v217z" />
    <glyph glyph-name="uni044B.bgr" horiz-adv-x="502" 
d="M95 240v-69c0 -43 29 -69 94 -69s95 26 95 69c0 44 -25 69 -83 69h-106zM54 171v329h41v-148h106c83 0 124 -67 124 -181c0 -112 -45 -181 -136 -181c-90 0 -135 69 -135 181zM448 500v-500h-41v500h41z" />
    <glyph glyph-name="uni044C.bgr" horiz-adv-x="351" 
d="M95 240v-69c0 -43 29 -69 94 -69s95 26 95 69c0 44 -25 69 -83 69h-106zM54 171v329h41v-148h106c83 0 124 -67 124 -181c0 -112 -45 -181 -136 -181c-90 0 -135 69 -135 181z" />
    <glyph glyph-name="uni044E.bgr" horiz-adv-x="540" 
d="M196 309c12 126 64 200 156 200c104 0 158 -97 158 -259c0 -163 -54 -259 -158 -259c-93 0 -146 75 -157 206h-100v-197h-41v750h41v-441h101zM234 250c0 -93 40 -146 118 -146c76 0 118 53 118 146c0 92 -42 146 -118 146c-78 0 -118 -54 -118 -146z" />
    <glyph glyph-name="uni04C1" unicode="&#x4c1;" horiz-adv-x="655" 
d="M523 700h97l-163 -335l179 -365h-50l-150 310h-87v-310h-42v310h-40l-150 -310h-98l181 368l-164 332h49l136 -274h86v274h42v-274h39zM206 984c0 -63 43 -98 122 -98c80 0 121 35 121 98v15h42v-15c0 -136 -62 -214 -163 -214c-102 0 -164 78 -164 214v15h42v-15z" />
    <glyph glyph-name="uni04E2" unicode="&#x4e2;" horiz-adv-x="486" 
d="M340 700h91v-700h-42v500l3 92h-2l-244 -592h-91v700h42v-500l-2 -91h2zM393 831h-300v116h300v-116z" />
    <glyph glyph-name="uni04E6" unicode="&#x4e6;" horiz-adv-x="486" 
d="M409 350c0 153 -58 246 -166 246c-107 0 -166 -93 -166 -246s59 -246 166 -246c108 0 166 93 166 246zM37 350c0 228 77 362 206 362s206 -134 206 -362s-77 -362 -206 -362s-206 134 -206 362zM333 812c-33 0 -52 28 -52 77s19 77 52 77c32 0 53 -28 53 -77
s-21 -77 -53 -77zM153 812c-33 0 -52 28 -52 77s19 77 52 77c32 0 52 -28 52 -77s-20 -77 -52 -77z" />
    <glyph glyph-name="uni04EE" unicode="&#x4ee;" horiz-adv-x="399" 
d="M61 700l108 -298l24 -78h3l21 78l89 298h82l-148 -493c-59 -189 -81 -211 -157 -211h-11v116h11c47 0 89 3 116 92l-181 496h43zM353 831h-299v116h299v-116z" />
    <glyph glyph-name="uni04F2" unicode="&#x4f2;" horiz-adv-x="399" 
d="M58 700l108 -298l24 -78h3l21 78l89 298h82l-148 -493c-59 -189 -81 -211 -157 -211h-11v116h11c47 0 89 3 116 92l-181 496h43zM107 780h-35l39 219h99zM277 780h-36l52 219h99z" />
    </font>
</defs>
</svg>
