<?xml version="1.0" standalone="no"?>
<!DOCTYPE svg PUBLIC "-//W3C//DTD SVG 1.1//EN" "http://www.w3.org/Graphics/SVG/1.1/DTD/svg11.dtd" >
<svg xmlns="http://www.w3.org/2000/svg" xmlns:xlink="http://www.w3.org/1999/xlink" version="1.1">
<metadata>
Created by FontForge 20190801 at Wed Nov  6 22:53:25 2019
 By Jimmy Wärting
\(c\) Nikita Kanarev Fonts, 2018
</metadata>
<defs>
<font id="Archaism-Ct1Wd50" horiz-adv-x="397" >
  <font-face 
    font-family="Archaism"
    font-weight="400"
    font-stretch="normal"
    units-per-em="1000"
    panose-1="0 0 0 0 0 0 0 0 0 0"
    ascent="750"
    descent="-250"
    x-height="500"
    cap-height="700"
    bbox="-98 -278 1048 1143"
    underline-thickness="50"
    underline-position="-100"
    stemh="96"
    stemv="59"
    unicode-range="U+000D-FB02"
  />
<missing-glyph horiz-adv-x="1068" 
d="M365 425l-59 -60s-3 -9 -10 -16c-33 -34 -89 -35 -126 -65c20 -27 77 -84 118 -118c24 43 23 104 51 131c2 3 5 4 9 4c7 0 15 -5 20 -8c1 -1 2 -1 4 -1s4 1 5 2l-21 21l59 60zM520 238c-35 36 -45 67 -45 67l-61 60l-49 -50l74 -74c45 -44 108 -88 150 -130
c33 -32 60 -68 68 -90l15 -8l40 40c-9 15 -29 39 -58 69c-57 56 -83 67 -134 116zM757 380l-49 49l-7 -5l50 -50zM572 200c17 13 33 27 121 115l-50 50l-60 -60s-11 -31 -50 -70c14 -15 27 -26 39 -35zM762 349c-7 7 -10 16 -10 16l-60 60l-50 -50l59 -60l-21 -21
c1 -1 3 -2 5 -2c1 0 2 0 3 1c5 3 14 8 21 8c4 0 7 -1 10 -4c27 -27 27 -88 51 -131c40 34 98 91 118 118c-38 30 -93 31 -126 65zM524 161l-39 32c-24 -20 -47 -38 -81 -71c-30 -30 -49 -54 -59 -69l41 -40l14 8c20 48 83 105 124 140zM350 429l-50 -49l6 -6l50 50z
M524 -278l-504 504v19l505 505h19l504 -504v-18l-505 -506h-19z" />
    <glyph glyph-name="fb" unicode="fb" horiz-adv-x="663" 
d="M68 575c0 110 48 175 136 175h170v-321c20 53 55 80 109 80c100 0 150 -90 150 -259s-50 -259 -150 -259c-54 0 -89 28 -109 80v-71h-59v656h-111c-52 0 -77 -31 -77 -81v-75h101v-92h-101v-408h-59v408h-40v92h40v75zM473 416c-65 0 -99 -51 -99 -141v-50
c0 -90 34 -141 99 -141c72 0 101 48 101 166s-29 166 -101 166z" />
    <glyph glyph-name="fh" unicode="fh" horiz-adv-x="658" 
d="M68 575c0 110 48 175 136 175h170v-319c19 51 53 78 103 78c87 0 129 -66 129 -205v-304h-59v304c0 77 -26 113 -82 113c-60 0 -91 -51 -91 -142v-275h-59v656h-111c-52 0 -77 -31 -77 -81v-75h101v-92h-101v-408h-59v408h-40v92h40v75z" />
    <glyph glyph-name="fj" unicode="fj" horiz-adv-x="428" 
d="M221 760c96 0 153 -71 153 -196v-11h-59v11c0 69 -33 103 -94 103c-62 0 -94 -34 -94 -103v-64h101v-92h-101v-408h-59v408h-40v92h40v64c0 125 56 196 153 196zM269 -257c-72 0 -106 61 -106 179h59c0 -70 17 -87 47 -87s46 18 46 88v577h59v-579
c0 -121 -35 -178 -105 -178z" />
    <glyph glyph-name="fk" unicode="fk" horiz-adv-x="628" 
d="M68 575c0 110 48 175 136 175h170v-449h46l98 199h84l-126 -245l135 -255h-69l-105 209h-63v-209h-59v656h-111c-52 0 -77 -31 -77 -81v-75h101v-92h-101v-408h-59v408h-40v92h40v75z" />
    <glyph glyph-name="ft" unicode="ft" horiz-adv-x="535" 
d="M398 84c34 0 54 15 54 85h59c0 -113 -37 -178 -113 -178s-113 57 -113 178v239h-158v-408h-59v408h-40v92h40v75c0 110 48 175 136 175h33v-94h-33c-52 0 -77 -31 -77 -81v-75h158l13 107h46v-107h122v-92h-122v-239c0 -70 19 -85 54 -85z" />
    <glyph glyph-name="fi" unicode="fi" horiz-adv-x="437" 
d="M221 760c96 0 153 -71 153 -196v-11h-59v11c0 69 -33 103 -94 103c-62 0 -94 -34 -94 -103v-64h101v-92h-101v-408h-59v408h-40v92h40v64c0 125 56 196 153 196zM315 500h59v-500h-59v500z" />
    <glyph glyph-name="fl" unicode="fl" horiz-adv-x="425" 
d="M68 575c0 110 48 175 136 175h170v-750h-59v656h-111c-52 0 -77 -31 -77 -81v-75h101v-92h-101v-408h-59v408h-40v92h40v75z" />
    <glyph glyph-name=".notdef" horiz-adv-x="1068" 
d="M365 425l-59 -60s-3 -9 -10 -16c-33 -34 -89 -35 -126 -65c20 -27 77 -84 118 -118c24 43 23 104 51 131c2 3 5 4 9 4c7 0 15 -5 20 -8c1 -1 2 -1 4 -1s4 1 5 2l-21 21l59 60zM520 238c-35 36 -45 67 -45 67l-61 60l-49 -50l74 -74c45 -44 108 -88 150 -130
c33 -32 60 -68 68 -90l15 -8l40 40c-9 15 -29 39 -58 69c-57 56 -83 67 -134 116zM757 380l-49 49l-7 -5l50 -50zM572 200c17 13 33 27 121 115l-50 50l-60 -60s-11 -31 -50 -70c14 -15 27 -26 39 -35zM762 349c-7 7 -10 16 -10 16l-60 60l-50 -50l59 -60l-21 -21
c1 -1 3 -2 5 -2c1 0 2 0 3 1c5 3 14 8 21 8c4 0 7 -1 10 -4c27 -27 27 -88 51 -131c40 34 98 91 118 118c-38 30 -93 31 -126 65zM524 161l-39 32c-24 -20 -47 -38 -81 -71c-30 -30 -49 -54 -59 -69l41 -40l14 8c20 48 83 105 124 140zM350 429l-50 -49l6 -6l50 50z
M524 -278l-504 504v19l505 505h19l504 -504v-18l-505 -506h-19z" />
    <glyph glyph-name="uni0000" horiz-adv-x="0" 
 />
    <glyph glyph-name="uni0000" horiz-adv-x="0" 
 />
    <glyph glyph-name="uni000D" unicode="&#xd;" horiz-adv-x="250" 
 />
    <glyph glyph-name="space" unicode=" " horiz-adv-x="205" 
 />
    <glyph glyph-name="uni2009" unicode="&#x2009;" horiz-adv-x="50" 
 />
    <glyph glyph-name="A" unicode="A" horiz-adv-x="434" 
d="M324 134h-215l-25 -134h-63l134 700h122l137 -700h-65zM126 230h180l-52 270l-18 110h-41l-18 -110z" />
    <glyph glyph-name="Agrave" unicode="&#xc0;" horiz-adv-x="434" 
d="M324 134h-215l-25 -134h-63l134 700h122l137 -700h-65zM126 230h180l-52 270l-18 110h-41l-18 -110zM203 999l37 -219h-52l-83 219h98z" />
    <glyph glyph-name="Aacute" unicode="&#xc1;" horiz-adv-x="434" 
d="M324 134h-215l-25 -134h-63l134 700h122l137 -700h-65zM126 230h180l-52 270l-18 110h-41l-18 -110zM244 780h-52l30 219h98z" />
    <glyph glyph-name="Acircumflex" unicode="&#xc2;" horiz-adv-x="434" 
d="M324 134h-215l-25 -134h-63l134 700h122l137 -700h-65zM126 230h180l-52 270l-18 110h-41l-18 -110zM145 780h-91l140 219h48l140 -219h-92l-72 153z" />
    <glyph glyph-name="Atilde" unicode="&#xc3;" horiz-adv-x="434" 
d="M324 134h-215l-25 -134h-63l134 700h122l137 -700h-65zM158 869c48 0 47 140 135 140c64 0 102 -46 94 -185l-1 -44h-81l1 57c4 52 -9 72 -30 72c-48 0 -49 -139 -135 -139c-64 0 -102 47 -94 185l1 44h81l-1 -57c-4 -52 9 -73 30 -73zM126 230h180l-52 270l-18 110h-41
l-18 -110z" />
    <glyph glyph-name="Adieresis" unicode="&#xc4;" horiz-adv-x="434" 
d="M324 134h-215l-25 -134h-63l134 700h122l137 -700h-65zM126 230h180l-52 270l-18 110h-41l-18 -110zM176 889c0 -43 -20 -68 -53 -68s-52 25 -52 68c0 44 19 69 52 69s53 -25 53 -69zM356 889c0 -43 -20 -68 -52 -68c-34 0 -52 25 -52 68c0 44 18 69 52 69
c32 0 52 -25 52 -69z" />
    <glyph glyph-name="Aring" unicode="&#xc5;" horiz-adv-x="434" 
d="M323 837c0 -67 -16 -113 -46 -138l137 -699h-65l-25 134h-215l-25 -134h-63l134 699c-30 24 -46 71 -46 138c0 105 39 159 107 159c67 0 107 -54 107 -159zM126 230h180l-52 270l-18 110h-41l-18 -110zM158 837c0 -53 21 -77 58 -77c36 0 57 24 57 77s-21 77 -57 77
c-37 0 -58 -24 -58 -77z" />
    <glyph glyph-name="Amacron" unicode="&#x100;" horiz-adv-x="434" 
d="M324 134h-215l-25 -134h-63l134 700h122l137 -700h-65zM126 230h180l-52 270l-18 110h-41l-18 -110zM366 937v-96h-299v96h299z" />
    <glyph glyph-name="Abreve" unicode="&#x102;" horiz-adv-x="434" 
d="M324 134h-215l-25 -134h-63l134 700h122l137 -700h-65zM115 984c0 -78 33 -118 102 -118c70 0 102 40 102 118v15h61v-15c0 -137 -57 -214 -163 -214c-107 0 -163 77 -163 214v15h61v-15zM126 230h180l-52 270l-18 110h-41l-18 -110z" />
    <glyph glyph-name="Aogonek" unicode="&#x104;" horiz-adv-x="433" 
d="M307 -121c0 55 14 97 41 126l-25 129h-215l-25 -134h-62l134 700h121l137 -700c-31 -17 -42 -48 -42 -87c0 -38 14 -53 37 -53c15 0 25 2 36 6v-96c-15 -4 -30 -7 -45 -7c-58 0 -92 38 -92 116zM125 230h181l-53 270l-18 110h-41l-18 -110z" />
    <glyph glyph-name="Aringacute" unicode="&#x1fa;" horiz-adv-x="434" 
d="M323 837c0 -67 -16 -113 -46 -138l137 -699h-65l-25 134h-215l-25 -134h-63l134 699c-30 24 -46 71 -46 138c0 96 33 150 90 158l33 148h86l-68 -152c46 -17 73 -68 73 -154zM126 230h180l-52 270l-18 110h-41l-18 -110zM158 837c0 -53 21 -77 58 -77c36 0 57 24 57 77
s-21 77 -57 77c-37 0 -58 -24 -58 -77z" />
    <glyph glyph-name="B" unicode="B" horiz-adv-x="430" 
d="M388 204c0 -129 -57 -204 -161 -204h-172v700h173c106 0 153 -73 153 -196c0 -72 -20 -123 -68 -146c49 -27 75 -81 75 -154zM327 204c0 66 -34 105 -100 105h-110v-213h110c66 0 100 39 100 108zM319 504c0 61 -21 100 -91 100h-111v-199h111c70 0 91 36 91 99z" />
    <glyph glyph-name="C" unicode="C" horiz-adv-x="472" 
d="M433 417h-61v15c0 119 -56 183 -130 183c-95 0 -143 -100 -143 -265s48 -264 143 -264c74 0 130 69 130 193v18h62v-18c0 -193 -81 -290 -192 -290c-131 0 -205 122 -205 361c0 240 74 361 205 361c110 0 191 -93 191 -279v-15z" />
    <glyph glyph-name="Ccedilla" unicode="&#xc7;" horiz-adv-x="472" 
d="M242 711c110 0 191 -93 191 -279v-15h-61v15c0 119 -56 183 -130 183c-95 0 -143 -100 -143 -265s48 -264 143 -264c74 0 130 69 130 193v18h62v-18c0 -176 -68 -273 -164 -288v-11c48 -11 57 -55 57 -100c0 -76 -35 -117 -100 -117c-16 0 -31 2 -46 7v96
c16 -4 30 -6 44 -6c30 0 39 12 39 40c0 23 -7 35 -34 35h-18v56c-112 18 -175 139 -175 359c0 240 74 361 205 361z" />
    <glyph glyph-name="Cacute" unicode="&#x106;" horiz-adv-x="472" 
d="M433 417h-61v15c0 119 -56 183 -130 183c-95 0 -143 -100 -143 -265s48 -264 143 -264c74 0 130 69 130 193v18h62v-18c0 -193 -81 -290 -192 -290c-131 0 -205 122 -205 361c0 240 74 361 205 361c110 0 191 -93 191 -279v-15zM211 780l29 219h99l-76 -219h-52z" />
    <glyph glyph-name="Ccircumflex" unicode="&#x108;" horiz-adv-x="472" 
d="M242 711c110 0 191 -93 191 -279v-15h-61v15c0 119 -56 183 -130 183c-95 0 -143 -100 -143 -265s48 -264 143 -264c74 0 130 69 130 193v18h62v-18c0 -193 -81 -290 -192 -290c-131 0 -205 122 -205 361c0 240 74 361 205 361zM165 780h-92l140 219h48l140 -219h-91
l-72 154z" />
    <glyph glyph-name="Cdotaccent" unicode="&#x10a;" horiz-adv-x="472" 
d="M433 417h-61v15c0 119 -56 183 -130 183c-95 0 -143 -100 -143 -265s48 -264 143 -264c74 0 130 69 130 193v18h62v-18c0 -193 -81 -290 -192 -290c-131 0 -205 122 -205 361c0 240 74 361 205 361c110 0 191 -93 191 -279v-15zM235 821c-33 0 -52 25 -52 68
c0 44 19 69 52 69s53 -25 53 -69c0 -43 -20 -68 -53 -68z" />
    <glyph glyph-name="Ccaron" unicode="&#x10c;" horiz-adv-x="472" 
d="M242 711c110 0 191 -93 191 -279v-15h-61v15c0 119 -56 183 -130 183c-95 0 -143 -100 -143 -265s48 -264 143 -264c74 0 130 69 130 193v18h62v-18c0 -193 -81 -290 -192 -290c-131 0 -205 122 -205 361c0 240 74 361 205 361zM213 780l-140 219h93l71 -148l71 148h93
l-140 -219h-48z" />
    <glyph glyph-name="D" unicode="D" horiz-adv-x="466" 
d="M55 700h163c139 0 211 -127 211 -350c0 -222 -72 -350 -211 -350h-163v700zM218 604h-101v-508h101c100 0 150 95 150 254c0 158 -50 254 -150 254z" />
    <glyph glyph-name="Dcaron" unicode="&#x10e;" horiz-adv-x="467" 
d="M430 350c0 -222 -73 -350 -211 -350h-163v700h163c138 0 211 -127 211 -350zM368 350c0 158 -50 254 -149 254h-102v-508h102c99 0 149 95 149 254zM206 780l-140 219h93l71 -148l71 148h93l-140 -219h-48z" />
    <glyph glyph-name="E" unicode="E" horiz-adv-x="390" 
d="M55 0v700h297v-96h-235v-200h224v-96h-224v-212h235v-96h-297z" />
    <glyph glyph-name="Egrave" unicode="&#xc8;" horiz-adv-x="388" 
d="M55 0v700h297v-96h-235v-200h224v-96h-224v-212h235v-96h-297zM231 780h-52l-83 219h98z" />
    <glyph glyph-name="Eacute" unicode="&#xc9;" horiz-adv-x="388" 
d="M55 0v700h297v-96h-235v-200h224v-96h-224v-212h235v-96h-297zM185 780l30 219h99l-76 -219h-53z" />
    <glyph glyph-name="Ecircumflex" unicode="&#xca;" horiz-adv-x="389" 
d="M353 0h-297v700h297v-96h-235v-200h224v-96h-224v-212h235v-96zM133 780h-91l139 219h49l139 -219h-91l-72 153z" />
    <glyph glyph-name="Edieresis" unicode="&#xcb;" horiz-adv-x="388" 
d="M55 0v700h297v-96h-235v-200h224v-96h-224v-212h235v-96h-297zM295 821c-34 0 -52 25 -52 68c0 44 18 69 52 69c32 0 52 -25 52 -69c0 -43 -20 -68 -52 -68zM114 821c-33 0 -52 25 -52 68c0 44 19 69 52 69s53 -25 53 -69c0 -43 -20 -68 -53 -68z" />
    <glyph glyph-name="Emacron" unicode="&#x112;" horiz-adv-x="388" 
d="M55 0v700h297v-96h-235v-200h224v-96h-224v-212h235v-96h-297zM353 841h-300v96h300v-96z" />
    <glyph glyph-name="Ebreve" unicode="&#x114;" horiz-adv-x="388" 
d="M55 0v700h297v-96h-235v-200h224v-96h-224v-212h235v-96h-297zM203 866c69 0 101 40 101 118v15h62v-15c0 -137 -57 -214 -163 -214c-107 0 -164 77 -164 214v15h62v-15c0 -78 33 -118 102 -118z" />
    <glyph glyph-name="Edotaccent" unicode="&#x116;" horiz-adv-x="388" 
d="M55 0v700h297v-96h-235v-200h224v-96h-224v-212h235v-96h-297zM205 821c-33 0 -52 25 -52 68c0 44 19 69 52 69s53 -25 53 -69c0 -43 -20 -68 -53 -68z" />
    <glyph glyph-name="Eogonek" unicode="&#x118;" horiz-adv-x="388" 
d="M246 -121c0 52 12 92 36 121h-227v700h297v-96h-235v-200h224v-96h-224v-212h235v-96c-31 -17 -43 -48 -43 -87c0 -38 14 -53 37 -53c15 0 25 2 37 6v-96c-15 -4 -30 -7 -46 -7c-58 0 -91 38 -91 116z" />
    <glyph glyph-name="Ecaron" unicode="&#x11a;" horiz-adv-x="389" 
d="M352 0h-297v700h297v-96h-235v-200h224v-96h-224v-212h235v-96zM182 780l-140 219h93l72 -148l70 148h93l-140 -219h-48z" />
    <glyph glyph-name="F" unicode="F" horiz-adv-x="380" 
d="M117 0h-62v700h297v-96h-235v-200h224v-96h-224v-308z" />
    <glyph glyph-name="G" unicode="G" horiz-adv-x="482" 
d="M242 86c76 0 133 46 133 133v8h-141v96h202v-323h-61v82c-27 -63 -75 -93 -133 -93c-131 0 -205 127 -205 361c0 240 74 361 205 361c109 0 191 -93 191 -279v-15h-62v15c0 119 -55 183 -129 183c-95 0 -143 -100 -143 -265s48 -264 143 -264z" />
    <glyph glyph-name="Gcircumflex" unicode="&#x11c;" horiz-adv-x="481" 
d="M242 86c76 0 133 46 133 133v8h-141v96h202v-323h-61v82c-27 -63 -75 -93 -133 -93c-131 0 -205 127 -205 361c0 240 74 361 205 361c109 0 191 -93 191 -279v-15h-62v15c0 119 -55 183 -129 183c-95 0 -143 -100 -143 -265s48 -264 143 -264zM165 780h-91l139 219h49
l139 -219h-91l-72 153z" />
    <glyph glyph-name="Gbreve" unicode="&#x11e;" horiz-adv-x="481" 
d="M242 86c76 0 133 46 133 133v8h-141v96h202v-323h-61v82c-27 -63 -75 -93 -133 -93c-131 0 -205 127 -205 361c0 240 74 361 205 361c109 0 191 -93 191 -279v-15h-62v15c0 119 -55 183 -129 183c-95 0 -143 -100 -143 -265s48 -264 143 -264zM135 984
c0 -78 33 -118 102 -118s101 40 101 118v15h62v-15c0 -137 -57 -214 -163 -214c-107 0 -164 77 -164 214v15h62v-15z" />
    <glyph glyph-name="Gdotaccent" unicode="&#x120;" horiz-adv-x="481" 
d="M242 86c76 0 133 46 133 133v8h-141v96h202v-323h-61v82c-27 -63 -75 -93 -133 -93c-131 0 -205 127 -205 361c0 240 74 361 205 361c109 0 191 -93 191 -279v-15h-62v15c0 119 -55 183 -129 183c-95 0 -143 -100 -143 -265s48 -264 143 -264zM291 889
c0 -43 -20 -68 -53 -68s-52 25 -52 68c0 44 19 69 52 69s53 -25 53 -69z" />
    <glyph glyph-name="uni0122" unicode="&#x122;" horiz-adv-x="481" 
d="M242 86c76 0 133 46 133 133v8h-141v96h202v-323h-61v82c-27 -63 -75 -93 -133 -93c-131 0 -205 127 -205 361c0 240 74 361 205 361c109 0 191 -93 191 -279v-15h-62v15c0 119 -55 183 -129 183c-95 0 -143 -100 -143 -265s48 -264 143 -264zM290 -122
c0 -18 -5 -44 -18 -67l-31 -62h-41l-5 128c-1 39 16 64 47 64c30 0 48 -24 48 -63z" />
    <glyph glyph-name="H" unicode="H" horiz-adv-x="468" 
d="M413 0h-61v309h-235v-309h-62v700h62v-295h235v295h61v-700z" />
    <glyph glyph-name="Hcircumflex" unicode="&#x124;" horiz-adv-x="467" 
d="M413 700v-700h-61v309h-235v-309h-62v700h62v-295h235v295h61zM162 780h-92l140 219h48l140 -219h-91l-72 153z" />
    <glyph glyph-name="I" unicode="I" horiz-adv-x="233" 
d="M53 0v96h33v508h-33v96h127v-96h-33v-508h33v-96h-127z" />
    <glyph glyph-name="Igrave" unicode="&#xcc;" horiz-adv-x="232" 
d="M53 0v96h33v508h-33v96h127v-96h-33v-508h33v-96h-127zM141 780h-52l-83 219h98z" />
    <glyph glyph-name="Iacute" unicode="&#xcd;" horiz-adv-x="232" 
d="M53 0v96h33v508h-33v96h127v-96h-33v-508h33v-96h-127zM88 780l30 219h98l-76 -219h-52z" />
    <glyph glyph-name="Icircumflex" unicode="&#xce;" horiz-adv-x="232" 
d="M180 0h-127v96h33v508h-33v96h127v-96h-33v-508h33v-96zM69 780h-92l115 219h48l115 -219h-92l-47 149z" />
    <glyph glyph-name="Idieresis" unicode="&#xcf;" horiz-adv-x="232" 
d="M53 0v96h33v508h-33v96h127v-96h-33v-508h33v-96h-127zM188 821c-33 0 -52 25 -52 68c0 44 19 69 52 69c32 0 53 -25 53 -69c0 -43 -21 -68 -53 -68zM43 821c-33 0 -52 25 -52 68c0 44 19 69 52 69s53 -25 53 -69c0 -43 -20 -68 -53 -68z" />
    <glyph glyph-name="Itilde" unicode="&#x128;" horiz-adv-x="232" 
d="M53 0v96h33v508h-33v96h127v-96h-33v-508h33v-96h-127zM186 1009c62 0 100 -47 92 -185l-1 -44h-79l2 57c3 52 -10 72 -31 72c-38 0 -45 -139 -124 -139c-63 0 -101 47 -92 185l1 44h79l-2 -57c-3 -52 10 -73 30 -73c39 0 44 140 125 140z" />
    <glyph glyph-name="Imacron" unicode="&#x12a;" horiz-adv-x="232" 
d="M53 0v96h33v508h-33v96h127v-96h-33v-508h33v-96h-127zM265 841h-299v96h299v-96z" />
    <glyph glyph-name="Ibreve" unicode="&#x12c;" horiz-adv-x="232" 
d="M53 0v96h33v508h-33v96h127v-96h-33v-508h33v-96h-127zM118 866c60 0 87 40 87 118v15h61v-15c0 -137 -51 -214 -148 -214s-149 77 -149 214v15h62v-15c0 -78 28 -118 87 -118z" />
    <glyph glyph-name="Iogonek" unicode="&#x12e;" horiz-adv-x="232" 
d="M74 -121c0 52 12 92 36 121h-57v96h33v508h-33v96h127v-96h-33v-508h33v-96c-31 -17 -43 -48 -43 -87c0 -38 14 -53 38 -53c14 0 24 2 36 6v-96c-15 -4 -30 -7 -45 -7c-58 0 -92 38 -92 116z" />
    <glyph glyph-name="Idotaccent" unicode="&#x130;" horiz-adv-x="235" 
d="M54 0v96h33v508h-33v96h127v-96h-32v-508h32v-96h-127zM117 821c-33 0 -52 25 -52 68c0 44 19 69 52 69c32 0 52 -25 52 -69c0 -43 -20 -68 -52 -68z" />
    <glyph glyph-name="J" unicode="J" 
d="M87 253v-23c0 -97 16 -144 98 -144c83 0 98 47 98 144v470h61v-470c0 -156 -38 -241 -159 -241c-120 0 -159 84 -159 241v23h61z" />
    <glyph glyph-name="Jcircumflex" unicode="&#x134;" horiz-adv-x="404" 
d="M190 -11c-120 0 -160 84 -160 241v23h62v-23c0 -97 16 -144 98 -144s97 47 97 144v470h62v-470c0 -156 -39 -241 -159 -241zM117 780h-92l140 219h48l140 -219h-91l-72 154z" />
    <glyph glyph-name="K" unicode="K" horiz-adv-x="435" 
d="M55 0v700h62v-291h56l133 291h93l-161 -345l174 -355h-74l-152 313h-69v-313h-62z" />
    <glyph glyph-name="uni0136" unicode="&#x136;" horiz-adv-x="435" 
d="M55 0v700h62v-291h56l133 291h93l-161 -345l174 -355h-74l-152 313h-69v-313h-62zM258 -122c0 -18 -5 -44 -17 -67l-31 -62h-42l-4 128c-2 39 16 64 46 64c31 0 48 -24 48 -63z" />
    <glyph glyph-name="L" unicode="L" horiz-adv-x="371" 
d="M348 96v-96h-293v700h62v-604h231z" />
    <glyph glyph-name="Lacute" unicode="&#x139;" horiz-adv-x="371" 
d="M348 96v-96h-293v700h62v-604h231zM63 780l30 219h98l-76 -219h-52z" />
    <glyph glyph-name="uni013B" unicode="&#x13b;" horiz-adv-x="371" 
d="M348 96v-96h-293v700h62v-604h231zM200 -251h-41l-5 128c-2 39 16 63 47 63c30 0 47 -23 47 -62c0 -18 -4 -44 -17 -67z" />
    <glyph glyph-name="Lcaron" unicode="&#x13d;" horiz-adv-x="381" 
d="M358 96v-96h-292v700h61v-604h231zM293 575h-41l-4 128c-2 39 16 64 46 64s48 -23 48 -62c0 -19 -5 -44 -17 -68z" />
    <glyph glyph-name="M" unicode="M" horiz-adv-x="593" 
d="M537 700v-700h-61v500l2 89h-1l-140 -459h-65l-139 457l2 -87v-500h-80v700h108l133 -455h2l133 455h106z" />
    <glyph glyph-name="N" unicode="N" horiz-adv-x="483" 
d="M319 0l-205 604h-2l3 -104v-500h-60v700h108l206 -604h2l-3 104v500h60v-700h-109z" />
    <glyph glyph-name="Ntilde" unicode="&#xd1;" horiz-adv-x="482" 
d="M319 0l-205 604h-2l3 -104v-500h-60v700h108l206 -604h2l-3 104v500h60v-700h-109zM318 1009c64 0 102 -46 94 -185l-1 -44h-81l1 57c4 52 -9 72 -30 72c-48 0 -49 -139 -135 -139c-64 0 -102 47 -94 185l1 44h81l-1 -57c-4 -52 9 -73 30 -73c48 0 47 140 135 140z" />
    <glyph glyph-name="Nacute" unicode="&#x143;" horiz-adv-x="482" 
d="M319 0l-205 604h-2l3 -104v-500h-60v700h108l206 -604h2l-3 104v500h60v-700h-109zM197 780l30 219h98l-76 -219h-52z" />
    <glyph glyph-name="uni0145" unicode="&#x145;" horiz-adv-x="482" 
d="M319 0l-205 604h-2l3 -104v-500h-60v700h108l206 -604h2l-3 104v500h60v-700h-109zM238 -251h-41l-5 128c-2 39 16 63 47 63c30 0 47 -23 47 -62c0 -18 -4 -44 -17 -67z" />
    <glyph glyph-name="Ncaron" unicode="&#x147;" horiz-adv-x="482" 
d="M115 0h-60v700h108l206 -604h2l-3 104v500h60v-700h-109l-205 604h-2l3 -104v-500zM218 780l-140 219h93l72 -148l70 148h93l-140 -219h-48z" />
    <glyph glyph-name="O" unicode="O" horiz-adv-x="483" 
d="M386 350c0 165 -49 265 -144 265c-96 0 -144 -100 -144 -265s48 -264 144 -264c95 0 144 99 144 264zM37 350c0 240 74 361 205 361c130 0 204 -121 204 -361c0 -239 -74 -361 -204 -361c-131 0 -205 122 -205 361z" />
    <glyph glyph-name="Ograve" unicode="&#xd2;" horiz-adv-x="483" 
d="M386 350c0 165 -49 265 -144 265c-96 0 -144 -100 -144 -265s48 -264 144 -264c95 0 144 99 144 264zM37 350c0 240 74 361 205 361c130 0 204 -121 204 -361c0 -239 -74 -361 -204 -361c-131 0 -205 122 -205 361zM269 780h-52l-84 219h99z" />
    <glyph glyph-name="Oacute" unicode="&#xd3;" horiz-adv-x="483" 
d="M386 350c0 165 -49 265 -144 265c-96 0 -144 -100 -144 -265s48 -264 144 -264c95 0 144 99 144 264zM37 350c0 240 74 361 205 361c130 0 204 -121 204 -361c0 -239 -74 -361 -204 -361c-131 0 -205 122 -205 361zM225 780l30 219h99l-76 -219h-53z" />
    <glyph glyph-name="Ocircumflex" unicode="&#xd4;" horiz-adv-x="483" 
d="M242 -11c-131 0 -205 122 -205 361c0 240 74 361 205 361c130 0 204 -121 204 -361c0 -239 -74 -361 -204 -361zM242 86c95 0 144 99 144 264s-49 265 -144 265c-96 0 -144 -100 -144 -265s48 -264 144 -264zM170 780h-92l140 219h48l140 -219h-91l-72 153z" />
    <glyph glyph-name="Otilde" unicode="&#xd5;" horiz-adv-x="483" 
d="M386 350c0 165 -49 265 -144 265c-96 0 -144 -100 -144 -265s48 -264 144 -264c95 0 144 99 144 264zM37 350c0 240 74 361 205 361c130 0 204 -121 204 -361c0 -239 -74 -361 -204 -361c-131 0 -205 122 -205 361zM317 1009c64 0 103 -46 94 -185l-1 -44h-81l2 57
c3 52 -10 72 -31 72c-47 0 -49 -139 -134 -139c-65 0 -103 47 -94 185l1 44h81l-2 -57c-3 -52 10 -73 30 -73c49 0 48 140 135 140z" />
    <glyph glyph-name="Odieresis" unicode="&#xd6;" horiz-adv-x="483" 
d="M386 350c0 165 -49 265 -144 265c-96 0 -144 -100 -144 -265s48 -264 144 -264c95 0 144 99 144 264zM37 350c0 240 74 361 205 361c130 0 204 -121 204 -361c0 -239 -74 -361 -204 -361c-131 0 -205 122 -205 361zM331 821c-33 0 -52 25 -52 68c0 44 19 69 52 69
c32 0 53 -25 53 -69c0 -43 -21 -68 -53 -68zM151 821c-34 0 -52 25 -52 68c0 44 18 69 52 69c32 0 52 -25 52 -69c0 -43 -20 -68 -52 -68z" />
    <glyph glyph-name="Omacron" unicode="&#x14c;" horiz-adv-x="483" 
d="M386 350c0 165 -49 265 -144 265c-96 0 -144 -100 -144 -265s48 -264 144 -264c95 0 144 99 144 264zM37 350c0 240 74 361 205 361c130 0 204 -121 204 -361c0 -239 -74 -361 -204 -361c-131 0 -205 122 -205 361zM391 841h-299v96h299v-96z" />
    <glyph glyph-name="Obreve" unicode="&#x14e;" horiz-adv-x="483" 
d="M386 350c0 165 -49 265 -144 265c-96 0 -144 -100 -144 -265s48 -264 144 -264c95 0 144 99 144 264zM37 350c0 240 74 361 205 361c130 0 204 -121 204 -361c0 -239 -74 -361 -204 -361c-131 0 -205 122 -205 361zM242 866c69 0 101 40 101 118v15h62v-15
c0 -137 -57 -214 -163 -214c-107 0 -164 77 -164 214v15h62v-15c0 -78 33 -118 102 -118z" />
    <glyph glyph-name="Ohungarumlaut" unicode="&#x150;" horiz-adv-x="487" 
d="M386 350c0 165 -49 265 -144 265c-96 0 -144 -100 -144 -265s48 -264 144 -264c95 0 144 99 144 264zM37 350c0 240 74 361 205 361c130 0 204 -121 204 -361c0 -239 -74 -361 -204 -361c-131 0 -205 122 -205 361zM179 780h-52l39 219h99zM348 780h-52l52 219h99z" />
    <glyph glyph-name="P" unicode="P" horiz-adv-x="407" 
d="M216 604h-99v-236h99c62 0 96 38 96 118s-34 118 -96 118zM55 700h161c100 0 158 -74 158 -214s-58 -214 -158 -214h-99v-272h-62v700z" />
    <glyph glyph-name="Q" unicode="Q" horiz-adv-x="503" 
d="M243 -12c-132 0 -206 129 -206 362s74 362 206 362s206 -129 206 -362c0 -123 -22 -216 -73 -266h92v-96h-225zM243 84c96 0 145 101 145 266c0 166 -49 266 -145 266s-144 -100 -144 -266c0 -165 48 -266 144 -266z" />
    <glyph glyph-name="R" unicode="R" horiz-adv-x="436" 
d="M387 486c0 -108 -37 -181 -104 -205l115 -281h-65l-110 272h-106v-272h-62v700h174c100 0 158 -79 158 -214zM326 486c0 75 -35 118 -97 118h-112v-236h112c62 0 97 43 97 118z" />
    <glyph glyph-name="Racute" unicode="&#x154;" horiz-adv-x="436" 
d="M387 486c0 -108 -37 -181 -104 -205l115 -281h-65l-110 272h-106v-272h-62v700h174c100 0 158 -79 158 -214zM326 486c0 75 -35 118 -97 118h-112v-236h112c62 0 97 43 97 118zM220 780h-52l30 219h98z" />
    <glyph glyph-name="uni0156" unicode="&#x156;" horiz-adv-x="436" 
d="M387 486c0 -108 -37 -181 -104 -205l115 -281h-65l-110 272h-106v-272h-62v700h174c100 0 158 -79 158 -214zM326 486c0 75 -35 118 -97 118h-112v-236h112c62 0 97 43 97 118zM272 -122c0 -18 -5 -44 -17 -67l-32 -62h-41l-4 128c-2 39 15 64 46 64c30 0 48 -24 48 -63z
" />
    <glyph glyph-name="Rcaron" unicode="&#x158;" horiz-adv-x="436" 
d="M387 486c0 -108 -37 -181 -104 -205l115 -281h-65l-110 272h-106v-272h-62v700h174c100 0 158 -79 158 -214zM326 486c0 75 -35 118 -97 118h-112v-236h112c62 0 97 43 97 118zM196 780l-139 219h93l71 -148l71 148h92l-139 -219h-49z" />
    <glyph glyph-name="S" unicode="S" horiz-adv-x="433" 
d="M395 198c1 -112 -54 -209 -179 -209c-121 0 -178 76 -178 247v18h62v-18c0 -110 26 -150 116 -150c83 0 118 41 118 112c0 177 -289 86 -289 320c0 101 49 193 171 193c119 0 172 -80 172 -241v-18h-61v18c0 104 -24 145 -111 145c-77 0 -110 -39 -110 -97
c0 -178 289 -86 289 -320z" />
    <glyph glyph-name="Sacute" unicode="&#x15a;" horiz-adv-x="433" 
d="M395 198c1 -112 -54 -209 -179 -209c-121 0 -178 76 -178 247v18h62v-18c0 -110 26 -150 116 -150c83 0 118 41 118 112c0 177 -289 86 -289 320c0 101 49 193 171 193c119 0 172 -80 172 -241v-18h-61v18c0 104 -24 145 -111 145c-77 0 -110 -39 -110 -97
c0 -178 289 -86 289 -320zM186 780l30 219h99l-76 -219h-53z" />
    <glyph glyph-name="Scircumflex" unicode="&#x15c;" horiz-adv-x="433" 
d="M106 518c0 -178 289 -86 289 -320c1 -112 -54 -209 -179 -209c-121 0 -178 76 -178 247v18h62v-18c0 -110 26 -150 116 -150c83 0 118 41 118 112c0 177 -289 86 -289 320c0 101 49 193 171 193c119 0 172 -80 172 -241v-18h-61v18c0 104 -24 145 -111 145
c-77 0 -110 -39 -110 -97zM141 780h-91l139 219h49l139 -219h-91l-72 153z" />
    <glyph glyph-name="Scedilla" unicode="&#x15e;" horiz-adv-x="433" 
d="M106 518c0 -178 289 -86 289 -320c1 -103 -45 -193 -149 -207v-11c48 -11 57 -55 57 -100c0 -76 -35 -117 -100 -117c-16 0 -32 2 -46 7v96c16 -4 30 -6 44 -6c30 0 39 12 39 40c0 23 -7 35 -35 35h-17v55c-102 12 -150 89 -150 246v18h62v-18c0 -110 26 -150 116 -150
c83 0 118 41 118 112c0 177 -289 86 -289 320c0 101 49 193 171 193c119 0 172 -80 172 -241v-18h-61v18c0 104 -24 145 -111 145c-77 0 -110 -39 -110 -97z" />
    <glyph glyph-name="Scaron" unicode="&#x160;" horiz-adv-x="433" 
d="M106 518c0 -178 289 -86 289 -320c1 -112 -54 -209 -179 -209c-121 0 -178 76 -178 247v18h62v-18c0 -110 26 -150 116 -150c83 0 118 41 118 112c0 177 -289 86 -289 320c0 101 49 193 171 193c119 0 172 -80 172 -241v-18h-61v18c0 104 -24 145 -111 145
c-77 0 -110 -39 -110 -97zM189 780l-140 219h93l72 -148l70 148h93l-140 -219h-48z" />
    <glyph glyph-name="uni0218" unicode="&#x218;" horiz-adv-x="433" 
d="M395 198c1 -112 -54 -209 -179 -209c-121 0 -178 76 -178 247v18h62v-18c0 -110 26 -150 116 -150c83 0 118 41 118 112c0 177 -289 86 -289 320c0 101 49 193 171 193c119 0 172 -80 172 -241v-18h-61v18c0 104 -24 145 -111 145c-77 0 -110 -39 -110 -97
c0 -178 289 -86 289 -320zM212 -251h-41l-4 128c-2 39 15 64 46 64c30 0 48 -24 48 -63c0 -18 -5 -44 -17 -67z" />
    <glyph glyph-name="T" unicode="T" horiz-adv-x="391" 
d="M17 604v96h358v-96h-149v-604h-61v604h-148z" />
    <glyph glyph-name="uni0162" unicode="&#x162;" horiz-adv-x="391" 
d="M17 604v96h358v-96h-149v-604h-61v604h-148zM194 -251h-41l-5 128c-2 39 16 63 47 63c30 0 47 -23 47 -62c0 -18 -4 -44 -17 -67z" />
    <glyph glyph-name="Tcaron" unicode="&#x164;" horiz-adv-x="391" 
d="M165 604h-148v96h358v-96h-149v-604h-61v604zM171 780l-139 219h93l71 -148l71 148h92l-139 -219h-49z" />
    <glyph glyph-name="U" unicode="U" horiz-adv-x="464" 
d="M411 700v-403c0 -204 -61 -308 -178 -308c-121 0 -180 104 -180 308v403h62v-403c0 -141 39 -211 118 -211c77 0 117 70 117 211v403h61z" />
    <glyph glyph-name="Ugrave" unicode="&#xd9;" horiz-adv-x="463" 
d="M411 700v-403c0 -204 -61 -308 -178 -308c-121 0 -180 104 -180 308v403h62v-403c0 -141 39 -211 118 -211c77 0 117 70 117 211v403h61zM262 780h-53l-83 219h98z" />
    <glyph glyph-name="Uacute" unicode="&#xda;" horiz-adv-x="463" 
d="M411 700v-403c0 -204 -61 -308 -178 -308c-121 0 -180 104 -180 308v403h62v-403c0 -141 39 -211 118 -211c77 0 117 70 117 211v403h61zM210 780l30 219h99l-76 -219h-53z" />
    <glyph glyph-name="Ucircumflex" unicode="&#xdb;" horiz-adv-x="463" 
d="M233 86c77 0 117 70 117 211v403h61v-403c0 -204 -61 -308 -178 -308c-121 0 -180 104 -180 308v403h62v-403c0 -141 39 -211 118 -211zM158 780h-91l140 219h48l140 -219h-92l-72 153z" />
    <glyph glyph-name="Udieresis" unicode="&#xdc;" horiz-adv-x="463" 
d="M411 700v-403c0 -204 -61 -308 -178 -308c-121 0 -180 104 -180 308v403h62v-403c0 -141 39 -211 118 -211c77 0 117 70 117 211v403h61zM320 821c-33 0 -52 25 -52 68c0 44 19 69 52 69s53 -25 53 -69c0 -43 -20 -68 -53 -68zM140 821c-33 0 -52 25 -52 68
c0 44 19 69 52 69c32 0 52 -25 52 -69c0 -43 -20 -68 -52 -68z" />
    <glyph glyph-name="Utilde" unicode="&#x168;" horiz-adv-x="463" 
d="M411 700v-403c0 -204 -61 -308 -178 -308c-121 0 -180 104 -180 308v403h62v-403c0 -141 39 -211 118 -211c77 0 117 70 117 211v403h61zM308 1009c64 0 102 -46 94 -185l-1 -44h-81l1 57c4 52 -9 72 -30 72c-48 0 -49 -139 -135 -139c-64 0 -102 47 -94 185l1 44h81
l-1 -57c-4 -52 9 -73 30 -73c48 0 47 140 135 140z" />
    <glyph glyph-name="Umacron" unicode="&#x16a;" horiz-adv-x="463" 
d="M411 700v-403c0 -204 -61 -308 -178 -308c-121 0 -180 104 -180 308v403h62v-403c0 -141 39 -211 118 -211c77 0 117 70 117 211v403h61zM380 841h-299v96h299v-96z" />
    <glyph glyph-name="Ubreve" unicode="&#x16c;" horiz-adv-x="463" 
d="M411 700v-403c0 -204 -61 -308 -178 -308c-121 0 -180 104 -180 308v403h62v-403c0 -141 39 -211 118 -211c77 0 117 70 117 211v403h61zM231 866c70 0 101 40 101 118v15h62v-15c0 -137 -57 -214 -163 -214c-107 0 -164 77 -164 214v15h62v-15c0 -78 33 -118 102 -118z
" />
    <glyph glyph-name="Uring" unicode="&#x16e;" horiz-adv-x="463" 
d="M411 700v-403c0 -204 -61 -308 -178 -308c-121 0 -180 104 -180 308v403h62v-403c0 -141 39 -211 118 -211c77 0 117 70 117 211v403h61zM231 706c-69 0 -107 55 -107 159c0 105 38 159 107 159c67 0 106 -54 106 -159c0 -104 -39 -159 -106 -159zM231 788
c36 0 57 24 57 77s-21 77 -57 77c-37 0 -58 -24 -58 -77s21 -77 58 -77z" />
    <glyph glyph-name="Uhungarumlaut" unicode="&#x170;" horiz-adv-x="463" 
d="M411 700v-403c0 -204 -61 -308 -178 -308c-121 0 -180 104 -180 308v403h62v-403c0 -141 39 -211 118 -211c77 0 117 70 117 211v403h61zM161 780h-52l39 219h99zM330 780h-52l52 219h99z" />
    <glyph glyph-name="Uogonek" unicode="&#x172;" horiz-adv-x="463" 
d="M180 -121c0 47 10 82 30 110c-106 14 -157 118 -157 308v403h62v-403c0 -142 39 -213 118 -213c77 0 117 71 117 213v403h61v-403c0 -173 -42 -274 -124 -301c-30 -9 -44 -45 -44 -83s14 -53 37 -53c15 0 25 2 37 6v-96c-15 -4 -30 -7 -46 -7c-58 0 -91 38 -91 116z" />
    <glyph glyph-name="V" unicode="V" horiz-adv-x="425" 
d="M261 0h-97l-147 700h64l105 -500l17 -112h2l17 112l105 500h81z" />
    <glyph glyph-name="W" unicode="W" horiz-adv-x="668" 
d="M650 700l-120 -700h-97l-87 499l-11 99h-2l-11 -99l-87 -499h-96l-121 700h62l85 -494l13 -108h2l13 108l86 494h92l87 -494l13 -108h2l13 108l84 494h80z" />
    <glyph glyph-name="Wcircumflex" unicode="&#x174;" horiz-adv-x="668" 
d="M570 700h80l-120 -700h-97l-87 499l-11 99h-2l-11 -99l-87 -499h-96l-121 700h62l85 -494l13 -108h2l13 108l86 494h92l87 -494l13 -108h2l13 108zM261 780h-92l140 219h48l140 -219h-91l-72 154z" />
    <glyph glyph-name="Wgrave" unicode="&#x1e80;" horiz-adv-x="668" 
d="M650 700l-120 -700h-97l-87 499l-11 99h-2l-11 -99l-87 -499h-96l-121 700h62l85 -494l13 -108h2l13 108l86 494h92l87 -494l13 -108h2l13 108l84 494h80zM354 780h-53l-83 219h98z" />
    <glyph glyph-name="Wacute" unicode="&#x1e82;" horiz-adv-x="668" 
d="M650 700l-120 -700h-97l-87 499l-11 99h-2l-11 -99l-87 -499h-96l-121 700h62l85 -494l13 -108h2l13 108l86 494h92l87 -494l13 -108h2l13 108l84 494h80zM304 780l30 219h99l-76 -219h-53z" />
    <glyph glyph-name="Wdieresis" unicode="&#x1e84;" horiz-adv-x="668" 
d="M650 700l-120 -700h-97l-87 499l-11 99h-2l-11 -99l-87 -499h-96l-121 700h62l85 -494l13 -108h2l13 108l86 494h92l87 -494l13 -108h2l13 108l84 494h80zM423 821c-34 0 -52 25 -52 68c0 44 18 69 52 69c32 0 52 -25 52 -69c0 -43 -20 -68 -52 -68zM242 821
c-33 0 -52 25 -52 68c0 44 19 69 52 69s53 -25 53 -69c0 -43 -20 -68 -53 -68z" />
    <glyph glyph-name="X" unicode="X" horiz-adv-x="433" 
d="M309 700h87l-132 -343l143 -357h-70l-83 205l-29 100h-3l-29 -100l-78 -205h-89l143 368l-132 332h69l74 -190l29 -95h3l27 95z" />
    <glyph glyph-name="Y" unicode="Y" horiz-adv-x="396" 
d="M167 0v206l-152 494h64l85 -274l23 -106h2l24 106l85 274h83l-152 -494v-206h-62z" />
    <glyph glyph-name="Yacute" unicode="&#xdd;" horiz-adv-x="396" 
d="M167 0v206l-152 494h64l85 -274l23 -106h2l24 106l85 274h83l-152 -494v-206h-62zM223 780h-52l30 219h98z" />
    <glyph glyph-name="Ycircumflex" unicode="&#x176;" horiz-adv-x="396" 
d="M167 0v206l-152 494h64l85 -274l23 -106h2l24 106l85 274h83l-152 -494v-206h-62zM124 780h-91l140 219h48l140 -219h-92l-72 153z" />
    <glyph glyph-name="Ydieresis" unicode="&#x178;" horiz-adv-x="396" 
d="M167 0v206l-152 494h64l85 -274l23 -106h2l24 106l85 274h83l-152 -494v-206h-62zM157 889c0 -43 -20 -68 -53 -68s-52 25 -52 68c0 44 19 69 52 69s53 -25 53 -69zM337 889c0 -43 -20 -68 -52 -68c-34 0 -52 25 -52 68c0 44 18 69 52 69c32 0 52 -25 52 -69z" />
    <glyph glyph-name="Ygrave" unicode="&#x1ef2;" horiz-adv-x="396" 
d="M167 0v206l-152 494h64l85 -274l23 -106h2l24 106l85 274h83l-152 -494v-206h-62zM182 999l37 -219h-52l-84 219h99z" />
    <glyph glyph-name="Z" unicode="Z" horiz-adv-x="393" 
d="M351 604l-246 -506v-2h252v-96h-321v96l245 506v2h-233v96h303v-96z" />
    <glyph glyph-name="Zacute" unicode="&#x179;" horiz-adv-x="393" 
d="M351 604l-246 -506v-2h252v-96h-321v96l245 506v2h-233v96h303v-96zM161 780l30 219h98l-76 -219h-52z" />
    <glyph glyph-name="Zdotaccent" unicode="&#x17b;" horiz-adv-x="393" 
d="M351 604l-246 -506v-2h252v-96h-321v96l245 506v2h-233v96h303v-96zM199 821c-33 0 -52 25 -52 68c0 44 19 69 52 69s53 -25 53 -69c0 -43 -20 -68 -53 -68z" />
    <glyph glyph-name="Zcaron" unicode="&#x17d;" horiz-adv-x="394" 
d="M352 700v-96l-245 -506v-2h252v-96h-321v96l245 506v2h-234v96h303zM174 780l-140 219h93l71 -148l71 148h93l-140 -219h-48z" />
    <glyph glyph-name="AE" unicode="&#xc6;" horiz-adv-x="626" 
d="M82 0h-62l169 700h398v-97h-225v-198h214v-97h-214v-211h225v-97h-286v137h-187zM301 603h-78l-86 -369h164v369z" />
    <glyph glyph-name="AEacute" unicode="&#x1fc;" horiz-adv-x="626" 
d="M82 0h-62l169 700h398v-97h-225v-198h214v-97h-214v-211h225v-97h-286v137h-187zM301 603h-78l-86 -369h164v369zM361 780h-52l30 219h98z" />
    <glyph glyph-name="Eth" unicode="&#xd0;" horiz-adv-x="466" 
d="M429 350c0 -222 -72 -350 -211 -350h-163v309h-52v96h52v295h163c139 0 211 -127 211 -350zM368 350c0 158 -50 254 -150 254h-101v-199h123v-96h-123v-213h101c100 0 150 95 150 254z" />
    <glyph glyph-name="Oslash" unicode="&#xd8;" horiz-adv-x="497" 
d="M248 711c49 0 89 -18 121 -53l21 42h66l-44 -88c31 -61 48 -149 48 -262c0 -232 -74 -361 -212 -361c-49 0 -89 18 -121 53l-21 -42h-66l44 89c-31 61 -47 149 -47 261c0 232 73 361 211 361zM98 350c0 -71 10 -129 30 -173l201 400c-21 25 -48 38 -81 38
c-99 0 -150 -100 -150 -265zM398 350c0 71 -10 130 -30 173l-201 -400c21 -24 49 -37 81 -37c99 0 150 100 150 264z" />
    <glyph glyph-name="Oslashacute" unicode="&#x1fe;" horiz-adv-x="497" 
d="M248 711c49 0 89 -18 121 -53l21 42h66l-44 -88c31 -61 48 -149 48 -262c0 -232 -74 -361 -212 -361c-49 0 -89 18 -121 53l-21 -42h-66l44 89c-31 61 -47 149 -47 261c0 232 73 361 211 361zM98 350c0 -71 10 -129 30 -173l201 400c-21 25 -48 38 -81 38
c-99 0 -150 -100 -150 -265zM398 350c0 71 -10 130 -30 173l-201 -400c21 -24 49 -37 81 -37c99 0 150 100 150 264zM267 777h-47l38 173h86z" />
    <glyph glyph-name="Thorn" unicode="&#xde;" horiz-adv-x="405" 
d="M117 231h98c63 0 97 43 97 118s-34 118 -97 118h-98v-236zM55 700h62v-137h98c100 0 159 -79 159 -214s-59 -214 -159 -214h-98v-135h-62v700z" />
    <glyph glyph-name="Dcroat" unicode="&#x110;" horiz-adv-x="466" 
d="M429 350c0 -222 -72 -350 -211 -350h-163v309h-52v96h52v295h163c139 0 211 -127 211 -350zM368 350c0 158 -50 254 -150 254h-101v-199h123v-96h-123v-213h101c100 0 150 95 150 254z" />
    <glyph glyph-name="Hbar" unicode="&#x126;" horiz-adv-x="467" 
d="M413 511v-511h-61v309h-235v-309h-62v511h-47v96h47v93h62v-93h235v93h61v-93h47v-96h-47zM352 405v106h-235v-106h235z" />
    <glyph glyph-name="IJ" unicode="&#x132;" horiz-adv-x="455" 
d="M53 298v96h30v210h-30v96h122v-96h-30v-210h30v-96h-122zM277 700h125v-470c0 -157 -38 -242 -159 -242s-160 84 -160 242v26h62v-26c0 -95 15 -141 98 -141s97 46 97 141v374h-63v96z" />
    <glyph glyph-name="Ldot" unicode="&#x13f;" horiz-adv-x="370" 
d="M348 96v-96h-293v700h62v-604h231zM238 287c-34 0 -52 25 -52 68c0 44 18 69 52 69c32 0 52 -25 52 -69c0 -43 -20 -68 -52 -68z" />
    <glyph glyph-name="Lslash" unicode="&#x141;" horiz-adv-x="370" 
d="M117 407l200 175h5v-108l-205 -179v-199h231v-96h-293v241l-43 -37h-4v108l47 41v347h62v-293z" />
    <glyph glyph-name="Eng" unicode="&#x14a;" horiz-adv-x="482" 
d="M428 -43c0 -136 -41 -215 -157 -215h-15v100h15c81 0 98 43 98 115v43h-50l-205 604h-2l3 -104v-500h-60v700h108l206 -604h2l-3 104v500h60v-743z" />
    <glyph glyph-name="OE" unicode="&#x152;" horiz-adv-x="700" 
d="M233 -11c-125 0 -196 122 -196 361c0 240 71 361 196 361c62 0 110 -34 142 -101v90h286v-98h-225v-197h215v-98h-215v-209h225v-98h-286v91c-32 -68 -80 -102 -142 -102zM237 89c91 0 138 98 138 261s-47 262 -138 262c-92 0 -138 -99 -138 -262s46 -261 138 -261z" />
    <glyph glyph-name="Tbar" unicode="&#x166;" horiz-adv-x="391" 
d="M165 604h-148v96h358v-96h-149v-199h118v-96h-118v-309h-61v309h-120v96h120v199z" />
    <glyph glyph-name="uni0402" unicode="&#x402;" horiz-adv-x="530" 
d="M226 367c21 36 55 59 109 59c138 0 167 -104 167 -219c0 -114 -29 -219 -167 -219h-22v96h15c96 0 112 63 112 123s-16 123 -112 123c-89 0 -102 -61 -102 -117v-213h-61v604h-148v96h358v-96h-149v-237z" />
    <glyph glyph-name="uni0404" unicode="&#x404;" horiz-adv-x="472" 
d="M242 711c109 0 191 -93 191 -279v-15h-62v15c0 119 -55 183 -129 183c-85 0 -132 -73 -141 -210h218v-96h-219c7 -145 54 -223 142 -223c74 0 130 69 130 193v18h62v-18c0 -193 -81 -290 -192 -290c-135 0 -205 120 -205 361s70 361 205 361z" />
    <glyph glyph-name="uni0405" unicode="&#x405;" horiz-adv-x="431" 
d="M395 198c1 -112 -54 -209 -179 -209c-121 0 -178 76 -178 247v18h62v-18c0 -110 26 -150 116 -150c83 0 118 41 118 112c0 177 -289 86 -289 320c0 101 49 193 171 193c119 0 172 -80 172 -241v-18h-61v18c0 104 -24 145 -111 145c-77 0 -110 -39 -110 -97
c0 -178 289 -86 289 -320z" />
    <glyph glyph-name="uni0406" unicode="&#x406;" horiz-adv-x="233" 
d="M53 0v96h33v508h-33v96h127v-96h-33v-508h33v-96h-127z" />
    <glyph glyph-name="uni0407" unicode="&#x407;" horiz-adv-x="232" 
d="M53 0v96h33v508h-33v96h127v-96h-33v-508h33v-96h-127zM188 821c-33 0 -52 25 -52 68c0 44 19 69 52 69c32 0 53 -25 53 -69c0 -43 -21 -68 -53 -68zM43 821c-33 0 -52 25 -52 68c0 44 19 69 52 69s53 -25 53 -69c0 -43 -20 -68 -53 -68z" />
    <glyph glyph-name="uni0408" unicode="&#x408;" 
d="M87 253v-23c0 -97 16 -144 98 -144c83 0 98 47 98 144v470h61v-470c0 -156 -38 -241 -159 -241c-120 0 -159 84 -159 241v23h61z" />
    <glyph glyph-name="uni0409" unicode="&#x409;" horiz-adv-x="671" 
d="M46 94c37 0 58 13 64 271l10 335h279v-281h81c100 0 158 -72 158 -209s-58 -210 -158 -210h-143v604h-161l-6 -239c-9 -337 -42 -371 -124 -371h-19v100h19zM577 210c0 76 -34 113 -97 113h-81v-227h81c63 0 97 37 97 114z" />
    <glyph glyph-name="uni040A" unicode="&#x40a;" horiz-adv-x="667" 
d="M634 203c0 -132 -58 -203 -158 -203h-143v310h-217v-310h-61v700h61v-294h217v294h61v-294h82c100 0 158 -71 158 -203zM572 203c0 72 -34 107 -96 107h-82v-214h82c62 0 96 35 96 107z" />
    <glyph glyph-name="uni040B" unicode="&#x40b;" horiz-adv-x="535" 
d="M226 365c22 38 58 61 116 61c132 0 160 -91 160 -211v-215h-62v215c0 65 -14 115 -104 115c-93 0 -110 -56 -110 -122v-208h-61v604h-148v96h358v-96h-149v-239z" />
    <glyph glyph-name="uni040F" unicode="&#x40f;" horiz-adv-x="469" 
d="M204 -199v199h-149v700h62v-604h236v604h61v-700h-149v-199h-61z" />
    <glyph glyph-name="uni0410" unicode="&#x410;" horiz-adv-x="434" 
d="M323 134h-215l-25 -134h-63l135 700h121l137 -700h-64zM125 230h180l-52 270l-18 110h-41l-18 -110z" />
    <glyph glyph-name="uni0411" unicode="&#x411;" horiz-adv-x="407" 
d="M374 214c0 -135 -58 -214 -158 -214h-161v700h289v-96h-227v-176h99c100 0 158 -79 158 -214zM312 214c0 75 -34 118 -96 118h-99v-236h99c62 0 96 43 96 118z" />
    <glyph glyph-name="uni0412" unicode="&#x412;" horiz-adv-x="427" 
d="M388 204c0 -129 -57 -204 -161 -204h-172v700h173c106 0 153 -73 153 -196c0 -72 -20 -123 -68 -146c49 -27 75 -81 75 -154zM327 204c0 66 -34 105 -100 105h-110v-213h110c66 0 100 39 100 108zM319 504c0 61 -21 100 -91 100h-111v-199h111c70 0 91 36 91 99z" />
    <glyph glyph-name="uni0413" unicode="&#x413;" horiz-adv-x="360" 
d="M348 700v-96h-231v-604h-62v700h293z" />
    <glyph glyph-name="uni0403" unicode="&#x403;" horiz-adv-x="360" 
d="M348 700v-96h-231v-604h-62v700h293zM172 780l30 219h98l-76 -219h-52z" />
    <glyph glyph-name="uni0414" unicode="&#x414;" horiz-adv-x="504" 
d="M74 96c17 65 32 178 39 488l3 116h309v-604h54v-295h-61v199h-332v-199h-63v295h51zM173 584c-7 -281 -21 -417 -39 -488h229v508h-189z" />
    <glyph glyph-name="uni0415" unicode="&#x415;" horiz-adv-x="390" 
d="M55 0v700h297v-96h-235v-200h224v-96h-224v-212h235v-96h-297z" />
    <glyph glyph-name="uni0401" unicode="&#x401;" horiz-adv-x="390" 
d="M55 0v700h297v-96h-235v-200h224v-96h-224v-212h235v-96h-297zM292 821c-33 0 -52 25 -52 68c0 44 19 69 52 69c32 0 53 -25 53 -69c0 -43 -21 -68 -53 -68zM112 821c-34 0 -52 25 -52 68c0 44 18 69 52 69c32 0 52 -25 52 -69c0 -43 -20 -68 -52 -68z" />
    <glyph glyph-name="uni0416" unicode="&#x416;" horiz-adv-x="655" 
d="M527 700h93l-144 -335l160 -365h-70l-135 320h-73v-320h-61v320h-49l-136 -320h-93l161 368l-144 332h69l120 -284h72v284h61v-284h50z" />
    <glyph glyph-name="uni0417" unicode="&#x417;" horiz-adv-x="416" 
d="M207 -11c-109 0 -170 76 -170 208v56h61v-56c0 -75 38 -111 109 -111c70 0 108 36 108 111c0 71 -27 112 -90 112h-70v96h70c72 0 83 39 83 104c0 70 -34 106 -101 106c-72 0 -108 -36 -108 -106v-58h-61v58c0 134 62 202 169 202c102 0 162 -68 162 -202
c0 -75 -17 -128 -68 -150c53 -26 76 -84 76 -162c0 -132 -60 -208 -170 -208z" />
    <glyph glyph-name="uni0418" unicode="&#x418;" horiz-adv-x="486" 
d="M321 700h110v-700h-62v500l3 104h-2l-205 -604h-110v700h62v-500l-3 -104h2z" />
    <glyph glyph-name="uni0419" unicode="&#x419;" horiz-adv-x="486" 
d="M321 700h110v-700h-62v500l3 104h-2l-205 -604h-110v700h62v-500l-3 -104h2zM243 866c70 0 102 40 102 118v15h61v-15c0 -137 -57 -214 -163 -214c-107 0 -163 77 -163 214v15h61v-15c0 -78 33 -118 102 -118z" />
    <glyph glyph-name="uni041A" unicode="&#x41a;" horiz-adv-x="435" 
d="M55 0v700h62v-291h56l133 291h93l-161 -345l174 -355h-74l-152 313h-69v-313h-62z" />
    <glyph glyph-name="uni040C" unicode="&#x40c;" horiz-adv-x="435" 
d="M55 0v700h62v-291h56l133 291h93l-161 -345l174 -355h-74l-152 313h-69v-313h-62zM226 780h-52l29 219h99z" />
    <glyph glyph-name="uni041B" unicode="&#x41b;" horiz-adv-x="473" 
d="M46 94c37 0 58 13 64 271l10 335h298v-700h-62v604h-180l-6 -239c-9 -337 -42 -371 -124 -371h-19v100h19z" />
    <glyph glyph-name="uni041C" unicode="&#x41c;" horiz-adv-x="592" 
d="M537 700v-700h-61v500l2 89h-1l-140 -459h-65l-139 457l2 -87v-500h-80v700h108l133 -455h2l133 455h106z" />
    <glyph glyph-name="uni041D" unicode="&#x41d;" horiz-adv-x="468" 
d="M413 0h-61v309h-235v-309h-62v700h62v-295h235v295h61v-700z" />
    <glyph glyph-name="uni041E" unicode="&#x41e;" horiz-adv-x="483" 
d="M386 350c0 165 -49 265 -144 265c-96 0 -144 -100 -144 -265s48 -264 144 -264c95 0 144 99 144 264zM37 350c0 240 74 361 205 361c130 0 204 -121 204 -361c0 -239 -74 -361 -204 -361c-131 0 -205 122 -205 361z" />
    <glyph glyph-name="uni041F" unicode="&#x41f;" horiz-adv-x="469" 
d="M414 0h-61v604h-236v-604h-62v700h359v-700z" />
    <glyph glyph-name="uni0420" unicode="&#x420;" horiz-adv-x="407" 
d="M216 604h-99v-236h99c62 0 96 38 96 118s-34 118 -96 118zM55 700h161c100 0 158 -74 158 -214s-58 -214 -158 -214h-99v-272h-62v700z" />
    <glyph glyph-name="uni0421" unicode="&#x421;" horiz-adv-x="472" 
d="M433 417h-61v15c0 119 -56 183 -130 183c-95 0 -143 -100 -143 -265s48 -264 143 -264c74 0 130 69 130 193v18h62v-18c0 -193 -81 -290 -192 -290c-131 0 -205 122 -205 361c0 240 74 361 205 361c110 0 191 -93 191 -279v-15z" />
    <glyph glyph-name="uni0422" unicode="&#x422;" horiz-adv-x="391" 
d="M17 604v96h358v-96h-149v-604h-61v604h-148z" />
    <glyph glyph-name="uni0423" unicode="&#x423;" horiz-adv-x="399" 
d="M79 700l98 -294l22 -84h2l20 84l83 294h81l-142 -497c-53 -185 -78 -207 -156 -207h-10v99h10c39 0 71 7 96 107l-168 498h64z" />
    <glyph glyph-name="uni040E" unicode="&#x40e;" horiz-adv-x="399" 
d="M79 700l98 -294l22 -84h2l20 84l83 294h81l-142 -497c-53 -185 -78 -207 -156 -207h-10v99h10c39 0 71 7 96 107l-168 498h64zM203 866c70 0 102 40 102 118v15h61v-15c0 -137 -57 -214 -163 -214s-163 77 -163 214v15h61v-15c0 -78 34 -118 102 -118z" />
    <glyph glyph-name="uni0424" unicode="&#x424;" horiz-adv-x="576" 
d="M31 380c0 198 76 302 194 302h32v68h62v-68h33c117 0 193 -105 193 -302s-76 -302 -193 -302h-33v-78h-62v78h-32c-118 0 -194 105 -194 302zM93 380c0 -135 56 -206 132 -206h34v412h-34c-76 0 -132 -71 -132 -206zM484 380c0 135 -57 206 -132 206h-34v-412h34
c75 0 132 72 132 206z" />
    <glyph glyph-name="uni0425" unicode="&#x425;" horiz-adv-x="433" 
d="M309 700h87l-132 -343l143 -357h-70l-83 205l-29 100h-3l-29 -100l-78 -205h-89l143 368l-132 332h69l74 -190l29 -95h3l27 95z" />
    <glyph glyph-name="uni0426" unicode="&#x426;" horiz-adv-x="492" 
d="M406 0h-351v700h62v-604h236v604h61v-604h54v-295h-62v199z" />
    <glyph glyph-name="uni0427" unicode="&#x427;" horiz-adv-x="438" 
d="M168 370h153v330h62v-700h-62v274h-153c-110 0 -133 95 -133 193v233h62v-233c0 -45 8 -97 71 -97z" />
    <glyph glyph-name="uni0428" unicode="&#x428;" horiz-adv-x="639" 
d="M523 700h61v-700h-529v700h62v-604h172v604h61v-604h173v604z" />
    <glyph glyph-name="uni0429" unicode="&#x429;" horiz-adv-x="662" 
d="M576 0h-521v700h62v-604h172v604h61v-604h173v604h61v-604h54v-295h-62v199z" />
    <glyph glyph-name="uni042A" unicode="&#x42a;" horiz-adv-x="481" 
d="M290 96c62 0 97 38 97 118s-35 118 -97 118h-99v-236h99zM191 700v-272h99c100 0 158 -74 158 -214s-58 -214 -158 -214h-160v604h-113v96h174z" />
    <glyph glyph-name="uni042B" unicode="&#x42b;" horiz-adv-x="565" 
d="M56 0v700h61v-272h99c100 0 158 -74 158 -214s-58 -214 -158 -214h-160zM216 96c62 0 97 38 97 118s-35 118 -97 118h-99v-236h99zM510 700v-700h-62v700h62z" />
    <glyph glyph-name="uni042C" unicode="&#x42c;" horiz-adv-x="407" 
d="M55 0v700h62v-272h99c100 0 158 -74 158 -214s-58 -214 -158 -214h-161zM216 96c62 0 96 38 96 118s-34 118 -96 118h-99v-236h99z" />
    <glyph glyph-name="uni042D" unicode="&#x42d;" horiz-adv-x="472" 
d="M231 615c-75 0 -130 -64 -130 -183v-15h-62v15c0 186 82 279 192 279c134 0 204 -120 204 -361s-70 -361 -204 -361c-112 0 -193 97 -193 290v18h63v-18c0 -124 55 -193 130 -193c87 0 135 78 142 223h-219v96h218c-9 137 -57 210 -141 210z" />
    <glyph glyph-name="uni042E" unicode="&#x42e;" horiz-adv-x="634" 
d="M398 -11c-120 0 -189 108 -197 320h-84v-309h-62v700h62v-295h84c11 203 80 306 197 306c127 0 199 -121 199 -361c0 -239 -72 -361 -199 -361zM398 86c89 0 138 99 138 264s-49 265 -138 265c-90 0 -137 -100 -137 -265s47 -264 137 -264z" />
    <glyph glyph-name="uni042F" unicode="&#x42f;" horiz-adv-x="441" 
d="M48 482c0 138 59 218 161 218h177v-700h-61v264h-116h-10l-93 -264h-67l99 280c-58 30 -90 100 -90 202zM109 482c0 -78 36 -122 100 -122h116v244h-116c-64 0 -100 -44 -100 -122z" />
    <glyph glyph-name="uni0490" unicode="&#x490;" horiz-adv-x="360" 
d="M347 700h1v-96h-231v-604h-62v700h231v199h61v-199z" />
    <glyph glyph-name="uni0492" unicode="&#x492;" horiz-adv-x="359" 
d="M55 308h-50v96h50v296h292v-96h-231v-200h154v-96h-154v-308h-61v308z" />
    <glyph glyph-name="uni0496" unicode="&#x496;" horiz-adv-x="672" 
d="M527 700h93l-144 -335l118 -269h67v-295h-61v199h-34l-135 320h-73v-320h-61v320h-49l-136 -320h-93l161 368l-144 332h69l120 -284h72v284h61v-284h50z" />
    <glyph glyph-name="uni0498" unicode="&#x498;" horiz-adv-x="416" 
d="M176 -9c-89 14 -139 87 -139 206v56h61v-56c0 -75 38 -111 109 -111c70 0 108 36 108 111c0 71 -27 112 -90 112h-70v96h70c72 0 83 39 83 104c0 70 -34 106 -101 106c-72 0 -108 -36 -108 -106v-58h-61v58c0 134 62 202 169 202c102 0 162 -68 162 -202
c0 -75 -17 -128 -68 -150c53 -26 76 -84 76 -162c0 -119 -49 -193 -140 -206v-190h-61v190z" />
    <glyph glyph-name="uni049A" unicode="&#x49a;" horiz-adv-x="444" 
d="M55 0v700h62v-291h56l133 291h93l-161 -345l125 -259h70v-295h-61v199h-34l-152 313h-69v-313h-62z" />
    <glyph glyph-name="uni049C" unicode="&#x49c;" horiz-adv-x="486" 
d="M145 541h62v-132h19l130 291h94l-158 -345l171 -355h-75l-149 313h-32v-138h-62v138h-28v-313h-62v700h62v-291h28v132z" />
    <glyph glyph-name="uni04A0" unicode="&#x4a0;" horiz-adv-x="506" 
d="M378 700h93l-161 -345l173 -355h-73l-153 313h-69v-313h-62v604h-109v96h171v-291h57z" />
    <glyph glyph-name="uni04A2" unicode="&#x4a2;" horiz-adv-x="491" 
d="M413 96h54v-295h-62v199h-53v309h-235v-309h-62v700h62v-295h235v295h61v-604z" />
    <glyph glyph-name="uni04AA" unicode="&#x4aa;" horiz-adv-x="472" 
d="M434 279c0 -174 -67 -270 -163 -287v-191h-61v191c-110 19 -173 140 -173 358c0 240 74 361 205 361c110 0 191 -93 191 -279v-15h-61v15c0 119 -56 183 -130 183c-95 0 -143 -100 -143 -265s48 -264 143 -264c74 0 130 69 130 193v18h62v-18z" />
    <glyph glyph-name="uni04AE" unicode="&#x4ae;" horiz-adv-x="396" 
d="M167 0v206l-152 494h64l85 -274l23 -106h2l24 106l85 274h83l-152 -494v-206h-62z" />
    <glyph glyph-name="uni04B0" unicode="&#x4b0;" horiz-adv-x="396" 
d="M381 700l-152 -494v-21h102v-96h-102v-89h-62v89h-102v96h102v21l-152 494h64l85 -274l23 -106h2l24 106l85 274h83z" />
    <glyph glyph-name="uni04B2" unicode="&#x4b2;" horiz-adv-x="442" 
d="M169 368l-132 332h69l74 -190l29 -95h3l27 95l70 190h87l-132 -344l104 -280h63v-275h-61v199h-33l-83 205l-29 100h-3l-29 -100l-78 -205h-89z" />
    <glyph glyph-name="uni04B6" unicode="&#x4b6;" horiz-adv-x="461" 
d="M35 700h62v-233c0 -45 8 -97 71 -97h153v330h62v-604h53v-295h-61v199h-54v274h-153c-110 0 -133 95 -133 193v233z" />
    <glyph glyph-name="uni04BA" unicode="&#x4ba;" horiz-adv-x="437" 
d="M269 330h-153v-330h-62v700h62v-274h153c110 0 133 -95 133 -193v-233h-62v233c0 45 -9 97 -71 97z" />
    <glyph glyph-name="uni04C0" unicode="&#x4c0;" horiz-adv-x="171" 
d="M116 0h-61v700h61v-700z" />
    <glyph glyph-name="uni04D8" unicode="&#x4d8;" horiz-adv-x="472" 
d="M231 -11c-113 0 -193 90 -193 308v95h335c-7 155 -55 223 -142 223c-80 0 -130 -58 -130 -150v-10h-62v10c0 158 79 246 192 246c130 0 204 -101 204 -361c0 -254 -74 -361 -204 -361zM231 86c84 0 132 65 141 209h-271c0 -145 55 -209 130 -209z" />
    <glyph glyph-name="uni04E8" unicode="&#x4e8;" horiz-adv-x="483" 
d="M242 -11c-131 0 -205 122 -205 361c0 240 74 361 205 361c130 0 204 -121 204 -361c0 -239 -74 -361 -204 -361zM99 307c8 -139 56 -221 143 -221c85 0 133 82 142 221h-285zM384 403c-11 133 -59 212 -142 212c-84 0 -132 -79 -142 -212h284z" />
    <glyph glyph-name="a" unicode="a" horiz-adv-x="375" 
d="M186 509c85 0 137 -51 137 -157v-352h-60v72c-21 -50 -59 -81 -112 -81c-70 0 -113 57 -113 150c0 94 45 149 118 149h107v62c0 48 -28 65 -77 65c-51 0 -78 -17 -78 -65v-12h-60v12c0 103 52 157 138 157zM98 144c0 -41 22 -61 60 -61c64 0 105 28 105 94v30h-100
c-42 0 -65 -20 -65 -63z" />
    <glyph glyph-name="agrave" unicode="&#xe0;" horiz-adv-x="375" 
d="M186 509c85 0 137 -51 137 -157v-352h-60v72c-21 -50 -59 -81 -112 -81c-70 0 -113 57 -113 150c0 94 45 149 118 149h107v62c0 48 -28 65 -77 65c-51 0 -78 -17 -78 -65v-12h-60v12c0 103 52 157 138 157zM98 144c0 -41 22 -61 60 -61c64 0 105 28 105 94v30h-100
c-42 0 -65 -20 -65 -63zM157 750l46 -173h-47l-84 173h85z" />
    <glyph glyph-name="aacute" unicode="&#xe1;" horiz-adv-x="375" 
d="M186 509c85 0 137 -51 137 -157v-352h-60v72c-21 -50 -59 -81 -112 -81c-70 0 -113 57 -113 150c0 94 45 149 118 149h107v62c0 48 -28 65 -77 65c-51 0 -78 -17 -78 -65v-12h-60v12c0 103 52 157 138 157zM98 144c0 -41 22 -61 60 -61c64 0 105 28 105 94v30h-100
c-42 0 -65 -20 -65 -63zM213 577h-47l39 173h85z" />
    <glyph glyph-name="acircumflex" unicode="&#xe2;" horiz-adv-x="375" 
d="M186 509c85 0 137 -51 137 -157v-352h-60v72c-21 -50 -59 -81 -112 -81c-70 0 -113 57 -113 150c0 94 45 149 118 149h107v62c0 48 -28 65 -77 65c-51 0 -78 -17 -78 -65v-12h-60v12c0 103 52 157 138 157zM135 577h-91l115 173h42l114 -173h-90l-45 102zM98 144
c0 -41 22 -61 60 -61c64 0 105 28 105 94v30h-100c-42 0 -65 -20 -65 -63z" />
    <glyph glyph-name="atilde" unicode="&#xe3;" horiz-adv-x="377" 
d="M188 509c86 0 137 -51 137 -157v-352h-59v74c-21 -51 -59 -83 -113 -83c-70 0 -113 57 -113 150c0 94 45 149 118 149h108v62c0 48 -28 65 -78 65s-78 -17 -78 -65v-12h-60v12c0 103 52 157 138 157zM229 674c-40 0 -39 -107 -111 -107c-52 0 -82 42 -77 153l1 30h76
l-1 -40c-3 -39 6 -57 20 -57c40 0 39 107 111 107c52 0 85 -42 77 -152l-1 -31h-75l1 41c2 38 -7 56 -21 56zM100 144c0 -41 22 -61 60 -61c65 0 106 28 106 94v30h-101c-41 0 -65 -20 -65 -63z" />
    <glyph glyph-name="adieresis" unicode="&#xe4;" horiz-adv-x="375" 
d="M186 509c85 0 137 -51 137 -157v-352h-60v72c-21 -50 -59 -81 -112 -81c-70 0 -113 57 -113 150c0 94 45 149 118 149h107v62c0 48 -28 65 -77 65c-51 0 -78 -17 -78 -65v-12h-60v12c0 103 52 157 138 157zM98 144c0 -41 22 -61 60 -61c64 0 105 28 105 94v30h-100
c-42 0 -65 -20 -65 -63zM160 665c0 -42 -21 -67 -53 -67c-33 0 -52 25 -52 67s19 67 52 67s53 -25 53 -67zM313 665c0 -42 -20 -67 -52 -67c-34 0 -52 25 -52 67s18 67 52 67c33 0 52 -25 52 -67z" />
    <glyph glyph-name="aring" unicode="&#xe5;" horiz-adv-x="375" 
d="M186 509c85 0 137 -51 137 -157v-352h-60v72c-21 -50 -59 -81 -112 -81c-70 0 -113 57 -113 150c0 94 45 149 118 149h107v62c0 48 -28 65 -77 65c-51 0 -78 -17 -78 -65v-12h-60v12c0 103 52 157 138 157zM295 715c0 -104 -39 -159 -107 -159s-107 55 -107 159
c0 105 39 159 107 159s107 -54 107 -159zM98 144c0 -41 22 -61 60 -61c64 0 105 28 105 94v30h-100c-42 0 -65 -20 -65 -63zM131 715c0 -53 20 -77 57 -77s58 24 58 77s-21 77 -58 77s-57 -24 -57 -77z" />
    <glyph glyph-name="amacron" unicode="&#x101;" horiz-adv-x="375" 
d="M186 509c85 0 137 -51 137 -157v-352h-60v72c-21 -50 -59 -81 -112 -81c-70 0 -113 57 -113 150c0 94 45 149 118 149h107v62c0 48 -28 65 -77 65c-51 0 -78 -17 -78 -65v-12h-60v12c0 103 52 157 138 157zM48 617v92h270v-92h-270zM98 144c0 -41 22 -61 60 -61
c64 0 105 28 105 94v30h-100c-42 0 -65 -20 -65 -63z" />
    <glyph glyph-name="abreve" unicode="&#x103;" horiz-adv-x="375" 
d="M186 509c85 0 137 -51 137 -157v-352h-60v72c-21 -50 -59 -81 -112 -81c-70 0 -113 57 -113 150c0 94 45 149 118 149h107v62c0 48 -28 65 -77 65c-51 0 -78 -17 -78 -65v-12h-60v12c0 103 52 157 138 157zM107 739c0 -59 26 -84 75 -84c52 0 76 25 76 84v11h60v-11
c0 -117 -53 -172 -136 -172s-135 55 -135 172v11h60v-11zM98 144c0 -41 22 -61 60 -61c64 0 105 28 105 94v30h-100c-42 0 -65 -20 -65 -63z" />
    <glyph glyph-name="aogonek" unicode="&#x105;" horiz-adv-x="375" 
d="M186 509c85 0 137 -51 137 -157v-352c-31 -12 -42 -33 -42 -66c0 -38 14 -51 39 -51c13 0 21 1 30 3v-91c-12 -4 -22 -6 -39 -6c-54 0 -90 36 -90 119c0 45 15 79 42 102v62c-21 -50 -59 -81 -112 -81c-70 0 -113 57 -113 150c0 94 45 149 118 149h107v62
c0 48 -28 65 -77 65c-51 0 -78 -17 -78 -65v-12h-60v12c0 103 52 157 138 157zM98 144c0 -41 22 -61 60 -61c64 0 105 28 105 94v30h-100c-42 0 -65 -20 -65 -63z" />
    <glyph glyph-name="aringacute" unicode="&#x1fb;" horiz-adv-x="375" 
d="M185 509c85 0 137 -51 137 -157v-352h-60v72c-21 -50 -59 -81 -112 -81c-70 0 -113 57 -113 150c0 94 45 149 118 149h107v62c0 48 -28 65 -77 65c-51 0 -78 -17 -78 -65v-12h-60v12c0 103 52 157 138 157zM291 715c0 -104 -40 -159 -107 -159c-68 0 -107 55 -107 159
c0 93 31 146 85 157l31 140h85l-63 -143c48 -15 76 -67 76 -154zM97 144c0 -41 22 -61 60 -61c64 0 105 28 105 94v30h-100c-42 0 -65 -20 -65 -63zM126 715c0 -53 21 -77 58 -77c36 0 57 24 57 77s-21 77 -57 77c-37 0 -58 -24 -58 -77z" />
    <glyph glyph-name="b" unicode="b" horiz-adv-x="402" 
d="M372 250c0 -169 -49 -259 -150 -259c-54 0 -89 28 -109 80v-71h-59v750h59v-321c20 53 55 80 109 80c101 0 150 -90 150 -259zM213 416c-66 0 -100 -51 -100 -141v-50c0 -90 34 -141 100 -141c71 0 100 48 100 166s-29 166 -100 166z" />
    <glyph glyph-name="c" unicode="c" horiz-adv-x="374" 
d="M192 416c-74 0 -103 -49 -103 -166c0 -118 29 -166 103 -166c62 0 92 38 92 112v8h59v-8c0 -129 -56 -205 -151 -205c-109 0 -162 91 -162 259s53 259 162 259c94 0 151 -71 151 -195v-8h-59v8c0 67 -30 102 -92 102z" />
    <glyph glyph-name="ccedilla" unicode="&#xe7;" horiz-adv-x="374" 
d="M284 314c0 67 -30 102 -92 102c-74 0 -103 -49 -103 -166c0 -118 29 -166 103 -166c62 0 92 38 92 112v8h59v-8c0 -118 -47 -192 -128 -203v-14c47 -13 59 -53 59 -96c0 -78 -39 -105 -93 -105c-13 0 -26 1 -41 6v90c10 -3 18 -4 33 -4c25 0 36 8 36 37
c0 24 -7 37 -31 37h-14v49c-90 15 -134 104 -134 257c0 168 53 259 162 259c94 0 151 -71 151 -195v-8h-59v8z" />
    <glyph glyph-name="cacute" unicode="&#x107;" horiz-adv-x="374" 
d="M192 416c-74 0 -103 -49 -103 -166c0 -118 29 -166 103 -166c62 0 92 38 92 112v8h59v-8c0 -129 -56 -205 -151 -205c-109 0 -162 91 -162 259s53 259 162 259c94 0 151 -71 151 -195v-8h-59v8c0 67 -30 102 -92 102zM176 577l38 173h85l-76 -173h-47z" />
    <glyph glyph-name="ccircumflex" unicode="&#x109;" horiz-adv-x="374" 
d="M284 314c0 67 -30 102 -92 102c-74 0 -103 -49 -103 -166c0 -118 29 -166 103 -166c62 0 92 38 92 112v8h59v-8c0 -129 -56 -205 -151 -205c-109 0 -162 91 -162 259s53 259 162 259c94 0 151 -71 151 -195v-8h-59v8zM145 577h-91l115 173h42l113 -173h-90l-45 103z" />
    <glyph glyph-name="cdotaccent" unicode="&#x10b;" horiz-adv-x="374" 
d="M192 416c-74 0 -103 -49 -103 -166c0 -118 29 -166 103 -166c62 0 92 38 92 112v8h59v-8c0 -129 -56 -205 -151 -205c-109 0 -162 91 -162 259s53 259 162 259c94 0 151 -71 151 -195v-8h-59v8c0 67 -30 102 -92 102zM192 598c-34 0 -52 24 -52 65s18 66 52 66
c33 0 52 -25 52 -66s-21 -65 -52 -65z" />
    <glyph glyph-name="ccaron" unicode="&#x10d;" horiz-adv-x="374" 
d="M284 314c0 67 -30 102 -92 102c-74 0 -103 -49 -103 -166c0 -118 29 -166 103 -166c62 0 92 38 92 112v8h59v-8c0 -129 -56 -205 -151 -205c-109 0 -162 91 -162 259s53 259 162 259c94 0 151 -71 151 -195v-8h-59v8zM235 750h90l-114 -173h-43l-113 173h90l45 -103z" />
    <glyph glyph-name="d" unicode="d" horiz-adv-x="402" 
d="M289 71c-20 -52 -55 -80 -109 -80c-100 0 -150 90 -150 259s50 259 150 259c54 0 89 -27 109 -80v321h59v-750h-59v71zM190 84c66 0 99 51 99 141v50c0 90 -33 141 -99 141c-72 0 -100 -48 -100 -166s28 -166 100 -166z" />
    <glyph glyph-name="dcaron" unicode="&#x10f;" horiz-adv-x="484" 
d="M289 71c-20 -52 -55 -80 -109 -80c-100 0 -150 90 -150 259s50 259 150 259c54 0 89 -27 109 -80v321h59v-750h-59v71zM190 84c66 0 99 51 99 141v50c0 90 -33 141 -99 141c-72 0 -100 -48 -100 -166s28 -166 100 -166zM489 705c0 -18 -4 -44 -17 -67l-31 -62h-41l-5 128
c-1 39 16 64 47 64c30 0 47 -24 47 -63z" />
    <glyph glyph-name="e" unicode="e" horiz-adv-x="374" 
d="M30 250c0 168 53 259 161 259c96 0 151 -75 151 -221v-65h-252c4 -99 34 -139 101 -139c60 0 88 29 88 74v4h59v-4c0 -98 -54 -167 -147 -167c-108 0 -161 87 -161 259zM191 416c-58 0 -91 -31 -99 -109h191v7c0 68 -39 102 -92 102z" />
    <glyph glyph-name="egrave" unicode="&#xe8;" horiz-adv-x="374" 
d="M30 250c0 168 53 259 161 259c96 0 151 -75 151 -221v-65h-252c4 -99 34 -139 101 -139c60 0 88 29 88 74v4h59v-4c0 -98 -54 -167 -147 -167c-108 0 -161 87 -161 259zM191 416c-58 0 -91 -31 -99 -109h191v7c0 68 -39 102 -92 102zM166 750l46 -173h-47l-84 173h85z
" />
    <glyph glyph-name="eacute" unicode="&#xe9;" horiz-adv-x="374" 
d="M30 250c0 168 53 259 161 259c96 0 151 -75 151 -221v-65h-252c4 -99 34 -139 101 -139c60 0 88 29 88 74v4h59v-4c0 -98 -54 -167 -147 -167c-108 0 -161 87 -161 259zM191 416c-58 0 -91 -31 -99 -109h191v7c0 68 -39 102 -92 102zM216 577h-47l38 173h86z" />
    <glyph glyph-name="ecircumflex" unicode="&#xea;" horiz-adv-x="374" 
d="M30 250c0 168 53 259 161 259c96 0 151 -75 151 -221v-65h-252c4 -99 34 -139 101 -139c60 0 88 29 88 74v4h59v-4c0 -98 -54 -167 -147 -167c-108 0 -161 87 -161 259zM144 577h-90l114 173h43l113 -173h-90l-45 104zM191 416c-58 0 -91 -31 -99 -109h191v7
c0 68 -39 102 -92 102z" />
    <glyph glyph-name="edieresis" unicode="&#xeb;" horiz-adv-x="374" 
d="M30 250c0 168 53 259 161 259c96 0 151 -75 151 -221v-65h-252c4 -99 34 -139 101 -139c60 0 88 29 88 74v4h59v-4c0 -98 -54 -167 -147 -167c-108 0 -161 87 -161 259zM191 416c-58 0 -91 -31 -99 -109h191v7c0 68 -39 102 -92 102zM163 665c0 -42 -20 -67 -53 -67
s-52 25 -52 67s19 67 52 67s53 -25 53 -67zM317 665c0 -42 -21 -67 -53 -67c-33 0 -52 25 -52 67s19 67 52 67s53 -25 53 -67z" />
    <glyph glyph-name="emacron" unicode="&#x113;" horiz-adv-x="374" 
d="M30 250c0 168 53 259 161 259c96 0 151 -75 151 -221v-65h-252c4 -99 34 -139 101 -139c60 0 88 29 88 74v4h59v-4c0 -98 -54 -167 -147 -167c-108 0 -161 87 -161 259zM325 709v-92h-270v92h270zM191 416c-58 0 -91 -31 -99 -109h191v7c0 68 -39 102 -92 102z" />
    <glyph glyph-name="ebreve" unicode="&#x115;" horiz-adv-x="374" 
d="M30 250c0 168 53 259 161 259c96 0 151 -75 151 -221v-65h-252c4 -99 34 -139 101 -139c60 0 88 29 88 74v4h59v-4c0 -98 -54 -167 -147 -167c-108 0 -161 87 -161 259zM114 739c0 -59 26 -84 76 -84c51 0 75 25 75 84v11h60v-11c0 -117 -52 -172 -135 -172
c-84 0 -135 55 -135 172v11h59v-11zM191 416c-58 0 -91 -31 -99 -109h191v7c0 68 -39 102 -92 102z" />
    <glyph glyph-name="edotaccent" unicode="&#x117;" horiz-adv-x="374" 
d="M30 250c0 168 53 259 161 259c96 0 151 -75 151 -221v-65h-252c4 -99 34 -139 101 -139c60 0 88 29 88 74v4h59v-4c0 -98 -54 -167 -147 -167c-108 0 -161 87 -161 259zM191 416c-58 0 -91 -31 -99 -109h191v7c0 68 -39 102 -92 102zM241 663c0 -41 -21 -65 -52 -65
c-34 0 -52 24 -52 65s18 66 52 66c33 0 52 -25 52 -66z" />
    <glyph glyph-name="eogonek" unicode="&#x119;" horiz-adv-x="374" 
d="M30 250c0 168 53 259 161 259c96 0 151 -75 151 -221v-65h-252c4 -99 34 -139 101 -139c60 0 88 29 88 74v4h59v-4c0 -79 -35 -140 -98 -160c-27 -12 -38 -33 -38 -64c0 -38 15 -51 39 -51c13 0 22 1 30 3v-91c-12 -4 -22 -6 -39 -6c-53 0 -90 36 -90 119
c0 35 9 63 26 84c-93 13 -138 99 -138 258zM191 416c-58 0 -91 -31 -99 -109h191v7c0 68 -39 102 -92 102z" />
    <glyph glyph-name="ecaron" unicode="&#x11b;" horiz-adv-x="374" 
d="M30 250c0 168 53 259 161 259c96 0 151 -75 151 -221v-65h-252c4 -99 34 -139 101 -139c60 0 88 29 88 74v4h59v-4c0 -98 -54 -167 -147 -167c-108 0 -161 87 -161 259zM235 750h90l-114 -173h-43l-113 173h90l45 -103zM191 416c-58 0 -91 -31 -99 -109h191v7
c0 68 -39 102 -92 102z" />
    <glyph glyph-name="f" unicode="f" horiz-adv-x="250" 
d="M204 656c-53 0 -77 -31 -77 -81v-75h103v-92h-103v-408h-59v408h-40v92h40v75c0 110 48 175 136 175h33v-94h-33z" />
    <glyph glyph-name="g" unicode="g" horiz-adv-x="388" 
d="M300 414c9 60 29 86 64 86h8v-95h-7c-28 0 -42 -29 -42 -97c0 -119 -56 -187 -145 -187h-45c-22 0 -35 -12 -35 -34s13 -34 35 -34h86c87 0 139 -58 139 -154c0 -99 -67 -156 -174 -156c-112 0 -169 51 -169 145c0 65 21 106 69 122c-24 14 -35 39 -35 67
c0 30 15 59 43 72c-38 27 -59 77 -59 159c0 128 49 201 145 201c65 0 104 -33 122 -95zM178 417c-57 0 -88 -37 -88 -109c0 -68 31 -104 88 -104s87 36 87 104c0 72 -30 109 -87 109zM299 -101c0 45 -27 66 -80 66h-74c-49 0 -75 -22 -75 -66c0 -45 31 -69 114 -69
c84 0 115 24 115 69z" />
    <glyph glyph-name="gcircumflex" unicode="&#x11d;" horiz-adv-x="388" 
d="M300 414c9 60 29 86 64 86h8v-95h-7c-28 0 -42 -29 -42 -97c0 -119 -56 -187 -145 -187h-45c-22 0 -35 -12 -35 -34s13 -34 35 -34h86c87 0 139 -58 139 -154c0 -99 -67 -156 -174 -156c-112 0 -169 51 -169 145c0 65 21 106 69 122c-24 14 -35 39 -35 67
c0 30 15 59 43 72c-38 27 -59 77 -59 159c0 128 49 201 145 201c65 0 104 -33 122 -95zM178 417c-57 0 -88 -37 -88 -109c0 -68 31 -104 88 -104s87 36 87 104c0 72 -30 109 -87 109zM299 -101c0 45 -27 66 -80 66h-74c-49 0 -75 -22 -75 -66c0 -45 31 -69 114 -69
c84 0 115 24 115 69zM135 577h-91l115 173h42l114 -173h-90l-45 102z" />
    <glyph glyph-name="gbreve" unicode="&#x11f;" horiz-adv-x="388" 
d="M300 414c9 60 29 86 64 86h8v-95h-7c-28 0 -42 -29 -42 -97c0 -119 -56 -187 -145 -187h-45c-22 0 -35 -12 -35 -34s13 -34 35 -34h86c87 0 139 -58 139 -154c0 -99 -67 -156 -174 -156c-112 0 -169 51 -169 145c0 65 21 106 69 122c-24 14 -35 39 -35 67
c0 30 15 59 43 72c-38 27 -59 77 -59 159c0 128 49 201 145 201c65 0 104 -33 122 -95zM178 417c-57 0 -88 -37 -88 -109c0 -68 31 -104 88 -104s87 36 87 104c0 72 -30 109 -87 109zM109 739c0 -59 26 -84 75 -84c52 0 76 25 76 84v11h60v-11c0 -117 -53 -172 -136 -172
s-135 55 -135 172v11h60v-11zM299 -101c0 45 -27 66 -80 66h-74c-49 0 -75 -22 -75 -66c0 -45 31 -69 114 -69c84 0 115 24 115 69z" />
    <glyph glyph-name="gdotaccent" unicode="&#x121;" horiz-adv-x="388" 
d="M300 414c9 60 29 86 64 86h8v-95h-7c-28 0 -42 -29 -42 -97c0 -119 -56 -187 -145 -187h-45c-22 0 -35 -12 -35 -34s13 -34 35 -34h86c87 0 139 -58 139 -154c0 -99 -67 -156 -174 -156c-112 0 -169 51 -169 145c0 65 21 106 69 122c-24 14 -35 39 -35 67
c0 30 15 59 43 72c-38 27 -59 77 -59 159c0 128 49 201 145 201c65 0 104 -33 122 -95zM178 417c-57 0 -88 -37 -88 -109c0 -68 31 -104 88 -104s87 36 87 104c0 72 -30 109 -87 109zM299 -101c0 45 -27 66 -80 66h-74c-49 0 -75 -22 -75 -66c0 -45 31 -69 114 -69
c84 0 115 24 115 69zM242 663c0 -41 -20 -65 -52 -65c-33 0 -52 24 -52 65s19 66 52 66s52 -25 52 -66z" />
    <glyph glyph-name="uni0123" unicode="&#x123;" horiz-adv-x="388" 
d="M300 414c9 60 29 86 64 86h8v-95h-7c-28 0 -42 -29 -42 -97c0 -119 -56 -187 -145 -187h-45c-22 0 -35 -12 -35 -34s13 -34 35 -34h86c87 0 139 -58 139 -154c0 -99 -67 -156 -174 -156c-112 0 -169 51 -169 145c0 65 21 106 69 122c-24 14 -35 39 -35 67
c0 30 15 59 43 72c-38 27 -59 77 -59 159c0 128 49 201 145 201c65 0 104 -33 122 -95zM178 417c-57 0 -88 -37 -88 -109c0 -68 31 -104 88 -104s87 36 87 104c0 72 -30 109 -87 109zM299 -101c0 45 -27 66 -80 66h-74c-49 0 -75 -22 -75 -66c0 -45 31 -69 114 -69
c84 0 115 24 115 69zM130 652c0 18 5 44 17 67l32 62h41l4 -128c2 -39 -15 -64 -46 -64c-30 0 -48 24 -48 63z" />
    <glyph glyph-name="h" unicode="h" 
d="M113 431c19 51 53 78 103 78c87 0 129 -66 129 -205v-304h-59v304c0 77 -26 113 -82 113c-60 0 -91 -51 -91 -142v-275h-59v750h59v-319z" />
    <glyph glyph-name="hcircumflex" unicode="&#x125;" 
d="M113 431c19 51 53 78 103 78c87 0 129 -66 129 -205v-304h-59v304c0 77 -26 113 -82 113c-60 0 -91 -51 -91 -142v-275h-59v750h59v-319zM153 807h-91l115 173h42l113 -173h-90l-45 103z" />
    <glyph glyph-name="i" unicode="i" horiz-adv-x="171" 
d="M115 500v-500h-59v500h59zM86 598c-33 0 -52 24 -52 65s19 66 52 66s52 -25 52 -66s-20 -65 -52 -65z" />
    <glyph glyph-name="igrave" unicode="&#xec;" horiz-adv-x="170" 
d="M115 500v-500h-60v500h60zM106 577h-47l-70 173h86z" />
    <glyph glyph-name="iacute" unicode="&#xed;" horiz-adv-x="170" 
d="M115 500v-500h-60v500h60zM62 577l34 173h85l-72 -173h-47z" />
    <glyph glyph-name="icircumflex" unicode="&#xee;" horiz-adv-x="170" 
d="M55 500h60v-500h-60v500zM45 577h-88l105 173h42l104 -173h-87l-38 107z" />
    <glyph glyph-name="idieresis" unicode="&#xef;" horiz-adv-x="171" 
d="M115 500v-500h-59v500h59zM26 598c-34 0 -52 24 -52 65s18 66 52 66c33 0 52 -25 52 -66s-20 -65 -52 -65zM144 598c-33 0 -52 24 -52 65s19 66 52 66s52 -25 52 -66s-20 -65 -52 -65z" />
    <glyph glyph-name="itilde" unicode="&#x129;" horiz-adv-x="170" 
d="M115 500v-500h-60v500h60zM26 567c-54 0 -82 42 -76 153l1 30h76l-1 -40c-3 -39 5 -57 19 -57c29 0 30 107 94 107c54 0 84 -42 76 -152l-1 -31h-75l1 41c2 38 -6 56 -20 56c-29 0 -29 -107 -94 -107z" />
    <glyph glyph-name="imacron" unicode="&#x12b;" horiz-adv-x="170" 
d="M115 500v-500h-60v500h60zM190 617h-210v92h210v-92z" />
    <glyph glyph-name="ibreve" unicode="&#x12d;" horiz-adv-x="170" 
d="M115 500v-500h-60v500h60zM83 655c42 0 61 25 61 84v11h60v-11c0 -117 -46 -172 -121 -172c-74 0 -120 55 -120 172v11h60v-11c0 -59 21 -84 60 -84z" />
    <glyph glyph-name="iogonek" unicode="&#x12f;" horiz-adv-x="170" 
d="M13 -92c0 45 16 79 43 103v489h59v-500c-31 -12 -43 -33 -43 -66c0 -38 15 -51 39 -51c13 0 22 1 30 3v-91c-11 -4 -21 -6 -38 -6c-54 0 -90 36 -90 119zM138 663c0 -41 -20 -65 -52 -65c-33 0 -52 24 -52 65s19 66 52 66s52 -25 52 -66z" />
    <glyph glyph-name="j" unicode="j" horiz-adv-x="168" 
d="M-97 -78h59c0 -70 16 -87 46 -87s46 18 46 88v577h60v-579c0 -121 -35 -178 -106 -178s-105 61 -105 179zM84 598c-33 0 -52 24 -52 65s19 66 52 66s52 -25 52 -66s-20 -65 -52 -65z" />
    <glyph glyph-name="jcircumflex" unicode="&#x135;" horiz-adv-x="168" 
d="M8 -257c-72 0 -106 61 -106 179h59c0 -70 17 -87 47 -87s46 18 46 88v577h59v-579c0 -121 -34 -178 -105 -178zM38 577h-91l115 173h42l113 -173h-90l-45 103z" />
    <glyph glyph-name="k" unicode="k" horiz-adv-x="367" 
d="M113 0h-59v750h59v-449h46l98 199h84l-125 -245l134 -255h-69l-105 209h-63v-209z" />
    <glyph glyph-name="uni0137" unicode="&#x137;" horiz-adv-x="367" 
d="M113 0h-59v750h59v-449h46l98 199h84l-125 -245l134 -255h-69l-105 209h-63v-209zM246 -129c0 -18 -5 -44 -17 -67l-32 -62h-41l-4 128c-2 39 16 64 46 64s48 -24 48 -63z" />
    <glyph glyph-name="l" unicode="l" horiz-adv-x="167" 
d="M113 750v-750h-59v750h59z" />
    <glyph glyph-name="lacute" unicode="&#x13a;" horiz-adv-x="168" 
d="M113 750v-750h-59v750h59zM60 787l39 173h85l-77 -173h-47z" />
    <glyph glyph-name="uni013C" unicode="&#x13c;" horiz-adv-x="168" 
d="M113 750v-750h-59v750h59zM85 -258h-41l-4 128c-2 39 16 64 46 64s48 -24 48 -63c0 -18 -5 -44 -17 -67z" />
    <glyph glyph-name="lcaron" unicode="&#x13e;" horiz-adv-x="249" 
d="M113 750v-750h-59v750h59zM206 575h-41l-5 128c-1 39 16 64 47 64c30 0 47 -23 47 -62c0 -19 -4 -44 -17 -68z" />
    <glyph glyph-name="m" unicode="m" horiz-adv-x="588" 
d="M113 435c18 49 48 74 93 74c50 0 83 -25 102 -77c20 51 56 77 109 77c81 0 119 -66 119 -205v-304h-59v304c0 77 -21 113 -72 113c-53 0 -80 -51 -80 -142v-275h-60v304c0 77 -20 113 -71 113c-53 0 -81 -51 -81 -142v-275h-59v500h59v-65z" />
    <glyph glyph-name="n" unicode="n" 
d="M113 431c19 51 53 78 103 78c88 0 129 -64 129 -205v-304h-59v304c0 79 -26 113 -81 113c-60 0 -92 -46 -92 -142v-275h-59v500h59v-69z" />
    <glyph glyph-name="ntilde" unicode="&#xf1;" 
d="M113 431c19 52 53 79 103 79c88 0 129 -64 129 -205v-304h-59v304c0 79 -26 113 -81 113c-60 0 -92 -47 -92 -142v-275h-59v500h59v-70zM245 675c-39 0 -38 -107 -110 -107c-53 0 -83 41 -77 152l1 31h75l-1 -41c-2 -38 6 -56 21 -56c40 0 39 107 110 107
c53 0 85 -43 77 -153l-1 -30h-75l1 40c3 39 -6 57 -21 57z" />
    <glyph glyph-name="nacute" unicode="&#x144;" 
d="M113 431c19 51 53 78 103 78c88 0 129 -64 129 -205v-304h-59v304c0 79 -26 113 -81 113c-60 0 -92 -46 -92 -142v-275h-59v500h59v-69zM239 577h-47l38 173h86z" />
    <glyph glyph-name="uni0146" unicode="&#x146;" 
d="M113 431c19 51 53 78 103 78c88 0 129 -64 129 -205v-304h-59v304c0 79 -26 113 -81 113c-60 0 -92 -46 -92 -142v-275h-59v500h59v-69zM248 -127c0 -18 -4 -44 -17 -67l-31 -62h-41l-5 128c-1 39 16 64 47 64c30 0 47 -24 47 -63z" />
    <glyph glyph-name="ncaron" unicode="&#x148;" 
d="M113 431c19 51 53 78 103 78c88 0 129 -64 129 -205v-304h-59v304c0 79 -26 113 -81 113c-60 0 -92 -46 -92 -142v-275h-59v500h59v-69zM244 750h91l-115 -173h-42l-114 173h90l45 -102z" />
    <glyph glyph-name="o" unicode="o" horiz-adv-x="382" 
d="M192 509c107 0 160 -91 160 -259s-53 -259 -160 -259c-109 0 -162 91 -162 259s53 259 162 259zM192 84c73 0 102 48 102 166c0 117 -29 166 -102 166c-74 0 -103 -49 -103 -166c0 -118 29 -166 103 -166z" />
    <glyph glyph-name="ograve" unicode="&#xf2;" horiz-adv-x="382" 
d="M192 509c107 0 160 -91 160 -259s-53 -259 -160 -259c-109 0 -162 91 -162 259s53 259 162 259zM192 84c73 0 102 48 102 166c0 117 -29 166 -102 166c-74 0 -103 -49 -103 -166c0 -118 29 -166 103 -166zM212 577h-47l-84 173h85z" />
    <glyph glyph-name="oacute" unicode="&#xf3;" horiz-adv-x="382" 
d="M192 509c107 0 160 -91 160 -259s-53 -259 -160 -259c-109 0 -162 91 -162 259s53 259 162 259zM192 84c73 0 102 48 102 166c0 117 -29 166 -102 166c-74 0 -103 -49 -103 -166c0 -118 29 -166 103 -166zM173 577l38 173h85l-76 -173h-47z" />
    <glyph glyph-name="ocircumflex" unicode="&#xf4;" horiz-adv-x="382" 
d="M30 250c0 168 53 259 162 259c107 0 160 -91 160 -259s-53 -259 -160 -259c-109 0 -162 91 -162 259zM89 250c0 -118 29 -166 103 -166c73 0 102 48 102 166c0 117 -29 166 -102 166c-74 0 -103 -49 -103 -166zM148 577h-91l115 173h42l113 -173h-90l-45 103z" />
    <glyph glyph-name="otilde" unicode="&#xf5;" horiz-adv-x="382" 
d="M192 509c107 0 160 -91 160 -259s-53 -259 -160 -259c-109 0 -162 91 -162 259s53 259 162 259zM192 84c73 0 102 48 102 166c0 117 -29 166 -102 166c-74 0 -103 -49 -103 -166c0 -118 29 -166 103 -166zM128 567c-53 0 -83 42 -77 153v30h76l-1 -40
c-2 -39 6 -57 21 -57c39 0 38 107 110 107c53 0 85 -42 77 -152l-1 -31h-75l1 41c2 38 -6 56 -21 56c-40 0 -38 -107 -110 -107z" />
    <glyph glyph-name="odieresis" unicode="&#xf6;" horiz-adv-x="382" 
d="M192 509c107 0 160 -91 160 -259s-53 -259 -160 -259c-109 0 -162 91 -162 259s53 259 162 259zM192 84c73 0 102 48 102 166c0 117 -29 166 -102 166c-74 0 -103 -49 -103 -166c0 -118 29 -166 103 -166zM116 598c-33 0 -52 25 -52 67s19 67 52 67s53 -25 53 -67
s-20 -67 -53 -67zM270 598c-33 0 -52 25 -52 67s19 67 52 67s53 -25 53 -67s-21 -67 -53 -67z" />
    <glyph glyph-name="omacron" unicode="&#x14d;" horiz-adv-x="382" 
d="M192 509c107 0 160 -91 160 -259s-53 -259 -160 -259c-109 0 -162 91 -162 259s53 259 162 259zM192 84c73 0 102 48 102 166c0 117 -29 166 -102 166c-74 0 -103 -49 -103 -166c0 -118 29 -166 103 -166zM331 617h-271v92h271v-92z" />
    <glyph glyph-name="obreve" unicode="&#x14f;" horiz-adv-x="382" 
d="M192 509c107 0 160 -91 160 -259s-53 -259 -160 -259c-109 0 -162 91 -162 259s53 259 162 259zM192 84c73 0 102 48 102 166c0 117 -29 166 -102 166c-74 0 -103 -49 -103 -166c0 -118 29 -166 103 -166zM193 655c52 0 76 25 76 84v11h60v-11c0 -117 -53 -172 -136 -172
s-135 55 -135 172v11h60v-11c0 -59 26 -84 75 -84z" />
    <glyph glyph-name="ohungarumlaut" unicode="&#x151;" horiz-adv-x="382" 
d="M192 509c107 0 160 -91 160 -259s-53 -259 -160 -259c-109 0 -162 91 -162 259s53 259 162 259zM192 84c73 0 102 48 102 166c0 117 -29 166 -102 166c-74 0 -103 -49 -103 -166c0 -118 29 -166 103 -166zM138 577h-47l25 173h85zM277 577h-47l39 173h85z" />
    <glyph glyph-name="p" unicode="p" horiz-adv-x="403" 
d="M114 429c20 53 55 80 109 80c100 0 150 -90 150 -259c0 -168 -50 -259 -150 -259c-54 0 -89 28 -109 80v-321h-60v750h60v-71zM213 416c-65 0 -99 -51 -99 -141v-50c0 -90 34 -141 99 -141c72 0 100 49 100 166c0 118 -28 166 -100 166z" />
    <glyph glyph-name="q" unicode="q" horiz-adv-x="402" 
d="M30 250c0 169 50 259 150 259c54 0 89 -27 109 -80v71h59v-750h-59v321c-20 -52 -55 -80 -109 -80c-100 0 -150 91 -150 259zM190 84c66 0 99 51 99 141v50c0 90 -33 141 -99 141c-72 0 -100 -48 -100 -166c0 -117 28 -166 100 -166z" />
    <glyph glyph-name="r" unicode="r" horiz-adv-x="260" 
d="M113 410c19 64 53 99 106 99h22v-95h-22c-71 0 -106 -69 -106 -186v-228h-59v500h59v-90z" />
    <glyph glyph-name="racute" unicode="&#x155;" horiz-adv-x="260" 
d="M113 410c19 64 53 99 106 99h22v-95h-22c-71 0 -106 -69 -106 -186v-228h-59v500h59v-90zM157 577h-47l38 173h86z" />
    <glyph glyph-name="uni0157" unicode="&#x157;" horiz-adv-x="260" 
d="M113 410c19 64 53 99 106 99h22v-95h-22c-71 0 -106 -69 -106 -186v-228h-59v500h59v-90zM134 -129c0 -18 -5 -44 -17 -67l-32 -62h-41l-4 128c-2 39 15 64 46 64c30 0 48 -24 48 -63z" />
    <glyph glyph-name="rcaron" unicode="&#x159;" horiz-adv-x="260" 
d="M113 410c19 64 53 99 106 99h22v-95h-22c-71 0 -106 -69 -106 -186v-228h-59v500h59v-90zM189 750h91l-115 -173h-42l-114 173h90l46 -103z" />
    <glyph glyph-name="s" unicode="s" horiz-adv-x="347" 
d="M255 144c0 113 -218 51 -218 214c0 79 40 151 137 151c89 0 137 -59 137 -164v-11h-60v11c0 54 -25 71 -77 71c-62 0 -78 -23 -78 -58c0 -113 218 -50 218 -214c0 -82 -42 -153 -141 -153c-91 0 -141 61 -141 165v17h60v-17c0 -54 27 -72 81 -72c64 0 82 24 82 60z" />
    <glyph glyph-name="sacute" unicode="&#x15b;" horiz-adv-x="347" 
d="M255 144c0 113 -218 51 -218 214c0 79 40 151 137 151c89 0 137 -59 137 -164v-11h-60v11c0 54 -25 71 -77 71c-62 0 -78 -23 -78 -58c0 -113 218 -50 218 -214c0 -82 -42 -153 -141 -153c-91 0 -141 61 -141 165v17h60v-17c0 -54 27 -72 81 -72c64 0 82 24 82 60z
M158 577l38 173h85l-76 -173h-47z" />
    <glyph glyph-name="scircumflex" unicode="&#x15d;" horiz-adv-x="347" 
d="M173 84c64 0 82 24 82 60c0 113 -218 51 -218 214c0 79 40 151 137 151c89 0 137 -59 137 -164v-11h-60v11c0 54 -25 71 -77 71c-62 0 -78 -23 -78 -58c0 -113 218 -50 218 -214c0 -82 -42 -153 -141 -153c-91 0 -141 61 -141 165v17h60v-17c0 -54 27 -72 81 -72z
M129 577h-91l115 173h42l113 -173h-90l-45 103z" />
    <glyph glyph-name="scedilla" unicode="&#x15f;" horiz-adv-x="347" 
d="M173 84c64 0 82 24 82 60c0 113 -218 51 -218 214c0 79 40 151 137 151c89 0 137 -59 137 -164v-11h-60v11c0 54 -25 71 -77 71c-62 0 -78 -23 -78 -58c0 -113 218 -50 218 -214c0 -77 -37 -145 -124 -152v-13c47 -13 59 -53 59 -96c0 -78 -39 -105 -93 -105
c-13 0 -26 1 -41 6v90c10 -3 18 -4 33 -4c25 0 36 8 36 37c0 24 -7 37 -31 37h-14v50c-69 14 -107 72 -107 162v17h60v-17c0 -54 27 -72 81 -72z" />
    <glyph glyph-name="scaron" unicode="&#x161;" horiz-adv-x="347" 
d="M173 84c64 0 82 24 82 60c0 113 -218 51 -218 214c0 79 40 151 137 151c89 0 137 -59 137 -164v-11h-60v11c0 54 -25 71 -77 71c-62 0 -78 -23 -78 -58c0 -113 218 -50 218 -214c0 -82 -42 -153 -141 -153c-91 0 -141 61 -141 165v17h60v-17c0 -54 27 -72 81 -72z
M219 750h91l-115 -173h-42l-114 173h90l45 -102z" />
    <glyph glyph-name="uni0219" unicode="&#x219;" horiz-adv-x="347" 
d="M255 144c0 113 -218 51 -218 214c0 79 40 151 137 151c89 0 137 -59 137 -164v-11h-60v11c0 54 -25 71 -77 71c-62 0 -78 -23 -78 -58c0 -113 218 -50 218 -214c0 -82 -42 -153 -141 -153c-91 0 -141 61 -141 165v17h60v-17c0 -54 27 -72 81 -72c64 0 82 24 82 60z
M175 -254h-41l-5 128c-2 39 16 63 46 63c31 0 48 -23 48 -62c0 -18 -5 -44 -17 -67z" />
    <glyph glyph-name="t" unicode="t" horiz-adv-x="318" 
d="M180 84c35 0 54 15 54 85h59c0 -113 -36 -178 -113 -178c-76 0 -113 57 -113 178v239h-39v92h39l13 107h47v-107h122v-92h-122v-239c0 -70 19 -85 53 -85z" />
    <glyph glyph-name="uni0163" unicode="&#x163;" horiz-adv-x="318" 
d="M180 84c35 0 54 15 54 85h59c0 -113 -36 -178 -113 -178c-76 0 -113 57 -113 178v239h-39v92h39l13 107h47v-107h122v-92h-122v-239c0 -70 19 -85 53 -85zM222 -125c0 -18 -5 -44 -17 -67l-32 -62h-41l-4 128c-2 39 16 63 46 63s48 -23 48 -62z" />
    <glyph glyph-name="tcaron" unicode="&#x165;" horiz-adv-x="320" 
d="M180 84c35 0 54 15 54 85h59c0 -113 -36 -178 -113 -178c-76 0 -113 57 -113 178v239h-39v92h39l13 107h47v-107h122v-92h-122v-239c0 -70 19 -85 53 -85zM302 705c0 -18 -5 -44 -17 -67l-32 -62h-41l-4 128c-2 39 15 64 46 64c30 0 48 -24 48 -63z" />
    <glyph glyph-name="u" unicode="u" 
d="M284 70c-19 -52 -53 -79 -103 -79c-87 0 -129 66 -129 205v304h59v-304c0 -76 26 -112 82 -112c60 0 91 51 91 141v275h59v-500h-59v70z" />
    <glyph glyph-name="ugrave" unicode="&#xf9;" 
d="M284 70c-19 -52 -53 -79 -103 -79c-87 0 -129 66 -129 205v304h59v-304c0 -76 26 -112 82 -112c60 0 91 51 91 141v275h59v-500h-59v70zM173 750l46 -173h-47l-84 173h85z" />
    <glyph glyph-name="uacute" unicode="&#xfa;" 
d="M284 70c-19 -52 -53 -79 -103 -79c-87 0 -129 66 -129 205v304h59v-304c0 -76 26 -112 82 -112c60 0 91 51 91 141v275h59v-500h-59v70zM223 577h-47l38 173h86z" />
    <glyph glyph-name="ucircumflex" unicode="&#xfb;" 
d="M284 70c-19 -52 -53 -79 -103 -79c-87 0 -129 66 -129 205v304h59v-304c0 -76 26 -112 82 -112c60 0 91 51 91 141v275h59v-500h-59v70zM153 577h-91l115 173h42l114 -173h-90l-45 102z" />
    <glyph glyph-name="udieresis" unicode="&#xfc;" 
d="M284 70c-19 -52 -53 -79 -103 -79c-87 0 -129 66 -129 205v304h59v-304c0 -76 26 -112 82 -112c60 0 91 51 91 141v275h59v-500h-59v70zM174 665c0 -42 -21 -67 -53 -67c-33 0 -52 25 -52 67s19 67 52 67s53 -25 53 -67zM327 665c0 -42 -20 -67 -52 -67
c-34 0 -52 25 -52 67s18 67 52 67c33 0 52 -25 52 -67z" />
    <glyph glyph-name="utilde" unicode="&#x169;" horiz-adv-x="396" 
d="M283 69c-19 -51 -52 -78 -102 -78c-88 0 -130 66 -130 205v304h59v-304c0 -76 26 -112 82 -112c60 0 91 51 91 141v275h59v-500h-59v69zM241 674c-40 0 -38 -107 -110 -107c-53 0 -83 42 -77 153v30h76l-1 -40c-2 -39 6 -57 21 -57c39 0 38 107 110 107
c53 0 85 -42 77 -152l-1 -31h-75l1 41c2 38 -6 56 -21 56z" />
    <glyph glyph-name="umacron" unicode="&#x16b;" 
d="M284 70c-19 -52 -53 -79 -103 -79c-87 0 -129 66 -129 205v304h59v-304c0 -76 26 -112 82 -112c60 0 91 51 91 141v275h59v-500h-59v70zM333 709v-92h-270v92h270z" />
    <glyph glyph-name="ubreve" unicode="&#x16d;" 
d="M284 70c-19 -52 -53 -79 -103 -79c-87 0 -129 66 -129 205v304h59v-304c0 -76 26 -112 82 -112c60 0 91 51 91 141v275h59v-500h-59v70zM122 739c0 -59 26 -84 76 -84c51 0 75 25 75 84v11h60v-11c0 -117 -52 -172 -135 -172c-84 0 -135 55 -135 172v11h59v-11z" />
    <glyph glyph-name="uring" unicode="&#x16f;" 
d="M284 70c-19 -52 -53 -79 -103 -79c-87 0 -129 66 -129 205v304h59v-304c0 -76 26 -112 82 -112c60 0 91 51 91 141v275h59v-500h-59v70zM304 715c0 -104 -39 -159 -106 -159c-69 0 -107 55 -107 159c0 105 38 159 107 159c67 0 106 -54 106 -159zM140 715
c0 -53 21 -77 58 -77c36 0 57 24 57 77s-21 77 -57 77c-37 0 -58 -24 -58 -77z" />
    <glyph glyph-name="uhungarumlaut" unicode="&#x171;" 
d="M284 70c-19 -52 -53 -79 -103 -79c-87 0 -129 66 -129 205v304h59v-304c0 -76 26 -112 82 -112c60 0 91 51 91 141v275h59v-500h-59v70zM283 750h85l-76 -173h-48zM216 750l-63 -173h-48l26 173h85z" />
    <glyph glyph-name="uogonek" unicode="&#x173;" 
d="M284 70c-19 -52 -53 -79 -103 -79c-87 0 -129 66 -129 205v304h59v-304c0 -76 26 -112 82 -112c60 0 91 51 91 141v275h59v-500c-31 -12 -42 -33 -42 -66c0 -38 14 -51 39 -51c13 0 21 1 30 3v-91c-12 -4 -22 -6 -39 -6c-54 0 -90 36 -90 119c0 45 16 79 43 103v59z" />
    <glyph glyph-name="v" unicode="v" horiz-adv-x="346" 
d="M213 0h-80l-121 500h59l75 -300l17 -105h2l16 105l75 300h78z" />
    <glyph glyph-name="w" unicode="w" horiz-adv-x="526" 
d="M511 500l-93 -500h-78l-64 310l-11 95h-2l-11 -95l-64 -310h-79l-94 500h56l56 -306l12 -98h2l12 98l63 306h77l62 -306l12 -98h3l11 98l55 306h75z" />
    <glyph glyph-name="wcircumflex" unicode="&#x175;" horiz-adv-x="526" 
d="M436 500h75l-93 -500h-78l-64 310l-11 95h-2l-11 -95l-64 -310h-79l-94 500h56l56 -306l12 -98h2l12 98l63 306h77l62 -306l12 -98h3l11 98zM215 577h-91l115 173h42l114 -173h-90l-45 102z" />
    <glyph glyph-name="wgrave" unicode="&#x1e81;" horiz-adv-x="526" 
d="M511 500l-93 -500h-78l-64 310l-11 95h-2l-11 -95l-64 -310h-79l-94 500h56l56 -306l12 -98h2l12 98l63 306h77l62 -306l12 -98h3l11 98l55 306h75zM276 577h-47l-84 173h85z" />
    <glyph glyph-name="wacute" unicode="&#x1e83;" horiz-adv-x="526" 
d="M511 500l-93 -500h-78l-64 310l-11 95h-2l-11 -95l-64 -310h-79l-94 500h56l56 -306l12 -98h2l12 98l63 306h77l62 -306l12 -98h3l11 98l55 306h75zM241 577l39 173h85l-77 -173h-47z" />
    <glyph glyph-name="wdieresis" unicode="&#x1e85;" horiz-adv-x="526" 
d="M511 500l-93 -500h-78l-64 310l-11 95h-2l-11 -95l-64 -310h-79l-94 500h56l56 -306l12 -98h2l12 98l63 306h77l62 -306l12 -98h3l11 98l55 306h75zM184 598c-33 0 -52 25 -52 67s19 67 52 67s53 -25 53 -67s-21 -67 -53 -67zM338 598c-34 0 -52 25 -52 67s18 67 52 67
c33 0 52 -25 52 -67s-20 -67 -52 -67z" />
    <glyph glyph-name="x" unicode="x" horiz-adv-x="355" 
d="M329 500l-109 -245l117 -255h-67l-56 124l-30 82h-2l-28 -82l-51 -124h-85l117 263l-108 237h67l52 -112l25 -73h2l23 73l48 112h85z" />
    <glyph glyph-name="y" unicode="y" horiz-adv-x="348" 
d="M338 500l-144 -586c-40 -142 -74 -171 -127 -171h-16v97h16c21 0 51 8 69 74l17 82l-139 504h62l72 -254l23 -119h2l22 119l64 254h79z" />
    <glyph glyph-name="yacute" unicode="&#xfd;" horiz-adv-x="348" 
d="M338 500l-144 -586c-40 -142 -74 -171 -127 -171h-16v97h16c21 0 51 8 69 74l17 82l-139 504h62l72 -254l23 -119h2l22 119l64 254h79zM149 577l39 173h85l-77 -173h-47z" />
    <glyph glyph-name="ydieresis" unicode="&#xff;" horiz-adv-x="348" 
d="M338 500l-144 -586c-40 -142 -74 -171 -127 -171h-16v97h16c21 0 51 8 69 74l17 82l-139 504h62l72 -254l23 -119h2l22 119l64 254h79zM95 598c-33 0 -52 25 -52 67s19 67 52 67s53 -25 53 -67s-21 -67 -53 -67zM249 598c-33 0 -52 25 -52 67s19 67 52 67s53 -25 53 -67
s-21 -67 -53 -67z" />
    <glyph glyph-name="ycircumflex" unicode="&#x177;" horiz-adv-x="348" 
d="M67 -160c21 0 51 8 69 74l17 82l-139 504h62l72 -254l23 -119h2l22 119l64 254h79l-144 -586c-40 -142 -74 -171 -127 -171h-16v97h16zM131 577h-91l115 173h42l114 -173h-90l-46 104z" />
    <glyph glyph-name="ygrave" unicode="&#x1ef3;" horiz-adv-x="348" 
d="M338 500l-144 -586c-40 -142 -74 -171 -127 -171h-16v97h16c21 0 51 8 69 74l17 82l-139 504h62l72 -254l23 -119h2l22 119l64 254h79zM199 577h-47l-84 173h85z" />
    <glyph glyph-name="z" unicode="z" horiz-adv-x="315" 
d="M276 500v-86l-171 -322h176v-92h-247v86l171 322h-163v92h234z" />
    <glyph glyph-name="zacute" unicode="&#x17a;" horiz-adv-x="315" 
d="M276 500v-86l-171 -322h176v-92h-247v86l171 322h-163v92h234zM182 577h-47l39 173h85z" />
    <glyph glyph-name="zdotaccent" unicode="&#x17c;" horiz-adv-x="315" 
d="M276 500v-86l-171 -322h176v-92h-247v86l171 322h-163v92h234zM212 663c0 -41 -21 -65 -52 -65c-34 0 -52 24 -52 65s18 66 52 66c33 0 52 -25 52 -66z" />
    <glyph glyph-name="zcaron" unicode="&#x17e;" horiz-adv-x="315" 
d="M276 500v-86l-171 -322h176v-92h-247v86l171 322h-163v92h234zM202 750h91l-115 -173h-42l-114 173h90l46 -103z" />
    <glyph glyph-name="ordfeminine" unicode="&#xaa;" horiz-adv-x="274" 
d="M122 409c41 0 69 19 69 63v17h-68c-30 0 -47 -12 -47 -42c0 -24 16 -38 46 -38zM126 554h65v26c0 36 -20 50 -53 50c-36 0 -55 -14 -55 -50v-8h-52v8c0 87 41 132 107 132c65 0 106 -45 106 -132v-231h-53v48c-16 -37 -44 -60 -85 -60c-51 0 -82 40 -82 107
s39 110 102 110z" />
    <glyph glyph-name="ordmasculine" unicode="&#xba;" horiz-adv-x="293" 
d="M147 420c48 0 70 32 70 104c0 73 -22 105 -70 105c-49 0 -71 -32 -71 -105c0 -72 22 -104 71 -104zM147 712c80 0 123 -72 123 -188c0 -115 -43 -187 -123 -187s-124 72 -124 187c0 116 44 188 124 188z" />
    <glyph glyph-name="germandbls" unicode="&#xdf;" horiz-adv-x="423" 
d="M54 575c0 103 52 175 138 175h194v-92l-99 -162c69 -29 106 -119 106 -247c0 -159 -57 -258 -161 -258h-41v93h41c69 0 101 50 101 165c0 114 -32 165 -101 165h-41v93h38l89 151h-126c-52 0 -78 -34 -78 -83v-575h-60v575z" />
    <glyph glyph-name="ae" unicode="&#xe6;" horiz-adv-x="586" 
d="M550 158c0 -98 -51 -167 -139 -167c-59 0 -100 34 -123 101c-21 -62 -68 -101 -137 -101c-70 0 -113 57 -113 150c0 95 45 150 118 150h103v59c0 49 -27 67 -75 67c-50 0 -76 -17 -76 -65v-12h-60v12c0 103 51 157 136 157c54 0 94 -24 115 -76c24 50 61 76 112 76
c91 0 143 -75 143 -221v-77h-234c6 -90 33 -127 91 -127c54 0 80 29 80 74v6h59v-6zM411 416c-54 0 -86 -34 -91 -121h174v16c0 70 -35 105 -83 105zM98 144c0 -41 21 -61 60 -61c62 0 101 28 101 94v30h-96c-42 0 -65 -20 -65 -63z" />
    <glyph glyph-name="aeacute" unicode="&#x1fd;" horiz-adv-x="586" 
d="M550 158c0 -98 -51 -167 -139 -167c-59 0 -100 34 -123 101c-21 -62 -68 -101 -137 -101c-70 0 -113 57 -113 150c0 95 45 150 118 150h103v59c0 49 -27 67 -75 67c-50 0 -76 -17 -76 -65v-12h-60v12c0 103 51 157 136 157c54 0 94 -24 115 -76c24 50 61 76 112 76
c91 0 143 -75 143 -221v-77h-234c6 -90 33 -127 91 -127c54 0 80 29 80 74v6h59v-6zM411 416c-54 0 -86 -34 -91 -121h174v16c0 70 -35 105 -83 105zM98 144c0 -41 21 -61 60 -61c62 0 101 28 101 94v30h-96c-42 0 -65 -20 -65 -63zM330 577h-47l38 173h86z" />
    <glyph glyph-name="eth" unicode="&#xf0;" horiz-adv-x="390" 
d="M361 228c0 -154 -55 -237 -162 -237c-108 0 -161 83 -161 237c0 144 53 221 161 221c15 0 29 -1 42 -5l-65 126l-60 -62l-31 85l52 54l-52 103h68l28 -57l55 57l32 -85l-49 -50l83 -168c45 -86 59 -132 59 -219zM301 228c0 100 -30 143 -102 143
c-71 0 -102 -42 -102 -143c0 -102 31 -144 102 -144c73 0 102 42 102 144z" />
    <glyph glyph-name="oslash" unicode="&#xf8;" horiz-adv-x="402" 
d="M36 250c0 168 55 259 165 259c37 0 68 -12 91 -36l15 27h64l-38 -69c23 -42 33 -103 33 -181c0 -168 -54 -259 -164 -259c-37 0 -68 11 -92 36l-15 -27h-64l38 70c-22 42 -33 102 -33 180zM307 250c0 43 -6 76 -18 101l-137 -248c13 -13 29 -19 50 -19
c75 0 105 48 105 166zM96 250c0 -43 5 -76 17 -101l137 248c-12 13 -28 19 -49 19c-75 0 -105 -49 -105 -166z" />
    <glyph glyph-name="oslashacute" unicode="&#x1ff;" horiz-adv-x="402" 
d="M36 250c0 168 55 259 165 259c37 0 68 -12 91 -36l15 27h64l-38 -69c23 -42 33 -103 33 -181c0 -168 -54 -259 -164 -259c-37 0 -68 11 -92 36l-15 -27h-64l38 70c-22 42 -33 102 -33 180zM307 250c0 43 -6 76 -18 101l-137 -248c13 -13 29 -19 50 -19
c75 0 105 48 105 166zM96 250c0 -43 5 -76 17 -101l137 248c-12 13 -28 19 -49 19c-75 0 -105 -49 -105 -166zM221 577h-47l38 173h85z" />
    <glyph glyph-name="thorn" unicode="&#xfe;" horiz-adv-x="403" 
d="M113 429c20 52 55 80 109 80c101 0 151 -90 151 -259c0 -168 -50 -259 -151 -259c-54 0 -89 28 -109 81v-322h-59v1000h59v-321zM213 416c-66 0 -100 -51 -100 -141v-50c0 -90 34 -141 100 -141c71 0 100 49 100 166c0 118 -29 166 -100 166z" />
    <glyph glyph-name="dcroat" unicode="&#x111;" horiz-adv-x="402" 
d="M289 71c-20 -52 -55 -80 -109 -80c-100 0 -150 90 -150 259s50 259 150 259c54 0 89 -27 109 -80v155h-97v92h97v74h59v-74h44v-92h-44v-584h-59v71zM190 84c66 0 99 51 99 141v50c0 90 -33 141 -99 141c-72 0 -100 -48 -100 -166s28 -166 100 -166z" />
    <glyph glyph-name="hbar" unicode="&#x127;" 
d="M113 431c19 51 53 78 103 78c87 0 129 -66 129 -205v-304h-59v304c0 77 -26 113 -82 113c-60 0 -91 -51 -91 -142v-275h-59v592h-40v84h40v74h59v-74h117v-84h-117v-161z" />
    <glyph glyph-name="dotlessi" unicode="&#x131;" horiz-adv-x="168" 
d="M113 500v-500h-59v500h59z" />
    <glyph glyph-name="ij" unicode="&#x133;" horiz-adv-x="323" 
d="M115 500v-500h-59v500h59zM56 -78h59c0 -70 17 -87 47 -87s46 18 46 88v577h59v-579c0 -121 -35 -178 -105 -178c-72 0 -106 61 -106 179zM87 598c-34 0 -52 24 -52 65s18 66 52 66c33 0 52 -25 52 -66s-21 -65 -52 -65zM238 598c-34 0 -52 24 -52 65s18 66 52 66
c33 0 52 -25 52 -66s-21 -65 -52 -65z" />
    <glyph glyph-name="ldot" unicode="&#x140;" horiz-adv-x="240" 
d="M113 750v-750h-59v750h59zM154 250c0 41 17 66 49 66s50 -25 50 -66s-18 -65 -50 -65s-49 24 -49 65z" />
    <glyph glyph-name="lslash" unicode="&#x142;" horiz-adv-x="173" 
d="M116 451l57 57v-115l-57 -57v-336h-59v278l-56 -56v115l56 56v357h59v-299z" />
    <glyph glyph-name="napostrophe" unicode="&#x149;" 
d="M113 431c19 51 53 78 103 78c88 0 129 -64 129 -205v-304h-59v304c0 79 -26 113 -81 113c-60 0 -92 -46 -92 -142v-275h-59v500h59v-69zM145 698c0 -19 -5 -44 -18 -68l-31 -62h-41l-5 128c-1 39 16 64 47 64c30 0 48 -23 48 -62z" />
    <glyph glyph-name="eng" unicode="&#x14b;" 
d="M216 509c88 0 129 -66 129 -205v-363c0 -135 -44 -198 -134 -198h-17v94h17c51 0 75 34 75 104v363c0 77 -25 113 -81 113c-60 0 -91 -51 -91 -142v-275h-60v500h60v-67c19 50 52 76 102 76z" />
    <glyph glyph-name="oe" unicode="&#x153;" horiz-adv-x="618" 
d="M582 158c0 -98 -52 -167 -142 -167c-57 0 -102 27 -128 84c-26 -57 -68 -84 -125 -84c-105 0 -157 91 -157 259s52 259 157 259c57 0 100 -26 125 -83c25 56 70 83 128 83c93 0 146 -75 146 -221v-74h-242c6 -93 35 -130 96 -130c57 0 82 29 82 74v6h60v-6zM90 250
c0 -118 27 -166 97 -166c69 0 96 48 96 166c0 117 -27 166 -96 166c-70 0 -97 -49 -97 -166zM440 416c-56 0 -89 -34 -95 -118h181v16c0 68 -35 102 -86 102z" />
    <glyph glyph-name="tbar" unicode="&#x167;" horiz-adv-x="318" 
d="M180 84c35 0 54 15 54 85h59c0 -113 -36 -178 -113 -178c-76 0 -113 57 -113 178v66h-39v87h39v86h-39v92h39l13 107h47v-107h122v-92h-122v-86h118v-87h-118v-66c0 -70 19 -85 53 -85z" />
    <glyph glyph-name="uni0237" unicode="&#x237;" horiz-adv-x="169" 
d="M-98 -78h60c0 -70 16 -87 46 -87s46 18 46 88v577h60v-579c0 -121 -35 -178 -106 -178s-106 61 -106 179z" />
    <glyph glyph-name="uni0430" unicode="&#x430;" horiz-adv-x="376" 
d="M187 509c85 0 137 -51 137 -157v-352h-60v72c-21 -50 -59 -81 -112 -81c-70 0 -113 57 -113 150c0 94 45 149 118 149h107v62c0 48 -28 65 -77 65c-51 0 -78 -17 -78 -65v-12h-60v12c0 103 52 157 138 157zM99 144c0 -41 22 -61 60 -61c64 0 105 28 105 94v30h-100
c-42 0 -65 -20 -65 -63z" />
    <glyph glyph-name="uni0431" unicode="&#x431;" horiz-adv-x="395" 
d="M204 -9c-108 0 -162 84 -162 242v216c0 203 49 256 135 256h73c36 0 46 10 46 36v8h59v-35c0 -74 -28 -104 -100 -104h-78c-55 0 -80 -23 -80 -161l1 -72c19 63 56 97 117 97c99 0 149 -78 149 -241c0 -158 -53 -242 -160 -242zM205 381c-69 0 -104 -52 -104 -148
c3 -109 30 -150 103 -150c71 0 101 41 101 150c0 107 -29 148 -100 148z" />
    <glyph glyph-name="uni0432" unicode="&#x432;" horiz-adv-x="363" 
d="M324 148c0 -92 -46 -148 -127 -148h-143v500h143c83 0 122 -53 122 -144c0 -46 -14 -81 -43 -102c31 -22 48 -58 48 -106zM264 148c0 39 -22 64 -66 64h-85v-126h85c44 0 66 23 66 62zM259 356c0 38 -16 58 -61 58h-85v-117h85c45 0 61 20 61 59z" />
    <glyph glyph-name="uni0433" unicode="&#x433;" horiz-adv-x="291" 
d="M276 500v-92h-163v-408h-59v500h222z" />
    <glyph glyph-name="uni0453" unicode="&#x453;" horiz-adv-x="291" 
d="M276 500v-92h-163v-408h-59v500h222zM147 577l38 173h85l-76 -173h-47z" />
    <glyph glyph-name="uni0434" unicode="&#x434;" horiz-adv-x="409" 
d="M58 92c12 38 22 95 27 296l3 112h256v-408h40v-241h-60v149h-246v-149h-59v241h39zM143 388c-4 -177 -15 -251 -27 -296h168v316h-141v-20z" />
    <glyph glyph-name="uni0435" unicode="&#x435;" horiz-adv-x="374" 
d="M30 250c0 168 53 259 161 259c96 0 151 -75 151 -221v-65h-252c4 -99 34 -139 101 -139c60 0 88 29 88 74v4h59v-4c0 -98 -54 -167 -147 -167c-108 0 -161 87 -161 259zM191 416c-58 0 -91 -31 -99 -109h191v7c0 68 -39 102 -92 102z" />
    <glyph glyph-name="uni0451" unicode="&#x451;" horiz-adv-x="374" 
d="M30 250c0 168 53 259 161 259c96 0 151 -75 151 -221v-65h-252c4 -99 34 -139 101 -139c60 0 88 29 88 74v4h59v-4c0 -98 -54 -167 -147 -167c-108 0 -161 87 -161 259zM191 416c-58 0 -91 -31 -99 -109h191v7c0 68 -39 102 -92 102zM311 665c0 -42 -21 -67 -53 -67
c-33 0 -52 25 -52 67s19 67 52 67s53 -25 53 -67zM157 665c0 -42 -21 -67 -53 -67c-33 0 -52 25 -52 67s19 67 52 67s53 -25 53 -67z" />
    <glyph glyph-name="uni0436" unicode="&#x436;" horiz-adv-x="525" 
d="M233 208h-34l-93 -208h-83l118 260l-111 240h65l88 -200h50v200h59v-200h33l89 200h82l-112 -239l119 -261h-67l-92 208h-52v-208h-59v208z" />
    <glyph glyph-name="uni04C2" unicode="&#x4c2;" horiz-adv-x="525" 
d="M233 208h-34l-93 -208h-83l118 260l-111 240h65l88 -200h50v200h59v-200h33l89 200h82l-112 -239l119 -261h-67l-92 208h-52v-208h-59v208zM187 739c0 -59 26 -84 75 -84c52 0 76 25 76 84v11h60v-11c0 -117 -52 -172 -136 -172c-83 0 -135 55 -135 172v11h60v-11z" />
    <glyph glyph-name="uni0437" unicode="&#x437;" horiz-adv-x="363" 
d="M324 150c0 -87 -44 -159 -144 -159c-101 0 -144 72 -144 164v30h59v-30c0 -40 18 -71 85 -71s84 29 84 66c0 34 -14 59 -71 59h-46v92h45c54 0 68 21 68 54c0 37 -16 61 -80 61s-80 -26 -80 -66v-26h-59v26c0 92 42 159 139 159s139 -65 139 -154c0 -50 -17 -83 -55 -100
c40 -18 60 -52 60 -105z" />
    <glyph glyph-name="uni0438" unicode="&#x438;" horiz-adv-x="414" 
d="M114 500v-375h2l158 375h86v-500h-60v375h-2l-158 -375h-86v500h60z" />
    <glyph glyph-name="uni0439" unicode="&#x439;" horiz-adv-x="414" 
d="M114 500v-375h2l158 375h86v-500h-60v375h-2l-158 -375h-86v500h60zM209 655c51 0 75 25 75 84v11h60v-11c0 -117 -52 -172 -135 -172s-135 55 -135 172v11h60v-11c0 -59 26 -84 75 -84z" />
    <glyph glyph-name="uni04E3" unicode="&#x4e3;" horiz-adv-x="414" 
d="M114 500v-375h2l158 375h86v-500h-60v375h-2l-158 -375h-86v500h60zM342 617h-270v92h270v-92z" />
    <glyph glyph-name="uni043A" unicode="&#x43a;" horiz-adv-x="367" 
d="M114 0h-60v500h60v-199h45l98 199h84l-125 -245l134 -255h-69l-106 209h-61v-209z" />
    <glyph glyph-name="uni045C" unicode="&#x45c;" horiz-adv-x="367" 
d="M114 0h-60v500h60v-199h45l98 199h84l-125 -245l134 -255h-69l-106 209h-61v-209zM190 577h-47l39 173h85z" />
    <glyph glyph-name="uni043B" unicode="&#x43b;" horiz-adv-x="393" 
d="M92 500h247v-500h-60v408h-134l-3 -143c-6 -245 -34 -269 -93 -269h-23v99h23c19 0 32 9 36 171z" />
    <glyph glyph-name="uni043C" unicode="&#x43c;" horiz-adv-x="504" 
d="M450 500v-500h-59v309l6 99h-3l-106 -318h-56l-106 318h-3l6 -99v-309h-75v500h97l78 -228l22 -84h3l21 84l78 228h97z" />
    <glyph glyph-name="uni043D" unicode="&#x43d;" horiz-adv-x="399" 
d="M345 0h-59v209h-173v-209h-59v500h59v-199h173v199h59v-500z" />
    <glyph glyph-name="uni043E" unicode="&#x43e;" horiz-adv-x="382" 
d="M192 509c107 0 160 -91 160 -259s-53 -259 -160 -259c-109 0 -162 91 -162 259s53 259 162 259zM192 84c73 0 102 48 102 166c0 117 -29 166 -102 166c-74 0 -103 -49 -103 -166c0 -118 29 -166 103 -166z" />
    <glyph glyph-name="uni04E7" unicode="&#x4e7;" horiz-adv-x="382" 
d="M192 509c107 0 160 -91 160 -259s-53 -259 -160 -259c-109 0 -162 91 -162 259s53 259 162 259zM192 84c73 0 102 48 102 166c0 117 -29 166 -102 166c-74 0 -103 -49 -103 -166c0 -118 29 -166 103 -166zM111 598c-33 0 -52 25 -52 67s19 67 52 67s53 -25 53 -67
s-21 -67 -53 -67zM265 598c-34 0 -52 25 -52 67s18 67 52 67c33 0 52 -25 52 -67s-20 -67 -52 -67z" />
    <glyph glyph-name="uni043F" unicode="&#x43f;" horiz-adv-x="399" 
d="M345 0h-59v408h-173v-408h-59v500h291v-500z" />
    <glyph glyph-name="uni0440" unicode="&#x440;" horiz-adv-x="404" 
d="M114 429c20 53 55 80 109 80c101 0 151 -90 151 -259c0 -168 -50 -259 -151 -259c-54 0 -89 28 -109 80v-321h-59v750h59v-71zM214 416c-66 0 -100 -51 -100 -141v-50c0 -90 34 -141 100 -141c71 0 100 49 100 166c0 118 -29 166 -100 166z" />
    <glyph glyph-name="uni0441" unicode="&#x441;" horiz-adv-x="374" 
d="M192 416c-74 0 -103 -49 -103 -166c0 -118 29 -166 103 -166c62 0 92 38 92 112v8h59v-8c0 -129 -56 -205 -151 -205c-109 0 -162 91 -162 259s53 259 162 259c94 0 151 -71 151 -195v-8h-59v8c0 67 -30 102 -92 102z" />
    <glyph glyph-name="uni0442" unicode="&#x442;" horiz-adv-x="297" 
d="M15 408v92h267v-92h-104v-408h-59v408h-104z" />
    <glyph glyph-name="uni0443" unicode="&#x443;" horiz-adv-x="348" 
d="M337 500l-144 -586c-40 -142 -74 -171 -127 -171h-16v97h16c21 0 51 8 69 74l17 82l-139 504h62l72 -254l23 -119h2l22 119l64 254h79z" />
    <glyph glyph-name="uni045E" unicode="&#x45e;" horiz-adv-x="348" 
d="M337 500l-144 -586c-40 -142 -74 -171 -127 -171h-16v97h16c21 0 51 8 69 74l17 82l-139 504h62l72 -254l23 -119h2l22 119l64 254h79zM175 655c51 0 75 25 75 84v11h60v-11c0 -117 -52 -172 -135 -172c-84 0 -135 55 -135 172v11h59v-11c0 -59 26 -84 76 -84z" />
    <glyph glyph-name="uni04EF" unicode="&#x4ef;" horiz-adv-x="348" 
d="M337 500l-144 -586c-40 -142 -74 -171 -127 -171h-16v97h16c21 0 51 8 69 74l17 82l-139 504h62l72 -254l23 -119h2l22 119l64 254h79zM306 617h-270v92h270v-92z" />
    <glyph glyph-name="uni04F3" unicode="&#x4f3;" horiz-adv-x="348" 
d="M337 500l-144 -586c-40 -142 -74 -171 -127 -171h-16v97h16c21 0 51 8 69 74l17 82l-139 504h62l72 -254l23 -119h2l22 119l64 254h79zM114 577h-48l25 173h85zM253 577h-48l39 173h85z" />
    <glyph glyph-name="uni0444" unicode="&#x444;" horiz-adv-x="495" 
d="M306 0h-29v-250h-59v250h-29c-105 0 -159 93 -159 250s54 250 159 250h29v250h59v-250h29c104 0 159 -93 159 -250s-55 -250 -159 -250zM189 92h31v316h-31c-65 0 -100 -58 -100 -158c0 -99 35 -158 100 -158zM306 408h-31v-316h31c64 0 100 59 100 158
c0 100 -36 158 -100 158z" />
    <glyph glyph-name="uni0445" unicode="&#x445;" horiz-adv-x="355" 
d="M329 500l-109 -245l117 -255h-67l-56 124l-30 82h-2l-28 -82l-51 -124h-85l117 263l-108 237h67l52 -112l25 -73h2l23 73l48 112h85z" />
    <glyph glyph-name="uni0446" unicode="&#x446;" horiz-adv-x="411" 
d="M386 -149h-59v149h-273v500h60v-408h173v408h59v-408h40v-241z" />
    <glyph glyph-name="uni0447" unicode="&#x447;" horiz-adv-x="367" 
d="M152 271h101v229h60v-500h-60v179h-101c-91 0 -116 75 -116 152v169h60v-169c0 -27 12 -60 56 -60z" />
    <glyph glyph-name="uni0448" unicode="&#x448;" horiz-adv-x="548" 
d="M435 500h59v-500h-440v500h60v-408h131v408h59v-408h131v408z" />
    <glyph glyph-name="uni0449" unicode="&#x449;" horiz-adv-x="559" 
d="M535 -149h-59v149h-422v500h60v-408h131v408h59v-408h131v408h59v-408h41v-241z" />
    <glyph glyph-name="uni044A" unicode="&#x44a;" horiz-adv-x="381" 
d="M84 408h-78v92h138v-157h83c85 0 128 -60 128 -171s-43 -172 -128 -172h-143v408zM144 92h83c46 0 68 26 68 80s-22 79 -68 79h-83v-159z" />
    <glyph glyph-name="uni044B" unicode="&#x44b;" horiz-adv-x="502" 
d="M114 343h83c85 0 128 -60 128 -171s-43 -172 -128 -172h-143v500h60v-157zM114 92h83c46 0 68 26 68 80s-22 79 -68 79h-83v-159zM448 500v-500h-60v500h60z" />
    <glyph glyph-name="uni044C" unicode="&#x44c;" horiz-adv-x="351" 
d="M114 343h83c85 0 128 -60 128 -171s-43 -172 -128 -172h-143v500h60v-157zM114 92h83c46 0 68 26 68 80s-22 79 -68 79h-83v-159z" />
    <glyph glyph-name="uni044D" unicode="&#x44d;" horiz-adv-x="380" 
d="M288 299c-8 82 -39 117 -103 117c-63 0 -95 -35 -95 -102v-8h-59v8c0 124 58 195 154 195c110 0 165 -91 165 -259s-55 -259 -165 -259c-96 0 -154 76 -154 205v8h59v-8c0 -74 32 -112 95 -112c66 0 97 37 104 127h-161v88h160z" />
    <glyph glyph-name="uni044E" unicode="&#x44e;" horiz-adv-x="540" 
d="M195 299c9 138 61 210 157 210c106 0 158 -89 158 -259s-52 -259 -158 -259c-98 0 -149 74 -158 216h-80v-207h-60v500h60v-201h81zM253 250c0 -111 31 -166 99 -166c66 0 98 55 98 166s-32 166 -98 166c-68 0 -99 -55 -99 -166z" />
    <glyph glyph-name="uni044F" unicode="&#x44f;" horiz-adv-x="366" 
d="M41 332c0 104 43 168 129 168h142v-500h-60v166h-87l-64 -166h-63l71 185c-44 21 -68 72 -68 147zM100 332c0 -53 23 -82 70 -82h82v158h-82c-47 0 -70 -29 -70 -76z" />
    <glyph glyph-name="uni0452" unicode="&#x452;" 
d="M216 509c87 0 129 -66 129 -205v-363c0 -135 -44 -198 -134 -198h-17v94h17c51 0 75 34 75 104v363c0 77 -26 113 -82 113c-60 0 -91 -51 -91 -142v-275h-59v592h-40v84h40v74h59v-74h117v-84h-117v-161c19 51 53 78 103 78z" />
    <glyph glyph-name="uni0454" unicode="&#x454;" horiz-adv-x="380" 
d="M290 314c0 67 -32 102 -96 102c-63 0 -94 -35 -102 -117h160v-88h-161c7 -90 38 -127 103 -127c64 0 96 38 96 112v8h59v-8c0 -129 -58 -205 -155 -205c-110 0 -164 91 -164 259s54 259 164 259c96 0 155 -71 155 -195v-8h-59v8z" />
    <glyph glyph-name="uni0455" unicode="&#x455;" horiz-adv-x="352" 
d="M255 144c0 113 -218 51 -218 214c0 79 40 151 137 151c89 0 137 -59 137 -164v-11h-60v11c0 54 -25 71 -77 71c-62 0 -78 -23 -78 -58c0 -113 218 -50 218 -214c0 -82 -42 -153 -141 -153c-91 0 -141 61 -141 165v17h60v-17c0 -54 27 -72 81 -72c64 0 82 24 82 60z" />
    <glyph glyph-name="uni0456" unicode="&#x456;" horiz-adv-x="174" 
d="M117 500v-500h-60v500h60zM88 598c-34 0 -52 24 -52 65s18 66 52 66c33 0 52 -25 52 -66s-21 -65 -52 -65z" />
    <glyph glyph-name="uni0457" unicode="&#x457;" horiz-adv-x="171" 
d="M115 500v-500h-59v500h59zM26 598c-34 0 -52 24 -52 65s18 66 52 66c33 0 52 -25 52 -66s-20 -65 -52 -65zM144 598c-33 0 -52 24 -52 65s19 66 52 66s52 -25 52 -66s-20 -65 -52 -65z" />
    <glyph glyph-name="uni0458" unicode="&#x458;" horiz-adv-x="170" 
d="M-96 -78h59c0 -70 16 -87 46 -87s46 18 46 88v577h60v-579c0 -121 -35 -178 -106 -178s-105 61 -105 179zM85 598c-33 0 -52 24 -52 65s19 66 52 66s52 -25 52 -66s-20 -65 -52 -65z" />
    <glyph glyph-name="uni0459" unicode="&#x459;" horiz-adv-x="538" 
d="M320 92h64c47 0 69 26 69 80s-22 79 -69 79h-64v-159zM260 0v408h-114l-4 -143c-6 -245 -34 -269 -93 -269h-23v99h23c19 0 32 12 36 171l7 234h228v-157h64c85 0 128 -60 128 -171s-43 -172 -128 -172h-124z" />
    <glyph glyph-name="uni045A" unicode="&#x45a;" horiz-adv-x="545" 
d="M327 92h64c47 0 69 20 69 59c0 40 -22 58 -69 58h-64v-117zM268 0v209h-154v-209h-60v500h60v-199h154v199h59v-199h64c85 0 128 -52 128 -150c0 -97 -43 -151 -128 -151h-123z" />
    <glyph glyph-name="uni045B" unicode="&#x45b;" 
d="M113 431c19 51 53 78 103 78c87 0 129 -66 129 -205v-304h-59v304c0 77 -26 113 -82 113c-60 0 -91 -51 -91 -142v-275h-59v592h-40v84h40v74h59v-74h117v-84h-117v-161z" />
    <glyph glyph-name="uni045F" unicode="&#x45f;" horiz-adv-x="400" 
d="M230 0v-149h-60v149h-116v500h60v-408h173v408h59v-500h-116z" />
    <glyph glyph-name="uni0491" unicode="&#x491;" horiz-adv-x="291" 
d="M54 500h163v149h59v-241h-163v-408h-59v500z" />
    <glyph glyph-name="uni0493" unicode="&#x493;" horiz-adv-x="291" 
d="M215 270v-92h-102v-178h-59v178h-39v92h39v230h222v-92h-163v-138h102z" />
    <glyph glyph-name="uni0497" unicode="&#x497;" horiz-adv-x="531" 
d="M233 208h-34l-93 -208h-83l118 260l-111 240h65l88 -200h50v200h59v-200h33l89 200h82l-112 -239l77 -169h61v-241h-59v149h-27l-92 208h-52v-208h-59v208z" />
    <glyph glyph-name="uni0499" unicode="&#x499;" horiz-adv-x="363" 
d="M264 150c0 34 -14 59 -71 59h-46v92h45c54 0 68 21 68 54c0 37 -16 61 -80 61s-80 -26 -80 -66v-26h-59v26c0 92 42 159 139 159s139 -65 139 -154c0 -50 -17 -83 -55 -100c40 -18 60 -52 60 -105c0 -80 -37 -147 -120 -158v-141h-59v143c-76 15 -109 80 -109 161v30h59
v-30c0 -40 18 -71 85 -71s84 29 84 66z" />
    <glyph glyph-name="uni049B" unicode="&#x49b;" horiz-adv-x="379" 
d="M114 0h-59v500h59v-199h45l99 199h84l-126 -245l86 -163h69v-241h-59v149h-30l-106 209h-62v-209z" />
    <glyph glyph-name="uni049D" unicode="&#x49d;" horiz-adv-x="419" 
d="M198 80h-60v129h-24v-209h-59v500h59v-199h24v119h60v-119h15l95 199h85l-122 -245l131 -255h-66l-102 209h-36v-129z" />
    <glyph glyph-name="uni04A1" unicode="&#x4a1;" 
d="M286 500h85l-125 -245l134 -255h-66l-106 209h-64v-209h-60v408h-78v92h138v-199h44z" />
    <glyph glyph-name="uni04A3" unicode="&#x4a3;" horiz-adv-x="410" 
d="M345 500v-408h41v-241h-59v149h-41v209h-173v-209h-59v500h59v-199h173v199h59z" />
    <glyph glyph-name="uni04AB" unicode="&#x4ab;" horiz-adv-x="374" 
d="M284 314c0 67 -30 102 -92 102c-74 0 -103 -49 -103 -166c0 -118 29 -166 103 -166c62 0 92 38 92 112v8h59v-8c0 -117 -46 -190 -125 -203v-142h-59v143c-87 17 -129 106 -129 256c0 168 53 259 162 259c94 0 151 -71 151 -195v-8h-59v8z" />
    <glyph glyph-name="uni04AF" unicode="&#x4af;" horiz-adv-x="345" 
d="M142 -250v258l-131 492h59l71 -278l21 -105h3l19 105l72 278h78l-132 -496v-254h-60z" />
    <glyph glyph-name="uni04B1" unicode="&#x4b1;" horiz-adv-x="345" 
d="M142 -50v58l-131 492h59l71 -278l21 -105h3l19 105l72 278h78l-132 -496v-54h91v-92h-91v-108h-60v108h-92v92h92z" />
    <glyph glyph-name="uni04B3" unicode="&#x4b3;" horiz-adv-x="369" 
d="M244 500h85l-109 -245l75 -163h60v-241h-59v149h-26l-56 124l-30 82h-2l-28 -82l-51 -124h-85l117 263l-108 237h67l52 -112l25 -73h2l23 73z" />
    <glyph glyph-name="uni04B7" unicode="&#x4b7;" horiz-adv-x="377" 
d="M96 331c0 -27 12 -60 56 -60h101v229h60v-408h39v-241h-59v149h-40v179h-101c-91 0 -116 75 -116 152v169h60v-169z" />
    <glyph glyph-name="uni04BB" unicode="&#x4bb;" 
d="M113 431c19 51 53 78 103 78c87 0 129 -66 129 -205v-304h-59v304c0 77 -26 113 -82 113c-60 0 -91 -51 -91 -142v-275h-59v750h59v-319z" />
    <glyph glyph-name="uni04CF" unicode="&#x4cf;" horiz-adv-x="168" 
d="M113 750v-750h-59v750h59z" />
    <glyph glyph-name="uni04D9" unicode="&#x4d9;" horiz-adv-x="369" 
d="M339 250c0 -167 -53 -259 -161 -259c-96 0 -151 75 -151 221v66h252c-4 98 -34 138 -101 138c-60 0 -87 -29 -87 -74v-4h-60v4c0 99 54 167 147 167c108 0 161 -87 161 -259zM178 84c58 0 91 32 100 110h-192v-8c0 -67 40 -102 92 -102z" />
    <glyph glyph-name="uni04E9" unicode="&#x4e9;" horiz-adv-x="382" 
d="M30 250c0 168 53 259 162 259c107 0 160 -91 160 -259s-53 -259 -160 -259c-109 0 -162 91 -162 259zM90 210c7 -89 37 -126 102 -126c64 0 94 37 101 126h-203zM192 416c-63 0 -94 -36 -101 -119h201c-7 83 -38 119 -100 119z" />
    <glyph glyph-name="zero" unicode="0" horiz-adv-x="407" 
d="M305 214v274c0 86 -33 128 -102 128c-70 0 -101 -42 -101 -128v-274c0 -86 31 -128 101 -128c69 0 102 42 102 128zM367 488v-274c0 -146 -57 -224 -164 -224s-163 78 -163 224v274c0 146 56 224 163 224s164 -78 164 -224z" />
    <glyph glyph-name="one" unicode="1" horiz-adv-x="354" 
d="M172 96v488l-112 -78h-6v109l118 85h61v-604h97v-96h-294v96h136z" />
    <glyph glyph-name="two" unicode="2" horiz-adv-x="407" 
d="M367 499c0 -102 -55 -181 -166 -306l-79 -96h245v-97h-327v97l109 129c134 139 156 198 156 273c0 81 -33 117 -102 117c-68 0 -101 -39 -101 -120v-55h-62v55c0 142 57 216 163 216c109 0 164 -72 164 -213z" />
    <glyph glyph-name="three" unicode="3" horiz-adv-x="415" 
d="M310 204c0 83 -37 116 -102 116h-38v96l120 188h-175v-104h-61v200h307v-96l-130 -197c89 -9 141 -75 141 -203c0 -149 -61 -216 -164 -216c-102 0 -163 67 -163 216v45h61v-45c0 -87 34 -119 102 -119c66 0 102 32 102 119z" />
    <glyph glyph-name="four" unicode="4" horiz-adv-x="395" 
d="M28 226l91 474h63l-90 -474h181v351h62v-351h33v-96h-33v-130h-62v130h-245v96z" />
    <glyph glyph-name="five" unicode="5" horiz-adv-x="402" 
d="M309 200c0 80 -34 120 -102 120h-152v380h301v-96h-240v-188h91c108 0 163 -76 163 -216c0 -138 -55 -212 -163 -212c-106 0 -164 73 -164 212v15h62v-15c0 -78 33 -116 102 -116c68 0 102 38 102 116z" />
    <glyph glyph-name="six" unicode="6" horiz-adv-x="415" 
d="M211 616c-74 0 -109 -39 -109 -120v-148c24 47 64 72 115 72c108 0 164 -75 164 -216s-58 -216 -170 -216c-111 0 -170 75 -170 216v292c0 142 57 216 170 216c111 0 170 -75 170 -216v-15h-62v15c0 81 -33 120 -108 120zM211 324c-72 0 -109 -39 -109 -120
s35 -119 109 -119c73 0 108 38 108 119s-35 120 -108 120z" />
    <glyph glyph-name="seven" unicode="7" horiz-adv-x="347" 
d="M18 604v96h306v-96l-161 -604h-64l161 604h-242z" />
    <glyph glyph-name="eight" unicode="8" horiz-adv-x="408" 
d="M374 199c0 -137 -58 -209 -170 -209c-113 0 -170 72 -170 209c0 75 20 129 59 160c-34 31 -51 81 -51 151c0 131 55 202 162 202s163 -71 163 -202c0 -70 -17 -120 -51 -151c39 -32 58 -84 58 -160zM204 86c72 0 109 37 109 113s-37 112 -109 112
c-73 0 -108 -36 -108 -112s35 -113 108 -113zM204 616c-68 0 -101 -36 -101 -106c0 -72 33 -107 101 -107s101 35 101 107c0 70 -33 106 -101 106z" />
    <glyph glyph-name="nine" unicode="9" horiz-adv-x="415" 
d="M204 85c72 0 109 38 109 120v149c-24 -48 -64 -73 -115 -73c-108 0 -164 74 -164 215s57 216 170 216c111 0 170 -75 170 -215v-292c0 -142 -57 -217 -170 -217c-111 0 -170 75 -170 217v15h62v-15c0 -82 33 -120 108 -120zM204 377c72 0 109 38 109 119v1
c0 80 -35 119 -109 119c-73 0 -108 -39 -108 -120s35 -119 108 -119z" />
    <glyph glyph-name="underscore" unicode="_" horiz-adv-x="614" 
d="M54 86h507v-98h-507v98z" />
    <glyph glyph-name="hyphen" unicode="-" horiz-adv-x="309" 
d="M259 314v-96h-208v96h208z" />
    <glyph glyph-name="endash" unicode="&#x2013;" horiz-adv-x="369" 
d="M27 215v103h315v-103h-315z" />
    <glyph glyph-name="emdash" unicode="&#x2014;" horiz-adv-x="491" 
d="M21 215v103h449v-103h-449z" />
    <glyph glyph-name="parenleft" unicode="(" horiz-adv-x="246" 
d="M41 311c0 471 73 561 186 561h9v-96h-9c-73 0 -125 -62 -125 -465s52 -465 125 -465h9v-96h-9c-113 0 -186 90 -186 561z" />
    <glyph glyph-name="parenright" unicode=")" horiz-adv-x="246" 
d="M205 311c0 -471 -73 -561 -187 -561h-8v96h8c73 0 126 62 126 465s-53 465 -126 465h-8v96h8c114 0 187 -90 187 -561z" />
    <glyph glyph-name="bracketleft" unicode="[" horiz-adv-x="226" 
d="M61 -250v1122h155v-96h-93v-930h93v-96h-155z" />
    <glyph glyph-name="bracketright" unicode="]" horiz-adv-x="226" 
d="M165 872v-1122h-155v96h93v930h-93v96h155z" />
    <glyph glyph-name="braceleft" unicode="{" horiz-adv-x="247" 
d="M88 208c0 36 -14 58 -40 58h-21v88h21c26 0 40 22 40 59v308c0 96 40 150 108 150h41v-96h-41c-31 0 -46 -17 -46 -54v-308c0 -47 -13 -82 -37 -103c24 -21 37 -56 37 -102v-308c0 -37 15 -54 46 -54h41v-96h-41c-68 0 -108 54 -108 150v308z" />
    <glyph glyph-name="braceright" unicode="}" horiz-adv-x="247" 
d="M159 208v-308c0 -96 -40 -150 -108 -150h-41v96h41c31 0 47 17 47 54v308c0 46 13 81 36 102c-23 21 -36 56 -36 103v308c0 37 -16 54 -47 54h-41v96h41c68 0 108 -54 108 -150v-308c0 -37 14 -59 41 -59h20v-88h-20c-27 0 -41 -22 -41 -58z" />
    <glyph glyph-name="numbersign" unicode="#" horiz-adv-x="460" 
d="M153 176l-18 -176h-59l18 176h-67v92h76l17 161h-93v92h102l18 179h59l-18 -179h119l18 179h59l-18 -179h67v-92h-76l-17 -161h93v-92h-102l-18 -176h-59l18 176h-119zM179 429l-17 -161h119l17 161h-119z" />
    <glyph glyph-name="percent" unicode="%" horiz-adv-x="520" 
d="M137 474c36 0 57 24 57 77s-21 77 -57 77c-40 0 -59 -24 -59 -77s19 -77 59 -77zM137 392c-73 0 -110 55 -110 159c0 105 37 159 110 159c68 0 109 -54 109 -159c0 -104 -41 -159 -109 -159zM136 0h-65l312 700h65zM382 73c37 0 58 24 58 77c0 52 -21 77 -58 77
c-39 0 -58 -24 -58 -77s19 -77 58 -77zM382 -9c-71 0 -109 55 -109 159c0 105 38 159 109 159c69 0 110 -55 110 -159s-41 -159 -110 -159z" />
    <glyph glyph-name="perthousand" unicode="&#x2030;" horiz-adv-x="686" 
d="M658 150c0 -104 -39 -159 -110 -159c-37 0 -65 18 -83 51c-18 -34 -46 -51 -83 -51c-71 0 -109 55 -109 159c0 105 38 159 109 159c37 0 65 -17 83 -50c18 33 46 50 83 50c71 0 110 -54 110 -159zM246 551c0 -104 -41 -159 -109 -159c-73 0 -110 55 -110 159
c0 105 37 159 110 159c68 0 109 -54 109 -159zM448 700l-312 -700h-65l312 700h65zM490 150c0 -53 20 -77 58 -77s59 24 59 77s-21 77 -59 77s-58 -25 -58 -77zM78 551c0 -53 19 -77 59 -77c36 0 57 24 57 77s-21 77 -57 77c-40 0 -59 -24 -59 -77zM324 150
c0 -53 19 -77 58 -77c37 0 58 24 58 77c0 52 -21 77 -58 77c-39 0 -58 -24 -58 -77z" />
    <glyph glyph-name="quotesingle" unicode="'" horiz-adv-x="154" 
d="M81 509h-47v241h81v-35z" />
    <glyph glyph-name="quotedbl" unicode="&#x22;" horiz-adv-x="267" 
d="M81 509h-47v241h81v-35zM194 509h-47v241h81v-35z" />
    <glyph glyph-name="quoteleft" unicode="&#x2018;" horiz-adv-x="155" 
d="M117 750l5 -187c1 -41 -16 -67 -49 -67c-32 0 -50 24 -50 66c0 18 6 44 12 62l38 126h44z" />
    <glyph glyph-name="quoteright" unicode="&#x2019;" horiz-adv-x="155" 
d="M38 496l-5 187c-1 42 16 67 49 67c32 0 50 -24 50 -65c0 -19 -6 -45 -11 -63l-39 -126h-44z" />
    <glyph glyph-name="quotedblleft" unicode="&#x201c;" horiz-adv-x="291" 
d="M117 750l5 -187c1 -41 -16 -67 -49 -67c-32 0 -50 24 -50 66c0 18 6 44 12 62l38 126h44zM253 750l5 -187c1 -41 -16 -67 -49 -67c-32 0 -50 24 -50 66c0 18 6 44 12 62l38 126h44z" />
    <glyph glyph-name="quotedblright" unicode="&#x201d;" horiz-adv-x="291" 
d="M38 496l-5 187c-1 42 16 67 49 67c32 0 50 -24 50 -65c0 -19 -6 -45 -11 -63l-39 -126h-44zM174 496l-5 187c-1 42 16 67 49 67c32 0 50 -24 50 -65c0 -19 -6 -45 -11 -63l-39 -126h-44z" />
    <glyph glyph-name="quotesinglbase" unicode="&#x201a;" horiz-adv-x="155" 
d="M38 -120l-5 187c-1 42 16 67 49 67c32 0 50 -24 50 -65c0 -19 -6 -45 -11 -63l-39 -126h-44z" />
    <glyph glyph-name="quotedblbase" unicode="&#x201e;" horiz-adv-x="291" 
d="M38 -120l-5 187c-1 42 16 67 49 67c32 0 50 -24 50 -65c0 -19 -6 -45 -11 -63l-39 -126h-44zM174 -120l-5 187c-1 42 16 67 49 67c32 0 50 -24 50 -65c0 -19 -6 -45 -11 -63l-39 -126h-44z" />
    <glyph glyph-name="guilsinglleft" unicode="&#x2039;" horiz-adv-x="215" 
d="M90 248l83 -97v-120h-6l-146 219l146 218h6v-120l-83 -98v-2z" />
    <glyph glyph-name="guilsinglright" unicode="&#x203a;" horiz-adv-x="215" 
d="M42 151l83 97v2l-83 98v120h6l147 -218l-147 -219h-6v120z" />
    <glyph glyph-name="guillemotleft" unicode="&#xab;" horiz-adv-x="386" 
d="M90 248l83 -97v-120h-6l-146 219l146 218h6v-120l-83 -98v-2zM261 248l83 -97v-120h-6l-147 219l147 218h6v-120l-83 -98v-2z" />
    <glyph glyph-name="guillemotright" unicode="&#xbb;" horiz-adv-x="386" 
d="M42 151l83 97v2l-83 98v120h6l147 -218l-147 -219h-6v120zM213 151l83 97v2l-83 98v120h6l146 -218l-146 -219h-6v120z" />
    <glyph glyph-name="asterisk" unicode="*" horiz-adv-x="307" 
d="M265 388l-54 -43l-45 111l-11 36h-2l-12 -36l-45 -112l-54 45l78 137l-110 33l18 75l104 -54l-11 170h65l-11 -170l105 54l17 -76l-110 -32z" />
    <glyph glyph-name="dagger" unicode="&#x2020;" horiz-adv-x="327" 
d="M194 0h-61v404h-106v96h106v200h61v-200h106v-96h-106v-404z" />
    <glyph glyph-name="daggerdbl" unicode="&#x2021;" horiz-adv-x="327" 
d="M194 0h-61v162h-106v96h106v146h-106v96h106v200h61v-200h106v-96h-106v-146h106v-96h-106v-162z" />
    <glyph glyph-name="period" unicode="." horiz-adv-x="140" 
d="M21 54c0 41 16 65 49 65c32 0 50 -24 50 -65c0 -42 -18 -66 -50 -66c-33 0 -49 24 -49 66z" />
    <glyph glyph-name="comma" unicode="," horiz-adv-x="140" 
d="M26 -120l-5 187c-2 42 16 67 49 67c32 0 50 -24 50 -65c0 -19 -6 -45 -12 -63l-38 -126h-44z" />
    <glyph glyph-name="colon" unicode=":" horiz-adv-x="140" 
d="M21 54c0 41 16 65 49 65c32 0 50 -24 50 -65c0 -42 -18 -66 -50 -66c-33 0 -49 24 -49 66zM21 370c0 41 16 65 49 65c32 0 50 -24 50 -65c0 -42 -18 -66 -50 -66c-33 0 -49 24 -49 66z" />
    <glyph glyph-name="semicolon" unicode=";" horiz-adv-x="140" 
d="M26 -120l-5 187c-2 42 16 67 49 67c32 0 50 -24 50 -65c0 -19 -6 -45 -12 -63l-38 -126h-44zM21 370c0 41 16 65 49 65c32 0 50 -24 50 -65c0 -42 -18 -66 -50 -66c-33 0 -49 24 -49 66z" />
    <glyph glyph-name="ellipsis" unicode="&#x2026;" horiz-adv-x="450" 
d="M21 54c0 41 16 65 49 65c32 0 50 -24 50 -65c0 -42 -18 -66 -50 -66c-33 0 -49 24 -49 66zM176 54c0 41 16 65 49 65c32 0 50 -24 50 -65c0 -42 -18 -66 -50 -66c-33 0 -49 24 -49 66zM331 54c0 41 16 65 49 65c32 0 50 -24 50 -65c0 -42 -18 -66 -50 -66
c-33 0 -49 24 -49 66z" />
    <glyph glyph-name="exclam" unicode="!" horiz-adv-x="207" 
d="M63 700h82l-12 -518h-58zM54 54c0 41 17 65 50 65c31 0 49 -24 49 -65c0 -42 -18 -66 -49 -66c-33 0 -50 24 -50 66z" />
    <glyph glyph-name="exclamdown" unicode="&#xa1;" horiz-adv-x="207" 
d="M145 -203h-82l12 518h58zM54 444c0 41 17 65 50 65c31 0 49 -24 49 -65c0 -42 -18 -66 -49 -66c-33 0 -50 24 -50 66z" />
    <glyph glyph-name="question" unicode="?" horiz-adv-x="407" 
d="M366 503c0 -101 -46 -173 -130 -189v-132h-62v211h25c68 0 105 42 105 110c0 70 -36 111 -100 111c-67 0 -101 -37 -101 -101v-45h-62v45c0 126 60 199 163 199c102 0 162 -77 162 -209zM205 -12c-32 0 -49 24 -49 66c0 41 17 65 49 65s50 -24 50 -65
c0 -42 -18 -66 -50 -66z" />
    <glyph glyph-name="questiondown" unicode="&#xbf;" horiz-adv-x="407" 
d="M41 -5c0 101 46 173 130 189v132h62v-211h-25c-68 0 -105 -42 -105 -110c0 -70 36 -111 100 -111c67 0 101 37 101 101v45h62v-45c0 -126 -60 -199 -163 -199c-102 0 -162 77 -162 209zM202 510c32 0 49 -24 49 -65c0 -42 -17 -66 -49 -66s-50 24 -50 66
c0 41 18 65 50 65z" />
    <glyph glyph-name="slash" unicode="/" horiz-adv-x="294" 
d="M253 700l-151 -700h-61l150 700h62z" />
    <glyph glyph-name="backslash" unicode="\" horiz-adv-x="294" 
d="M191 0l-150 700h61l151 -700h-62z" />
    <glyph glyph-name="fraction" unicode="&#x2044;" horiz-adv-x="290" 
d="M148 0h-65l308 700h66z" />
    <glyph glyph-name="bar" unicode="|" horiz-adv-x="204" 
d="M71 -250v950h62v-950h-62z" />
    <glyph glyph-name="brokenbar" unicode="&#xa6;" horiz-adv-x="217" 
d="M78 -250v416h61v-416h-61zM78 304v396h61v-396h-61z" />
    <glyph glyph-name="at" unicode="@" horiz-adv-x="640" 
d="M606 250c0 -298 -100 -462 -286 -462c-193 0 -286 164 -286 462s93 462 286 462c187 0 286 -164 286 -462zM90 250c0 -237 74 -374 230 -374c153 0 230 135 230 374c0 237 -79 374 -230 374c-156 0 -230 -137 -230 -374zM319 509c85 0 137 -51 137 -157v-352h-60v72
c-21 -50 -59 -81 -112 -81c-70 0 -113 57 -113 150c0 94 45 149 118 149h107v62c0 48 -28 65 -77 65c-51 0 -78 -17 -78 -65v-12h-60v12c0 103 52 157 138 157zM231 144c0 -41 22 -61 60 -61c64 0 105 28 105 94v30h-100c-42 0 -65 -20 -65 -63z" />
    <glyph glyph-name="ampersand" unicode="&#x26;" horiz-adv-x="449" 
d="M106 509c0 -65 13 -104 91 -104h229v-96h-48v-112c0 -132 -62 -209 -171 -209s-170 77 -170 209c0 75 21 132 68 161c-45 25 -60 78 -60 151c0 136 61 204 162 204c106 0 169 -69 169 -204v-41h-61v41c0 72 -36 108 -108 108c-65 0 -101 -36 -101 -108zM207 85
c72 0 109 36 109 112v112h-119c-70 0 -98 -41 -98 -112c0 -76 39 -112 108 -112z" />
    <glyph glyph-name="section" unicode="&#xa7;" horiz-adv-x="350" 
d="M260 135c0 101 -221 22 -221 215c0 40 15 84 51 112c-32 27 -48 64 -48 102c0 83 41 148 134 148c83 0 135 -53 135 -154v-18h-55v18c0 50 -29 70 -80 70c-64 0 -79 -28 -79 -64c0 -101 216 -21 216 -214c0 -40 -15 -82 -49 -110c35 -28 51 -66 51 -105
c0 -81 -42 -147 -139 -147c-86 0 -140 52 -140 154v18h55v-18c0 -51 30 -70 85 -70c67 0 84 28 84 63zM176 418c-66 0 -83 -30 -83 -68c0 -37 17 -68 83 -68c65 0 82 31 82 68c0 38 -17 68 -82 68z" />
    <glyph glyph-name="paragraph" unicode="&#xb6;" horiz-adv-x="426" 
d="M34 482c0 138 57 218 155 218h184v-951h-62v855h-106v-854h-61v520c-70 22 -110 97 -110 212z" />
    <glyph glyph-name="uni2116" unicode="&#x2116;" horiz-adv-x="746" 
d="M582 278c37 0 58 29 58 83s-21 83 -58 83c-39 0 -58 -29 -58 -83s19 -83 58 -83zM582 202c-70 0 -106 55 -106 159c0 105 36 159 106 159c68 0 107 -54 107 -159c0 -104 -39 -159 -107 -159zM367 700h313v-96h-254v-604h-108l-206 604h-2l3 -104v-500h-59v700h108
l206 -604h2l-3 104v500z" />
    <glyph glyph-name="periodcentered" unicode="&#xb7;" horiz-adv-x="140" 
d="M21 270c0 41 16 65 49 65c32 0 50 -24 50 -65c0 -42 -18 -66 -50 -66c-33 0 -49 24 -49 66z" />
    <glyph glyph-name="bullet" unicode="&#x2022;" horiz-adv-x="600" 
d="M300 -9c-164 0 -250 136 -250 360c0 226 86 359 250 359c157 0 250 -133 250 -359c0 -224 -93 -360 -250 -360z" />
    <glyph glyph-name="minute" unicode="&#x2032;" horiz-adv-x="140" 
d="M83 509h-61l14 206v35h81v-35z" />
    <glyph glyph-name="second" unicode="&#x2033;" horiz-adv-x="271" 
d="M83 509h-61l14 206v35h81v-35zM214 509h-61l14 206v35h81v-35z" />
    <glyph glyph-name="plus" unicode="+" horiz-adv-x="368" 
d="M337 405v-96h-123v-172h-60v172h-123v96h123v171h60v-171h123z" />
    <glyph glyph-name="minus" unicode="&#x2212;" horiz-adv-x="361" 
d="M334 405v-96h-307v96h307z" />
    <glyph glyph-name="plusminus" unicode="&#xb1;" horiz-adv-x="361" 
d="M27 427v96h123v166h61v-166h123v-96h-123v-173h-61v173h-123zM27 194h307v-96h-307v96z" />
    <glyph glyph-name="divide" unicode="&#xf7;" horiz-adv-x="361" 
d="M334 415v-96h-307v96h307zM131 169c0 41 17 66 49 66s50 -25 50 -66s-18 -65 -50 -65s-49 24 -49 65zM131 564c0 41 17 66 49 66s50 -25 50 -66s-18 -65 -50 -65s-49 24 -49 65z" />
    <glyph glyph-name="multiply" unicode="&#xd7;" horiz-adv-x="347" 
d="M131 357l-105 142l58 66l90 -144l88 144l59 -66l-105 -141l105 -143l-58 -67l-90 146l-89 -145l-59 67z" />
    <glyph glyph-name="equal" unicode="=" horiz-adv-x="361" 
d="M334 287v-96h-307v96h307zM334 523v-96h-307v96h307z" />
    <glyph glyph-name="less" unicode="&#x3c;" horiz-adv-x="336" 
d="M14 312v78l269 226h6v-107l-214 -159l214 -161v-106h-6z" />
    <glyph glyph-name="greater" unicode="&#x3e;" horiz-adv-x="336" 
d="M322 390v-78l-269 -229h-6v106l214 161l-214 159v107h6z" />
    <glyph glyph-name="lessequal" unicode="&#x2264;" horiz-adv-x="334" 
d="M14 395v78l269 226h6v-107l-214 -159l214 -160v-107h-6zM14 96h277v-96h-277v96z" />
    <glyph glyph-name="greaterequal" unicode="&#x2265;" horiz-adv-x="334" 
d="M321 474v-78l-270 -229h-6v106l214 161l-214 159v107h6zM44 96h277v-96h-277v96z" />
    <glyph glyph-name="approxequal" unicode="&#x2248;" horiz-adv-x="361" 
d="M247 338c53 0 94 -43 94 -149v-30h-58v27c0 37 -12 56 -33 56c-55 0 -58 -92 -136 -92c-52 0 -94 43 -94 149v30h59v-27c0 -37 10 -56 32 -56c55 0 58 92 136 92zM247 560c53 0 94 -42 94 -148v-30h-58v27c0 37 -12 56 -33 56c-55 0 -58 -92 -136 -92
c-52 0 -94 43 -94 149v30h59v-28c0 -36 10 -55 32 -55c55 0 58 91 136 91z" />
    <glyph glyph-name="dollar" unicode="$" horiz-adv-x="426" 
d="M339 470c0 98 -20 141 -96 146v-218c78 -26 165 -56 165 -200c0 -108 -51 -202 -165 -210v-120h-54v120c-113 7 -165 84 -165 248v18h61v-18c0 -104 24 -146 104 -151v236c-76 26 -158 58 -158 197c0 98 45 188 158 195v109h54v-110c109 -7 158 -87 158 -242v-18h-62v18z
M346 198c0 70 -47 94 -103 113v-226c73 5 103 46 103 113zM92 518c0 -67 44 -91 97 -109v208c-68 -5 -97 -44 -97 -99z" />
    <glyph glyph-name="cent" unicode="&#xa2;" horiz-adv-x="384" 
d="M20 250c0 160 48 250 146 258v142h54v-141c88 -7 140 -77 140 -195v-8h-59v8c0 62 -27 97 -81 101v-330c54 5 81 42 81 111v8h59v-8c0 -123 -52 -198 -140 -205v-141h-54v142c-98 8 -146 98 -146 258zM80 250c0 -109 25 -158 86 -165v330c-61 -7 -86 -57 -86 -165z" />
    <glyph glyph-name="sterling" unicode="&#xa3;" horiz-adv-x="446" 
d="M66 96c38 0 56 26 56 124v52h-41v92h41v147c0 115 40 201 144 201c100 0 145 -74 145 -243v-18h-61v18c0 109 -18 147 -84 147c-59 0 -83 -41 -83 -105v-147h120v-92h-120v-52c0 -54 -9 -96 -28 -124h256v-96h-357v96h12z" />
    <glyph glyph-name="yen" unicode="&#xa5;" horiz-adv-x="407" 
d="M322 700h65l-100 -357h65v-99h-55v-205h-189v205h-53v99h63l-99 357h66l75 -264l21 -92h44l21 92z" />
    <glyph glyph-name="Euro" unicode="&#x20ac;" horiz-adv-x="474" 
d="M246 712c114 0 199 -96 199 -280v-15h-61v15c0 120 -60 184 -138 184c-69 0 -115 -49 -137 -135h172l-21 -96h-164c-1 -11 -1 -23 -1 -35v-25h153l-20 -96h-121c20 -92 67 -145 139 -145c79 0 138 70 138 195v18h63v-18c0 -191 -84 -291 -201 -291
c-109 0 -181 85 -205 241h-40v96h32v25c0 12 0 24 1 35h-33v96h42c25 150 96 231 203 231z" />
    <glyph glyph-name="uni20B4" unicode="&#x20b4;" horiz-adv-x="423" 
d="M40 158c0 25 7 50 24 70h-50v96h391v-96h-221c-59 0 -82 -36 -82 -70c0 -39 33 -74 109 -74s109 35 109 70v13h62v-13c0 -87 -52 -166 -171 -166s-171 79 -171 170zM382 542c0 -24 -7 -48 -23 -67h46v-96h-391v96h224c57 0 82 33 82 67c0 40 -32 74 -109 74
s-109 -35 -109 -70v-13h-62v13c0 87 52 166 171 166s171 -78 171 -170z" />
    <glyph glyph-name="uni20B8" unicode="&#x20b8;" horiz-adv-x="389" 
d="M16 424v96h358v-96h-149v-424h-61v424h-148zM374 604h-358v96h358v-96z" />
    <glyph glyph-name="asciicircum" unicode="^" horiz-adv-x="336" 
d="M313 387v-24h-57l-61 138l-26 73h-2l-26 -73l-61 -138h-57v24l126 313h38z" />
    <glyph glyph-name="acute" unicode="&#xb4;" horiz-adv-x="168" 
d="M32 577l38 173h86l-77 -173h-47z" />
    <glyph glyph-name="grave" unicode="`" horiz-adv-x="162" 
d="M145 577h-47l-84 173h85z" />
    <glyph glyph-name="hungarumlaut" unicode="&#x2dd;" horiz-adv-x="354" 
d="M96 577h-48l26 173h85zM235 577h-48l39 173h85z" />
    <glyph glyph-name="circumflex" unicode="&#x2c6;" horiz-adv-x="316" 
d="M111 577h-90l114 173h43l113 -173h-90l-45 104z" />
    <glyph glyph-name="caron" unicode="&#x2c7;" horiz-adv-x="311" 
d="M200 750h91l-115 -173h-42l-113 173h90l45 -103z" />
    <glyph glyph-name="breve" unicode="&#x2d8;" horiz-adv-x="351" 
d="M176 655c51 0 75 25 75 84v11h60v-11c0 -117 -52 -172 -135 -172c-84 0 -135 55 -135 172v11h59v-11c0 -59 26 -84 76 -84z" />
    <glyph glyph-name="tilde" unicode="&#x2dc;" horiz-adv-x="376" 
d="M121 567c-52 0 -82 42 -77 153l1 30h76l-1 -40c-3 -39 6 -57 20 -57c40 0 39 107 111 107c52 0 85 -42 77 -152l-1 -31h-75l1 41c2 38 -7 56 -21 56c-40 0 -39 -107 -111 -107z" />
    <glyph glyph-name="macron" unicode="&#xaf;" horiz-adv-x="342" 
d="M311 617h-270v92h270v-92z" />
    <glyph glyph-name="dieresis" unicode="&#xa8;" horiz-adv-x="356" 
d="M101 598c-33 0 -52 25 -52 67s19 67 52 67s53 -25 53 -67s-20 -67 -53 -67zM255 598c-33 0 -52 25 -52 67s19 67 52 67s53 -25 53 -67s-21 -67 -53 -67z" />
    <glyph glyph-name="dotaccent" unicode="&#x2d9;" horiz-adv-x="189" 
d="M95 598c-34 0 -52 24 -52 65s18 66 52 66c33 0 52 -25 52 -66s-21 -65 -52 -65z" />
    <glyph glyph-name="ring" unicode="&#x2da;" horiz-adv-x="297" 
d="M149 506c-68 0 -107 55 -107 159c0 105 39 159 107 159c67 0 107 -54 107 -159c0 -104 -40 -159 -107 -159zM149 588c36 0 57 24 57 77s-21 77 -57 77c-37 0 -58 -24 -58 -77s21 -77 58 -77z" />
    <glyph glyph-name="cedilla" unicode="&#xb8;" horiz-adv-x="194" 
d="M92 -93c0 24 -7 37 -31 37h-14v94h51v-59c46 -13 59 -53 59 -96c0 -78 -39 -105 -93 -105c-13 0 -26 1 -41 6v90c9 -3 17 -4 33 -4c25 0 36 8 36 37z" />
    <glyph glyph-name="ogonek" unicode="&#x2db;" horiz-adv-x="192" 
d="M114 39l9 -39c-31 -12 -42 -33 -42 -66c0 -38 14 -51 39 -51c13 0 21 1 30 3v-91c-12 -4 -22 -6 -39 -6c-54 0 -90 36 -90 119c0 68 35 111 93 131z" />
    <glyph glyph-name="copyright" unicode="&#xa9;" horiz-adv-x="641" 
d="M321 -124c152 0 229 135 229 374c0 237 -78 374 -229 374c-156 0 -230 -137 -230 -374s74 -374 230 -374zM321 -212c-194 0 -287 164 -287 462s93 462 287 462c186 0 285 -164 285 -462s-100 -462 -285 -462zM321 416c-74 0 -103 -49 -103 -166c0 -118 29 -166 103 -166
c62 0 92 38 92 112v8h59v-8c0 -129 -56 -205 -151 -205c-108 0 -162 91 -162 259s54 259 162 259c94 0 151 -71 151 -195v-8h-59v8c0 67 -30 102 -92 102z" />
    <glyph glyph-name="uni24C5" unicode="&#x24c5;" horiz-adv-x="640" 
d="M261 148v-148h-60v500h143c85 0 128 -67 128 -176c0 -111 -43 -176 -128 -176h-83zM261 408v-168h83c46 0 68 30 68 84c0 53 -22 84 -68 84h-83zM320 -124c153 0 230 135 230 374c0 237 -79 374 -230 374c-156 0 -230 -137 -230 -374s74 -374 230 -374zM320 -212
c-193 0 -286 164 -286 462s93 462 286 462c187 0 286 -164 286 -462s-100 -462 -286 -462z" />
    <glyph glyph-name="registered" unicode="&#xae;" horiz-adv-x="641" 
d="M606 250c0 -298 -100 -462 -285 -462c-194 0 -287 164 -287 462s93 462 287 462c186 0 285 -164 285 -462zM91 250c0 -237 74 -374 230 -374c152 0 229 135 229 374c0 237 -78 374 -229 374c-156 0 -230 -137 -230 -374zM459 324c0 -73 -21 -124 -63 -146l70 -178h-66
l-62 158h-90v-158h-59v500h144c85 0 126 -67 126 -176zM400 324c0 53 -21 84 -67 84h-85v-168h85c46 0 67 30 67 84z" />
    <glyph glyph-name="trademark" unicode="&#x2122;" horiz-adv-x="560" 
d="M96 618h-74v82h278l75 -184l74 184h78v-351h-52v243l-76 -201h-49l-77 199v-241h-51v269h-75v-269h-51v269z" />
    <glyph glyph-name="degree" unicode="&#xb0;" horiz-adv-x="254" 
d="M127 474c38 0 58 24 58 77s-20 77 -58 77c-39 0 -58 -24 -58 -77s19 -77 58 -77zM127 392c-73 0 -109 55 -109 159c0 105 36 159 109 159c70 0 110 -54 110 -159c0 -104 -40 -159 -110 -159z" />
    <glyph glyph-name="uniF6C3" unicode="&#xf6c3;" horiz-adv-x="163" 
d="M82 781h42l4 -128c2 -39 -16 -64 -46 -64c-31 0 -48 24 -48 63c0 18 5 44 17 67z" />
    <glyph glyph-name="uniF6C9" unicode="&#xf6c9;" horiz-adv-x="194" 
d="M42 780l29 219h99l-76 -219h-52z" />
    <glyph glyph-name="uniF6CA" unicode="&#xf6ca;" horiz-adv-x="409" 
d="M180 780l-139 219h93l71 -148l71 148h92l-139 -219h-49z" />
    <glyph glyph-name="uniF6CB" unicode="&#xf6cb;" horiz-adv-x="409" 
d="M295 821c-34 0 -52 25 -52 68c0 44 18 69 52 69c32 0 52 -25 52 -69c0 -43 -20 -68 -52 -68zM114 821c-33 0 -52 25 -52 68c0 44 19 69 52 69s53 -25 53 -69c0 -43 -20 -68 -53 -68z" />
    <glyph glyph-name="uniF6CE" unicode="&#xf6ce;" horiz-adv-x="194" 
d="M170 780h-52l-84 219h99z" />
    <glyph glyph-name="uniF6CF" unicode="&#xf6cf;" horiz-adv-x="419" 
d="M99 780h-51l39 219h98zM269 780h-53l53 219h98z" />
    <glyph glyph-name="uniF6D0" unicode="&#xf6d0;" horiz-adv-x="408" 
d="M354 841h-300v96h300v-96z" />
    <glyph glyph-name="uni20BD" unicode="&#x20bd;" horiz-adv-x="405" 
d="M373 486c0 -140 -59 -214 -159 -214h-98v-63h217v-96h-217v-113h-62v113h-54v96h54v63h-54v96h54v332h160c100 0 159 -74 159 -214zM311 486c0 80 -34 118 -97 118h-98v-236h98c63 0 97 38 97 118z" />
    <glyph glyph-name="Breve" horiz-adv-x="408" 
d="M204 866c70 0 102 40 102 118v15h61v-15c0 -137 -57 -214 -163 -214c-107 0 -163 77 -163 214v15h61v-15c0 -78 33 -118 102 -118z" />
    <glyph glyph-name="Cedilla" horiz-adv-x="213" 
d="M119 -100c0 23 -7 35 -35 35h-17v112h58v-67c48 -11 57 -55 57 -100c0 -76 -35 -117 -100 -117c-16 0 -32 2 -46 7v96c16 -4 30 -6 44 -6c30 0 39 12 39 40z" />
    <glyph glyph-name="Circumflex" horiz-adv-x="409" 
d="M132 780h-91l139 219h49l139 -219h-91l-72 153z" />
    <glyph glyph-name="Dotaccent" horiz-adv-x="229" 
d="M114 821c-33 0 -52 25 -52 68c0 44 19 69 52 69s53 -25 53 -69c0 -43 -20 -68 -53 -68z" />
    <glyph glyph-name="Ogonek" horiz-adv-x="220" 
d="M156 42l13 -42c-31 -17 -43 -48 -43 -87c0 -38 14 -53 37 -53c15 0 25 2 37 6v-96c-15 -4 -30 -7 -46 -7c-58 0 -91 38 -91 116c0 83 30 135 93 163z" />
    <glyph glyph-name="Tilde" horiz-adv-x="409" 
d="M281 1009c64 0 102 -46 94 -185l-1 -44h-81l1 57c4 52 -9 72 -30 72c-48 0 -49 -139 -135 -139c-64 0 -102 47 -94 185l1 44h81l-1 -57c-4 -52 9 -73 30 -73c48 0 47 140 135 140z" />
    <glyph glyph-name="idotaccent" horiz-adv-x="189" 
d="M115 500v-500h-59v500h59zM86 598c-33 0 -52 24 -52 65s19 66 52 66s52 -25 52 -66s-20 -65 -52 -65z" />
    <glyph glyph-name="undercommaaccent" horiz-adv-x="161" 
d="M79 -258h-41l-5 128c-2 39 16 64 46 64c31 0 48 -24 48 -63c0 -18 -5 -44 -17 -67z" />
    <glyph glyph-name="hyphen.uc" horiz-adv-x="309" 
d="M259 405v-96h-208v96h208z" />
    <glyph glyph-name="endash.uc" horiz-adv-x="369" 
d="M27 305v103h315v-103h-315z" />
    <glyph glyph-name="emdash.uc" horiz-adv-x="491" 
d="M21 305v103h449v-103h-449z" />
    <glyph glyph-name="guillemotleft.uc" horiz-adv-x="386" 
d="M90 348l83 -97v-120h-6l-146 219l146 218h6v-120l-83 -98v-2zM261 348l83 -97v-120h-6l-147 219l147 218h6v-120l-83 -98v-2z" />
    <glyph glyph-name="guillemotright.uc" horiz-adv-x="386" 
d="M42 251l83 97v2l-83 97v121h6l147 -218l-147 -219h-6v120zM213 251l83 97v2l-83 98v120h6l146 -218l-146 -219h-6v120z" />
    <glyph glyph-name="at.uc" horiz-adv-x="639" 
d="M606 350c0 -297 -101 -462 -286 -462c-194 0 -286 165 -286 462c0 298 92 462 286 462c187 0 286 -164 286 -462zM90 350c0 -237 74 -374 230 -374c152 0 230 135 230 374c0 237 -79 374 -230 374c-156 0 -230 -137 -230 -374zM327 609c85 0 137 -51 137 -157v-352h-60
v72c-21 -50 -60 -81 -113 -81c-69 0 -112 57 -112 150c0 94 44 149 117 149h108v62c0 48 -28 65 -77 65c-51 0 -78 -17 -78 -65v-12h-60v12c0 103 52 157 138 157zM239 244c0 -41 21 -61 60 -61c64 0 105 28 105 94v30h-100c-42 0 -65 -20 -65 -63z" />
    <glyph glyph-name="exclamdown.uc" horiz-adv-x="207" 
d="M145 0h-82l12 518h58zM54 647c0 41 17 65 50 65c31 0 49 -24 49 -65c0 -42 -18 -66 -49 -66c-33 0 -50 24 -50 66z" />
    <glyph glyph-name="questiondown.uc" horiz-adv-x="407" 
d="M41 197c0 101 46 173 130 189v132h62v-211h-25c-68 0 -105 -42 -105 -110c0 -70 36 -110 100 -110c67 0 101 36 101 100v45h62v-45c0 -126 -60 -199 -163 -199c-102 0 -162 77 -162 209zM202 712c32 0 49 -24 49 -65c0 -42 -17 -66 -49 -66s-50 24 -50 66
c0 41 18 65 50 65z" />
    <glyph glyph-name="uni0414.bgr" horiz-adv-x="491" 
d="M474 96v-295h-62v199h-333v-199h-62v295h44l133 604h105l133 -604h42zM123 96h244l-89 407l-14 92h-37l-15 -92z" />
    <glyph glyph-name="uni0416.bgr" horiz-adv-x="655" 
d="M527 700h93l-144 -335l160 -365h-70l-135 320h-73v-320h-61v320h-49l-136 -320h-93l161 368l-144 332h69l120 -284h72v284h61v-284h50z" />
    <glyph glyph-name="uni041A.bgr" horiz-adv-x="435" 
d="M55 0v700h62v-291h56l133 291h93l-161 -345l174 -355h-74l-152 313h-69v-313h-62z" />
    <glyph glyph-name="uni041B.bgr" horiz-adv-x="432" 
d="M162 700h107l142 -700h-64l-97 496l-18 106h-35l-17 -106l-98 -496h-62z" />
    <glyph glyph-name="uni0432.bgr" horiz-adv-x="388" 
d="M203 -10c-93 0 -149 72 -149 206v342c0 160 52 222 143 222c89 0 143 -62 143 -222c0 -81 -19 -143 -59 -176c45 -32 71 -96 71 -166c0 -134 -56 -206 -149 -206zM197 666c-56 0 -83 -25 -83 -128v-138h81c66 0 86 50 86 138c0 103 -29 128 -84 128zM292 196
c0 73 -26 120 -80 120h-98v-120c0 -77 32 -112 89 -112c59 0 89 35 89 112z" />
    <glyph glyph-name="uni0433.bgr" horiz-adv-x="352" 
d="M94 144c0 -36 18 -60 82 -60c54 0 81 18 81 72v17h60v-17c0 -104 -51 -165 -141 -165c-99 0 -141 71 -141 153c0 164 218 101 218 214c0 35 -16 58 -78 58c-52 0 -77 -17 -77 -71v-11h-60v11c0 105 47 164 137 164c97 0 137 -72 137 -151c0 -163 -218 -101 -218 -214z
" />
    <glyph glyph-name="uni0434.bgr" horiz-adv-x="405" 
d="M33 250c0 169 49 259 147 259c56 0 92 -28 112 -81v72h59v-559c0 -141 -52 -199 -159 -199s-159 58 -159 199h59c0 -76 33 -106 100 -106c68 0 100 30 100 106v131c-20 -53 -56 -81 -112 -81c-98 0 -147 91 -147 259zM192 84c67 0 100 51 100 141v50
c0 90 -33 141 -100 141c-70 0 -100 -48 -100 -166c0 -117 30 -166 100 -166z" />
    <glyph glyph-name="uni0436.bgr" horiz-adv-x="525" 
d="M106 0h-83l118 260l-111 240h65l88 -200h50v450h59v-450h33l89 200h82l-112 -239l119 -261h-67l-92 208h-52v-208h-59v208h-34z" />
    <glyph glyph-name="uni0437.bgr" horiz-adv-x="349" 
d="M172 416c-70 0 -89 -38 -89 -105v-31h-59v31c0 116 45 198 148 198s148 -81 148 -200c0 -75 -17 -126 -53 -155c39 -32 57 -93 57 -183c0 -139 -46 -231 -152 -231c-105 0 -153 92 -153 231v34h60v-34c0 -83 19 -137 93 -137s93 52 93 137c0 79 -21 138 -93 138h-59v92
h59c73 0 88 41 88 108c0 69 -17 107 -88 107z" />
    <glyph glyph-name="uni0438.bgr" 
d="M284 70c-19 -52 -53 -79 -103 -79c-87 0 -129 66 -129 205v304h59v-304c0 -76 26 -112 82 -112c60 0 91 51 91 141v275h59v-500h-59v70z" />
    <glyph glyph-name="uni0439.bgr" 
d="M284 70c-19 -52 -53 -79 -103 -79c-87 0 -129 66 -129 205v304h59v-304c0 -76 26 -112 82 -112c60 0 91 51 91 141v275h59v-500h-59v70zM122 739c0 -59 26 -84 75 -84c52 0 76 25 76 84v11h60v-11c0 -117 -53 -172 -136 -172s-135 55 -135 172v11h60v-11z" />
    <glyph glyph-name="uni043A.bgr" horiz-adv-x="367" 
d="M113 0h-59v750h59v-449h46l98 199h84l-125 -245l134 -255h-69l-105 209h-63v-209z" />
    <glyph glyph-name="uni043B.bgr" horiz-adv-x="341" 
d="M216 500l116 -500h-59l-67 292l-18 109h-35l-19 -109l-66 -292h-58l116 500h90z" />
    <glyph glyph-name="uni043C.bgr" horiz-adv-x="589" 
d="M114 435c18 49 48 74 93 74c50 0 83 -25 102 -77c20 51 56 77 109 77c81 0 119 -66 119 -205v-304h-59v304c0 77 -21 113 -72 113c-53 0 -80 -51 -80 -142v-275h-60v304c0 77 -20 113 -71 113c-53 0 -81 -51 -81 -142v-275h-59v500h59v-65z" />
    <glyph glyph-name="uni043F.bgr" 
d="M113 431c19 51 53 78 103 78c88 0 129 -64 129 -205v-304h-59v304c0 79 -26 113 -81 113c-60 0 -92 -46 -92 -142v-275h-59v500h59v-69z" />
    <glyph glyph-name="uni0446.bgr" horiz-adv-x="408" 
d="M284 70c-19 -52 -53 -79 -103 -79c-87 0 -129 66 -129 205v304h59v-304c0 -76 26 -112 82 -112c60 0 91 51 91 141v275h59v-408h40v-241h-59v149h-40v70z" />
    <glyph glyph-name="uni0448.bgr" horiz-adv-x="591" 
d="M479 63c-18 -47 -48 -72 -92 -72c-50 0 -84 25 -102 77c-21 -50 -56 -77 -109 -77c-81 0 -119 66 -119 205v304h59v-304c0 -76 21 -113 71 -113c54 0 81 51 81 142v275h59v-304c0 -76 21 -113 72 -113c53 0 80 51 80 142v275h60v-500h-60v63z" />
    <glyph glyph-name="uni0449.bgr" horiz-adv-x="597" 
d="M473 54c-18 -41 -47 -63 -88 -63c-50 0 -84 25 -102 77c-21 -50 -56 -77 -109 -77c-81 0 -119 66 -119 205v304h59v-304c0 -76 21 -113 71 -113c54 0 81 51 81 142v275h59v-304c0 -76 21 -113 72 -113c53 0 80 51 80 142v275h60v-408h36v-241h-59v149h-41v54z" />
    <glyph glyph-name="uni044A.bgr" horiz-adv-x="381" 
d="M144 250v-84c0 -59 24 -83 75 -83c52 0 76 24 76 83c0 54 -22 84 -69 84h-82zM84 408h-78v92h138v-158h82c86 0 129 -65 129 -176c0 -116 -45 -176 -136 -176c-90 0 -135 60 -135 176v242z" />
    <glyph glyph-name="uni044B.bgr" horiz-adv-x="502" 
d="M114 250v-84c0 -59 24 -83 75 -83c52 0 76 24 76 83c0 54 -22 84 -69 84h-82zM54 166v334h60v-158h82c86 0 129 -65 129 -176c0 -116 -45 -176 -136 -176c-90 0 -135 60 -135 176zM448 500v-500h-60v500h60z" />
    <glyph glyph-name="uni044C.bgr" horiz-adv-x="351" 
d="M114 250v-84c0 -59 24 -83 75 -83c52 0 76 24 76 83c0 54 -22 84 -69 84h-82zM54 166v334h60v-158h82c86 0 129 -65 129 -176c0 -116 -45 -176 -136 -176c-90 0 -135 60 -135 176z" />
    <glyph glyph-name="uni044E.bgr" horiz-adv-x="540" 
d="M195 299c9 138 61 210 157 210c106 0 158 -89 158 -259s-52 -259 -158 -259c-98 0 -149 74 -158 216h-80v-207h-60v750h60v-451h81zM253 250c0 -111 31 -166 99 -166c66 0 98 55 98 166s-32 166 -98 166c-68 0 -99 -55 -99 -166z" />
    <glyph glyph-name="uni04C1" unicode="&#x4c1;" horiz-adv-x="655" 
d="M527 700h93l-144 -335l160 -365h-70l-135 320h-73v-320h-61v320h-49l-136 -320h-93l161 368l-144 332h69l120 -284h72v284h61v-284h50zM226 984c0 -78 33 -118 102 -118s101 40 101 118v15h62v-15c0 -137 -57 -214 -163 -214c-107 0 -164 77 -164 214v15h62v-15z" />
    <glyph glyph-name="uni04E2" unicode="&#x4e2;" horiz-adv-x="486" 
d="M321 700h110v-700h-62v500l3 104h-2l-205 -604h-110v700h62v-500l-3 -104h2zM393 841h-300v96h300v-96z" />
    <glyph glyph-name="uni04E6" unicode="&#x4e6;" horiz-adv-x="486" 
d="M386 350c0 165 -49 265 -144 265c-96 0 -144 -100 -144 -265s48 -264 144 -264c95 0 144 99 144 264zM37 350c0 240 74 361 205 361c130 0 204 -121 204 -361c0 -239 -74 -361 -204 -361c-131 0 -205 122 -205 361zM333 821c-33 0 -52 25 -52 68c0 44 19 69 52 69
c32 0 53 -25 53 -69c0 -43 -21 -68 -53 -68zM153 821c-34 0 -52 25 -52 68c0 44 18 69 52 69c32 0 52 -25 52 -69c0 -43 -20 -68 -52 -68z" />
    <glyph glyph-name="uni04EE" unicode="&#x4ee;" horiz-adv-x="399" 
d="M82 700l98 -294l22 -84h2l20 84l83 294h81l-142 -497c-53 -185 -78 -207 -156 -207h-10v99h10c39 0 71 7 96 107l-168 498h64zM353 841h-299v96h299v-96z" />
    <glyph glyph-name="uni04F2" unicode="&#x4f2;" horiz-adv-x="399" 
d="M79 700l98 -294l22 -84h2l20 84l83 294h81l-142 -497c-53 -185 -78 -207 -156 -207h-10v99h10c39 0 71 7 96 107l-168 498h64zM123 780h-52l39 219h99zM292 780h-52l52 219h99z" />
    </font>
</defs>
</svg>
