<?xml version="1.0" standalone="no"?>
<!DOCTYPE svg PUBLIC "-//W3C//DTD SVG 1.1//EN" "http://www.w3.org/Graphics/SVG/1.1/DTD/svg11.dtd" >
<svg xmlns="http://www.w3.org/2000/svg" xmlns:xlink="http://www.w3.org/1999/xlink" version="1.1">
<metadata>
Created by FontForge 20190801 at Wed Nov  6 22:53:20 2019
 By Jimmy Wärting
\(c\) Nikita Kanarev Fonts, 2018
</metadata>
<defs>
<font id="Archaism-Ct1Wd0" horiz-adv-x="206" >
  <font-face 
    font-family="Archaism"
    font-weight="300"
    font-stretch="normal"
    units-per-em="1000"
    panose-1="0 0 0 0 0 0 0 0 0 0"
    ascent="750"
    descent="-250"
    x-height="500"
    cap-height="700"
    bbox="-47 -278 1048 1143"
    underline-thickness="50"
    underline-position="-100"
    stemh="76"
    stemv="38"
    unicode-range="U+000D-FB02"
  />
<missing-glyph horiz-adv-x="1068" 
d="M365 425l-59 -60s-3 -9 -10 -16c-33 -34 -89 -35 -126 -65c20 -27 77 -84 118 -118c24 43 23 104 51 131c2 3 5 4 9 4c7 0 15 -5 20 -8c1 -1 2 -1 4 -1s4 1 5 2l-21 21l59 60zM520 238c-35 36 -45 67 -45 67l-61 60l-49 -50l74 -74c45 -44 108 -88 150 -130
c33 -32 60 -68 68 -90l15 -8l40 40c-9 15 -29 39 -58 69c-57 56 -83 67 -134 116zM757 380l-49 49l-7 -5l50 -50zM572 200c17 13 33 27 121 115l-50 50l-60 -60s-11 -31 -50 -70c14 -15 27 -26 39 -35zM762 349c-7 7 -10 16 -10 16l-60 60l-50 -50l59 -60l-21 -21
c1 -1 3 -2 5 -2c1 0 2 0 3 1c5 3 14 8 21 8c4 0 7 -1 10 -4c27 -27 27 -88 51 -131c40 34 98 91 118 118c-38 30 -93 31 -126 65zM524 161l-39 32c-24 -20 -47 -38 -81 -71c-30 -30 -49 -54 -59 -69l41 -40l14 8c20 48 83 105 124 140zM350 429l-50 -49l6 -6l50 50z
M524 -278l-504 504v19l505 505h19l504 -504v-18l-505 -506h-19z" />
    <glyph glyph-name="fb" unicode="fb" horiz-adv-x="342" 
d="M35 595c0 104 21 155 71 155h92v-300c10 39 26 59 49 59c55 0 76 -81 76 -259s-21 -259 -76 -259c-23 0 -39 20 -49 59v-50h-40v673h-52c-25 0 -31 -27 -31 -78v-95h43v-72h-43v-428h-40v428h-21v72h21v95zM241 436c-28 0 -43 -58 -43 -161v-50c0 -102 15 -161 43 -161
c32 0 41 54 41 186s-9 186 -41 186z" />
    <glyph glyph-name="fh" unicode="fh" horiz-adv-x="336" 
d="M35 595c0 104 21 155 71 155h92v-297c10 37 25 56 47 56c46 0 63 -61 63 -205v-304h-40v304c0 92 -7 133 -32 133s-38 -58 -38 -162v-275h-40v673h-52c-25 0 -31 -27 -31 -78v-95h43v-72h-43v-428h-40v428h-21v72h21v95z" />
    <glyph glyph-name="fj" unicode="fj" horiz-adv-x="226" 
d="M117 760c52 0 81 -62 81 -198v-9h-40v9c0 90 -14 124 -41 124c-28 0 -42 -34 -42 -124v-62h43v-72h-43v-428h-40v428h-21v72h21v62c0 136 29 198 82 198zM141 -257c-45 0 -58 57 -58 178h41c0 -90 6 -106 17 -106s17 16 17 106v579h41v-579c0 -126 -14 -178 -58 -178z
" />
    <glyph glyph-name="fk" unicode="fk" horiz-adv-x="319" 
d="M35 595c0 104 21 155 71 155h92v-459h20l47 209h41l-58 -246l63 -254h-42l-51 219h-20v-219h-40v673h-52c-25 0 -31 -27 -31 -78v-95h43v-72h-43v-428h-40v428h-21v72h21v95z" />
    <glyph glyph-name="ft" unicode="ft" horiz-adv-x="285" 
d="M211 64c14 0 23 15 23 105h40c0 -116 -14 -178 -63 -178c-47 0 -63 52 -63 178v259h-73v-428h-40v428h-21v72h21v95c0 104 21 155 71 155h16v-77h-16c-25 0 -31 -27 -31 -78v-95h73l10 107h31v-107h53v-72h-53v-259c0 -90 9 -105 22 -105z" />
    <glyph glyph-name="fi" unicode="fi" horiz-adv-x="226" 
d="M117 760c52 0 81 -62 81 -198v-9h-40v9c0 90 -14 124 -41 124c-28 0 -42 -34 -42 -124v-62h43v-72h-43v-428h-40v428h-21v72h21v62c0 136 29 198 82 198zM158 500h40v-500h-40v500z" />
    <glyph glyph-name="fl" unicode="fl" horiz-adv-x="226" 
d="M35 595c0 104 21 155 71 155h92v-750h-40v673h-52c-25 0 -31 -27 -31 -78v-95h43v-72h-43v-428h-40v428h-21v72h21v95z" />
    <glyph glyph-name=".notdef" horiz-adv-x="1068" 
d="M365 425l-59 -60s-3 -9 -10 -16c-33 -34 -89 -35 -126 -65c20 -27 77 -84 118 -118c24 43 23 104 51 131c2 3 5 4 9 4c7 0 15 -5 20 -8c1 -1 2 -1 4 -1s4 1 5 2l-21 21l59 60zM520 238c-35 36 -45 67 -45 67l-61 60l-49 -50l74 -74c45 -44 108 -88 150 -130
c33 -32 60 -68 68 -90l15 -8l40 40c-9 15 -29 39 -58 69c-57 56 -83 67 -134 116zM757 380l-49 49l-7 -5l50 -50zM572 200c17 13 33 27 121 115l-50 50l-60 -60s-11 -31 -50 -70c14 -15 27 -26 39 -35zM762 349c-7 7 -10 16 -10 16l-60 60l-50 -50l59 -60l-21 -21
c1 -1 3 -2 5 -2c1 0 2 0 3 1c5 3 14 8 21 8c4 0 7 -1 10 -4c27 -27 27 -88 51 -131c40 34 98 91 118 118c-38 30 -93 31 -126 65zM524 161l-39 32c-24 -20 -47 -38 -81 -71c-30 -30 -49 -54 -59 -69l41 -40l14 8c20 48 83 105 124 140zM350 429l-50 -49l6 -6l50 50z
M524 -278l-504 504v19l505 505h19l504 -504v-18l-505 -506h-19z" />
    <glyph glyph-name="uni0000" horiz-adv-x="0" 
 />
    <glyph glyph-name="uni0000" horiz-adv-x="0" 
 />
    <glyph glyph-name="uni000D" unicode="&#xd;" horiz-adv-x="250" 
 />
    <glyph glyph-name="space" unicode=" " horiz-adv-x="160" 
 />
    <glyph glyph-name="uni2009" unicode="&#x2009;" horiz-adv-x="50" 
 />
    <glyph glyph-name="A" unicode="A" horiz-adv-x="232" 
d="M162 144h-92l-14 -144h-41l71 700h62l71 -700h-43zM77 220h78l-28 280l-10 127h-2l-11 -127z" />
    <glyph glyph-name="Agrave" unicode="&#xc0;" horiz-adv-x="232" 
d="M162 144h-92l-14 -144h-41l71 700h62l71 -700h-43zM77 220h78l-28 280l-10 127h-2l-11 -127zM113 999l19 -219h-35l-35 219h51z" />
    <glyph glyph-name="Aacute" unicode="&#xc1;" horiz-adv-x="232" 
d="M162 144h-92l-14 -144h-41l71 700h62l71 -700h-43zM77 220h78l-28 280l-10 127h-2l-11 -127zM136 780h-35l19 219h51z" />
    <glyph glyph-name="Acircumflex" unicode="&#xc2;" horiz-adv-x="232" 
d="M104 500l-27 -280h77l-27 280l-10 127h-2zM15 0l71 700h62l71 -700h-43l-14 144h-92l-14 -144h-41zM74 780h-42l68 219h33l68 -219h-42l-42 144z" />
    <glyph glyph-name="Atilde" unicode="&#xc3;" horiz-adv-x="232" 
d="M162 144h-92l-14 -144h-41l71 700h62l71 -700h-43zM81 853c26 0 10 156 70 156c34 0 57 -37 57 -163v-66h-40v79c0 48 -5 67 -17 67c-25 0 -10 -156 -70 -156c-34 0 -57 37 -57 164v65h41v-78c0 -49 4 -68 16 -68zM77 220h78l-28 280l-10 127h-2l-11 -127z" />
    <glyph glyph-name="Adieresis" unicode="&#xc4;" horiz-adv-x="232" 
d="M162 144h-92l-14 -144h-41l71 700h62l71 -700h-43zM77 220h78l-28 280l-10 127h-2l-11 -127zM190 889c0 -38 -10 -60 -27 -60c-18 0 -27 22 -27 60s9 60 27 60c17 0 27 -22 27 -60zM96 889c0 -38 -10 -60 -27 -60s-27 22 -27 60s10 60 27 60s27 -22 27 -60z" />
    <glyph glyph-name="Aring" unicode="&#xc5;" horiz-adv-x="232" 
d="M172 837c0 -70 -8 -116 -24 -140l71 -697h-43l-14 144h-92l-14 -144h-41l71 696c-17 23 -25 69 -25 141c0 110 19 159 56 159c35 0 55 -49 55 -159zM77 220h78l-28 280l-10 127h-2l-11 -127zM95 837c0 -67 7 -92 22 -92c13 0 21 25 21 92c0 68 -8 93 -21 93
c-15 0 -22 -25 -22 -93z" />
    <glyph glyph-name="Amacron" unicode="&#x100;" horiz-adv-x="232" 
d="M162 144h-92l-14 -144h-41l71 700h62l71 -700h-43zM77 220h78l-28 280l-10 127h-2l-11 -127zM194 927v-76h-155v76h155z" />
    <glyph glyph-name="Abreve" unicode="&#x102;" horiz-adv-x="232" 
d="M162 144h-92l-14 -144h-41l71 700h62l71 -700h-43zM74 984c0 -93 10 -138 43 -138s42 45 42 138v15h42v-15c0 -138 -22 -214 -84 -214c-63 0 -85 76 -85 214v15h42v-15zM77 220h78l-28 280l-10 127h-2l-11 -127z" />
    <glyph glyph-name="Aogonek" unicode="&#x104;" horiz-adv-x="232" 
d="M166 -125c0 56 7 95 19 125h-9l-14 144h-92l-14 -144h-41l71 700h62l71 -700c-12 -23 -17 -58 -17 -104c0 -44 7 -55 16 -55c7 0 11 2 15 6v-77c-8 -5 -15 -7 -21 -7c-29 0 -46 30 -46 112zM77 220h78l-28 280l-10 127h-2l-11 -127z" />
    <glyph glyph-name="Aringacute" unicode="&#x1fa;" horiz-adv-x="232" 
d="M172 837c0 -70 -8 -116 -24 -140l71 -697h-43l-14 144h-92l-14 -144h-41l71 696c-17 23 -25 69 -25 141c0 96 15 146 43 157l20 149h45l-32 -154c23 -16 35 -65 35 -152zM77 220h78l-28 280l-10 127h-2l-11 -127zM95 837c0 -67 7 -92 22 -92c13 0 21 25 21 92
c0 68 -8 93 -21 93c-15 0 -22 -25 -22 -93z" />
    <glyph glyph-name="B" unicode="B" horiz-adv-x="230" 
d="M203 199c0 -126 -31 -199 -95 -199h-78v700h78c66 0 91 -71 91 -191c0 -76 -12 -129 -40 -152c29 -25 44 -82 44 -158zM161 199c0 76 -18 120 -53 120h-36v-243h36c35 0 53 45 53 123zM157 509c0 71 -11 115 -49 115h-36v-229h36c38 0 49 42 49 114z" />
    <glyph glyph-name="C" unicode="C" horiz-adv-x="246" 
d="M223 417h-42v15c0 131 -19 201 -55 201c-44 0 -62 -106 -62 -283c0 -176 18 -283 62 -283c36 0 55 75 55 213v16h43v-16c0 -200 -37 -289 -98 -289c-70 0 -104 108 -104 359s34 359 104 359c60 0 97 -85 97 -277v-15z" />
    <glyph glyph-name="Ccedilla" unicode="&#xc7;" horiz-adv-x="246" 
d="M126 709c60 0 97 -85 97 -277v-15h-42v15c0 131 -19 201 -55 201c-44 0 -62 -106 -62 -283c0 -176 18 -283 62 -283c36 0 55 75 55 213v16h43v-16c0 -179 -30 -270 -80 -286v-18c17 -14 23 -51 23 -96c0 -81 -19 -117 -46 -117c-7 0 -14 2 -22 7v77c6 -4 11 -6 16 -6
c11 0 16 14 16 51c0 29 -4 42 -15 42h-8v60c-58 18 -86 128 -86 356c0 251 34 359 104 359z" />
    <glyph glyph-name="Cacute" unicode="&#x106;" horiz-adv-x="246" 
d="M223 417h-42v15c0 131 -19 201 -55 201c-44 0 -62 -106 -62 -283c0 -176 18 -283 62 -283c36 0 55 75 55 213v16h43v-16c0 -200 -37 -289 -98 -289c-70 0 -104 108 -104 359s34 359 104 359c60 0 97 -85 97 -277v-15zM111 780l19 219h51l-35 -219h-35z" />
    <glyph glyph-name="Ccircumflex" unicode="&#x108;" horiz-adv-x="246" 
d="M126 709c60 0 97 -85 97 -277v-15h-42v15c0 131 -19 201 -55 201c-44 0 -62 -106 -62 -283c0 -176 18 -283 62 -283c36 0 55 75 55 213v16h43v-16c0 -200 -37 -289 -98 -289c-70 0 -104 108 -104 359s34 359 104 359zM80 780h-42l68 219h33l68 -219h-42l-42 144z" />
    <glyph glyph-name="Cdotaccent" unicode="&#x10a;" horiz-adv-x="246" 
d="M223 417h-42v15c0 131 -19 201 -55 201c-44 0 -62 -106 -62 -283c0 -176 18 -283 62 -283c36 0 55 75 55 213v16h43v-16c0 -200 -37 -289 -98 -289c-70 0 -104 108 -104 359s34 359 104 359c60 0 97 -85 97 -277v-15zM122 829c-17 0 -27 22 -27 60s10 60 27 60
s27 -22 27 -60s-10 -60 -27 -60z" />
    <glyph glyph-name="Ccaron" unicode="&#x10c;" horiz-adv-x="246" 
d="M126 709c60 0 97 -85 97 -277v-15h-42v15c0 131 -19 201 -55 201c-44 0 -62 -106 -62 -283c0 -176 18 -283 62 -283c36 0 55 75 55 213v16h43v-16c0 -200 -37 -289 -98 -289c-70 0 -104 108 -104 359s34 359 104 359zM106 780l-68 219h42l43 -144l42 144h42l-68 -219h-33
z" />
    <glyph glyph-name="D" unicode="D" horiz-adv-x="246" 
d="M30 700h77c87 0 117 -125 117 -350s-30 -350 -117 -350h-77v700zM107 624h-35v-548h35c55 0 75 103 75 274s-20 274 -75 274z" />
    <glyph glyph-name="Dcaron" unicode="&#x10e;" horiz-adv-x="246" 
d="M224 350c0 -225 -30 -350 -117 -350h-77v700h77c87 0 117 -125 117 -350zM182 350c0 171 -20 274 -75 274h-35v-548h35c55 0 75 103 75 274zM102 780l-68 219h42l43 -144l42 144h42l-68 -219h-33z" />
    <glyph glyph-name="E" unicode="E" 
d="M30 0v700h154v-76h-112v-230h106v-76h-106v-242h112v-76h-154z" />
    <glyph glyph-name="Egrave" unicode="&#xc8;" horiz-adv-x="202" 
d="M30 0v700h154v-76h-112v-230h106v-76h-106v-242h112v-76h-154zM123 780h-35l-35 219h51z" />
    <glyph glyph-name="Eacute" unicode="&#xc9;" horiz-adv-x="202" 
d="M30 0v700h154v-76h-112v-230h106v-76h-106v-242h112v-76h-154zM88 780l19 219h51l-35 -219h-35z" />
    <glyph glyph-name="Ecircumflex" unicode="&#xca;" horiz-adv-x="202" 
d="M184 0h-154v700h154v-76h-112v-230h106v-76h-106v-242h112v-76zM63 780h-42l68 219h33l68 -219h-42l-42 144z" />
    <glyph glyph-name="Edieresis" unicode="&#xcb;" horiz-adv-x="202" 
d="M30 0v700h154v-76h-112v-230h106v-76h-106v-242h112v-76h-154zM153 829c-18 0 -27 22 -27 60s9 60 27 60c17 0 27 -22 27 -60s-10 -60 -27 -60zM59 829c-17 0 -27 22 -27 60s10 60 27 60s27 -22 27 -60s-10 -60 -27 -60z" />
    <glyph glyph-name="Emacron" unicode="&#x112;" horiz-adv-x="202" 
d="M30 0v700h154v-76h-112v-230h106v-76h-106v-242h112v-76h-154zM183 851h-155v76h155v-76z" />
    <glyph glyph-name="Ebreve" unicode="&#x114;" horiz-adv-x="202" 
d="M30 0v700h154v-76h-112v-230h106v-76h-106v-242h112v-76h-154zM106 846c33 0 42 45 42 138v15h42v-15c0 -138 -22 -214 -84 -214c-63 0 -85 76 -85 214v15h42v-15c0 -93 10 -138 43 -138z" />
    <glyph glyph-name="Edotaccent" unicode="&#x116;" horiz-adv-x="202" 
d="M30 0v700h154v-76h-112v-230h106v-76h-106v-242h112v-76h-154zM105 829c-17 0 -27 22 -27 60s10 60 27 60s27 -22 27 -60s-10 -60 -27 -60z" />
    <glyph glyph-name="Eogonek" unicode="&#x118;" horiz-adv-x="202" 
d="M131 -125c0 56 7 95 19 125h-120v700h154v-76h-112v-230h106v-76h-106v-242h112v-76c-12 -23 -17 -58 -17 -104c0 -44 7 -55 16 -55c7 0 11 2 15 6v-77c-8 -5 -15 -7 -21 -7c-29 0 -46 30 -46 112z" />
    <glyph glyph-name="Ecaron" unicode="&#x11a;" horiz-adv-x="202" 
d="M184 0h-154v700h154v-76h-112v-230h106v-76h-106v-242h112v-76zM89 780l-68 219h42l43 -144l42 144h42l-68 -219h-33z" />
    <glyph glyph-name="F" unicode="F" horiz-adv-x="196" 
d="M72 0h-42v700h154v-76h-112v-230h106v-76h-106v-318z" />
    <glyph glyph-name="G" unicode="G" horiz-adv-x="250" 
d="M126 67c37 0 56 60 56 172v8h-61v76h103v-323h-42v57c-13 -45 -32 -66 -56 -66c-70 0 -104 118 -104 359c0 251 34 359 104 359c60 0 97 -85 97 -277v-15h-42v15c0 131 -19 201 -55 201c-44 0 -62 -106 -62 -283c0 -176 18 -283 62 -283z" />
    <glyph glyph-name="Gcircumflex" unicode="&#x11c;" horiz-adv-x="250" 
d="M126 67c37 0 56 60 56 172v8h-61v76h103v-323h-42v57c-13 -45 -32 -66 -56 -66c-70 0 -104 118 -104 359c0 251 34 359 104 359c60 0 97 -85 97 -277v-15h-42v15c0 131 -19 201 -55 201c-44 0 -62 -106 -62 -283c0 -176 18 -283 62 -283zM79 780h-42l68 219h33l68 -219
h-42l-42 144z" />
    <glyph glyph-name="Gbreve" unicode="&#x11e;" horiz-adv-x="250" 
d="M126 67c37 0 56 60 56 172v8h-61v76h103v-323h-42v57c-13 -45 -32 -66 -56 -66c-70 0 -104 118 -104 359c0 251 34 359 104 359c60 0 97 -85 97 -277v-15h-42v15c0 131 -19 201 -55 201c-44 0 -62 -106 -62 -283c0 -176 18 -283 62 -283zM79 984c0 -93 10 -138 43 -138
s42 45 42 138v15h42v-15c0 -138 -22 -214 -84 -214c-63 0 -85 76 -85 214v15h42v-15z" />
    <glyph glyph-name="Gdotaccent" unicode="&#x120;" horiz-adv-x="250" 
d="M126 67c37 0 56 60 56 172v8h-61v76h103v-323h-42v57c-13 -45 -32 -66 -56 -66c-70 0 -104 118 -104 359c0 251 34 359 104 359c60 0 97 -85 97 -277v-15h-42v15c0 131 -19 201 -55 201c-44 0 -62 -106 -62 -283c0 -176 18 -283 62 -283zM148 889c0 -38 -10 -60 -27 -60
s-27 22 -27 60s10 60 27 60s27 -22 27 -60z" />
    <glyph glyph-name="uni0122" unicode="&#x122;" horiz-adv-x="250" 
d="M126 67c37 0 56 60 56 172v8h-61v76h103v-323h-42v57c-13 -45 -32 -66 -56 -66c-70 0 -104 118 -104 359c0 251 34 359 104 359c60 0 97 -85 97 -277v-15h-42v15c0 131 -19 201 -55 201c-44 0 -62 -106 -62 -283c0 -176 18 -283 62 -283zM158 -115c0 -19 -5 -47 -10 -69
l-16 -68h-25v137c0 35 9 56 25 56c17 0 26 -21 26 -56z" />
    <glyph glyph-name="H" unicode="H" horiz-adv-x="246" 
d="M216 0h-42v319h-102v-319h-42v700h42v-305h102v305h42v-700z" />
    <glyph glyph-name="Hcircumflex" unicode="&#x124;" horiz-adv-x="244" 
d="M216 700v-700h-42v319h-102v-319h-42v700h42v-305h102v305h42zM79 780h-42l68 219h33l68 -219h-42l-42 144z" />
    <glyph glyph-name="I" unicode="I" horiz-adv-x="130" 
d="M28 0v76h16v548h-16v76h74v-76h-16v-548h16v-76h-74z" />
    <glyph glyph-name="Igrave" unicode="&#xcc;" horiz-adv-x="128" 
d="M28 0v76h16v548h-16v76h74v-76h-16v-548h16v-76h-74zM79 780h-35l-35 219h51z" />
    <glyph glyph-name="Iacute" unicode="&#xcd;" horiz-adv-x="128" 
d="M28 0v76h16v548h-16v76h74v-76h-16v-548h16v-76h-74zM43 780l19 219h51l-35 -219h-35z" />
    <glyph glyph-name="Icircumflex" unicode="&#xce;" horiz-adv-x="128" 
d="M102 0h-74v76h16v548h-16v76h74v-76h-16v-548h16v-76zM29 780h-40l59 219h33l58 -219h-40l-34 148z" />
    <glyph glyph-name="Idieresis" unicode="&#xcf;" horiz-adv-x="128" 
d="M28 0v76h16v548h-16v76h74v-76h-16v-548h16v-76h-74zM106 829c-18 0 -27 22 -27 60s9 60 27 60c17 0 27 -22 27 -60s-10 -60 -27 -60zM22 829c-17 0 -27 22 -27 60s10 60 27 60s27 -22 27 -60s-10 -60 -27 -60z" />
    <glyph glyph-name="Itilde" unicode="&#x128;" horiz-adv-x="128" 
d="M28 0v76h16v548h-16v76h74v-76h-16v-548h16v-76h-74zM98 1009c34 0 57 -37 57 -163v-66h-40v79c0 48 -5 67 -17 67c-25 0 -10 -156 -70 -156c-35 0 -57 37 -57 164v65h41v-78c0 -49 4 -68 16 -68c26 0 10 156 70 156z" />
    <glyph glyph-name="Imacron" unicode="&#x12a;" horiz-adv-x="128" 
d="M28 0v76h16v548h-16v76h74v-76h-16v-548h16v-76h-74zM141 851h-155v76h155v-76z" />
    <glyph glyph-name="Ibreve" unicode="&#x12c;" horiz-adv-x="128" 
d="M28 0v76h16v548h-16v76h74v-76h-16v-548h16v-76h-74zM64 846c33 0 42 45 42 138v15h42v-15c0 -138 -22 -214 -84 -214c-63 0 -85 76 -85 214v15h42v-15c0 -93 10 -138 43 -138z" />
    <glyph glyph-name="Iogonek" unicode="&#x12e;" horiz-adv-x="128" 
d="M49 -125c0 56 7 95 19 125h-40v76h16v548h-16v76h74v-76h-16v-548h16v-76c-12 -23 -17 -58 -17 -104c0 -44 7 -55 16 -55c7 0 11 2 15 6v-77c-8 -5 -15 -7 -21 -7c-29 0 -46 30 -46 112z" />
    <glyph glyph-name="Idotaccent" unicode="&#x130;" horiz-adv-x="134" 
d="M31 0v76h16v548h-16v76h74v-76h-16v-548h16v-76h-74zM66 829c-17 0 -27 22 -27 60s10 60 27 60s27 -22 27 -60s-10 -60 -27 -60z" />
    <glyph glyph-name="J" unicode="J" horiz-adv-x="211" 
d="M58 253v-23c0 -113 7 -163 41 -163s40 49 40 163v470h42v-470c0 -160 -16 -239 -82 -239s-83 78 -83 239v23h42z" />
    <glyph glyph-name="Jcircumflex" unicode="&#x134;" horiz-adv-x="213" 
d="M101 -9c-66 0 -83 78 -83 239v23h42v-23c0 -113 7 -163 41 -163s40 49 40 163v470h42v-470c0 -160 -16 -239 -82 -239zM57 780h-42l68 219h33l68 -219h-42l-42 144z" />
    <glyph glyph-name="K" unicode="K" horiz-adv-x="227" 
d="M30 0v700h42v-304h24l69 304h42l-77 -342l85 -358h-44l-75 320h-24v-320h-42z" />
    <glyph glyph-name="uni0136" unicode="&#x136;" horiz-adv-x="227" 
d="M30 0v700h42v-304h24l69 304h42l-77 -342l85 -358h-44l-75 320h-24v-320h-42zM147 -115c0 -19 -5 -47 -10 -69l-16 -68h-25v137c0 35 9 56 25 56c17 0 26 -21 26 -56z" />
    <glyph glyph-name="L" unicode="L" horiz-adv-x="194" 
d="M182 76v-76h-152v700h42v-624h110z" />
    <glyph glyph-name="Lacute" unicode="&#x139;" horiz-adv-x="194" 
d="M182 76v-76h-152v700h42v-624h110zM37 780l19 219h51l-35 -219h-35z" />
    <glyph glyph-name="uni013B" unicode="&#x13b;" horiz-adv-x="194" 
d="M182 76v-76h-152v700h42v-624h110zM105 -253h-25v137c0 35 9 56 25 56c17 0 26 -21 26 -56c0 -19 -5 -47 -10 -69z" />
    <glyph glyph-name="Lcaron" unicode="&#x13d;" horiz-adv-x="194" 
d="M182 76v-76h-152v700h42v-624h110zM147 575h-25v136c0 35 9 56 25 56s25 -21 25 -56c0 -19 -4 -46 -9 -69z" />
    <glyph glyph-name="M" unicode="M" horiz-adv-x="310" 
d="M280 700v-700h-42v500l2 95l-60 -465h-51l-60 461l2 -91v-500h-41v700h63l61 -482h2l61 482h63z" />
    <glyph glyph-name="N" unicode="N" horiz-adv-x="253" 
d="M156 0l-87 624h-2l4 -124v-500h-41v700h67l88 -624h2l-4 124v500h40v-700h-67z" />
    <glyph glyph-name="Ntilde" unicode="&#xd1;" horiz-adv-x="251" 
d="M156 0l-87 624h-2l4 -124v-500h-41v700h67l88 -624h2l-4 124v500h40v-700h-67zM159 1009c34 0 57 -37 57 -163v-66h-40v79c0 48 -5 67 -17 67c-25 0 -10 -156 -70 -156c-34 0 -57 37 -57 164v65h41v-78c0 -49 4 -68 16 -68c26 0 10 156 70 156z" />
    <glyph glyph-name="Nacute" unicode="&#x143;" horiz-adv-x="251" 
d="M156 0l-87 624h-2l4 -124v-500h-41v700h67l88 -624h2l-4 124v500h40v-700h-67zM89 780l19 219h51l-35 -219h-35z" />
    <glyph glyph-name="uni0145" unicode="&#x145;" horiz-adv-x="251" 
d="M156 0l-87 624h-2l4 -124v-500h-41v700h67l88 -624h2l-4 124v500h40v-700h-67zM121 -253h-25v137c0 35 9 56 25 56c17 0 26 -21 26 -56c0 -19 -5 -47 -10 -69z" />
    <glyph glyph-name="Ncaron" unicode="&#x147;" horiz-adv-x="251" 
d="M71 0h-41v700h67l88 -624h2l-4 124v500h40v-700h-67l-87 624h-2l4 -124v-500zM108 780l-68 219h42l43 -144l42 144h42l-68 -219h-33z" />
    <glyph glyph-name="O" unicode="O" horiz-adv-x="252" 
d="M188 350c0 177 -17 283 -62 283c-44 0 -62 -106 -62 -283c0 -176 18 -283 62 -283c45 0 62 107 62 283zM22 350c0 251 34 359 104 359c71 0 104 -108 104 -359s-33 -359 -104 -359c-70 0 -104 108 -104 359z" />
    <glyph glyph-name="Ograve" unicode="&#xd2;" horiz-adv-x="252" 
d="M188 350c0 177 -17 283 -62 283c-44 0 -62 -106 -62 -283c0 -176 18 -283 62 -283c45 0 62 107 62 283zM22 350c0 251 34 359 104 359c71 0 104 -108 104 -359s-33 -359 -104 -359c-70 0 -104 108 -104 359zM144 780h-35l-35 219h51z" />
    <glyph glyph-name="Oacute" unicode="&#xd3;" horiz-adv-x="252" 
d="M188 350c0 177 -17 283 -62 283c-44 0 -62 -106 -62 -283c0 -176 18 -283 62 -283c45 0 62 107 62 283zM22 350c0 251 34 359 104 359c71 0 104 -108 104 -359s-33 -359 -104 -359c-70 0 -104 108 -104 359zM112 780l19 219h51l-35 -219h-35z" />
    <glyph glyph-name="Ocircumflex" unicode="&#xd4;" horiz-adv-x="252" 
d="M126 -9c-70 0 -104 108 -104 359s34 359 104 359c71 0 104 -108 104 -359s-33 -359 -104 -359zM126 67c45 0 62 107 62 283c0 177 -17 283 -62 283c-44 0 -62 -106 -62 -283c0 -176 18 -283 62 -283zM83 780h-42l68 219h33l68 -219h-42l-42 144z" />
    <glyph glyph-name="Otilde" unicode="&#xd5;" horiz-adv-x="252" 
d="M188 350c0 177 -17 283 -62 283c-44 0 -62 -106 -62 -283c0 -176 18 -283 62 -283c45 0 62 107 62 283zM22 350c0 251 34 359 104 359c71 0 104 -108 104 -359s-33 -359 -104 -359c-70 0 -104 108 -104 359zM159 1009c34 0 57 -37 57 -163v-66h-40v79c0 48 -5 67 -17 67
c-25 0 -10 -156 -70 -156c-34 0 -57 37 -57 164v65h41v-78c0 -49 4 -68 16 -68c26 0 10 156 70 156z" />
    <glyph glyph-name="Odieresis" unicode="&#xd6;" horiz-adv-x="252" 
d="M188 350c0 177 -17 283 -62 283c-44 0 -62 -106 -62 -283c0 -176 18 -283 62 -283c45 0 62 107 62 283zM22 350c0 251 34 359 104 359c71 0 104 -108 104 -359s-33 -359 -104 -359c-70 0 -104 108 -104 359zM172 829c-18 0 -27 22 -27 60s9 60 27 60c17 0 27 -22 27 -60
s-10 -60 -27 -60zM78 829c-17 0 -27 22 -27 60s10 60 27 60s27 -22 27 -60s-10 -60 -27 -60z" />
    <glyph glyph-name="Omacron" unicode="&#x14c;" horiz-adv-x="252" 
d="M188 350c0 177 -17 283 -62 283c-44 0 -62 -106 -62 -283c0 -176 18 -283 62 -283c45 0 62 107 62 283zM22 350c0 251 34 359 104 359c71 0 104 -108 104 -359s-33 -359 -104 -359c-70 0 -104 108 -104 359zM203 851h-155v76h155v-76z" />
    <glyph glyph-name="Obreve" unicode="&#x14e;" horiz-adv-x="252" 
d="M188 350c0 177 -17 283 -62 283c-44 0 -62 -106 -62 -283c0 -176 18 -283 62 -283c45 0 62 107 62 283zM22 350c0 251 34 359 104 359c71 0 104 -108 104 -359s-33 -359 -104 -359c-70 0 -104 108 -104 359zM126 846c33 0 42 45 42 138v15h42v-15
c0 -138 -22 -214 -84 -214c-63 0 -85 76 -85 214v15h42v-15c0 -93 10 -138 43 -138z" />
    <glyph glyph-name="Ohungarumlaut" unicode="&#x150;" horiz-adv-x="253" 
d="M188 350c0 177 -17 283 -62 283c-44 0 -62 -106 -62 -283c0 -176 18 -283 62 -283c45 0 62 107 62 283zM22 350c0 251 34 359 104 359c71 0 104 -108 104 -359s-33 -359 -104 -359c-70 0 -104 108 -104 359zM96 780h-35l20 219h51zM184 780h-36l27 219h51z" />
    <glyph glyph-name="P" unicode="P" horiz-adv-x="213" 
d="M106 624h-34v-276h34c31 0 47 41 47 138c0 98 -16 138 -47 138zM30 700h76c57 0 89 -69 89 -214s-32 -214 -89 -214h-34v-272h-42v700z" />
    <glyph glyph-name="Q" unicode="Q" horiz-adv-x="268" 
d="M129 -12c-73 0 -107 124 -107 362s34 362 107 362s107 -124 107 -362c0 -147 -13 -240 -42 -286h52v-76h-117zM129 64c47 0 65 108 65 286s-18 286 -65 286s-65 -108 -65 -286s18 -286 65 -286z" />
    <glyph glyph-name="R" unicode="R" horiz-adv-x="233" 
d="M202 486c0 -102 -18 -172 -52 -200l55 -286h-41l-52 272h-40v-272h-42v700h83c57 0 89 -79 89 -214zM160 486c0 88 -16 138 -47 138h-41v-276h41c31 0 47 51 47 138z" />
    <glyph glyph-name="Racute" unicode="&#x154;" horiz-adv-x="233" 
d="M202 486c0 -102 -18 -172 -52 -200l55 -286h-41l-52 272h-40v-272h-42v700h83c57 0 89 -79 89 -214zM160 486c0 88 -16 138 -47 138h-41v-276h41c31 0 47 51 47 138zM117 780h-35l19 219h51z" />
    <glyph glyph-name="uni0156" unicode="&#x156;" horiz-adv-x="233" 
d="M202 486c0 -102 -18 -172 -52 -200l55 -286h-41l-52 272h-40v-272h-42v700h83c57 0 89 -79 89 -214zM160 486c0 88 -16 138 -47 138h-41v-276h41c31 0 47 51 47 138zM144 -115c0 -19 -5 -47 -10 -69l-16 -68h-25v137c0 35 9 56 25 56c17 0 26 -21 26 -56z" />
    <glyph glyph-name="Rcaron" unicode="&#x158;" horiz-adv-x="233" 
d="M202 486c0 -102 -18 -172 -52 -200l55 -286h-41l-52 272h-40v-272h-42v700h83c57 0 89 -79 89 -214zM160 486c0 88 -16 138 -47 138h-41v-276h41c31 0 47 51 47 138zM101 780l-68 219h42l43 -144l42 144h42l-68 -219h-33z" />
    <glyph glyph-name="S" unicode="S" horiz-adv-x="233" 
d="M209 188c1 -111 -25 -197 -93 -197s-92 71 -92 245v18h42v-18c0 -127 11 -169 50 -169c36 0 51 46 51 121c0 172 -140 143 -140 340c0 96 21 181 89 181s89 -78 89 -239v-18h-42v18c0 120 -10 163 -47 163c-33 0 -47 -44 -47 -105c0 -172 140 -142 140 -340z" />
    <glyph glyph-name="Sacute" unicode="&#x15a;" horiz-adv-x="233" 
d="M209 188c1 -111 -25 -197 -93 -197s-92 71 -92 245v18h42v-18c0 -127 11 -169 50 -169c36 0 51 46 51 121c0 172 -140 143 -140 340c0 96 21 181 89 181s89 -78 89 -239v-18h-42v18c0 120 -10 163 -47 163c-33 0 -47 -44 -47 -105c0 -172 140 -142 140 -340zM94 780
l19 219h51l-35 -219h-35z" />
    <glyph glyph-name="Scircumflex" unicode="&#x15c;" horiz-adv-x="233" 
d="M69 528c0 -172 140 -142 140 -340c1 -111 -25 -197 -93 -197s-92 71 -92 245v18h42v-18c0 -127 11 -169 50 -169c36 0 51 46 51 121c0 172 -140 143 -140 340c0 96 21 181 89 181s89 -78 89 -239v-18h-42v18c0 120 -10 163 -47 163c-33 0 -47 -44 -47 -105zM69 780h-42
l68 219h33l68 -219h-42l-42 144z" />
    <glyph glyph-name="Scedilla" unicode="&#x15e;" horiz-adv-x="233" 
d="M69 528c0 -172 140 -142 140 -340c1 -100 -20 -180 -74 -195v-16c18 -13 23 -51 23 -97c0 -81 -19 -117 -46 -117c-7 0 -14 2 -22 7v77c6 -4 11 -6 16 -6c11 0 16 14 16 51c0 29 -3 42 -14 42h-9v59c-55 11 -75 84 -75 243v18h42v-18c0 -127 11 -169 50 -169
c36 0 51 46 51 121c0 172 -140 143 -140 340c0 96 21 181 89 181s89 -78 89 -239v-18h-42v18c0 120 -10 163 -47 163c-33 0 -47 -44 -47 -105z" />
    <glyph glyph-name="Scaron" unicode="&#x160;" horiz-adv-x="233" 
d="M69 528c0 -172 140 -142 140 -340c1 -111 -25 -197 -93 -197s-92 71 -92 245v18h42v-18c0 -127 11 -169 50 -169c36 0 51 46 51 121c0 172 -140 143 -140 340c0 96 21 181 89 181s89 -78 89 -239v-18h-42v18c0 120 -10 163 -47 163c-33 0 -47 -44 -47 -105zM95 780
l-68 219h42l43 -144l42 144h42l-68 -219h-33z" />
    <glyph glyph-name="uni0218" unicode="&#x218;" horiz-adv-x="233" 
d="M209 188c1 -111 -25 -197 -93 -197s-92 71 -92 245v18h42v-18c0 -127 11 -169 50 -169c36 0 51 46 51 121c0 172 -140 143 -140 340c0 96 21 181 89 181s89 -78 89 -239v-18h-42v18c0 120 -10 163 -47 163c-33 0 -47 -44 -47 -105c0 -172 140 -142 140 -340zM112 -252
h-25v137c0 35 9 56 25 56c17 0 26 -21 26 -56c0 -19 -5 -47 -10 -69z" />
    <glyph glyph-name="T" unicode="T" 
d="M10 624v76h186v-76h-72v-624h-42v624h-72z" />
    <glyph glyph-name="uni0162" unicode="&#x162;" 
d="M10 624v76h186v-76h-72v-624h-42v624h-72zM102 -253h-25v137c0 35 9 56 25 56c17 0 26 -21 26 -56c0 -19 -5 -47 -10 -69z" />
    <glyph glyph-name="Tcaron" unicode="&#x164;" 
d="M82 624h-72v76h186v-76h-72v-624h-42v624zM85 780l-68 219h42l43 -144l42 144h42l-68 -219h-33z" />
    <glyph glyph-name="U" unicode="U" horiz-adv-x="245" 
d="M215 700v-403c0 -211 -24 -306 -92 -306c-69 0 -93 94 -93 306v403h42v-403c0 -160 13 -230 51 -230c37 0 50 70 50 230v403h42z" />
    <glyph glyph-name="Ugrave" unicode="&#xd9;" horiz-adv-x="242" 
d="M215 700v-403c0 -211 -24 -306 -92 -306c-69 0 -93 94 -93 306v403h42v-403c0 -160 13 -230 51 -230c37 0 50 70 50 230v403h42zM154 780h-35l-35 219h51z" />
    <glyph glyph-name="Uacute" unicode="&#xda;" horiz-adv-x="242" 
d="M215 700v-403c0 -211 -24 -306 -92 -306c-69 0 -93 94 -93 306v403h42v-403c0 -160 13 -230 51 -230c37 0 50 70 50 230v403h42zM105 780l19 219h51l-35 -219h-35z" />
    <glyph glyph-name="Ucircumflex" unicode="&#xdb;" horiz-adv-x="242" 
d="M123 67c37 0 50 70 50 230v403h42v-403c0 -211 -24 -306 -92 -306c-69 0 -93 94 -93 306v403h42v-403c0 -160 13 -230 51 -230zM77 780h-42l68 219h33l68 -219h-42l-42 144z" />
    <glyph glyph-name="Udieresis" unicode="&#xdc;" horiz-adv-x="242" 
d="M215 700v-403c0 -211 -24 -306 -92 -306c-69 0 -93 94 -93 306v403h42v-403c0 -160 13 -230 51 -230c37 0 50 70 50 230v403h42zM166 829c-18 0 -27 22 -27 60s9 60 27 60c17 0 27 -22 27 -60s-10 -60 -27 -60zM72 829c-17 0 -27 22 -27 60s10 60 27 60s27 -22 27 -60
s-10 -60 -27 -60z" />
    <glyph glyph-name="Utilde" unicode="&#x168;" horiz-adv-x="242" 
d="M215 700v-403c0 -211 -24 -306 -92 -306c-69 0 -93 94 -93 306v403h42v-403c0 -160 13 -230 51 -230c37 0 50 70 50 230v403h42zM156 1009c34 0 57 -37 57 -163v-66h-41v79c0 48 -4 67 -16 67c-26 0 -11 -156 -71 -156c-34 0 -56 37 -56 164v65h40v-78
c0 -49 5 -68 16 -68c26 0 10 156 71 156z" />
    <glyph glyph-name="Umacron" unicode="&#x16a;" horiz-adv-x="242" 
d="M215 700v-403c0 -211 -24 -306 -92 -306c-69 0 -93 94 -93 306v403h42v-403c0 -160 13 -230 51 -230c37 0 50 70 50 230v403h42zM197 851h-155v76h155v-76z" />
    <glyph glyph-name="Ubreve" unicode="&#x16c;" horiz-adv-x="242" 
d="M215 700v-403c0 -211 -24 -306 -92 -306c-69 0 -93 94 -93 306v403h42v-403c0 -160 13 -230 51 -230c37 0 50 70 50 230v403h42zM120 846c33 0 42 45 42 138v15h42v-15c0 -138 -22 -214 -84 -214c-63 0 -85 76 -85 214v15h42v-15c0 -93 10 -138 43 -138z" />
    <glyph glyph-name="Uring" unicode="&#x16e;" horiz-adv-x="242" 
d="M215 700v-403c0 -211 -24 -306 -92 -306c-69 0 -93 94 -93 306v403h42v-403c0 -160 13 -230 51 -230c37 0 50 70 50 230v403h42zM120 706c-37 0 -56 50 -56 159c0 110 19 159 56 159c35 0 55 -49 55 -159c0 -109 -20 -159 -55 -159zM120 773c13 0 21 25 21 92
c0 68 -8 93 -21 93c-15 0 -22 -25 -22 -93c0 -67 7 -92 22 -92z" />
    <glyph glyph-name="Uhungarumlaut" unicode="&#x170;" horiz-adv-x="242" 
d="M215 700v-403c0 -211 -24 -306 -92 -306c-69 0 -93 94 -93 306v403h42v-403c0 -160 13 -230 51 -230c37 0 50 70 50 230v403h42zM84 780h-35l20 219h51zM172 780h-36l27 219h51z" />
    <glyph glyph-name="Uogonek" unicode="&#x172;" horiz-adv-x="242" 
d="M89 -125c0 51 7 87 19 115c-58 14 -78 112 -78 307v403h42v-403c0 -162 13 -233 51 -233c37 0 50 71 50 233v403h42v-403c0 -186 -19 -284 -70 -305c-11 -5 -20 -54 -20 -96c0 -44 7 -55 16 -55c7 0 11 2 15 6v-77c-8 -5 -15 -7 -21 -7c-29 0 -46 30 -46 112z" />
    <glyph glyph-name="V" unicode="V" horiz-adv-x="221" 
d="M142 0h-62l-71 700h42l50 -500l10 -138h2l11 138l50 500h39z" />
    <glyph glyph-name="W" unicode="W" horiz-adv-x="356" 
d="M342 700l-63 -700h-52l-43 500l-5 116h-2l-5 -116l-43 -500h-52l-63 700h42l42 -488l6 -117h2l5 117l42 488h53l42 -488l5 -117h2l6 117l41 488h40z" />
    <glyph glyph-name="Wcircumflex" unicode="&#x174;" horiz-adv-x="356" 
d="M302 700h40l-63 -700h-52l-43 500l-5 116h-2l-5 -116l-43 -500h-52l-63 700h42l42 -488l6 -117h2l5 117l42 488h53l42 -488l5 -117h2l6 117zM133 780h-42l68 219h33l68 -219h-42l-42 144z" />
    <glyph glyph-name="Wgrave" unicode="&#x1e80;" horiz-adv-x="356" 
d="M342 700l-63 -700h-52l-43 500l-5 116h-2l-5 -116l-43 -500h-52l-63 700h42l42 -488l6 -117h2l5 117l42 488h53l42 -488l5 -117h2l6 117l41 488h40zM194 780h-35l-35 219h51z" />
    <glyph glyph-name="Wacute" unicode="&#x1e82;" horiz-adv-x="356" 
d="M342 700l-63 -700h-52l-43 500l-5 116h-2l-5 -116l-43 -500h-52l-63 700h42l42 -488l6 -117h2l5 117l42 488h53l42 -488l5 -117h2l6 117l41 488h40zM162 780l19 219h51l-35 -219h-35z" />
    <glyph glyph-name="Wdieresis" unicode="&#x1e84;" horiz-adv-x="356" 
d="M342 700l-63 -700h-52l-43 500l-5 116h-2l-5 -116l-43 -500h-52l-63 700h42l42 -488l6 -117h2l5 117l42 488h53l42 -488l5 -117h2l6 117l41 488h40zM222 829c-18 0 -27 22 -27 60s9 60 27 60c17 0 27 -22 27 -60s-10 -60 -27 -60zM128 829c-17 0 -27 22 -27 60
s10 60 27 60s27 -22 27 -60s-10 -60 -27 -60z" />
    <glyph glyph-name="X" unicode="X" horiz-adv-x="218" 
d="M162 700h40l-62 -334l68 -366h-44l-35 200l-19 130h-2l-21 -130l-36 -200h-41l68 359l-62 341h43l33 -193l17 -119h2l18 119z" />
    <glyph glyph-name="Y" unicode="Y" horiz-adv-x="208" 
d="M83 0v206l-74 494h42l39 -268l14 -134h2l15 134l38 268h40l-74 -494v-206h-42z" />
    <glyph glyph-name="Yacute" unicode="&#xdd;" horiz-adv-x="208" 
d="M83 0v206l-74 494h42l39 -268l14 -134h2l15 134l38 268h40l-74 -494v-206h-42zM121 780h-35l19 219h51z" />
    <glyph glyph-name="Ycircumflex" unicode="&#x176;" horiz-adv-x="208" 
d="M83 0v206l-74 494h42l39 -268l14 -134h2l15 134l38 268h40l-74 -494v-206h-42zM62 780h-42l68 219h33l68 -219h-42l-42 144z" />
    <glyph glyph-name="Ydieresis" unicode="&#x178;" horiz-adv-x="208" 
d="M83 0v206l-74 494h42l39 -268l14 -134h2l15 134l38 268h40l-74 -494v-206h-42zM175 889c0 -38 -10 -60 -27 -60c-18 0 -27 22 -27 60s9 60 27 60c17 0 27 -22 27 -60zM81 889c0 -38 -10 -60 -27 -60s-27 22 -27 60s10 60 27 60s27 -22 27 -60z" />
    <glyph glyph-name="Ygrave" unicode="&#x1ef2;" horiz-adv-x="208" 
d="M83 0v206l-74 494h42l39 -268l14 -134h2l15 134l38 268h40l-74 -494v-206h-42zM104 999l19 -219h-35l-35 219h51z" />
    <glyph glyph-name="Z" unicode="Z" horiz-adv-x="202" 
d="M181 624l-122 -546v-2h125v-76h-166v76l122 546v2h-115v76h156v-76z" />
    <glyph glyph-name="Zacute" unicode="&#x179;" horiz-adv-x="202" 
d="M181 624l-122 -546v-2h125v-76h-166v76l122 546v2h-115v76h156v-76zM74 780l19 219h51l-35 -219h-35z" />
    <glyph glyph-name="Zdotaccent" unicode="&#x17b;" horiz-adv-x="202" 
d="M181 624l-122 -546v-2h125v-76h-166v76l122 546v2h-115v76h156v-76zM101 829c-17 0 -27 22 -27 60s10 60 27 60s27 -22 27 -60s-10 -60 -27 -60z" />
    <glyph glyph-name="Zcaron" unicode="&#x17d;" horiz-adv-x="202" 
d="M181 700v-76l-122 -546v-2h125v-76h-166v76l122 546v2h-115v76h156zM85 780l-68 219h42l43 -144l42 144h42l-68 -219h-33z" />
    <glyph glyph-name="AE" unicode="&#xc6;" horiz-adv-x="329" 
d="M54 0h-42l80 700h215v-76h-112v-230h106v-76h-106v-242h112v-76h-154v148h-83zM153 624h-32l-43 -400h75v400z" />
    <glyph glyph-name="AEacute" unicode="&#x1fc;" horiz-adv-x="329" 
d="M54 0h-42l80 700h215v-76h-112v-230h106v-76h-106v-242h112v-76h-154v148h-83zM153 624h-32l-43 -400h75v400zM186 780h-35l19 219h51z" />
    <glyph glyph-name="Eth" unicode="&#xd0;" horiz-adv-x="246" 
d="M224 350c0 -225 -30 -350 -117 -350h-77v319h-32v76h32v305h77c87 0 117 -125 117 -350zM182 350c0 171 -20 274 -75 274h-35v-229h56v-76h-56v-243h35c55 0 75 103 75 274z" />
    <glyph glyph-name="Oslash" unicode="&#xd8;" horiz-adv-x="260" 
d="M130 709c22 0 40 -12 56 -36l6 27h43l-21 -85c17 -60 23 -148 23 -265c0 -236 -29 -359 -108 -359c-23 0 -41 12 -56 36l-7 -27h-43l21 87c-17 60 -23 148 -23 263c0 236 30 359 109 359zM195 350c0 62 -2 116 -6 160l-98 -406c9 -24 22 -37 38 -37c48 0 66 107 66 283z
M63 350c0 -61 2 -115 6 -159l98 406c-9 23 -21 36 -37 36c-48 0 -67 -107 -67 -283z" />
    <glyph glyph-name="Oslashacute" unicode="&#x1fe;" horiz-adv-x="260" 
d="M130 709c22 0 40 -12 56 -36l6 27h43l-21 -85c17 -60 23 -148 23 -265c0 -236 -29 -359 -108 -359c-23 0 -41 12 -56 36l-7 -27h-43l21 87c-17 60 -23 148 -23 263c0 236 30 359 109 359zM195 350c0 62 -2 116 -6 160l-98 -406c9 -24 22 -37 38 -37c48 0 66 107 66 283z
M63 350c0 -61 2 -115 6 -159l98 406c-9 23 -21 36 -37 36c-48 0 -67 -107 -67 -283zM140 777h-32l23 173h45z" />
    <glyph glyph-name="Thorn" unicode="&#xde;" horiz-adv-x="213" 
d="M72 211h34c31 0 47 51 47 138c0 88 -16 138 -47 138h-34v-276zM30 700h42v-137h34c57 0 89 -79 89 -214s-32 -214 -89 -214h-34v-135h-42v700z" />
    <glyph glyph-name="Dcroat" unicode="&#x110;" horiz-adv-x="246" 
d="M224 350c0 -225 -30 -350 -117 -350h-77v319h-32v76h32v305h77c87 0 117 -125 117 -350zM182 350c0 171 -20 274 -75 274h-35v-229h56v-76h-56v-243h35c55 0 75 103 75 274z" />
    <glyph glyph-name="Hbar" unicode="&#x126;" horiz-adv-x="244" 
d="M216 521v-521h-42v319h-102v-319h-42v521h-25v76h25v103h42v-103h102v103h42v-103h23v-76h-23zM174 395v126h-102v-126h102z" />
    <glyph glyph-name="IJ" unicode="&#x132;" horiz-adv-x="241" 
d="M30 298v76h16v250h-16v76h73v-76h-15v-250h15v-76h-73zM146 700h65v-470c0 -162 -16 -242 -82 -242s-83 79 -83 242v26h42v-26c0 -113 7 -163 41 -163s40 49 40 163v394h-23v76z" />
    <glyph glyph-name="Ldot" unicode="&#x13f;" horiz-adv-x="192" 
d="M182 76v-76h-152v700h42v-624h110zM133 295c-17 0 -27 22 -27 60s10 60 27 60s27 -22 27 -60s-10 -60 -27 -60z" />
    <glyph glyph-name="Lslash" unicode="&#x141;" horiz-adv-x="192" 
d="M72 408l96 174h3v-93l-99 -178v-235h110v-76h-152v235l-20 -36h-2v93l22 40v368h42v-292z" />
    <glyph glyph-name="Eng" unicode="&#x14a;" horiz-adv-x="251" 
d="M223 -70c0 -120 -21 -189 -81 -189h-8v79h8c34 0 41 40 41 110v70h-27l-87 624h-2l4 -124v-500h-41v700h67l88 -624h2l-4 124v500h40v-770z" />
    <glyph glyph-name="OE" unicode="&#x152;" horiz-adv-x="363" 
d="M124 -9c-69 0 -102 108 -102 359s33 359 102 359c28 0 49 -23 64 -71v62h153v-80h-111v-224h106v-80h-106v-236h111v-80h-153v62c-15 -48 -36 -71 -64 -71zM126 69c45 0 62 106 62 281c0 176 -17 281 -62 281c-44 0 -62 -105 -62 -281c0 -175 18 -281 62 -281z" />
    <glyph glyph-name="Tbar" unicode="&#x166;" 
d="M82 624h-72v76h186v-76h-72v-229h55v-76h-55v-319h-42v319h-58v76h58v229z" />
    <glyph glyph-name="uni0402" unicode="&#x402;" horiz-adv-x="278" 
d="M124 382c11 27 27 44 51 44c71 0 86 -102 86 -219s-15 -219 -87 -219h-11v76h8c41 0 48 72 48 143c0 72 -7 143 -48 143c-33 0 -44 -46 -47 -97v-253h-42v624h-72v76h186v-76h-72v-242z" />
    <glyph glyph-name="uni0404" unicode="&#x404;" horiz-adv-x="246" 
d="M126 709c60 0 97 -85 97 -277v-15h-42v15c0 131 -19 201 -55 201c-40 0 -59 -88 -62 -238h93v-76h-93c2 -157 21 -252 62 -252c36 0 55 75 55 213v16h43v-16c0 -200 -37 -289 -98 -289c-70 0 -104 108 -104 359s34 359 104 359z" />
    <glyph glyph-name="uni0405" unicode="&#x405;" horiz-adv-x="233" 
d="M209 188c1 -111 -25 -197 -93 -197s-92 71 -92 245v18h42v-18c0 -127 11 -169 50 -169c36 0 51 46 51 121c0 172 -140 143 -140 340c0 96 21 181 89 181s89 -78 89 -239v-18h-42v18c0 120 -10 163 -47 163c-33 0 -47 -44 -47 -105c0 -172 140 -142 140 -340z" />
    <glyph glyph-name="uni0406" unicode="&#x406;" horiz-adv-x="130" 
d="M28 0v76h16v548h-16v76h74v-76h-16v-548h16v-76h-74z" />
    <glyph glyph-name="uni0407" unicode="&#x407;" horiz-adv-x="128" 
d="M28 0v76h16v548h-16v76h74v-76h-16v-548h16v-76h-74zM106 829c-18 0 -27 22 -27 60s9 60 27 60c17 0 27 -22 27 -60s-10 -60 -27 -60zM22 829c-17 0 -27 22 -27 60s10 60 27 60s27 -22 27 -60s-10 -60 -27 -60z" />
    <glyph glyph-name="uni0408" unicode="&#x408;" horiz-adv-x="207" 
d="M58 253v-23c0 -113 7 -163 41 -163s40 49 40 163v470h42v-470c0 -160 -16 -239 -82 -239s-83 78 -83 239v23h42z" />
    <glyph glyph-name="uni0409" unicode="&#x409;" horiz-adv-x="351" 
d="M24 74c24 0 32 16 36 336l4 290h150v-278h30c57 0 89 -68 89 -211s-32 -211 -89 -211h-72v624h-69l-3 -214c-5 -377 -18 -416 -76 -416h-8v80h8zM291 211c0 96 -16 135 -47 135h-30v-270h30c31 0 47 40 47 135z" />
    <glyph glyph-name="uni040A" unicode="&#x40a;" horiz-adv-x="347" 
d="M329 198c0 -134 -32 -198 -89 -198h-72v320h-97v-320h-42v700h42v-304h97v304h42v-304h30c57 0 89 -65 89 -198zM287 198c0 86 -16 122 -47 122h-30v-244h30c31 0 47 37 47 122z" />
    <glyph glyph-name="uni040B" unicode="&#x40b;" horiz-adv-x="278" 
d="M124 377c12 31 29 49 55 49c68 0 82 -78 82 -209v-217h-42v217c0 83 -5 133 -46 133c-32 0 -45 -43 -49 -107v-243h-42v624h-72v76h186v-76h-72v-247z" />
    <glyph glyph-name="uni040F" unicode="&#x40f;" horiz-adv-x="246" 
d="M102 -199v199h-72v700h42v-624h102v624h42v-700h-72v-199h-42z" />
    <glyph glyph-name="uni0410" unicode="&#x410;" horiz-adv-x="232" 
d="M161 144h-92l-14 -144h-41l71 700h62l71 -700h-43zM76 220h78l-28 280l-10 127h-2l-11 -127z" />
    <glyph glyph-name="uni0411" unicode="&#x411;" horiz-adv-x="213" 
d="M195 214c0 -135 -32 -214 -89 -214h-76v700h147v-76h-105v-196h34c57 0 89 -79 89 -214zM153 214c0 88 -16 138 -47 138h-34v-276h34c31 0 47 51 47 138z" />
    <glyph glyph-name="uni0412" unicode="&#x412;" horiz-adv-x="227" 
d="M203 199c0 -126 -31 -199 -95 -199h-78v700h78c66 0 91 -71 91 -191c0 -76 -12 -129 -40 -152c29 -25 44 -82 44 -158zM161 199c0 76 -18 120 -53 120h-36v-243h36c35 0 53 45 53 123zM157 509c0 71 -11 115 -49 115h-36v-229h36c38 0 49 42 49 114z" />
    <glyph glyph-name="uni0413" unicode="&#x413;" horiz-adv-x="194" 
d="M182 700v-76h-110v-624h-42v700h152z" />
    <glyph glyph-name="uni0403" unicode="&#x403;" horiz-adv-x="194" 
d="M182 700v-76h-110v-624h-42v700h152zM89 780l19 219h51l-35 -219h-35z" />
    <glyph glyph-name="uni0414" unicode="&#x414;" horiz-adv-x="265" 
d="M40 76c10 65 18 181 23 508l2 116h157v-624h29v-275h-42v199h-152v-199h-43v275h26zM103 584c-4 -293 -12 -436 -23 -508h100v548h-77v-40z" />
    <glyph glyph-name="uni0415" unicode="&#x415;" 
d="M30 0v700h154v-76h-112v-230h106v-76h-106v-242h112v-76h-154z" />
    <glyph glyph-name="uni0401" unicode="&#x401;" 
d="M30 0v700h154v-76h-112v-230h106v-76h-106v-242h112v-76h-154zM152 829c-18 0 -27 22 -27 60s9 60 27 60c17 0 27 -22 27 -60s-10 -60 -27 -60zM58 829c-17 0 -27 22 -27 60s10 60 27 60s27 -22 27 -60s-10 -60 -27 -60z" />
    <glyph glyph-name="uni0416" unicode="&#x416;" horiz-adv-x="344" 
d="M281 700h43l-70 -333l78 -367h-43l-66 330h-30v-330h-42v330h-29l-67 -330h-43l78 370l-69 330h43l58 -294h29v294h42v-294h29z" />
    <glyph glyph-name="uni0417" unicode="&#x417;" horiz-adv-x="222" 
d="M110 -9c-61 0 -88 74 -88 201v61h42v-61c0 -87 16 -125 46 -125s46 38 46 126c0 80 -12 127 -42 127h-30v76h30c34 0 38 44 38 118c0 84 -14 119 -42 119c-30 0 -45 -35 -45 -119v-63h-42v63c0 137 32 195 87 195c53 0 84 -58 84 -195c0 -78 -9 -133 -35 -156
c27 -26 39 -85 39 -165c0 -128 -26 -202 -88 -202z" />
    <glyph glyph-name="uni0418" unicode="&#x418;" horiz-adv-x="255" 
d="M157 700h68v-700h-41v500l3 124h-2l-86 -624h-69v700h42v-500l-3 -124h2z" />
    <glyph glyph-name="uni0419" unicode="&#x419;" horiz-adv-x="255" 
d="M157 700h68v-700h-41v500l3 124h-2l-86 -624h-69v700h42v-500l-3 -124h2zM128 846c33 0 42 45 42 138v15h42v-15c0 -138 -22 -214 -84 -214c-63 0 -85 76 -85 214v15h42v-15c0 -93 10 -138 43 -138z" />
    <glyph glyph-name="uni041A" unicode="&#x41a;" horiz-adv-x="227" 
d="M30 0v700h42v-304h24l69 304h42l-77 -342l85 -358h-44l-75 320h-24v-320h-42z" />
    <glyph glyph-name="uni040C" unicode="&#x40c;" horiz-adv-x="227" 
d="M30 0v700h42v-304h24l69 304h42l-77 -342l85 -358h-44l-75 320h-24v-320h-42zM120 780h-35l19 219h51z" />
    <glyph glyph-name="uni041B" unicode="&#x41b;" horiz-adv-x="249" 
d="M24 74c24 0 32 16 36 336l4 290h155v-700h-42v624h-74l-3 -214c-5 -377 -18 -416 -76 -416h-8v80h8z" />
    <glyph glyph-name="uni041C" unicode="&#x41c;" horiz-adv-x="310" 
d="M280 700v-700h-42v500l2 95l-60 -465h-51l-60 461l2 -91v-500h-41v700h63l61 -482h2l61 482h63z" />
    <glyph glyph-name="uni041D" unicode="&#x41d;" horiz-adv-x="246" 
d="M216 0h-42v319h-102v-319h-42v700h42v-305h102v305h42v-700z" />
    <glyph glyph-name="uni041E" unicode="&#x41e;" horiz-adv-x="252" 
d="M188 350c0 177 -17 283 -62 283c-44 0 -62 -106 -62 -283c0 -176 18 -283 62 -283c45 0 62 107 62 283zM22 350c0 251 34 359 104 359c71 0 104 -108 104 -359s-33 -359 -104 -359c-70 0 -104 108 -104 359z" />
    <glyph glyph-name="uni041F" unicode="&#x41f;" horiz-adv-x="246" 
d="M216 0h-42v624h-102v-624h-42v700h186v-700z" />
    <glyph glyph-name="uni0420" unicode="&#x420;" horiz-adv-x="213" 
d="M106 624h-34v-276h34c31 0 47 41 47 138c0 98 -16 138 -47 138zM30 700h76c57 0 89 -69 89 -214s-32 -214 -89 -214h-34v-272h-42v700z" />
    <glyph glyph-name="uni0421" unicode="&#x421;" horiz-adv-x="246" 
d="M223 417h-42v15c0 131 -19 201 -55 201c-44 0 -62 -106 -62 -283c0 -176 18 -283 62 -283c36 0 55 75 55 213v16h43v-16c0 -200 -37 -289 -98 -289c-70 0 -104 108 -104 359s34 359 104 359c60 0 97 -85 97 -277v-15z" />
    <glyph glyph-name="uni0422" unicode="&#x422;" 
d="M10 624v76h186v-76h-72v-624h-42v624h-72z" />
    <glyph glyph-name="uni0423" unicode="&#x423;" horiz-adv-x="214" 
d="M50 700l50 -303l11 -93h2l9 93l42 303h38l-71 -501c-25 -180 -40 -203 -80 -203h-5v81h5c18 0 28 10 44 119l-85 504h40z" />
    <glyph glyph-name="uni040E" unicode="&#x40e;" horiz-adv-x="214" 
d="M50 700l50 -303l11 -93h2l9 93l42 303h38l-71 -501c-25 -180 -40 -203 -80 -203h-5v81h5c18 0 28 10 44 119l-85 504h40zM106 846c33 0 42 45 42 138v15h42v-15c0 -138 -22 -214 -84 -214c-63 0 -85 76 -85 214v15h42v-15c0 -93 10 -138 43 -138z" />
    <glyph glyph-name="uni0424" unicode="&#x424;" horiz-adv-x="306" 
d="M20 380c0 205 33 302 103 302h9v68h42v-68h9c70 0 103 -97 103 -302s-33 -302 -103 -302h-9v-78h-42v78h-9c-70 0 -103 98 -103 302zM244 380c0 153 -18 226 -61 226h-10v-452h10c43 0 61 74 61 226zM62 380c0 -152 19 -226 61 -226h10v452h-10c-42 0 -61 -74 -61 -226z
" />
    <glyph glyph-name="uni0425" unicode="&#x425;" horiz-adv-x="218" 
d="M162 700h40l-62 -334l68 -366h-44l-35 200l-19 130h-2l-21 -130l-36 -200h-41l68 359l-62 341h43l33 -193l17 -119h2l18 119z" />
    <glyph glyph-name="uni0426" unicode="&#x426;" horiz-adv-x="258" 
d="M202 0h-172v700h42v-624h102v624h42v-624h28v-275h-42v199z" />
    <glyph glyph-name="uni0427" unicode="&#x427;" horiz-adv-x="230" 
d="M110 350h48v350h42v-700h-42v274h-48c-74 0 -90 95 -90 193v233h42v-233c0 -54 6 -117 48 -117z" />
    <glyph glyph-name="uni0428" unicode="&#x428;" horiz-adv-x="334" 
d="M262 700h42v-700h-274v700h42v-624h74v624h42v-624h74v624z" />
    <glyph glyph-name="uni0429" unicode="&#x429;" horiz-adv-x="346" 
d="M290 0h-260v700h42v-624h74v624h42v-624h74v624h42v-624h28v-275h-42v199z" />
    <glyph glyph-name="uni042A" unicode="&#x42a;" horiz-adv-x="250" 
d="M143 76c30 0 47 41 47 138c0 98 -17 138 -47 138h-34v-276h34zM109 700v-272h34c57 0 89 -69 89 -214s-32 -214 -89 -214h-76v624h-57v76h99z" />
    <glyph glyph-name="uni042B" unicode="&#x42b;" horiz-adv-x="295" 
d="M31 0v700h42v-272h34c57 0 89 -69 89 -214s-32 -214 -89 -214h-76zM107 76c31 0 47 41 47 138c0 98 -16 138 -47 138h-34v-276h34zM265 700v-700h-42v700h42z" />
    <glyph glyph-name="uni042C" unicode="&#x42c;" horiz-adv-x="213" 
d="M30 0v700h42v-272h34c57 0 89 -69 89 -214s-32 -214 -89 -214h-76zM106 76c31 0 47 41 47 138c0 98 -16 138 -47 138h-34v-276h34z" />
    <glyph glyph-name="uni042D" unicode="&#x42d;" horiz-adv-x="245" 
d="M120 633c-36 0 -55 -70 -55 -201v-15h-42v15c0 192 37 277 97 277c70 0 103 -108 103 -359s-33 -359 -103 -359c-61 0 -98 89 -98 289v16h43v-16c0 -138 19 -213 55 -213c41 0 59 95 61 252h-93v76h93c-3 150 -21 238 -61 238z" />
    <glyph glyph-name="uni042E" unicode="&#x42e;" horiz-adv-x="328" 
d="M206 -9c-65 0 -98 99 -101 328h-33v-319h-42v700h42v-305h33c4 219 37 314 101 314c68 0 100 -108 100 -359s-32 -359 -100 -359zM206 67c41 0 58 107 58 283c0 177 -17 283 -58 283c-42 0 -59 -106 -59 -283c0 -176 17 -283 59 -283z" />
    <glyph glyph-name="uni042F" unicode="&#x42f;" horiz-adv-x="231" 
d="M26 482c0 138 35 218 94 218h81v-700h-42v264h-39c-3 0 -6 0 -9 1l-46 -265h-43l50 287c-30 33 -46 101 -46 195zM68 482c0 -90 19 -142 52 -142h39v284h-39c-33 0 -52 -51 -52 -142z" />
    <glyph glyph-name="uni0490" unicode="&#x490;" horiz-adv-x="194" 
d="M181 700h1v-76h-110v-624h-42v700h109v199h42v-199z" />
    <glyph glyph-name="uni0492" unicode="&#x492;" horiz-adv-x="193" 
d="M29 318h-27v76h27v306h152v-76h-110v-230h69v-76h-69v-318h-42v318z" />
    <glyph glyph-name="uni0496" unicode="&#x496;" horiz-adv-x="348" 
d="M281 700h43l-70 -333l62 -291h43v-275h-42v199h-28l-66 330h-30v-330h-42v330h-29l-67 -330h-43l78 370l-69 330h43l58 -294h29v294h42v-294h29zM94 353l-3 19l-1 -2z" />
    <glyph glyph-name="uni0498" unicode="&#x498;" horiz-adv-x="222" 
d="M89 -6c-46 16 -67 87 -67 198v61h42v-61c0 -87 16 -125 46 -125s46 38 46 126c0 80 -12 127 -42 127h-30v76h30c34 0 38 44 38 118c0 84 -14 119 -42 119c-30 0 -45 -35 -45 -119v-63h-42v63c0 137 32 195 87 195c53 0 84 -58 84 -195c0 -78 -9 -133 -35 -156
c27 -26 39 -85 39 -165c0 -112 -20 -183 -67 -199v-193h-42v193z" />
    <glyph glyph-name="uni049A" unicode="&#x49a;" horiz-adv-x="230" 
d="M30 0v700h42v-304h24l69 304h42l-77 -342l68 -282h43v-275h-42v199h-28l-75 320h-24v-320h-42z" />
    <glyph glyph-name="uni049C" unicode="&#x49c;" horiz-adv-x="269" 
d="M87 541h42v-145h12l63 304h45l-71 -342l79 -358h-47l-69 320h-12v-145h-42v145h-15v-320h-42v700h42v-304h15v145z" />
    <glyph glyph-name="uni04A0" unicode="&#x4a0;" horiz-adv-x="264" 
d="M202 700h42l-77 -342l85 -358h-44l-75 320h-24v-320h-42v624h-57v76h99v-304h24z" />
    <glyph glyph-name="uni04A2" unicode="&#x4a2;" horiz-adv-x="258" 
d="M216 76h28v-275h-42v199h-28v319h-102v-319h-42v700h42v-305h102v305h42v-624z" />
    <glyph glyph-name="uni04AA" unicode="&#x4aa;" horiz-adv-x="246" 
d="M224 280c0 -177 -29 -267 -77 -285v-194h-42v194c-56 21 -83 131 -83 355c0 251 34 359 104 359c60 0 97 -85 97 -277v-15h-42v15c0 131 -19 201 -55 201c-44 0 -62 -106 -62 -283c0 -176 18 -283 62 -283c36 0 55 75 55 213v16h43v-16z" />
    <glyph glyph-name="uni04AE" unicode="&#x4ae;" horiz-adv-x="208" 
d="M83 0v206l-74 494h42l39 -268l14 -134h2l15 134l38 268h40l-74 -494v-206h-42z" />
    <glyph glyph-name="uni04B0" unicode="&#x4b0;" horiz-adv-x="208" 
d="M199 700l-74 -494v-24h48v-76h-48v-106h-42v106h-48v76h48v24l-74 494h42l39 -268l14 -134h2l15 134l38 268h40z" />
    <glyph glyph-name="uni04B2" unicode="&#x4b2;" horiz-adv-x="223" 
d="M78 359l-62 341h43l33 -193l17 -119h2l18 119l33 193h40l-62 -334l62 -330h32v-235h-42v199h-28l-35 200l-19 130h-2l-21 -130l-36 -200h-41z" />
    <glyph glyph-name="uni04B6" unicode="&#x4b6;" horiz-adv-x="242" 
d="M20 700h42v-233c0 -54 6 -117 48 -117h48v350h42v-624h28v-275h-42v199h-28v274h-48c-74 0 -90 95 -90 193v233z" />
    <glyph glyph-name="uni04BA" unicode="&#x4ba;" horiz-adv-x="228" 
d="M118 350h-48v-350h-42v700h42v-274h48c75 0 90 -95 90 -193v-233h-42v233c0 55 -5 117 -48 117z" />
    <glyph glyph-name="uni04C0" unicode="&#x4c0;" horiz-adv-x="101" 
d="M71 0h-42v700h42v-700z" />
    <glyph glyph-name="uni04D8" unicode="&#x4d8;" horiz-adv-x="245" 
d="M120 -9c-64 0 -98 84 -98 324v81h159c-3 164 -21 237 -61 237c-38 0 -55 -61 -55 -161v-10h-42v10c0 158 35 237 97 237c70 0 103 -88 103 -359c0 -261 -33 -359 -103 -359zM120 67c41 0 59 86 61 251h-116v-5c0 -165 17 -246 55 -246z" />
    <glyph glyph-name="uni04E8" unicode="&#x4e8;" horiz-adv-x="252" 
d="M126 -9c-70 0 -104 108 -104 359s34 359 104 359c71 0 104 -108 104 -359s-33 -359 -104 -359zM64 317c3 -156 20 -250 62 -250c41 0 60 93 62 250h-124zM188 393c-3 150 -21 240 -62 240s-58 -89 -62 -240h124z" />
    <glyph glyph-name="a" unicode="a" horiz-adv-x="194" 
d="M95 509c44 0 71 -44 71 -157v-352h-41v43c-10 -32 -24 -52 -44 -52c-39 0 -63 55 -63 146s28 145 73 145h34v70c0 66 -11 85 -30 85c-20 0 -31 -19 -31 -85v-12h-41v12c0 109 27 157 72 157zM59 139c0 -51 10 -76 27 -76c24 0 39 28 39 94v59h-29c-23 0 -37 -25 -37 -77z
" />
    <glyph glyph-name="agrave" unicode="&#xe0;" horiz-adv-x="194" 
d="M95 509c44 0 71 -44 71 -157v-352h-41v43c-10 -32 -24 -52 -44 -52c-39 0 -63 55 -63 146s28 145 73 145h34v70c0 66 -11 85 -30 85c-20 0 -31 -19 -31 -85v-12h-41v12c0 109 27 157 72 157zM59 139c0 -51 10 -76 27 -76c24 0 39 28 39 94v59h-29c-23 0 -37 -25 -37 -77z
M85 750l24 -173h-32l-36 173h44z" />
    <glyph glyph-name="aacute" unicode="&#xe1;" horiz-adv-x="194" 
d="M95 509c44 0 71 -44 71 -157v-352h-41v43c-10 -32 -24 -52 -44 -52c-39 0 -63 55 -63 146s28 145 73 145h34v70c0 66 -11 85 -30 85c-20 0 -31 -19 -31 -85v-12h-41v12c0 109 27 157 72 157zM59 139c0 -51 10 -76 27 -76c24 0 39 28 39 94v59h-29c-23 0 -37 -25 -37 -77z
M110 577h-32l23 173h45z" />
    <glyph glyph-name="acircumflex" unicode="&#xe2;" horiz-adv-x="194" 
d="M95 509c44 0 71 -44 71 -157v-352h-41v43c-10 -32 -24 -52 -44 -52c-39 0 -63 55 -63 146s28 145 73 145h34v70c0 66 -11 85 -30 85c-20 0 -31 -19 -31 -85v-12h-41v12c0 109 27 157 72 157zM59 577h-39l56 173h29l55 -173h-38l-32 106zM59 139c0 -51 10 -76 27 -76
c24 0 39 28 39 94v59h-29c-23 0 -37 -25 -37 -77z" />
    <glyph glyph-name="atilde" unicode="&#xe3;" horiz-adv-x="197" 
d="M96 509c44 0 71 -44 71 -157v-352h-41v43c-10 -32 -24 -52 -44 -52c-39 0 -63 55 -63 146s28 145 73 145h34v70c0 66 -11 85 -30 85c-20 0 -31 -19 -31 -85v-12h-41v12c0 109 27 157 72 157zM121 688c-21 0 -7 -121 -56 -121c-28 0 -47 35 -47 136v47h39v-57
c0 -36 2 -53 9 -53c21 0 8 120 57 120c28 0 46 -34 46 -135v-48h-38v58c0 36 -2 53 -10 53zM60 139c0 -51 10 -76 27 -76c24 0 39 28 39 94v59h-29c-23 0 -37 -25 -37 -77z" />
    <glyph glyph-name="adieresis" unicode="&#xe4;" horiz-adv-x="194" 
d="M95 509c44 0 71 -44 71 -157v-352h-41v43c-10 -32 -24 -52 -44 -52c-39 0 -63 55 -63 146s28 145 73 145h34v70c0 66 -11 85 -30 85c-20 0 -31 -19 -31 -85v-12h-41v12c0 109 27 157 72 157zM59 139c0 -51 10 -76 27 -76c24 0 39 28 39 94v59h-29c-23 0 -37 -25 -37 -77z
M164 663c0 -36 -10 -58 -27 -58s-26 22 -26 58c0 37 9 58 26 58s27 -21 27 -58zM83 663c0 -36 -10 -58 -26 -58c-17 0 -27 22 -27 58c0 37 10 58 27 58c16 0 26 -21 26 -58z" />
    <glyph glyph-name="aring" unicode="&#xe5;" horiz-adv-x="194" 
d="M95 509c44 0 71 -44 71 -157v-352h-41v43c-10 -32 -24 -52 -44 -52c-39 0 -63 55 -63 146s28 145 73 145h34v70c0 66 -11 85 -30 85c-20 0 -31 -19 -31 -85v-12h-41v12c0 109 27 157 72 157zM155 715c0 -109 -21 -159 -56 -159c-36 0 -56 50 -56 159c0 110 20 159 56 159
c35 0 56 -49 56 -159zM59 139c0 -51 10 -76 27 -76c24 0 39 28 39 94v59h-29c-23 0 -37 -25 -37 -77zM77 715c0 -67 8 -92 22 -92s22 25 22 92c0 68 -8 93 -22 93s-22 -25 -22 -93z" />
    <glyph glyph-name="amacron" unicode="&#x101;" horiz-adv-x="194" 
d="M95 509c44 0 71 -44 71 -157v-352h-41v43c-10 -32 -24 -52 -44 -52c-39 0 -63 55 -63 146s28 145 73 145h34v70c0 66 -11 85 -30 85c-20 0 -31 -19 -31 -85v-12h-41v12c0 109 27 157 72 157zM164 699v-72h-140v72h140zM59 139c0 -51 10 -76 27 -76c24 0 39 28 39 94v59
h-29c-23 0 -37 -25 -37 -77z" />
    <glyph glyph-name="abreve" unicode="&#x103;" horiz-adv-x="194" 
d="M95 509c44 0 71 -44 71 -157v-352h-41v43c-10 -32 -24 -52 -44 -52c-39 0 -63 55 -63 146s28 145 73 145h34v70c0 66 -11 85 -30 85c-20 0 -31 -19 -31 -85v-12h-41v12c0 109 27 157 72 157zM64 739c0 -75 10 -102 29 -102c20 0 29 27 29 102v11h41v-11
c0 -126 -27 -172 -70 -172s-70 46 -70 172v11h41v-11zM59 139c0 -51 10 -76 27 -76c24 0 39 28 39 94v59h-29c-23 0 -37 -25 -37 -77z" />
    <glyph glyph-name="aogonek" unicode="&#x105;" horiz-adv-x="194" 
d="M95 509c44 0 71 -44 71 -157v-352c-9 -9 -13 -31 -13 -66c0 -48 6 -60 16 -60c3 0 7 1 9 3v-72c-5 -4 -10 -5 -18 -5c-24 0 -40 30 -40 119c0 32 5 60 14 81h-9v43c-10 -32 -24 -52 -44 -52c-39 0 -63 55 -63 146s28 145 73 145h34v70c0 66 -11 85 -30 85
c-20 0 -31 -19 -31 -85v-12h-41v12c0 109 27 157 72 157zM59 139c0 -51 10 -76 27 -76c24 0 39 28 39 94v59h-29c-23 0 -37 -25 -37 -77z" />
    <glyph glyph-name="aringacute" unicode="&#x1fb;" horiz-adv-x="194" 
d="M95 509c44 0 71 -44 71 -157v-352h-41v43c-10 -32 -24 -52 -44 -52c-39 0 -63 55 -63 146s28 145 73 145h34v70c0 66 -11 85 -30 85c-20 0 -31 -19 -31 -85v-12h-41v12c0 109 27 157 72 157zM148 715c0 -109 -20 -159 -55 -159c-37 0 -56 50 -56 159c0 94 14 144 41 156
l19 141h45l-30 -144c23 -16 36 -65 36 -153zM59 139c0 -51 10 -76 27 -76c24 0 39 28 39 94v59h-29c-23 0 -37 -25 -37 -77zM71 715c0 -67 7 -92 22 -92c13 0 21 25 21 92c0 68 -8 93 -21 93c-15 0 -22 -25 -22 -93z" />
    <glyph glyph-name="b" unicode="b" horiz-adv-x="212" 
d="M193 250c0 -178 -21 -259 -76 -259c-23 0 -39 20 -49 59v-50h-40v750h40v-300c10 39 26 59 49 59c55 0 76 -81 76 -259zM111 436c-28 0 -43 -58 -43 -161v-50c0 -102 15 -161 43 -161c32 0 41 54 41 186s-9 186 -41 186z" />
    <glyph glyph-name="c" unicode="c" horiz-adv-x="202" 
d="M104 436c-35 0 -43 -52 -43 -186s8 -186 43 -186c28 0 38 41 38 132v8h40v-8c0 -136 -25 -205 -78 -205c-61 0 -84 83 -84 259s23 259 84 259c52 0 78 -64 78 -195v-8h-40v8c0 84 -10 122 -38 122z" />
    <glyph glyph-name="ccedilla" unicode="&#xe7;" horiz-adv-x="202" 
d="M142 314c0 84 -10 122 -38 122c-35 0 -43 -52 -43 -186s8 -186 43 -186c28 0 38 41 38 132v8h40v-8c0 -123 -21 -192 -64 -203v-13c18 -17 23 -54 23 -97c0 -83 -18 -105 -43 -105c-6 0 -12 1 -19 6v71c4 -3 7 -4 12 -4c10 0 15 7 15 47c0 34 -2 48 -13 48h-6v47
c-48 15 -67 98 -67 257c0 176 23 259 84 259c52 0 78 -64 78 -195v-8h-40v8z" />
    <glyph glyph-name="cacute" unicode="&#x107;" horiz-adv-x="202" 
d="M104 436c-35 0 -43 -52 -43 -186s8 -186 43 -186c28 0 38 41 38 132v8h40v-8c0 -136 -25 -205 -78 -205c-61 0 -84 83 -84 259s23 259 84 259c52 0 78 -64 78 -195v-8h-40v8c0 84 -10 122 -38 122zM91 577l23 173h45l-36 -173h-32z" />
    <glyph glyph-name="ccircumflex" unicode="&#x109;" horiz-adv-x="202" 
d="M142 314c0 84 -10 122 -38 122c-35 0 -43 -52 -43 -186s8 -186 43 -186c28 0 38 41 38 132v8h40v-8c0 -136 -25 -205 -78 -205c-61 0 -84 83 -84 259s23 259 84 259c52 0 78 -64 78 -195v-8h-40v8zM72 577h-39l56 173h29l55 -173h-38l-32 106z" />
    <glyph glyph-name="cdotaccent" unicode="&#x10b;" horiz-adv-x="202" 
d="M104 436c-35 0 -43 -52 -43 -186s8 -186 43 -186c28 0 38 41 38 132v8h40v-8c0 -136 -25 -205 -78 -205c-61 0 -84 83 -84 259s23 259 84 259c52 0 78 -64 78 -195v-8h-40v8c0 84 -10 122 -38 122zM103 605c-17 0 -27 22 -27 58c0 37 10 58 27 58s27 -21 27 -58
c0 -36 -10 -58 -27 -58z" />
    <glyph glyph-name="ccaron" unicode="&#x10d;" horiz-adv-x="202" 
d="M142 314c0 84 -10 122 -38 122c-35 0 -43 -52 -43 -186s8 -186 43 -186c28 0 38 41 38 132v8h40v-8c0 -136 -25 -205 -78 -205c-61 0 -84 83 -84 259s23 259 84 259c52 0 78 -64 78 -195v-8h-40v8zM134 750h39l-56 -173h-29l-55 173h38l32 -106z" />
    <glyph glyph-name="d" unicode="d" horiz-adv-x="213" 
d="M145 50c-10 -39 -26 -59 -49 -59c-55 0 -76 81 -76 259s21 259 76 259c23 0 39 -20 49 -59v300h40v-750h-40v50zM102 64c28 0 43 59 43 161v50c0 103 -15 161 -43 161c-32 0 -41 -54 -41 -186s9 -186 41 -186z" />
    <glyph glyph-name="dcaron" unicode="&#x10f;" horiz-adv-x="265" 
d="M145 50c-10 -39 -26 -59 -49 -59c-55 0 -76 81 -76 259s21 259 76 259c23 0 39 -20 49 -59v300h40v-750h-40v50zM102 64c28 0 43 59 43 161v50c0 103 -15 161 -43 161c-32 0 -41 -54 -41 -186s9 -186 41 -186zM263 712c0 -19 -5 -46 -10 -69l-16 -67h-24v136
c0 35 8 56 24 56c17 0 26 -21 26 -56z" />
    <glyph glyph-name="e" unicode="e" horiz-adv-x="202" 
d="M20 250c0 176 23 259 83 259c53 0 79 -69 79 -221v-58h-121c1 -119 10 -165 42 -165c29 0 37 36 37 93v4h40v-4c0 -99 -23 -167 -77 -167c-60 0 -83 76 -83 259zM103 436c-29 0 -38 -38 -41 -137h79v15c0 81 -12 122 -38 122z" />
    <glyph glyph-name="egrave" unicode="&#xe8;" horiz-adv-x="202" 
d="M20 250c0 176 23 259 83 259c53 0 79 -69 79 -221v-58h-121c1 -119 10 -165 42 -165c29 0 37 36 37 93v4h40v-4c0 -99 -23 -167 -77 -167c-60 0 -83 76 -83 259zM103 436c-29 0 -38 -38 -41 -137h79v15c0 81 -12 122 -38 122zM91 750l24 -173h-32l-36 173h44z" />
    <glyph glyph-name="eacute" unicode="&#xe9;" horiz-adv-x="202" 
d="M20 250c0 176 23 259 83 259c53 0 79 -69 79 -221v-58h-121c1 -119 10 -165 42 -165c29 0 37 36 37 93v4h40v-4c0 -99 -23 -167 -77 -167c-60 0 -83 76 -83 259zM103 436c-29 0 -38 -38 -41 -137h79v15c0 81 -12 122 -38 122zM127 577h-32l23 173h45z" />
    <glyph glyph-name="ecircumflex" unicode="&#xea;" horiz-adv-x="202" 
d="M20 250c0 176 23 259 83 259c53 0 79 -69 79 -221v-58h-121c1 -119 10 -165 42 -165c29 0 37 36 37 93v4h40v-4c0 -99 -23 -167 -77 -167c-60 0 -83 76 -83 259zM72 577h-39l56 173h29l55 -173h-38l-32 106zM103 436c-29 0 -38 -38 -41 -137h79v15c0 81 -12 122 -38 122z
" />
    <glyph glyph-name="edieresis" unicode="&#xeb;" horiz-adv-x="202" 
d="M20 250c0 176 23 259 83 259c53 0 79 -69 79 -221v-58h-121c1 -119 10 -165 42 -165c29 0 37 36 37 93v4h40v-4c0 -99 -23 -167 -77 -167c-60 0 -83 76 -83 259zM103 436c-29 0 -38 -38 -41 -137h79v15c0 81 -12 122 -38 122zM171 663c0 -36 -10 -58 -27 -58
s-26 22 -26 58c0 37 9 58 26 58s27 -21 27 -58zM90 663c0 -36 -10 -58 -26 -58c-17 0 -27 22 -27 58c0 37 10 58 27 58c16 0 26 -21 26 -58z" />
    <glyph glyph-name="emacron" unicode="&#x113;" horiz-adv-x="202" 
d="M20 250c0 176 23 259 83 259c53 0 79 -69 79 -221v-58h-121c1 -119 10 -165 42 -165c29 0 37 36 37 93v4h40v-4c0 -99 -23 -167 -77 -167c-60 0 -83 76 -83 259zM103 436c-29 0 -38 -38 -41 -137h79v15c0 81 -12 122 -38 122zM173 699v-72h-140v72h140z" />
    <glyph glyph-name="ebreve" unicode="&#x115;" horiz-adv-x="202" 
d="M20 250c0 176 23 259 83 259c53 0 79 -69 79 -221v-58h-121c1 -119 10 -165 42 -165c29 0 37 36 37 93v4h40v-4c0 -99 -23 -167 -77 -167c-60 0 -83 76 -83 259zM74 739c0 -75 10 -102 29 -102c20 0 29 27 29 102v11h41v-11c0 -126 -27 -172 -70 -172s-70 46 -70 172v11
h41v-11zM103 436c-29 0 -38 -38 -41 -137h79v15c0 81 -12 122 -38 122z" />
    <glyph glyph-name="edotaccent" unicode="&#x117;" horiz-adv-x="202" 
d="M20 250c0 176 23 259 83 259c53 0 79 -69 79 -221v-58h-121c1 -119 10 -165 42 -165c29 0 37 36 37 93v4h40v-4c0 -99 -23 -167 -77 -167c-60 0 -83 76 -83 259zM103 436c-29 0 -38 -38 -41 -137h79v15c0 81 -12 122 -38 122zM130 663c0 -36 -10 -58 -27 -58
s-27 22 -27 58c0 37 10 58 27 58s27 -21 27 -58z" />
    <glyph glyph-name="eogonek" unicode="&#x119;" horiz-adv-x="202" 
d="M20 250c0 176 23 259 83 259c53 0 79 -69 79 -221v-58h-121c1 -119 10 -165 42 -165c29 0 37 36 37 93v4h40v-4c0 -79 -15 -138 -48 -159c-9 -10 -12 -31 -12 -65c0 -48 6 -60 16 -60c3 0 6 1 9 3v-72c-5 -4 -10 -5 -18 -5c-24 0 -40 30 -40 119c0 28 4 52 10 72
c-55 5 -77 82 -77 259zM103 436c-29 0 -38 -38 -41 -137h79v15c0 81 -12 122 -38 122z" />
    <glyph glyph-name="ecaron" unicode="&#x11b;" horiz-adv-x="202" 
d="M20 250c0 176 23 259 83 259c53 0 79 -69 79 -221v-58h-121c1 -119 10 -165 42 -165c29 0 37 36 37 93v4h40v-4c0 -99 -23 -167 -77 -167c-60 0 -83 76 -83 259zM134 750h39l-56 -173h-29l-55 173h38l32 -106zM103 436c-29 0 -38 -38 -41 -137h79v15
c0 81 -12 122 -38 122z" />
    <glyph glyph-name="f" unicode="f" horiz-adv-x="129" 
d="M106 673c-25 0 -31 -27 -31 -78v-95h43v-72h-43v-428h-40v428h-21v72h21v95c0 104 21 155 71 155h16v-77h-16z" />
    <glyph glyph-name="g" unicode="g" horiz-adv-x="205" 
d="M157 424c5 57 15 76 33 76h5v-77h-3c-15 0 -22 -30 -22 -115c0 -119 -29 -187 -75 -187h-10c-17 0 -26 -11 -26 -33c0 -23 9 -34 26 -34h26c49 0 77 -60 77 -155c0 -99 -34 -156 -89 -156c-59 0 -89 50 -89 142c0 68 11 111 38 129c-14 14 -21 39 -21 62
c0 29 10 57 26 70c-22 25 -34 76 -34 162c0 128 26 201 76 201c32 0 52 -30 62 -85zM95 437c-23 0 -36 -43 -36 -129c0 -77 13 -119 36 -119s35 42 35 119c0 86 -12 129 -35 129zM147 -101c0 59 -12 86 -36 86h-26c-24 0 -37 -30 -37 -86s14 -86 51 -86c35 0 48 30 48 86z
" />
    <glyph glyph-name="gcircumflex" unicode="&#x11d;" horiz-adv-x="205" 
d="M157 424c5 57 15 76 33 76h5v-77h-3c-15 0 -22 -30 -22 -115c0 -119 -29 -187 -75 -187h-10c-17 0 -26 -11 -26 -33c0 -23 9 -34 26 -34h26c49 0 77 -60 77 -155c0 -99 -34 -156 -89 -156c-59 0 -89 50 -89 142c0 68 11 111 38 129c-14 14 -21 39 -21 62
c0 29 10 57 26 70c-22 25 -34 76 -34 162c0 128 26 201 76 201c32 0 52 -30 62 -85zM95 437c-23 0 -36 -43 -36 -129c0 -77 13 -119 36 -119s35 42 35 119c0 86 -12 129 -35 129zM147 -101c0 59 -12 86 -36 86h-26c-24 0 -37 -30 -37 -86s14 -86 51 -86c35 0 48 30 48 86z
M64 577h-39l56 173h29l55 -173h-38l-32 106z" />
    <glyph glyph-name="gbreve" unicode="&#x11f;" horiz-adv-x="205" 
d="M157 424c5 57 15 76 33 76h5v-77h-3c-15 0 -22 -30 -22 -115c0 -119 -29 -187 -75 -187h-10c-17 0 -26 -11 -26 -33c0 -23 9 -34 26 -34h26c49 0 77 -60 77 -155c0 -99 -34 -156 -89 -156c-59 0 -89 50 -89 142c0 68 11 111 38 129c-14 14 -21 39 -21 62
c0 29 10 57 26 70c-22 25 -34 76 -34 162c0 128 26 201 76 201c32 0 52 -30 62 -85zM74 739c0 -75 10 -102 29 -102c20 0 29 27 29 102v11h41v-11c0 -126 -27 -172 -70 -172s-70 46 -70 172v11h41v-11zM95 437c-23 0 -36 -43 -36 -129c0 -77 13 -119 36 -119s35 42 35 119
c0 86 -12 129 -35 129zM147 -101c0 59 -12 86 -36 86h-26c-24 0 -37 -30 -37 -86s14 -86 51 -86c35 0 48 30 48 86z" />
    <glyph glyph-name="gdotaccent" unicode="&#x121;" horiz-adv-x="205" 
d="M157 424c5 57 15 76 33 76h5v-77h-3c-15 0 -22 -30 -22 -115c0 -119 -29 -187 -75 -187h-10c-17 0 -26 -11 -26 -33c0 -23 9 -34 26 -34h26c49 0 77 -60 77 -155c0 -99 -34 -156 -89 -156c-59 0 -89 50 -89 142c0 68 11 111 38 129c-14 14 -21 39 -21 62
c0 29 10 57 26 70c-22 25 -34 76 -34 162c0 128 26 201 76 201c32 0 52 -30 62 -85zM95 437c-23 0 -36 -43 -36 -129c0 -77 13 -119 36 -119s35 42 35 119c0 86 -12 129 -35 129zM147 -101c0 59 -12 86 -36 86h-26c-24 0 -37 -30 -37 -86s14 -86 51 -86c35 0 48 30 48 86z
M124 663c0 -36 -10 -58 -27 -58s-27 22 -27 58c0 37 10 58 27 58s27 -21 27 -58z" />
    <glyph glyph-name="uni0123" unicode="&#x123;" horiz-adv-x="205" 
d="M157 424c5 57 15 76 33 76h5v-77h-3c-15 0 -22 -30 -22 -115c0 -119 -29 -187 -75 -187h-10c-17 0 -26 -11 -26 -33c0 -23 9 -34 26 -34h26c49 0 77 -60 77 -155c0 -99 -34 -156 -89 -156c-59 0 -89 50 -89 142c0 68 11 111 38 129c-14 14 -21 39 -21 62
c0 29 10 57 26 70c-22 25 -34 76 -34 162c0 128 26 201 76 201c32 0 52 -30 62 -85zM95 437c-23 0 -36 -43 -36 -129c0 -77 13 -119 36 -119s35 42 35 119c0 86 -12 129 -35 129zM147 -101c0 59 -12 86 -36 86h-26c-24 0 -37 -30 -37 -86s14 -86 51 -86c35 0 48 30 48 86z
M67 645c0 19 5 47 10 69l16 68h25v-137c0 -35 -9 -56 -25 -56c-17 0 -26 21 -26 56z" />
    <glyph glyph-name="h" unicode="h" 
d="M68 454c10 37 25 55 46 55c47 0 64 -61 64 -205v-304h-40v304c0 92 -7 133 -32 133s-38 -58 -38 -162v-275h-40v750h40v-296z" />
    <glyph glyph-name="hcircumflex" unicode="&#x125;" 
d="M68 454c10 37 25 55 46 55c47 0 64 -61 64 -205v-304h-40v304c0 92 -7 133 -32 133s-38 -58 -38 -162v-275h-40v750h40v-296zM72 807h-39l56 173h29l55 -173h-38l-32 106z" />
    <glyph glyph-name="i" unicode="i" horiz-adv-x="99" 
d="M69 500v-500h-40v500h40zM50 605c-17 0 -27 22 -27 58c0 37 10 58 27 58s27 -21 27 -58c0 -36 -10 -58 -27 -58z" />
    <glyph glyph-name="igrave" unicode="&#xec;" horiz-adv-x="97" 
d="M68 500v-500h-40v500h40zM62 577h-32l-36 173h44z" />
    <glyph glyph-name="iacute" unicode="&#xed;" horiz-adv-x="97" 
d="M68 500v-500h-40v500h40zM34 577l23 173h45l-36 -173h-32z" />
    <glyph glyph-name="icircumflex" unicode="&#xee;" horiz-adv-x="97" 
d="M28 500h40v-500h-40v500zM17 577h-39l56 173h29l55 -173h-38l-32 106z" />
    <glyph glyph-name="idieresis" unicode="&#xef;" horiz-adv-x="99" 
d="M69 500v-500h-40v500h40zM17 605c-18 0 -28 22 -28 58c0 37 10 58 28 58c17 0 27 -21 27 -58c0 -36 -11 -58 -27 -58zM81 605c-18 0 -27 22 -27 58c0 37 9 58 27 58c17 0 27 -21 27 -58c0 -36 -11 -58 -27 -58z" />
    <glyph glyph-name="itilde" unicode="&#x129;" horiz-adv-x="97" 
d="M68 500v-500h-40v500h40zM20 567c-29 0 -47 35 -47 136v47h39v-57c0 -36 2 -53 9 -53c21 0 8 120 57 120c28 0 46 -34 46 -135v-48h-38v58c0 36 -2 53 -10 53c-21 0 -7 -121 -56 -121z" />
    <glyph glyph-name="imacron" unicode="&#x12b;" horiz-adv-x="97" 
d="M68 500v-500h-40v500h40zM118 627h-140v72h140v-72z" />
    <glyph glyph-name="ibreve" unicode="&#x12d;" horiz-adv-x="97" 
d="M68 500v-500h-40v500h40zM48 637c20 0 29 27 29 102v11h41v-11c0 -126 -27 -172 -70 -172s-70 46 -70 172v11h41v-11c0 -75 10 -102 29 -102z" />
    <glyph glyph-name="iogonek" unicode="&#x12f;" horiz-adv-x="97" 
d="M22 -81c0 32 5 60 14 81h-7v500h40v-500h-1c-9 -9 -13 -31 -13 -66c0 -48 6 -60 16 -60c3 0 7 1 9 3v-72c-5 -4 -10 -5 -18 -5c-24 0 -40 30 -40 119zM77 663c0 -36 -10 -58 -27 -58s-27 22 -27 58c0 37 10 58 27 58s27 -21 27 -58z" />
    <glyph glyph-name="j" unicode="j" horiz-adv-x="97" 
d="M-47 -79h40c0 -90 7 -106 18 -106s17 16 17 106v579h41v-579c0 -126 -14 -178 -58 -178c-45 0 -58 57 -58 178zM49 605c-17 0 -27 22 -27 58c0 37 10 58 27 58s27 -21 27 -58c0 -36 -10 -58 -27 -58z" />
    <glyph glyph-name="jcircumflex" unicode="&#x135;" horiz-adv-x="97" 
d="M11 -257c-45 0 -58 57 -58 178h40c0 -90 7 -106 18 -106s17 16 17 106v579h41v-579c0 -126 -14 -178 -58 -178zM19 577h-39l56 173h29l55 -173h-38l-32 106z" />
    <glyph glyph-name="k" unicode="k" horiz-adv-x="189" 
d="M68 0h-40v750h40v-459h20l47 209h41l-58 -246l63 -254h-42l-51 219h-20v-219z" />
    <glyph glyph-name="uni0137" unicode="&#x137;" horiz-adv-x="189" 
d="M68 0h-40v750h40v-459h20l47 209h41l-58 -246l63 -254h-42l-51 219h-20v-219zM131 -122c0 -19 -4 -47 -9 -69l-16 -68h-25v137c0 35 9 56 25 56s25 -21 25 -56z" />
    <glyph glyph-name="l" unicode="l" horiz-adv-x="96" 
d="M68 750v-750h-40v750h40z" />
    <glyph glyph-name="lacute" unicode="&#x13a;" horiz-adv-x="97" 
d="M68 750v-750h-40v750h40zM33 793l23 173h45l-36 -173h-32z" />
    <glyph glyph-name="uni013C" unicode="&#x13c;" horiz-adv-x="97" 
d="M68 750v-750h-40v750h40zM53 -259h-25v137c0 35 9 56 25 56s25 -21 25 -56c0 -19 -4 -47 -9 -69z" />
    <glyph glyph-name="lcaron" unicode="&#x13e;" horiz-adv-x="148" 
d="M68 750v-750h-40v750h40zM121 575h-25v136c0 35 9 56 25 56s25 -21 25 -56c0 -19 -4 -46 -9 -69z" />
    <glyph glyph-name="m" unicode="m" horiz-adv-x="304" 
d="M68 455c10 36 24 54 44 54c26 0 42 -21 51 -66c10 44 28 66 53 66c44 0 60 -61 60 -205v-304h-40v304c0 92 -5 133 -29 133c-23 0 -35 -58 -35 -162v-275h-40v304c0 92 -5 133 -29 133c-23 0 -35 -58 -35 -162v-275h-40v500h40v-45z" />
    <glyph glyph-name="n" unicode="n" 
d="M68 452c10 38 25 57 47 57c47 0 63 -57 63 -205v-304h-40v304c0 97 -7 133 -30 133c-26 0 -40 -49 -40 -162v-275h-40v500h40v-48z" />
    <glyph glyph-name="ntilde" unicode="&#xf1;" 
d="M68 453c10 38 25 57 47 57c47 0 63 -57 63 -205v-304h-40v304c0 97 -7 133 -30 133c-26 0 -40 -49 -40 -162v-275h-40v500h40v-48zM131 689c-21 0 -7 -121 -56 -121c-28 0 -47 35 -47 136v47h39v-57c0 -36 2 -53 9 -53c21 0 8 120 57 120c28 0 46 -34 46 -135v-48h-38v58
c0 36 -2 53 -10 53z" />
    <glyph glyph-name="nacute" unicode="&#x144;" 
d="M68 452c10 38 25 57 47 57c47 0 63 -57 63 -205v-304h-40v304c0 97 -7 133 -30 133c-26 0 -40 -49 -40 -162v-275h-40v500h40v-48zM131 577h-32l23 173h45z" />
    <glyph glyph-name="uni0146" unicode="&#x146;" 
d="M68 452c10 38 25 57 47 57c47 0 63 -57 63 -205v-304h-40v304c0 97 -7 133 -30 133c-26 0 -40 -49 -40 -162v-275h-40v500h40v-48zM130 -122c0 -19 -4 -47 -9 -69l-16 -68h-25v137c0 35 9 56 25 56s25 -21 25 -56z" />
    <glyph glyph-name="ncaron" unicode="&#x148;" 
d="M68 452c10 38 25 57 47 57c47 0 63 -57 63 -205v-304h-40v304c0 97 -7 133 -30 133c-26 0 -40 -49 -40 -162v-275h-40v500h40v-48zM134 750h39l-56 -173h-29l-55 173h38l32 -106z" />
    <glyph glyph-name="o" unicode="o" horiz-adv-x="208" 
d="M104 509c61 0 84 -83 84 -259s-23 -259 -84 -259s-84 83 -84 259s23 259 84 259zM104 64c35 0 43 52 43 186s-8 186 -43 186s-43 -52 -43 -186s8 -186 43 -186z" />
    <glyph glyph-name="ograve" unicode="&#xf2;" horiz-adv-x="208" 
d="M104 509c61 0 84 -83 84 -259s-23 -259 -84 -259s-84 83 -84 259s23 259 84 259zM104 64c35 0 43 52 43 186s-8 186 -43 186s-43 -52 -43 -186s8 -186 43 -186zM115 577h-32l-36 173h44z" />
    <glyph glyph-name="oacute" unicode="&#xf3;" horiz-adv-x="208" 
d="M104 509c61 0 84 -83 84 -259s-23 -259 -84 -259s-84 83 -84 259s23 259 84 259zM104 64c35 0 43 52 43 186s-8 186 -43 186s-43 -52 -43 -186s8 -186 43 -186zM94 577l23 173h45l-36 -173h-32z" />
    <glyph glyph-name="ocircumflex" unicode="&#xf4;" horiz-adv-x="208" 
d="M20 250c0 176 23 259 84 259s84 -83 84 -259s-23 -259 -84 -259s-84 83 -84 259zM61 250c0 -134 8 -186 43 -186s43 52 43 186s-8 186 -43 186s-43 -52 -43 -186zM74 577h-39l56 173h29l55 -173h-38l-32 106z" />
    <glyph glyph-name="otilde" unicode="&#xf5;" horiz-adv-x="208" 
d="M104 509c61 0 84 -83 84 -259s-23 -259 -84 -259s-84 83 -84 259s23 259 84 259zM104 64c35 0 43 52 43 186s-8 186 -43 186s-43 -52 -43 -186s8 -186 43 -186zM77 567c-28 0 -47 35 -47 136v47h39v-57c0 -36 2 -53 9 -53c21 0 8 120 57 120c28 0 46 -34 46 -135v-48h-38
v58c0 36 -2 53 -10 53c-21 0 -7 -121 -56 -121z" />
    <glyph glyph-name="odieresis" unicode="&#xf6;" horiz-adv-x="208" 
d="M104 509c61 0 84 -83 84 -259s-23 -259 -84 -259s-84 83 -84 259s23 259 84 259zM104 64c35 0 43 52 43 186s-8 186 -43 186s-43 -52 -43 -186s8 -186 43 -186zM66 605c-17 0 -27 22 -27 58c0 37 10 58 27 58c16 0 26 -21 26 -58c0 -36 -10 -58 -26 -58zM146 605
c-17 0 -26 22 -26 58c0 37 9 58 26 58s27 -21 27 -58c0 -36 -10 -58 -27 -58z" />
    <glyph glyph-name="omacron" unicode="&#x14d;" horiz-adv-x="208" 
d="M104 509c61 0 84 -83 84 -259s-23 -259 -84 -259s-84 83 -84 259s23 259 84 259zM104 64c35 0 43 52 43 186s-8 186 -43 186s-43 -52 -43 -186s8 -186 43 -186zM175 627h-140v72h140v-72z" />
    <glyph glyph-name="obreve" unicode="&#x14f;" horiz-adv-x="208" 
d="M104 509c61 0 84 -83 84 -259s-23 -259 -84 -259s-84 83 -84 259s23 259 84 259zM104 64c35 0 43 52 43 186s-8 186 -43 186s-43 -52 -43 -186s8 -186 43 -186zM105 637c20 0 29 27 29 102v11h41v-11c0 -126 -27 -172 -70 -172s-70 46 -70 172v11h41v-11
c0 -75 10 -102 29 -102z" />
    <glyph glyph-name="ohungarumlaut" unicode="&#x151;" horiz-adv-x="208" 
d="M104 509c61 0 84 -83 84 -259s-23 -259 -84 -259s-84 83 -84 259s23 259 84 259zM104 64c35 0 43 52 43 186s-8 186 -43 186s-43 -52 -43 -186s8 -186 43 -186zM78 577h-33l17 173h44zM150 577h-33l24 173h44z" />
    <glyph glyph-name="p" unicode="p" horiz-adv-x="214" 
d="M69 450c10 39 26 59 49 59c55 0 76 -80 76 -259c0 -178 -21 -259 -76 -259c-23 0 -39 20 -49 59v-300h-41v750h41v-50zM112 436c-28 0 -43 -58 -43 -161v-50c0 -102 15 -161 43 -161c33 0 41 54 41 186c0 133 -8 186 -41 186z" />
    <glyph glyph-name="q" unicode="q" horiz-adv-x="213" 
d="M20 250c0 179 21 259 76 259c23 0 39 -20 49 -59v50h40v-750h-40v300c-10 -39 -26 -59 -49 -59c-55 0 -76 81 -76 259zM102 64c28 0 43 59 43 161v50c0 103 -15 161 -43 161c-32 0 -41 -53 -41 -186c0 -132 9 -186 41 -186z" />
    <glyph glyph-name="r" unicode="r" horiz-adv-x="133" 
d="M68 435c10 48 25 74 47 74h9v-78h-9c-31 0 -47 -75 -47 -203v-228h-40v500h40v-65z" />
    <glyph glyph-name="racute" unicode="&#x155;" horiz-adv-x="133" 
d="M68 435c10 48 25 74 47 74h9v-78h-9c-31 0 -47 -75 -47 -203v-228h-40v500h40v-65zM74 577h-32l23 173h45z" />
    <glyph glyph-name="uni0157" unicode="&#x157;" horiz-adv-x="133" 
d="M68 435c10 48 25 74 47 74h9v-78h-9c-31 0 -47 -75 -47 -203v-228h-40v500h40v-65zM78 -122c0 -19 -5 -47 -10 -69l-16 -68h-24v137c0 35 8 56 24 56c17 0 26 -21 26 -56z" />
    <glyph glyph-name="rcaron" unicode="&#x159;" horiz-adv-x="133" 
d="M68 435c10 48 25 74 47 74h9v-78h-9c-31 0 -47 -75 -47 -203v-228h-40v500h40v-65zM107 750h39l-56 -173h-29l-55 173h38l32 -106z" />
    <glyph glyph-name="s" unicode="s" horiz-adv-x="186" 
d="M126 134c0 124 -103 90 -103 237c0 73 17 138 71 138c53 0 71 -57 71 -164v-11h-41v11c0 68 -8 91 -30 91c-23 0 -31 -26 -31 -65c0 -124 103 -89 103 -237c0 -81 -19 -143 -73 -143c-52 0 -73 55 -73 167v15h41v-15c0 -71 9 -93 32 -93c25 0 33 25 33 69z" />
    <glyph glyph-name="sacute" unicode="&#x15b;" horiz-adv-x="186" 
d="M126 134c0 124 -103 90 -103 237c0 73 17 138 71 138c53 0 71 -57 71 -164v-11h-41v11c0 68 -8 91 -30 91c-23 0 -31 -26 -31 -65c0 -124 103 -89 103 -237c0 -81 -19 -143 -73 -143c-52 0 -73 55 -73 167v15h41v-15c0 -71 9 -93 32 -93c25 0 33 25 33 69zM79 577l23 173
h45l-36 -173h-32z" />
    <glyph glyph-name="scircumflex" unicode="&#x15d;" horiz-adv-x="186" 
d="M93 65c25 0 33 25 33 69c0 124 -103 90 -103 237c0 73 17 138 71 138c53 0 71 -57 71 -164v-11h-41v11c0 68 -8 91 -30 91c-23 0 -31 -26 -31 -65c0 -124 103 -89 103 -237c0 -81 -19 -143 -73 -143c-52 0 -73 55 -73 167v15h41v-15c0 -71 9 -93 32 -93zM62 577h-39
l56 173h29l55 -173h-38l-32 106z" />
    <glyph glyph-name="scedilla" unicode="&#x15f;" horiz-adv-x="186" 
d="M93 65c25 0 33 25 33 69c0 124 -103 90 -103 237c0 73 17 138 71 138c53 0 71 -57 71 -164v-11h-41v11c0 68 -8 91 -30 91c-23 0 -31 -26 -31 -65c0 -124 103 -89 103 -237c0 -73 -15 -131 -58 -141v-13c18 -17 23 -54 23 -97c0 -83 -18 -105 -43 -105c-6 0 -12 1 -19 6
v71c4 -3 6 -4 12 -4c9 0 15 7 15 47c0 34 -3 48 -14 48h-5v47c-40 11 -57 65 -57 165v15h41v-15c0 -71 9 -93 32 -93z" />
    <glyph glyph-name="scaron" unicode="&#x161;" horiz-adv-x="186" 
d="M93 65c25 0 33 25 33 69c0 124 -103 90 -103 237c0 73 17 138 71 138c53 0 71 -57 71 -164v-11h-41v11c0 68 -8 91 -30 91c-23 0 -31 -26 -31 -65c0 -124 103 -89 103 -237c0 -81 -19 -143 -73 -143c-52 0 -73 55 -73 167v15h41v-15c0 -71 9 -93 32 -93zM124 750h39
l-56 -173h-29l-55 173h38l32 -106z" />
    <glyph glyph-name="uni0219" unicode="&#x219;" horiz-adv-x="186" 
d="M126 134c0 124 -103 90 -103 237c0 73 17 138 71 138c53 0 71 -57 71 -164v-11h-41v11c0 68 -8 91 -30 91c-23 0 -31 -26 -31 -65c0 -124 103 -89 103 -237c0 -81 -19 -143 -73 -143c-52 0 -73 55 -73 167v15h41v-15c0 -71 9 -93 32 -93c25 0 33 25 33 69zM99 -252h-25
v137c0 35 9 56 25 56s25 -21 25 -56c0 -19 -4 -47 -9 -69z" />
    <glyph glyph-name="t" unicode="t" horiz-adv-x="171" 
d="M97 64c14 0 23 15 23 105h40c0 -116 -14 -178 -63 -178c-47 0 -63 52 -63 178v259h-20v72h20l10 107h31v-107h53v-72h-53v-259c0 -90 9 -105 22 -105z" />
    <glyph glyph-name="uni0163" unicode="&#x163;" horiz-adv-x="171" 
d="M97 64c14 0 23 15 23 105h40c0 -116 -14 -178 -63 -178c-47 0 -63 52 -63 178v259h-20v72h20l10 107h31v-107h53v-72h-53v-259c0 -90 9 -105 22 -105zM118 -122c0 -19 -4 -47 -9 -69l-16 -68h-25v137c0 35 9 56 25 56s25 -21 25 -56z" />
    <glyph glyph-name="tcaron" unicode="&#x165;" horiz-adv-x="175" 
d="M97 64c14 0 23 15 23 105h40c0 -116 -14 -178 -63 -178c-47 0 -63 52 -63 178v259h-20v72h20l10 107h31v-107h53v-72h-53v-259c0 -90 9 -105 22 -105zM165 712c0 -19 -4 -46 -9 -69l-16 -67h-25v136c0 35 9 56 25 56s25 -21 25 -56z" />
    <glyph glyph-name="u" unicode="u" 
d="M138 44c-10 -35 -25 -53 -46 -53c-47 0 -64 61 -64 205v304h40v-304c0 -91 7 -132 32 -132s38 58 38 161v275h40v-500h-40v44z" />
    <glyph glyph-name="ugrave" unicode="&#xf9;" 
d="M138 44c-10 -35 -25 -53 -46 -53c-47 0 -64 61 -64 205v304h40v-304c0 -91 7 -132 32 -132s38 58 38 161v275h40v-500h-40v44zM93 750l24 -173h-32l-36 173h44z" />
    <glyph glyph-name="uacute" unicode="&#xfa;" 
d="M138 44c-10 -35 -25 -53 -46 -53c-47 0 -64 61 -64 205v304h40v-304c0 -91 7 -132 32 -132s38 58 38 161v275h40v-500h-40v44zM122 577h-32l23 173h45z" />
    <glyph glyph-name="ucircumflex" unicode="&#xfb;" 
d="M138 44c-10 -35 -25 -53 -46 -53c-47 0 -64 61 -64 205v304h40v-304c0 -91 7 -132 32 -132s38 58 38 161v275h40v-500h-40v44zM71 577h-39l56 173h29l55 -173h-38l-32 106z" />
    <glyph glyph-name="udieresis" unicode="&#xfc;" 
d="M138 44c-10 -35 -25 -53 -46 -53c-47 0 -64 61 -64 205v304h40v-304c0 -91 7 -132 32 -132s38 58 38 161v275h40v-500h-40v44zM170 663c0 -36 -10 -58 -27 -58s-26 22 -26 58c0 37 9 58 26 58s27 -21 27 -58zM89 663c0 -36 -10 -58 -26 -58c-17 0 -27 22 -27 58
c0 37 10 58 27 58c16 0 26 -21 26 -58z" />
    <glyph glyph-name="utilde" unicode="&#x169;" 
d="M138 44c-10 -35 -25 -53 -46 -53c-47 0 -64 61 -64 205v304h40v-304c0 -91 7 -132 32 -132s38 58 38 161v275h40v-500h-40v44zM130 688c-21 0 -7 -121 -56 -121c-28 0 -47 35 -47 136v47h39v-57c0 -36 2 -53 9 -53c21 0 8 120 57 120c28 0 46 -34 46 -135v-48h-38v58
c0 36 -2 53 -10 53z" />
    <glyph glyph-name="umacron" unicode="&#x16b;" 
d="M138 44c-10 -35 -25 -53 -46 -53c-47 0 -64 61 -64 205v304h40v-304c0 -91 7 -132 32 -132s38 58 38 161v275h40v-500h-40v44zM172 699v-72h-140v72h140z" />
    <glyph glyph-name="ubreve" unicode="&#x16d;" 
d="M138 44c-10 -35 -25 -53 -46 -53c-47 0 -64 61 -64 205v304h40v-304c0 -91 7 -132 32 -132s38 58 38 161v275h40v-500h-40v44zM73 739c0 -75 10 -102 29 -102c20 0 29 27 29 102v11h41v-11c0 -126 -27 -172 -70 -172s-70 46 -70 172v11h41v-11z" />
    <glyph glyph-name="uring" unicode="&#x16f;" 
d="M138 44c-10 -35 -25 -53 -46 -53c-47 0 -64 61 -64 205v304h40v-304c0 -91 7 -132 32 -132s38 58 38 161v275h40v-500h-40v44zM158 715c0 -109 -20 -159 -55 -159c-37 0 -56 50 -56 159c0 110 19 159 56 159c35 0 55 -49 55 -159zM81 715c0 -67 7 -92 22 -92
c13 0 21 25 21 92c0 68 -8 93 -21 93c-15 0 -22 -25 -22 -93z" />
    <glyph glyph-name="uhungarumlaut" unicode="&#x171;" 
d="M138 44c-10 -35 -25 -53 -46 -53c-47 0 -64 61 -64 205v304h40v-304c0 -91 7 -132 32 -132s38 58 38 161v275h40v-500h-40v44zM145 750h44l-35 -173h-33zM110 750l-28 -173h-33l17 173h44z" />
    <glyph glyph-name="uogonek" unicode="&#x173;" 
d="M138 44c-10 -35 -25 -53 -46 -53c-47 0 -64 61 -64 205v304h40v-304c0 -91 7 -132 32 -132s38 58 38 161v275h40v-500c-9 -9 -13 -31 -13 -66c0 -48 6 -60 16 -60c3 0 7 1 9 3v-72c-5 -4 -10 -5 -18 -5c-24 0 -40 30 -40 119c0 32 5 60 14 81h-8v44z" />
    <glyph glyph-name="v" unicode="v" horiz-adv-x="181" 
d="M114 0h-47l-60 500h41l31 -275l11 -140h3l11 140l31 275h39z" />
    <glyph glyph-name="w" unicode="w" horiz-adv-x="281" 
d="M269 500l-48 -500h-46l-27 300l-6 124h-3l-5 -124l-27 -300h-46l-49 500h39l26 -300l5 -116h3l6 116l27 300h46l27 -300l5 -116h3l6 116l25 300h39z" />
    <glyph glyph-name="wcircumflex" unicode="&#x175;" horiz-adv-x="281" 
d="M230 500h39l-48 -500h-46l-27 300l-6 124h-3l-5 -124l-27 -300h-46l-49 500h39l26 -300l5 -116h3l6 116l27 300h46l27 -300l5 -116h3l6 116zM104 577h-39l56 173h29l55 -173h-38l-32 106z" />
    <glyph glyph-name="wgrave" unicode="&#x1e81;" horiz-adv-x="281" 
d="M269 500l-48 -500h-46l-27 300l-6 124h-3l-5 -124l-27 -300h-46l-49 500h39l26 -300l5 -116h3l6 116l27 300h46l27 -300l5 -116h3l6 116l25 300h39zM149 577h-32l-36 173h44z" />
    <glyph glyph-name="wacute" unicode="&#x1e83;" horiz-adv-x="281" 
d="M269 500l-48 -500h-46l-27 300l-6 124h-3l-5 -124l-27 -300h-46l-49 500h39l26 -300l5 -116h3l6 116l27 300h46l27 -300l5 -116h3l6 116l25 300h39zM121 577l23 173h45l-36 -173h-32z" />
    <glyph glyph-name="wdieresis" unicode="&#x1e85;" horiz-adv-x="281" 
d="M269 500l-48 -500h-46l-27 300l-6 124h-3l-5 -124l-27 -300h-46l-49 500h39l26 -300l5 -116h3l6 116l27 300h46l27 -300l5 -116h3l6 116l25 300h39zM96 605c-17 0 -27 22 -27 58c0 37 10 58 27 58c16 0 26 -21 26 -58c0 -36 -10 -58 -26 -58zM176 605
c-17 0 -26 22 -26 58c0 37 9 58 26 58s27 -21 27 -58c0 -36 -10 -58 -27 -58z" />
    <glyph glyph-name="x" unicode="x" horiz-adv-x="181" 
d="M169 500l-54 -239l58 -261h-43l-24 129l-14 89h-2l-14 -89l-26 -129h-42l58 256l-54 244h43l21 -108l14 -89h2l14 89l21 108h42z" />
    <glyph glyph-name="y" unicode="y" horiz-adv-x="185" 
d="M176 500l-78 -619c-15 -116 -36 -138 -63 -138h-8v82h8c8 0 19 8 24 56l14 111l-65 508h41l30 -245l12 -150h3l13 150l29 245h40z" />
    <glyph glyph-name="yacute" unicode="&#xfd;" horiz-adv-x="185" 
d="M176 500l-78 -619c-15 -116 -36 -138 -63 -138h-8v82h8c8 0 19 8 24 56l14 111l-65 508h41l30 -245l12 -150h3l13 150l29 245h40zM75 577l23 173h45l-36 -173h-32z" />
    <glyph glyph-name="ydieresis" unicode="&#xff;" horiz-adv-x="185" 
d="M176 500l-78 -619c-15 -116 -36 -138 -63 -138h-8v82h8c8 0 19 8 24 56l14 111l-65 508h41l30 -245l12 -150h3l13 150l29 245h40zM50 605c-17 0 -27 22 -27 58c0 37 10 58 27 58c16 0 26 -21 26 -58c0 -36 -10 -58 -26 -58zM130 605c-17 0 -26 22 -26 58c0 37 9 58 26 58
s27 -21 27 -58c0 -36 -10 -58 -27 -58z" />
    <glyph glyph-name="ycircumflex" unicode="&#x177;" horiz-adv-x="185" 
d="M35 -175c8 0 19 8 24 56l14 111l-65 508h41l30 -245l12 -150h3l13 150l29 245h40l-78 -619c-15 -116 -36 -138 -63 -138h-8v82h8zM58 577h-39l56 173h29l55 -173h-38l-32 106z" />
    <glyph glyph-name="ygrave" unicode="&#x1ef3;" horiz-adv-x="185" 
d="M176 500l-78 -619c-15 -116 -36 -138 -63 -138h-8v82h8c8 0 19 8 24 56l14 111l-65 508h41l30 -245l12 -150h3l13 150l29 245h40zM108 577h-32l-36 173h44z" />
    <glyph glyph-name="z" unicode="z" horiz-adv-x="159" 
d="M141 500v-66l-86 -362h89v-72h-129v66l86 362h-81v72h121z" />
    <glyph glyph-name="zacute" unicode="&#x17a;" horiz-adv-x="159" 
d="M141 500v-66l-86 -362h89v-72h-129v66l86 362h-81v72h121zM97 577h-32l23 173h45z" />
    <glyph glyph-name="zdotaccent" unicode="&#x17c;" horiz-adv-x="159" 
d="M141 500v-66l-86 -362h89v-72h-129v66l86 362h-81v72h121zM110 663c0 -36 -10 -58 -27 -58s-27 22 -27 58c0 37 10 58 27 58s27 -21 27 -58z" />
    <glyph glyph-name="zcaron" unicode="&#x17e;" horiz-adv-x="159" 
d="M141 500v-66l-86 -362h89v-72h-129v66l86 362h-81v72h121zM110 750h39l-56 -173h-29l-55 173h38l32 -106z" />
    <glyph glyph-name="ordfeminine" unicode="&#xaa;" horiz-adv-x="146" 
d="M71 712c34 0 55 -40 55 -132v-231h-36v32c-8 -27 -20 -44 -36 -44c-26 0 -42 39 -42 102c0 66 23 109 58 109h20v32c0 51 -7 67 -19 67c-13 0 -20 -16 -20 -67v-8h-35v8c0 92 21 132 55 132zM48 442c0 -29 6 -46 17 -46c15 0 25 20 25 66v33h-21c-13 0 -21 -14 -21 -53z
" />
    <glyph glyph-name="ordmasculine" unicode="&#xba;" horiz-adv-x="152" 
d="M76 403c19 0 28 38 28 121c0 85 -9 122 -28 122s-28 -37 -28 -122c0 -83 9 -121 28 -121zM76 712c42 0 64 -72 64 -188c0 -115 -22 -187 -64 -187c-41 0 -64 72 -64 187c0 116 23 188 64 188z" />
    <glyph glyph-name="germandbls" unicode="&#xdf;" horiz-adv-x="224" 
d="M28 595c0 92 27 155 71 155h101v-72l-45 -191c32 -35 49 -121 49 -239c0 -159 -30 -257 -84 -257h-21v73h21c29 0 43 55 43 184c0 126 -14 183 -43 183h-21v73h21l38 174h-59c-20 0 -30 -34 -30 -83v-595h-41v595z" />
    <glyph glyph-name="ae" unicode="&#xe6;" horiz-adv-x="302" 
d="M280 158c0 -99 -22 -167 -75 -167c-31 0 -49 28 -60 89c-9 -54 -31 -89 -64 -89c-39 0 -63 55 -63 146c0 93 28 149 73 149h34v66c0 66 -11 85 -30 85c-20 0 -31 -19 -31 -85v-12h-41v12c0 109 27 157 72 157c25 0 44 -16 55 -63c12 43 30 63 55 63c51 0 77 -69 77 -221
v-69h-116c1 -111 11 -154 39 -154c27 0 35 36 35 93v5h40v-5zM205 436c-27 0 -36 -41 -38 -148h74v26c0 81 -12 122 -36 122zM59 139c0 -51 10 -76 27 -76c24 0 39 28 39 94v59h-29c-24 0 -37 -25 -37 -77z" />
    <glyph glyph-name="aeacute" unicode="&#x1fd;" horiz-adv-x="302" 
d="M280 158c0 -99 -22 -167 -75 -167c-31 0 -49 28 -60 89c-9 -54 -31 -89 -64 -89c-39 0 -63 55 -63 146c0 93 28 149 73 149h34v66c0 66 -11 85 -30 85c-20 0 -31 -19 -31 -85v-12h-41v12c0 109 27 157 72 157c25 0 44 -16 55 -63c12 43 30 63 55 63c51 0 77 -69 77 -221
v-69h-116c1 -111 11 -154 39 -154c27 0 35 36 35 93v5h40v-5zM205 436c-27 0 -36 -41 -38 -148h74v26c0 81 -12 122 -36 122zM59 139c0 -51 10 -76 27 -76c24 0 39 28 39 94v59h-29c-24 0 -37 -25 -37 -77zM174 577h-32l23 173h45z" />
    <glyph glyph-name="eth" unicode="&#xf0;" horiz-adv-x="205" 
d="M187 225c0 -159 -23 -234 -84 -234c-60 0 -83 75 -83 234c0 153 23 224 83 224c6 0 11 -1 15 -2l-32 128l-27 -53l-17 72l26 52l-26 104h43l12 -48l24 48l18 -71l-24 -48l46 -187c19 -79 26 -119 26 -219zM146 225c0 115 -8 161 -43 161c-34 0 -43 -45 -43 -161
s9 -161 43 -161c35 0 43 45 43 161z" />
    <glyph glyph-name="oslash" unicode="&#xf8;" horiz-adv-x="212" 
d="M20 250c0 176 24 259 85 259c17 0 31 -8 42 -28l5 19h39l-17 -64c13 -41 18 -102 18 -186c0 -176 -24 -259 -85 -259c-17 0 -30 8 -41 26l-5 -17h-39l16 62c-12 41 -18 103 -18 188zM61 250c0 -37 1 -67 2 -92l66 255c-5 16 -12 23 -24 23c-35 0 -44 -52 -44 -186z
M151 250c0 35 0 65 -2 89l-66 -254c5 -15 12 -21 24 -21c35 0 44 52 44 186z" />
    <glyph glyph-name="oslashacute" unicode="&#x1ff;" horiz-adv-x="212" 
d="M20 250c0 176 24 259 85 259c17 0 31 -8 42 -28l5 19h39l-17 -64c13 -41 18 -102 18 -186c0 -176 -24 -259 -85 -259c-17 0 -30 8 -41 26l-5 -17h-39l16 62c-12 41 -18 103 -18 188zM61 250c0 -37 1 -67 2 -92l66 255c-5 16 -12 23 -24 23c-35 0 -44 -52 -44 -186z
M151 250c0 35 0 65 -2 89l-66 -254c5 -15 12 -21 24 -21c35 0 44 52 44 186zM115 577h-32l23 173h45z" />
    <glyph glyph-name="thorn" unicode="&#xfe;" horiz-adv-x="213" 
d="M68 450c10 39 26 59 49 59c55 0 76 -80 76 -259c0 -178 -21 -259 -76 -259c-23 0 -39 20 -49 59v-300h-40v1000h40v-300zM111 436c-28 0 -43 -58 -43 -161v-50c0 -102 15 -161 43 -161c33 0 41 54 41 186c0 133 -8 186 -41 186z" />
    <glyph glyph-name="dcroat" unicode="&#x111;" horiz-adv-x="213" 
d="M145 50c-10 -39 -26 -59 -49 -59c-55 0 -76 81 -76 259s21 259 76 259c23 0 39 -20 49 -59v154h-44v72h44v74h40v-74h20v-72h-20v-604h-40v50zM102 64c28 0 43 59 43 161v50c0 103 -15 161 -43 161c-32 0 -41 -54 -41 -186s9 -186 41 -186z" />
    <glyph glyph-name="hbar" unicode="&#x127;" 
d="M68 454c10 37 25 55 46 55c47 0 64 -61 64 -205v-304h-40v304c0 92 -7 133 -32 133s-38 -58 -38 -162v-275h-40v610h-21v66h21v74h40v-74h51v-66h-51v-156z" />
    <glyph glyph-name="dotlessi" unicode="&#x131;" horiz-adv-x="97" 
d="M68 500v-500h-40v500h40z" />
    <glyph glyph-name="ij" unicode="&#x133;" horiz-adv-x="175" 
d="M69 500v-500h-40v500h40zM29 -79h41c0 -90 6 -106 17 -106s17 16 17 106v579h41v-579c0 -126 -14 -178 -58 -178c-45 0 -58 57 -58 178zM50 605c-17 0 -27 22 -27 58c0 37 10 58 27 58s27 -21 27 -58c0 -36 -10 -58 -27 -58zM125 605c-17 0 -27 22 -27 58
c0 37 10 58 27 58s27 -21 27 -58c0 -36 -10 -58 -27 -58z" />
    <glyph glyph-name="ldot" unicode="&#x140;" horiz-adv-x="140" 
d="M68 750v-750h-40v750h40zM92 250c0 37 9 58 26 58c16 0 26 -21 26 -58c0 -36 -10 -58 -26 -58c-17 0 -26 22 -26 58z" />
    <glyph glyph-name="lslash" unicode="&#x142;" horiz-adv-x="108" 
d="M74 459l30 55v-97l-30 -55v-362h-40v288l-30 -56v97l30 56v365h40v-291z" />
    <glyph glyph-name="napostrophe" unicode="&#x149;" 
d="M68 452c10 38 25 57 47 57c47 0 63 -57 63 -205v-304h-40v304c0 97 -7 133 -30 133c-26 0 -40 -49 -40 -162v-275h-40v500h40v-48zM79 704c0 -19 -5 -46 -10 -69l-16 -67h-25v136c0 35 9 56 25 56c17 0 26 -21 26 -56z" />
    <glyph glyph-name="eng" unicode="&#x14b;" horiz-adv-x="205" 
d="M115 509c47 0 64 -61 64 -205v-363c0 -135 -23 -198 -69 -198h-9v77h9c19 0 29 39 29 121v363c0 92 -7 133 -32 133s-38 -58 -38 -162v-275h-41v500h41v-44c10 35 25 53 46 53z" />
    <glyph glyph-name="oe" unicode="&#x153;" horiz-adv-x="329" 
d="M307 158c0 -99 -23 -167 -78 -167c-30 0 -50 26 -62 80c-13 -54 -33 -80 -63 -80c-61 0 -84 83 -84 259s23 259 84 259c31 0 51 -25 63 -78c12 53 31 78 62 78c53 0 80 -69 80 -221v-64h-121c1 -115 10 -159 41 -159c29 0 37 36 37 93v5h41v-5zM61 250
c0 -134 8 -186 43 -186s43 52 43 186s-8 186 -43 186s-43 -52 -43 -186zM229 436c-28 0 -37 -40 -40 -143h79v21c0 81 -12 122 -39 122z" />
    <glyph glyph-name="tbar" unicode="&#x167;" horiz-adv-x="171" 
d="M97 64c14 0 23 15 23 105h40c0 -116 -14 -178 -63 -178c-47 0 -63 52 -63 178v86h-20v65h20v108h-20v72h20l10 107h31v-107h53v-72h-53v-108h47v-65h-47v-86c0 -90 9 -105 22 -105z" />
    <glyph glyph-name="uni0237" unicode="&#x237;" horiz-adv-x="97" 
d="M-47 -79h40c0 -90 7 -106 18 -106s17 16 17 106v579h41v-579c0 -126 -14 -178 -58 -178c-45 0 -58 57 -58 178z" />
    <glyph glyph-name="uni0430" unicode="&#x430;" horiz-adv-x="196" 
d="M97 509c44 0 71 -44 71 -157v-352h-41v43c-10 -32 -24 -52 -44 -52c-39 0 -63 55 -63 146s28 145 73 145h34v70c0 66 -11 85 -30 85c-20 0 -31 -19 -31 -85v-12h-41v12c0 109 27 157 72 157zM61 139c0 -51 10 -76 27 -76c24 0 39 28 39 94v59h-29c-23 0 -37 -25 -37 -77z
" />
    <glyph glyph-name="uni0431" unicode="&#x431;" horiz-adv-x="215" 
d="M110 -9c-60 0 -84 77 -84 244v191c0 259 26 299 81 299h25c11 0 17 4 17 16v8h40v-20c0 -62 -19 -81 -57 -81h-25c-32 0 -46 -16 -46 -222l1 -34c10 57 29 87 58 87c51 0 74 -64 74 -244c0 -167 -23 -244 -84 -244zM112 406c-30 0 -46 -58 -46 -171
c2 -125 8 -172 44 -172c35 0 43 47 43 172c0 126 -8 171 -41 171z" />
    <glyph glyph-name="uni0432" unicode="&#x432;" horiz-adv-x="187" 
d="M167 143c0 -89 -26 -143 -72 -143h-67v500h67c48 0 70 -51 70 -139c0 -51 -12 -89 -37 -108c25 -19 39 -57 39 -110zM126 143c0 48 -11 77 -31 77h-27v-150h27c20 0 31 26 31 73zM124 361c0 46 -8 70 -29 70h-27v-143h27c21 0 29 26 29 73z" />
    <glyph glyph-name="uni0433" unicode="&#x433;" horiz-adv-x="154" 
d="M142 500v-72h-74v-428h-40v500h114z" />
    <glyph glyph-name="uni0453" unicode="&#x453;" horiz-adv-x="154" 
d="M142 500v-72h-74v-428h-40v500h114zM71 577l23 173h45l-36 -173h-32z" />
    <glyph glyph-name="uni0434" unicode="&#x434;" horiz-adv-x="214" 
d="M30 72c8 40 13 95 17 316l2 112h131v-428h21v-221h-41v149h-108v-149h-41v221h19zM86 388c-3 -186 -9 -269 -16 -316h69v356h-53v-40z" />
    <glyph glyph-name="uni0435" unicode="&#x435;" horiz-adv-x="202" 
d="M20 250c0 176 23 259 83 259c53 0 79 -69 79 -221v-58h-121c1 -119 10 -165 42 -165c29 0 37 36 37 93v4h40v-4c0 -99 -23 -167 -77 -167c-60 0 -83 76 -83 259zM103 436c-29 0 -38 -38 -41 -137h79v15c0 81 -12 122 -38 122z" />
    <glyph glyph-name="uni0451" unicode="&#x451;" horiz-adv-x="202" 
d="M20 250c0 176 23 259 83 259c53 0 79 -69 79 -221v-58h-121c1 -119 10 -165 42 -165c29 0 37 36 37 93v4h40v-4c0 -99 -23 -167 -77 -167c-60 0 -83 76 -83 259zM103 436c-29 0 -38 -38 -41 -137h79v15c0 81 -12 122 -38 122zM163 663c0 -36 -10 -58 -27 -58
s-26 22 -26 58c0 37 9 58 26 58s27 -21 27 -58zM82 663c0 -36 -10 -58 -26 -58c-17 0 -27 22 -27 58c0 37 10 58 27 58c16 0 26 -21 26 -58z" />
    <glyph glyph-name="uni0436" unicode="&#x436;" horiz-adv-x="273" 
d="M116 218h-21l-41 -218h-42l52 261l-49 239h41l39 -210h21v210h40v-210h21l40 210h40l-49 -239l53 -261h-43l-41 218h-21v-218h-40v218z" />
    <glyph glyph-name="uni04C2" unicode="&#x4c2;" horiz-adv-x="273" 
d="M116 218h-21l-41 -218h-42l52 261l-49 239h41l39 -210h21v210h40v-210h21l40 210h40l-49 -239l53 -261h-43l-41 218h-21v-218h-40v218zM107 739c0 -75 10 -102 29 -102c20 0 29 27 29 102v11h41v-11c0 -126 -27 -172 -70 -172s-70 46 -70 172v11h41v-11z" />
    <glyph glyph-name="uni0437" unicode="&#x437;" horiz-adv-x="187" 
d="M167 145c0 -84 -23 -154 -75 -154c-53 0 -74 70 -74 164v30h40v-30c0 -51 7 -91 34 -91s34 35 34 81c0 42 -6 74 -31 74h-18v72h17c24 0 30 27 30 69c0 47 -6 76 -32 76c-25 0 -31 -33 -31 -86v-26h-41v26c0 97 22 159 72 159c53 0 72 -57 72 -149
c0 -52 -10 -87 -33 -105c25 -18 36 -54 36 -110z" />
    <glyph glyph-name="uni0438" unicode="&#x438;" horiz-adv-x="215" 
d="M69 500v-398h1l55 398h62v-500h-41v397h-1l-55 -397h-62v500h41z" />
    <glyph glyph-name="uni0439" unicode="&#x439;" horiz-adv-x="215" 
d="M69 500v-398h1l55 398h62v-500h-41v397h-1l-55 -397h-62v500h41zM107 637c20 0 29 27 29 102v11h41v-11c0 -126 -27 -172 -70 -172s-70 46 -70 172v11h41v-11c0 -75 10 -102 29 -102z" />
    <glyph glyph-name="uni04E3" unicode="&#x4e3;" horiz-adv-x="215" 
d="M69 500v-398h1l55 398h62v-500h-41v397h-1l-55 -397h-62v500h41zM177 627h-140v72h140v-72z" />
    <glyph glyph-name="uni043A" unicode="&#x43a;" horiz-adv-x="190" 
d="M69 0h-41v500h41v-209h18l49 209h41l-58 -246l63 -254h-42l-53 219h-18v-219z" />
    <glyph glyph-name="uni045C" unicode="&#x45c;" horiz-adv-x="190" 
d="M69 0h-41v500h41v-209h18l49 209h41l-58 -246l63 -254h-42l-53 219h-18v-219zM103 577h-32l23 173h45z" />
    <glyph glyph-name="uni043B" unicode="&#x43b;" horiz-adv-x="204" 
d="M49 500h127v-500h-41v428h-50l-1 -142c-2 -271 -22 -290 -60 -290h-10v81h10c11 0 19 8 22 210z" />
    <glyph glyph-name="uni043C" unicode="&#x43c;" horiz-adv-x="261" 
d="M233 500v-500h-40v332l6 101h-2l-48 -344h-38l-48 344h-2l6 -101v-332h-39v500h59l34 -238l9 -101h2l9 101l33 238h59z" />
    <glyph glyph-name="uni043D" unicode="&#x43d;" 
d="M178 0h-40v219h-70v-219h-40v500h40v-209h70v209h40v-500z" />
    <glyph glyph-name="uni043E" unicode="&#x43e;" horiz-adv-x="208" 
d="M104 509c61 0 84 -83 84 -259s-23 -259 -84 -259s-84 83 -84 259s23 259 84 259zM104 64c35 0 43 52 43 186s-8 186 -43 186s-43 -52 -43 -186s8 -186 43 -186z" />
    <glyph glyph-name="uni04E7" unicode="&#x4e7;" horiz-adv-x="208" 
d="M104 509c61 0 84 -83 84 -259s-23 -259 -84 -259s-84 83 -84 259s23 259 84 259zM104 64c35 0 43 52 43 186s-8 186 -43 186s-43 -52 -43 -186s8 -186 43 -186zM58 605c-17 0 -27 22 -27 58c0 37 10 58 27 58c16 0 26 -21 26 -58c0 -36 -10 -58 -26 -58zM138 605
c-17 0 -26 22 -26 58c0 37 9 58 26 58s27 -21 27 -58c0 -36 -10 -58 -27 -58z" />
    <glyph glyph-name="uni043F" unicode="&#x43f;" 
d="M178 0h-40v428h-70v-428h-40v500h150v-500z" />
    <glyph glyph-name="uni0440" unicode="&#x440;" horiz-adv-x="214" 
d="M69 450c10 39 26 59 49 59c55 0 76 -80 76 -259c0 -178 -21 -259 -76 -259c-23 0 -39 20 -49 59v-300h-41v750h41v-50zM112 436c-28 0 -43 -58 -43 -161v-50c0 -102 15 -161 43 -161c33 0 41 54 41 186c0 133 -8 186 -41 186z" />
    <glyph glyph-name="uni0441" unicode="&#x441;" horiz-adv-x="202" 
d="M104 436c-35 0 -43 -52 -43 -186s8 -186 43 -186c28 0 38 41 38 132v8h40v-8c0 -136 -25 -205 -78 -205c-61 0 -84 83 -84 259s23 259 84 259c52 0 78 -64 78 -195v-8h-40v8c0 84 -10 122 -38 122z" />
    <glyph glyph-name="uni0442" unicode="&#x442;" horiz-adv-x="158" 
d="M10 428v72h138v-72h-49v-428h-40v428h-49z" />
    <glyph glyph-name="uni0443" unicode="&#x443;" horiz-adv-x="185" 
d="M176 500l-78 -619c-15 -116 -36 -138 -63 -138h-8v82h8c8 0 19 8 24 56l14 111l-65 508h41l30 -245l12 -150h3l13 150l29 245h40z" />
    <glyph glyph-name="uni045E" unicode="&#x45e;" horiz-adv-x="185" 
d="M176 500l-78 -619c-15 -116 -36 -138 -63 -138h-8v82h8c8 0 19 8 24 56l14 111l-65 508h41l30 -245l12 -150h3l13 150l29 245h40zM89 637c20 0 29 27 29 102v11h41v-11c0 -126 -27 -172 -70 -172s-70 46 -70 172v11h41v-11c0 -75 10 -102 29 -102z" />
    <glyph glyph-name="uni04EF" unicode="&#x4ef;" horiz-adv-x="185" 
d="M176 500l-78 -619c-15 -116 -36 -138 -63 -138h-8v82h8c8 0 19 8 24 56l14 111l-65 508h41l30 -245l12 -150h3l13 150l29 245h40zM159 627h-140v72h140v-72z" />
    <glyph glyph-name="uni04F3" unicode="&#x4f3;" horiz-adv-x="185" 
d="M176 500l-78 -619c-15 -116 -36 -138 -63 -138h-8v82h8c8 0 19 8 24 56l14 111l-65 508h41l30 -245l12 -150h3l13 150l29 245h40zM65 577h-33l17 173h44zM137 577h-33l24 173h44z" />
    <glyph glyph-name="uni0444" unicode="&#x444;" horiz-adv-x="265" 
d="M162 0h-9v-250h-41v250h-9c-55 0 -83 93 -83 250s28 250 83 250h9v250h41v-250h9c54 0 83 -93 83 -250s-29 -250 -83 -250zM103 72h11v356h-11c-28 0 -43 -66 -43 -178s15 -178 43 -178zM162 428h-11v-356h11c27 0 43 66 43 178s-16 178 -43 178z" />
    <glyph glyph-name="uni0445" unicode="&#x445;" horiz-adv-x="181" 
d="M169 500l-54 -239l58 -261h-43l-24 129l-14 89h-2l-14 -89l-26 -129h-42l58 256l-54 244h43l21 -108l14 -89h2l14 89l21 108h42z" />
    <glyph glyph-name="uni0446" unicode="&#x446;" horiz-adv-x="213" 
d="M200 -149h-40v149h-132v500h41v-428h70v428h40v-428h21v-221z" />
    <glyph glyph-name="uni0447" unicode="&#x447;" horiz-adv-x="192" 
d="M94 261h29v239h41v-500h-41v189h-29c-58 0 -74 70 -74 142v169h41v-169c0 -32 7 -70 33 -70z" />
    <glyph glyph-name="uni0448" unicode="&#x448;" horiz-adv-x="284" 
d="M216 500h40v-500h-228v500h41v-428h53v428h40v-428h54v428z" />
    <glyph glyph-name="uni0449" unicode="&#x449;" horiz-adv-x="290" 
d="M277 -149h-40v149h-209v500h41v-428h53v428h40v-428h54v428h40v-428h21v-221z" />
    <glyph glyph-name="uni044A" unicode="&#x44a;" horiz-adv-x="199" 
d="M45 428h-41v72h82v-166h26c48 0 73 -54 73 -167c0 -111 -25 -167 -73 -167h-67v428zM86 72h26c21 0 32 28 32 95c0 68 -11 95 -32 95h-26v-190z" />
    <glyph glyph-name="uni044B" unicode="&#x44b;" horiz-adv-x="260" 
d="M69 334h26c48 0 73 -54 73 -167c0 -111 -25 -167 -73 -167h-67v500h41v-166zM69 72h26c21 0 32 28 32 95c0 68 -11 95 -32 95h-26v-190zM232 500v-500h-41v500h41z" />
    <glyph glyph-name="uni044C" unicode="&#x44c;" horiz-adv-x="182" 
d="M69 334h26c48 0 73 -54 73 -167c0 -111 -25 -167 -73 -167h-67v500h41v-166zM69 72h26c21 0 32 28 32 95c0 68 -11 95 -32 95h-26v-190z" />
    <glyph glyph-name="uni044D" unicode="&#x44d;" horiz-adv-x="205" 
d="M144 289c-2 105 -12 147 -44 147c-29 0 -40 -38 -40 -122v-8h-40v8c0 131 27 195 80 195c62 0 85 -83 85 -259s-23 -259 -85 -259c-54 0 -80 69 -80 205v8h40v-8c0 -91 11 -132 40 -132c33 0 43 44 44 157h-65v68h65z" />
    <glyph glyph-name="uni044E" unicode="&#x44e;" horiz-adv-x="284" 
d="M100 289c4 151 27 220 82 220c60 0 82 -81 82 -259s-22 -259 -82 -259c-55 0 -79 71 -82 226h-31v-217h-41v500h41v-211h31zM141 250c0 -129 9 -186 41 -186c33 0 42 57 42 186s-9 186 -42 186c-32 0 -41 -57 -41 -186z" />
    <glyph glyph-name="uni044F" unicode="&#x44f;" horiz-adv-x="189" 
d="M21 339c0 100 25 161 74 161h66v-500h-41v173h-28l-31 -173h-40l34 197c-22 24 -34 73 -34 142zM61 339c0 -63 12 -99 34 -99h25v188h-25c-22 0 -34 -33 -34 -89z" />
    <glyph glyph-name="uni0452" unicode="&#x452;" 
d="M114 509c47 0 64 -61 64 -205v-363c0 -135 -23 -198 -69 -198h-9v77h9c19 0 29 39 29 121v363c0 92 -7 133 -32 133s-38 -58 -38 -162v-275h-40v610h-21v66h21v74h40v-74h51v-66h-51v-156c10 37 25 55 46 55z" />
    <glyph glyph-name="uni0454" unicode="&#x454;" horiz-adv-x="205" 
d="M145 314c0 84 -11 122 -39 122c-32 0 -43 -42 -45 -147h65v-68h-65c2 -113 12 -157 45 -157c29 0 39 41 39 132v8h40v-8c0 -136 -26 -205 -79 -205c-62 0 -86 83 -86 259s24 259 86 259c52 0 79 -64 79 -195v-8h-40v8z" />
    <glyph glyph-name="uni0455" unicode="&#x455;" horiz-adv-x="186" 
d="M126 134c0 124 -103 90 -103 237c0 73 17 138 71 138c53 0 71 -57 71 -164v-11h-41v11c0 68 -8 91 -30 91c-23 0 -31 -26 -31 -65c0 -124 103 -89 103 -237c0 -81 -19 -143 -73 -143c-52 0 -73 55 -73 167v15h41v-15c0 -71 9 -93 32 -93c25 0 33 25 33 69z" />
    <glyph glyph-name="uni0456" unicode="&#x456;" horiz-adv-x="105" 
d="M72 500v-500h-40v500h40zM53 605c-17 0 -27 22 -27 58c0 37 10 58 27 58s27 -21 27 -58c0 -36 -10 -58 -27 -58z" />
    <glyph glyph-name="uni0457" unicode="&#x457;" horiz-adv-x="99" 
d="M69 500v-500h-40v500h40zM17 605c-18 0 -28 22 -28 58c0 37 10 58 28 58c17 0 27 -21 27 -58c0 -36 -11 -58 -27 -58zM81 605c-18 0 -27 22 -27 58c0 37 9 58 27 58c17 0 27 -21 27 -58c0 -36 -11 -58 -27 -58z" />
    <glyph glyph-name="uni0458" unicode="&#x458;" horiz-adv-x="97" 
d="M-47 -79h40c0 -90 7 -106 18 -106s17 16 17 106v579h41v-579c0 -126 -14 -178 -58 -178c-45 0 -58 57 -58 178zM49 605c-17 0 -27 22 -27 58c0 37 10 58 27 58s27 -21 27 -58c0 -36 -10 -58 -27 -58z" />
    <glyph glyph-name="uni0459" unicode="&#x459;" horiz-adv-x="280" 
d="M172 72h21c21 0 32 28 32 95c0 68 -11 95 -32 95h-21v-190zM131 0v428h-45l-1 -142c-3 -271 -23 -290 -61 -290h-10v81h10c11 0 20 13 22 210l3 213h123v-166h21c48 0 73 -54 73 -167c0 -111 -25 -167 -73 -167h-62z" />
    <glyph glyph-name="uni045A" unicode="&#x45a;" horiz-adv-x="283" 
d="M174 72h22c21 0 32 22 32 74c0 53 -11 73 -32 73h-22v-147zM134 0v219h-65v-219h-41v500h41v-209h65v209h40v-209h22c48 0 73 -47 73 -145s-25 -146 -73 -146h-62z" />
    <glyph glyph-name="uni045B" unicode="&#x45b;" 
d="M68 454c10 37 25 55 46 55c47 0 64 -61 64 -205v-304h-40v304c0 92 -7 133 -32 133s-38 -58 -38 -162v-275h-40v610h-21v66h21v74h40v-74h51v-66h-51v-156z" />
    <glyph glyph-name="uni045F" unicode="&#x45f;" horiz-adv-x="207" 
d="M124 0v-149h-41v149h-55v500h41v-428h70v428h40v-500h-55z" />
    <glyph glyph-name="uni0491" unicode="&#x491;" horiz-adv-x="155" 
d="M28 500h75v149h40v-221h-75v-428h-40v500z" />
    <glyph glyph-name="uni0493" unicode="&#x493;" horiz-adv-x="154" 
d="M111 260v-72h-43v-188h-40v188h-20v72h20v240h114v-72h-74v-168h43z" />
    <glyph glyph-name="uni0497" unicode="&#x497;" horiz-adv-x="274" 
d="M116 218h-21l-41 -218h-42l52 261l-49 239h41l39 -210h21v210h40v-210h21l40 210h40l-49 -239l38 -189h33v-221h-40v149h-21l-41 218h-21v-218h-40v218z" />
    <glyph glyph-name="uni0499" unicode="&#x499;" horiz-adv-x="187" 
d="M111 -6v-143h-41v145c-37 17 -52 79 -52 159v30h40v-30c0 -51 7 -91 34 -91s34 35 34 81c0 42 -6 74 -31 74h-18v72h17c24 0 30 27 30 69c0 47 -6 76 -32 76c-25 0 -31 -33 -31 -86v-26h-41v26c0 97 22 159 72 159c53 0 72 -57 72 -149c0 -52 -10 -87 -33 -105
c25 -18 36 -54 36 -110c0 -73 -17 -135 -56 -151z" />
    <glyph glyph-name="uni049B" unicode="&#x49b;" horiz-adv-x="211" 
d="M70 0h-41v500h41v-209h18l49 209h41l-58 -246l45 -182h37v-221h-40v149h-21l-53 219h-18v-219z" />
    <glyph glyph-name="uni049D" unicode="&#x49d;" horiz-adv-x="233" 
d="M126 80h-40v139h-17v-219h-40v500h40v-209h17v129h40v-129h13l38 209h43l-50 -247l55 -253h-44l-43 219h-12v-139z" />
    <glyph glyph-name="uni04A1" unicode="&#x4a1;" horiz-adv-x="207" 
d="M151 500h43l-58 -246l63 -254h-44l-53 219h-16v-219h-41v428h-41v72h82v-209h16z" />
    <glyph glyph-name="uni04A3" unicode="&#x4a3;" horiz-adv-x="212" 
d="M178 500v-428h21v-221h-40v149h-21v219h-70v-219h-40v500h40v-209h70v209h40z" />
    <glyph glyph-name="uni04AB" unicode="&#x4ab;" horiz-adv-x="202" 
d="M142 314c0 84 -10 122 -38 122c-35 0 -43 -52 -43 -186s8 -186 43 -186c28 0 38 41 38 132v8h40v-8c0 -117 -18 -184 -57 -201v-144h-41v143c-46 18 -64 101 -64 256c0 176 23 259 84 259c52 0 78 -64 78 -195v-8h-40v8z" />
    <glyph glyph-name="uni04AF" unicode="&#x4af;" horiz-adv-x="181" 
d="M70 -250v250l-63 500h41l32 -285l10 -124h3l10 124l32 285h39l-63 -500v-250h-41z" />
    <glyph glyph-name="uni04B1" unicode="&#x4b1;" horiz-adv-x="181" 
d="M70 -60v60l-63 500h41l32 -285l10 -124h3l10 124l32 285h39l-63 -500v-60h41v-72h-41v-118h-41v118h-44v72h44z" />
    <glyph glyph-name="uni04B3" unicode="&#x4b3;" horiz-adv-x="200" 
d="M127 500h42l-54 -239l42 -189h34v-221h-40v149h-21l-24 129l-14 89h-2l-14 -89l-26 -129h-42l58 256l-54 244h43l21 -108l14 -89h2l14 89z" />
    <glyph glyph-name="uni04B7" unicode="&#x4b7;" horiz-adv-x="196" 
d="M61 331c0 -32 7 -70 33 -70h29v239h41v-428h19v-221h-41v149h-19v189h-29c-58 0 -74 70 -74 142v169h41v-169z" />
    <glyph glyph-name="uni04BB" unicode="&#x4bb;" 
d="M68 454c10 37 25 55 46 55c47 0 64 -61 64 -205v-304h-40v304c0 92 -7 133 -32 133s-38 -58 -38 -162v-275h-40v750h40v-296z" />
    <glyph glyph-name="uni04CF" unicode="&#x4cf;" horiz-adv-x="97" 
d="M68 750v-750h-40v750h40z" />
    <glyph glyph-name="uni04D9" unicode="&#x4d9;" horiz-adv-x="192" 
d="M172 250c0 -176 -22 -259 -82 -259c-53 0 -80 70 -80 221v58h121c-1 120 -10 166 -41 166c-29 0 -37 -37 -37 -94v-4h-41v4c0 99 23 167 78 167c60 0 82 -75 82 -259zM90 64c29 0 37 39 41 137h-80v-15c0 -81 13 -122 39 -122z" />
    <glyph glyph-name="uni04E9" unicode="&#x4e9;" horiz-adv-x="208" 
d="M20 250c0 176 23 259 84 259s84 -83 84 -259s-23 -259 -84 -259s-84 83 -84 259zM61 217c2 -110 11 -153 43 -153s41 43 43 153h-86zM104 436c-32 0 -41 -42 -43 -149h86c-2 107 -11 149 -43 149z" />
    <glyph glyph-name="zero" unicode="0" horiz-adv-x="211" 
d="M148 209v284c0 100 -10 143 -43 143s-42 -43 -42 -143v-284c0 -100 9 -143 42 -143s43 43 43 143zM190 493v-284c0 -147 -22 -219 -85 -219s-84 72 -84 219v284c0 148 21 219 84 219s85 -72 85 -219z" />
    <glyph glyph-name="one" unicode="1" horiz-adv-x="190" 
d="M79 76v525l-47 -78h-4v92l51 85h42v-624h50v-76h-152v76h60z" />
    <glyph glyph-name="two" unicode="2" horiz-adv-x="211" 
d="M190 501c0 -86 -18 -178 -75 -307l-51 -117h126v-77h-169v77l62 143c56 124 65 202 65 281c0 99 -10 135 -43 135c-32 0 -42 -41 -42 -140v-55h-42v55c0 146 21 216 84 216c64 0 85 -65 85 -211z" />
    <glyph glyph-name="three" unicode="3" horiz-adv-x="214" 
d="M151 204c0 100 -16 126 -43 126h-19v76l60 218h-80v-124h-41v200h160v-76l-62 -227c42 -11 67 -66 67 -193c0 -162 -32 -215 -85 -215s-85 53 -85 215v45h42v-45c0 -109 13 -139 43 -139s43 30 43 139z" />
    <glyph glyph-name="four" unicode="4" horiz-adv-x="208" 
d="M18 206l47 494h42l-47 -494h75v371h42v-371h17v-76h-17v-130h-42v130h-117v76z" />
    <glyph glyph-name="five" unicode="5" horiz-adv-x="208" 
d="M150 196c0 93 -10 134 -43 134h-79v370h156v-76h-114v-218h37c64 0 85 -69 85 -210c0 -140 -21 -208 -85 -208c-63 0 -84 68 -84 208v15h42v-15c0 -92 9 -132 42 -132s43 40 43 132z" />
    <glyph glyph-name="six" unicode="6" horiz-adv-x="215" 
d="M109 636c-36 0 -46 -41 -46 -140v-125c12 33 29 49 52 49c61 0 82 -70 82 -215s-22 -216 -88 -216s-88 71 -88 215v292c0 146 22 216 88 216s88 -70 88 -216v-15h-42v15c0 99 -10 140 -46 140zM109 344c-31 0 -46 -41 -46 -139v-1c0 -97 10 -139 46 -139s46 42 46 140
s-10 139 -46 139z" />
    <glyph glyph-name="seven" unicode="7" horiz-adv-x="181" 
d="M11 624v76h159v-76l-80 -624h-42l80 624h-117z" />
    <glyph glyph-name="eight" unicode="8" horiz-adv-x="212" 
d="M194 194c0 -137 -22 -204 -88 -204s-87 67 -87 204c0 81 9 134 32 165c-21 29 -29 80 -29 156c0 132 21 197 84 197s84 -65 84 -197c0 -75 -7 -126 -29 -156c25 -31 33 -84 33 -165zM106 66c35 0 46 38 46 128c0 89 -11 127 -46 127s-45 -38 -45 -127
c0 -90 10 -128 45 -128zM106 636c-32 0 -42 -37 -42 -121c0 -85 10 -121 42 -121s42 36 42 121c0 84 -10 121 -42 121z" />
    <glyph glyph-name="nine" unicode="9" horiz-adv-x="215" 
d="M106 65c36 0 46 42 46 140v125c-12 -33 -29 -49 -51 -49c-62 0 -83 71 -83 216s22 215 88 215s88 -70 88 -215v-292c0 -146 -21 -216 -88 -216c-65 0 -88 71 -88 216v15h42v-15c0 -98 10 -140 46 -140zM106 357c31 0 46 42 46 140s-10 139 -46 139
c-35 0 -46 -41 -46 -139s11 -140 46 -140z" />
    <glyph glyph-name="underscore" unicode="_" horiz-adv-x="319" 
d="M28 64h263v-76h-263v76z" />
    <glyph glyph-name="hyphen" unicode="-" horiz-adv-x="160" 
d="M134 304v-76h-108v76h108z" />
    <glyph glyph-name="endash" unicode="&#x2013;" horiz-adv-x="191" 
d="M14 225v83h163v-83h-163z" />
    <glyph glyph-name="emdash" unicode="&#x2014;" horiz-adv-x="255" 
d="M11 225v83h233v-83h-233z" />
    <glyph glyph-name="parenleft" unicode="(" horiz-adv-x="132" 
d="M21 311c0 471 38 561 97 561h4v-76h-4c-32 0 -55 -64 -55 -485s23 -485 55 -485h4v-76h-4c-59 0 -97 90 -97 561z" />
    <glyph glyph-name="parenright" unicode=")" horiz-adv-x="132" 
d="M111 311c0 -471 -38 -561 -97 -561h-4v76h4c32 0 55 64 55 485s-23 485 -55 485h-4v76h4c59 0 97 -90 97 -561z" />
    <glyph glyph-name="bracketleft" unicode="[" horiz-adv-x="122" 
d="M32 -250v1122h80v-76h-38v-970h38v-76h-80z" />
    <glyph glyph-name="bracketright" unicode="]" horiz-adv-x="122" 
d="M90 872v-1122h-80v76h38v970h-38v76h80z" />
    <glyph glyph-name="braceleft" unicode="{" horiz-adv-x="133" 
d="M46 225c0 31 -8 50 -23 50h-9v71h9c15 0 23 18 23 49v351c0 83 22 125 60 125h17v-76h-17c-12 0 -18 -16 -18 -49v-351c0 -39 -8 -68 -24 -85c16 -17 24 -46 24 -85v-350c0 -33 6 -49 18 -49h17v-76h-17c-38 0 -60 42 -60 125v350z" />
    <glyph glyph-name="braceright" unicode="}" horiz-adv-x="133" 
d="M87 225v-350c0 -83 -22 -125 -60 -125h-17v76h17c12 0 18 16 18 49v350c0 39 8 68 24 85c-16 17 -24 46 -24 85v351c0 33 -6 49 -18 49h-17v76h17c38 0 60 -42 60 -125v-351c0 -31 8 -49 23 -49h9v-71h-9c-15 0 -23 -19 -23 -50z" />
    <glyph glyph-name="numbersign" unicode="#" horiz-adv-x="238" 
d="M87 186l-7 -186h-41l7 186h-32v72h35l7 181h-42v72h45l7 189h41l-7 -189h52l7 189h40l-7 -189h32v-72h-35l-7 -181h42v-72h-45l-7 -186h-40l7 186h-52zM97 439l-7 -181h52l7 181h-52z" />
    <glyph glyph-name="percent" unicode="%" horiz-adv-x="269" 
d="M71 459c13 0 21 25 21 92c0 68 -8 93 -21 93c-15 0 -22 -25 -22 -93c0 -67 7 -92 22 -92zM71 392c-38 0 -57 50 -57 159c0 110 19 159 57 159c35 0 56 -49 56 -159c0 -109 -21 -159 -56 -159zM80 0h-41l150 700h41zM199 58c13 0 21 25 21 92s-8 93 -21 93
c-15 0 -22 -25 -22 -93c0 -67 7 -92 22 -92zM199 -9c-38 0 -57 50 -57 159c0 110 19 159 57 159c35 0 56 -50 56 -159s-21 -159 -56 -159z" />
    <glyph glyph-name="perthousand" unicode="&#x2030;" horiz-adv-x="346" 
d="M333 150c0 -109 -20 -159 -57 -159c-17 0 -29 13 -39 39c-9 -26 -22 -39 -38 -39c-38 0 -57 50 -57 159c0 110 19 159 57 159c16 0 28 -12 38 -39c10 26 22 39 39 39c37 0 57 -49 57 -159zM127 551c0 -109 -21 -159 -56 -159c-38 0 -57 50 -57 159c0 110 19 159 57 159
c35 0 56 -49 56 -159zM230 700l-150 -700h-41l150 700h41zM254 150c0 -67 8 -92 22 -92s22 25 22 92c0 68 -8 93 -22 93s-22 -26 -22 -93zM49 551c0 -67 7 -92 22 -92c13 0 21 25 21 92c0 68 -8 93 -21 93c-15 0 -22 -25 -22 -93zM177 150c0 -67 7 -92 22 -92
c13 0 21 25 21 92s-8 93 -21 93c-15 0 -22 -25 -22 -93z" />
    <glyph glyph-name="quotesingle" unicode="'" horiz-adv-x="78" 
d="M50 509h-32v241h42v-35z" />
    <glyph glyph-name="quotedbl" unicode="&#x22;" horiz-adv-x="136" 
d="M50 509h-32v241h42v-35zM108 509h-32v241h42v-35z" />
    <glyph glyph-name="quoteleft" unicode="&#x2018;" horiz-adv-x="86" 
d="M69 750v-196c0 -36 -8 -58 -25 -58s-26 22 -26 58c0 19 4 46 6 64l19 132h26z" />
    <glyph glyph-name="quoteright" unicode="&#x2019;" horiz-adv-x="85" 
d="M16 496v196c0 37 8 58 25 58c18 0 27 -21 27 -58c0 -18 -4 -46 -7 -63l-19 -133h-26z" />
    <glyph glyph-name="quotedblleft" unicode="&#x201c;" horiz-adv-x="161" 
d="M69 750v-196c0 -36 -8 -58 -25 -58s-26 22 -26 58c0 19 4 46 6 64l19 132h26zM144 750v-196c0 -36 -8 -58 -25 -58s-26 22 -26 58c0 19 4 46 6 64l19 132h26z" />
    <glyph glyph-name="quotedblright" unicode="&#x201d;" horiz-adv-x="160" 
d="M16 496v196c0 37 8 58 25 58c18 0 27 -21 27 -58c0 -18 -4 -46 -7 -63l-19 -133h-26zM91 496v196c0 37 8 58 25 58c18 0 27 -21 27 -58c0 -18 -4 -46 -7 -63l-19 -133h-26z" />
    <glyph glyph-name="quotesinglbase" unicode="&#x201a;" horiz-adv-x="85" 
d="M16 -120v196c0 37 8 58 25 58c18 0 27 -21 27 -58c0 -18 -4 -46 -7 -63l-19 -133h-26z" />
    <glyph glyph-name="quotedblbase" unicode="&#x201e;" horiz-adv-x="160" 
d="M16 -120v196c0 37 8 58 25 58c18 0 27 -21 27 -58c0 -18 -4 -46 -7 -63l-19 -133h-26zM91 -120v196c0 37 8 58 25 58c18 0 27 -21 27 -58c0 -18 -4 -46 -7 -63l-19 -133h-26z" />
    <glyph glyph-name="guilsinglleft" unicode="&#x2039;" horiz-adv-x="107" 
d="M58 248l35 -100v-117h-6l-76 219l76 218h6v-117l-35 -101v-2z" />
    <glyph glyph-name="guilsinglright" unicode="&#x203a;" horiz-adv-x="107" 
d="M14 148l35 100v2l-35 101v117h6l76 -218l-76 -219h-6v117z" />
    <glyph glyph-name="guillemotleft" unicode="&#xab;" horiz-adv-x="194" 
d="M58 248l35 -100v-117h-6l-76 219l76 218h6v-117l-35 -101v-2zM145 248l35 -100v-117h-6l-76 219l76 218h6v-117l-35 -101v-2z" />
    <glyph glyph-name="guillemotright" unicode="&#xbb;" horiz-adv-x="194" 
d="M14 148l35 100v2l-35 101v117h6l76 -218l-76 -219h-6v117zM101 148l35 100v2l-35 101v117h6l76 -218l-76 -219h-6v117z" />
    <glyph glyph-name="asterisk" unicode="*" horiz-adv-x="158" 
d="M141 375l-30 -31l-23 101l-8 46h-1l-8 -46l-24 -101l-29 32l41 151l-54 29l6 60l54 -38l-3 172h34l-3 -172l55 38l6 -60l-55 -29z" />
    <glyph glyph-name="dagger" unicode="&#x2020;" horiz-adv-x="169" 
d="M106 0h-42v424h-50v76h50v200h42v-200h49v-76h-49v-424z" />
    <glyph glyph-name="daggerdbl" unicode="&#x2021;" horiz-adv-x="169" 
d="M106 0h-42v172h-50v76h50v176h-50v76h50v200h42v-200h49v-76h-49v-176h49v-76h-49v-172z" />
    <glyph glyph-name="period" unicode="." horiz-adv-x="73" 
d="M11 46c0 37 9 58 26 58c16 0 26 -21 26 -58c0 -36 -10 -58 -26 -58c-17 0 -26 22 -26 58z" />
    <glyph glyph-name="comma" unicode="," horiz-adv-x="73" 
d="M11 -120v196c0 37 8 58 25 58c18 0 27 -21 27 -58c0 -18 -4 -46 -7 -63l-19 -133h-26z" />
    <glyph glyph-name="colon" unicode=":" horiz-adv-x="73" 
d="M11 46c0 37 9 58 26 58c16 0 26 -21 26 -58c0 -36 -10 -58 -26 -58c-17 0 -26 22 -26 58zM11 362c0 37 9 58 26 58c16 0 26 -21 26 -58c0 -36 -10 -58 -26 -58c-17 0 -26 22 -26 58z" />
    <glyph glyph-name="semicolon" unicode=";" horiz-adv-x="73" 
d="M11 -120v196c0 37 8 58 25 58c18 0 27 -21 27 -58c0 -18 -4 -46 -7 -63l-19 -133h-26zM11 362c0 37 9 58 26 58c16 0 26 -21 26 -58c0 -36 -10 -58 -26 -58c-17 0 -26 22 -26 58z" />
    <glyph glyph-name="ellipsis" unicode="&#x2026;" horiz-adv-x="253" 
d="M11 46c0 37 9 58 26 58c16 0 26 -21 26 -58c0 -36 -10 -58 -26 -58c-17 0 -26 22 -26 58zM101 46c0 37 9 58 26 58c16 0 26 -21 26 -58c0 -36 -10 -58 -26 -58c-17 0 -26 22 -26 58zM191 46c0 37 9 58 26 58c16 0 26 -21 26 -58c0 -36 -10 -58 -26 -58
c-17 0 -26 22 -26 58z" />
    <glyph glyph-name="exclam" unicode="!" horiz-adv-x="107" 
d="M33 700h42l-3 -518h-36zM28 46c0 37 9 58 26 58c16 0 26 -21 26 -58c0 -36 -10 -58 -26 -58c-17 0 -26 22 -26 58z" />
    <glyph glyph-name="exclamdown" unicode="&#xa1;" horiz-adv-x="107" 
d="M75 -203h-42l3 518h36zM28 451c0 37 9 58 26 58c16 0 26 -21 26 -58c0 -36 -10 -58 -26 -58c-17 0 -26 22 -26 58z" />
    <glyph glyph-name="question" unicode="?" horiz-adv-x="208" 
d="M188 503c0 -100 -22 -168 -62 -187v-134h-42v196h16c30 0 46 48 46 125c0 81 -15 128 -42 128c-28 0 -42 -42 -42 -118v-45h-42v45c0 126 31 199 84 199s84 -77 84 -209zM105 -12c-17 0 -26 22 -26 58c0 37 9 58 26 58c16 0 26 -21 26 -58c0 -36 -10 -58 -26 -58z" />
    <glyph glyph-name="questiondown" unicode="&#xbf;" horiz-adv-x="208" 
d="M20 -5c0 100 22 168 62 187v134h42v-196h-16c-30 0 -46 -47 -46 -125c0 -81 15 -128 42 -128c28 0 42 42 42 118v45h42v-45c0 -126 -31 -199 -84 -199s-84 77 -84 209zM103 510c17 0 26 -21 26 -58c0 -36 -9 -58 -26 -58c-16 0 -26 22 -26 58c0 37 10 58 26 58z" />
    <glyph glyph-name="slash" unicode="/" horiz-adv-x="152" 
d="M131 700l-68 -700h-42l68 700h42z" />
    <glyph glyph-name="backslash" unicode="\" horiz-adv-x="152" 
d="M89 0l-68 700h42l68 -700h-42z" />
    <glyph glyph-name="fraction" unicode="&#x2044;" horiz-adv-x="280" 
d="M84 0h-41l153 700h41z" />
    <glyph glyph-name="bar" unicode="|" horiz-adv-x="116" 
d="M37 -250v950h42v-950h-42z" />
    <glyph glyph-name="brokenbar" unicode="&#xa6;" horiz-adv-x="122" 
d="M40 -250v416h42v-416h-42zM40 304v396h42v-396h-42z" />
    <glyph glyph-name="at" unicode="@" horiz-adv-x="332" 
d="M314 250c0 -304 -41 -462 -148 -462c-109 0 -147 158 -147 462s38 462 147 462c108 0 148 -158 148 -462zM57 250c0 -253 29 -391 109 -391c79 0 110 136 110 391c0 253 -31 391 -110 391c-80 0 -109 -138 -109 -391zM171 509c44 0 71 -44 71 -157v-352h-41v43
c-10 -32 -24 -52 -44 -52c-39 0 -63 55 -63 146s27 145 73 145h34v70c0 66 -11 85 -30 85c-20 0 -31 -19 -31 -85v-12h-41v12c0 109 27 157 72 157zM135 139c0 -51 10 -76 27 -76c24 0 39 28 39 94v59h-29c-24 0 -37 -25 -37 -77z" />
    <glyph glyph-name="ampersand" unicode="&#x26;" horiz-adv-x="241" 
d="M66 514c0 -74 5 -118 38 -118h117v-76h-25v-128c0 -129 -27 -203 -88 -203c-62 0 -88 74 -88 204c0 80 12 139 39 165c-26 23 -35 78 -35 156c0 140 31 199 84 199c55 0 87 -59 87 -199v-46h-42v46c0 87 -15 123 -45 123c-28 0 -42 -36 -42 -123zM108 65
c30 0 46 39 46 127v128h-50c-30 0 -42 -47 -42 -127c0 -89 16 -128 46 -128z" />
    <glyph glyph-name="section" unicode="&#xa7;" horiz-adv-x="182" 
d="M125 127c0 111 -105 40 -105 223c0 41 8 91 34 117c-21 27 -32 65 -32 104c0 86 21 141 69 141c44 0 71 -43 71 -154v-18h-39v18c0 67 -11 87 -32 87c-25 0 -31 -33 -31 -74c0 -110 102 -39 102 -221c0 -40 -7 -89 -32 -115c23 -28 34 -68 34 -108
c0 -83 -22 -139 -73 -139c-44 0 -72 41 -72 154v18h39v-18c0 -68 11 -86 33 -86c27 0 34 32 34 71zM91 428c-27 0 -34 -35 -34 -78s7 -78 34 -78s34 35 34 78s-7 78 -34 78z" />
    <glyph glyph-name="paragraph" unicode="&#xb6;" horiz-adv-x="221" 
d="M18 482c0 138 29 218 79 218h96v-951h-42v875h-42v-874h-42v525c-31 27 -49 100 -49 207z" />
    <glyph glyph-name="uni2116" unicode="&#x2116;" horiz-adv-x="382" 
d="M302 263c14 0 22 32 22 98s-8 98 -22 98c-15 0 -22 -32 -22 -98s7 -98 22 -98zM302 202c-36 0 -55 50 -55 159c0 110 19 159 55 159c35 0 55 -49 55 -159c0 -109 -20 -159 -55 -159zM182 700h169v-76h-129v-624h-67l-87 624h-2l4 -124v-500h-41v700h67l88 -624h2l-4 124
v500z" />
    <glyph glyph-name="periodcentered" unicode="&#xb7;" horiz-adv-x="73" 
d="M11 262c0 37 9 58 26 58c16 0 26 -21 26 -58c0 -36 -10 -58 -26 -58c-17 0 -26 22 -26 58z" />
    <glyph glyph-name="bullet" unicode="&#x2022;" horiz-adv-x="386" 
d="M193 -9c-94 0 -143 136 -143 360c0 226 49 359 143 359c90 0 143 -133 143 -359c0 -224 -53 -360 -143 -360z" />
    <glyph glyph-name="minute" unicode="&#x2032;" horiz-adv-x="74" 
d="M53 509h-42l10 206v35h42v-35z" />
    <glyph glyph-name="second" unicode="&#x2033;" horiz-adv-x="146" 
d="M53 509h-42l10 206v35h42v-35zM125 509h-42l10 206v35h42v-35z" />
    <glyph glyph-name="plus" unicode="+" horiz-adv-x="193" 
d="M184 395v-76h-66v-182h-42v182h-67v76h67v181h42v-181h66z" />
    <glyph glyph-name="minus" unicode="&#x2212;" horiz-adv-x="179" 
d="M177 395v-76h-175v76h175z" />
    <glyph glyph-name="plusminus" unicode="&#xb1;" horiz-adv-x="179" 
d="M2 437v76h67v171h42v-171h66v-76h-66v-183h-42v183h-67zM2 184h175v-76h-175v76z" />
    <glyph glyph-name="divide" unicode="&#xf7;" horiz-adv-x="179" 
d="M177 405v-76h-175v76h175zM64 169c0 37 9 58 26 58c16 0 26 -21 26 -58c0 -36 -10 -58 -26 -58c-17 0 -26 22 -26 58zM64 564c0 37 9 58 26 58c16 0 26 -21 26 -58c0 -36 -10 -58 -26 -58c-17 0 -26 22 -26 58z" />
    <glyph glyph-name="multiply" unicode="&#xd7;" horiz-adv-x="180" 
d="M66 357l-53 149l32 49l45 -128l45 128l31 -49l-51 -148l52 -150l-32 -48l-45 128l-45 -128l-32 49z" />
    <glyph glyph-name="equal" unicode="=" horiz-adv-x="179" 
d="M177 277v-76h-175v76h175zM177 513v-76h-175v76h175z" />
    <glyph glyph-name="less" unicode="&#x3c;" horiz-adv-x="172" 
d="M7 313v75l140 228h5v-92l-106 -174l106 -175v-92h-5z" />
    <glyph glyph-name="greater" unicode="&#x3e;" horiz-adv-x="172" 
d="M165 388v-75l-140 -230h-5v92l106 175l-106 174v92h5z" />
    <glyph glyph-name="lessequal" unicode="&#x2264;" horiz-adv-x="172" 
d="M7 397v75l140 228h5v-93l-106 -173l106 -176v-91h-5zM7 76h145v-76h-145v76z" />
    <glyph glyph-name="greaterequal" unicode="&#x2265;" horiz-adv-x="172" 
d="M20 608v92h5l140 -228v-75l-140 -230h-5v92l106 175zM20 76h145v-76h-145v76z" />
    <glyph glyph-name="approxequal" unicode="&#x2248;" horiz-adv-x="179" 
d="M124 341c30 0 52 -40 52 -138v-46h-39v46c0 41 -4 58 -16 58c-24 0 -11 -114 -65 -114c-30 0 -53 41 -53 139v45h39v-45c0 -41 5 -59 16 -59c25 0 12 114 66 114zM124 567c30 0 52 -40 52 -138v-46h-39v46c0 41 -4 58 -16 58c-24 0 -11 -114 -65 -114
c-30 0 -53 41 -53 139v45h39v-45c0 -41 5 -59 16 -59c25 0 12 114 66 114z" />
    <glyph glyph-name="dollar" unicode="$" horiz-adv-x="223" 
d="M166 470c0 109 -8 156 -36 165v-237c38 -35 81 -72 81 -210c1 -107 -22 -189 -81 -198v-122h-37v122c-59 8 -80 81 -80 246v18h42v-18c0 -115 9 -161 38 -169v257c-37 34 -77 72 -77 204c0 92 19 174 77 184v110h37v-110c59 -9 78 -88 78 -242v-18h-42v18zM169 188
c0 61 -17 90 -39 113v-234c28 9 39 53 39 121zM58 528c0 -55 15 -84 35 -107v214c-24 -10 -35 -52 -35 -107z" />
    <glyph glyph-name="cent" unicode="&#xa2;" horiz-adv-x="216" 
d="M20 250c0 163 20 246 71 258v142h37v-142c45 -8 68 -72 68 -194v-8h-40v8c0 73 -8 111 -28 120v-368c20 9 28 51 28 130v8h40v-8c0 -127 -22 -196 -68 -204v-142h-37v142c-51 12 -71 95 -71 258zM61 250c0 -116 6 -170 30 -183v366c-24 -13 -30 -67 -30 -183z" />
    <glyph glyph-name="sterling" unicode="&#xa3;" horiz-adv-x="237" 
d="M63 187v92h-21v72h21v160c0 124 17 201 75 201s76 -67 76 -242v-19h-42v19c0 129 -7 166 -34 166c-25 0 -33 -41 -33 -125v-160h52v-72h-52v-92c0 -49 -6 -86 -17 -111h125v-76h-185v76h6c20 0 29 23 29 111z" />
    <glyph glyph-name="yen" unicode="&#xa5;" horiz-adv-x="228" 
d="M166 700h43l-62 -406h44v-78h-28v-184h-98v184h-28v78h42l-61 406h44l39 -269l12 -112h2l12 112z" />
    <glyph glyph-name="Euro" unicode="&#x20ac;" horiz-adv-x="252" 
d="M127 712c64 0 104 -91 104 -280v-15h-42v15c0 133 -22 204 -62 204c-37 0 -57 -64 -65 -175h91l-14 -76h-80v-35v-25h70l-14 -75h-53c6 -118 27 -186 65 -186c40 0 62 76 62 216v16h42v-16c0 -197 -39 -292 -104 -292c-63 0 -98 89 -108 262h-19v75h17v25v35h-17v76h20
c10 165 46 251 107 251z" />
    <glyph glyph-name="uni20B4" unicode="&#x20b4;" horiz-adv-x="217" 
d="M21 157c0 33 5 65 16 90h-30v76h203v-76h-115c-23 0 -32 -47 -32 -90c0 -51 14 -93 46 -93c33 0 47 45 47 90v13h42v-13c0 -87 -27 -166 -89 -166c-61 0 -88 76 -88 169zM198 544c0 -32 -5 -62 -16 -85h28v-76h-203v76h116c23 0 33 42 33 85c0 51 -14 92 -47 92
c-32 0 -46 -45 -46 -90v-13h-42v13c0 87 27 166 88 166c62 0 89 -75 89 -168z" />
    <glyph glyph-name="uni20B8" unicode="&#x20b8;" horiz-adv-x="202" 
d="M8 444v76h186v-76h-72v-444h-42v444h-72zM194 624h-186v76h186v-76z" />
    <glyph glyph-name="asciicircum" unicode="^" horiz-adv-x="174" 
d="M162 387v-36h-37l-26 144l-11 84h-2l-10 -84l-27 -144h-37v36l63 313h24z" />
    <glyph glyph-name="acute" unicode="&#xb4;" horiz-adv-x="94" 
d="M13 577l23 173h45l-36 -173h-32z" />
    <glyph glyph-name="grave" unicode="`" horiz-adv-x="82" 
d="M75 577h-32l-36 173h44z" />
    <glyph glyph-name="hungarumlaut" unicode="&#x2dd;" horiz-adv-x="181" 
d="M54 577h-33l17 173h44zM126 577h-33l24 173h44z" />
    <glyph glyph-name="circumflex" unicode="&#x2c6;" horiz-adv-x="162" 
d="M50 577h-39l56 173h29l55 -173h-38l-32 106z" />
    <glyph glyph-name="caron" unicode="&#x2c7;" horiz-adv-x="162" 
d="M112 750h39l-56 -173h-29l-55 173h38l32 -106z" />
    <glyph glyph-name="breve" unicode="&#x2d8;" horiz-adv-x="182" 
d="M91 637c20 0 29 27 29 102v11h41v-11c0 -126 -27 -172 -70 -172s-70 46 -70 172v11h41v-11c0 -75 10 -102 29 -102z" />
    <glyph glyph-name="tilde" unicode="&#x2dc;" horiz-adv-x="193" 
d="M68 567c-28 0 -47 35 -47 136v47h39v-57c0 -36 2 -53 9 -53c21 0 8 120 57 120c28 0 46 -34 46 -135v-48h-38v58c0 36 -2 53 -10 53c-21 0 -7 -121 -56 -121z" />
    <glyph glyph-name="macron" unicode="&#xaf;" horiz-adv-x="182" 
d="M161 627h-140v72h140v-72z" />
    <glyph glyph-name="dieresis" unicode="&#xa8;" horiz-adv-x="187" 
d="M54 605c-17 0 -27 22 -27 58c0 37 10 58 27 58c16 0 26 -21 26 -58c0 -36 -10 -58 -26 -58zM134 605c-17 0 -26 22 -26 58c0 37 9 58 26 58s27 -21 27 -58c0 -36 -10 -58 -27 -58z" />
    <glyph glyph-name="dotaccent" unicode="&#x2d9;" horiz-adv-x="98" 
d="M49 605c-17 0 -27 22 -27 58c0 37 10 58 27 58s27 -21 27 -58c0 -36 -10 -58 -27 -58z" />
    <glyph glyph-name="ring" unicode="&#x2da;" horiz-adv-x="154" 
d="M78 506c-37 0 -56 50 -56 159c0 110 19 159 56 159c35 0 55 -49 55 -159c0 -109 -20 -159 -55 -159zM78 573c13 0 21 25 21 92c0 68 -8 93 -21 93c-15 0 -22 -25 -22 -93c0 -67 7 -92 22 -92z" />
    <glyph glyph-name="cedilla" unicode="&#xb8;" horiz-adv-x="87" 
d="M42 -102c0 34 -2 48 -13 48h-6v87h31v-53c18 -17 23 -54 23 -97c0 -83 -18 -105 -43 -105c-6 0 -12 1 -19 6v71c4 -3 7 -4 12 -4c10 0 15 7 15 47z" />
    <glyph glyph-name="ogonek" unicode="&#x2db;" horiz-adv-x="87" 
d="M57 39l4 -39c-9 -9 -13 -31 -13 -66c0 -48 6 -60 16 -60c3 0 7 1 9 3v-72c-5 -4 -10 -5 -18 -5c-24 0 -40 30 -40 119c0 59 17 101 42 120z" />
    <glyph glyph-name="copyright" unicode="&#xa9;" horiz-adv-x="333" 
d="M167 -141c79 0 109 136 109 391c0 253 -31 391 -109 391c-80 0 -110 -138 -110 -391s30 -391 110 -391zM167 -212c-110 0 -148 158 -148 462s38 462 148 462c107 0 147 -158 147 -462s-40 -462 -147 -462zM167 436c-35 0 -43 -52 -43 -186s8 -186 43 -186
c28 0 38 41 38 132v8h40v-8c0 -136 -26 -205 -78 -205c-61 0 -84 83 -84 259s23 259 84 259c51 0 78 -64 78 -195v-8h-40v8c0 84 -11 122 -38 122z" />
    <glyph glyph-name="uni24C5" unicode="&#x24c5;" horiz-adv-x="332" 
d="M145 148v-148h-41v500h67c48 0 74 -67 74 -176c0 -111 -26 -176 -74 -176h-26zM145 428v-208h26c21 0 33 38 33 104c0 65 -12 104 -33 104h-26zM166 -141c79 0 110 136 110 391c0 253 -31 391 -110 391c-80 0 -109 -138 -109 -391s29 -391 109 -391zM166 -212
c-109 0 -147 158 -147 462s38 462 147 462c108 0 148 -158 148 -462s-41 -462 -148 -462z" />
    <glyph glyph-name="registered" unicode="&#xae;" horiz-adv-x="333" 
d="M314 250c0 -304 -40 -462 -147 -462c-110 0 -148 158 -148 462s38 462 148 462c107 0 147 -158 147 -462zM57 250c0 -253 30 -391 110 -391c79 0 109 136 109 391c0 253 -31 391 -109 391c-80 0 -110 -138 -110 -391zM239 324c0 -69 -12 -118 -36 -142l39 -182h-44
l-32 158h-27v-158h-40v500h66c49 0 74 -67 74 -176zM198 324c0 65 -10 104 -33 104h-26v-208h26c23 0 33 38 33 104z" />
    <glyph glyph-name="trademark" unicode="&#x2122;" horiz-adv-x="289" 
d="M41 633h-34v67h152l31 -207l30 207h49v-351h-36v242l-30 -200h-27l-30 195v-237h-35v284h-35v-284h-35v284z" />
    <glyph glyph-name="degree" unicode="&#xb0;" horiz-adv-x="132" 
d="M67 459c13 0 21 25 21 92c0 68 -8 93 -21 93c-15 0 -22 -25 -22 -93c0 -67 7 -92 22 -92zM67 392c-39 0 -57 50 -57 159c0 110 18 159 57 159c36 0 56 -49 56 -159c0 -109 -20 -159 -56 -159z" />
    <glyph glyph-name="uniF6C3" unicode="&#xf6c3;" horiz-adv-x="85" 
d="M42 782h25v-137c0 -35 -8 -56 -25 -56c-16 0 -25 21 -25 56c0 19 4 47 10 69z" />
    <glyph glyph-name="uniF6C9" unicode="&#xf6c9;" horiz-adv-x="106" 
d="M18 780l19 219h51l-35 -219h-35z" />
    <glyph glyph-name="uniF6CA" unicode="&#xf6ca;" horiz-adv-x="211" 
d="M89 780l-68 219h42l43 -144l42 144h42l-68 -219h-33z" />
    <glyph glyph-name="uniF6CB" unicode="&#xf6cb;" horiz-adv-x="212" 
d="M153 829c-18 0 -27 22 -27 60s9 60 27 60c17 0 27 -22 27 -60s-10 -60 -27 -60zM59 829c-17 0 -27 22 -27 60s10 60 27 60s27 -22 27 -60s-10 -60 -27 -60z" />
    <glyph glyph-name="uniF6CE" unicode="&#xf6ce;" horiz-adv-x="106" 
d="M88 780h-35l-35 219h51z" />
    <glyph glyph-name="uniF6CF" unicode="&#xf6cf;" horiz-adv-x="215" 
d="M60 780h-35l20 219h51zM148 780h-36l27 219h51z" />
    <glyph glyph-name="uniF6D0" unicode="&#xf6d0;" horiz-adv-x="211" 
d="M183 851h-155v76h155v-76z" />
    <glyph glyph-name="uni20BD" unicode="&#x20bd;" horiz-adv-x="209" 
d="M193 486c0 -145 -32 -214 -89 -214h-34v-62h99v-76h-99v-134h-42v134h-28v76h28v62h-28v76h28v352h76c57 0 89 -69 89 -214zM151 486c0 98 -16 138 -47 138h-34v-276h34c31 0 47 41 47 138z" />
    <glyph glyph-name="Breve" horiz-adv-x="211" 
d="M106 846c33 0 42 45 42 138v15h42v-15c0 -138 -22 -214 -84 -214c-63 0 -85 76 -85 214v15h42v-15c0 -93 10 -138 43 -138z" />
    <glyph glyph-name="Cedilla" horiz-adv-x="101" 
d="M50 -108c0 29 -3 42 -14 42h-9v105h36v-62c18 -13 23 -51 23 -97c0 -81 -19 -117 -46 -117c-7 0 -14 2 -22 7v77c6 -4 11 -6 16 -6c11 0 16 14 16 51z" />
    <glyph glyph-name="Circumflex" horiz-adv-x="211" 
d="M63 780h-42l68 219h33l68 -219h-42l-42 144z" />
    <glyph glyph-name="Dotaccent" horiz-adv-x="118" 
d="M59 829c-17 0 -27 22 -27 60s10 60 27 60s27 -22 27 -60s-10 -60 -27 -60z" />
    <glyph glyph-name="Ogonek" horiz-adv-x="115" 
d="M69 38l12 -38c-12 -23 -17 -58 -17 -104c0 -44 7 -55 16 -55c7 0 11 2 15 6v-77c-8 -5 -15 -7 -21 -7c-29 0 -46 30 -46 112c0 84 16 130 41 163z" />
    <glyph glyph-name="Tilde" horiz-adv-x="212" 
d="M141 1009c34 0 57 -37 57 -163v-66h-40v79c0 48 -5 67 -17 67c-25 0 -10 -156 -70 -156c-34 0 -57 37 -57 164v65h41v-78c0 -49 4 -68 16 -68c26 0 10 156 70 156z" />
    <glyph glyph-name="idotaccent" horiz-adv-x="97" 
d="M69 500v-500h-40v500h40zM50 605c-17 0 -27 22 -27 58c0 37 10 58 27 58s27 -21 27 -58c0 -36 -10 -58 -27 -58z" />
    <glyph glyph-name="undercommaaccent" horiz-adv-x="82" 
d="M42 -259h-25v137c0 35 9 56 25 56s25 -21 25 -56c0 -19 -4 -47 -9 -69z" />
    <glyph glyph-name="hyphen.uc" horiz-adv-x="160" 
d="M134 395v-76h-108v76h108z" />
    <glyph glyph-name="endash.uc" horiz-adv-x="191" 
d="M14 315v83h163v-83h-163z" />
    <glyph glyph-name="emdash.uc" horiz-adv-x="255" 
d="M11 315v83h233v-83h-233z" />
    <glyph glyph-name="guillemotleft.uc" horiz-adv-x="194" 
d="M58 348l35 -100v-117h-6l-76 219l76 218h6v-117l-35 -101v-2zM145 348l35 -100v-117h-6l-76 219l76 218h6v-117l-35 -101v-2z" />
    <glyph glyph-name="guillemotright.uc" horiz-adv-x="194" 
d="M14 247l35 100v2l-35 101v117h6l76 -218l-76 -219h-6v117zM101 248l35 100v2l-35 101v117h6l76 -218l-76 -219h-6v117z" />
    <glyph glyph-name="at.uc" horiz-adv-x="330" 
d="M313 350c0 -304 -40 -462 -147 -462c-110 0 -148 158 -148 462s38 462 148 462c107 0 147 -158 147 -462zM56 350c0 -253 30 -391 110 -391c79 0 109 137 109 391c0 253 -31 391 -109 391c-80 0 -110 -138 -110 -391zM170 609c44 0 71 -44 71 -157v-352h-41v43
c-10 -32 -24 -52 -44 -52c-39 0 -63 55 -63 146s28 145 73 145h34v70c0 66 -11 85 -30 85c-20 0 -31 -19 -31 -85v-12h-41v12c0 109 27 157 72 157zM134 239c0 -51 10 -76 27 -76c24 0 39 28 39 94v59h-29c-23 0 -37 -25 -37 -77z" />
    <glyph glyph-name="exclamdown.uc" horiz-adv-x="107" 
d="M75 0h-42l3 518h36zM28 654c0 37 9 58 26 58c16 0 26 -21 26 -58c0 -36 -10 -58 -26 -58c-17 0 -26 22 -26 58z" />
    <glyph glyph-name="questiondown.uc" horiz-adv-x="208" 
d="M20 197c0 100 22 168 62 187v134h42v-196h-16c-30 0 -46 -47 -46 -125c0 -81 15 -128 42 -128c28 0 42 43 42 118v45h42v-45c0 -126 -31 -199 -84 -199s-84 77 -84 209zM103 712c17 0 26 -21 26 -58c0 -36 -9 -58 -26 -58c-16 0 -26 22 -26 58c0 37 10 58 26 58z" />
    <glyph glyph-name="uni0414.bgr" horiz-adv-x="265" 
d="M251 76v-275h-42v199h-153v-199h-42v275h22l68 624h58l68 -624h21zM76 76h111l-46 429l-8 116h-2l-9 -116z" />
    <glyph glyph-name="uni0416.bgr" horiz-adv-x="344" 
d="M281 700h43l-70 -333l78 -367h-43l-66 330h-30v-330h-42v330h-29l-67 -330h-43l78 370l-69 330h43l58 -294h29v294h42v-294h29z" />
    <glyph glyph-name="uni041A.bgr" horiz-adv-x="227" 
d="M30 0v700h42v-304h24l69 304h42l-77 -342l85 -358h-44l-75 320h-24v-320h-42z" />
    <glyph glyph-name="uni041B.bgr" horiz-adv-x="232" 
d="M85 700h62l71 -700h-42l-51 515l-10 119h-2l-9 -119l-51 -515h-39z" />
    <glyph glyph-name="uni0432.bgr" horiz-adv-x="200" 
d="M105 -10c-48 0 -77 61 -77 196v357c0 163 27 217 74 217c46 0 74 -54 74 -217c0 -86 -11 -149 -36 -181c27 -31 42 -100 42 -176c0 -135 -29 -196 -77 -196zM102 686c-22 0 -33 -25 -33 -143v-151h28c30 0 39 55 39 151c0 118 -12 143 -34 143zM141 186
c0 84 -10 139 -33 139h-39v-139c0 -88 13 -121 36 -121c24 0 36 33 36 121z" />
    <glyph glyph-name="uni0433.bgr" horiz-adv-x="186" 
d="M60 134c0 -44 8 -69 33 -69c23 0 32 22 32 93v15h41v-15c0 -112 -20 -167 -73 -167s-73 62 -73 143c0 148 103 113 103 237c0 39 -7 65 -30 65c-22 0 -31 -23 -31 -91v-11h-41v11c0 107 18 164 72 164c53 0 70 -65 70 -138c0 -147 -103 -113 -103 -237z" />
    <glyph glyph-name="uni0434.bgr" horiz-adv-x="214" 
d="M20 250c0 179 21 259 76 259c23 0 39 -20 49 -59v50h40v-559c0 -146 -27 -200 -82 -200s-82 54 -82 200h40c0 -95 14 -126 42 -126c29 0 42 31 42 126v109c-10 -39 -26 -59 -49 -59c-55 0 -76 81 -76 259zM102 64c28 0 43 59 43 161v50c0 103 -15 161 -43 161
c-32 0 -41 -53 -41 -186c0 -132 9 -186 41 -186z" />
    <glyph glyph-name="uni0436.bgr" horiz-adv-x="273" 
d="M54 0h-42l52 261l-49 239h41l39 -210h21v460h40v-460h21l40 210h40l-49 -239l53 -261h-43l-41 218h-21v-218h-40v218h-21z" />
    <glyph glyph-name="uni0437.bgr" horiz-adv-x="182" 
d="M85 435c-28 0 -36 -40 -36 -119v-36h-40v36c0 124 23 194 76 194c54 0 77 -70 77 -196c0 -80 -10 -132 -30 -160c22 -31 32 -93 32 -188c0 -147 -24 -226 -79 -226c-54 0 -79 79 -79 226v37h41v-37c0 -97 8 -152 38 -152c31 0 39 52 39 152c0 87 -9 153 -39 153h-27v72
h27c30 0 36 47 36 123c0 81 -7 121 -36 121z" />
    <glyph glyph-name="uni0438.bgr" 
d="M138 44c-10 -35 -25 -53 -46 -53c-47 0 -64 61 -64 205v304h40v-304c0 -91 7 -132 32 -132s38 58 38 161v275h40v-500h-40v44z" />
    <glyph glyph-name="uni0439.bgr" 
d="M138 44c-10 -35 -25 -53 -46 -53c-47 0 -64 61 -64 205v304h40v-304c0 -91 7 -132 32 -132s38 58 38 161v275h40v-500h-40v44zM73 739c0 -75 10 -102 29 -102c20 0 29 27 29 102v11h41v-11c0 -126 -27 -172 -70 -172s-70 46 -70 172v11h41v-11z" />
    <glyph glyph-name="uni043A.bgr" horiz-adv-x="189" 
d="M68 0h-40v750h40v-459h20l47 209h41l-58 -246l63 -254h-42l-51 219h-20v-219z" />
    <glyph glyph-name="uni043B.bgr" horiz-adv-x="177" 
d="M112 500l60 -500h-41l-32 290l-10 134h-3l-10 -134l-32 -290h-39l60 500h47z" />
    <glyph glyph-name="uni043C.bgr" horiz-adv-x="304" 
d="M68 455c10 36 24 54 44 54c26 0 42 -21 51 -66c10 44 28 66 53 66c44 0 60 -61 60 -205v-304h-40v304c0 92 -5 133 -29 133c-23 0 -35 -58 -35 -162v-275h-40v304c0 92 -5 133 -29 133c-23 0 -35 -58 -35 -162v-275h-40v500h40v-45z" />
    <glyph glyph-name="uni043F.bgr" 
d="M68 452c10 38 25 57 47 57c47 0 63 -57 63 -205v-304h-40v304c0 97 -7 133 -30 133c-26 0 -40 -49 -40 -162v-275h-40v500h40v-48z" />
    <glyph glyph-name="uni0446.bgr" horiz-adv-x="212" 
d="M138 44c-10 -35 -25 -53 -46 -53c-47 0 -64 61 -64 205v304h40v-304c0 -91 7 -132 32 -132s38 58 38 161v275h40v-428h21v-221h-40v149h-21v44z" />
    <glyph glyph-name="uni0448.bgr" horiz-adv-x="305" 
d="M237 41c-10 -33 -24 -50 -43 -50c-26 0 -42 21 -52 66c-10 -44 -27 -66 -52 -66c-45 0 -61 61 -61 205v304h40v-304c0 -92 6 -133 29 -133s35 59 35 162v275h40v-304c0 -92 6 -133 29 -133s35 59 35 162v275h40v-500h-40v41z" />
    <glyph glyph-name="uni0449.bgr" horiz-adv-x="311" 
d="M237 41c-10 -33 -24 -50 -43 -50c-26 0 -42 21 -52 66c-10 -44 -27 -66 -52 -66c-45 0 -61 61 -61 205v304h40v-304c0 -92 6 -133 29 -133s35 59 35 162v275h40v-304c0 -92 6 -133 29 -133s35 59 35 162v275h40v-428h21v-221h-40v149h-21v41z" />
    <glyph glyph-name="uni044A.bgr" horiz-adv-x="199" 
d="M86 260v-99c0 -76 9 -98 29 -98s29 22 29 98c0 64 -10 99 -33 99h-25zM45 428h-41v72h82v-168h25c50 0 74 -63 74 -171c0 -121 -23 -171 -70 -171c-46 0 -70 50 -70 171v267z" />
    <glyph glyph-name="uni044B.bgr" horiz-adv-x="260" 
d="M69 260v-99c0 -76 9 -98 29 -98s29 22 29 98c0 64 -10 99 -33 99h-25zM28 161v339h41v-168h25c50 0 74 -63 74 -171c0 -121 -23 -171 -70 -171s-70 50 -70 171zM232 500v-500h-41v500h41z" />
    <glyph glyph-name="uni044C.bgr" horiz-adv-x="182" 
d="M69 260v-99c0 -76 9 -98 29 -98s29 22 29 98c0 64 -10 99 -33 99h-25zM28 161v339h41v-168h25c50 0 74 -63 74 -171c0 -121 -23 -171 -70 -171s-70 50 -70 171z" />
    <glyph glyph-name="uni044E.bgr" horiz-adv-x="284" 
d="M100 289c4 151 27 220 82 220c60 0 82 -81 82 -259s-22 -259 -82 -259c-55 0 -79 71 -82 226h-31v-217h-41v750h41v-461h31zM141 250c0 -129 9 -186 41 -186c33 0 42 57 42 186s-9 186 -42 186c-32 0 -41 -57 -41 -186z" />
    <glyph glyph-name="uni04C1" unicode="&#x4c1;" horiz-adv-x="344" 
d="M281 700h43l-70 -333l78 -367h-43l-66 330h-30v-330h-42v330h-29l-67 -330h-43l78 370l-69 330h43l58 -294h29v294h42v-294h29zM130 984c0 -93 10 -138 43 -138s42 45 42 138v15h42v-15c0 -138 -22 -214 -84 -214c-63 0 -85 76 -85 214v15h42v-15z" />
    <glyph glyph-name="uni04E2" unicode="&#x4e2;" horiz-adv-x="255" 
d="M157 700h68v-700h-41v500l3 124h-2l-86 -624h-69v700h42v-500l-3 -124h2zM205 851h-155v76h155v-76z" />
    <glyph glyph-name="uni04E6" unicode="&#x4e6;" horiz-adv-x="258" 
d="M188 350c0 177 -17 283 -62 283c-44 0 -62 -106 -62 -283c0 -176 18 -283 62 -283c45 0 62 107 62 283zM22 350c0 251 34 359 104 359c71 0 104 -108 104 -359s-33 -359 -104 -359c-70 0 -104 108 -104 359zM176 829c-18 0 -27 22 -27 60s9 60 27 60c17 0 27 -22 27 -60
s-10 -60 -27 -60zM82 829c-17 0 -27 22 -27 60s10 60 27 60s27 -22 27 -60s-10 -60 -27 -60z" />
    <glyph glyph-name="uni04EE" unicode="&#x4ee;" horiz-adv-x="214" 
d="M50 700l50 -303l11 -93h2l9 93l42 303h38l-71 -501c-25 -180 -40 -203 -80 -203h-5v81h5c18 0 28 10 44 119l-85 504h40zM185 851h-155v76h155v-76z" />
    <glyph glyph-name="uni04F2" unicode="&#x4f2;" horiz-adv-x="214" 
d="M50 700l50 -303l11 -93h2l9 93l42 303h38l-71 -501c-25 -180 -40 -203 -80 -203h-5v81h5c18 0 28 10 44 119l-85 504h40zM80 780h-35l20 219h51zM168 780h-36l27 219h51z" />
    </font>
</defs>
</svg>
