<?xml version="1.0" standalone="no"?>
<!DOCTYPE svg PUBLIC "-//W3C//DTD SVG 1.1//EN" "http://www.w3.org/Graphics/SVG/1.1/DTD/svg11.dtd" >
<svg xmlns="http://www.w3.org/2000/svg" xmlns:xlink="http://www.w3.org/1999/xlink" version="1.1">
<metadata>
Created by FontForge 20190801 at Wed Nov  6 22:53:13 2019
 By Jimmy Wärting
\(c\) Nikita Kanarev Fonts, 2018
</metadata>
<defs>
<font id="Archaism-Ct0Wd50" horiz-adv-x="397" >
  <font-face 
    font-family="Archaism"
    font-weight="150"
    font-stretch="normal"
    units-per-em="1000"
    panose-1="0 0 0 0 0 0 0 0 0 0"
    ascent="750"
    descent="-250"
    x-height="500"
    cap-height="700"
    bbox="-90 -278 1048 1143"
    underline-thickness="50"
    underline-position="-100"
    stemh="76"
    stemv="74"
    unicode-range="U+000D-FB02"
  />
<missing-glyph horiz-adv-x="1068" 
d="M365 425l-59 -60s-3 -9 -10 -16c-33 -34 -89 -35 -126 -65c20 -27 77 -84 118 -118c24 43 23 104 51 131c2 3 5 4 9 4c7 0 15 -5 20 -8c1 -1 2 -1 4 -1s4 1 5 2l-21 21l59 60zM520 238c-35 36 -45 67 -45 67l-61 60l-49 -50l74 -74c45 -44 108 -88 150 -130
c33 -32 60 -68 68 -90l15 -8l40 40c-9 15 -29 39 -58 69c-57 56 -83 67 -134 116zM757 380l-49 49l-7 -5l50 -50zM572 200c17 13 33 27 121 115l-50 50l-60 -60s-11 -31 -50 -70c14 -15 27 -26 39 -35zM762 349c-7 7 -10 16 -10 16l-60 60l-50 -50l59 -60l-21 -21
c1 -1 3 -2 5 -2c1 0 2 0 3 1c5 3 14 8 21 8c4 0 7 -1 10 -4c27 -27 27 -88 51 -131c40 34 98 91 118 118c-38 30 -93 31 -126 65zM524 161l-39 32c-24 -20 -47 -38 -81 -71c-30 -30 -49 -54 -59 -69l41 -40l14 8c20 48 83 105 124 140zM350 429l-50 -49l6 -6l50 50z
M524 -278l-504 504v19l505 505h19l504 -504v-18l-505 -506h-19z" />
    <glyph glyph-name="fb" unicode="fb" horiz-adv-x="653" 
d="M68 595c0 104 46 155 137 155h178v-299c20 39 50 58 93 58c101 0 147 -81 147 -259s-46 -259 -147 -259c-43 0 -73 19 -93 58v-49h-78v673h-100c-44 0 -59 -27 -59 -78v-95h82v-72h-82v-428h-78v428h-40v72h40v95zM464 436c-54 0 -81 -58 -81 -161v-50
c0 -102 27 -161 81 -161c60 0 81 54 81 186s-21 186 -81 186z" />
    <glyph glyph-name="fh" unicode="fh" horiz-adv-x="648" 
d="M68 595c0 104 46 155 137 155h178v-297c19 37 48 56 89 56c86 0 124 -61 124 -205v-304h-78v304c0 92 -17 133 -62 133c-48 0 -73 -58 -73 -162v-275h-78v673h-100c-44 0 -59 -27 -59 -78v-95h82v-72h-82v-428h-78v428h-40v72h40v95z" />
    <glyph glyph-name="fj" unicode="fj" horiz-adv-x="437" 
d="M225 760c100 0 158 -62 158 -198v-9h-78v9c0 90 -27 124 -80 124s-79 -34 -79 -124v-62h82v-72h-82v-428h-78v428h-40v72h40v62c0 136 58 198 157 198zM272 -257c-79 0 -111 57 -111 178h78c0 -90 12 -106 33 -106s32 16 32 106v579h79v-579c0 -126 -33 -178 -111 -178z
" />
    <glyph glyph-name="fk" unicode="fk" horiz-adv-x="618" 
d="M68 595c0 104 46 155 137 155h178v-459h40l84 209h85l-105 -245l114 -255h-87l-91 219h-40v-219h-78v673h-100c-44 0 -59 -27 -59 -78v-95h82v-72h-82v-428h-78v428h-40v72h40v95z" />
    <glyph glyph-name="ft" unicode="ft" horiz-adv-x="538" 
d="M398 64c22 0 35 15 35 105h78c0 -116 -33 -178 -113 -178s-113 52 -113 178v259h-139v-428h-78v428h-40v72h40v95c0 104 46 155 137 155h32v-77h-32c-44 0 -59 -27 -59 -78v-95h139l17 107h61v-107h103v-72h-103v-259c0 -90 12 -105 35 -105z" />
    <glyph glyph-name="fi" unicode="fi" horiz-adv-x="437" 
d="M225 760c100 0 158 -62 158 -198v-9h-78v9c0 90 -27 124 -80 124s-79 -34 -79 -124v-62h82v-72h-82v-428h-78v428h-40v72h40v62c0 136 58 198 157 198zM305 500h78v-500h-78v500z" />
    <glyph glyph-name="fl" unicode="fl" horiz-adv-x="437" 
d="M68 595c0 104 46 155 137 155h178v-750h-78v673h-100c-44 0 -59 -27 -59 -78v-95h82v-72h-82v-428h-78v428h-40v72h40v95z" />
    <glyph glyph-name=".notdef" horiz-adv-x="1068" 
d="M365 425l-59 -60s-3 -9 -10 -16c-33 -34 -89 -35 -126 -65c20 -27 77 -84 118 -118c24 43 23 104 51 131c2 3 5 4 9 4c7 0 15 -5 20 -8c1 -1 2 -1 4 -1s4 1 5 2l-21 21l59 60zM520 238c-35 36 -45 67 -45 67l-61 60l-49 -50l74 -74c45 -44 108 -88 150 -130
c33 -32 60 -68 68 -90l15 -8l40 40c-9 15 -29 39 -58 69c-57 56 -83 67 -134 116zM757 380l-49 49l-7 -5l50 -50zM572 200c17 13 33 27 121 115l-50 50l-60 -60s-11 -31 -50 -70c14 -15 27 -26 39 -35zM762 349c-7 7 -10 16 -10 16l-60 60l-50 -50l59 -60l-21 -21
c1 -1 3 -2 5 -2c1 0 2 0 3 1c5 3 14 8 21 8c4 0 7 -1 10 -4c27 -27 27 -88 51 -131c40 34 98 91 118 118c-38 30 -93 31 -126 65zM524 161l-39 32c-24 -20 -47 -38 -81 -71c-30 -30 -49 -54 -59 -69l41 -40l14 8c20 48 83 105 124 140zM350 429l-50 -49l6 -6l50 50z
M524 -278l-504 504v19l505 505h19l504 -504v-18l-505 -506h-19z" />
    <glyph glyph-name="uni0000" horiz-adv-x="0" 
 />
    <glyph glyph-name="uni0000" horiz-adv-x="0" 
 />
    <glyph glyph-name="uni000D" unicode="&#xd;" horiz-adv-x="250" 
 />
    <glyph glyph-name="space" unicode=" " horiz-adv-x="205" 
 />
    <glyph glyph-name="uni2009" unicode="&#x2009;" horiz-adv-x="50" 
 />
    <glyph glyph-name="A" unicode="A" horiz-adv-x="434" 
d="M303 144h-174l-27 -144h-80l134 700h121l137 -700h-84zM142 220h147l-53 280l-20 130h-2l-19 -130z" />
    <glyph glyph-name="Agrave" unicode="&#xc0;" horiz-adv-x="434" 
d="M303 144h-174l-27 -144h-80l134 700h121l137 -700h-84zM142 220h147l-53 280l-20 130h-2l-19 -130zM215 999l37 -219h-68l-68 219h99z" />
    <glyph glyph-name="Aacute" unicode="&#xc1;" horiz-adv-x="434" 
d="M303 144h-174l-27 -144h-80l134 700h121l137 -700h-84zM142 220h147l-53 280l-20 130h-2l-19 -130zM252 780h-68l37 219h99z" />
    <glyph glyph-name="Acircumflex" unicode="&#xc2;" horiz-adv-x="434" 
d="M303 144h-174l-27 -144h-80l134 700h121l137 -700h-84zM140 780h-86l131 219h64l131 -219h-86l-77 142zM142 220h147l-53 280l-20 130h-2l-19 -130z" />
    <glyph glyph-name="Atilde" unicode="&#xc3;" horiz-adv-x="434" 
d="M303 144h-174l-27 -144h-80l134 700h121l137 -700h-84zM149 853c40 0 39 156 134 156c66 0 110 -37 110 -163v-66h-79v79c0 48 -10 67 -31 67c-40 0 -42 -156 -134 -156c-66 0 -110 37 -110 164v65h79v-78c0 -49 10 -68 31 -68zM142 220h147l-53 280l-20 130h-2l-19 -130
z" />
    <glyph glyph-name="Adieresis" unicode="&#xc4;" horiz-adv-x="434" 
d="M303 144h-174l-27 -144h-80l134 700h121l137 -700h-84zM142 220h147l-53 280l-20 130h-2l-19 -130zM178 889c0 -38 -20 -60 -53 -60s-52 22 -52 60s19 60 52 60s53 -22 53 -60zM358 889c0 -38 -20 -60 -52 -60c-34 0 -52 22 -52 60s18 60 52 60c32 0 52 -22 52 -60z" />
    <glyph glyph-name="Aring" unicode="&#xc5;" horiz-adv-x="434" 
d="M324 837c0 -70 -17 -116 -46 -140l136 -697h-84l-27 144h-174l-27 -144h-80l133 697c-30 24 -46 70 -46 140c0 110 39 159 108 159c67 0 107 -49 107 -159zM142 220h147l-53 280l-20 130h-2l-19 -130zM175 837c0 -67 15 -92 42 -92c26 0 41 25 41 92c0 68 -15 93 -41 93
c-27 0 -42 -25 -42 -93z" />
    <glyph glyph-name="Amacron" unicode="&#x100;" horiz-adv-x="434" 
d="M303 144h-174l-27 -144h-80l134 700h121l137 -700h-84zM142 220h147l-53 280l-20 130h-2l-19 -130zM366 927v-76h-300v76h300z" />
    <glyph glyph-name="Abreve" unicode="&#x102;" horiz-adv-x="434" 
d="M303 144h-174l-27 -144h-80l134 700h121l137 -700h-84zM135 984c0 -93 24 -138 82 -138c59 0 82 45 82 138v15h81v-15c0 -138 -52 -214 -163 -214s-163 76 -163 214v15h81v-15zM142 220h147l-53 280l-20 130h-2l-19 -130z" />
    <glyph glyph-name="Aogonek" unicode="&#x104;" horiz-adv-x="433" 
d="M300 -125c0 55 15 95 43 125h-13l-28 144h-173l-27 -144h-81l135 700h121l137 -700c-26 -21 -36 -57 -36 -104c0 -40 15 -55 35 -55c15 0 23 2 32 6v-77c-16 -5 -32 -7 -46 -7c-60 0 -99 30 -99 112zM142 220h147l-54 280l-19 130h-3l-19 -130z" />
    <glyph glyph-name="Aringacute" unicode="&#x1fa;" horiz-adv-x="434" 
d="M324 837c0 -70 -17 -116 -46 -140l136 -697h-84l-27 144h-174l-27 -144h-80l133 697c-30 24 -46 70 -46 140c0 99 32 149 88 158l39 148h86l-62 -155c41 -19 64 -67 64 -151zM142 220h147l-53 280l-20 130h-2l-19 -130zM175 837c0 -67 15 -92 42 -92c26 0 41 25 41 92
c0 68 -15 93 -41 93c-27 0 -42 -25 -42 -93z" />
    <glyph glyph-name="B" unicode="B" horiz-adv-x="430" 
d="M388 199c0 -126 -58 -199 -168 -199h-165v700h165c113 0 161 -71 161 -191c0 -76 -22 -129 -75 -152c54 -25 82 -82 82 -158zM307 199c0 76 -30 120 -87 120h-84v-243h84c57 0 87 45 87 123zM300 509c0 71 -18 115 -80 115h-84v-229h84c62 0 80 42 80 114z" />
    <glyph glyph-name="C" unicode="C" horiz-adv-x="469" 
d="M430 417h-81v15c0 131 -43 201 -109 201c-83 0 -122 -106 -122 -283c0 -176 39 -283 122 -283c66 0 109 75 109 213v16h82v-16c0 -200 -77 -289 -191 -289c-132 0 -203 108 -203 359s71 359 203 359c112 0 190 -85 190 -277v-15z" />
    <glyph glyph-name="Ccedilla" unicode="&#xc7;" horiz-adv-x="469" 
d="M240 709c112 0 190 -85 190 -277v-15h-81v15c0 131 -43 201 -109 201c-83 0 -122 -106 -122 -283c0 -176 39 -283 122 -283c66 0 109 75 109 213v16h82v-16c0 -177 -60 -267 -153 -285v-18c38 -12 48 -50 48 -97c0 -81 -41 -117 -99 -117c-15 0 -30 2 -47 7v77
c12 -4 24 -6 35 -6c24 0 33 14 33 51c0 29 -7 42 -27 42h-21v61c-106 21 -163 131 -163 355c0 251 71 359 203 359z" />
    <glyph glyph-name="Cacute" unicode="&#x106;" horiz-adv-x="469" 
d="M430 417h-81v15c0 131 -43 201 -109 201c-83 0 -122 -106 -122 -283c0 -176 39 -283 122 -283c66 0 109 75 109 213v16h82v-16c0 -200 -77 -289 -191 -289c-132 0 -203 108 -203 359s71 359 203 359c112 0 190 -85 190 -277v-15zM201 780l37 219h98l-67 -219h-68z" />
    <glyph glyph-name="Ccircumflex" unicode="&#x108;" horiz-adv-x="469" 
d="M240 709c112 0 190 -85 190 -277v-15h-81v15c0 131 -43 201 -109 201c-83 0 -122 -106 -122 -283c0 -176 39 -283 122 -283c66 0 109 75 109 213v16h82v-16c0 -200 -77 -289 -191 -289c-132 0 -203 108 -203 359s71 359 203 359zM160 780h-86l131 219h64l131 -219h-86
l-77 142z" />
    <glyph glyph-name="Cdotaccent" unicode="&#x10a;" horiz-adv-x="469" 
d="M430 417h-81v15c0 131 -43 201 -109 201c-83 0 -122 -106 -122 -283c0 -176 39 -283 122 -283c66 0 109 75 109 213v16h82v-16c0 -200 -77 -289 -191 -289c-132 0 -203 108 -203 359s71 359 203 359c112 0 190 -85 190 -277v-15zM235 829c-33 0 -52 22 -52 60
s19 60 52 60s53 -22 53 -60s-20 -60 -53 -60z" />
    <glyph glyph-name="Ccaron" unicode="&#x10c;" horiz-adv-x="469" 
d="M240 709c112 0 190 -85 190 -277v-15h-81v15c0 131 -43 201 -109 201c-83 0 -122 -106 -122 -283c0 -176 39 -283 122 -283c66 0 109 75 109 213v16h82v-16c0 -200 -77 -289 -191 -289c-132 0 -203 108 -203 359s71 359 203 359zM205 780l-131 219h89l74 -131l74 131h89
l-131 -219h-64z" />
    <glyph glyph-name="D" unicode="D" horiz-adv-x="466" 
d="M55 700h158c149 0 216 -125 216 -350s-67 -350 -216 -350h-158v700zM213 624h-77v-548h77c94 0 135 103 135 274s-41 274 -135 274z" />
    <glyph glyph-name="Dcaron" unicode="&#x10e;" horiz-adv-x="467" 
d="M430 350c0 -225 -67 -350 -216 -350h-158v700h158c149 0 216 -125 216 -350zM349 350c0 171 -41 274 -135 274h-77v-548h77c94 0 135 103 135 274zM189 780l-132 219h89l75 -130l74 130h89l-132 -219h-63z" />
    <glyph glyph-name="E" unicode="E" horiz-adv-x="390" 
d="M55 0v700h297v-76h-216v-230h205v-76h-205v-242h216v-76h-297z" />
    <glyph glyph-name="Egrave" unicode="&#xc8;" horiz-adv-x="390" 
d="M55 0v700h297v-76h-216v-230h205v-76h-205v-242h216v-76h-297zM237 780h-68l-67 219h98z" />
    <glyph glyph-name="Eacute" unicode="&#xc9;" horiz-adv-x="390" 
d="M55 0v700h297v-76h-216v-230h205v-76h-205v-242h216v-76h-297zM181 780l37 219h99l-68 -219h-68z" />
    <glyph glyph-name="Ecircumflex" unicode="&#xca;" horiz-adv-x="390" 
d="M352 0h-297v700h297v-76h-216v-230h205v-76h-205v-242h216v-76zM128 780h-86l131 219h64l131 -219h-86l-77 142z" />
    <glyph glyph-name="Edieresis" unicode="&#xcb;" horiz-adv-x="390" 
d="M55 0v700h297v-76h-216v-230h205v-76h-205v-242h216v-76h-297zM295 829c-34 0 -52 22 -52 60s18 60 52 60c32 0 52 -22 52 -60s-20 -60 -52 -60zM114 829c-33 0 -52 22 -52 60s19 60 52 60s53 -22 53 -60s-20 -60 -53 -60z" />
    <glyph glyph-name="Emacron" unicode="&#x112;" horiz-adv-x="390" 
d="M55 0v700h297v-76h-216v-230h205v-76h-205v-242h216v-76h-297zM354 851h-300v76h300v-76z" />
    <glyph glyph-name="Ebreve" unicode="&#x114;" horiz-adv-x="390" 
d="M55 0v700h297v-76h-216v-230h205v-76h-205v-242h216v-76h-297zM203 846c59 0 82 45 82 138v15h81v-15c0 -138 -52 -214 -163 -214c-112 0 -164 76 -164 214v15h81v-15c0 -93 24 -138 83 -138z" />
    <glyph glyph-name="Edotaccent" unicode="&#x116;" horiz-adv-x="390" 
d="M55 0v700h297v-76h-216v-230h205v-76h-205v-242h216v-76h-297zM206 829c-34 0 -52 22 -52 60s18 60 52 60c32 0 52 -22 52 -60s-20 -60 -52 -60z" />
    <glyph glyph-name="Eogonek" unicode="&#x118;" horiz-adv-x="390" 
d="M238 -125c0 55 15 95 43 125h-226v700h297v-76h-216v-230h205v-76h-205v-242h216v-76c-26 -21 -36 -57 -36 -104c0 -40 15 -55 35 -55c15 0 23 2 32 6v-77c-16 -5 -32 -7 -46 -7c-60 0 -99 30 -99 112z" />
    <glyph glyph-name="Ecaron" unicode="&#x11a;" horiz-adv-x="390" 
d="M352 0h-297v700h297v-76h-216v-230h205v-76h-205v-242h216v-76zM175 780l-132 219h89l75 -130l74 130h89l-132 -219h-63z" />
    <glyph glyph-name="F" unicode="F" horiz-adv-x="380" 
d="M136 0h-81v700h297v-76h-216v-230h205v-76h-205v-318z" />
    <glyph glyph-name="G" unicode="G" horiz-adv-x="478" 
d="M240 67c67 0 112 60 112 172v8h-121v76h202v-323h-81v64c-26 -50 -65 -73 -112 -73c-132 0 -203 118 -203 359c0 251 71 359 203 359c112 0 190 -85 190 -277v-15h-81v15c0 131 -43 201 -109 201c-83 0 -122 -106 -122 -283c0 -176 39 -283 122 -283z" />
    <glyph glyph-name="Gcircumflex" unicode="&#x11c;" horiz-adv-x="477" 
d="M240 67c67 0 112 60 112 172v8h-121v76h202v-323h-81v64c-26 -50 -65 -73 -112 -73c-132 0 -203 118 -203 359c0 251 71 359 203 359c112 0 190 -85 190 -277v-15h-81v15c0 131 -43 201 -109 201c-83 0 -122 -106 -122 -283c0 -176 39 -283 122 -283zM162 780h-86
l131 219h64l131 -219h-86l-77 142z" />
    <glyph glyph-name="Gbreve" unicode="&#x11e;" horiz-adv-x="477" 
d="M240 67c67 0 112 60 112 172v8h-121v76h202v-323h-81v64c-26 -50 -65 -73 -112 -73c-132 0 -203 118 -203 359c0 251 71 359 203 359c112 0 190 -85 190 -277v-15h-81v15c0 131 -43 201 -109 201c-83 0 -122 -106 -122 -283c0 -176 39 -283 122 -283zM154 984
c0 -93 24 -138 82 -138c59 0 82 45 82 138v15h81v-15c0 -138 -52 -214 -163 -214s-163 76 -163 214v15h81v-15z" />
    <glyph glyph-name="Gdotaccent" unicode="&#x120;" horiz-adv-x="477" 
d="M240 67c67 0 112 60 112 172v8h-121v76h202v-323h-81v64c-26 -50 -65 -73 -112 -73c-132 0 -203 118 -203 359c0 251 71 359 203 359c112 0 190 -85 190 -277v-15h-81v15c0 131 -43 201 -109 201c-83 0 -122 -106 -122 -283c0 -176 39 -283 122 -283zM291 889
c0 -38 -20 -60 -52 -60c-34 0 -52 22 -52 60s18 60 52 60c32 0 52 -22 52 -60z" />
    <glyph glyph-name="uni0122" unicode="&#x122;" horiz-adv-x="477" 
d="M240 67c67 0 112 60 112 172v8h-121v76h202v-323h-81v64c-26 -50 -65 -73 -112 -73c-132 0 -203 118 -203 359c0 251 71 359 203 359c112 0 190 -85 190 -277v-15h-81v15c0 131 -43 201 -109 201c-83 0 -122 -106 -122 -283c0 -176 39 -283 122 -283zM293 -115
c0 -19 -7 -47 -18 -69l-27 -68h-51v137c0 35 17 56 47 56c31 0 49 -21 49 -56z" />
    <glyph glyph-name="H" unicode="H" horiz-adv-x="468" 
d="M413 0h-81v319h-196v-319h-81v700h81v-305h196v305h81v-700z" />
    <glyph glyph-name="Hcircumflex" unicode="&#x124;" horiz-adv-x="468" 
d="M413 700v-700h-81v319h-196v-319h-81v700h81v-305h196v305h81zM156 780h-86l132 219h63l132 -219h-86l-77 141z" />
    <glyph glyph-name="I" unicode="I" horiz-adv-x="245" 
d="M52 0v76h30v548h-30v76h142v-76h-31v-548h31v-76h-142z" />
    <glyph glyph-name="Igrave" unicode="&#xcc;" horiz-adv-x="243" 
d="M52 0v76h30v548h-30v76h142v-76h-31v-548h31v-76h-142zM156 780h-68l-67 219h98z" />
    <glyph glyph-name="Iacute" unicode="&#xcd;" horiz-adv-x="243" 
d="M52 0v76h30v548h-30v76h142v-76h-31v-548h31v-76h-142zM87 780l37 219h98l-67 -219h-68z" />
    <glyph glyph-name="Icircumflex" unicode="&#xce;" horiz-adv-x="243" 
d="M194 0h-142v76h30v548h-30v76h142v-76h-31v-548h31v-76zM72 780h-89l107 219h64l106 -219h-88l-50 129z" />
    <glyph glyph-name="Idieresis" unicode="&#xcf;" horiz-adv-x="243" 
d="M52 0v76h30v548h-30v76h142v-76h-31v-548h31v-76h-142zM192 829c-34 0 -52 22 -52 60s18 60 52 60c32 0 52 -22 52 -60s-20 -60 -52 -60zM51 829c-33 0 -52 22 -52 60s19 60 52 60s53 -22 53 -60s-20 -60 -53 -60z" />
    <glyph glyph-name="Itilde" unicode="&#x128;" horiz-adv-x="243" 
d="M52 0v76h30v548h-30v76h142v-76h-31v-548h31v-76h-142zM189 1009c66 0 110 -37 110 -163v-66h-79v79c0 48 -10 67 -31 67c-40 0 -42 -156 -134 -156c-66 0 -111 37 -111 164v65h80v-78c0 -49 10 -68 31 -68c40 0 39 156 134 156z" />
    <glyph glyph-name="Imacron" unicode="&#x12a;" horiz-adv-x="243" 
d="M52 0v76h30v548h-30v76h142v-76h-31v-548h31v-76h-142zM272 851h-300v76h300v-76z" />
    <glyph glyph-name="Ibreve" unicode="&#x12c;" horiz-adv-x="243" 
d="M52 0v76h30v548h-30v76h142v-76h-31v-548h31v-76h-142zM127 846c52 0 72 45 72 138v15h81v-15c0 -138 -48 -214 -153 -214c-106 0 -154 76 -154 214v15h81v-15c0 -93 21 -138 73 -138z" />
    <glyph glyph-name="Iogonek" unicode="&#x12e;" horiz-adv-x="243" 
d="M80 -125c0 55 15 95 43 125h-71v76h30v548h-30v76h142v-76h-31v-548h31v-76c-26 -21 -36 -57 -36 -104c0 -40 15 -55 35 -55c15 0 23 2 32 6v-77c-16 -5 -32 -7 -46 -7c-60 0 -99 30 -99 112z" />
    <glyph glyph-name="Idotaccent" unicode="&#x130;" horiz-adv-x="247" 
d="M53 0v76h31v548h-31v76h142v-76h-30v-548h30v-76h-142zM123 829c-33 0 -52 22 -52 60s19 60 52 60s53 -22 53 -60s-20 -60 -53 -60z" />
    <glyph glyph-name="J" unicode="J" horiz-adv-x="399" 
d="M109 253v-23c0 -113 12 -163 78 -163s78 49 78 163v470h81v-470c0 -160 -36 -239 -159 -239s-159 78 -159 239v23h81z" />
    <glyph glyph-name="Jcircumflex" unicode="&#x134;" horiz-adv-x="402" 
d="M190 -9c-123 0 -159 78 -159 239v23h81v-23c0 -113 12 -163 78 -163s78 49 78 163v470h81v-470c0 -160 -36 -239 -159 -239zM113 780h-86l131 219h64l131 -219h-86l-77 142z" />
    <glyph glyph-name="K" unicode="K" horiz-adv-x="435" 
d="M55 0v700h81v-304h49l129 304h89l-147 -341l156 -359h-92l-136 320h-48v-320h-81z" />
    <glyph glyph-name="uni0136" unicode="&#x136;" horiz-adv-x="435" 
d="M55 0v700h81v-304h49l129 304h89l-147 -341l156 -359h-92l-136 320h-48v-320h-81zM262 -115c0 -19 -7 -47 -18 -69l-27 -68h-51v137c0 35 17 56 47 56c31 0 49 -21 49 -56z" />
    <glyph glyph-name="L" unicode="L" horiz-adv-x="371" 
d="M348 76v-76h-293v700h81v-624h212z" />
    <glyph glyph-name="Lacute" unicode="&#x139;" horiz-adv-x="371" 
d="M348 76v-76h-293v700h81v-624h212zM66 780l37 219h99l-68 -219h-68z" />
    <glyph glyph-name="uni013B" unicode="&#x13b;" horiz-adv-x="371" 
d="M348 76v-76h-293v700h81v-624h212zM204 -252h-50v136c0 35 16 56 47 56s48 -21 48 -56c0 -19 -7 -46 -18 -69z" />
    <glyph glyph-name="Lcaron" unicode="&#x13d;" horiz-adv-x="371" 
d="M348 76v-76h-293v700h81v-624h212zM287 575h-50v136c0 35 16 56 47 56s48 -21 48 -56c0 -19 -7 -46 -18 -69z" />
    <glyph glyph-name="M" unicode="M" horiz-adv-x="593" 
d="M538 700v-700h-81v500l1 73l-120 -443h-85l-120 443l1 -73v-500h-79v700h123l117 -471h3l117 471h123z" />
    <glyph glyph-name="N" unicode="N" horiz-adv-x="483" 
d="M302 0l-170 617h-2l3 -117v-500h-78v700h126l170 -617h2l-3 117v500h78v-700h-126z" />
    <glyph glyph-name="Ntilde" unicode="&#xd1;" horiz-adv-x="483" 
d="M302 0l-170 617h-2l3 -117v-500h-78v700h126l170 -617h2l-3 117v500h78v-700h-126zM310 1009c65 0 110 -37 110 -163v-66h-80v79c0 48 -10 67 -30 67c-40 0 -42 -156 -135 -156c-65 0 -110 37 -110 164v65h80v-78c0 -49 10 -68 30 -68c41 0 39 156 135 156z" />
    <glyph glyph-name="Nacute" unicode="&#x143;" horiz-adv-x="483" 
d="M302 0l-170 617h-2l3 -117v-500h-78v700h126l170 -617h2l-3 117v500h78v-700h-126zM183 780l37 219h99l-68 -219h-68z" />
    <glyph glyph-name="uni0145" unicode="&#x145;" horiz-adv-x="483" 
d="M302 0l-170 617h-2l3 -117v-500h-78v700h126l170 -617h2l-3 117v500h78v-700h-126zM242 -252h-50v136c0 35 16 56 47 56s48 -21 48 -56c0 -19 -7 -46 -18 -69z" />
    <glyph glyph-name="Ncaron" unicode="&#x147;" horiz-adv-x="483" 
d="M133 0h-78v700h126l170 -617h2l-3 117v500h78v-700h-126l-170 617h-2l3 -117v-500zM211 780l-132 219h89l75 -130l74 130h89l-132 -219h-63z" />
    <glyph glyph-name="O" unicode="O" horiz-adv-x="480" 
d="M362 350c0 177 -39 283 -122 283s-122 -106 -122 -283c0 -176 39 -283 122 -283s122 107 122 283zM37 350c0 251 71 359 203 359c133 0 203 -108 203 -359s-70 -359 -203 -359c-132 0 -203 108 -203 359z" />
    <glyph glyph-name="Ograve" unicode="&#xd2;" horiz-adv-x="480" 
d="M362 350c0 177 -39 283 -122 283s-122 -106 -122 -283c0 -176 39 -283 122 -283s122 107 122 283zM37 350c0 251 71 359 203 359c133 0 203 -108 203 -359s-70 -359 -203 -359c-132 0 -203 108 -203 359zM277 780h-68l-67 219h98z" />
    <glyph glyph-name="Oacute" unicode="&#xd3;" horiz-adv-x="480" 
d="M362 350c0 177 -39 283 -122 283s-122 -106 -122 -283c0 -176 39 -283 122 -283s122 107 122 283zM37 350c0 251 71 359 203 359c133 0 203 -108 203 -359s-70 -359 -203 -359c-132 0 -203 108 -203 359zM218 780l37 219h99l-68 -219h-68z" />
    <glyph glyph-name="Ocircumflex" unicode="&#xd4;" horiz-adv-x="480" 
d="M240 -9c-132 0 -203 108 -203 359s71 359 203 359c133 0 203 -108 203 -359s-70 -359 -203 -359zM240 67c83 0 122 107 122 283c0 177 -39 283 -122 283s-122 -106 -122 -283c0 -176 39 -283 122 -283zM164 780h-86l132 219h63l132 -219h-86l-77 141z" />
    <glyph glyph-name="Otilde" unicode="&#xd5;" horiz-adv-x="480" 
d="M362 350c0 177 -39 283 -122 283s-122 -106 -122 -283c0 -176 39 -283 122 -283s122 107 122 283zM37 350c0 251 71 359 203 359c133 0 203 -108 203 -359s-70 -359 -203 -359c-132 0 -203 108 -203 359zM308 1009c65 0 110 -37 110 -163v-66h-80v79c0 48 -10 67 -30 67
c-40 0 -42 -156 -135 -156c-65 0 -110 37 -110 164v65h80v-78c0 -49 10 -68 30 -68c41 0 39 156 135 156z" />
    <glyph glyph-name="Odieresis" unicode="&#xd6;" horiz-adv-x="480" 
d="M362 350c0 177 -39 283 -122 283s-122 -106 -122 -283c0 -176 39 -283 122 -283s122 107 122 283zM37 350c0 251 71 359 203 359c133 0 203 -108 203 -359s-70 -359 -203 -359c-132 0 -203 108 -203 359zM331 829c-33 0 -52 22 -52 60s19 60 52 60s53 -22 53 -60
s-20 -60 -53 -60zM151 829c-34 0 -52 22 -52 60s18 60 52 60c32 0 52 -22 52 -60s-20 -60 -52 -60z" />
    <glyph glyph-name="Omacron" unicode="&#x14c;" horiz-adv-x="480" 
d="M362 350c0 177 -39 283 -122 283s-122 -106 -122 -283c0 -176 39 -283 122 -283s122 107 122 283zM37 350c0 251 71 359 203 359c133 0 203 -108 203 -359s-70 -359 -203 -359c-132 0 -203 108 -203 359zM391 851h-299v76h299v-76z" />
    <glyph glyph-name="Obreve" unicode="&#x14e;" horiz-adv-x="480" 
d="M362 350c0 177 -39 283 -122 283s-122 -106 -122 -283c0 -176 39 -283 122 -283s122 107 122 283zM37 350c0 251 71 359 203 359c133 0 203 -108 203 -359s-70 -359 -203 -359c-132 0 -203 108 -203 359zM242 846c59 0 82 45 82 138v15h81v-15c0 -138 -52 -214 -163 -214
c-112 0 -164 76 -164 214v15h81v-15c0 -93 24 -138 83 -138z" />
    <glyph glyph-name="Ohungarumlaut" unicode="&#x150;" horiz-adv-x="481" 
d="M362 350c0 177 -39 283 -122 283s-122 -106 -122 -283c0 -176 39 -283 122 -283s122 107 122 283zM37 350c0 251 71 359 203 359c133 0 203 -108 203 -359s-70 -359 -203 -359c-132 0 -203 108 -203 359zM191 780h-69l39 219h99zM360 780h-69l52 219h99z" />
    <glyph glyph-name="P" unicode="P" horiz-adv-x="407" 
d="M211 624h-75v-276h75c52 0 82 41 82 138c0 98 -30 138 -82 138zM55 700h156c103 0 163 -69 163 -214s-60 -214 -163 -214h-75v-272h-81v700z" />
    <glyph glyph-name="Q" unicode="Q" horiz-adv-x="503" 
d="M243 -12c-135 0 -206 124 -206 362s71 362 206 362s206 -124 206 -362c0 -147 -24 -240 -80 -286h99v-76h-225zM243 64c86 0 125 108 125 286s-39 286 -125 286c-85 0 -125 -108 -125 -286s40 -286 125 -286z" />
    <glyph glyph-name="R" unicode="R" horiz-adv-x="436" 
d="M387 486c0 -99 -32 -168 -90 -198l101 -288h-85l-95 272h-82v-272h-81v700h169c103 0 163 -79 163 -214zM306 486c0 88 -29 138 -82 138h-88v-276h88c53 0 82 51 82 138z" />
    <glyph glyph-name="Racute" unicode="&#x154;" horiz-adv-x="436" 
d="M387 486c0 -99 -32 -168 -90 -198l101 -288h-85l-95 272h-82v-272h-81v700h169c103 0 163 -79 163 -214zM306 486c0 88 -29 138 -82 138h-88v-276h88c53 0 82 51 82 138zM223 780h-68l37 219h98z" />
    <glyph glyph-name="uni0156" unicode="&#x156;" horiz-adv-x="436" 
d="M387 486c0 -99 -32 -168 -90 -198l101 -288h-85l-95 272h-82v-272h-81v700h169c103 0 163 -79 163 -214zM306 486c0 88 -29 138 -82 138h-88v-276h88c53 0 82 51 82 138zM270 -115c0 -19 -7 -47 -18 -69l-27 -68h-50v137c0 35 16 56 47 56s48 -21 48 -56z" />
    <glyph glyph-name="Rcaron" unicode="&#x158;" horiz-adv-x="436" 
d="M387 486c0 -99 -32 -168 -90 -198l101 -288h-85l-95 272h-82v-272h-81v700h169c103 0 163 -79 163 -214zM306 486c0 88 -29 138 -82 138h-88v-276h88c53 0 82 51 82 138zM188 780l-131 219h89l74 -131l74 131h89l-131 -219h-64z" />
    <glyph glyph-name="S" unicode="S" horiz-adv-x="433" 
d="M395 188c2 -111 -52 -197 -179 -197c-125 0 -178 71 -178 245v18h81v-18c0 -127 22 -169 97 -169c70 0 98 46 98 121c0 172 -269 93 -269 340c0 96 46 181 171 181c124 0 172 -78 172 -239v-18h-81v18c0 120 -19 163 -91 163c-63 0 -90 -44 -90 -105
c0 -172 269 -92 269 -340z" />
    <glyph glyph-name="Sacute" unicode="&#x15a;" horiz-adv-x="433" 
d="M395 188c2 -111 -52 -197 -179 -197c-125 0 -178 71 -178 245v18h81v-18c0 -127 22 -169 97 -169c70 0 98 46 98 121c0 172 -269 93 -269 340c0 96 46 181 171 181c124 0 172 -78 172 -239v-18h-81v18c0 120 -19 163 -91 163c-63 0 -90 -44 -90 -105
c0 -172 269 -92 269 -340zM178 780l37 219h98l-67 -219h-68z" />
    <glyph glyph-name="Scircumflex" unicode="&#x15c;" horiz-adv-x="433" 
d="M126 528c0 -172 269 -92 269 -340c2 -111 -52 -197 -179 -197c-125 0 -178 71 -178 245v18h81v-18c0 -127 22 -169 97 -169c70 0 98 46 98 121c0 172 -269 93 -269 340c0 96 46 181 171 181c124 0 172 -78 172 -239v-18h-81v18c0 120 -19 163 -91 163
c-63 0 -90 -44 -90 -105zM135 780h-86l132 219h63l132 -219h-86l-77 141z" />
    <glyph glyph-name="Scedilla" unicode="&#x15e;" horiz-adv-x="433" 
d="M126 528c0 -172 269 -92 269 -340c2 -98 -40 -177 -138 -194v-17c38 -12 48 -50 48 -97c0 -81 -41 -117 -99 -117c-15 0 -30 2 -47 7v77c12 -4 24 -6 35 -6c24 0 33 14 33 51c0 29 -7 42 -27 42h-21v59c-99 14 -141 87 -141 243v18h81v-18c0 -127 22 -169 97 -169
c70 0 98 46 98 121c0 172 -269 93 -269 340c0 96 46 181 171 181c124 0 172 -78 172 -239v-18h-81v18c0 120 -19 163 -91 163c-63 0 -90 -44 -90 -105z" />
    <glyph glyph-name="Scaron" unicode="&#x160;" horiz-adv-x="433" 
d="M126 528c0 -172 269 -92 269 -340c2 -111 -52 -197 -179 -197c-125 0 -178 71 -178 245v18h81v-18c0 -127 22 -169 97 -169c70 0 98 46 98 121c0 172 -269 93 -269 340c0 96 46 181 171 181c124 0 172 -78 172 -239v-18h-81v18c0 120 -19 163 -91 163
c-63 0 -90 -44 -90 -105zM181 780l-132 219h89l75 -130l74 130h89l-132 -219h-63z" />
    <glyph glyph-name="uni0218" unicode="&#x218;" horiz-adv-x="433" 
d="M395 188c2 -111 -52 -197 -179 -197c-125 0 -178 71 -178 245v18h81v-18c0 -127 22 -169 97 -169c70 0 98 46 98 121c0 172 -269 93 -269 340c0 96 46 181 171 181c124 0 172 -78 172 -239v-18h-81v18c0 120 -19 163 -91 163c-63 0 -90 -44 -90 -105
c0 -172 269 -92 269 -340zM216 -252h-50v137c0 35 16 56 47 56s48 -21 48 -56c0 -19 -7 -47 -18 -69z" />
    <glyph glyph-name="T" unicode="T" horiz-adv-x="391" 
d="M17 624v76h358v-76h-139v-624h-81v624h-138z" />
    <glyph glyph-name="uni0162" unicode="&#x162;" horiz-adv-x="391" 
d="M17 624v76h358v-76h-139v-624h-81v624h-138zM198 -252h-51v136c0 35 17 56 47 56c31 0 49 -21 49 -56c0 -19 -7 -46 -18 -69z" />
    <glyph glyph-name="Tcaron" unicode="&#x164;" horiz-adv-x="391" 
d="M155 624h-138v76h358v-76h-139v-624h-81v624zM163 780l-132 219h89l75 -130l74 130h89l-132 -219h-63z" />
    <glyph glyph-name="U" unicode="U" horiz-adv-x="464" 
d="M411 700v-403c0 -211 -57 -306 -179 -306c-125 0 -179 94 -179 306v403h81v-403c0 -160 30 -230 98 -230c67 0 98 70 98 230v403h81z" />
    <glyph glyph-name="Ugrave" unicode="&#xd9;" horiz-adv-x="464" 
d="M411 700v-403c0 -211 -57 -306 -179 -306c-125 0 -179 94 -179 306v403h81v-403c0 -160 30 -230 98 -230c67 0 98 70 98 230v403h81zM264 780h-68l-67 219h98z" />
    <glyph glyph-name="Uacute" unicode="&#xda;" horiz-adv-x="464" 
d="M411 700v-403c0 -211 -57 -306 -179 -306c-125 0 -179 94 -179 306v403h81v-403c0 -160 30 -230 98 -230c67 0 98 70 98 230v403h81zM207 780l37 219h98l-67 -219h-68z" />
    <glyph glyph-name="Ucircumflex" unicode="&#xdb;" horiz-adv-x="464" 
d="M232 67c67 0 98 70 98 230v403h81v-403c0 -211 -57 -306 -179 -306c-125 0 -179 94 -179 306v403h81v-403c0 -160 30 -230 98 -230zM153 780h-86l132 219h63l132 -219h-86l-77 141z" />
    <glyph glyph-name="Udieresis" unicode="&#xdc;" horiz-adv-x="464" 
d="M411 700v-403c0 -211 -57 -306 -179 -306c-125 0 -179 94 -179 306v403h81v-403c0 -160 30 -230 98 -230c67 0 98 70 98 230v403h81zM320 829c-33 0 -52 22 -52 60s19 60 52 60s53 -22 53 -60s-20 -60 -53 -60zM140 829c-34 0 -52 22 -52 60s18 60 52 60
c32 0 52 -22 52 -60s-20 -60 -52 -60z" />
    <glyph glyph-name="Utilde" unicode="&#x168;" horiz-adv-x="464" 
d="M411 700v-403c0 -211 -57 -306 -179 -306c-125 0 -179 94 -179 306v403h81v-403c0 -160 30 -230 98 -230c67 0 98 70 98 230v403h81zM299 1009c66 0 110 -37 110 -163v-66h-79v79c0 48 -10 67 -31 67c-40 0 -42 -156 -134 -156c-66 0 -110 37 -110 164v65h79v-78
c0 -49 10 -68 31 -68c40 0 39 156 134 156z" />
    <glyph glyph-name="Umacron" unicode="&#x16a;" horiz-adv-x="464" 
d="M411 700v-403c0 -211 -57 -306 -179 -306c-125 0 -179 94 -179 306v403h81v-403c0 -160 30 -230 98 -230c67 0 98 70 98 230v403h81zM380 851h-299v76h299v-76z" />
    <glyph glyph-name="Ubreve" unicode="&#x16c;" horiz-adv-x="464" 
d="M411 700v-403c0 -211 -57 -306 -179 -306c-125 0 -179 94 -179 306v403h81v-403c0 -160 30 -230 98 -230c67 0 98 70 98 230v403h81zM231 846c59 0 82 45 82 138v15h81v-15c0 -138 -52 -214 -163 -214c-112 0 -164 76 -164 214v15h81v-15c0 -93 24 -138 83 -138z" />
    <glyph glyph-name="Uring" unicode="&#x16e;" horiz-adv-x="464" 
d="M411 700v-403c0 -211 -57 -306 -179 -306c-125 0 -179 94 -179 306v403h81v-403c0 -160 30 -230 98 -230c67 0 98 70 98 230v403h81zM231 706c-69 0 -108 50 -108 159c0 110 39 159 108 159c67 0 107 -49 107 -159c0 -109 -40 -159 -107 -159zM231 773c26 0 41 25 41 92
c0 68 -15 93 -41 93c-27 0 -42 -25 -42 -93c0 -67 15 -92 42 -92z" />
    <glyph glyph-name="Uhungarumlaut" unicode="&#x170;" horiz-adv-x="464" 
d="M411 700v-403c0 -211 -57 -306 -179 -306c-125 0 -179 94 -179 306v403h81v-403c0 -160 30 -230 98 -230c67 0 98 70 98 230v403h81zM178 780h-68l39 219h98zM347 780h-69l53 219h98z" />
    <glyph glyph-name="Uogonek" unicode="&#x172;" horiz-adv-x="464" 
d="M172 -125c0 50 11 86 33 115c-106 14 -152 112 -152 307v403h81v-403c0 -162 30 -233 98 -233c67 0 98 71 98 233v403h81v-403c0 -178 -38 -274 -122 -301c-25 -8 -39 -54 -39 -100c0 -40 15 -55 35 -55c15 0 23 2 32 6v-77c-16 -5 -32 -7 -46 -7c-60 0 -99 30 -99 112z
" />
    <glyph glyph-name="V" unicode="V" horiz-adv-x="425" 
d="M266 0h-107l-142 700h85l100 -500l12 -104h2l11 104l101 500h80z" />
    <glyph glyph-name="W" unicode="W" horiz-adv-x="668" 
d="M650 700l-120 -700h-105l-84 500l-6 98h-2l-6 -98l-84 -500h-104l-121 700h82l83 -500l9 -115h2l9 115l83 500h100l83 -500l9 -115h2l9 115l83 500h78z" />
    <glyph glyph-name="Wcircumflex" unicode="&#x174;" horiz-adv-x="668" 
d="M572 700h78l-120 -700h-105l-84 500l-6 98h-2l-6 -98l-84 -500h-104l-121 700h82l83 -500l9 -115h2l9 115l83 500h100l83 -500l9 -115h2l9 115zM256 780h-86l131 219h64l131 -219h-86l-77 142z" />
    <glyph glyph-name="Wgrave" unicode="&#x1e80;" horiz-adv-x="668" 
d="M650 700l-120 -700h-105l-84 500l-6 98h-2l-6 -98l-84 -500h-104l-121 700h82l83 -500l9 -115h2l9 115l83 500h100l83 -500l9 -115h2l9 115l83 500h78zM359 780h-68l-67 219h98z" />
    <glyph glyph-name="Wacute" unicode="&#x1e82;" horiz-adv-x="668" 
d="M650 700l-120 -700h-105l-84 500l-6 98h-2l-6 -98l-84 -500h-104l-121 700h82l83 -500l9 -115h2l9 115l83 500h100l83 -500l9 -115h2l9 115l83 500h78zM305 780l37 219h98l-67 -219h-68z" />
    <glyph glyph-name="Wdieresis" unicode="&#x1e84;" horiz-adv-x="668" 
d="M650 700l-120 -700h-105l-84 500l-6 98h-2l-6 -98l-84 -500h-104l-121 700h82l83 -500l9 -115h2l9 115l83 500h100l83 -500l9 -115h2l9 115l83 500h78zM423 829c-34 0 -52 22 -52 60s18 60 52 60c32 0 52 -22 52 -60s-20 -60 -52 -60zM242 829c-33 0 -52 22 -52 60
s19 60 52 60s53 -22 53 -60s-20 -60 -53 -60z" />
    <glyph glyph-name="X" unicode="X" horiz-adv-x="433" 
d="M311 700h85l-126 -334l137 -366h-93l-71 200l-26 102h-3l-27 -102l-73 -200h-88l137 360l-126 340h91l64 -187l24 -96h3l26 96z" />
    <glyph glyph-name="Y" unicode="Y" horiz-adv-x="396" 
d="M157 0v206l-142 494h84l77 -269l22 -117h2l22 117l77 269h82l-143 -494v-206h-81z" />
    <glyph glyph-name="Yacute" unicode="&#xdd;" horiz-adv-x="396" 
d="M157 0v206l-142 494h84l77 -269l22 -117h2l22 117l77 269h82l-143 -494v-206h-81zM236 780h-68l37 219h99z" />
    <glyph glyph-name="Ycircumflex" unicode="&#x176;" horiz-adv-x="396" 
d="M157 0v206l-142 494h84l77 -269l22 -117h2l22 117l77 269h82l-143 -494v-206h-81zM118 780h-86l132 219h63l132 -219h-86l-77 141z" />
    <glyph glyph-name="Ydieresis" unicode="&#x178;" horiz-adv-x="396" 
d="M157 0v206l-142 494h84l77 -269l22 -117h2l22 117l77 269h82l-143 -494v-206h-81zM156 889c0 -38 -20 -60 -53 -60s-52 22 -52 60s19 60 52 60s53 -22 53 -60zM336 889c0 -38 -20 -60 -52 -60c-34 0 -52 22 -52 60s18 60 52 60c32 0 52 -22 52 -60z" />
    <glyph glyph-name="Ygrave" unicode="&#x1ef2;" horiz-adv-x="396" 
d="M157 0v206l-142 494h84l77 -269l22 -117h2l22 117l77 269h82l-143 -494v-206h-81zM184 999l37 -219h-68l-67 219h98z" />
    <glyph glyph-name="Z" unicode="Z" horiz-adv-x="393" 
d="M351 624l-223 -546v-2h229v-76h-321v76l223 546v2h-213v76h305v-76z" />
    <glyph glyph-name="Zacute" unicode="&#x179;" horiz-adv-x="393" 
d="M351 624l-223 -546v-2h229v-76h-321v76l223 546v2h-213v76h305v-76zM155 780l37 219h99l-68 -219h-68z" />
    <glyph glyph-name="Zdotaccent" unicode="&#x17b;" horiz-adv-x="393" 
d="M351 624l-223 -546v-2h229v-76h-321v76l223 546v2h-213v76h305v-76zM202 829c-34 0 -52 22 -52 60s18 60 52 60c32 0 52 -22 52 -60s-20 -60 -52 -60z" />
    <glyph glyph-name="Zcaron" unicode="&#x17d;" horiz-adv-x="393" 
d="M351 700v-76l-223 -546v-2h229v-76h-321v76l223 546v2h-213v76h305zM165 780l-131 219h89l74 -131l74 131h89l-131 -219h-64z" />
    <glyph glyph-name="AE" unicode="&#xc6;" horiz-adv-x="626" 
d="M102 0h-82l154 700h413v-78h-215v-227h204v-78h-204v-239h215v-78h-296v146h-159zM291 622h-61l-82 -398h143v398z" />
    <glyph glyph-name="AEacute" unicode="&#x1fc;" horiz-adv-x="626" 
d="M102 0h-82l154 700h413v-78h-215v-227h204v-78h-204v-239h215v-78h-296v146h-159zM291 622h-61l-82 -398h143v398zM371 780h-68l37 219h98z" />
    <glyph glyph-name="Eth" unicode="&#xd0;" horiz-adv-x="466" 
d="M429 350c0 -225 -67 -350 -216 -350h-158v319h-60v76h60v305h158c149 0 216 -125 216 -350zM348 350c0 171 -41 274 -135 274h-77v-229h96v-76h-96v-243h77c94 0 135 103 135 274z" />
    <glyph glyph-name="Oslash" unicode="&#xd8;" horiz-adv-x="496" 
d="M248 709c42 0 76 -13 106 -39l14 30h87l-40 -85c30 -60 43 -149 43 -265c0 -236 -68 -359 -211 -359c-42 0 -76 13 -105 40l-15 -31h-87l40 86c-29 60 -43 148 -43 264c0 236 68 359 211 359zM377 350c0 61 -3 115 -12 159l-186 -397c17 -29 40 -45 68 -45
c89 0 130 107 130 283zM118 350c0 -61 3 -114 12 -158l186 398c-17 28 -39 43 -68 43c-88 0 -130 -107 -130 -283z" />
    <glyph glyph-name="Oslashacute" unicode="&#x1fe;" horiz-adv-x="496" 
d="M248 709c42 0 76 -13 106 -39l14 30h87l-40 -85c30 -60 43 -149 43 -265c0 -236 -68 -359 -211 -359c-42 0 -76 13 -105 40l-15 -31h-87l40 86c-29 60 -43 148 -43 264c0 236 68 359 211 359zM377 350c0 61 -3 115 -12 159l-186 -397c17 -29 40 -45 68 -45
c89 0 130 107 130 283zM118 350c0 -61 3 -114 12 -158l186 398c-17 28 -39 43 -68 43c-88 0 -130 -107 -130 -283zM271 777h-62l45 173h86z" />
    <glyph glyph-name="Thorn" unicode="&#xde;" horiz-adv-x="405" 
d="M136 211h75c52 0 82 51 82 138c0 88 -30 138 -82 138h-75v-276zM55 700h81v-137h75c103 0 163 -79 163 -214s-60 -214 -163 -214h-75v-135h-81v700z" />
    <glyph glyph-name="Dcroat" unicode="&#x110;" horiz-adv-x="466" 
d="M429 350c0 -225 -67 -350 -216 -350h-158v319h-60v76h60v305h158c149 0 216 -125 216 -350zM348 350c0 171 -41 274 -135 274h-77v-229h96v-76h-96v-243h77c94 0 135 103 135 274z" />
    <glyph glyph-name="Hbar" unicode="&#x126;" horiz-adv-x="468" 
d="M413 521v-521h-81v319h-196v-319h-81v521h-47v76h47v103h81v-103h196v103h81v-103h47v-76h-47zM332 395v126h-196v-126h196z" />
    <glyph glyph-name="IJ" unicode="&#x132;" horiz-adv-x="455" 
d="M53 298v76h30v250h-30v76h141v-76h-30v-250h30v-76h-141zM277 700h125v-470c0 -162 -36 -242 -159 -242s-160 79 -160 242v26h81v-26c0 -113 13 -163 79 -163s78 49 78 163v394h-44v76z" />
    <glyph glyph-name="Ldot" unicode="&#x13f;" horiz-adv-x="371" 
d="M348 76v-76h-293v700h81v-624h212zM252 295c-33 0 -52 22 -52 60s19 60 52 60s53 -22 53 -60s-20 -60 -53 -60z" />
    <glyph glyph-name="Lslash" unicode="&#x141;" horiz-adv-x="371" 
d="M136 419l174 163h5v-93l-179 -167v-246h212v-76h-293v246l-50 -47h-5v93l55 51v357h81v-281z" />
    <glyph glyph-name="Eng" unicode="&#x14a;" horiz-adv-x="483" 
d="M428 -70c0 -120 -41 -189 -157 -189h-15v79h15c66 0 79 40 79 110v70h-48l-170 617h-2l3 -117v-500h-78v700h126l170 -617h2l-3 117v500h78v-770z" />
    <glyph glyph-name="OE" unicode="&#x152;" horiz-adv-x="697" 
d="M235 -9c-129 0 -198 108 -198 359s69 359 198 359c55 0 97 -23 127 -74v65h296v-78h-215v-227h205v-78h-205v-239h215v-78h-296v65c-30 -51 -72 -74 -127 -74zM240 69c83 0 122 106 122 281c0 176 -39 281 -122 281s-122 -105 -122 -281c0 -175 39 -281 122 -281z" />
    <glyph glyph-name="Tbar" unicode="&#x166;" horiz-adv-x="391" 
d="M155 624h-138v76h358v-76h-139v-229h108v-76h-108v-319h-81v319h-110v76h110v229z" />
    <glyph glyph-name="uni0402" unicode="&#x402;" horiz-adv-x="530" 
d="M336 426c137 0 166 -102 166 -219s-29 -219 -167 -219h-22v76h16c80 0 92 72 92 143c0 72 -12 143 -92 143c-81 0 -93 -72 -93 -137v-213h-81v624h-138v76h358v-76h-139v-243c21 28 53 45 100 45z" />
    <glyph glyph-name="uni0404" unicode="&#x404;" horiz-adv-x="469" 
d="M240 709c112 0 190 -85 190 -277v-15h-81v15c0 131 -43 201 -109 201c-79 0 -116 -78 -121 -238h179v-76h-180c4 -169 41 -252 122 -252c66 0 109 75 109 213v16h82v-16c0 -200 -77 -289 -191 -289c-140 0 -203 105 -203 359s63 359 203 359z" />
    <glyph glyph-name="uni0405" unicode="&#x405;" horiz-adv-x="431" 
d="M395 188c2 -111 -52 -197 -179 -197c-125 0 -178 71 -178 245v18h81v-18c0 -127 22 -169 97 -169c70 0 98 46 98 121c0 172 -269 93 -269 340c0 96 46 181 171 181c124 0 172 -78 172 -239v-18h-81v18c0 120 -19 163 -91 163c-63 0 -90 -44 -90 -105
c0 -172 269 -92 269 -340z" />
    <glyph glyph-name="uni0406" unicode="&#x406;" horiz-adv-x="245" 
d="M52 0v76h30v548h-30v76h142v-76h-31v-548h31v-76h-142z" />
    <glyph glyph-name="uni0407" unicode="&#x407;" horiz-adv-x="243" 
d="M52 0v76h30v548h-30v76h142v-76h-31v-548h31v-76h-142zM192 829c-34 0 -52 22 -52 60s18 60 52 60c32 0 52 -22 52 -60s-20 -60 -52 -60zM51 829c-33 0 -52 22 -52 60s19 60 52 60s53 -22 53 -60s-20 -60 -53 -60z" />
    <glyph glyph-name="uni0408" unicode="&#x408;" 
d="M109 253v-23c0 -113 12 -163 78 -163s78 49 78 163v470h81v-470c0 -160 -36 -239 -159 -239s-159 78 -159 239v23h81z" />
    <glyph glyph-name="uni0409" unicode="&#x409;" horiz-adv-x="672" 
d="M44 74c41 0 60 16 68 336l8 290h289v-278h67c103 0 163 -68 163 -211s-60 -211 -163 -211h-148v624h-132l-5 -214c-10 -377 -44 -416 -147 -416h-17v80h17zM558 211c0 96 -30 135 -82 135h-67v-270h67c52 0 82 40 82 135z" />
    <glyph glyph-name="uni040A" unicode="&#x40a;" horiz-adv-x="667" 
d="M634 198c0 -134 -60 -198 -163 -198h-147v320h-188v-320h-81v700h81v-304h188v304h81v-304h66c103 0 163 -65 163 -198zM553 198c0 86 -29 122 -82 122h-66v-244h66c53 0 82 37 82 122z" />
    <glyph glyph-name="uni040B" unicode="&#x40b;" horiz-adv-x="535" 
d="M340 426c134 0 162 -78 162 -209v-217h-81v217c0 83 -11 133 -91 133c-76 0 -94 -61 -94 -147v-203h-81v624h-138v76h358v-76h-139v-244c22 30 55 46 104 46z" />
    <glyph glyph-name="uni040F" unicode="&#x40f;" horiz-adv-x="469" 
d="M194 -199v199h-139v700h81v-624h197v624h81v-700h-139v-199h-81z" />
    <glyph glyph-name="uni0410" unicode="&#x410;" horiz-adv-x="434" 
d="M302 144h-174l-27 -144h-80l134 700h121l137 -700h-84zM141 220h147l-53 280l-20 130h-2l-19 -130z" />
    <glyph glyph-name="uni0411" unicode="&#x411;" horiz-adv-x="407" 
d="M374 214c0 -135 -60 -214 -163 -214h-156v700h295v-76h-214v-196h75c103 0 163 -79 163 -214zM293 214c0 88 -30 138 -82 138h-75v-276h75c52 0 82 51 82 138z" />
    <glyph glyph-name="uni0412" unicode="&#x412;" horiz-adv-x="427" 
d="M388 199c0 -126 -58 -199 -168 -199h-165v700h165c113 0 161 -71 161 -191c0 -76 -22 -129 -75 -152c54 -25 82 -82 82 -158zM307 199c0 76 -30 120 -87 120h-84v-243h84c57 0 87 45 87 123zM300 509c0 71 -18 115 -80 115h-84v-229h84c62 0 80 42 80 114z" />
    <glyph glyph-name="uni0413" unicode="&#x413;" horiz-adv-x="360" 
d="M348 700v-76h-212v-624h-81v700h293z" />
    <glyph glyph-name="uni0403" unicode="&#x403;" horiz-adv-x="360" 
d="M348 700v-76h-212v-624h-81v700h293zM165 780l37 219h98l-67 -219h-68z" />
    <glyph glyph-name="uni0414" unicode="&#x414;" horiz-adv-x="503" 
d="M72 76c18 65 34 181 43 508l3 116h307v-624h54v-275h-81v199h-293v-199h-82v275h49zM193 584c-7 -293 -23 -436 -43 -508h194v548h-151v-40z" />
    <glyph glyph-name="uni0415" unicode="&#x415;" horiz-adv-x="390" 
d="M55 0v700h297v-76h-216v-230h205v-76h-205v-242h216v-76h-297z" />
    <glyph glyph-name="uni0401" unicode="&#x401;" horiz-adv-x="390" 
d="M55 0v700h297v-76h-216v-230h205v-76h-205v-242h216v-76h-297zM292 829c-33 0 -52 22 -52 60s19 60 52 60s53 -22 53 -60s-20 -60 -53 -60zM112 829c-34 0 -52 22 -52 60s18 60 52 60c32 0 52 -22 52 -60s-20 -60 -52 -60z" />
    <glyph glyph-name="uni0416" unicode="&#x416;" horiz-adv-x="655" 
d="M531 700h89l-125 -333l141 -367h-89l-120 330h-59v-330h-81v330h-59l-120 -330h-89l142 369l-125 331h89l104 -294h58v294h81v-294h59z" />
    <glyph glyph-name="uni0417" unicode="&#x417;" horiz-adv-x="416" 
d="M207 -9c-112 0 -170 74 -170 201v61h81v-61c0 -87 31 -125 89 -125c57 0 89 38 89 126c0 80 -23 127 -77 127h-63v76h63c60 0 69 44 69 118c0 84 -28 119 -81 119c-58 0 -88 -35 -88 -119v-63h-81v63c0 137 63 195 169 195c102 0 162 -58 162 -195
c0 -78 -17 -133 -69 -156c53 -26 77 -85 77 -165c0 -128 -57 -202 -170 -202z" />
    <glyph glyph-name="uni0418" unicode="&#x418;" horiz-adv-x="486" 
d="M302 700h129v-700h-81v500l3 117h-3l-166 -617h-129v700h81v-500l-3 -117h3z" />
    <glyph glyph-name="uni0419" unicode="&#x419;" horiz-adv-x="486" 
d="M302 700h129v-700h-81v500l3 117h-3l-166 -617h-129v700h81v-500l-3 -117h3zM243 846c59 0 82 45 82 138v15h81v-15c0 -138 -52 -214 -163 -214s-163 76 -163 214v15h81v-15c0 -93 24 -138 82 -138z" />
    <glyph glyph-name="uni041A" unicode="&#x41a;" horiz-adv-x="435" 
d="M55 0v700h81v-304h49l129 304h89l-147 -341l156 -359h-92l-136 320h-48v-320h-81z" />
    <glyph glyph-name="uni040C" unicode="&#x40c;" horiz-adv-x="435" 
d="M55 0v700h81v-304h49l129 304h89l-147 -341l156 -359h-92l-136 320h-48v-320h-81zM234 780h-68l37 219h99z" />
    <glyph glyph-name="uni041B" unicode="&#x41b;" horiz-adv-x="473" 
d="M44 74c41 0 60 16 68 336l8 290h298v-700h-81v624h-141l-5 -214c-10 -377 -44 -416 -147 -416h-17v80h17z" />
    <glyph glyph-name="uni041C" unicode="&#x41c;" horiz-adv-x="593" 
d="M538 700v-700h-81v500l1 73l-120 -443h-85l-120 443l1 -73v-500h-79v700h123l117 -471h3l117 471h123z" />
    <glyph glyph-name="uni041D" unicode="&#x41d;" horiz-adv-x="468" 
d="M413 0h-81v319h-196v-319h-81v700h81v-305h196v305h81v-700z" />
    <glyph glyph-name="uni041E" unicode="&#x41e;" horiz-adv-x="480" 
d="M362 350c0 177 -39 283 -122 283s-122 -106 -122 -283c0 -176 39 -283 122 -283s122 107 122 283zM37 350c0 251 71 359 203 359c133 0 203 -108 203 -359s-70 -359 -203 -359c-132 0 -203 108 -203 359z" />
    <glyph glyph-name="uni041F" unicode="&#x41f;" horiz-adv-x="469" 
d="M414 0h-81v624h-197v-624h-81v700h359v-700z" />
    <glyph glyph-name="uni0420" unicode="&#x420;" horiz-adv-x="407" 
d="M211 624h-75v-276h75c52 0 82 41 82 138c0 98 -30 138 -82 138zM55 700h156c103 0 163 -69 163 -214s-60 -214 -163 -214h-75v-272h-81v700z" />
    <glyph glyph-name="uni0421" unicode="&#x421;" horiz-adv-x="469" 
d="M430 417h-81v15c0 131 -43 201 -109 201c-83 0 -122 -106 -122 -283c0 -176 39 -283 122 -283c66 0 109 75 109 213v16h82v-16c0 -200 -77 -289 -191 -289c-132 0 -203 108 -203 359s71 359 203 359c112 0 190 -85 190 -277v-15z" />
    <glyph glyph-name="uni0422" unicode="&#x422;" horiz-adv-x="391" 
d="M17 624v76h358v-76h-139v-624h-81v624h-138z" />
    <glyph glyph-name="uni0423" unicode="&#x423;" horiz-adv-x="399" 
d="M100 700l87 -289l21 -91h2l18 91l77 289h80l-136 -501c-47 -180 -75 -203 -154 -203h-11v81h11c30 0 52 11 76 123l-156 500h85z" />
    <glyph glyph-name="uni040E" unicode="&#x40e;" horiz-adv-x="399" 
d="M100 700l87 -289l21 -91h2l18 91l77 289h80l-136 -501c-47 -180 -75 -203 -154 -203h-11v81h11c30 0 52 11 76 123l-156 500h85zM206 846c59 0 82 45 82 138v15h81v-15c0 -138 -52 -214 -163 -214s-163 76 -163 214v15h81v-15c0 -93 24 -138 82 -138z" />
    <glyph glyph-name="uni0424" unicode="&#x424;" horiz-adv-x="576" 
d="M31 380c0 205 72 302 195 302h22v68h81v-68h21c124 0 195 -97 195 -302s-71 -302 -195 -302h-21v-78h-81v78h-22c-123 0 -195 98 -195 302zM464 380c0 153 -43 226 -114 226h-23v-452h23c71 0 114 74 114 226zM112 380c0 -152 44 -226 114 -226h23v452h-23
c-70 0 -114 -74 -114 -226z" />
    <glyph glyph-name="uni0425" unicode="&#x425;" horiz-adv-x="433" 
d="M311 700h85l-126 -334l137 -366h-93l-71 200l-26 102h-3l-27 -102l-73 -200h-88l137 360l-126 340h91l64 -187l24 -96h3l26 96z" />
    <glyph glyph-name="uni0426" unicode="&#x426;" horiz-adv-x="492" 
d="M387 0h-332v700h81v-624h197v624h81v-624h54v-275h-81v199z" />
    <glyph glyph-name="uni0427" unicode="&#x427;" horiz-adv-x="438" 
d="M195 350h107v350h81v-700h-81v274h-107c-132 0 -160 95 -160 193v233h81v-233c0 -54 10 -117 79 -117z" />
    <glyph glyph-name="uni0428" unicode="&#x428;" horiz-adv-x="639" 
d="M503 700h81v-700h-529v700h81v-624h143v624h81v-624h143v624z" />
    <glyph glyph-name="uni0429" unicode="&#x429;" horiz-adv-x="662" 
d="M557 0h-502v700h81v-624h143v624h81v-624h143v624h81v-624h54v-275h-81v199z" />
    <glyph glyph-name="uni042A" unicode="&#x42a;" horiz-adv-x="478" 
d="M282 76c52 0 82 41 82 138c0 98 -30 138 -82 138h-75v-276h75zM207 700v-272h75c103 0 163 -69 163 -214s-60 -214 -163 -214h-156v624h-109v76h190z" />
    <glyph glyph-name="uni042B" unicode="&#x42b;" horiz-adv-x="564" 
d="M55 0v700h81v-272h75c103 0 163 -69 163 -214s-60 -214 -163 -214h-156zM211 76c52 0 82 41 82 138c0 98 -30 138 -82 138h-75v-276h75zM509 700v-700h-81v700h81z" />
    <glyph glyph-name="uni042C" unicode="&#x42c;" horiz-adv-x="407" 
d="M55 0v700h81v-272h75c103 0 163 -69 163 -214s-60 -214 -163 -214h-156zM211 76c52 0 82 41 82 138c0 98 -30 138 -82 138h-75v-276h75z" />
    <glyph glyph-name="uni042D" unicode="&#x42d;" horiz-adv-x="469" 
d="M229 633c-65 0 -108 -70 -108 -201v-15h-82v15c0 192 79 277 190 277c140 0 203 -105 203 -359s-63 -359 -203 -359c-113 0 -191 89 -191 289v16h82v-16c0 -138 44 -213 109 -213c81 0 118 83 122 252h-179v76h178c-5 160 -42 238 -121 238z" />
    <glyph glyph-name="uni042E" unicode="&#x42e;" horiz-adv-x="631" 
d="M397 -9c-124 0 -191 99 -197 328h-64v-319h-81v700h81v-305h65c8 219 75 314 196 314c128 0 197 -108 197 -359s-69 -359 -197 -359zM397 67c78 0 116 107 116 283c0 177 -38 283 -116 283c-79 0 -116 -106 -116 -283c0 -176 37 -283 116 -283z" />
    <glyph glyph-name="uni042F" unicode="&#x42f;" horiz-adv-x="444" 
d="M51 482c0 138 62 218 168 218h170v-700h-81v264h-89h-9l-83 -264h-88l91 289c-51 33 -79 100 -79 193zM132 482c0 -90 31 -142 87 -142h89v284h-89c-56 0 -87 -51 -87 -142z" />
    <glyph glyph-name="uni0490" unicode="&#x490;" horiz-adv-x="360" 
d="M55 700h212v199h81v-275h-212v-624h-81v700z" />
    <glyph glyph-name="uni0492" unicode="&#x492;" horiz-adv-x="358" 
d="M53 318h-48v76h48v306h293v-76h-212v-230h136v-76h-136v-318h-81v318z" />
    <glyph glyph-name="uni0496" unicode="&#x496;" horiz-adv-x="669" 
d="M531 700h89l-125 -333l112 -291h50v-275h-81v199h-29l-120 330h-59v-330h-81v330h-59l-120 -330h-89l142 369l-125 331h89l104 -294h58v294h81v-294h59z" />
    <glyph glyph-name="uni0498" unicode="&#x498;" horiz-adv-x="416" 
d="M166 -5c-85 16 -129 87 -129 197v61h81v-61c0 -87 31 -125 89 -125c57 0 89 38 89 126c0 80 -23 127 -77 127h-63v76h63c60 0 69 44 69 118c0 84 -28 119 -81 119c-58 0 -88 -35 -88 -119v-63h-81v63c0 137 63 195 169 195c102 0 162 -58 162 -195
c0 -78 -17 -133 -69 -156c53 -26 77 -85 77 -165c0 -112 -44 -183 -130 -199v-193h-81v194z" />
    <glyph glyph-name="uni049A" unicode="&#x49a;" horiz-adv-x="442" 
d="M55 0v700h81v-304h49l129 304h89l-148 -341l118 -283h57v-275h-81v199h-29l-136 320h-48v-320h-81z" />
    <glyph glyph-name="uni049C" unicode="&#x49c;" horiz-adv-x="516" 
d="M170 541h81v-145h22l122 304h89l-141 -342l150 -358h-92l-130 320h-20v-145h-81v145h-34v-320h-81v700h81v-304h34v145z" />
    <glyph glyph-name="uni04A0" unicode="&#x4a0;" horiz-adv-x="506" 
d="M385 700h89l-147 -341l156 -359h-92l-136 320h-48v-320h-81v624h-109v76h190v-304h49z" />
    <glyph glyph-name="uni04A2" unicode="&#x4a2;" horiz-adv-x="491" 
d="M413 76h54v-275h-81v199h-54v319h-196v-319h-81v700h81v-305h196v305h81v-624z" />
    <glyph glyph-name="uni04AA" unicode="&#x4aa;" horiz-adv-x="469" 
d="M431 280c0 -177 -60 -267 -153 -285v-194h-81v194c-104 23 -160 132 -160 355c0 251 71 359 203 359c112 0 190 -85 190 -277v-15h-81v15c0 131 -43 201 -109 201c-83 0 -122 -106 -122 -283c0 -176 39 -283 122 -283c66 0 109 75 109 213v16h82v-16z" />
    <glyph glyph-name="uni04AE" unicode="&#x4ae;" horiz-adv-x="396" 
d="M157 0v206l-142 494h84l77 -269l22 -117h2l22 117l77 269h82l-143 -494v-206h-81z" />
    <glyph glyph-name="uni04B0" unicode="&#x4b0;" horiz-adv-x="396" 
d="M381 700l-143 -494v-24h92v-76h-92v-106h-81v106h-92v76h92v24l-142 494h84l77 -269l22 -117h2l22 117l77 269h82z" />
    <glyph glyph-name="uni04B2" unicode="&#x4b2;" horiz-adv-x="437" 
d="M163 360l-126 340h91l64 -187l24 -96h3l26 96l66 187h85l-126 -334l102 -290h53v-275h-81v199h-30l-71 200l-26 102h-3l-27 -102l-73 -200h-88z" />
    <glyph glyph-name="uni04B6" unicode="&#x4b6;" horiz-adv-x="461" 
d="M35 700h81v-233c0 -54 10 -117 79 -117h107v350h81v-624h53v-275h-81v199h-53v274h-107c-132 0 -160 95 -160 193v233z" />
    <glyph glyph-name="uni04BA" unicode="&#x4ba;" horiz-adv-x="438" 
d="M243 350h-107v-350h-81v700h81v-274h107c132 0 160 -95 160 -193v-233h-81v233c0 55 -10 117 -79 117z" />
    <glyph glyph-name="uni04C0" unicode="&#x4c0;" horiz-adv-x="190" 
d="M135 0h-81v700h81v-700z" />
    <glyph glyph-name="uni04D8" unicode="&#x4d8;" horiz-adv-x="469" 
d="M229 -9c-117 0 -191 94 -191 324v55h313c-3 165 -42 263 -122 263c-65 0 -108 -65 -108 -186v-5h-82v5c0 179 79 262 190 262c132 0 203 -108 203 -359c0 -261 -71 -359 -203 -359zM229 67c74 0 113 73 121 225h-230c4 -147 45 -225 109 -225z" />
    <glyph glyph-name="uni04E8" unicode="&#x4e8;" horiz-adv-x="480" 
d="M240 -9c-132 0 -203 108 -203 359s71 359 203 359c133 0 203 -108 203 -359s-70 -359 -203 -359zM119 317c5 -157 44 -250 121 -250s117 94 121 250h-242zM361 393c-6 151 -45 240 -121 240c-75 0 -114 -89 -121 -240h242z" />
    <glyph glyph-name="a" unicode="a" horiz-adv-x="375" 
d="M186 509c86 0 137 -44 137 -157v-352h-78v47c-19 -35 -50 -56 -91 -56c-72 0 -116 55 -116 146s48 145 126 145h81v70c0 66 -21 85 -59 85c-39 0 -59 -19 -59 -85v-12h-79v12c0 109 52 157 138 157zM117 139c0 -51 17 -76 47 -76c49 0 81 28 81 94v59h-71
c-37 0 -57 -25 -57 -77z" />
    <glyph glyph-name="agrave" unicode="&#xe0;" horiz-adv-x="375" 
d="M186 509c86 0 137 -44 137 -157v-352h-78v47c-19 -35 -50 -56 -91 -56c-72 0 -116 55 -116 146s48 145 126 145h81v70c0 66 -21 85 -59 85c-39 0 -59 -19 -59 -85v-12h-79v12c0 109 52 157 138 157zM117 139c0 -51 17 -76 47 -76c49 0 81 28 81 94v59h-71
c-37 0 -57 -25 -57 -77zM158 750l46 -173h-62l-69 173h85z" />
    <glyph glyph-name="aacute" unicode="&#xe1;" horiz-adv-x="375" 
d="M186 509c86 0 137 -44 137 -157v-352h-78v47c-19 -35 -50 -56 -91 -56c-72 0 -116 55 -116 146s48 145 126 145h81v70c0 66 -21 85 -59 85c-39 0 -59 -19 -59 -85v-12h-79v12c0 109 52 157 138 157zM117 139c0 -51 17 -76 47 -76c49 0 81 28 81 94v59h-71
c-37 0 -57 -25 -57 -77zM224 577h-62l46 173h85z" />
    <glyph glyph-name="acircumflex" unicode="&#xe2;" horiz-adv-x="375" 
d="M186 509c86 0 137 -44 137 -157v-352h-78v47c-19 -35 -50 -56 -91 -56c-72 0 -116 55 -116 146s48 145 126 145h81v70c0 66 -21 85 -59 85c-39 0 -59 -19 -59 -85v-12h-79v12c0 109 52 157 138 157zM136 577h-91l108 173h55l107 -173h-91l-44 88zM117 139
c0 -51 17 -76 47 -76c49 0 81 28 81 94v59h-71c-37 0 -57 -25 -57 -77z" />
    <glyph glyph-name="atilde" unicode="&#xe3;" horiz-adv-x="377" 
d="M245 157v59h-71c-36 0 -57 -25 -57 -77c0 -51 17 -76 47 -76c50 0 81 28 81 94zM324 0h-79v46c-19 -34 -50 -55 -90 -55c-72 0 -116 55 -116 146s47 145 126 145h80v70c0 66 -21 85 -58 85c-39 0 -60 -19 -60 -85v-12h-78v12c0 109 52 157 138 157c85 0 137 -44 137 -157
v-352zM127 567c-54 0 -91 35 -91 136v47h76v-57c0 -36 6 -53 19 -53c33 0 31 120 106 120c54 0 91 -34 91 -135v-48h-76v58c0 36 -6 53 -19 53c-33 0 -30 -121 -106 -121z" />
    <glyph glyph-name="adieresis" unicode="&#xe4;" horiz-adv-x="375" 
d="M186 509c86 0 137 -44 137 -157v-352h-78v47c-19 -35 -50 -56 -91 -56c-72 0 -116 55 -116 146s48 145 126 145h81v70c0 66 -21 85 -59 85c-39 0 -59 -19 -59 -85v-12h-79v12c0 109 52 157 138 157zM117 139c0 -51 17 -76 47 -76c49 0 81 28 81 94v59h-71
c-37 0 -57 -25 -57 -77zM318 667c0 -39 -22 -62 -56 -62c-35 0 -55 23 -55 62c0 38 20 61 55 61s56 -23 56 -61zM163 667c0 -39 -22 -62 -55 -62c-36 0 -55 23 -55 62c0 38 19 61 55 61c35 0 55 -23 55 -61z" />
    <glyph glyph-name="aring" unicode="&#xe5;" horiz-adv-x="375" 
d="M186 509c86 0 137 -44 137 -157v-352h-78v47c-19 -35 -50 -56 -91 -56c-72 0 -116 55 -116 146s48 145 126 145h81v70c0 66 -21 85 -59 85c-39 0 -59 -19 -59 -85v-12h-79v12c0 109 52 157 138 157zM295 715c0 -109 -40 -159 -107 -159c-68 0 -107 50 -107 159
c0 110 39 159 107 159c67 0 107 -49 107 -159zM117 139c0 -51 17 -76 47 -76c49 0 81 28 81 94v59h-71c-37 0 -57 -25 -57 -77zM146 715c0 -67 15 -92 42 -92c26 0 42 25 42 92c0 68 -16 93 -42 93c-27 0 -42 -25 -42 -93z" />
    <glyph glyph-name="amacron" unicode="&#x101;" horiz-adv-x="375" 
d="M186 509c86 0 137 -44 137 -157v-352h-78v47c-19 -35 -50 -56 -91 -56c-72 0 -116 55 -116 146s48 145 126 145h81v70c0 66 -21 85 -59 85c-39 0 -59 -19 -59 -85v-12h-79v12c0 109 52 157 138 157zM319 699v-72h-270v72h270zM117 139c0 -51 17 -76 47 -76
c49 0 81 28 81 94v59h-71c-37 0 -57 -25 -57 -77z" />
    <glyph glyph-name="abreve" unicode="&#x103;" horiz-adv-x="375" 
d="M186 509c86 0 137 -44 137 -157v-352h-78v47c-19 -35 -50 -56 -91 -56c-72 0 -116 55 -116 146s48 145 126 145h81v70c0 66 -21 85 -59 85c-39 0 -59 -19 -59 -85v-12h-79v12c0 109 52 157 138 157zM127 739c0 -75 19 -102 56 -102c38 0 57 27 57 102v11h79v-11
c0 -126 -52 -172 -136 -172c-83 0 -135 46 -135 172v11h79v-11zM117 139c0 -51 17 -76 47 -76c49 0 81 28 81 94v59h-71c-37 0 -57 -25 -57 -77z" />
    <glyph glyph-name="aogonek" unicode="&#x105;" horiz-adv-x="375" 
d="M186 509c86 0 137 -44 137 -157v-352c-22 -10 -33 -36 -33 -74c0 -48 15 -62 35 -62c11 0 18 1 25 3v-73c-12 -4 -22 -5 -39 -5c-55 0 -93 30 -93 120c0 36 13 67 35 91h-8v47c-19 -35 -50 -56 -91 -56c-72 0 -116 55 -116 146s48 145 126 145h81v70c0 66 -21 85 -59 85
c-39 0 -59 -19 -59 -85v-12h-79v12c0 109 52 157 138 157zM117 139c0 -51 17 -76 47 -76c49 0 81 28 81 94v59h-71c-37 0 -57 -25 -57 -77z" />
    <glyph glyph-name="aringacute" unicode="&#x1fb;" horiz-adv-x="375" 
d="M185 509c86 0 137 -44 137 -157v-352h-78v47c-19 -35 -50 -56 -91 -56c-72 0 -116 55 -116 146s48 145 126 145h81v70c0 66 -21 85 -59 85c-39 0 -59 -19 -59 -85v-12h-79v12c0 109 52 157 138 157zM290 715c0 -109 -40 -159 -107 -159c-68 0 -107 50 -107 159
c0 94 28 143 78 156l38 141h85l-57 -144c44 -16 70 -65 70 -153zM116 139c0 -51 17 -76 47 -76c49 0 81 28 81 94v59h-71c-37 0 -57 -25 -57 -77zM141 715c0 -67 15 -92 42 -92c26 0 42 25 42 92c0 68 -16 93 -42 93c-27 0 -42 -25 -42 -93z" />
    <glyph glyph-name="b" unicode="b" horiz-adv-x="402" 
d="M373 250c0 -178 -46 -259 -148 -259c-43 0 -74 20 -93 59v-50h-78v750h78v-300c19 39 50 59 93 59c102 0 148 -81 148 -259zM213 436c-53 0 -81 -58 -81 -161v-50c0 -102 28 -161 81 -161c60 0 81 54 81 186s-21 186 -81 186z" />
    <glyph glyph-name="c" unicode="c" horiz-adv-x="374" 
d="M192 436c-62 0 -83 -52 -83 -186s21 -186 83 -186c51 0 73 41 73 132v8h78v-8c0 -136 -54 -205 -151 -205c-111 0 -162 83 -162 259s51 259 162 259c96 0 151 -64 151 -195v-8h-78v8c0 84 -23 122 -73 122z" />
    <glyph glyph-name="ccedilla" unicode="&#xe7;" horiz-adv-x="374" 
d="M265 314c0 84 -23 122 -73 122c-62 0 -83 -52 -83 -186s21 -186 83 -186c51 0 73 41 73 132v8h78v-8c0 -120 -42 -188 -119 -202v-14c38 -17 49 -54 49 -97c0 -83 -38 -105 -93 -105c-12 0 -26 1 -40 6v71c8 -3 14 -4 27 -4c20 0 31 7 31 47c0 34 -5 48 -25 48h-16v48
c-87 17 -127 100 -127 256c0 176 51 259 162 259c96 0 151 -64 151 -195v-8h-78v8z" />
    <glyph glyph-name="cacute" unicode="&#x107;" horiz-adv-x="374" 
d="M192 436c-62 0 -83 -52 -83 -186s21 -186 83 -186c51 0 73 41 73 132v8h78v-8c0 -136 -54 -205 -151 -205c-111 0 -162 83 -162 259s51 259 162 259c96 0 151 -64 151 -195v-8h-78v8c0 84 -23 122 -73 122zM173 577l45 173h86l-69 -173h-62z" />
    <glyph glyph-name="ccircumflex" unicode="&#x109;" horiz-adv-x="374" 
d="M265 314c0 84 -23 122 -73 122c-62 0 -83 -52 -83 -186s21 -186 83 -186c51 0 73 41 73 132v8h78v-8c0 -136 -54 -205 -151 -205c-111 0 -162 83 -162 259s51 259 162 259c96 0 151 -64 151 -195v-8h-78v8zM147 577h-92l108 173h56l107 -173h-91l-45 88z" />
    <glyph glyph-name="cdotaccent" unicode="&#x10b;" horiz-adv-x="374" 
d="M192 436c-62 0 -83 -52 -83 -186s21 -186 83 -186c51 0 73 41 73 132v8h78v-8c0 -136 -54 -205 -151 -205c-111 0 -162 83 -162 259s51 259 162 259c96 0 151 -64 151 -195v-8h-78v8c0 84 -23 122 -73 122zM196 605c-34 0 -52 22 -52 58c0 37 18 58 52 58
c33 0 52 -21 52 -58c0 -36 -20 -58 -52 -58z" />
    <glyph glyph-name="ccaron" unicode="&#x10d;" horiz-adv-x="374" 
d="M265 314c0 84 -23 122 -73 122c-62 0 -83 -52 -83 -186s21 -186 83 -186c51 0 73 41 73 132v8h78v-8c0 -136 -54 -205 -151 -205c-111 0 -162 83 -162 259s51 259 162 259c96 0 151 -64 151 -195v-8h-78v8zM236 750h92l-108 -173h-56l-107 173h91l45 -88z" />
    <glyph glyph-name="d" unicode="d" horiz-adv-x="403" 
d="M271 50c-19 -39 -50 -59 -93 -59c-102 0 -148 81 -148 259s46 259 148 259c43 0 74 -20 93 -59v300h78v-750h-78v50zM190 64c53 0 81 59 81 161v50c0 103 -28 161 -81 161c-60 0 -81 -54 -81 -186s21 -186 81 -186z" />
    <glyph glyph-name="dcaron" unicode="&#x10f;" horiz-adv-x="490" 
d="M271 50c-19 -39 -50 -59 -93 -59c-102 0 -148 81 -148 259s46 259 148 259c43 0 74 -20 93 -59v300h78v-750h-78v50zM190 64c53 0 81 59 81 161v50c0 103 -28 161 -81 161c-60 0 -81 -54 -81 -186s21 -186 81 -186zM493 712c0 -19 -7 -47 -18 -69l-27 -68h-50v137
c0 35 16 56 47 56s48 -21 48 -56z" />
    <glyph glyph-name="e" unicode="e" horiz-adv-x="374" 
d="M30 250c0 176 50 259 160 259c99 0 152 -69 152 -221v-58h-233c2 -119 24 -165 81 -165c51 0 70 36 70 93v4h78v-4c0 -99 -50 -167 -148 -167c-110 0 -160 76 -160 259zM190 436c-49 0 -71 -38 -78 -137h152v15c0 81 -28 122 -74 122z" />
    <glyph glyph-name="egrave" unicode="&#xe8;" horiz-adv-x="374" 
d="M30 250c0 176 50 259 160 259c99 0 152 -69 152 -221v-58h-233c2 -119 24 -165 81 -165c51 0 70 36 70 93v4h78v-4c0 -99 -50 -167 -148 -167c-110 0 -160 76 -160 259zM190 436c-49 0 -71 -38 -78 -137h152v15c0 81 -28 122 -74 122zM175 750l46 -173h-62l-69 173h85z
" />
    <glyph glyph-name="eacute" unicode="&#xe9;" horiz-adv-x="374" 
d="M30 250c0 176 50 259 160 259c99 0 152 -69 152 -221v-58h-233c2 -119 24 -165 81 -165c51 0 70 36 70 93v4h78v-4c0 -99 -50 -167 -148 -167c-110 0 -160 76 -160 259zM190 436c-49 0 -71 -38 -78 -137h152v15c0 81 -28 122 -74 122zM223 577h-62l45 173h86z" />
    <glyph glyph-name="ecircumflex" unicode="&#xea;" horiz-adv-x="374" 
d="M30 250c0 176 50 259 160 259c99 0 152 -69 152 -221v-58h-233c2 -119 24 -165 81 -165c51 0 70 36 70 93v4h78v-4c0 -99 -50 -167 -148 -167c-110 0 -160 76 -160 259zM147 577h-92l108 173h56l107 -173h-91l-45 88zM190 436c-49 0 -71 -38 -78 -137h152v15
c0 81 -28 122 -74 122z" />
    <glyph glyph-name="edieresis" unicode="&#xeb;" horiz-adv-x="374" 
d="M30 250c0 176 50 259 160 259c99 0 152 -69 152 -221v-58h-233c2 -119 24 -165 81 -165c51 0 70 36 70 93v4h78v-4c0 -99 -50 -167 -148 -167c-110 0 -160 76 -160 259zM190 436c-49 0 -71 -38 -78 -137h152v15c0 81 -28 122 -74 122zM166 667c0 -39 -22 -62 -56 -62
c-35 0 -55 23 -55 62c0 38 20 61 55 61s56 -23 56 -61zM320 667c0 -39 -22 -62 -55 -62c-36 0 -55 23 -55 62c0 38 19 61 55 61c35 0 55 -23 55 -61z" />
    <glyph glyph-name="emacron" unicode="&#x113;" horiz-adv-x="374" 
d="M30 250c0 176 50 259 160 259c99 0 152 -69 152 -221v-58h-233c2 -119 24 -165 81 -165c51 0 70 36 70 93v4h78v-4c0 -99 -50 -167 -148 -167c-110 0 -160 76 -160 259zM328 699v-72h-271v72h271zM190 436c-49 0 -71 -38 -78 -137h152v15c0 81 -28 122 -74 122z" />
    <glyph glyph-name="ebreve" unicode="&#x115;" horiz-adv-x="374" 
d="M30 250c0 176 50 259 160 259c99 0 152 -69 152 -221v-58h-233c2 -119 24 -165 81 -165c51 0 70 36 70 93v4h78v-4c0 -99 -50 -167 -148 -167c-110 0 -160 76 -160 259zM136 739c0 -75 19 -102 56 -102c38 0 57 27 57 102v11h79v-11c0 -126 -52 -172 -136 -172
c-83 0 -135 46 -135 172v11h79v-11zM190 436c-49 0 -71 -38 -78 -137h152v15c0 81 -28 122 -74 122z" />
    <glyph glyph-name="edotaccent" unicode="&#x117;" horiz-adv-x="374" 
d="M30 250c0 176 50 259 160 259c99 0 152 -69 152 -221v-58h-233c2 -119 24 -165 81 -165c51 0 70 36 70 93v4h78v-4c0 -99 -50 -167 -148 -167c-110 0 -160 76 -160 259zM190 436c-49 0 -71 -38 -78 -137h152v15c0 81 -28 122 -74 122zM243 663c0 -36 -20 -58 -52 -58
c-34 0 -52 22 -52 58c0 37 18 58 52 58c33 0 52 -21 52 -58z" />
    <glyph glyph-name="eogonek" unicode="&#x119;" horiz-adv-x="374" 
d="M30 250c0 176 50 259 160 259c99 0 152 -69 152 -221v-58h-233c2 -119 24 -165 81 -165c51 0 70 36 70 93v4h78v-4c0 -80 -32 -139 -96 -159c-20 -11 -30 -37 -30 -73c0 -48 15 -62 35 -62c11 0 18 1 25 3v-73c-12 -4 -22 -5 -39 -5c-55 0 -93 30 -93 120
c0 32 10 60 28 83c-95 10 -138 88 -138 258zM190 436c-49 0 -71 -38 -78 -137h152v15c0 81 -28 122 -74 122z" />
    <glyph glyph-name="ecaron" unicode="&#x11b;" horiz-adv-x="374" 
d="M30 250c0 176 50 259 160 259c99 0 152 -69 152 -221v-58h-233c2 -119 24 -165 81 -165c51 0 70 36 70 93v4h78v-4c0 -99 -50 -167 -148 -167c-110 0 -160 76 -160 259zM237 750h91l-108 -173h-55l-107 173h91l44 -88zM190 436c-49 0 -71 -38 -78 -137h152v15
c0 81 -28 122 -74 122z" />
    <glyph glyph-name="f" unicode="f" horiz-adv-x="250" 
d="M205 673c-44 0 -59 -27 -59 -78v-95h82v-72h-82v-428h-78v428h-40v72h40v95c0 104 46 155 137 155h32v-77h-32z" />
    <glyph glyph-name="g" unicode="g" horiz-adv-x="388" 
d="M294 427c11 54 34 73 71 73h7v-77h-5c-29 0 -44 -30 -44 -115c0 -119 -55 -187 -145 -187h-32c-23 0 -37 -11 -37 -33c0 -23 14 -34 37 -34h70c89 0 142 -60 142 -155c0 -99 -66 -156 -171 -156c-114 0 -172 50 -172 142c0 70 23 115 75 130c-29 13 -45 37 -45 66
c0 28 19 54 53 65c-42 25 -65 76 -65 162c0 128 49 201 145 201c60 0 97 -29 116 -82zM178 437c-44 0 -68 -43 -68 -129c0 -77 24 -119 68 -119c45 0 68 42 68 119c0 86 -23 129 -68 129zM279 -101c0 59 -21 86 -63 86h-64c-42 0 -64 -30 -64 -86s27 -86 99 -86
c67 0 92 30 92 86z" />
    <glyph glyph-name="gcircumflex" unicode="&#x11d;" horiz-adv-x="388" 
d="M294 427c11 54 34 73 71 73h7v-77h-5c-29 0 -44 -30 -44 -115c0 -119 -55 -187 -145 -187h-32c-23 0 -37 -11 -37 -33c0 -23 14 -34 37 -34h70c89 0 142 -60 142 -155c0 -99 -66 -156 -171 -156c-114 0 -172 50 -172 142c0 70 23 115 75 130c-29 13 -45 37 -45 66
c0 28 19 54 53 65c-42 25 -65 76 -65 162c0 128 49 201 145 201c60 0 97 -29 116 -82zM178 437c-44 0 -68 -43 -68 -129c0 -77 24 -119 68 -119c45 0 68 42 68 119c0 86 -23 129 -68 129zM279 -101c0 59 -21 86 -63 86h-64c-42 0 -64 -30 -64 -86s27 -86 99 -86
c67 0 92 30 92 86zM138 577h-92l108 173h56l107 -173h-91l-45 88z" />
    <glyph glyph-name="gbreve" unicode="&#x11f;" horiz-adv-x="388" 
d="M294 427c11 54 34 73 71 73h7v-77h-5c-29 0 -44 -30 -44 -115c0 -119 -55 -187 -145 -187h-32c-23 0 -37 -11 -37 -33c0 -23 14 -34 37 -34h70c89 0 142 -60 142 -155c0 -99 -66 -156 -171 -156c-114 0 -172 50 -172 142c0 70 23 115 75 130c-29 13 -45 37 -45 66
c0 28 19 54 53 65c-42 25 -65 76 -65 162c0 128 49 201 145 201c60 0 97 -29 116 -82zM131 739c0 -75 20 -102 57 -102c38 0 56 27 56 102v11h79v-11c0 -126 -52 -172 -135 -172c-84 0 -135 46 -135 172v11h78v-11zM178 437c-44 0 -68 -43 -68 -129c0 -77 24 -119 68 -119
c45 0 68 42 68 119c0 86 -23 129 -68 129zM279 -101c0 59 -21 86 -63 86h-64c-42 0 -64 -30 -64 -86s27 -86 99 -86c67 0 92 30 92 86z" />
    <glyph glyph-name="gdotaccent" unicode="&#x121;" horiz-adv-x="388" 
d="M294 427c11 54 34 73 71 73h7v-77h-5c-29 0 -44 -30 -44 -115c0 -119 -55 -187 -145 -187h-32c-23 0 -37 -11 -37 -33c0 -23 14 -34 37 -34h70c89 0 142 -60 142 -155c0 -99 -66 -156 -171 -156c-114 0 -172 50 -172 142c0 70 23 115 75 130c-29 13 -45 37 -45 66
c0 28 19 54 53 65c-42 25 -65 76 -65 162c0 128 49 201 145 201c60 0 97 -29 116 -82zM178 437c-44 0 -68 -43 -68 -129c0 -77 24 -119 68 -119c45 0 68 42 68 119c0 86 -23 129 -68 129zM279 -101c0 59 -21 86 -63 86h-64c-42 0 -64 -30 -64 -86s27 -86 99 -86
c67 0 92 30 92 86zM254 663c0 -36 -21 -58 -52 -58c-34 0 -52 22 -52 58c0 37 18 58 52 58c33 0 52 -21 52 -58z" />
    <glyph glyph-name="uni0123" unicode="&#x123;" horiz-adv-x="388" 
d="M294 427c11 54 34 73 71 73h7v-77h-5c-29 0 -44 -30 -44 -115c0 -119 -55 -187 -145 -187h-32c-23 0 -37 -11 -37 -33c0 -23 14 -34 37 -34h70c89 0 142 -60 142 -155c0 -99 -66 -156 -171 -156c-114 0 -172 50 -172 142c0 70 23 115 75 130c-29 13 -45 37 -45 66
c0 28 19 54 53 65c-42 25 -65 76 -65 162c0 128 49 201 145 201c60 0 97 -29 116 -82zM178 437c-44 0 -68 -43 -68 -129c0 -77 24 -119 68 -119c45 0 68 42 68 119c0 86 -23 129 -68 129zM279 -101c0 59 -21 86 -63 86h-64c-42 0 -64 -30 -64 -86s27 -86 99 -86
c67 0 92 30 92 86zM131 645c0 19 7 47 18 69l27 68h50v-137c0 -35 -16 -56 -47 -56s-48 21 -48 56z" />
    <glyph glyph-name="h" unicode="h" 
d="M132 451c19 39 48 58 89 58c87 0 124 -61 124 -205v-304h-78v304c0 92 -16 133 -61 133c-49 0 -74 -58 -74 -162v-275h-78v750h78v-299z" />
    <glyph glyph-name="hcircumflex" unicode="&#x125;" 
d="M132 451c19 39 48 58 89 58c87 0 124 -61 124 -205v-304h-78v304c0 92 -16 133 -61 133c-49 0 -74 -58 -74 -162v-275h-78v750h78v-299zM151 807h-92l108 173h56l107 -173h-91l-45 88z" />
    <glyph glyph-name="i" unicode="i" horiz-adv-x="188" 
d="M133 500v-500h-78v500h78zM96 605c-34 0 -52 22 -52 58c0 37 18 58 52 58c33 0 52 -21 52 -58c0 -36 -21 -58 -52 -58z" />
    <glyph glyph-name="igrave" unicode="&#xec;" horiz-adv-x="187" 
d="M132 500v-500h-78v500h78zM122 577h-62l-59 173h85z" />
    <glyph glyph-name="iacute" unicode="&#xed;" horiz-adv-x="187" 
d="M132 500v-500h-78v500h78zM64 577l36 173h85l-59 -173h-62z" />
    <glyph glyph-name="icircumflex" unicode="&#xee;" horiz-adv-x="187" 
d="M54 500h78v-500h-78v500zM49 577h-91l103 173h56l102 -173h-90l-41 89z" />
    <glyph glyph-name="idieresis" unicode="&#xef;" horiz-adv-x="188" 
d="M133 500v-500h-78v500h78zM32 605c-35 0 -53 22 -53 58c0 37 18 58 53 58c33 0 52 -21 52 -58c0 -36 -21 -58 -52 -58zM155 605c-34 0 -52 22 -52 58c0 37 18 58 52 58c33 0 52 -21 52 -58c0 -36 -21 -58 -52 -58z" />
    <glyph glyph-name="itilde" unicode="&#x129;" horiz-adv-x="187" 
d="M132 500v-500h-78v500h78zM41 567c-59 0 -89 35 -89 136v47h76v-57c0 -36 5 -53 17 -53c30 0 20 120 92 120c58 0 89 -34 89 -135v-48h-76v58c0 36 -5 53 -17 53c-29 0 -19 -121 -92 -121z" />
    <glyph glyph-name="imacron" unicode="&#x12b;" horiz-adv-x="187" 
d="M132 500v-500h-78v500h78zM199 627h-211v72h211v-72z" />
    <glyph glyph-name="ibreve" unicode="&#x12d;" horiz-adv-x="187" 
d="M132 500v-500h-78v500h78zM90 637c32 0 47 27 47 102v11h79v-11c0 -126 -48 -172 -126 -172c-77 0 -125 46 -125 172v11h79v-11c0 -75 16 -102 46 -102z" />
    <glyph glyph-name="iogonek" unicode="&#x12f;" horiz-adv-x="187" 
d="M27 -91c0 36 13 67 35 91h-7v500h78v-500h-1c-22 -10 -33 -36 -33 -74c0 -48 15 -62 35 -62c11 0 18 1 25 3v-73c-12 -4 -22 -5 -39 -5c-55 0 -93 30 -93 120zM148 663c0 -36 -21 -58 -52 -58c-34 0 -52 22 -52 58c0 37 18 58 52 58c33 0 52 -21 52 -58z" />
    <glyph glyph-name="j" unicode="j" horiz-adv-x="187" 
d="M-90 -79h78c0 -90 13 -106 34 -106s32 16 32 106v579h79v-579c0 -126 -33 -178 -111 -178c-80 0 -112 57 -112 178zM96 605c-34 0 -52 22 -52 58c0 37 18 58 52 58c33 0 52 -21 52 -58c0 -36 -21 -58 -52 -58z" />
    <glyph glyph-name="jcircumflex" unicode="&#x135;" horiz-adv-x="187" 
d="M21 -257c-79 0 -111 57 -111 178h78c0 -90 12 -106 33 -106s33 16 33 106v579h78v-579c0 -126 -33 -178 -111 -178zM45 577h-92l109 173h55l107 -173h-91l-44 88z" />
    <glyph glyph-name="k" unicode="k" horiz-adv-x="367" 
d="M132 0h-78v750h78v-459h41l83 209h85l-105 -247l114 -253h-86l-92 219h-40v-219z" />
    <glyph glyph-name="uni0137" unicode="&#x137;" horiz-adv-x="367" 
d="M132 0h-78v750h78v-459h41l83 209h85l-105 -247l114 -253h-86l-92 219h-40v-219zM249 -122c0 -19 -7 -47 -18 -69l-27 -68h-50v137c0 35 16 56 47 56s48 -21 48 -56z" />
    <glyph glyph-name="l" unicode="l" horiz-adv-x="186" 
d="M132 750v-750h-78v750h78z" />
    <glyph glyph-name="lacute" unicode="&#x13a;" horiz-adv-x="186" 
d="M132 750v-750h-78v750h78zM62 793l45 173h86l-69 -173h-62z" />
    <glyph glyph-name="uni013C" unicode="&#x13c;" horiz-adv-x="187" 
d="M132 750v-750h-78v750h78zM100 -259h-51v137c0 35 17 56 47 56c31 0 49 -21 49 -56c0 -19 -7 -47 -18 -69z" />
    <glyph glyph-name="lcaron" unicode="&#x13e;" horiz-adv-x="274" 
d="M132 750v-750h-78v750h78zM232 575h-51v136c0 35 17 56 47 56c31 0 49 -21 49 -56c0 -19 -7 -46 -18 -69z" />
    <glyph glyph-name="m" unicode="m" horiz-adv-x="588" 
d="M132 454c18 37 45 55 84 55c47 0 78 -20 97 -63c22 42 56 63 105 63c82 0 118 -61 118 -205v-304h-78v304c0 92 -14 133 -56 133c-45 0 -68 -58 -68 -162v-275h-78v304c0 92 -14 133 -56 133c-45 0 -68 -58 -68 -162v-275h-78v500h78v-46z" />
    <glyph glyph-name="n" unicode="n" 
d="M132 450c19 39 49 59 90 59c87 0 123 -57 123 -205v-304h-78v304c0 97 -16 133 -60 133c-49 0 -75 -49 -75 -162v-275h-78v500h78v-50z" />
    <glyph glyph-name="ntilde" unicode="&#xf1;" 
d="M132 451c19 39 49 59 90 59c87 0 123 -58 123 -205v-304h-78v304c0 97 -16 133 -60 133c-49 0 -75 -49 -75 -162v-275h-78v500h78v-50zM251 688c-33 0 -30 -120 -106 -120c-54 0 -91 34 -91 135v48h76v-58c0 -36 6 -53 19 -53c33 0 31 121 106 121c54 0 91 -35 91 -135
v-48h-76v58c0 35 -6 52 -19 52z" />
    <glyph glyph-name="nacute" unicode="&#x144;" 
d="M132 450c19 39 49 59 90 59c87 0 123 -57 123 -205v-304h-78v304c0 97 -16 133 -60 133c-49 0 -75 -49 -75 -162v-275h-78v500h78v-50zM247 577h-62l45 173h86z" />
    <glyph glyph-name="uni0146" unicode="&#x146;" 
d="M132 450c19 39 49 59 90 59c87 0 123 -57 123 -205v-304h-78v304c0 97 -16 133 -60 133c-49 0 -75 -49 -75 -162v-275h-78v500h78v-50zM250 -122c0 -19 -7 -47 -18 -69l-27 -68h-51v137c0 35 17 56 47 56c31 0 49 -21 49 -56z" />
    <glyph glyph-name="ncaron" unicode="&#x148;" 
d="M132 450c19 39 49 59 90 59c87 0 123 -57 123 -205v-304h-78v304c0 97 -16 133 -60 133c-49 0 -75 -49 -75 -162v-275h-78v500h78v-50zM243 750h91l-108 -173h-55l-107 173h91l44 -88z" />
    <glyph glyph-name="o" unicode="o" horiz-adv-x="383" 
d="M192 509c110 0 161 -83 161 -259s-51 -259 -161 -259c-111 0 -162 83 -162 259s51 259 162 259zM192 64c62 0 82 52 82 186s-20 186 -82 186s-83 -52 -83 -186s21 -186 83 -186z" />
    <glyph glyph-name="ograve" unicode="&#xf2;" horiz-adv-x="383" 
d="M192 509c110 0 161 -83 161 -259s-51 -259 -161 -259c-111 0 -162 83 -162 259s51 259 162 259zM192 64c62 0 82 52 82 186s-20 186 -82 186s-83 -52 -83 -186s21 -186 83 -186zM219 577h-62l-69 173h85z" />
    <glyph glyph-name="oacute" unicode="&#xf3;" horiz-adv-x="383" 
d="M192 509c110 0 161 -83 161 -259s-51 -259 -161 -259c-111 0 -162 83 -162 259s51 259 162 259zM192 64c62 0 82 52 82 186s-20 186 -82 186s-83 -52 -83 -186s21 -186 83 -186zM166 577l45 173h86l-69 -173h-62z" />
    <glyph glyph-name="ocircumflex" unicode="&#xf4;" horiz-adv-x="383" 
d="M30 250c0 176 51 259 162 259c110 0 161 -83 161 -259s-51 -259 -161 -259c-111 0 -162 83 -162 259zM109 250c0 -134 21 -186 83 -186s82 52 82 186s-20 186 -82 186s-83 -52 -83 -186zM149 577h-91l108 173h55l107 -173h-91l-44 88z" />
    <glyph glyph-name="otilde" unicode="&#xf5;" horiz-adv-x="383" 
d="M192 509c110 0 161 -83 161 -259s-51 -259 -161 -259c-111 0 -162 83 -162 259s51 259 162 259zM192 64c62 0 82 52 82 186s-20 186 -82 186s-83 -52 -83 -186s21 -186 83 -186zM138 567c-54 0 -90 35 -90 136v47h76v-57c0 -36 6 -53 19 -53c32 0 30 120 106 120
c54 0 90 -34 90 -135v-48h-76v58c0 36 -6 53 -19 53c-32 0 -30 -121 -106 -121z" />
    <glyph glyph-name="odieresis" unicode="&#xf6;" horiz-adv-x="383" 
d="M192 509c110 0 161 -83 161 -259s-51 -259 -161 -259c-111 0 -162 83 -162 259s51 259 162 259zM192 64c62 0 82 52 82 186s-20 186 -82 186s-83 -52 -83 -186s21 -186 83 -186zM118 605c-36 0 -55 23 -55 62c0 38 19 61 55 61c35 0 55 -23 55 -61c0 -39 -22 -62 -55 -62
zM272 605c-35 0 -55 23 -55 62c0 38 20 61 55 61s56 -23 56 -61c0 -39 -22 -62 -56 -62z" />
    <glyph glyph-name="omacron" unicode="&#x14d;" horiz-adv-x="383" 
d="M192 509c110 0 161 -83 161 -259s-51 -259 -161 -259c-111 0 -162 83 -162 259s51 259 162 259zM192 64c62 0 82 52 82 186s-20 186 -82 186s-83 -52 -83 -186s21 -186 83 -186zM335 627h-271v72h271v-72z" />
    <glyph glyph-name="obreve" unicode="&#x14f;" horiz-adv-x="383" 
d="M192 509c110 0 161 -83 161 -259s-51 -259 -161 -259c-111 0 -162 83 -162 259s51 259 162 259zM192 64c62 0 82 52 82 186s-20 186 -82 186s-83 -52 -83 -186s21 -186 83 -186zM195 637c38 0 56 27 56 102v11h79v-11c0 -126 -52 -172 -135 -172c-84 0 -135 46 -135 172
v11h78v-11c0 -75 20 -102 57 -102z" />
    <glyph glyph-name="ohungarumlaut" unicode="&#x151;" horiz-adv-x="383" 
d="M192 509c110 0 161 -83 161 -259s-51 -259 -161 -259c-111 0 -162 83 -162 259s51 259 162 259zM192 64c62 0 82 52 82 186s-20 186 -82 186s-83 -52 -83 -186s21 -186 83 -186zM144 577h-63l33 173h85zM283 577h-63l46 173h85z" />
    <glyph glyph-name="p" unicode="p" horiz-adv-x="403" 
d="M133 451c20 39 50 58 93 58c101 0 147 -80 147 -259c0 -178 -46 -259 -147 -259c-43 0 -73 19 -93 58v-299h-79v750h79v-49zM214 436c-54 0 -81 -58 -81 -161v-50c0 -102 27 -161 81 -161c60 0 81 54 81 186c0 133 -21 186 -81 186z" />
    <glyph glyph-name="q" unicode="q" horiz-adv-x="403" 
d="M30 250c0 179 46 259 148 259c43 0 74 -20 93 -59v50h78v-750h-78v300c-19 -39 -50 -59 -93 -59c-102 0 -148 81 -148 259zM190 64c53 0 81 59 81 161v50c0 103 -28 161 -81 161c-60 0 -81 -53 -81 -186c0 -132 21 -186 81 -186z" />
    <glyph glyph-name="r" unicode="r" horiz-adv-x="260" 
d="M132 436c18 48 47 73 88 73h21v-78h-21c-59 0 -88 -75 -88 -203v-228h-78v500h78v-64z" />
    <glyph glyph-name="racute" unicode="&#x155;" horiz-adv-x="260" 
d="M132 436c18 48 47 73 88 73h21v-78h-21c-59 0 -88 -75 -88 -203v-228h-78v500h78v-64zM165 577h-62l45 173h86z" />
    <glyph glyph-name="uni0157" unicode="&#x157;" horiz-adv-x="260" 
d="M132 436c18 48 47 73 88 73h21v-78h-21c-59 0 -88 -75 -88 -203v-228h-78v500h78v-64zM143 -122c0 -19 -7 -47 -18 -69l-27 -68h-50v137c0 35 16 56 47 56s48 -21 48 -56z" />
    <glyph glyph-name="rcaron" unicode="&#x159;" horiz-adv-x="260" 
d="M132 436c18 48 47 73 88 73h21v-78h-21c-59 0 -88 -75 -88 -203v-228h-78v500h78v-64zM182 750h92l-108 -173h-56l-107 173h91l45 -88z" />
    <glyph glyph-name="s" unicode="s" horiz-adv-x="347" 
d="M236 134c0 114 -199 60 -199 237c0 73 37 138 137 138c94 0 137 -57 137 -164v-11h-79v11c0 68 -18 91 -58 91c-46 0 -59 -26 -59 -65c0 -114 199 -59 199 -237c0 -81 -41 -143 -141 -143c-94 0 -141 55 -141 167v15h79v-15c0 -71 19 -93 62 -93c49 0 63 25 63 69z" />
    <glyph glyph-name="sacute" unicode="&#x15b;" horiz-adv-x="347" 
d="M236 134c0 114 -199 60 -199 237c0 73 37 138 137 138c94 0 137 -57 137 -164v-11h-79v11c0 68 -18 91 -58 91c-46 0 -59 -26 -59 -65c0 -114 199 -59 199 -237c0 -81 -41 -143 -141 -143c-94 0 -141 55 -141 167v15h79v-15c0 -71 19 -93 62 -93c49 0 63 25 63 69z
M155 577l46 173h85l-69 -173h-62z" />
    <glyph glyph-name="scircumflex" unicode="&#x15d;" horiz-adv-x="347" 
d="M173 65c49 0 63 25 63 69c0 114 -199 60 -199 237c0 73 37 138 137 138c94 0 137 -57 137 -164v-11h-79v11c0 68 -18 91 -58 91c-46 0 -59 -26 -59 -65c0 -114 199 -59 199 -237c0 -81 -41 -143 -141 -143c-94 0 -141 55 -141 167v15h79v-15c0 -71 19 -93 62 -93z
M130 577h-91l108 173h55l107 -173h-91l-44 88z" />
    <glyph glyph-name="scedilla" unicode="&#x15f;" horiz-adv-x="347" 
d="M173 65c49 0 63 25 63 69c0 114 -199 60 -199 237c0 73 37 138 137 138c94 0 137 -57 137 -164v-11h-79v11c0 68 -18 91 -58 91c-46 0 -59 -26 -59 -65c0 -114 199 -59 199 -237c0 -73 -34 -131 -114 -141v-13c38 -17 49 -54 49 -97c0 -83 -38 -105 -93 -105
c-12 0 -26 1 -40 6v71c8 -3 14 -4 27 -4c20 0 31 7 31 47c0 34 -5 48 -25 48h-16v49c-67 14 -101 68 -101 163v15h79v-15c0 -71 19 -93 62 -93z" />
    <glyph glyph-name="scaron" unicode="&#x161;" horiz-adv-x="347" 
d="M173 65c49 0 63 25 63 69c0 114 -199 60 -199 237c0 73 37 138 137 138c94 0 137 -57 137 -164v-11h-79v11c0 68 -18 91 -58 91c-46 0 -59 -26 -59 -65c0 -114 199 -59 199 -237c0 -81 -41 -143 -141 -143c-94 0 -141 55 -141 167v15h79v-15c0 -71 19 -93 62 -93z
M220 750h91l-108 -173h-55l-107 173h91l44 -88z" />
    <glyph glyph-name="uni0219" unicode="&#x219;" horiz-adv-x="347" 
d="M236 134c0 114 -199 60 -199 237c0 73 37 138 137 138c94 0 137 -57 137 -164v-11h-79v11c0 68 -18 91 -58 91c-46 0 -59 -26 -59 -65c0 -114 199 -59 199 -237c0 -81 -41 -143 -141 -143c-94 0 -141 55 -141 167v15h79v-15c0 -71 19 -93 62 -93c49 0 63 25 63 69z
M179 -255h-50v136c0 35 16 56 47 56s48 -21 48 -56c0 -19 -7 -46 -18 -69z" />
    <glyph glyph-name="t" unicode="t" horiz-adv-x="320" 
d="M180 64c22 0 35 15 35 105h78c0 -116 -32 -178 -113 -178c-79 0 -113 52 -113 178v259h-39v72h39l18 107h61v-107h103v-72h-103v-259c0 -90 12 -105 34 -105z" />
    <glyph glyph-name="uni0163" unicode="&#x163;" horiz-adv-x="320" 
d="M180 64c22 0 35 15 35 105h78c0 -116 -32 -178 -113 -178c-79 0 -113 52 -113 178v259h-39v72h39l18 107h61v-107h103v-72h-103v-259c0 -90 12 -105 34 -105zM218 -119c0 -19 -7 -46 -18 -69l-27 -67h-50v136c0 35 16 56 47 56s48 -21 48 -56z" />
    <glyph glyph-name="tcaron" unicode="&#x165;" horiz-adv-x="324" 
d="M180 64c22 0 35 15 35 105h78c0 -116 -32 -178 -113 -178c-79 0 -113 52 -113 178v259h-39v72h39l18 107h61v-107h103v-72h-103v-259c0 -90 12 -105 34 -105zM303 712c0 -19 -7 -47 -18 -69l-27 -68h-51v137c0 35 17 56 47 56c31 0 49 -21 49 -56z" />
    <glyph glyph-name="u" unicode="u" 
d="M265 47c-19 -37 -48 -56 -89 -56c-86 0 -124 61 -124 205v304h78v-304c0 -91 17 -132 62 -132c48 0 73 58 73 161v275h78v-500h-78v47z" />
    <glyph glyph-name="ugrave" unicode="&#xf9;" 
d="M265 47c-19 -37 -48 -56 -89 -56c-86 0 -124 61 -124 205v304h78v-304c0 -91 17 -132 62 -132c48 0 73 58 73 161v275h78v-500h-78v47zM179 750l46 -173h-62l-69 173h85z" />
    <glyph glyph-name="uacute" unicode="&#xfa;" 
d="M265 47c-19 -37 -48 -56 -89 -56c-86 0 -124 61 -124 205v304h78v-304c0 -91 17 -132 62 -132c48 0 73 58 73 161v275h78v-500h-78v47zM235 577h-62l45 173h86z" />
    <glyph glyph-name="ucircumflex" unicode="&#xfb;" 
d="M265 47c-19 -37 -48 -56 -89 -56c-86 0 -124 61 -124 205v304h78v-304c0 -91 17 -132 62 -132c48 0 73 58 73 161v275h78v-500h-78v47zM155 577h-92l108 173h56l107 -173h-91l-45 88z" />
    <glyph glyph-name="udieresis" unicode="&#xfc;" 
d="M265 47c-19 -37 -48 -56 -89 -56c-86 0 -124 61 -124 205v304h78v-304c0 -91 17 -132 62 -132c48 0 73 58 73 161v275h78v-500h-78v47zM177 667c0 -39 -22 -62 -56 -62c-35 0 -55 23 -55 62c0 38 20 61 55 61s56 -23 56 -61zM331 667c0 -39 -22 -62 -55 -62
c-36 0 -55 23 -55 62c0 38 19 61 55 61c35 0 55 -23 55 -61z" />
    <glyph glyph-name="utilde" unicode="&#x169;" 
d="M265 47c-19 -37 -48 -56 -89 -56c-86 0 -124 61 -124 205v304h78v-304c0 -91 17 -132 62 -132c48 0 73 58 73 161v275h78v-500h-78v47zM246 688c-32 0 -30 -121 -106 -121c-54 0 -90 35 -90 136v47h76v-57c0 -36 6 -53 19 -53c32 0 30 120 106 120c54 0 90 -34 90 -135
v-48h-76v58c0 36 -6 53 -19 53z" />
    <glyph glyph-name="umacron" unicode="&#x16b;" 
d="M265 47c-19 -37 -48 -56 -89 -56c-86 0 -124 61 -124 205v304h78v-304c0 -91 17 -132 62 -132c48 0 73 58 73 161v275h78v-500h-78v47zM334 699v-72h-271v72h271z" />
    <glyph glyph-name="ubreve" unicode="&#x16d;" 
d="M265 47c-19 -37 -48 -56 -89 -56c-86 0 -124 61 -124 205v304h78v-304c0 -91 17 -132 62 -132c48 0 73 58 73 161v275h78v-500h-78v47zM142 739c0 -75 19 -102 56 -102c38 0 57 27 57 102v11h79v-11c0 -126 -52 -172 -136 -172c-83 0 -135 46 -135 172v11h79v-11z" />
    <glyph glyph-name="uring" unicode="&#x16f;" 
d="M265 47c-19 -37 -48 -56 -89 -56c-86 0 -124 61 -124 205v304h78v-304c0 -91 17 -132 62 -132c48 0 73 58 73 161v275h78v-500h-78v47zM306 715c0 -109 -40 -159 -107 -159c-69 0 -108 50 -108 159c0 110 39 159 108 159c67 0 107 -49 107 -159zM157 715
c0 -67 15 -92 42 -92c26 0 41 25 41 92c0 68 -15 93 -41 93c-27 0 -42 -25 -42 -93z" />
    <glyph glyph-name="uhungarumlaut" unicode="&#x171;" 
d="M265 47c-19 -37 -48 -56 -89 -56c-86 0 -124 61 -124 205v304h78v-304c0 -91 17 -132 62 -132c48 0 73 58 73 161v275h78v-500h-78v47zM277 750h85l-69 -173h-62zM209 750l-55 -173h-62l32 173h85z" />
    <glyph glyph-name="uogonek" unicode="&#x173;" 
d="M265 47c-19 -37 -48 -56 -89 -56c-86 0 -124 61 -124 205v304h78v-304c0 -91 17 -132 62 -132c48 0 73 58 73 161v275h78v-500c-22 -10 -33 -36 -33 -74c0 -48 15 -62 35 -62c11 0 18 1 25 3v-73c-12 -4 -22 -5 -39 -5c-55 0 -93 30 -93 120c0 36 13 67 35 91h-8v47z" />
    <glyph glyph-name="v" unicode="v" horiz-adv-x="346" 
d="M218 0h-90l-116 500h77l68 -300l15 -117h3l15 117l68 300h76z" />
    <glyph glyph-name="w" unicode="w" horiz-adv-x="526" 
d="M511 500l-93 -500h-89l-55 296l-9 112h-3l-9 -112l-55 -296h-89l-94 500h75l53 -300l9 -117h3l9 117l55 300h89l54 -300l9 -118h3l10 118l52 300h75z" />
    <glyph glyph-name="wcircumflex" unicode="&#x175;" horiz-adv-x="526" 
d="M436 500h75l-93 -500h-89l-55 296l-9 112h-3l-9 -112l-55 -296h-89l-94 500h75l53 -300l9 -117h3l9 117l55 300h89l54 -300l9 -118h3l10 118zM216 577h-92l108 173h56l107 -173h-91l-45 88z" />
    <glyph glyph-name="wgrave" unicode="&#x1e81;" horiz-adv-x="526" 
d="M511 500l-93 -500h-89l-55 296l-9 112h-3l-9 -112l-55 -296h-89l-94 500h75l53 -300l9 -117h3l9 117l55 300h89l54 -300l9 -118h3l10 118l52 300h75zM286 577h-62l-69 173h85z" />
    <glyph glyph-name="wacute" unicode="&#x1e83;" horiz-adv-x="526" 
d="M511 500l-93 -500h-89l-55 296l-9 112h-3l-9 -112l-55 -296h-89l-94 500h75l53 -300l9 -117h3l9 117l55 300h89l54 -300l9 -118h3l10 118l52 300h75zM240 577l45 173h86l-69 -173h-62z" />
    <glyph glyph-name="wdieresis" unicode="&#x1e85;" horiz-adv-x="526" 
d="M511 500l-93 -500h-89l-55 296l-9 112h-3l-9 -112l-55 -296h-89l-94 500h75l53 -300l9 -117h3l9 117l55 300h89l54 -300l9 -118h3l10 118l52 300h75zM184 605c-35 0 -55 23 -55 62c0 38 20 61 55 61s56 -23 56 -61c0 -39 -22 -62 -56 -62zM339 605c-36 0 -55 23 -55 62
c0 38 19 61 55 61c35 0 55 -23 55 -61c0 -39 -22 -62 -55 -62z" />
    <glyph glyph-name="x" unicode="x" horiz-adv-x="355" 
d="M329 500l-103 -238l111 -262h-88l-71 211h-3l-73 -211h-84l111 256l-102 244h88l39 -106l24 -83h3l24 83l40 106h84z" />
    <glyph glyph-name="y" unicode="y" horiz-adv-x="348" 
d="M338 500l-143 -619c-35 -116 -75 -138 -129 -138h-15v82h15c18 0 38 9 52 56l21 115l-125 504h82l57 -232l24 -153h3l25 153l55 232h78z" />
    <glyph glyph-name="yacute" unicode="&#xfd;" horiz-adv-x="348" 
d="M338 500l-143 -619c-35 -116 -75 -138 -129 -138h-15v82h15c18 0 38 9 52 56l21 115l-125 504h82l57 -232l24 -153h3l25 153l55 232h78zM144 577l45 173h86l-69 -173h-62z" />
    <glyph glyph-name="ydieresis" unicode="&#xff;" horiz-adv-x="348" 
d="M338 500l-143 -619c-35 -116 -75 -138 -129 -138h-15v82h15c18 0 38 9 52 56l21 115l-125 504h82l57 -232l24 -153h3l25 153l55 232h78zM92 605c-35 0 -55 23 -55 62c0 38 20 61 55 61s56 -23 56 -61c0 -39 -22 -62 -56 -62zM247 605c-36 0 -55 23 -55 62
c0 38 19 61 55 61c35 0 55 -23 55 -61c0 -39 -22 -62 -55 -62z" />
    <glyph glyph-name="ycircumflex" unicode="&#x177;" horiz-adv-x="348" 
d="M66 -175c18 0 38 9 52 56l21 115l-125 504h82l57 -232l24 -153h3l25 153l55 232h78l-143 -619c-35 -116 -75 -138 -129 -138h-15v82h15zM131 577h-91l108 173h55l107 -173h-91l-44 88z" />
    <glyph glyph-name="ygrave" unicode="&#x1ef3;" horiz-adv-x="348" 
d="M338 500l-143 -619c-35 -116 -75 -138 -129 -138h-15v82h15c18 0 38 9 52 56l21 115l-125 504h82l57 -232l24 -153h3l25 153l55 232h78zM204 577h-62l-69 173h85z" />
    <glyph glyph-name="z" unicode="z" horiz-adv-x="315" 
d="M276 500v-66l-154 -362h159v-72h-247v66l154 362h-147v72h235z" />
    <glyph glyph-name="zacute" unicode="&#x17a;" horiz-adv-x="315" 
d="M276 500v-66l-154 -362h159v-72h-247v66l154 362h-147v72h235zM191 577h-62l46 173h85z" />
    <glyph glyph-name="zdotaccent" unicode="&#x17c;" horiz-adv-x="315" 
d="M276 500v-66l-154 -362h159v-72h-247v66l154 362h-147v72h235zM212 663c0 -36 -20 -58 -52 -58c-34 0 -52 22 -52 58c0 37 18 58 52 58c33 0 52 -21 52 -58z" />
    <glyph glyph-name="zcaron" unicode="&#x17e;" horiz-adv-x="315" 
d="M276 500v-66l-154 -362h159v-72h-247v66l154 362h-147v72h235zM202 750h92l-108 -173h-56l-107 173h91l45 -88z" />
    <glyph glyph-name="ordfeminine" unicode="&#xaa;" horiz-adv-x="274" 
d="M138 712c65 0 106 -40 106 -132v-231h-69v34c-15 -29 -39 -46 -71 -46c-50 0 -80 39 -80 102c0 66 40 109 105 109h46v32c0 51 -14 67 -37 67c-25 0 -38 -16 -38 -67v-8h-69v8c0 92 41 132 107 132zM93 442c0 -29 11 -46 30 -46c31 0 52 20 52 66v33h-48
c-22 0 -34 -14 -34 -53z" />
    <glyph glyph-name="ordmasculine" unicode="&#xba;" horiz-adv-x="293" 
d="M147 403c37 0 54 38 54 121c0 85 -17 122 -54 122s-55 -37 -55 -122c0 -83 18 -121 55 -121zM147 712c80 0 123 -72 123 -188c0 -115 -43 -187 -123 -187s-124 72 -124 187c0 116 44 188 124 188z" />
    <glyph glyph-name="germandbls" unicode="&#xdf;" horiz-adv-x="423" 
d="M54 595c0 92 52 155 138 155h194v-72l-86 -191c61 -35 93 -121 93 -239c0 -159 -57 -257 -161 -257h-41v73h41c56 0 83 55 83 184c0 126 -27 183 -83 183h-41v73h41l72 174h-112c-39 0 -59 -34 -59 -83v-595h-79v595z" />
    <glyph glyph-name="ae" unicode="&#xe6;" horiz-adv-x="584" 
d="M548 158c0 -99 -50 -167 -146 -167c-58 0 -96 30 -119 95c-22 -57 -66 -95 -129 -95c-72 0 -116 55 -116 146c0 93 48 149 126 149h81v66c0 66 -21 85 -59 85c-39 0 -59 -19 -59 -85v-12h-79v12c0 109 52 157 138 157c49 0 86 -18 107 -69c25 47 60 69 109 69
c97 0 150 -69 150 -221v-69h-229c4 -111 26 -154 79 -154c49 0 68 36 68 93v5h78v-5zM402 436c-48 0 -69 -41 -76 -148h147v26c0 81 -27 122 -71 122zM117 139c0 -51 17 -76 47 -76c49 0 81 28 81 94v59h-71c-37 0 -57 -25 -57 -77z" />
    <glyph glyph-name="aeacute" unicode="&#x1fd;" horiz-adv-x="584" 
d="M548 158c0 -99 -50 -167 -146 -167c-58 0 -96 30 -119 95c-22 -57 -66 -95 -129 -95c-72 0 -116 55 -116 146c0 93 48 149 126 149h81v66c0 66 -21 85 -59 85c-39 0 -59 -19 -59 -85v-12h-79v12c0 109 52 157 138 157c49 0 86 -18 107 -69c25 47 60 69 109 69
c97 0 150 -69 150 -221v-69h-229c4 -111 26 -154 79 -154c49 0 68 36 68 93v5h78v-5zM402 436c-48 0 -69 -41 -76 -148h147v26c0 81 -27 122 -71 122zM117 139c0 -51 17 -76 47 -76c49 0 81 28 81 94v59h-71c-37 0 -57 -25 -57 -77zM339 577h-62l46 173h85z" />
    <glyph glyph-name="eth" unicode="&#xf0;" horiz-adv-x="388" 
d="M360 225c0 -159 -50 -234 -161 -234s-161 75 -161 234c0 153 50 224 161 224c7 0 14 0 21 -1l-56 119l-44 -45l-40 72l48 49l-51 107h87l22 -47l47 47l40 -71l-51 -52l87 -183c37 -79 51 -119 51 -219zM282 225c0 115 -21 161 -83 161s-83 -45 -83 -161s21 -161 83 -161
s83 45 83 161z" />
    <glyph glyph-name="oslash" unicode="&#xf8;" horiz-adv-x="401" 
d="M35 250c0 176 52 259 165 259c30 0 57 -8 77 -27l9 18h83l-33 -66c20 -41 30 -102 30 -184c0 -176 -52 -259 -164 -259c-31 0 -57 8 -78 27l-9 -18h-83l34 66c-21 41 -31 102 -31 184zM114 250c0 -32 1 -59 3 -82l123 241c-9 19 -22 27 -40 27c-64 0 -86 -52 -86 -186z
M287 250c0 32 -1 59 -3 82l-123 -242c10 -18 22 -26 41 -26c64 0 85 52 85 186z" />
    <glyph glyph-name="oslashacute" unicode="&#x1ff;" horiz-adv-x="401" 
d="M35 250c0 176 52 259 165 259c30 0 57 -8 77 -27l9 18h83l-33 -66c20 -41 30 -102 30 -184c0 -176 -52 -259 -164 -259c-31 0 -57 8 -78 27l-9 -18h-83l34 66c-21 41 -31 102 -31 184zM114 250c0 -32 1 -59 3 -82l123 241c-9 19 -22 27 -40 27c-64 0 -86 -52 -86 -186z
M287 250c0 32 -1 59 -3 82l-123 -242c10 -18 22 -26 41 -26c64 0 85 52 85 186zM226 577h-62l46 173h85z" />
    <glyph glyph-name="thorn" unicode="&#xfe;" horiz-adv-x="403" 
d="M132 450c19 39 50 59 93 59c102 0 148 -80 148 -259c0 -178 -46 -259 -148 -259c-43 0 -74 20 -93 59v-300h-78v1000h78v-300zM213 436c-53 0 -81 -58 -81 -161v-50c0 -102 28 -161 81 -161c60 0 81 54 81 186c0 133 -21 186 -81 186z" />
    <glyph glyph-name="dcroat" unicode="&#x111;" horiz-adv-x="403" 
d="M271 50c-19 -39 -50 -59 -93 -59c-102 0 -148 81 -148 259s46 259 148 259c43 0 74 -20 93 -59v154h-77v72h77v74h78v-74h45v-72h-45v-604h-78v50zM190 64c53 0 81 59 81 161v50c0 103 -28 161 -81 161c-60 0 -81 -54 -81 -186s21 -186 81 -186z" />
    <glyph glyph-name="hbar" unicode="&#x127;" 
d="M132 451c19 39 48 58 89 58c87 0 124 -61 124 -205v-304h-78v304c0 92 -16 133 -61 133c-49 0 -74 -58 -74 -162v-275h-78v610h-40v66h40v74h78v-74h98v-66h-98v-159z" />
    <glyph glyph-name="dotlessi" unicode="&#x131;" horiz-adv-x="187" 
d="M132 500v-500h-78v500h78z" />
    <glyph glyph-name="ij" unicode="&#x133;" horiz-adv-x="335" 
d="M134 500v-500h-78v500h78zM56 -79h78c0 -90 12 -106 33 -106s32 16 32 106v579h79v-579c0 -126 -33 -178 -111 -178c-79 0 -111 57 -111 178zM96 605c-34 0 -52 22 -52 58c0 37 18 58 52 58c33 0 52 -21 52 -58c0 -36 -20 -58 -52 -58zM241 605c-34 0 -52 22 -52 58
c0 37 18 58 52 58c33 0 52 -21 52 -58c0 -36 -21 -58 -52 -58z" />
    <glyph glyph-name="ldot" unicode="&#x140;" horiz-adv-x="262" 
d="M132 750v-750h-78v750h78zM174 250c0 37 17 58 50 58c31 0 50 -21 50 -58c0 -36 -19 -58 -50 -58c-33 0 -50 22 -50 58z" />
    <glyph glyph-name="lslash" unicode="&#x142;" horiz-adv-x="197" 
d="M138 459l57 55v-97l-57 -55v-362h-78v288l-58 -56v97l58 56v365h78v-291z" />
    <glyph glyph-name="napostrophe" unicode="&#x149;" 
d="M132 450c19 39 49 59 90 59c87 0 123 -57 123 -205v-304h-78v304c0 97 -16 133 -60 133c-49 0 -75 -49 -75 -162v-275h-78v500h78v-50zM150 704c0 -19 -7 -46 -18 -69l-27 -67h-51v136c0 35 17 56 47 56c31 0 49 -21 49 -56z" />
    <glyph glyph-name="eng" unicode="&#x14b;" 
d="M221 509c87 0 124 -61 124 -205v-363c0 -135 -44 -198 -134 -198h-17v77h17c38 0 56 39 56 121v363c0 92 -16 133 -61 133c-43 0 -68 -45 -73 -128v-309h-79v500h79v-47c19 37 48 56 88 56z" />
    <glyph glyph-name="oe" unicode="&#x153;" horiz-adv-x="618" 
d="M582 158c0 -99 -50 -167 -148 -167c-56 0 -96 25 -121 78c-25 -53 -65 -78 -121 -78c-111 0 -162 83 -162 259s51 259 162 259c57 0 96 -25 121 -79c25 54 65 79 121 79c99 0 152 -69 152 -221v-64h-233c3 -115 25 -159 81 -159c51 0 70 36 70 93v5h78v-5zM109 250
c0 -134 21 -186 83 -186s82 52 82 186s-20 186 -82 186s-83 -52 -83 -186zM434 436c-50 0 -72 -40 -78 -143h152v21c0 81 -28 122 -74 122z" />
    <glyph glyph-name="tbar" unicode="&#x167;" horiz-adv-x="320" 
d="M180 64c22 0 35 15 35 105h78c0 -116 -32 -178 -113 -178c-79 0 -113 52 -113 178v86h-39v69h39v104h-39v72h39l18 107h61v-107h103v-72h-103v-104h96v-69h-96v-86c0 -90 12 -105 34 -105z" />
    <glyph glyph-name="uni0237" unicode="&#x237;" horiz-adv-x="188" 
d="M-90 -79h78c0 -90 13 -106 34 -106s32 16 32 106v579h79v-579c0 -126 -33 -178 -111 -178c-80 0 -112 57 -112 178z" />
    <glyph glyph-name="uni0430" unicode="&#x430;" horiz-adv-x="376" 
d="M187 509c86 0 137 -44 137 -157v-352h-78v47c-19 -35 -50 -56 -91 -56c-72 0 -116 55 -116 146s48 145 126 145h81v70c0 66 -21 85 -59 85c-39 0 -59 -19 -59 -85v-12h-79v12c0 109 52 157 138 157zM118 139c0 -51 17 -76 47 -76c49 0 81 28 81 94v59h-71
c-37 0 -57 -25 -57 -77z" />
    <glyph glyph-name="uni0431" unicode="&#x431;" horiz-adv-x="395" 
d="M204 -9c-111 0 -162 77 -162 244v191c0 229 51 284 149 284h51c29 0 34 9 34 32v7h79v-22c0 -64 -26 -95 -103 -95h-61c-52 0 -76 -25 -76 -206l1 -22c20 50 53 75 104 75c97 0 145 -64 145 -244c0 -167 -51 -244 -161 -244zM206 406c-57 0 -87 -58 -87 -171
c2 -125 21 -172 85 -172c62 0 82 47 82 172c0 126 -20 171 -80 171z" />
    <glyph glyph-name="uni0432" unicode="&#x432;" horiz-adv-x="363" 
d="M324 143c0 -89 -48 -143 -131 -143h-139v500h139c86 0 126 -51 126 -139c0 -49 -16 -86 -49 -107c35 -22 54 -60 54 -111zM245 143c0 48 -17 77 -50 77h-63v-150h63c33 0 50 26 50 73zM241 361c0 46 -12 70 -46 70h-63v-143h63c34 0 46 26 46 73z" />
    <glyph glyph-name="uni0433" unicode="&#x433;" horiz-adv-x="291" 
d="M276 500v-72h-144v-428h-78v500h222z" />
    <glyph glyph-name="uni0453" unicode="&#x453;" horiz-adv-x="291" 
d="M276 500v-72h-144v-428h-78v500h222zM136 577l45 173h86l-69 -173h-62z" />
    <glyph glyph-name="uni0434" unicode="&#x434;" horiz-adv-x="409" 
d="M56 72c13 40 25 95 30 316l3 112h255v-428h40v-221h-78v149h-209v-149h-78v221h37zM162 388c-5 -186 -17 -269 -30 -316h133v356h-102z" />
    <glyph glyph-name="uni0435" unicode="&#x435;" horiz-adv-x="374" 
d="M30 250c0 176 50 259 160 259c99 0 152 -69 152 -221v-58h-233c2 -119 24 -165 81 -165c51 0 70 36 70 93v4h78v-4c0 -99 -50 -167 -148 -167c-110 0 -160 76 -160 259zM190 436c-49 0 -71 -38 -78 -137h152v15c0 81 -28 122 -74 122z" />
    <glyph glyph-name="uni0451" unicode="&#x451;" horiz-adv-x="374" 
d="M30 250c0 176 50 259 160 259c99 0 152 -69 152 -221v-58h-233c2 -119 24 -165 81 -165c51 0 70 36 70 93v4h78v-4c0 -99 -50 -167 -148 -167c-110 0 -160 76 -160 259zM190 436c-49 0 -71 -38 -78 -137h152v15c0 81 -28 122 -74 122zM163 667c0 -39 -22 -62 -56 -62
c-35 0 -55 23 -55 62c0 38 20 61 55 61s56 -23 56 -61zM317 667c0 -39 -22 -62 -55 -62c-36 0 -55 23 -55 62c0 38 19 61 55 61c35 0 55 -23 55 -61z" />
    <glyph glyph-name="uni0436" unicode="&#x436;" horiz-adv-x="525" 
d="M224 218h-40l-75 -218h-86l97 261l-90 239h82l72 -210h40v210h78v-210h39l73 210h82l-90 -241l97 -259h-86l-76 218h-39v-218h-78v218z" />
    <glyph glyph-name="uni04C2" unicode="&#x4c2;" horiz-adv-x="525" 
d="M224 218h-40l-75 -218h-86l97 261l-90 239h82l72 -210h40v210h78v-210h39l73 210h82l-90 -241l97 -259h-86l-76 218h-39v-218h-78v218zM206 739c0 -75 19 -102 56 -102c38 0 57 27 57 102v11h79v-11c0 -126 -52 -172 -136 -172c-83 0 -135 46 -135 172v11h79v-11z" />
    <glyph glyph-name="uni0437" unicode="&#x437;" horiz-adv-x="363" 
d="M324 145c0 -84 -44 -154 -144 -154c-102 0 -144 70 -144 164v30h78v-30c0 -51 14 -91 66 -91s65 35 65 81c0 42 -10 74 -51 74h-44v72h43c38 0 48 27 48 69c0 47 -12 76 -61 76s-61 -33 -61 -86v-26h-78v26c0 97 42 159 139 159c99 0 139 -57 139 -149
c0 -51 -17 -86 -53 -105c38 -19 58 -55 58 -110z" />
    <glyph glyph-name="uni0438" unicode="&#x438;" horiz-adv-x="414" 
d="M133 500v-398h2l110 398h115v-500h-78v397h-2l-111 -397h-115v500h79z" />
    <glyph glyph-name="uni0439" unicode="&#x439;" horiz-adv-x="414" 
d="M133 500v-398h2l110 398h115v-500h-78v397h-2l-111 -397h-115v500h79zM211 637c38 0 57 27 57 102v11h79v-11c0 -126 -52 -172 -136 -172c-83 0 -135 46 -135 172v11h79v-11c0 -75 19 -102 56 -102z" />
    <glyph glyph-name="uni04E3" unicode="&#x4e3;" horiz-adv-x="414" 
d="M133 500v-398h2l110 398h115v-500h-78v397h-2l-111 -397h-115v500h79zM342 627h-270v72h270v-72z" />
    <glyph glyph-name="uni043A" unicode="&#x43a;" horiz-adv-x="367" 
d="M132 0h-78v500h78v-209h39l85 209h85l-105 -247l114 -253h-86l-93 219h-39v-219z" />
    <glyph glyph-name="uni045C" unicode="&#x45c;" horiz-adv-x="367" 
d="M132 0h-78v500h78v-209h39l85 209h85l-105 -247l114 -253h-86l-93 219h-39v-219zM198 577h-62l45 173h86z" />
    <glyph glyph-name="uni043B" unicode="&#x43b;" horiz-adv-x="393" 
d="M93 500h246v-500h-79v428h-95l-2 -142c-6 -271 -43 -290 -116 -290h-21v81h21c20 0 35 13 40 210z" />
    <glyph glyph-name="uni043C" unicode="&#x43c;" horiz-adv-x="504" 
d="M450 500v-500h-78v305l5 105h-3l-86 -321h-74l-86 321h-3l5 -105v-305h-76v500h112l65 -228l20 -100h3l20 100l64 228h112z" />
    <glyph glyph-name="uni043D" unicode="&#x43d;" horiz-adv-x="399" 
d="M345 0h-78v219h-135v-219h-78v500h78v-209h135v209h78v-500z" />
    <glyph glyph-name="uni043E" unicode="&#x43e;" horiz-adv-x="383" 
d="M192 509c110 0 161 -83 161 -259s-51 -259 -161 -259c-111 0 -162 83 -162 259s51 259 162 259zM192 64c62 0 82 52 82 186s-20 186 -82 186s-83 -52 -83 -186s21 -186 83 -186z" />
    <glyph glyph-name="uni04E7" unicode="&#x4e7;" horiz-adv-x="383" 
d="M192 509c110 0 161 -83 161 -259s-51 -259 -161 -259c-111 0 -162 83 -162 259s51 259 162 259zM192 64c62 0 82 52 82 186s-20 186 -82 186s-83 -52 -83 -186s21 -186 83 -186zM111 605c-36 0 -55 23 -55 62c0 38 19 61 55 61c35 0 55 -23 55 -61c0 -39 -22 -62 -55 -62
zM265 605c-35 0 -55 23 -55 62c0 38 20 61 55 61s56 -23 56 -61c0 -39 -22 -62 -56 -62z" />
    <glyph glyph-name="uni043F" unicode="&#x43f;" horiz-adv-x="399" 
d="M345 0h-78v428h-135v-428h-78v500h291v-500z" />
    <glyph glyph-name="uni0440" unicode="&#x440;" horiz-adv-x="404" 
d="M133 450c19 39 50 59 93 59c102 0 148 -80 148 -259c0 -178 -46 -259 -148 -259c-43 0 -74 20 -93 59v-300h-78v750h78v-50zM214 436c-53 0 -81 -58 -81 -161v-50c0 -102 28 -161 81 -161c60 0 81 54 81 186c0 133 -21 186 -81 186z" />
    <glyph glyph-name="uni0441" unicode="&#x441;" horiz-adv-x="374" 
d="M192 436c-62 0 -83 -52 -83 -186s21 -186 83 -186c51 0 73 41 73 132v8h78v-8c0 -136 -54 -205 -151 -205c-111 0 -162 83 -162 259s51 259 162 259c96 0 151 -64 151 -195v-8h-78v8c0 84 -23 122 -73 122z" />
    <glyph glyph-name="uni0442" unicode="&#x442;" horiz-adv-x="297" 
d="M15 428v72h267v-72h-94v-428h-78v428h-95z" />
    <glyph glyph-name="uni0443" unicode="&#x443;" horiz-adv-x="348" 
d="M337 500l-143 -619c-35 -116 -75 -138 -129 -138h-15v82h15c18 0 38 9 52 56l21 115l-125 504h82l57 -232l24 -153h3l25 153l55 232h78z" />
    <glyph glyph-name="uni045E" unicode="&#x45e;" horiz-adv-x="348" 
d="M337 500l-143 -619c-35 -116 -75 -138 -129 -138h-15v82h15c18 0 38 9 52 56l21 115l-125 504h82l57 -232l24 -153h3l25 153l55 232h78zM176 637c38 0 56 27 56 102v11h79v-11c0 -126 -52 -172 -135 -172c-84 0 -135 46 -135 172v11h78v-11c0 -75 20 -102 57 -102z" />
    <glyph glyph-name="uni04EF" unicode="&#x4ef;" horiz-adv-x="348" 
d="M337 500l-143 -619c-35 -116 -75 -138 -129 -138h-15v82h15c18 0 38 9 52 56l21 115l-125 504h82l57 -232l24 -153h3l25 153l55 232h78zM304 627h-271v72h271v-72z" />
    <glyph glyph-name="uni04F3" unicode="&#x4f3;" horiz-adv-x="348" 
d="M337 500l-143 -619c-35 -116 -75 -138 -129 -138h-15v82h15c18 0 38 9 52 56l21 115l-125 504h82l57 -232l24 -153h3l25 153l55 232h78zM122 577h-62l32 173h85zM261 577h-62l46 173h85z" />
    <glyph glyph-name="uni0444" unicode="&#x444;" horiz-adv-x="496" 
d="M306 0h-19v-250h-78v250h-18c-106 0 -161 93 -161 250s55 250 161 250h18v250h78v-250h19c105 0 160 -93 160 -250s-55 -250 -160 -250zM191 72h21v356h-21c-54 0 -83 -66 -83 -178s29 -178 83 -178zM306 428h-21v-356h21c53 0 82 66 82 178s-29 178 -82 178z" />
    <glyph glyph-name="uni0445" unicode="&#x445;" horiz-adv-x="355" 
d="M329 500l-103 -238l111 -262h-88l-71 211h-3l-73 -211h-84l111 256l-102 244h88l39 -106l24 -83h3l24 83l40 106h84z" />
    <glyph glyph-name="uni0446" unicode="&#x446;" horiz-adv-x="411" 
d="M386 -149h-78v149h-254v500h79v-428h135v428h78v-428h40v-221z" />
    <glyph glyph-name="uni0447" unicode="&#x447;" horiz-adv-x="367" 
d="M169 261h66v239h78v-500h-78v189h-66c-105 0 -133 70 -133 142v169h79v-169c0 -32 12 -70 54 -70z" />
    <glyph glyph-name="uni0448" unicode="&#x448;" horiz-adv-x="548" 
d="M416 500h78v-500h-440v500h79v-428h102v428h78v-428h103v428z" />
    <glyph glyph-name="uni0449" unicode="&#x449;" horiz-adv-x="559" 
d="M535 -149h-78v149h-403v500h79v-428h102v428h78v-428h103v428h78v-428h41v-221z" />
    <glyph glyph-name="uni044A" unicode="&#x44a;" horiz-adv-x="381" 
d="M84 428h-78v72h157v-166h59c87 0 133 -54 133 -167c0 -111 -46 -167 -133 -167h-138v428zM163 72h59c35 0 54 28 54 95c0 68 -19 95 -54 95h-59v-190z" />
    <glyph glyph-name="uni044B" unicode="&#x44b;" horiz-adv-x="502" 
d="M133 334h59c87 0 133 -54 133 -167c0 -111 -46 -167 -133 -167h-138v500h79v-166zM133 72h59c35 0 54 28 54 95c0 68 -19 95 -54 95h-59v-190zM448 500v-500h-79v500h79z" />
    <glyph glyph-name="uni044C" unicode="&#x44c;" horiz-adv-x="351" 
d="M133 334h59c87 0 133 -54 133 -167c0 -111 -46 -167 -133 -167h-138v500h79v-166zM133 72h59c35 0 54 28 54 95c0 68 -19 95 -54 95h-59v-190z" />
    <glyph glyph-name="uni044D" unicode="&#x44d;" horiz-adv-x="380" 
d="M270 289c-4 105 -27 147 -85 147c-52 0 -76 -38 -76 -122v-8h-78v8c0 131 57 195 154 195c114 0 165 -83 165 -259s-51 -259 -165 -259c-98 0 -154 69 -154 205v8h78v-8c0 -91 23 -132 76 -132c60 0 83 44 86 157h-125v68h124z" />
    <glyph glyph-name="uni044E" unicode="&#x44e;" horiz-adv-x="540" 
d="M194 289c7 151 56 220 158 220c109 0 158 -81 158 -259s-49 -259 -158 -259c-103 0 -152 71 -158 226h-61v-217h-79v500h79v-211h61zM272 250c0 -129 22 -186 80 -186c57 0 79 57 79 186s-22 186 -79 186c-58 0 -80 -57 -80 -186z" />
    <glyph glyph-name="uni044F" unicode="&#x44f;" horiz-adv-x="367" 
d="M42 339c0 100 45 161 134 161h137v-500h-79v173h-54l-60 -173h-82l67 198c-41 24 -63 73 -63 141zM120 339c0 -63 19 -99 56 -99h58v188h-58c-37 0 -56 -33 -56 -89z" />
    <glyph glyph-name="uni0452" unicode="&#x452;" 
d="M221 509c87 0 124 -61 124 -205v-363c0 -135 -44 -198 -134 -198h-17v77h17c38 0 56 39 56 121v363c0 92 -16 133 -61 133c-49 0 -74 -58 -74 -162v-275h-78v610h-40v66h40v74h78v-74h98v-66h-98v-159c19 39 48 58 89 58z" />
    <glyph glyph-name="uni0454" unicode="&#x454;" horiz-adv-x="380" 
d="M271 314c0 84 -24 122 -76 122c-58 0 -81 -42 -85 -147h124v-68h-125c3 -113 26 -157 86 -157c53 0 76 41 76 132v8h78v-8c0 -136 -56 -205 -154 -205c-114 0 -165 83 -165 259s51 259 165 259c97 0 154 -64 154 -195v-8h-78v8z" />
    <glyph glyph-name="uni0455" unicode="&#x455;" horiz-adv-x="352" 
d="M236 134c0 114 -199 60 -199 237c0 73 37 138 137 138c94 0 137 -57 137 -164v-11h-79v11c0 68 -18 91 -58 91c-46 0 -59 -26 -59 -65c0 -114 199 -59 199 -237c0 -81 -41 -143 -141 -143c-94 0 -141 55 -141 167v15h79v-15c0 -71 19 -93 62 -93c49 0 63 25 63 69z" />
    <glyph glyph-name="uni0456" unicode="&#x456;" horiz-adv-x="188" 
d="M133 500v-500h-78v500h78zM96 605c-34 0 -52 22 -52 58c0 37 18 58 52 58c33 0 52 -21 52 -58c0 -36 -21 -58 -52 -58z" />
    <glyph glyph-name="uni0457" unicode="&#x457;" horiz-adv-x="188" 
d="M133 500v-500h-78v500h78zM32 605c-35 0 -53 22 -53 58c0 37 18 58 53 58c33 0 52 -21 52 -58c0 -36 -21 -58 -52 -58zM155 605c-34 0 -52 22 -52 58c0 37 18 58 52 58c33 0 52 -21 52 -58c0 -36 -21 -58 -52 -58z" />
    <glyph glyph-name="uni0458" unicode="&#x458;" horiz-adv-x="192" 
d="M-88 -79h78c0 -90 13 -106 34 -106s32 16 32 106v579h79v-579c0 -126 -33 -178 -111 -178c-80 0 -112 57 -112 178zM98 605c-34 0 -52 22 -52 58c0 37 18 58 52 58c33 0 52 -21 52 -58c0 -36 -21 -58 -52 -58z" />
    <glyph glyph-name="uni0459" unicode="&#x459;" horiz-adv-x="538" 
d="M330 72h50c35 0 53 28 53 95c0 68 -18 95 -53 95h-50v-190zM251 0v428h-86l-2 -142c-6 -271 -43 -290 -116 -290h-21v81h21c20 0 35 13 40 210l6 213h237v-166h50c87 0 132 -54 132 -167c0 -111 -45 -167 -132 -167h-129z" />
    <glyph glyph-name="uni045A" unicode="&#x45a;" horiz-adv-x="545" 
d="M336 72h51c35 0 53 22 53 74c0 53 -18 73 -53 73h-51v-147zM258 0v219h-126v-219h-78v500h78v-209h126v209h78v-209h51c87 0 132 -47 132 -145s-45 -146 -132 -146h-129z" />
    <glyph glyph-name="uni045B" unicode="&#x45b;" 
d="M132 451c19 39 48 58 89 58c87 0 124 -61 124 -205v-304h-78v304c0 92 -16 133 -61 133c-49 0 -74 -58 -74 -162v-275h-78v610h-40v66h40v74h78v-74h98v-66h-98v-159z" />
    <glyph glyph-name="uni045F" unicode="&#x45f;" horiz-adv-x="400" 
d="M239 0v-149h-78v149h-107v500h79v-428h135v428h78v-500h-107z" />
    <glyph glyph-name="uni0491" unicode="&#x491;" horiz-adv-x="291" 
d="M54 500h144v149h78v-221h-144v-428h-78v500z" />
    <glyph glyph-name="uni0493" unicode="&#x493;" horiz-adv-x="291" 
d="M215 260v-72h-83v-188h-78v188h-39v72h39v240h222v-72h-144v-168h83z" />
    <glyph glyph-name="uni0497" unicode="&#x497;" horiz-adv-x="526" 
d="M224 218h-40l-75 -218h-86l97 261l-90 239h82l72 -210h40v210h78v-210h39l73 210h82l-90 -241l70 -187h41v-221h-78v149h-22l-76 218h-39v-218h-78v218z" />
    <glyph glyph-name="uni0499" unicode="&#x499;" horiz-adv-x="363" 
d="M214 -6v-143h-79v145c-69 18 -99 80 -99 159v30h78v-30c0 -51 14 -91 66 -91s65 35 65 81c0 42 -10 74 -51 74h-44v72h43c38 0 48 27 48 69c0 47 -12 76 -61 76s-61 -33 -61 -86v-26h-78v26c0 97 42 159 139 159c99 0 139 -57 139 -149c0 -52 -17 -87 -53 -105
c38 -19 58 -55 58 -110c0 -74 -34 -137 -110 -151z" />
    <glyph glyph-name="uni049B" unicode="&#x49b;" horiz-adv-x="380" 
d="M132 0h-78v500h78v-209h39l85 209h85l-105 -247l82 -181h46v-221h-78v149h-22l-93 219h-39v-219z" />
    <glyph glyph-name="uni049D" unicode="&#x49d;" horiz-adv-x="448" 
d="M240 80h-78v139h-30v-219h-78v500h78v-209h30v129h78v-129h20l76 209h86l-97 -247l106 -253h-88l-83 219h-20v-139z" />
    <glyph glyph-name="uni04A1" unicode="&#x4a1;" 
d="M286 500h85l-105 -247l114 -253h-86l-93 219h-39v-219h-78v428h-78v72h156v-209h39z" />
    <glyph glyph-name="uni04A3" unicode="&#x4a3;" horiz-adv-x="410" 
d="M345 500v-428h41v-221h-78v149h-41v219h-135v-219h-78v500h78v-209h135v209h78z" />
    <glyph glyph-name="uni04AB" unicode="&#x4ab;" horiz-adv-x="374" 
d="M265 314c0 84 -23 122 -73 122c-62 0 -83 -52 -83 -186s21 -186 83 -186c51 0 73 41 73 132v8h78v-8c0 -118 -41 -186 -115 -201v-144h-79v145c-81 20 -119 103 -119 254c0 176 51 259 162 259c96 0 151 -64 151 -195v-8h-78v8z" />
    <glyph glyph-name="uni04AF" unicode="&#x4af;" horiz-adv-x="344" 
d="M133 -250v262l-122 488h76l66 -282l18 -124h3l18 124l66 282h75l-122 -492v-258h-78z" />
    <glyph glyph-name="uni04B1" unicode="&#x4b1;" horiz-adv-x="344" 
d="M133 -60v72l-122 488h76l66 -282l18 -124h3l18 124l66 282h75l-122 -492v-68h82v-72h-82v-118h-78v118h-83v72h83z" />
    <glyph glyph-name="uni04B3" unicode="&#x4b3;" horiz-adv-x="362" 
d="M245 500h84l-103 -238l80 -190h43v-221h-78v149h-22l-71 211h-3l-73 -211h-84l111 256l-102 244h88l39 -106l24 -83h3l24 83z" />
    <glyph glyph-name="uni04B7" unicode="&#x4b7;" horiz-adv-x="378" 
d="M115 331c0 -32 12 -70 54 -70h66v239h78v-428h40v-221h-78v149h-40v189h-66c-105 0 -133 70 -133 142v169h79v-169z" />
    <glyph glyph-name="uni04BB" unicode="&#x4bb;" 
d="M132 451c19 39 48 58 89 58c87 0 124 -61 124 -205v-304h-78v304c0 92 -16 133 -61 133c-49 0 -74 -58 -74 -162v-275h-78v750h78v-299z" />
    <glyph glyph-name="uni04CF" unicode="&#x4cf;" horiz-adv-x="187" 
d="M132 750v-750h-78v750h78z" />
    <glyph glyph-name="uni04D9" unicode="&#x4d9;" horiz-adv-x="369" 
d="M339 250c0 -176 -50 -259 -160 -259c-98 0 -152 70 -152 221v58h234c-2 120 -24 166 -82 166c-50 0 -70 -37 -70 -94v-4h-78v4c0 99 51 167 148 167c110 0 160 -75 160 -259zM179 64c49 0 71 39 78 137h-151v-15c0 -81 28 -122 73 -122z" />
    <glyph glyph-name="uni04E9" unicode="&#x4e9;" horiz-adv-x="383" 
d="M30 250c0 176 51 259 162 259c110 0 161 -83 161 -259s-51 -259 -161 -259c-111 0 -162 83 -162 259zM109 217c4 -110 26 -153 83 -153s78 43 82 153h-165zM192 436c-56 0 -78 -42 -82 -149h163c-3 107 -25 149 -81 149z" />
    <glyph glyph-name="zero" unicode="0" horiz-adv-x="407" 
d="M286 209v284c0 100 -24 143 -83 143s-82 -43 -82 -143v-284c0 -100 23 -143 82 -143s83 43 83 143zM367 493v-284c0 -147 -52 -219 -164 -219s-163 72 -163 219v284c0 148 51 219 163 219s164 -72 164 -219z" />
    <glyph glyph-name="one" unicode="1" horiz-adv-x="354" 
d="M152 76v525l-90 -78h-8v92l98 85h81v-624h97v-76h-294v76h116z" />
    <glyph glyph-name="two" unicode="2" horiz-adv-x="407" 
d="M367 501c0 -100 -51 -194 -142 -309l-84 -115h226v-77h-327v77l106 143c115 130 140 202 140 281c0 99 -24 135 -83 135c-58 0 -82 -41 -82 -140v-55h-81v55c0 146 51 216 163 216c113 0 164 -65 164 -211z" />
    <glyph glyph-name="three" unicode="3" horiz-adv-x="415" 
d="M291 204c0 100 -30 126 -83 126h-37v76l105 218h-142v-124h-80v200h308v-76l-117 -228c81 -12 127 -66 127 -192c0 -162 -61 -215 -164 -215c-101 0 -163 53 -163 215v45h81v-45c0 -109 26 -139 82 -139s83 30 83 139z" />
    <glyph glyph-name="four" unicode="4" horiz-adv-x="395" 
d="M28 206l91 494h84l-91 -494h142v371h81v-371h33v-76h-33v-130h-81v130h-226v76z" />
    <glyph glyph-name="five" unicode="5" horiz-adv-x="402" 
d="M289 196c0 93 -24 134 -82 134h-152v370h301v-76h-220v-218h71c113 0 163 -69 163 -210c0 -140 -50 -208 -163 -208c-112 0 -163 68 -163 208v15h81v-15c0 -92 23 -132 82 -132c58 0 82 40 82 132z" />
    <glyph glyph-name="six" unicode="6" horiz-adv-x="415" 
d="M211 636c-64 0 -89 -41 -89 -140v-126c23 34 55 50 97 50c112 0 162 -70 162 -215s-53 -216 -170 -216s-170 71 -170 215v292c0 146 51 216 170 216c116 0 170 -70 170 -216v-15h-81v15c0 99 -25 140 -89 140zM211 344c-60 0 -89 -41 -89 -139v-1c0 -97 24 -139 89 -139
c63 0 88 42 88 140s-25 139 -88 139z" />
    <glyph glyph-name="seven" unicode="7" horiz-adv-x="347" 
d="M18 624v76h306v-76l-150 -624h-85l150 624h-221z" />
    <glyph glyph-name="eight" unicode="8" horiz-adv-x="408" 
d="M374 194c0 -137 -52 -204 -170 -204s-169 67 -169 204c0 82 19 135 62 165c-38 30 -55 80 -55 156c0 132 50 197 162 197s163 -65 163 -197c0 -76 -16 -127 -54 -156c43 -30 61 -84 61 -165zM204 66c63 0 89 38 89 128c0 89 -26 127 -89 127s-88 -38 -88 -127
c0 -90 25 -128 88 -128zM204 636c-58 0 -81 -37 -81 -121c0 -85 23 -121 81 -121s82 36 82 121c0 84 -24 121 -82 121z" />
    <glyph glyph-name="nine" unicode="9" horiz-adv-x="415" 
d="M204 65c64 0 89 42 89 140v126c-23 -33 -55 -50 -97 -50c-112 0 -162 71 -162 216s53 215 170 215s170 -70 170 -215v-292c0 -146 -51 -216 -170 -216c-116 0 -170 71 -170 216v15h81v-15c0 -98 25 -140 89 -140zM204 357c60 0 89 42 89 140s-24 139 -89 139
c-63 0 -88 -41 -88 -139s25 -140 88 -140z" />
    <glyph glyph-name="underscore" unicode="_" horiz-adv-x="614" 
d="M54 64h507v-76h-507v76z" />
    <glyph glyph-name="hyphen" unicode="-" horiz-adv-x="309" 
d="M259 304v-76h-208v76h208z" />
    <glyph glyph-name="endash" unicode="&#x2013;" horiz-adv-x="369" 
d="M27 225v83h315v-83h-315z" />
    <glyph glyph-name="emdash" unicode="&#x2014;" horiz-adv-x="491" 
d="M21 225v83h449v-83h-449z" />
    <glyph glyph-name="parenleft" unicode="(" horiz-adv-x="246" 
d="M41 311c0 471 73 561 186 561h9v-76h-9c-61 0 -105 -64 -105 -485s44 -485 105 -485h9v-76h-9c-113 0 -186 90 -186 561z" />
    <glyph glyph-name="parenright" unicode=")" horiz-adv-x="246" 
d="M205 311c0 -471 -73 -561 -186 -561h-9v76h9c61 0 105 64 105 485s-44 485 -105 485h-9v76h9c113 0 186 -90 186 -561z" />
    <glyph glyph-name="bracketleft" unicode="[" horiz-adv-x="226" 
d="M61 -250v1122h155v-76h-74v-970h74v-76h-155z" />
    <glyph glyph-name="bracketright" unicode="]" horiz-adv-x="226" 
d="M165 872v-1122h-155v76h74v970h-74v76h155z" />
    <glyph glyph-name="braceleft" unicode="{" horiz-adv-x="247" 
d="M88 225c0 31 -15 50 -43 50h-18v71h18c28 0 43 18 43 49v351c0 83 43 125 116 125h33v-76h-33c-23 0 -35 -16 -35 -49v-351c0 -39 -16 -68 -46 -85c30 -17 46 -46 46 -85v-350c0 -33 12 -49 35 -49h33v-76h-33c-73 0 -116 42 -116 125v350z" />
    <glyph glyph-name="braceright" unicode="}" horiz-adv-x="247" 
d="M159 225v-350c0 -83 -43 -125 -116 -125h-33v76h33c23 0 35 16 35 49v350c0 39 16 68 46 85c-30 17 -46 46 -46 85v351c0 33 -12 49 -35 49h-33v76h33c73 0 116 -42 116 -125v-351c0 -31 15 -49 43 -49h18v-71h-18c-28 0 -43 -19 -43 -50z" />
    <glyph glyph-name="numbersign" unicode="#" horiz-adv-x="460" 
d="M168 186l-14 -186h-78l14 186h-63v72h68l14 181h-82v72h87l14 189h78l-14 -189h100l14 189h78l-14 -189h63v-72h-68l-14 -181h82v-72h-87l-14 -186h-78l14 186h-100zM187 439l-14 -181h100l14 181h-100z" />
    <glyph glyph-name="percent" unicode="%" horiz-adv-x="522" 
d="M137 459c26 0 41 25 41 92c0 68 -15 93 -41 93c-29 0 -43 -25 -43 -93c0 -67 14 -92 43 -92zM137 392c-73 0 -110 50 -110 159c0 110 37 159 110 159c68 0 109 -49 109 -159c0 -109 -41 -159 -109 -159zM159 0h-87l289 700h87zM383 58c26 0 41 25 41 92s-15 93 -41 93
c-29 0 -43 -25 -43 -93c0 -67 14 -92 43 -92zM383 -9c-73 0 -110 50 -110 159c0 110 37 159 110 159c68 0 109 -50 109 -159s-41 -159 -109 -159z" />
    <glyph glyph-name="perthousand" unicode="&#x2030;" horiz-adv-x="671" 
d="M641 150c0 -109 -38 -159 -109 -159c-32 0 -57 14 -75 41c-18 -28 -43 -41 -74 -41c-73 0 -110 50 -110 159c0 110 37 159 110 159c32 0 56 -13 74 -42c18 28 43 42 75 42c71 0 109 -49 109 -159zM246 551c0 -109 -41 -159 -109 -159c-73 0 -110 50 -110 159
c0 110 37 159 110 159c68 0 109 -49 109 -159zM448 700l-289 -700h-87l289 700h87zM94 551c0 -67 14 -92 43 -92c26 0 41 25 41 92c0 68 -15 93 -41 93c-29 0 -43 -25 -43 -93zM340 150c0 -67 14 -92 43 -92c26 0 41 25 41 92s-15 93 -41 93c-29 0 -43 -25 -43 -93zM490 150
c0 -67 15 -92 42 -92s42 25 42 92c0 68 -15 93 -42 93s-42 -26 -42 -93z" />
    <glyph glyph-name="quotesingle" unicode="'" horiz-adv-x="154" 
d="M96 509h-62v241h81v-35z" />
    <glyph glyph-name="quotedbl" unicode="&#x22;" horiz-adv-x="267" 
d="M96 509h-62v241h81v-35zM209 509h-62v241h81v-35z" />
    <glyph glyph-name="quoteleft" unicode="&#x2018;" horiz-adv-x="156" 
d="M122 750v-196c0 -36 -16 -58 -49 -58c-32 0 -50 22 -50 58c0 19 6 46 10 64l32 132h57z" />
    <glyph glyph-name="quoteright" unicode="&#x2019;" horiz-adv-x="155" 
d="M33 496v196c0 37 17 58 49 58c33 0 51 -21 51 -58c0 -18 -6 -46 -11 -63l-32 -133h-57z" />
    <glyph glyph-name="quotedblleft" unicode="&#x201c;" horiz-adv-x="292" 
d="M122 750v-196c0 -36 -16 -58 -49 -58c-32 0 -50 22 -50 58c0 19 6 46 10 64l32 132h57zM258 750v-196c0 -36 -16 -58 -49 -58c-32 0 -50 22 -50 58c0 19 6 46 10 64l32 132h57z" />
    <glyph glyph-name="quotedblright" unicode="&#x201d;" horiz-adv-x="291" 
d="M33 496v196c0 37 17 58 49 58c33 0 51 -21 51 -58c0 -18 -6 -46 -11 -63l-32 -133h-57zM169 496v196c0 37 17 58 49 58c33 0 51 -21 51 -58c0 -18 -6 -46 -11 -63l-32 -133h-57z" />
    <glyph glyph-name="quotesinglbase" unicode="&#x201a;" horiz-adv-x="155" 
d="M33 -120v196c0 37 17 58 49 58c33 0 51 -21 51 -58c0 -18 -6 -46 -11 -63l-32 -133h-57z" />
    <glyph glyph-name="quotedblbase" unicode="&#x201e;" horiz-adv-x="291" 
d="M33 -120v196c0 37 17 58 49 58c33 0 51 -21 51 -58c0 -18 -6 -46 -11 -63l-32 -133h-57zM169 -120v196c0 37 17 58 49 58c33 0 51 -21 51 -58c0 -18 -6 -46 -11 -63l-32 -133h-57z" />
    <glyph glyph-name="guilsinglleft" unicode="&#x2039;" horiz-adv-x="216" 
d="M113 248l61 -93v-124h-6l-147 219l147 218h6v-123l-61 -95v-2z" />
    <glyph glyph-name="guilsinglright" unicode="&#x203a;" horiz-adv-x="216" 
d="M42 155l61 93v2l-61 95v123h6l147 -218l-147 -219h-6v124z" />
    <glyph glyph-name="guillemotleft" unicode="&#xab;" horiz-adv-x="386" 
d="M113 248l61 -93v-124h-6l-147 219l147 218h6v-123l-61 -95v-2zM283 248l61 -93v-124h-6l-147 219l147 218h6v-123l-61 -95v-2z" />
    <glyph glyph-name="guillemotright" unicode="&#xbb;" horiz-adv-x="386" 
d="M42 155l61 93v2l-61 95v123h6l147 -218l-147 -219h-6v124zM213 155l61 93v2l-61 95v123h6l147 -218l-147 -219h-6v124z" />
    <glyph glyph-name="asterisk" unicode="*" horiz-adv-x="307" 
d="M268 375l-55 -31l-42 97l-16 51h-2l-16 -51l-43 -97l-54 32l76 150l-106 30l16 60l101 -37l-6 171h65l-6 -171l102 37l15 -60l-105 -30z" />
    <glyph glyph-name="dagger" unicode="&#x2020;" horiz-adv-x="327" 
d="M204 0h-81v424h-96v76h96v200h81v-200h96v-76h-96v-424z" />
    <glyph glyph-name="daggerdbl" unicode="&#x2021;" horiz-adv-x="327" 
d="M204 0h-81v172h-96v76h96v176h-96v76h96v200h81v-200h96v-76h-96v-176h96v-76h-96v-172z" />
    <glyph glyph-name="period" unicode="." horiz-adv-x="140" 
d="M21 46c0 37 17 58 49 58s50 -21 50 -58c0 -36 -18 -58 -50 -58s-49 22 -49 58z" />
    <glyph glyph-name="comma" unicode="," horiz-adv-x="140" 
d="M21 -120v196c0 37 16 58 49 58c32 0 50 -21 50 -58c0 -18 -6 -46 -10 -63l-32 -133h-57z" />
    <glyph glyph-name="colon" unicode=":" horiz-adv-x="140" 
d="M21 46c0 37 17 58 49 58s50 -21 50 -58c0 -36 -18 -58 -50 -58s-49 22 -49 58zM21 362c0 37 17 58 49 58s50 -21 50 -58c0 -36 -18 -58 -50 -58s-49 22 -49 58z" />
    <glyph glyph-name="semicolon" unicode=";" horiz-adv-x="140" 
d="M21 -120v196c0 37 16 58 49 58c32 0 50 -21 50 -58c0 -18 -6 -46 -10 -63l-32 -133h-57zM21 362c0 37 17 58 49 58s50 -21 50 -58c0 -36 -18 -58 -50 -58s-49 22 -49 58z" />
    <glyph glyph-name="ellipsis" unicode="&#x2026;" horiz-adv-x="450" 
d="M21 46c0 37 17 58 49 58s50 -21 50 -58c0 -36 -18 -58 -50 -58s-49 22 -49 58zM176 46c0 37 17 58 49 58s50 -21 50 -58c0 -36 -18 -58 -50 -58s-49 22 -49 58zM331 46c0 37 17 58 49 58s50 -21 50 -58c0 -36 -18 -58 -50 -58s-49 22 -49 58z" />
    <glyph glyph-name="exclam" unicode="!" horiz-adv-x="207" 
d="M64 700h81l-3 -518h-75zM54 46c0 37 17 58 50 58c31 0 50 -21 50 -58c0 -36 -19 -58 -50 -58c-33 0 -50 22 -50 58z" />
    <glyph glyph-name="exclamdown" unicode="&#xa1;" horiz-adv-x="207" 
d="M145 -203h-81l3 518h75zM54 451c0 37 17 58 50 58c31 0 50 -21 50 -58c0 -36 -19 -58 -50 -58c-33 0 -50 22 -50 58z" />
    <glyph glyph-name="question" unicode="?" horiz-adv-x="407" 
d="M366 503c0 -100 -43 -168 -120 -188v-133h-81v196h31c57 0 89 48 89 125c0 81 -29 128 -81 128c-54 0 -82 -42 -82 -118v-45h-81v45c0 126 61 199 163 199s162 -77 162 -209zM205 -12c-32 0 -49 22 -49 58c0 37 17 58 49 58s50 -21 50 -58c0 -36 -18 -58 -50 -58z" />
    <glyph glyph-name="questiondown" unicode="&#xbf;" horiz-adv-x="407" 
d="M41 -5c0 100 44 168 121 188v133h81v-196h-32c-57 0 -89 -47 -89 -125c0 -81 29 -128 82 -128s81 42 81 118v45h81v-45c0 -126 -60 -199 -162 -199s-163 77 -163 209zM202 510c33 0 50 -21 50 -58c0 -36 -17 -58 -50 -58c-31 0 -50 22 -50 58c0 37 19 58 50 58z" />
    <glyph glyph-name="slash" unicode="/" horiz-adv-x="294" 
d="M253 700l-131 -700h-81l131 700h81z" />
    <glyph glyph-name="backslash" unicode="\" horiz-adv-x="294" 
d="M172 0l-131 700h81l131 -700h-81z" />
    <glyph glyph-name="fraction" unicode="&#x2044;" horiz-adv-x="290" 
d="M170 0h-87l287 700h87z" />
    <glyph glyph-name="bar" unicode="|" horiz-adv-x="223" 
d="M71 -250v950h81v-950h-81z" />
    <glyph glyph-name="brokenbar" unicode="&#xa6;" horiz-adv-x="236" 
d="M78 -250v416h81v-416h-81zM78 304v396h81v-396h-81z" />
    <glyph glyph-name="at" unicode="@" horiz-adv-x="640" 
d="M377 157v59h-71c-36 0 -57 -25 -57 -77c0 -51 17 -76 47 -76c50 0 81 28 81 94zM320 -141c145 0 212 136 212 391c0 253 -68 391 -212 391c-147 0 -212 -138 -212 -391s65 -391 212 -391zM456 0h-79v46c-19 -34 -50 -55 -90 -55c-72 0 -116 55 -116 146s47 145 126 145
h80v70c0 66 -21 85 -58 85c-39 0 -60 -19 -60 -85v-12h-78v12c0 109 52 157 138 157c85 0 137 -44 137 -157v-352zM320 -212c-199 0 -285 158 -285 462s86 462 285 462c194 0 286 -158 286 -462s-93 -462 -286 -462z" />
    <glyph glyph-name="ampersand" unicode="&#x26;" horiz-adv-x="449" 
d="M126 514c0 -74 9 -118 70 -118h230v-76h-48v-128c0 -129 -58 -203 -170 -203c-114 0 -170 74 -170 204c0 79 23 139 76 165c-52 23 -69 78 -69 156c0 140 61 199 163 199c106 0 168 -59 168 -199v-46h-81v46c0 87 -29 123 -87 123c-54 0 -82 -36 -82 -123zM208 65
c58 0 89 39 89 127v128h-101c-55 0 -77 -47 -77 -127c0 -89 31 -128 89 -128z" />
    <glyph glyph-name="section" unicode="&#xa7;" horiz-adv-x="350" 
d="M242 127c0 111 -203 40 -203 223c0 41 15 90 57 116c-36 27 -54 66 -54 105c0 86 41 141 134 141c84 0 135 -43 135 -154v-18h-73v18c0 67 -22 87 -62 87c-49 0 -61 -33 -61 -74c0 -110 198 -39 198 -221c0 -40 -15 -88 -55 -115c40 -28 58 -68 58 -108
c0 -83 -43 -139 -140 -139c-86 0 -140 41 -140 154v18h73v-18c0 -68 24 -86 67 -86c53 0 66 32 66 71zM176 428c-52 0 -65 -35 -65 -78s13 -78 65 -78s65 35 65 78s-13 78 -65 78z" />
    <glyph glyph-name="paragraph" unicode="&#xb6;" horiz-adv-x="426" 
d="M34 482c0 138 57 218 153 218h186v-951h-81v875h-81v-874h-81v525c-61 27 -96 99 -96 207z" />
    <glyph glyph-name="uni2116" unicode="&#x2116;" horiz-adv-x="747" 
d="M583 263c26 0 42 32 42 98s-16 98 -42 98c-29 0 -43 -32 -43 -98s14 -98 43 -98zM583 202c-70 0 -107 50 -107 159c0 110 37 159 107 159c67 0 106 -49 106 -159c0 -109 -39 -159 -106 -159zM348 700h329v-76h-251v-624h-126l-170 617h-1l3 -117v-500h-78v700h125
l171 -617h1l-3 117v500z" />
    <glyph glyph-name="periodcentered" unicode="&#xb7;" horiz-adv-x="140" 
d="M21 262c0 37 17 58 49 58s50 -21 50 -58c0 -36 -18 -58 -50 -58s-49 22 -49 58z" />
    <glyph glyph-name="bullet" unicode="&#x2022;" horiz-adv-x="600" 
d="M300 -9c-164 0 -250 136 -250 360c0 226 86 359 250 359c157 0 250 -133 250 -359c0 -224 -93 -360 -250 -360z" />
    <glyph glyph-name="minute" unicode="&#x2032;" horiz-adv-x="144" 
d="M103 509h-81l19 206v35h81v-35z" />
    <glyph glyph-name="second" unicode="&#x2033;" horiz-adv-x="275" 
d="M103 509h-81l19 206v35h81v-35zM234 509h-81l19 206v35h81v-35z" />
    <glyph glyph-name="plus" unicode="+" horiz-adv-x="353" 
d="M330 395v-76h-114v-182h-79v182h-114v76h114v181h79v-181h114z" />
    <glyph glyph-name="minus" unicode="&#x2212;" horiz-adv-x="346" 
d="M327 395v-76h-307v76h307z" />
    <glyph glyph-name="plusminus" unicode="&#xb1;" horiz-adv-x="346" 
d="M20 437v76h114v176h79v-176h114v-76h-114v-182h-79v182h-114zM20 184h307v-76h-307v76z" />
    <glyph glyph-name="divide" unicode="&#xf7;" horiz-adv-x="346" 
d="M327 405v-76h-307v76h307zM124 169c0 37 17 58 49 58s50 -21 50 -58c0 -36 -18 -58 -50 -58s-49 22 -49 58zM124 564c0 37 17 58 49 58s50 -21 50 -58c0 -36 -18 -58 -50 -58s-49 22 -49 58z" />
    <glyph glyph-name="multiply" unicode="&#xd7;" horiz-adv-x="347" 
d="M124 358l-98 148l59 49l88 -126l88 126l60 -49l-99 -149l99 -149l-59 -48l-88 126l-89 -126l-60 49z" />
    <glyph glyph-name="equal" unicode="=" horiz-adv-x="346" 
d="M327 277v-76h-307v76h307zM327 513v-76h-307v76h307z" />
    <glyph glyph-name="less" unicode="&#x3c;" horiz-adv-x="336" 
d="M14 313v75l269 228h6v-94l-192 -172l192 -173v-94h-6z" />
    <glyph glyph-name="greater" unicode="&#x3e;" horiz-adv-x="336" 
d="M323 388v-75l-270 -230h-6v94l192 173l-192 172v94h6z" />
    <glyph glyph-name="lessequal" unicode="&#x2264;" horiz-adv-x="336" 
d="M14 397v75l269 228h6v-95l-192 -171l192 -174v-93h-6zM14 76h279v-76h-279v76z" />
    <glyph glyph-name="greaterequal" unicode="&#x2265;" horiz-adv-x="336" 
d="M323 472v-75l-270 -230h-6v94l192 173l-192 172v94h6zM44 76h279v-76h-279v76z" />
    <glyph glyph-name="approxequal" unicode="&#x2248;" horiz-adv-x="346" 
d="M233 335c50 0 93 -32 93 -124v-50h-76v45c0 33 -8 50 -27 50c-40 0 -31 -102 -110 -102c-49 0 -92 32 -92 123v51h76v-46c0 -32 8 -50 27 -50c39 0 31 103 109 103zM233 554c50 0 93 -32 93 -123v-51h-76v46c0 32 -8 50 -27 50c-40 0 -31 -103 -110 -103
c-49 0 -92 32 -92 124v50h76v-45c0 -33 8 -50 27 -50c39 0 31 102 109 102z" />
    <glyph glyph-name="dollar" unicode="$" horiz-adv-x="426" 
d="M320 470c0 109 -15 156 -69 165v-237c74 -35 157 -71 157 -210c0 -106 -46 -189 -157 -198v-122h-71v122c-109 8 -156 81 -156 246v18h81v-18c0 -115 18 -161 75 -170v258c-72 34 -149 72 -149 204c0 92 41 174 149 184v110h71v-110c107 -10 150 -89 150 -242v-18h-81v18
zM327 188c0 61 -33 90 -76 114v-235c54 9 76 54 76 121zM112 528c0 -55 29 -85 68 -107v214c-47 -10 -68 -52 -68 -107z" />
    <glyph glyph-name="cent" unicode="&#xa2;" horiz-adv-x="384" 
d="M20 250c0 162 43 245 137 257v143h71v-142c84 -8 132 -72 132 -194v-8h-78v8c0 73 -17 111 -54 120v-368c38 10 54 51 54 130v8h78v-8c0 -127 -47 -195 -132 -204v-142h-71v143c-94 12 -137 95 -137 257zM99 250c0 -114 15 -169 58 -182v364c-43 -13 -58 -68 -58 -182z
" />
    <glyph glyph-name="sterling" unicode="&#xa3;" horiz-adv-x="446" 
d="M122 187v92h-41v72h41v160c0 124 37 201 144 201c104 0 146 -67 146 -242v-19h-81v19c0 129 -13 166 -65 166c-47 0 -63 -41 -63 -125v-160h100v-72h-100v-92c0 -49 -11 -86 -33 -111h241v-76h-357v76h12c38 0 56 23 56 111z" />
    <glyph glyph-name="yen" unicode="&#xa5;" horiz-adv-x="408" 
d="M303 700h85l-114 -406h78v-78h-28v-170h-53v-14h-137v14h-51v170h-27v78h75l-112 406h87l73 -261l23 -120h2l24 120z" />
    <glyph glyph-name="Euro" unicode="&#x20ac;" horiz-adv-x="474" 
d="M246 712c117 0 199 -91 199 -280v-15h-81v15c0 133 -48 204 -118 204c-69 0 -110 -64 -125 -175h171l-27 -76h-150c-1 -11 -1 -23 -1 -35v-25h135l-27 -75h-103c14 -118 55 -186 127 -186c71 0 118 76 118 216v16h82v-16c0 -197 -81 -292 -200 -292
c-118 0 -189 89 -208 262h-37v75h32v25c0 12 0 24 1 35h-33v76h38c21 165 92 251 207 251z" />
    <glyph glyph-name="uni20B4" unicode="&#x20b4;" horiz-adv-x="423" 
d="M40 157c0 33 10 65 32 90h-58v76h391v-76h-221c-44 0 -63 -47 -63 -90c0 -51 27 -93 90 -93s90 45 90 90v13h81v-13c0 -87 -52 -166 -171 -166s-171 76 -171 169zM382 544c0 -32 -10 -62 -30 -85h53v-76h-391v76h224c44 0 63 42 63 85c0 51 -27 92 -90 92
s-90 -45 -90 -90v-13h-81v13c0 87 52 166 171 166s171 -75 171 -168z" />
    <glyph glyph-name="uni20B8" unicode="&#x20b8;" horiz-adv-x="389" 
d="M16 444v76h358v-76h-139v-444h-81v444h-138zM374 624h-358v76h358v-76z" />
    <glyph glyph-name="asciicircum" unicode="^" horiz-adv-x="336" 
d="M313 387v-24h-79l-49 142l-16 73h-2l-16 -73l-49 -142h-79v24l121 313h47z" />
    <glyph glyph-name="acute" unicode="&#xb4;" horiz-adv-x="168" 
d="M25 577l45 173h86l-69 -173h-62z" />
    <glyph glyph-name="grave" unicode="`" horiz-adv-x="162" 
d="M145 577h-62l-69 173h85z" />
    <glyph glyph-name="hungarumlaut" unicode="&#x2dd;" horiz-adv-x="354" 
d="M104 577h-63l33 173h85zM243 577h-63l46 173h85z" />
    <glyph glyph-name="circumflex" unicode="&#x2c6;" horiz-adv-x="316" 
d="M112 577h-91l108 173h55l107 -173h-91l-44 88z" />
    <glyph glyph-name="caron" unicode="&#x2c7;" horiz-adv-x="311" 
d="M200 750h91l-108 -173h-55l-107 173h91l44 -88z" />
    <glyph glyph-name="breve" unicode="&#x2d8;" horiz-adv-x="351" 
d="M176 637c38 0 56 27 56 102v11h79v-11c0 -126 -52 -172 -135 -172c-84 0 -135 46 -135 172v11h78v-11c0 -75 20 -102 57 -102z" />
    <glyph glyph-name="tilde" unicode="&#x2dc;" horiz-adv-x="376" 
d="M131 567c-54 0 -90 35 -90 136v47h76v-57c0 -36 6 -53 19 -53c32 0 30 120 106 120c54 0 90 -34 90 -135v-48h-76v58c0 36 -6 53 -19 53c-32 0 -30 -121 -106 -121z" />
    <glyph glyph-name="macron" unicode="&#xaf;" horiz-adv-x="342" 
d="M311 627h-270v72h270v-72z" />
    <glyph glyph-name="dieresis" unicode="&#xa8;" horiz-adv-x="361" 
d="M104 605c-36 0 -55 23 -55 62c0 38 19 61 55 61c35 0 55 -23 55 -61c0 -39 -22 -62 -55 -62zM258 605c-35 0 -55 23 -55 62c0 38 20 61 55 61s56 -23 56 -61c0 -39 -22 -62 -56 -62z" />
    <glyph glyph-name="dotaccent" unicode="&#x2d9;" horiz-adv-x="189" 
d="M95 605c-34 0 -52 22 -52 58c0 37 18 58 52 58c33 0 52 -21 52 -58c0 -36 -21 -58 -52 -58z" />
    <glyph glyph-name="ring" unicode="&#x2da;" horiz-adv-x="297" 
d="M149 506c-68 0 -107 50 -107 159c0 110 39 159 107 159c67 0 107 -49 107 -159c0 -109 -40 -159 -107 -159zM149 573c26 0 42 25 42 92c0 68 -16 93 -42 93c-27 0 -42 -25 -42 -93c0 -67 15 -92 42 -92z" />
    <glyph glyph-name="cedilla" unicode="&#xb8;" horiz-adv-x="194" 
d="M82 -102c0 34 -6 48 -25 48h-17v87h68v-53c38 -17 49 -54 49 -97c0 -83 -39 -105 -93 -105c-13 0 -26 1 -41 6v71c8 -3 15 -4 27 -4c20 0 32 7 32 47z" />
    <glyph glyph-name="ogonek" unicode="&#x2db;" horiz-adv-x="192" 
d="M115 39l8 -39c-22 -10 -33 -36 -33 -74c0 -48 15 -62 35 -62c11 0 18 1 25 3v-73c-12 -4 -22 -5 -39 -5c-55 0 -93 30 -93 120c0 62 38 110 97 130z" />
    <glyph glyph-name="copyright" unicode="&#xa9;" horiz-adv-x="641" 
d="M321 -141c145 0 211 136 211 391c0 253 -67 391 -211 391c-148 0 -212 -138 -212 -391s64 -391 212 -391zM321 -212c-200 0 -286 158 -286 462s86 462 286 462c194 0 285 -158 285 -462s-92 -462 -285 -462zM323 436c-62 0 -83 -52 -83 -186s21 -186 83 -186
c51 0 73 41 73 132v8h78v-8c0 -136 -54 -205 -151 -205c-111 0 -162 83 -162 259s51 259 162 259c96 0 151 -64 151 -195v-8h-78v8c0 84 -23 122 -73 122z" />
    <glyph glyph-name="uni24C5" unicode="&#x24c5;" horiz-adv-x="640" 
d="M279 148v-148h-78v500h137c89 0 134 -67 134 -176c0 -111 -45 -176 -134 -176h-59zM279 428v-208h59c36 0 55 38 55 104c0 65 -19 104 -55 104h-59zM320 -141c145 0 212 136 212 391c0 253 -68 391 -212 391c-147 0 -212 -138 -212 -391s65 -391 212 -391zM320 -212
c-199 0 -285 158 -285 462s86 462 285 462c194 0 286 -158 286 -462s-93 -462 -286 -462z" />
    <glyph glyph-name="registered" unicode="&#xae;" horiz-adv-x="641" 
d="M606 250c0 -304 -92 -462 -285 -462c-200 0 -286 158 -286 462s86 462 286 462c194 0 285 -158 285 -462zM109 250c0 -253 64 -391 212 -391c145 0 211 136 211 391c0 253 -67 391 -211 391c-148 0 -212 -138 -212 -391zM460 324c0 -68 -22 -117 -63 -142l69 -182h-85
l-57 158h-57v-158h-78v500h137c89 0 134 -67 134 -176zM381 324c0 65 -17 104 -55 104h-59v-208h59c38 0 55 38 55 104z" />
    <glyph glyph-name="trademark" unicode="&#x2122;" horiz-adv-x="560" 
d="M88 633h-66v67h294l59 -204l59 204h93v-351h-68v245l-59 -203h-52l-58 197v-239h-68v284h-66v-284h-68v284z" />
    <glyph glyph-name="degree" unicode="&#xb0;" horiz-adv-x="254" 
d="M128 459c26 0 41 25 41 92c0 68 -15 93 -41 93c-29 0 -43 -25 -43 -93c0 -67 14 -92 43 -92zM128 392c-74 0 -110 50 -110 159c0 110 36 159 110 159c69 0 109 -49 109 -159c0 -109 -40 -159 -109 -159z" />
    <glyph glyph-name="uniF6C3" unicode="&#xf6c3;" horiz-adv-x="163" 
d="M78 782h51v-137c0 -35 -17 -56 -47 -56c-31 0 -49 21 -49 56c0 19 7 47 18 69z" />
    <glyph glyph-name="uniF6C9" unicode="&#xf6c9;" horiz-adv-x="194" 
d="M34 780l37 219h99l-68 -219h-68z" />
    <glyph glyph-name="uniF6CA" unicode="&#xf6ca;" horiz-adv-x="408" 
d="M172 780l-131 219h89l74 -131l74 131h89l-131 -219h-64z" />
    <glyph glyph-name="uniF6CB" unicode="&#xf6cb;" horiz-adv-x="409" 
d="M295 829c-34 0 -52 22 -52 60s18 60 52 60c32 0 52 -22 52 -60s-20 -60 -52 -60zM114 829c-33 0 -52 22 -52 60s19 60 52 60s53 -22 53 -60s-20 -60 -53 -60z" />
    <glyph glyph-name="uniF6CE" unicode="&#xf6ce;" horiz-adv-x="194" 
d="M170 780h-68l-68 219h99z" />
    <glyph glyph-name="uniF6CF" unicode="&#xf6cf;" horiz-adv-x="419" 
d="M116 780h-68l39 219h98zM285 780h-69l53 219h98z" />
    <glyph glyph-name="uniF6D0" unicode="&#xf6d0;" horiz-adv-x="408" 
d="M354 851h-300v76h300v-76z" />
    <glyph glyph-name="uni20BD" unicode="&#x20bd;" horiz-adv-x="405" 
d="M373 486c0 -145 -60 -214 -163 -214h-75v-62h192v-76h-192v-134h-81v134h-54v76h54v62h-54v76h54v352h156c103 0 163 -69 163 -214zM292 486c0 98 -30 138 -82 138h-75v-276h75c52 0 82 41 82 138z" />
    <glyph glyph-name="Breve" horiz-adv-x="408" 
d="M204 846c59 0 82 45 82 138v15h81v-15c0 -138 -52 -214 -163 -214s-163 76 -163 214v15h81v-15c0 -93 24 -138 82 -138z" />
    <glyph glyph-name="Cedilla" horiz-adv-x="213" 
d="M104 -108c0 29 -7 42 -27 42h-21v105h78v-62c38 -12 48 -50 48 -97c0 -81 -41 -117 -99 -117c-15 0 -30 2 -47 7v77c12 -4 24 -6 35 -6c24 0 33 14 33 51z" />
    <glyph glyph-name="Circumflex" horiz-adv-x="408" 
d="M127 780h-86l131 219h64l131 -219h-86l-77 142z" />
    <glyph glyph-name="Dotaccent" horiz-adv-x="229" 
d="M114 829c-33 0 -52 22 -52 60s19 60 52 60s53 -22 53 -60s-20 -60 -53 -60z" />
    <glyph glyph-name="Ogonek" horiz-adv-x="220" 
d="M153 38l17 -38c-25 -21 -36 -57 -36 -104c0 -40 16 -55 35 -55c16 0 24 2 33 6v-77c-17 -5 -32 -7 -46 -7c-61 0 -100 30 -100 112c0 84 36 134 97 163z" />
    <glyph glyph-name="Tilde" horiz-adv-x="409" 
d="M272 1009c65 0 110 -37 110 -163v-66h-80v79c0 48 -10 67 -30 67c-40 0 -42 -156 -135 -156c-65 0 -110 37 -110 164v65h80v-78c0 -49 10 -68 30 -68c41 0 39 156 135 156z" />
    <glyph glyph-name="idotaccent" horiz-adv-x="189" 
d="M133 500v-500h-78v500h78zM96 605c-34 0 -52 22 -52 58c0 37 18 58 52 58c33 0 52 -21 52 -58c0 -36 -21 -58 -52 -58z" />
    <glyph glyph-name="undercommaaccent" horiz-adv-x="161" 
d="M83 -259h-50v137c0 35 16 56 47 56s48 -21 48 -56c0 -19 -7 -47 -18 -69z" />
    <glyph glyph-name="hyphen.uc" horiz-adv-x="309" 
d="M259 395v-76h-208v76h208z" />
    <glyph glyph-name="endash.uc" horiz-adv-x="369" 
d="M27 315v83h315v-83h-315z" />
    <glyph glyph-name="emdash.uc" horiz-adv-x="491" 
d="M21 315v83h449v-83h-449z" />
    <glyph glyph-name="guillemotleft.uc" horiz-adv-x="386" 
d="M113 348l61 -93v-124h-6l-147 219l147 218h6v-123l-61 -95v-2zM283 348l61 -93v-124h-6l-147 219l147 218h6v-123l-61 -95v-2z" />
    <glyph glyph-name="guillemotright.uc" horiz-adv-x="386" 
d="M42 254l61 94v2l-61 94v124h6l147 -218l-147 -219h-6v123zM213 255l61 93v2l-61 95v123h6l147 -218l-147 -219h-6v124z" />
    <glyph glyph-name="at.uc" horiz-adv-x="639" 
d="M320 -41c145 0 212 137 212 391c0 253 -68 391 -212 391c-147 0 -212 -138 -212 -391s65 -391 212 -391zM387 257v59h-71c-36 0 -57 -25 -57 -77c0 -51 17 -76 47 -76c50 0 81 28 81 94zM320 -112c-199 0 -285 158 -285 462s86 462 285 462c194 0 286 -158 286 -462
s-93 -462 -286 -462zM466 100h-79v46c-19 -34 -50 -55 -90 -55c-72 0 -116 55 -116 146s47 145 126 145h80v70c0 66 -21 85 -58 85c-39 0 -60 -19 -60 -85v-12h-78v12c0 109 52 157 138 157c85 0 137 -44 137 -157v-352z" />
    <glyph glyph-name="exclamdown.uc" horiz-adv-x="207" 
d="M145 0h-81l3 518h75zM54 654c0 37 17 58 50 58c31 0 50 -21 50 -58c0 -36 -19 -58 -50 -58c-33 0 -50 22 -50 58z" />
    <glyph glyph-name="questiondown.uc" horiz-adv-x="407" 
d="M41 197c0 100 44 168 121 188v133h81v-196h-32c-57 0 -89 -47 -89 -125c0 -81 29 -128 82 -128s81 43 81 118v45h81v-45c0 -126 -60 -199 -162 -199s-163 77 -163 209zM202 712c33 0 50 -21 50 -58c0 -36 -17 -58 -50 -58c-31 0 -50 22 -50 58c0 37 19 58 50 58z" />
    <glyph glyph-name="uni0414.bgr" horiz-adv-x="491" 
d="M474 76v-275h-81v199h-294v-199h-82v275h43l133 624h107l133 -624h41zM143 76h204l-88 424l-13 108h-2l-13 -108z" />
    <glyph glyph-name="uni0416.bgr" horiz-adv-x="655" 
d="M531 700h89l-125 -333l141 -367h-89l-120 330h-59v-330h-81v330h-59l-120 -330h-89l142 369l-125 331h89l104 -294h58v294h81v-294h59z" />
    <glyph glyph-name="uni041A.bgr" horiz-adv-x="435" 
d="M55 0v700h81v-304h49l129 304h89l-147 -341l156 -359h-92l-136 320h-48v-320h-81z" />
    <glyph glyph-name="uni041B.bgr" horiz-adv-x="432" 
d="M163 700h107l142 -700h-85l-93 476l-19 134h-2l-19 -134l-93 -476h-80z" />
    <glyph glyph-name="uni0432.bgr" horiz-adv-x="388" 
d="M203 -10c-93 0 -149 61 -149 196v357c0 163 53 217 143 217c89 0 143 -54 143 -217c0 -86 -21 -149 -67 -181c50 -31 79 -100 79 -176c0 -135 -56 -196 -149 -196zM197 686c-43 0 -64 -25 -64 -143v-151h59c54 0 70 55 70 151c0 118 -22 143 -65 143zM273 186
c0 84 -20 139 -60 139h-80v-139c0 -88 25 -121 70 -121c47 0 70 33 70 121z" />
    <glyph glyph-name="uni0433.bgr" horiz-adv-x="352" 
d="M113 134c0 -44 14 -69 63 -69c43 0 62 22 62 93v15h79v-15c0 -112 -47 -167 -141 -167c-100 0 -141 62 -141 143c0 178 199 123 199 237c0 39 -13 65 -59 65c-40 0 -58 -23 -58 -91v-11h-79v11c0 107 43 164 137 164c100 0 137 -65 137 -138c0 -177 -199 -123 -199 -237z
" />
    <glyph glyph-name="uni0434.bgr" horiz-adv-x="406" 
d="M33 250c0 179 46 259 147 259c43 0 73 -19 93 -58v49h78v-559c0 -146 -52 -200 -159 -200c-106 0 -159 54 -159 200h78c0 -95 27 -126 81 -126c55 0 81 31 81 126v108c-20 -39 -50 -58 -93 -58c-101 0 -147 81 -147 259zM192 64c54 0 81 59 81 161v50
c0 103 -27 161 -81 161c-60 0 -81 -53 -81 -186c0 -132 21 -186 81 -186z" />
    <glyph glyph-name="uni0436.bgr" horiz-adv-x="525" 
d="M109 0h-86l97 261l-90 239h82l72 -210h40v460h78v-460h39l73 210h82l-90 -241l97 -259h-86l-76 218h-39v-218h-78v218h-40z" />
    <glyph glyph-name="uni0437.bgr" horiz-adv-x="349" 
d="M172 435c-55 0 -70 -40 -70 -119v-36h-78v36c0 124 45 194 148 194s148 -70 148 -196c0 -79 -19 -132 -59 -160c43 -31 63 -93 63 -188c0 -147 -46 -226 -152 -226c-105 0 -153 79 -153 226v37h79v-37c0 -97 15 -152 74 -152s74 52 74 152c0 87 -16 153 -74 153h-53v72
h53c57 0 69 47 69 123c0 81 -14 121 -69 121z" />
    <glyph glyph-name="uni0438.bgr" 
d="M265 47c-19 -37 -48 -56 -89 -56c-86 0 -124 61 -124 205v304h78v-304c0 -91 17 -132 62 -132c48 0 73 58 73 161v275h78v-500h-78v47z" />
    <glyph glyph-name="uni0439.bgr" 
d="M265 47c-19 -37 -48 -56 -89 -56c-86 0 -124 61 -124 205v304h78v-304c0 -91 17 -132 62 -132c48 0 73 58 73 161v275h78v-500h-78v47zM142 739c0 -75 19 -102 56 -102c38 0 57 27 57 102v11h79v-11c0 -126 -52 -172 -136 -172c-83 0 -135 46 -135 172v11h79v-11z" />
    <glyph glyph-name="uni043A.bgr" horiz-adv-x="367" 
d="M132 0h-78v750h78v-459h41l83 209h85l-105 -247l114 -253h-86l-92 219h-40v-219z" />
    <glyph glyph-name="uni043B.bgr" horiz-adv-x="342" 
d="M216 500l116 -500h-77l-64 287l-19 129h-3l-19 -129l-64 -287h-76l116 500h90z" />
    <glyph glyph-name="uni043C.bgr" horiz-adv-x="590" 
d="M134 454c18 37 45 55 84 55c47 0 78 -20 97 -63c22 42 56 63 105 63c82 0 118 -61 118 -205v-304h-78v304c0 92 -14 133 -56 133c-45 0 -68 -58 -68 -162v-275h-78v304c0 92 -14 133 -56 133c-45 0 -68 -58 -68 -162v-275h-78v500h78v-46z" />
    <glyph glyph-name="uni043F.bgr" 
d="M132 450c19 39 49 59 90 59c87 0 123 -57 123 -205v-304h-78v304c0 97 -16 133 -60 133c-49 0 -75 -49 -75 -162v-275h-78v500h78v-50z" />
    <glyph glyph-name="uni0446.bgr" horiz-adv-x="408" 
d="M265 47c-19 -37 -48 -56 -89 -56c-86 0 -124 61 -124 205v304h78v-304c0 -91 17 -132 62 -132c48 0 73 58 73 161v275h78v-428h41v-221h-78v149h-41v47z" />
    <glyph glyph-name="uni0448.bgr" horiz-adv-x="590" 
d="M462 44c-18 -35 -45 -53 -83 -53c-47 0 -79 19 -98 62c-21 -41 -55 -62 -104 -62c-83 0 -119 61 -119 205v304h78v-304c0 -92 15 -133 56 -133c45 0 68 59 68 162v275h78v-304c0 -92 15 -133 56 -133c45 0 68 59 68 162v275h78v-500h-78v44z" />
    <glyph glyph-name="uni0449.bgr" horiz-adv-x="599" 
d="M456 37c-18 -31 -44 -46 -79 -46c-47 0 -79 19 -98 62c-21 -41 -55 -62 -104 -62c-83 0 -119 61 -119 205v304h78v-304c0 -92 15 -133 56 -133c45 0 68 59 68 162v275h78v-304c0 -92 15 -133 56 -133c45 0 68 59 68 162v275h78v-428h37v-221h-78v149h-41v37z" />
    <glyph glyph-name="uni044A.bgr" horiz-adv-x="381" 
d="M163 260v-99c0 -76 18 -98 56 -98s57 22 57 98c0 64 -18 99 -55 99h-58zM84 428h-78v72h157v-168h58c89 0 134 -63 134 -171c0 -121 -45 -171 -136 -171c-90 0 -135 50 -135 171v267z" />
    <glyph glyph-name="uni044B.bgr" horiz-adv-x="502" 
d="M133 260v-99c0 -76 18 -98 56 -98s57 22 57 98c0 64 -18 99 -55 99h-58zM54 161v339h79v-168h58c89 0 134 -63 134 -171c0 -121 -45 -171 -136 -171c-90 0 -135 50 -135 171zM448 500v-500h-79v500h79z" />
    <glyph glyph-name="uni044C.bgr" horiz-adv-x="351" 
d="M133 260v-99c0 -76 18 -98 56 -98s57 22 57 98c0 64 -18 99 -55 99h-58zM54 161v339h79v-168h58c89 0 134 -63 134 -171c0 -121 -45 -171 -136 -171c-90 0 -135 50 -135 171z" />
    <glyph glyph-name="uni044E.bgr" horiz-adv-x="540" 
d="M194 289c7 151 56 220 158 220c109 0 158 -81 158 -259s-49 -259 -158 -259c-103 0 -152 71 -158 226h-61v-217h-79v750h79v-461h61zM272 250c0 -129 22 -186 80 -186c57 0 79 57 79 186s-22 186 -79 186c-58 0 -80 -57 -80 -186z" />
    <glyph glyph-name="uni04C1" unicode="&#x4c1;" horiz-adv-x="655" 
d="M531 700h89l-125 -333l141 -367h-89l-120 330h-59v-330h-81v330h-59l-120 -330h-89l142 369l-125 331h89l104 -294h58v294h81v-294h59zM245 984c0 -93 24 -138 83 -138s82 45 82 138v15h81v-15c0 -138 -52 -214 -163 -214c-112 0 -164 76 -164 214v15h81v-15z" />
    <glyph glyph-name="uni04E2" unicode="&#x4e2;" horiz-adv-x="486" 
d="M302 700h129v-700h-81v500l3 117h-3l-166 -617h-129v700h81v-500l-3 -117h3zM393 851h-300v76h300v-76z" />
    <glyph glyph-name="uni04E6" unicode="&#x4e6;" horiz-adv-x="486" 
d="M362 350c0 177 -39 283 -122 283s-122 -106 -122 -283c0 -176 39 -283 122 -283s122 107 122 283zM37 350c0 251 71 359 203 359c133 0 203 -108 203 -359s-70 -359 -203 -359c-132 0 -203 108 -203 359zM333 829c-33 0 -52 22 -52 60s19 60 52 60s53 -22 53 -60
s-20 -60 -53 -60zM153 829c-34 0 -52 22 -52 60s18 60 52 60c32 0 52 -22 52 -60s-20 -60 -52 -60z" />
    <glyph glyph-name="uni04EE" unicode="&#x4ee;" horiz-adv-x="399" 
d="M103 700l87 -289l21 -91h2l18 91l77 289h80l-136 -501c-47 -180 -75 -203 -154 -203h-11v81h11c30 0 52 11 76 123l-156 500h85zM354 851h-300v76h300v-76z" />
    <glyph glyph-name="uni04F2" unicode="&#x4f2;" horiz-adv-x="399" 
d="M100 700l87 -289l21 -91h2l18 91l77 289h80l-136 -501c-47 -180 -75 -203 -154 -203h-11v81h11c30 0 52 11 76 123l-156 500h85zM139 780h-68l39 219h98zM308 780h-69l53 219h98z" />
    </font>
</defs>
</svg>
