<?xml version="1.0" standalone="no"?>
<!DOCTYPE svg PUBLIC "-//W3C//DTD SVG 1.1//EN" "http://www.w3.org/Graphics/SVG/1.1/DTD/svg11.dtd" >
<svg xmlns="http://www.w3.org/2000/svg" xmlns:xlink="http://www.w3.org/1999/xlink" version="1.1">
<metadata>
Created by FontForge 20190801 at Wed Nov  6 22:53:33 2019
 By Jimmy Wärting
\(c\) Nikita Kanarev Fonts, 2018
</metadata>
<defs>
<font id="Archaism-Ct2Wd0" horiz-adv-x="206" >
  <font-face 
    font-family="Archaism"
    font-weight="550"
    font-stretch="normal"
    units-per-em="1000"
    panose-1="0 0 0 0 0 0 0 0 0 0"
    ascent="750"
    descent="-250"
    x-height="500"
    cap-height="700"
    bbox="-45 -278 1048 1143"
    underline-thickness="50"
    underline-position="-100"
    stemh="116"
    stemv="42"
    unicode-range="U+000D-FB02"
  />
<missing-glyph horiz-adv-x="1068" 
d="M365 425l-59 -60s-3 -9 -10 -16c-33 -34 -89 -35 -126 -65c20 -27 77 -84 118 -118c24 43 23 104 51 131c2 3 5 4 9 4c7 0 15 -5 20 -8c1 -1 2 -1 4 -1s4 1 5 2l-21 21l59 60zM520 238c-35 36 -45 67 -45 67l-61 60l-49 -50l74 -74c45 -44 108 -88 150 -130
c33 -32 60 -68 68 -90l15 -8l40 40c-9 15 -29 39 -58 69c-57 56 -83 67 -134 116zM757 380l-49 49l-7 -5l50 -50zM572 200c17 13 33 27 121 115l-50 50l-60 -60s-11 -31 -50 -70c14 -15 27 -26 39 -35zM762 349c-7 7 -10 16 -10 16l-60 60l-50 -50l59 -60l-21 -21
c1 -1 3 -2 5 -2c1 0 2 0 3 1c5 3 14 8 21 8c4 0 7 -1 10 -4c27 -27 27 -88 51 -131c40 34 98 91 118 118c-38 30 -93 31 -126 65zM524 161l-39 32c-24 -20 -47 -38 -81 -71c-30 -30 -49 -54 -59 -69l41 -40l14 8c20 48 83 105 124 140zM350 429l-50 -49l6 -6l50 50z
M524 -278l-504 504v19l505 505h19l504 -504v-18l-505 -506h-19z" />
    <glyph glyph-name="fb" unicode="fb" horiz-adv-x="342" 
d="M35 555c0 115 26 195 71 195h92v-303c10 40 25 62 48 62c49 0 76 -100 76 -259c0 -160 -27 -259 -76 -259c-23 0 -38 22 -48 62v-53h-40v638h-52c-20 0 -31 -34 -31 -83v-55h43v-112h-43v-388h-40v388h-21v112h21v55zM239 396c-28 0 -41 -44 -41 -121v-50
c0 -77 13 -121 41 -121c29 0 43 42 43 146c0 103 -14 146 -43 146z" />
    <glyph glyph-name="fh" unicode="fh" horiz-adv-x="336" 
d="M35 555c0 115 26 195 71 195h92v-302c10 40 25 61 46 61c42 0 64 -71 64 -205v-304h-40v304c0 61 -11 93 -32 93c-25 0 -38 -44 -38 -122v-275h-40v638h-52c-20 0 -31 -34 -31 -83v-55h43v-112h-43v-388h-40v388h-21v112h21v55z" />
    <glyph glyph-name="fj" unicode="fj" horiz-adv-x="226" 
d="M116 760c50 0 82 -80 82 -195v-12h-40v12c0 49 -15 83 -42 83s-41 -34 -41 -83v-65h43v-112h-43v-388h-40v388h-21v112h21v65c0 115 30 195 81 195zM142 -257c-36 0 -57 58 -57 178h41c0 -50 5 -66 16 -66s16 16 16 66v579h41v-579c0 -121 -21 -178 -57 -178z" />
    <glyph glyph-name="fk" unicode="fk" horiz-adv-x="319" 
d="M35 555c0 115 26 195 71 195h92v-439h28l39 189h41l-50 -247l55 -253h-42l-44 199h-27v-199h-40v638h-52c-20 0 -31 -34 -31 -83v-55h43v-112h-43v-388h-40v388h-21v112h21v55z" />
    <glyph glyph-name="ft" unicode="ft" horiz-adv-x="280" 
d="M211 104c15 0 23 15 23 65h40c0 -111 -22 -178 -63 -178c-40 0 -63 57 -63 178v219h-73v-388h-40v388h-21v112h21v55c0 115 26 195 71 195h16v-112h-16c-20 0 -31 -34 -31 -83v-55h73l10 107h31v-107h53v-112h-53v-219c0 -50 9 -65 22 -65z" />
    <glyph glyph-name="fi" unicode="fi" horiz-adv-x="226" 
d="M116 760c50 0 82 -80 82 -195v-12h-40v12c0 49 -15 83 -42 83s-41 -34 -41 -83v-65h43v-112h-43v-388h-40v388h-21v112h21v65c0 115 30 195 81 195zM158 500h40v-500h-40v500z" />
    <glyph glyph-name="fl" unicode="fl" horiz-adv-x="226" 
d="M35 555c0 115 26 195 71 195h92v-750h-40v638h-52c-20 0 -31 -34 -31 -83v-55h43v-112h-43v-388h-40v388h-21v112h21v55z" />
    <glyph glyph-name=".notdef" horiz-adv-x="1068" 
d="M365 425l-59 -60s-3 -9 -10 -16c-33 -34 -89 -35 -126 -65c20 -27 77 -84 118 -118c24 43 23 104 51 131c2 3 5 4 9 4c7 0 15 -5 20 -8c1 -1 2 -1 4 -1s4 1 5 2l-21 21l59 60zM520 238c-35 36 -45 67 -45 67l-61 60l-49 -50l74 -74c45 -44 108 -88 150 -130
c33 -32 60 -68 68 -90l15 -8l40 40c-9 15 -29 39 -58 69c-57 56 -83 67 -134 116zM757 380l-49 49l-7 -5l50 -50zM572 200c17 13 33 27 121 115l-50 50l-60 -60s-11 -31 -50 -70c14 -15 27 -26 39 -35zM762 349c-7 7 -10 16 -10 16l-60 60l-50 -50l59 -60l-21 -21
c1 -1 3 -2 5 -2c1 0 2 0 3 1c5 3 14 8 21 8c4 0 7 -1 10 -4c27 -27 27 -88 51 -131c40 34 98 91 118 118c-38 30 -93 31 -126 65zM524 161l-39 32c-24 -20 -47 -38 -81 -71c-30 -30 -49 -54 -59 -69l41 -40l14 8c20 48 83 105 124 140zM350 429l-50 -49l6 -6l50 50z
M524 -278l-504 504v19l505 505h19l504 -504v-18l-505 -506h-19z" />
    <glyph glyph-name="uni0000" horiz-adv-x="0" 
 />
    <glyph glyph-name="uni0000" horiz-adv-x="0" 
 />
    <glyph glyph-name="uni000D" unicode="&#xd;" horiz-adv-x="250" 
 />
    <glyph glyph-name="space" unicode=" " horiz-adv-x="160" 
 />
    <glyph glyph-name="uni2009" unicode="&#x2009;" horiz-adv-x="50" 
 />
    <glyph glyph-name="A" unicode="A" horiz-adv-x="232" 
d="M162 124h-92l-12 -124h-44l70 700h63l71 -700h-44zM80 240h71l-35 350h-2z" />
    <glyph glyph-name="Agrave" unicode="&#xc0;" horiz-adv-x="232" 
d="M162 124h-92l-12 -124h-44l70 700h63l71 -700h-44zM80 240h71l-35 350h-2zM110 999l19 -219h-36l-34 219h51z" />
    <glyph glyph-name="Aacute" unicode="&#xc1;" horiz-adv-x="232" 
d="M162 124h-92l-12 -124h-44l70 700h63l71 -700h-44zM80 240h71l-35 350h-2zM137 780h-36l19 219h51z" />
    <glyph glyph-name="Acircumflex" unicode="&#xc2;" horiz-adv-x="232" 
d="M162 124h-92l-12 -124h-44l70 700h63l71 -700h-44zM74 780h-42l68 219h33l68 -219h-42l-42 144zM80 240h71l-35 350h-2z" />
    <glyph glyph-name="Atilde" unicode="&#xc3;" horiz-adv-x="232" 
d="M162 124h-92l-12 -124h-44l70 700h63l71 -700h-44zM81 886c16 0 32 123 69 123c34 0 58 -47 58 -204v-25h-42v51c0 46 -6 62 -16 62c-15 0 -33 -123 -69 -123c-34 0 -57 47 -57 204v25h42v-51c0 -46 6 -62 15 -62zM80 240h71l-35 350h-2z" />
    <glyph glyph-name="Adieresis" unicode="&#xc4;" horiz-adv-x="232" 
d="M162 124h-92l-12 -124h-44l70 700h63l71 -700h-44zM80 240h71l-35 350h-2zM96 889c0 -49 -10 -77 -27 -77s-27 28 -27 77s10 77 27 77s27 -28 27 -77zM190 889c0 -49 -11 -77 -27 -77c-18 0 -27 28 -27 77s9 77 27 77c16 0 27 -28 27 -77z" />
    <glyph glyph-name="Aring" unicode="&#xc5;" horiz-adv-x="232" 
d="M170 837c0 -64 -8 -111 -23 -137l71 -700h-44l-12 124h-92l-12 -124h-44l70 699c-16 26 -24 74 -24 138c0 100 20 159 55 159s55 -59 55 -159zM80 240h71l-35 350h-2zM93 837c0 -38 8 -61 22 -61s22 23 22 61s-8 61 -22 61s-22 -23 -22 -61z" />
    <glyph glyph-name="Amacron" unicode="&#x100;" horiz-adv-x="232" 
d="M162 124h-92l-12 -124h-44l70 700h63l71 -700h-44zM194 947v-116h-155v116h155zM80 240h71l-35 350h-2z" />
    <glyph glyph-name="Abreve" unicode="&#x102;" horiz-adv-x="232" 
d="M162 124h-92l-12 -124h-44l70 700h63l71 -700h-44zM74 984c0 -63 15 -98 43 -98s42 35 42 98v15h42v-15c0 -136 -32 -214 -84 -214c-53 0 -85 78 -85 214v15h42v-15zM80 240h71l-35 350h-2z" />
    <glyph glyph-name="Aogonek" unicode="&#x104;" horiz-adv-x="232" 
d="M166 -110c0 48 6 83 16 110h-8l-12 124h-92l-12 -124h-44l70 700h63l71 -700c-9 -12 -16 -35 -16 -68c0 -42 7 -53 16 -53c7 0 11 2 15 6v-115c-8 -5 -15 -7 -21 -7c-27 0 -46 39 -46 127zM80 240h71l-35 350h-2z" />
    <glyph glyph-name="Aringacute" unicode="&#x1fa;" horiz-adv-x="232" 
d="M170 837c0 -64 -8 -111 -23 -137l71 -700h-44l-12 124h-92l-12 -124h-44l70 699c-16 26 -24 74 -24 138c0 87 15 143 42 156l20 150h45l-32 -154c22 -19 35 -73 35 -152zM80 240h71l-35 350h-2zM93 837c0 -38 8 -61 22 -61s22 23 22 61s-8 61 -22 61s-22 -23 -22 -61z
" />
    <glyph glyph-name="B" unicode="B" horiz-adv-x="229" 
d="M203 210c0 -133 -29 -210 -80 -210h-93v700h93c52 0 76 -75 76 -201c0 -67 -10 -116 -31 -141c23 -27 35 -79 35 -148zM161 210c0 56 -13 89 -38 89h-51v-183h51c25 0 38 34 38 94zM157 499c0 52 -8 85 -34 85h-51v-169h51c26 0 34 31 34 84z" />
    <glyph glyph-name="C" unicode="C" horiz-adv-x="252" 
d="M229 417h-42v15c0 107 -26 164 -58 164c-42 0 -65 -93 -65 -246s23 -246 65 -246c32 0 58 63 58 175v18h43v-18c0 -186 -44 -291 -101 -291c-67 0 -107 134 -107 362s40 362 107 362c56 0 100 -101 100 -280v-15z" />
    <glyph glyph-name="Ccedilla" unicode="&#xc7;" horiz-adv-x="252" 
d="M129 712c56 0 100 -101 100 -280v-15h-42v15c0 107 -26 164 -58 164c-42 0 -65 -93 -65 -246s23 -246 65 -246c32 0 58 63 58 175v18h43v-18c0 -167 -35 -269 -84 -288v-7c17 -15 23 -59 23 -104c0 -81 -19 -117 -46 -117c-7 0 -14 2 -22 7v115c6 -4 11 -6 16 -6
c11 0 16 7 16 26c0 17 -3 25 -12 25h-11v62c-55 23 -88 152 -88 358c0 228 40 362 107 362z" />
    <glyph glyph-name="Cacute" unicode="&#x106;" horiz-adv-x="252" 
d="M229 417h-42v15c0 107 -26 164 -58 164c-42 0 -65 -93 -65 -246s23 -246 65 -246c32 0 58 63 58 175v18h43v-18c0 -186 -44 -291 -101 -291c-67 0 -107 134 -107 362s40 362 107 362c56 0 100 -101 100 -280v-15zM111 780l19 219h51l-34 -219h-36z" />
    <glyph glyph-name="Ccircumflex" unicode="&#x108;" horiz-adv-x="252" 
d="M129 712c56 0 100 -101 100 -280v-15h-42v15c0 107 -26 164 -58 164c-42 0 -65 -93 -65 -246s23 -246 65 -246c32 0 58 63 58 175v18h43v-18c0 -186 -44 -291 -101 -291c-67 0 -107 134 -107 362s40 362 107 362zM80 780h-42l68 219h33l68 -219h-42l-42 144z" />
    <glyph glyph-name="Cdotaccent" unicode="&#x10a;" horiz-adv-x="252" 
d="M229 417h-42v15c0 107 -26 164 -58 164c-42 0 -65 -93 -65 -246s23 -246 65 -246c32 0 58 63 58 175v18h43v-18c0 -186 -44 -291 -101 -291c-67 0 -107 134 -107 362s40 362 107 362c56 0 100 -101 100 -280v-15zM122 812c-17 0 -27 28 -27 77s10 77 27 77s27 -28 27 -77
s-10 -77 -27 -77z" />
    <glyph glyph-name="Ccaron" unicode="&#x10c;" horiz-adv-x="252" 
d="M129 712c56 0 100 -101 100 -280v-15h-42v15c0 107 -26 164 -58 164c-42 0 -65 -93 -65 -246s23 -246 65 -246c32 0 58 63 58 175v18h43v-18c0 -186 -44 -291 -101 -291c-67 0 -107 134 -107 362s40 362 107 362zM106 780l-68 219h42l43 -144l42 144h42l-68 -219h-33z
" />
    <glyph glyph-name="D" unicode="D" horiz-adv-x="246" 
d="M30 700h87c67 0 107 -130 107 -350s-40 -350 -107 -350h-87v700zM117 584h-45v-468h45c42 0 65 87 65 234c0 145 -23 234 -65 234z" />
    <glyph glyph-name="Dcaron" unicode="&#x10e;" horiz-adv-x="246" 
d="M224 350c0 -220 -40 -350 -107 -350h-87v700h87c67 0 107 -130 107 -350zM182 350c0 145 -23 234 -65 234h-45v-468h45c42 0 65 87 65 234zM102 780l-68 219h42l43 -144l42 144h42l-68 -219h-33z" />
    <glyph glyph-name="E" unicode="E" 
d="M30 0v700h154v-116h-112v-170h106v-116h-106v-182h112v-116h-154z" />
    <glyph glyph-name="Egrave" unicode="&#xc8;" horiz-adv-x="198" 
d="M30 0v700h154v-116h-112v-170h106v-116h-106v-182h112v-116h-154zM120 780h-36l-34 219h51z" />
    <glyph glyph-name="Eacute" unicode="&#xc9;" horiz-adv-x="198" 
d="M30 0v700h154v-116h-112v-170h106v-116h-106v-182h112v-116h-154zM88 780l19 219h51l-34 -219h-36z" />
    <glyph glyph-name="Ecircumflex" unicode="&#xca;" horiz-adv-x="198" 
d="M184 0h-154v700h154v-116h-112v-170h106v-116h-106v-182h112v-116zM63 780h-42l68 219h33l68 -219h-42l-42 144z" />
    <glyph glyph-name="Edieresis" unicode="&#xcb;" horiz-adv-x="198" 
d="M30 0v700h154v-116h-112v-170h106v-116h-106v-182h112v-116h-154zM153 812c-18 0 -27 28 -27 77s9 77 27 77c16 0 27 -28 27 -77s-11 -77 -27 -77zM59 812c-17 0 -27 28 -27 77s10 77 27 77s27 -28 27 -77s-10 -77 -27 -77z" />
    <glyph glyph-name="Emacron" unicode="&#x112;" horiz-adv-x="198" 
d="M30 0v700h154v-116h-112v-170h106v-116h-106v-182h112v-116h-154zM183 831h-155v116h155v-116z" />
    <glyph glyph-name="Ebreve" unicode="&#x114;" horiz-adv-x="198" 
d="M30 0v700h154v-116h-112v-170h106v-116h-106v-182h112v-116h-154zM106 886c28 0 42 35 42 98v15h42v-15c0 -136 -32 -214 -84 -214c-53 0 -85 78 -85 214v15h42v-15c0 -63 15 -98 43 -98z" />
    <glyph glyph-name="Edotaccent" unicode="&#x116;" horiz-adv-x="198" 
d="M30 0v700h154v-116h-112v-170h106v-116h-106v-182h112v-116h-154zM105 812c-17 0 -27 28 -27 77s10 77 27 77s27 -28 27 -77s-10 -77 -27 -77z" />
    <glyph glyph-name="Eogonek" unicode="&#x118;" horiz-adv-x="198" 
d="M132 -110c0 48 6 83 16 110h-118v700h154v-116h-112v-170h106v-116h-106v-182h112v-116c-9 -12 -16 -35 -16 -68c0 -42 7 -53 16 -53c7 0 11 2 15 6v-115c-8 -5 -15 -7 -21 -7c-27 0 -46 39 -46 127z" />
    <glyph glyph-name="Ecaron" unicode="&#x11a;" horiz-adv-x="198" 
d="M184 0h-154v700h154v-116h-112v-170h106v-116h-106v-182h112v-116zM89 780l-68 219h42l43 -144l42 144h42l-68 -219h-33z" />
    <glyph glyph-name="F" unicode="F" horiz-adv-x="196" 
d="M72 0h-42v700h154v-116h-112v-170h106v-116h-106v-298z" />
    <glyph glyph-name="G" unicode="G" horiz-adv-x="257" 
d="M129 104c33 0 60 33 60 94v9h-65v116h107v-323h-42v59c-14 -47 -35 -71 -60 -71c-67 0 -107 134 -107 362s40 362 107 362c56 0 100 -101 100 -280v-15h-42v15c0 107 -26 164 -58 164c-42 0 -65 -93 -65 -246s23 -246 65 -246z" />
    <glyph glyph-name="Gcircumflex" unicode="&#x11c;" horiz-adv-x="257" 
d="M129 104c33 0 60 33 60 94v9h-65v116h107v-323h-42v59c-14 -47 -35 -71 -60 -71c-67 0 -107 134 -107 362s40 362 107 362c56 0 100 -101 100 -280v-15h-42v15c0 107 -26 164 -58 164c-42 0 -65 -93 -65 -246s23 -246 65 -246zM79 780h-42l68 219h33l68 -219h-42l-42 144
z" />
    <glyph glyph-name="Gbreve" unicode="&#x11e;" horiz-adv-x="257" 
d="M129 104c33 0 60 33 60 94v9h-65v116h107v-323h-42v59c-14 -47 -35 -71 -60 -71c-67 0 -107 134 -107 362s40 362 107 362c56 0 100 -101 100 -280v-15h-42v15c0 107 -26 164 -58 164c-42 0 -65 -93 -65 -246s23 -246 65 -246zM79 984c0 -63 15 -98 43 -98s42 35 42 98
v15h42v-15c0 -136 -32 -214 -84 -214c-53 0 -85 78 -85 214v15h42v-15z" />
    <glyph glyph-name="Gdotaccent" unicode="&#x120;" horiz-adv-x="257" 
d="M129 104c33 0 60 33 60 94v9h-65v116h107v-323h-42v59c-14 -47 -35 -71 -60 -71c-67 0 -107 134 -107 362s40 362 107 362c56 0 100 -101 100 -280v-15h-42v15c0 107 -26 164 -58 164c-42 0 -65 -93 -65 -246s23 -246 65 -246zM148 889c0 -49 -10 -77 -27 -77
s-27 28 -27 77s10 77 27 77s27 -28 27 -77z" />
    <glyph glyph-name="uni0122" unicode="&#x122;" horiz-adv-x="257" 
d="M129 104c33 0 60 33 60 94v9h-65v116h107v-323h-42v59c-14 -47 -35 -71 -60 -71c-67 0 -107 134 -107 362s40 362 107 362c56 0 100 -101 100 -280v-15h-42v15c0 107 -26 164 -58 164c-42 0 -65 -93 -65 -246s23 -246 65 -246zM156 -128c0 -19 -2 -46 -9 -72l-12 -50h-28
v122c0 43 9 69 25 69c15 0 24 -26 24 -69z" />
    <glyph glyph-name="H" unicode="H" horiz-adv-x="246" 
d="M216 0h-42v299h-102v-299h-42v700h42v-285h102v285h42v-700z" />
    <glyph glyph-name="Hcircumflex" unicode="&#x124;" horiz-adv-x="242" 
d="M216 700v-700h-42v299h-102v-299h-42v700h42v-285h102v285h42zM79 780h-42l68 219h33l68 -219h-42l-42 144z" />
    <glyph glyph-name="I" unicode="I" horiz-adv-x="130" 
d="M28 0v116h16v468h-16v116h74v-116h-16v-468h16v-116h-74z" />
    <glyph glyph-name="Igrave" unicode="&#xcc;" horiz-adv-x="130" 
d="M28 0v116h16v468h-16v116h74v-116h-16v-468h16v-116h-74zM79 780h-36l-34 219h51z" />
    <glyph glyph-name="Iacute" unicode="&#xcd;" horiz-adv-x="130" 
d="M28 0v116h16v468h-16v116h74v-116h-16v-468h16v-116h-74zM43 780l19 219h51l-34 -219h-36z" />
    <glyph glyph-name="Icircumflex" unicode="&#xce;" horiz-adv-x="130" 
d="M102 0h-74v116h16v468h-16v116h74v-116h-16v-468h16v-116zM29 780h-39l58 219h33l58 -219h-40l-34 148z" />
    <glyph glyph-name="Idieresis" unicode="&#xcf;" horiz-adv-x="130" 
d="M28 0v116h16v468h-16v116h74v-116h-16v-468h16v-116h-74zM112 812c-18 0 -27 28 -27 77s9 77 27 77c16 0 27 -28 27 -77s-11 -77 -27 -77zM18 812c-17 0 -27 28 -27 77s10 77 27 77s27 -28 27 -77s-10 -77 -27 -77z" />
    <glyph glyph-name="Itilde" unicode="&#x128;" horiz-adv-x="130" 
d="M28 0v116h16v468h-16v116h74v-116h-16v-468h16v-116h-74zM97 1009c34 0 58 -47 58 -204v-25h-42v51c0 46 -6 62 -16 62c-15 0 -33 -123 -69 -123c-34 0 -57 47 -57 204v25h42v-51c0 -46 6 -62 15 -62c16 0 32 123 69 123z" />
    <glyph glyph-name="Imacron" unicode="&#x12a;" horiz-adv-x="130" 
d="M28 0v116h16v468h-16v116h74v-116h-16v-468h16v-116h-74zM141 831h-155v116h155v-116z" />
    <glyph glyph-name="Ibreve" unicode="&#x12c;" horiz-adv-x="130" 
d="M28 0v116h16v468h-16v116h74v-116h-16v-468h16v-116h-74zM64 886c28 0 42 35 42 98v15h42v-15c0 -136 -32 -214 -84 -214c-53 0 -85 78 -85 214v15h42v-15c0 -63 15 -98 43 -98z" />
    <glyph glyph-name="Iogonek" unicode="&#x12e;" horiz-adv-x="130" 
d="M50 -110c0 48 6 83 16 110h-38v116h16v468h-16v116h74v-116h-16v-468h16v-116c-9 -12 -16 -35 -16 -68c0 -42 7 -53 16 -53c7 0 11 2 15 6v-115c-8 -5 -15 -7 -21 -7c-27 0 -46 39 -46 127z" />
    <glyph glyph-name="Idotaccent" unicode="&#x130;" horiz-adv-x="134" 
d="M31 0v116h16v468h-16v116h74v-116h-16v-468h16v-116h-74zM66 812c-17 0 -27 28 -27 77s10 77 27 77s27 -28 27 -77s-10 -77 -27 -77z" />
    <glyph glyph-name="J" unicode="J" horiz-adv-x="207" 
d="M54 253v-23c0 -80 7 -126 41 -126s40 46 40 126v470h42v-470c0 -153 -21 -242 -82 -242s-83 89 -83 242v23h42z" />
    <glyph glyph-name="Jcircumflex" unicode="&#x134;" horiz-adv-x="211" 
d="M99 -12c-61 0 -83 89 -83 242v23h42v-23c0 -80 7 -126 41 -126s40 46 40 126v470h42v-470c0 -153 -21 -242 -82 -242zM54 780h-42l68 219h33l68 -219h-42l-42 144z" />
    <glyph glyph-name="K" unicode="K" horiz-adv-x="227" 
d="M30 0v700h42v-284h35l57 284h43l-70 -342l78 -358h-44l-64 300h-35v-300h-42z" />
    <glyph glyph-name="uni0136" unicode="&#x136;" horiz-adv-x="227" 
d="M30 0v700h42v-284h35l57 284h43l-70 -342l78 -358h-44l-64 300h-35v-300h-42zM145 -128c0 -19 -2 -46 -9 -72l-12 -50h-28v122c0 43 9 69 25 69c15 0 24 -26 24 -69z" />
    <glyph glyph-name="L" unicode="L" horiz-adv-x="194" 
d="M182 116v-116h-152v700h42v-584h110z" />
    <glyph glyph-name="Lacute" unicode="&#x139;" horiz-adv-x="194" 
d="M182 116v-116h-152v700h42v-584h110zM36 780l19 219h51l-34 -219h-36z" />
    <glyph glyph-name="uni013B" unicode="&#x13b;" horiz-adv-x="194" 
d="M182 116v-116h-152v700h42v-584h110zM108 -251h-28v122c0 43 9 69 25 69c15 0 24 -26 24 -69c0 -19 -2 -46 -9 -72z" />
    <glyph glyph-name="Lcaron" unicode="&#x13d;" horiz-adv-x="194" 
d="M182 116v-116h-152v700h42v-584h110zM149 576h-27v122c0 43 9 69 24 69s24 -26 24 -69c0 -19 -2 -46 -8 -72z" />
    <glyph glyph-name="M" unicode="M" horiz-adv-x="310" 
d="M280 700v-700h-42v500l1 34h-2l-62 -404h-41l-62 404h-2l1 -34v-500h-41v700h58l66 -431h2l66 431h58z" />
    <glyph glyph-name="N" unicode="N" horiz-adv-x="253" 
d="M158 0l-88 584h-2l3 -84v-500h-41v700h65l89 -584h2l-3 84v500h40v-700h-65z" />
    <glyph glyph-name="Ntilde" unicode="&#xd1;" horiz-adv-x="249" 
d="M158 0l-88 584h-2l3 -84v-500h-41v700h65l89 -584h2l-3 84v500h40v-700h-65zM158 1009c34 0 58 -47 58 -204v-25h-42v51c0 46 -6 62 -16 62c-15 0 -33 -123 -69 -123c-34 0 -57 47 -57 204v25h42v-51c0 -46 6 -62 15 -62c16 0 32 123 69 123z" />
    <glyph glyph-name="Nacute" unicode="&#x143;" horiz-adv-x="249" 
d="M158 0l-88 584h-2l3 -84v-500h-41v700h65l89 -584h2l-3 84v500h40v-700h-65zM89 780l19 219h51l-34 -219h-36z" />
    <glyph glyph-name="uni0145" unicode="&#x145;" horiz-adv-x="249" 
d="M158 0l-88 584h-2l3 -84v-500h-41v700h65l89 -584h2l-3 84v500h40v-700h-65zM124 -251h-28v122c0 43 9 69 25 69c15 0 24 -26 24 -69c0 -19 -2 -46 -9 -72z" />
    <glyph glyph-name="Ncaron" unicode="&#x147;" horiz-adv-x="249" 
d="M71 0h-41v700h65l89 -584h2l-3 84v500h40v-700h-65l-88 584h-2l3 -84v-500zM108 780l-68 219h42l43 -144l42 144h42l-68 -219h-33z" />
    <glyph glyph-name="O" unicode="O" horiz-adv-x="258" 
d="M194 350c0 153 -23 246 -65 246s-65 -93 -65 -246s23 -246 65 -246s65 93 65 246zM22 350c0 228 40 362 107 362s107 -134 107 -362s-40 -362 -107 -362s-107 134 -107 362z" />
    <glyph glyph-name="Ograve" unicode="&#xd2;" horiz-adv-x="258" 
d="M194 350c0 153 -23 246 -65 246s-65 -93 -65 -246s23 -246 65 -246s65 93 65 246zM22 350c0 228 40 362 107 362s107 -134 107 -362s-40 -362 -107 -362s-107 134 -107 362zM144 780h-36l-34 219h51z" />
    <glyph glyph-name="Oacute" unicode="&#xd3;" horiz-adv-x="258" 
d="M194 350c0 153 -23 246 -65 246s-65 -93 -65 -246s23 -246 65 -246s65 93 65 246zM22 350c0 228 40 362 107 362s107 -134 107 -362s-40 -362 -107 -362s-107 134 -107 362zM111 780l19 219h51l-34 -219h-36z" />
    <glyph glyph-name="Ocircumflex" unicode="&#xd4;" horiz-adv-x="258" 
d="M129 -12c-67 0 -107 134 -107 362s40 362 107 362s107 -134 107 -362s-40 -362 -107 -362zM129 104c42 0 65 93 65 246s-23 246 -65 246s-65 -93 -65 -246s23 -246 65 -246zM83 780h-42l68 219h33l68 -219h-42l-42 144z" />
    <glyph glyph-name="Otilde" unicode="&#xd5;" horiz-adv-x="258" 
d="M194 350c0 153 -23 246 -65 246s-65 -93 -65 -246s23 -246 65 -246s65 93 65 246zM22 350c0 228 40 362 107 362s107 -134 107 -362s-40 -362 -107 -362s-107 134 -107 362zM159 1009c34 0 58 -47 58 -204v-25h-42v51c0 46 -6 62 -16 62c-15 0 -33 -123 -69 -123
c-34 0 -57 47 -57 204v25h42v-51c0 -46 6 -62 15 -62c16 0 32 123 69 123z" />
    <glyph glyph-name="Odieresis" unicode="&#xd6;" horiz-adv-x="258" 
d="M194 350c0 153 -23 246 -65 246s-65 -93 -65 -246s23 -246 65 -246s65 93 65 246zM22 350c0 228 40 362 107 362s107 -134 107 -362s-40 -362 -107 -362s-107 134 -107 362zM172 812c-18 0 -27 28 -27 77s9 77 27 77c16 0 27 -28 27 -77s-11 -77 -27 -77zM78 812
c-17 0 -27 28 -27 77s10 77 27 77s27 -28 27 -77s-10 -77 -27 -77z" />
    <glyph glyph-name="Omacron" unicode="&#x14c;" horiz-adv-x="258" 
d="M194 350c0 153 -23 246 -65 246s-65 -93 -65 -246s23 -246 65 -246s65 93 65 246zM22 350c0 228 40 362 107 362s107 -134 107 -362s-40 -362 -107 -362s-107 134 -107 362zM203 831h-155v116h155v-116z" />
    <glyph glyph-name="Obreve" unicode="&#x14e;" horiz-adv-x="258" 
d="M194 350c0 153 -23 246 -65 246s-65 -93 -65 -246s23 -246 65 -246s65 93 65 246zM22 350c0 228 40 362 107 362s107 -134 107 -362s-40 -362 -107 -362s-107 134 -107 362zM126 886c28 0 42 35 42 98v15h42v-15c0 -136 -32 -214 -84 -214c-53 0 -85 78 -85 214v15h42
v-15c0 -63 15 -98 43 -98z" />
    <glyph glyph-name="Ohungarumlaut" unicode="&#x150;" horiz-adv-x="258" 
d="M194 350c0 153 -23 246 -65 246s-65 -93 -65 -246s23 -246 65 -246s65 93 65 246zM22 350c0 228 40 362 107 362s107 -134 107 -362s-40 -362 -107 -362s-107 134 -107 362zM96 780h-35l20 219h51zM184 780h-36l27 219h51z" />
    <glyph glyph-name="P" unicode="P" horiz-adv-x="213" 
d="M116 584h-44v-196h44c24 0 37 36 37 98s-13 98 -37 98zM30 700h86c50 0 79 -79 79 -214s-29 -214 -79 -214h-44v-272h-42v700z" />
    <glyph glyph-name="Q" unicode="Q" horiz-adv-x="268" 
d="M129 -12c-67 0 -107 134 -107 362s40 362 107 362s107 -134 107 -362c0 -100 -11 -193 -35 -246h45v-116h-117zM129 104c42 0 65 93 65 246s-23 246 -65 246s-65 -93 -65 -246s23 -246 65 -246z" />
    <glyph glyph-name="R" unicode="R" horiz-adv-x="233" 
d="M202 486c0 -102 -16 -171 -46 -200l49 -286h-41l-46 272h-46v-272h-42v700h93c50 0 79 -79 79 -214zM160 486c0 62 -13 98 -37 98h-51v-196h51c24 0 37 36 37 98z" />
    <glyph glyph-name="Racute" unicode="&#x154;" horiz-adv-x="233" 
d="M202 486c0 -102 -16 -171 -46 -200l49 -286h-41l-46 272h-46v-272h-42v700h93c50 0 79 -79 79 -214zM160 486c0 62 -13 98 -37 98h-51v-196h51c24 0 37 36 37 98zM118 780h-36l19 219h51z" />
    <glyph glyph-name="uni0156" unicode="&#x156;" horiz-adv-x="233" 
d="M202 486c0 -102 -16 -171 -46 -200l49 -286h-41l-46 272h-46v-272h-42v700h93c50 0 79 -79 79 -214zM160 486c0 62 -13 98 -37 98h-51v-196h51c24 0 37 36 37 98zM142 -128c0 -19 -2 -46 -9 -72l-12 -50h-28v122c0 43 9 69 25 69c15 0 24 -26 24 -69z" />
    <glyph glyph-name="Rcaron" unicode="&#x158;" horiz-adv-x="233" 
d="M202 486c0 -102 -16 -171 -46 -200l49 -286h-41l-46 272h-46v-272h-42v700h93c50 0 79 -79 79 -214zM160 486c0 62 -13 98 -37 98h-51v-196h51c24 0 37 36 37 98zM101 780l-68 219h42l43 -144l42 144h42l-68 -219h-33z" />
    <glyph glyph-name="S" unicode="S" horiz-adv-x="233" 
d="M209 207c1 -112 -29 -219 -93 -219c-61 0 -92 81 -92 247v18h42v-18c0 -91 11 -131 50 -131c36 0 51 47 51 103c0 134 -140 137 -140 300c0 108 27 205 89 205c59 0 89 -81 89 -243v-18h-42v18c0 88 -10 127 -47 127c-33 0 -47 -43 -47 -89c0 -134 140 -137 140 -300z
" />
    <glyph glyph-name="Sacute" unicode="&#x15a;" horiz-adv-x="233" 
d="M209 207c1 -112 -29 -219 -93 -219c-61 0 -92 81 -92 247v18h42v-18c0 -91 11 -131 50 -131c36 0 51 47 51 103c0 134 -140 137 -140 300c0 108 27 205 89 205c59 0 89 -81 89 -243v-18h-42v18c0 88 -10 127 -47 127c-33 0 -47 -43 -47 -89c0 -134 140 -137 140 -300z
M94 780l19 219h51l-34 -219h-36z" />
    <glyph glyph-name="Scircumflex" unicode="&#x15c;" horiz-adv-x="233" 
d="M69 507c0 -134 140 -137 140 -300c1 -112 -29 -219 -93 -219c-61 0 -92 81 -92 247v18h42v-18c0 -91 11 -131 50 -131c36 0 51 47 51 103c0 134 -140 137 -140 300c0 108 27 205 89 205c59 0 89 -81 89 -243v-18h-42v18c0 88 -10 127 -47 127c-33 0 -47 -43 -47 -89z
M69 780h-42l68 219h33l68 -219h-42l-42 144z" />
    <glyph glyph-name="Scedilla" unicode="&#x15e;" horiz-adv-x="233" 
d="M69 507c0 -134 140 -137 140 -300c1 -103 -24 -201 -78 -217v-6c17 -15 23 -59 23 -104c0 -81 -19 -117 -46 -117c-7 0 -14 2 -22 7v115c6 -4 11 -6 16 -6c11 0 16 7 16 26c0 17 -3 25 -12 25h-11v62c-47 17 -71 97 -71 243v18h42v-18c0 -91 11 -131 50 -131
c36 0 51 47 51 103c0 134 -140 137 -140 300c0 108 27 205 89 205c59 0 89 -81 89 -243v-18h-42v18c0 88 -10 127 -47 127c-33 0 -47 -43 -47 -89z" />
    <glyph glyph-name="Scaron" unicode="&#x160;" horiz-adv-x="233" 
d="M69 507c0 -134 140 -137 140 -300c1 -112 -29 -219 -93 -219c-61 0 -92 81 -92 247v18h42v-18c0 -91 11 -131 50 -131c36 0 51 47 51 103c0 134 -140 137 -140 300c0 108 27 205 89 205c59 0 89 -81 89 -243v-18h-42v18c0 88 -10 127 -47 127c-33 0 -47 -43 -47 -89z
M95 780l-68 219h42l43 -144l42 144h42l-68 -219h-33z" />
    <glyph glyph-name="uni0218" unicode="&#x218;" horiz-adv-x="233" 
d="M209 207c1 -112 -29 -219 -93 -219c-61 0 -92 81 -92 247v18h42v-18c0 -91 11 -131 50 -131c36 0 51 47 51 103c0 134 -140 137 -140 300c0 108 27 205 89 205c59 0 89 -81 89 -243v-18h-42v18c0 88 -10 127 -47 127c-33 0 -47 -43 -47 -89c0 -134 140 -137 140 -300z
M115 -250h-28v122c0 43 9 69 25 69c15 0 24 -26 24 -69c0 -19 -2 -46 -9 -72z" />
    <glyph glyph-name="T" unicode="T" 
d="M10 584v116h186v-116h-72v-584h-42v584h-72z" />
    <glyph glyph-name="uni0162" unicode="&#x162;" 
d="M10 584v116h186v-116h-72v-584h-42v584h-72zM105 -251h-28v122c0 43 9 69 25 69c15 0 24 -26 24 -69c0 -19 -2 -46 -9 -72z" />
    <glyph glyph-name="Tcaron" unicode="&#x164;" 
d="M82 584h-72v116h186v-116h-72v-584h-42v584zM85 780l-68 219h42l43 -144l42 144h42l-68 -219h-33z" />
    <glyph glyph-name="U" unicode="U" horiz-adv-x="245" 
d="M215 700v-403c0 -196 -34 -309 -92 -309c-60 0 -93 113 -93 309v403h42v-403c0 -122 18 -193 51 -193c32 0 50 71 50 193v403h42z" />
    <glyph glyph-name="Ugrave" unicode="&#xd9;" horiz-adv-x="239" 
d="M215 700v-403c0 -196 -34 -309 -92 -309c-60 0 -93 113 -93 309v403h42v-403c0 -122 18 -193 51 -193c32 0 50 71 50 193v403h42zM154 780h-36l-34 219h51z" />
    <glyph glyph-name="Uacute" unicode="&#xda;" horiz-adv-x="239" 
d="M215 700v-403c0 -196 -34 -309 -92 -309c-60 0 -93 113 -93 309v403h42v-403c0 -122 18 -193 51 -193c32 0 50 71 50 193v403h42zM105 780l19 219h51l-34 -219h-36z" />
    <glyph glyph-name="Ucircumflex" unicode="&#xdb;" horiz-adv-x="239" 
d="M123 104c32 0 50 71 50 193v403h42v-403c0 -196 -34 -309 -92 -309c-60 0 -93 113 -93 309v403h42v-403c0 -122 18 -193 51 -193zM77 780h-42l68 219h33l68 -219h-42l-42 144z" />
    <glyph glyph-name="Udieresis" unicode="&#xdc;" horiz-adv-x="239" 
d="M215 700v-403c0 -196 -34 -309 -92 -309c-60 0 -93 113 -93 309v403h42v-403c0 -122 18 -193 51 -193c32 0 50 71 50 193v403h42zM166 812c-18 0 -27 28 -27 77s9 77 27 77c16 0 27 -28 27 -77s-11 -77 -27 -77zM72 812c-17 0 -27 28 -27 77s10 77 27 77s27 -28 27 -77
s-10 -77 -27 -77z" />
    <glyph glyph-name="Utilde" unicode="&#x168;" horiz-adv-x="239" 
d="M215 700v-403c0 -196 -34 -309 -92 -309c-60 0 -93 113 -93 309v403h42v-403c0 -122 18 -193 51 -193c32 0 50 71 50 193v403h42zM153 1009c34 0 58 -47 58 -204v-25h-42v51c0 46 -6 62 -16 62c-15 0 -33 -123 -69 -123c-34 0 -57 47 -57 204v25h42v-51
c0 -46 6 -62 15 -62c16 0 32 123 69 123z" />
    <glyph glyph-name="Umacron" unicode="&#x16a;" horiz-adv-x="239" 
d="M215 700v-403c0 -196 -34 -309 -92 -309c-60 0 -93 113 -93 309v403h42v-403c0 -122 18 -193 51 -193c32 0 50 71 50 193v403h42zM197 831h-155v116h155v-116z" />
    <glyph glyph-name="Ubreve" unicode="&#x16c;" horiz-adv-x="239" 
d="M215 700v-403c0 -196 -34 -309 -92 -309c-60 0 -93 113 -93 309v403h42v-403c0 -122 18 -193 51 -193c32 0 50 71 50 193v403h42zM120 886c28 0 42 35 42 98v15h42v-15c0 -136 -32 -214 -84 -214c-53 0 -85 78 -85 214v15h42v-15c0 -63 15 -98 43 -98z" />
    <glyph glyph-name="Uring" unicode="&#x16e;" horiz-adv-x="239" 
d="M215 700v-403c0 -196 -34 -309 -92 -309c-60 0 -93 113 -93 309v403h42v-403c0 -122 18 -193 51 -193c32 0 50 71 50 193v403h42zM119 706c-35 0 -55 60 -55 159c0 100 20 159 55 159s55 -59 55 -159c0 -99 -20 -159 -55 -159zM119 804c14 0 22 23 22 61s-8 61 -22 61
s-22 -23 -22 -61s8 -61 22 -61z" />
    <glyph glyph-name="Uhungarumlaut" unicode="&#x170;" horiz-adv-x="239" 
d="M215 700v-403c0 -196 -34 -309 -92 -309c-60 0 -93 113 -93 309v403h42v-403c0 -122 18 -193 51 -193c32 0 50 71 50 193v403h42zM72 780h-35l20 219h51zM160 780h-36l27 219h51z" />
    <glyph glyph-name="Uogonek" unicode="&#x172;" horiz-adv-x="239" 
d="M89 -110c0 45 6 77 15 102c-48 22 -74 131 -74 305v403h42v-403c0 -122 18 -193 51 -193c32 0 50 71 50 193v403h42v-403c0 -175 -27 -283 -74 -305c-9 -4 -16 -31 -16 -60c0 -42 7 -53 16 -53c7 0 11 2 15 6v-115c-8 -5 -15 -7 -21 -7c-27 0 -46 39 -46 127z" />
    <glyph glyph-name="V" unicode="V" horiz-adv-x="221" 
d="M142 0h-62l-71 700h42l51 -500l8 -113h2l10 113l51 500h40z" />
    <glyph glyph-name="W" unicode="W" horiz-adv-x="356" 
d="M342 700l-63 -700h-52l-45 500l-3 68h-2l-3 -68l-45 -500h-52l-63 700h42l43 -476l5 -70h2l4 70l42 476h54l43 -476l4 -70h2l5 70l42 476h40z" />
    <glyph glyph-name="Wcircumflex" unicode="&#x174;" horiz-adv-x="356" 
d="M302 700h40l-63 -700h-52l-45 500l-3 68h-2l-3 -68l-45 -500h-52l-63 700h42l43 -476l5 -70h2l4 70l42 476h54l43 -476l4 -70h2l5 70zM133 780h-42l68 219h33l68 -219h-42l-42 144z" />
    <glyph glyph-name="Wgrave" unicode="&#x1e80;" horiz-adv-x="356" 
d="M342 700l-63 -700h-52l-45 500l-3 68h-2l-3 -68l-45 -500h-52l-63 700h42l43 -476l5 -70h2l4 70l42 476h54l43 -476l4 -70h2l5 70l42 476h40zM194 780h-36l-34 219h51z" />
    <glyph glyph-name="Wacute" unicode="&#x1e82;" horiz-adv-x="356" 
d="M342 700l-63 -700h-52l-45 500l-3 68h-2l-3 -68l-45 -500h-52l-63 700h42l43 -476l5 -70h2l4 70l42 476h54l43 -476l4 -70h2l5 70l42 476h40zM162 780l19 219h51l-34 -219h-36z" />
    <glyph glyph-name="Wdieresis" unicode="&#x1e84;" horiz-adv-x="356" 
d="M342 700l-63 -700h-52l-45 500l-3 68h-2l-3 -68l-45 -500h-52l-63 700h42l43 -476l5 -70h2l4 70l42 476h54l43 -476l4 -70h2l5 70l42 476h40zM222 812c-18 0 -27 28 -27 77s9 77 27 77c16 0 27 -28 27 -77s-11 -77 -27 -77zM128 812c-17 0 -27 28 -27 77s10 77 27 77
s27 -28 27 -77s-10 -77 -27 -77z" />
    <glyph glyph-name="X" unicode="X" horiz-adv-x="218" 
d="M162 700h40l-62 -334l68 -366h-44l-35 200l-19 121h-2l-57 -321h-41l68 359l-62 341h43l33 -186l17 -114h2l18 114z" />
    <glyph glyph-name="Y" unicode="Y" horiz-adv-x="208" 
d="M83 0v206l-74 494h42l41 -271l12 -105h2l12 105l41 271h40l-74 -494v-206h-42z" />
    <glyph glyph-name="Yacute" unicode="&#xdd;" horiz-adv-x="208" 
d="M83 0v206l-74 494h42l41 -271l12 -105h2l12 105l41 271h40l-74 -494v-206h-42zM122 780h-36l19 219h51z" />
    <glyph glyph-name="Ycircumflex" unicode="&#x176;" horiz-adv-x="208" 
d="M83 0v206l-74 494h42l41 -271l12 -105h2l12 105l41 271h40l-74 -494v-206h-42zM62 780h-42l68 219h33l68 -219h-42l-42 144z" />
    <glyph glyph-name="Ydieresis" unicode="&#x178;" horiz-adv-x="208" 
d="M83 0v206l-74 494h42l41 -271l12 -105h2l12 105l41 271h40l-74 -494v-206h-42zM81 889c0 -49 -10 -77 -27 -77s-27 28 -27 77s10 77 27 77s27 -28 27 -77zM175 889c0 -49 -11 -77 -27 -77c-18 0 -27 28 -27 77s9 77 27 77c16 0 27 -28 27 -77z" />
    <glyph glyph-name="Ygrave" unicode="&#x1ef2;" horiz-adv-x="208" 
d="M83 0v206l-74 494h42l41 -271l12 -105h2l12 105l41 271h40l-74 -494v-206h-42zM104 999l19 -219h-36l-34 219h51z" />
    <glyph glyph-name="Z" unicode="Z" horiz-adv-x="202" 
d="M181 584l-122 -466v-2h125v-116h-166v116l122 466v2h-115v116h156v-116z" />
    <glyph glyph-name="Zacute" unicode="&#x179;" horiz-adv-x="202" 
d="M181 584l-122 -466v-2h125v-116h-166v116l122 466v2h-115v116h156v-116zM66 780l19 219h51l-34 -219h-36z" />
    <glyph glyph-name="Zdotaccent" unicode="&#x17b;" horiz-adv-x="202" 
d="M181 584l-122 -466v-2h125v-116h-166v116l122 466v2h-115v116h156v-116zM101 812c-17 0 -27 28 -27 77s10 77 27 77s27 -28 27 -77s-10 -77 -27 -77z" />
    <glyph glyph-name="Zcaron" unicode="&#x17d;" horiz-adv-x="202" 
d="M181 700v-116l-122 -466v-2h125v-116h-166v116l122 466v2h-115v116h156zM85 780l-68 219h42l43 -144l42 144h42l-68 -219h-33z" />
    <glyph glyph-name="AE" unicode="&#xc6;" horiz-adv-x="329" 
d="M54 0h-42l80 700h215v-116h-112v-170h106v-116h-106v-182h112v-116h-154v128h-85zM153 584h-34l-38 -340h72v340z" />
    <glyph glyph-name="AEacute" unicode="&#x1fc;" horiz-adv-x="329" 
d="M54 0h-42l80 700h215v-116h-112v-170h106v-116h-106v-182h112v-116h-154v128h-85zM153 584h-34l-38 -340h72v340zM187 780h-36l19 219h51z" />
    <glyph glyph-name="Eth" unicode="&#xd0;" horiz-adv-x="246" 
d="M224 350c0 -220 -40 -350 -107 -350h-87v299h-32v116h32v285h87c67 0 107 -130 107 -350zM182 350c0 145 -23 234 -65 234h-45v-169h56v-116h-56v-183h45c42 0 65 87 65 234z" />
    <glyph glyph-name="Oslash" unicode="&#xd8;" horiz-adv-x="262" 
d="M130 712c21 0 39 -16 54 -46l8 34h45l-23 -94c17 -62 26 -149 26 -256c0 -228 -41 -362 -110 -362c-21 0 -39 15 -54 46l-8 -34h-45l23 95c-17 62 -26 148 -26 255c0 228 41 362 110 362zM198 350c0 59 -4 108 -10 147l-90 -372c9 -14 20 -21 32 -21c44 0 68 93 68 246z
M62 350c0 -58 3 -107 10 -146l90 371c-9 14 -19 21 -32 21c-44 0 -68 -93 -68 -246z" />
    <glyph glyph-name="Oslashacute" unicode="&#x1fe;" horiz-adv-x="262" 
d="M130 712c21 0 39 -16 54 -46l8 34h45l-23 -94c17 -62 26 -149 26 -256c0 -228 -41 -362 -110 -362c-21 0 -39 15 -54 46l-8 -34h-45l23 95c-17 62 -26 148 -26 255c0 228 41 362 110 362zM198 350c0 59 -4 108 -10 147l-90 -372c9 -14 20 -21 32 -21c44 0 68 93 68 246z
M62 350c0 -58 3 -107 10 -146l90 371c-9 14 -19 21 -32 21c-44 0 -68 -93 -68 -246zM141 777h-32l23 173h45z" />
    <glyph glyph-name="Thorn" unicode="&#xde;" horiz-adv-x="213" 
d="M72 251h44c24 0 37 36 37 98s-13 98 -37 98h-44v-196zM30 700h42v-137h44c50 0 79 -79 79 -214s-29 -214 -79 -214h-44v-135h-42v700z" />
    <glyph glyph-name="Dcroat" unicode="&#x110;" horiz-adv-x="246" 
d="M224 350c0 -220 -40 -350 -107 -350h-87v299h-32v116h32v285h87c67 0 107 -130 107 -350zM182 350c0 145 -23 234 -65 234h-45v-169h56v-116h-56v-183h45c42 0 65 87 65 234z" />
    <glyph glyph-name="Hbar" unicode="&#x126;" horiz-adv-x="242" 
d="M216 501v-501h-42v299h-102v-299h-42v501h-26v116h26v83h42v-83h102v83h42v-83h22v-116h-22zM174 415v86h-102v-86h102z" />
    <glyph glyph-name="IJ" unicode="&#x132;" horiz-adv-x="241" 
d="M30 298v116h16v170h-16v116h73v-116h-15v-170h15v-116h-73zM146 700h65v-470c0 -153 -21 -242 -83 -242c-61 0 -82 89 -82 242v26h42v-26c0 -76 6 -120 40 -120c35 0 41 44 41 120v354h-23v116z" />
    <glyph glyph-name="Ldot" unicode="&#x13f;" horiz-adv-x="190" 
d="M182 116v-116h-152v700h42v-584h110zM128 278c-17 0 -27 28 -27 77s10 77 27 77s27 -28 27 -77s-10 -77 -27 -77z" />
    <glyph glyph-name="Lslash" unicode="&#x141;" horiz-adv-x="190" 
d="M72 432l96 150h3v-123l-99 -154v-189h110v-116h-152v240l-20 -31h-2v123l22 34v334h42v-268z" />
    <glyph glyph-name="Eng" unicode="&#x14a;" horiz-adv-x="249" 
d="M223 -15c0 -153 -21 -242 -81 -242h-8v122h8c34 0 41 44 41 120v15h-25l-88 584h-2l3 -84v-500h-41v700h65l89 -584h2l-3 84v500h40v-715z" />
    <glyph glyph-name="OE" unicode="&#x152;" horiz-adv-x="369" 
d="M125 -12c-64 0 -103 134 -103 362s39 362 103 362c29 0 52 -30 69 -87v75h153v-120h-111v-164h106v-120h-106v-176h111v-120h-153v75c-17 -57 -40 -87 -69 -87zM129 108c42 0 65 91 65 242s-23 242 -65 242s-65 -91 -65 -242s23 -242 65 -242z" />
    <glyph glyph-name="Tbar" unicode="&#x166;" 
d="M82 584h-72v116h186v-116h-72v-169h55v-116h-55v-299h-42v299h-58v116h58v169z" />
    <glyph glyph-name="uni0402" unicode="&#x402;" horiz-adv-x="278" 
d="M124 386c11 25 27 40 49 40c72 0 87 -107 87 -219s-15 -219 -87 -219h-11v116h8c41 0 48 55 48 103s-7 103 -48 103c-30 0 -42 -27 -46 -59v-251h-42v584h-72v116h186v-116h-72v-198z" />
    <glyph glyph-name="uni0404" unicode="&#x404;" horiz-adv-x="252" 
d="M129 712c56 0 100 -101 100 -280v-15h-42v15c0 107 -26 164 -58 164c-36 0 -58 -67 -63 -181h91v-116h-92c5 -122 27 -195 64 -195c32 0 58 63 58 175v18h43v-18c0 -186 -44 -291 -101 -291c-67 0 -107 134 -107 362s40 362 107 362z" />
    <glyph glyph-name="uni0405" unicode="&#x405;" horiz-adv-x="233" 
d="M209 207c1 -112 -29 -219 -93 -219c-61 0 -92 81 -92 247v18h42v-18c0 -91 11 -131 50 -131c36 0 51 47 51 103c0 134 -140 137 -140 300c0 108 27 205 89 205c59 0 89 -81 89 -243v-18h-42v18c0 88 -10 127 -47 127c-33 0 -47 -43 -47 -89c0 -134 140 -137 140 -300z
" />
    <glyph glyph-name="uni0406" unicode="&#x406;" horiz-adv-x="130" 
d="M28 0v116h16v468h-16v116h74v-116h-16v-468h16v-116h-74z" />
    <glyph glyph-name="uni0407" unicode="&#x407;" horiz-adv-x="130" 
d="M28 0v116h16v468h-16v116h74v-116h-16v-468h16v-116h-74zM112 812c-18 0 -27 28 -27 77s9 77 27 77c16 0 27 -28 27 -77s-11 -77 -27 -77zM18 812c-17 0 -27 28 -27 77s10 77 27 77s27 -28 27 -77s-10 -77 -27 -77z" />
    <glyph glyph-name="uni0408" unicode="&#x408;" horiz-adv-x="207" 
d="M54 253v-23c0 -80 7 -126 41 -126s40 46 40 126v470h42v-470c0 -153 -21 -242 -82 -242s-83 89 -83 242v23h42z" />
    <glyph glyph-name="uni0409" unicode="&#x409;" horiz-adv-x="351" 
d="M27 114c18 0 29 15 33 316l4 270h150v-284h40c50 0 79 -77 79 -208s-29 -208 -79 -208h-82v584h-68l-2 -154c-5 -397 -28 -436 -75 -436h-11v120h11zM291 208c0 58 -13 92 -37 92h-40v-184h40c24 0 37 34 37 92z" />
    <glyph glyph-name="uni040A" unicode="&#x40a;" horiz-adv-x="346" 
d="M328 208c0 -131 -29 -208 -79 -208h-82v300h-97v-300h-42v700h42v-284h97v284h42v-284h40c50 0 79 -77 79 -208zM286 208c0 58 -13 92 -37 92h-40v-184h40c24 0 37 34 37 92z" />
    <glyph glyph-name="uni040B" unicode="&#x40b;" horiz-adv-x="278" 
d="M124 386c11 25 27 40 49 40c72 0 87 -105 87 -213v-213h-42v213c0 46 -7 97 -48 97c-30 0 -42 -27 -46 -59v-251h-42v584h-72v116h186v-116h-72v-198z" />
    <glyph glyph-name="uni040F" unicode="&#x40f;" horiz-adv-x="246" 
d="M102 -199v199h-72v700h42v-584h102v584h42v-700h-72v-199h-42z" />
    <glyph glyph-name="uni0410" unicode="&#x410;" horiz-adv-x="232" 
d="M162 124h-92l-12 -124h-44l70 700h63l71 -700h-44zM80 240h71l-35 350h-2z" />
    <glyph glyph-name="uni0411" unicode="&#x411;" horiz-adv-x="213" 
d="M195 214c0 -135 -29 -214 -79 -214h-86v700h147v-116h-105v-156h44c50 0 79 -79 79 -214zM153 214c0 62 -13 98 -37 98h-44v-196h44c24 0 37 36 37 98z" />
    <glyph glyph-name="uni0412" unicode="&#x412;" horiz-adv-x="227" 
d="M203 210c0 -133 -29 -210 -80 -210h-93v700h93c52 0 76 -75 76 -201c0 -67 -10 -116 -31 -141c23 -27 35 -79 35 -148zM161 210c0 56 -13 89 -38 89h-51v-183h51c25 0 38 34 38 94zM157 499c0 52 -8 85 -34 85h-51v-169h51c26 0 34 31 34 84z" />
    <glyph glyph-name="uni0413" unicode="&#x413;" horiz-adv-x="194" 
d="M182 700v-116h-110v-584h-42v700h152z" />
    <glyph glyph-name="uni0403" unicode="&#x403;" horiz-adv-x="194" 
d="M182 700v-116h-110v-584h-42v700h152zM89 780l19 219h51l-34 -219h-36z" />
    <glyph glyph-name="uni0414" unicode="&#x414;" horiz-adv-x="265" 
d="M41 116c8 63 16 178 19 468l2 116h160v-584h29v-315h-42v199h-152v-199h-43v315h27zM102 584c-3 -264 -11 -398 -19 -468h97v468h-78z" />
    <glyph glyph-name="uni0415" unicode="&#x415;" 
d="M30 0v700h154v-116h-112v-170h106v-116h-106v-182h112v-116h-154z" />
    <glyph glyph-name="uni0401" unicode="&#x401;" 
d="M30 0v700h154v-116h-112v-170h106v-116h-106v-182h112v-116h-154zM152 812c-18 0 -27 28 -27 77s9 77 27 77c16 0 27 -28 27 -77s-11 -77 -27 -77zM58 812c-17 0 -27 28 -27 77s10 77 27 77s27 -28 27 -77s-10 -77 -27 -77z" />
    <glyph glyph-name="uni0416" unicode="&#x416;" horiz-adv-x="344" 
d="M281 700h43l-60 -331l68 -369h-43l-56 310h-40v-310h-42v310h-39l-57 -310h-43l69 371l-60 329h43l48 -274h39v274h42v-274h39z" />
    <glyph glyph-name="uni0417" unicode="&#x417;" horiz-adv-x="222" 
d="M110 -12c-55 0 -88 78 -88 214v51h42v-51c0 -63 16 -98 46 -98s46 35 46 98c0 61 -11 97 -37 97h-35v116h35c29 0 33 33 33 89c0 57 -14 92 -42 92c-30 0 -45 -35 -45 -92v-53h-42v53c0 131 32 208 87 208c53 0 84 -77 84 -208c0 -69 -7 -119 -27 -146
c22 -30 31 -85 31 -156c0 -136 -32 -214 -88 -214z" />
    <glyph glyph-name="uni0418" unicode="&#x418;" horiz-adv-x="255" 
d="M159 700h66v-700h-41v500l3 84h-2l-89 -584h-66v700h42v-500l-3 -84h2z" />
    <glyph glyph-name="uni0419" unicode="&#x419;" horiz-adv-x="255" 
d="M159 700h66v-700h-41v500l3 84h-2l-89 -584h-66v700h42v-500l-3 -84h2zM128 886c28 0 42 35 42 98v15h42v-15c0 -136 -32 -214 -84 -214c-53 0 -85 78 -85 214v15h42v-15c0 -63 15 -98 43 -98z" />
    <glyph glyph-name="uni041A" unicode="&#x41a;" horiz-adv-x="227" 
d="M30 0v700h42v-284h35l57 284h43l-70 -342l78 -358h-44l-64 300h-35v-300h-42z" />
    <glyph glyph-name="uni040C" unicode="&#x40c;" horiz-adv-x="227" 
d="M30 0v700h42v-284h35l57 284h43l-70 -342l78 -358h-44l-64 300h-35v-300h-42zM121 780h-36l19 219h51z" />
    <glyph glyph-name="uni041B" unicode="&#x41b;" horiz-adv-x="249" 
d="M27 114c18 0 29 15 33 316l4 270h155v-700h-42v584h-73l-2 -154c-5 -397 -28 -436 -75 -436h-11v120h11z" />
    <glyph glyph-name="uni041C" unicode="&#x41c;" horiz-adv-x="310" 
d="M280 700v-700h-42v500l1 34h-2l-62 -404h-41l-62 404h-2l1 -34v-500h-41v700h58l66 -431h2l66 431h58z" />
    <glyph glyph-name="uni041D" unicode="&#x41d;" horiz-adv-x="246" 
d="M216 0h-42v299h-102v-299h-42v700h42v-285h102v285h42v-700z" />
    <glyph glyph-name="uni041E" unicode="&#x41e;" horiz-adv-x="258" 
d="M194 350c0 153 -23 246 -65 246s-65 -93 -65 -246s23 -246 65 -246s65 93 65 246zM22 350c0 228 40 362 107 362s107 -134 107 -362s-40 -362 -107 -362s-107 134 -107 362z" />
    <glyph glyph-name="uni041F" unicode="&#x41f;" horiz-adv-x="246" 
d="M216 0h-42v584h-102v-584h-42v700h186v-700z" />
    <glyph glyph-name="uni0420" unicode="&#x420;" horiz-adv-x="213" 
d="M116 584h-44v-196h44c24 0 37 36 37 98s-13 98 -37 98zM30 700h86c50 0 79 -79 79 -214s-29 -214 -79 -214h-44v-272h-42v700z" />
    <glyph glyph-name="uni0421" unicode="&#x421;" horiz-adv-x="252" 
d="M229 417h-42v15c0 107 -26 164 -58 164c-42 0 -65 -93 -65 -246s23 -246 65 -246c32 0 58 63 58 175v18h43v-18c0 -186 -44 -291 -101 -291c-67 0 -107 134 -107 362s40 362 107 362c56 0 100 -101 100 -280v-15z" />
    <glyph glyph-name="uni0422" unicode="&#x422;" 
d="M10 584v116h186v-116h-72v-584h-42v584h-72z" />
    <glyph glyph-name="uni0423" unicode="&#x423;" horiz-adv-x="214" 
d="M50 700l51 -309l9 -79h2l9 79l43 309h38l-71 -503c-25 -175 -40 -201 -80 -201h-5v116h5c17 0 32 4 43 80l-84 508h40z" />
    <glyph glyph-name="uni040E" unicode="&#x40e;" horiz-adv-x="214" 
d="M50 700l51 -309l9 -79h2l9 79l43 309h38l-71 -503c-25 -175 -40 -201 -80 -201h-5v116h5c17 0 32 4 43 80l-84 508h40zM106 886c28 0 42 35 42 98v15h42v-15c0 -136 -32 -214 -84 -214c-53 0 -85 78 -85 214v15h42v-15c0 -63 15 -98 43 -98z" />
    <glyph glyph-name="uni0424" unicode="&#x424;" horiz-adv-x="306" 
d="M20 380c0 190 41 302 98 302h14v68h42v-68h14c57 0 98 -113 98 -302c0 -190 -41 -302 -98 -302h-14v-78h-42v78h-14c-57 0 -98 113 -98 302zM244 380c0 118 -26 186 -56 186h-15v-372h15c30 0 56 69 56 186zM62 380c0 -118 26 -186 56 -186h15v372h-15
c-30 0 -56 -69 -56 -186z" />
    <glyph glyph-name="uni0425" unicode="&#x425;" horiz-adv-x="218" 
d="M162 700h40l-62 -334l68 -366h-44l-35 200l-19 121h-2l-57 -321h-41l68 359l-62 341h43l33 -186l17 -114h2l18 114z" />
    <glyph glyph-name="uni0426" unicode="&#x426;" horiz-adv-x="258" 
d="M202 0h-172v700h42v-584h102v584h42v-584h28v-315h-42v199z" />
    <glyph glyph-name="uni0427" unicode="&#x427;" horiz-adv-x="230" 
d="M95 390h63v310h42v-700h-42v274h-63c-62 0 -75 95 -75 193v233h42v-233c0 -36 4 -77 33 -77z" />
    <glyph glyph-name="uni0428" unicode="&#x428;" horiz-adv-x="334" 
d="M262 700h42v-700h-274v700h42v-584h74v584h42v-584h74v584z" />
    <glyph glyph-name="uni0429" unicode="&#x429;" horiz-adv-x="346" 
d="M290 0h-260v700h42v-584h74v584h42v-584h74v584h42v-584h28v-315h-42v199z" />
    <glyph glyph-name="uni042A" unicode="&#x42a;" horiz-adv-x="250" 
d="M153 116c23 0 37 36 37 98s-14 98 -37 98h-44v-196h44zM109 700v-272h44c50 0 79 -79 79 -214s-29 -214 -79 -214h-86v584h-57v116h99z" />
    <glyph glyph-name="uni042B" unicode="&#x42b;" horiz-adv-x="296" 
d="M32 0v700h42v-272h44c50 0 79 -79 79 -214s-29 -214 -79 -214h-86zM118 116c24 0 37 36 37 98s-13 98 -37 98h-44v-196h44zM266 700v-700h-42v700h42z" />
    <glyph glyph-name="uni042C" unicode="&#x42c;" horiz-adv-x="213" 
d="M30 0v700h42v-272h44c50 0 79 -79 79 -214s-29 -214 -79 -214h-86zM116 116c24 0 37 36 37 98s-13 98 -37 98h-44v-196h44z" />
    <glyph glyph-name="uni042D" unicode="&#x42d;" horiz-adv-x="251" 
d="M123 596c-32 0 -58 -57 -58 -164v-15h-42v15c0 179 44 280 100 280c66 0 106 -134 106 -362s-40 -362 -106 -362c-57 0 -101 105 -101 291v18h43v-18c0 -112 26 -175 58 -175c36 0 58 73 63 195h-92v116h91c-5 114 -27 181 -62 181z" />
    <glyph glyph-name="uni042E" unicode="&#x42e;" horiz-adv-x="335" 
d="M209 -12c-60 0 -98 114 -103 311h-34v-299h-42v700h42v-285h34c7 188 44 297 103 297c65 0 104 -134 104 -362s-39 -362 -104 -362zM209 104c39 0 62 93 62 246s-23 246 -62 246c-40 0 -62 -93 -62 -246s22 -246 62 -246z" />
    <glyph glyph-name="uni042F" unicode="&#x42f;" horiz-adv-x="231" 
d="M26 482c0 138 29 218 79 218h96v-700h-42v264h-54h-1l-39 -264h-43l42 287c-24 33 -38 100 -38 195zM68 482c0 -65 13 -102 37 -102h54v204h-54c-24 0 -37 -37 -37 -102z" />
    <glyph glyph-name="uni0490" unicode="&#x490;" horiz-adv-x="194" 
d="M180 700h2v-116h-110v-584h-42v700h108v199h42v-199z" />
    <glyph glyph-name="uni0492" unicode="&#x492;" horiz-adv-x="193" 
d="M29 298h-27v116h27v286h152v-116h-110v-170h69v-116h-69v-298h-42v298z" />
    <glyph glyph-name="uni0496" unicode="&#x496;" horiz-adv-x="349" 
d="M281 700h43l-60 -331l46 -253h49v-315h-42v199h-28l-56 310h-40v-310h-42v310h-39l-57 -310h-43l69 371l-60 329h43l48 -274h39v274h42v-274h39z" />
    <glyph glyph-name="uni0498" unicode="&#x498;" horiz-adv-x="222" 
d="M89 -8c-42 18 -67 92 -67 210v51h42v-51c0 -63 16 -98 46 -98s46 35 46 98c0 61 -11 97 -37 97h-35v116h35c29 0 33 33 33 89c0 57 -14 92 -42 92c-30 0 -45 -35 -45 -92v-53h-42v53c0 131 32 208 87 208c53 0 84 -77 84 -208c0 -69 -7 -119 -27 -146
c22 -30 31 -85 31 -156c0 -118 -24 -192 -67 -210v-191h-42v191z" />
    <glyph glyph-name="uni049A" unicode="&#x49a;" horiz-adv-x="231" 
d="M30 0v700h42v-284h35l57 284h43l-70 -342l53 -242h51v-315h-42v199h-28l-64 300h-35v-300h-42z" />
    <glyph glyph-name="uni049C" unicode="&#x49c;" horiz-adv-x="269" 
d="M87 541h42v-125h14l57 284h49l-70 -342l78 -358h-50l-64 300h-14v-125h-42v125h-15v-300h-42v700h42v-284h15v125z" />
    <glyph glyph-name="uni04A0" unicode="&#x4a0;" horiz-adv-x="264" 
d="M201 700h43l-70 -342l78 -358h-44l-64 300h-35v-300h-42v584h-57v116h99v-284h35z" />
    <glyph glyph-name="uni04A2" unicode="&#x4a2;" horiz-adv-x="258" 
d="M216 116h28v-315h-42v199h-28v299h-102v-299h-42v700h42v-285h102v285h42v-584z" />
    <glyph glyph-name="uni04AA" unicode="&#x4aa;" horiz-adv-x="252" 
d="M230 279c0 -163 -34 -263 -80 -286v-192h-42v192c-54 25 -86 153 -86 357c0 228 40 362 107 362c56 0 100 -101 100 -280v-15h-42v15c0 107 -26 164 -58 164c-42 0 -65 -93 -65 -246s23 -246 65 -246c32 0 58 63 58 175v18h43v-18z" />
    <glyph glyph-name="uni04AE" unicode="&#x4ae;" horiz-adv-x="208" 
d="M83 0v206l-74 494h42l41 -271l12 -105h2l12 105l41 271h40l-74 -494v-206h-42z" />
    <glyph glyph-name="uni04B0" unicode="&#x4b0;" horiz-adv-x="208" 
d="M199 700l-74 -494v-4h48v-116h-48v-86h-42v86h-48v116h48v4l-74 494h42l41 -271l12 -105h2l12 105l41 271h40z" />
    <glyph glyph-name="uni04B2" unicode="&#x4b2;" horiz-adv-x="224" 
d="M78 359l-62 341h43l33 -186l17 -114h2l18 114l33 186h40l-62 -334l62 -330h32v-235h-42v199h-28l-35 200l-19 121h-2l-57 -321h-41z" />
    <glyph glyph-name="uni04B6" unicode="&#x4b6;" horiz-adv-x="242" 
d="M20 700h42v-233c0 -36 4 -77 33 -77h63v310h42v-584h28v-315h-42v199h-28v274h-63c-62 0 -75 95 -75 193v233z" />
    <glyph glyph-name="uni04BA" unicode="&#x4ba;" horiz-adv-x="226" 
d="M131 310h-63v-310h-42v700h42v-274h63c62 0 75 -95 75 -193v-233h-42v233c0 36 -4 77 -33 77z" />
    <glyph glyph-name="uni04C0" unicode="&#x4c0;" horiz-adv-x="102" 
d="M72 0h-42v700h42v-700z" />
    <glyph glyph-name="uni04D8" unicode="&#x4d8;" horiz-adv-x="251" 
d="M123 -12c-57 0 -101 85 -101 291v136h164c-5 140 -27 181 -63 181s-58 -50 -58 -114v-15h-42v15c0 137 41 230 100 230c66 0 106 -94 106 -362c0 -248 -40 -362 -106 -362zM123 104c37 0 59 59 63 195h-121v-20c0 -132 26 -175 58 -175z" />
    <glyph glyph-name="uni04E8" unicode="&#x4e8;" horiz-adv-x="258" 
d="M129 -12c-67 0 -107 134 -107 362s40 362 107 362s107 -134 107 -362s-40 -362 -107 -362zM65 297c5 -121 27 -193 64 -193c36 0 59 72 64 193h-128zM192 413c-5 115 -27 183 -63 183s-58 -68 -63 -183h126z" />
    <glyph glyph-name="a" unicode="a" horiz-adv-x="194" 
d="M95 509c44 0 71 -59 71 -157v-352h-41v61c-10 -44 -27 -70 -49 -70c-36 0 -58 58 -58 155c0 95 22 151 58 151h49v55c0 30 -11 45 -30 45c-20 0 -31 -15 -31 -45v-12h-41v12c0 98 27 157 72 157zM59 150c0 -31 8 -47 22 -47c27 0 44 28 44 94h-44c-14 0 -22 -15 -22 -47z
" />
    <glyph glyph-name="agrave" unicode="&#xe0;" horiz-adv-x="194" 
d="M95 509c44 0 71 -59 71 -157v-352h-41v61c-10 -44 -27 -70 -49 -70c-36 0 -58 58 -58 155c0 95 22 151 58 151h49v55c0 30 -11 45 -30 45c-20 0 -31 -15 -31 -45v-12h-41v12c0 98 27 157 72 157zM85 750l24 -173h-32l-36 173h44zM59 150c0 -31 8 -47 22 -47
c27 0 44 28 44 94h-44c-14 0 -22 -15 -22 -47z" />
    <glyph glyph-name="aacute" unicode="&#xe1;" horiz-adv-x="194" 
d="M95 509c44 0 71 -59 71 -157v-352h-41v61c-10 -44 -27 -70 -49 -70c-36 0 -58 58 -58 155c0 95 22 151 58 151h49v55c0 30 -11 45 -30 45c-20 0 -31 -15 -31 -45v-12h-41v12c0 98 27 157 72 157zM110 577h-32l23 173h45zM59 150c0 -31 8 -47 22 -47c27 0 44 28 44 94h-44
c-14 0 -22 -15 -22 -47z" />
    <glyph glyph-name="acircumflex" unicode="&#xe2;" horiz-adv-x="194" 
d="M95 509c44 0 71 -59 71 -157v-352h-41v61c-10 -44 -27 -70 -49 -70c-36 0 -58 58 -58 155c0 95 22 151 58 151h49v55c0 30 -11 45 -30 45c-20 0 -31 -15 -31 -45v-12h-41v12c0 98 27 157 72 157zM59 577h-39l56 173h29l55 -173h-38l-32 106zM59 150c0 -31 8 -47 22 -47
c27 0 44 28 44 94h-44c-14 0 -22 -15 -22 -47z" />
    <glyph glyph-name="atilde" unicode="&#xe3;" horiz-adv-x="197" 
d="M96 509c44 0 71 -59 71 -157v-352h-41v61c-10 -44 -27 -70 -49 -70c-36 0 -58 58 -58 155c0 95 22 151 58 151h49v55c0 30 -11 45 -30 45c-20 0 -31 -15 -31 -45v-12h-41v12c0 98 27 157 72 157zM119 655c-13 0 -25 -88 -54 -88c-28 0 -47 47 -47 171v12h41v-32
c0 -30 3 -46 9 -46c13 0 25 88 54 88c28 0 47 -47 47 -171v-12h-40v32c0 30 -4 46 -10 46zM60 150c0 -31 8 -47 22 -47c27 0 44 28 44 94h-44c-14 0 -22 -15 -22 -47z" />
    <glyph glyph-name="adieresis" unicode="&#xe4;" horiz-adv-x="194" 
d="M95 509c44 0 71 -59 71 -157v-352h-41v61c-10 -44 -27 -70 -49 -70c-36 0 -58 58 -58 155c0 95 22 151 58 151h49v55c0 30 -11 45 -30 45c-20 0 -31 -15 -31 -45v-12h-41v12c0 98 27 157 72 157zM83 663c0 -46 -10 -73 -26 -73s-26 27 -26 73s10 73 26 73s26 -27 26 -73z
M162 663c0 -46 -10 -73 -26 -73s-25 27 -25 73s9 73 25 73s26 -27 26 -73zM59 150c0 -31 8 -47 22 -47c27 0 44 28 44 94h-44c-14 0 -22 -15 -22 -47z" />
    <glyph glyph-name="aring" unicode="&#xe5;" horiz-adv-x="194" 
d="M95 509c44 0 71 -59 71 -157v-352h-41v61c-10 -44 -27 -70 -49 -70c-36 0 -58 58 -58 155c0 95 22 151 58 151h49v55c0 30 -11 45 -30 45c-20 0 -31 -15 -31 -45v-12h-41v12c0 98 27 157 72 157zM155 715c0 -99 -20 -159 -55 -159s-55 60 -55 159c0 100 20 159 55 159
s55 -59 55 -159zM59 150c0 -31 8 -47 22 -47c27 0 44 28 44 94h-44c-14 0 -22 -15 -22 -47zM78 715c0 -38 8 -61 22 -61s22 23 22 61s-8 61 -22 61s-22 -23 -22 -61z" />
    <glyph glyph-name="amacron" unicode="&#x101;" horiz-adv-x="194" 
d="M95 509c44 0 71 -59 71 -157v-352h-41v61c-10 -44 -27 -70 -49 -70c-36 0 -58 58 -58 155c0 95 22 151 58 151h49v55c0 30 -11 45 -30 45c-20 0 -31 -15 -31 -45v-12h-41v12c0 98 27 157 72 157zM164 719v-112h-140v112h140zM59 150c0 -31 8 -47 22 -47c27 0 44 28 44 94
h-44c-14 0 -22 -15 -22 -47z" />
    <glyph glyph-name="abreve" unicode="&#x103;" horiz-adv-x="194" 
d="M95 509c44 0 71 -59 71 -157v-352h-41v61c-10 -44 -27 -70 -49 -70c-36 0 -58 58 -58 155c0 95 22 151 58 151h49v55c0 30 -11 45 -30 45c-20 0 -31 -15 -31 -45v-12h-41v12c0 98 27 157 72 157zM64 739c0 -43 10 -67 29 -67c20 0 29 24 29 67v11h41v-11
c0 -109 -27 -172 -70 -172s-70 63 -70 172v11h41v-11zM59 150c0 -31 8 -47 22 -47c27 0 44 28 44 94h-44c-14 0 -22 -15 -22 -47z" />
    <glyph glyph-name="aogonek" unicode="&#x105;" horiz-adv-x="194" 
d="M95 509c44 0 71 -59 71 -157v-352c-9 -8 -13 -24 -13 -49c0 -30 6 -39 15 -39c3 0 7 1 10 3v-109c-5 -4 -10 -6 -18 -6c-24 0 -40 37 -40 121c0 33 4 59 11 79h-6v61c-10 -44 -27 -70 -49 -70c-36 0 -58 58 -58 155c0 95 22 151 58 151h49v55c0 30 -11 45 -30 45
c-20 0 -31 -15 -31 -45v-12h-41v12c0 98 27 157 72 157zM59 150c0 -31 8 -47 22 -47c27 0 44 28 44 94h-44c-14 0 -22 -15 -22 -47z" />
    <glyph glyph-name="aringacute" unicode="&#x1fb;" horiz-adv-x="194" 
d="M95 509c44 0 71 -59 71 -157v-352h-41v61c-10 -44 -27 -70 -49 -70c-36 0 -58 58 -58 155c0 95 22 151 58 151h49v55c0 30 -11 45 -30 45c-20 0 -31 -15 -31 -45v-12h-41v12c0 98 27 157 72 157zM149 715c0 -99 -20 -159 -55 -159s-55 60 -55 159c0 86 15 142 41 156
l19 141h45l-30 -145c22 -19 35 -73 35 -152zM59 150c0 -31 8 -47 22 -47c27 0 44 28 44 94h-44c-14 0 -22 -15 -22 -47zM72 715c0 -38 8 -61 22 -61s22 23 22 61s-8 61 -22 61s-22 -23 -22 -61z" />
    <glyph glyph-name="b" unicode="b" horiz-adv-x="212" 
d="M192 250c0 -160 -27 -259 -76 -259c-23 0 -38 22 -48 62v-53h-40v750h40v-303c10 40 25 62 48 62c49 0 76 -100 76 -259zM109 396c-28 0 -41 -44 -41 -121v-50c0 -77 13 -121 41 -121c29 0 43 42 43 146c0 103 -14 146 -43 146z" />
    <glyph glyph-name="c" unicode="c" horiz-adv-x="202" 
d="M104 396c-30 0 -43 -45 -43 -146c0 -102 13 -146 43 -146c25 0 38 35 38 92v8h40v-8c0 -121 -30 -205 -78 -205c-55 0 -84 99 -84 259c0 159 29 259 84 259c48 0 78 -78 78 -195v-8h-40v8c0 50 -13 82 -38 82z" />
    <glyph glyph-name="ccedilla" unicode="&#xe7;" horiz-adv-x="202" 
d="M142 314c0 50 -13 82 -38 82c-30 0 -43 -45 -43 -146c0 -102 13 -146 43 -146c25 0 38 35 38 92v8h40v-8c0 -107 -23 -185 -62 -202v-14c18 -17 23 -54 23 -97c0 -73 -18 -105 -43 -105c-6 0 -12 1 -19 6v110c4 -3 7 -4 13 -4c9 0 14 7 14 23c0 13 -2 22 -10 22h-9v59
c-45 16 -69 111 -69 256c0 159 29 259 84 259c48 0 78 -78 78 -195v-8h-40v8z" />
    <glyph glyph-name="cacute" unicode="&#x107;" horiz-adv-x="202" 
d="M104 396c-30 0 -43 -45 -43 -146c0 -102 13 -146 43 -146c25 0 38 35 38 92v8h40v-8c0 -121 -30 -205 -78 -205c-55 0 -84 99 -84 259c0 159 29 259 84 259c48 0 78 -78 78 -195v-8h-40v8c0 50 -13 82 -38 82zM91 577l23 173h45l-36 -173h-32z" />
    <glyph glyph-name="ccircumflex" unicode="&#x109;" horiz-adv-x="202" 
d="M142 314c0 50 -13 82 -38 82c-30 0 -43 -45 -43 -146c0 -102 13 -146 43 -146c25 0 38 35 38 92v8h40v-8c0 -121 -30 -205 -78 -205c-55 0 -84 99 -84 259c0 159 29 259 84 259c48 0 78 -78 78 -195v-8h-40v8zM72 577h-39l56 173h29l55 -173h-38l-32 106z" />
    <glyph glyph-name="cdotaccent" unicode="&#x10b;" horiz-adv-x="202" 
d="M104 396c-30 0 -43 -45 -43 -146c0 -102 13 -146 43 -146c25 0 38 35 38 92v8h40v-8c0 -121 -30 -205 -78 -205c-55 0 -84 99 -84 259c0 159 29 259 84 259c48 0 78 -78 78 -195v-8h-40v8c0 50 -13 82 -38 82zM103 590c-17 0 -27 27 -27 73s10 73 27 73s27 -27 27 -73
s-11 -73 -27 -73z" />
    <glyph glyph-name="ccaron" unicode="&#x10d;" horiz-adv-x="202" 
d="M142 314c0 50 -13 82 -38 82c-30 0 -43 -45 -43 -146c0 -102 13 -146 43 -146c25 0 38 35 38 92v8h40v-8c0 -121 -30 -205 -78 -205c-55 0 -84 99 -84 259c0 159 29 259 84 259c48 0 78 -78 78 -195v-8h-40v8zM134 750h39l-56 -173h-29l-55 173h38l32 -106z" />
    <glyph glyph-name="d" unicode="d" horiz-adv-x="212" 
d="M144 53c-10 -40 -25 -62 -48 -62c-49 0 -76 99 -76 259c0 159 27 259 76 259c23 0 38 -22 48 -62v303h40v-750h-40v53zM103 104c28 0 41 44 41 121v50c0 77 -13 121 -41 121c-29 0 -43 -43 -43 -146c0 -104 14 -146 43 -146z" />
    <glyph glyph-name="dcaron" unicode="&#x10f;" horiz-adv-x="264" 
d="M144 53c-10 -40 -25 -62 -48 -62c-49 0 -76 99 -76 259c0 159 27 259 76 259c23 0 38 -22 48 -62v303h40v-750h-40v53zM103 104c28 0 41 44 41 121v50c0 77 -13 121 -41 121c-29 0 -43 -43 -43 -146c0 -104 14 -146 43 -146zM260 699c0 -19 -2 -46 -8 -72l-13 -50h-27
v122c0 43 9 69 24 69s24 -26 24 -69z" />
    <glyph glyph-name="e" unicode="e" horiz-adv-x="202" 
d="M20 250c0 159 29 259 84 259c49 0 78 -81 78 -221v-73h-120c2 -79 16 -111 42 -111c23 0 35 21 35 54v4h41v-4c0 -98 -30 -167 -76 -167c-55 0 -84 99 -84 259zM104 396c-22 0 -35 -25 -41 -82h78c0 54 -17 82 -37 82z" />
    <glyph glyph-name="egrave" unicode="&#xe8;" horiz-adv-x="202" 
d="M20 250c0 159 29 259 84 259c49 0 78 -81 78 -221v-73h-120c2 -79 16 -111 42 -111c23 0 35 21 35 54v4h41v-4c0 -98 -30 -167 -76 -167c-55 0 -84 99 -84 259zM91 750l24 -173h-32l-36 173h44zM104 396c-22 0 -35 -25 -41 -82h78c0 54 -17 82 -37 82z" />
    <glyph glyph-name="eacute" unicode="&#xe9;" horiz-adv-x="202" 
d="M20 250c0 159 29 259 84 259c49 0 78 -81 78 -221v-73h-120c2 -79 16 -111 42 -111c23 0 35 21 35 54v4h41v-4c0 -98 -30 -167 -76 -167c-55 0 -84 99 -84 259zM127 577h-32l23 173h45zM104 396c-22 0 -35 -25 -41 -82h78c0 54 -17 82 -37 82z" />
    <glyph glyph-name="ecircumflex" unicode="&#xea;" horiz-adv-x="202" 
d="M20 250c0 159 29 259 84 259c49 0 78 -81 78 -221v-73h-120c2 -79 16 -111 42 -111c23 0 35 21 35 54v4h41v-4c0 -98 -30 -167 -76 -167c-55 0 -84 99 -84 259zM72 577h-39l56 173h29l55 -173h-38l-32 106zM104 396c-22 0 -35 -25 -41 -82h78c0 54 -17 82 -37 82z" />
    <glyph glyph-name="edieresis" unicode="&#xeb;" horiz-adv-x="202" 
d="M20 250c0 159 29 259 84 259c49 0 78 -81 78 -221v-73h-120c2 -79 16 -111 42 -111c23 0 35 21 35 54v4h41v-4c0 -98 -30 -167 -76 -167c-55 0 -84 99 -84 259zM90 663c0 -46 -10 -73 -26 -73s-26 27 -26 73s10 73 26 73s26 -27 26 -73zM169 663c0 -46 -10 -73 -26 -73
s-25 27 -25 73s9 73 25 73s26 -27 26 -73zM104 396c-22 0 -35 -25 -41 -82h78c0 54 -17 82 -37 82z" />
    <glyph glyph-name="emacron" unicode="&#x113;" horiz-adv-x="202" 
d="M20 250c0 159 29 259 84 259c49 0 78 -81 78 -221v-73h-120c2 -79 16 -111 42 -111c23 0 35 21 35 54v4h41v-4c0 -98 -30 -167 -76 -167c-55 0 -84 99 -84 259zM173 719v-112h-140v112h140zM104 396c-22 0 -35 -25 -41 -82h78c0 54 -17 82 -37 82z" />
    <glyph glyph-name="ebreve" unicode="&#x115;" horiz-adv-x="202" 
d="M20 250c0 159 29 259 84 259c49 0 78 -81 78 -221v-73h-120c2 -79 16 -111 42 -111c23 0 35 21 35 54v4h41v-4c0 -98 -30 -167 -76 -167c-55 0 -84 99 -84 259zM74 739c0 -43 10 -67 29 -67c20 0 29 24 29 67v11h41v-11c0 -109 -27 -172 -70 -172s-70 63 -70 172v11h41
v-11zM104 396c-22 0 -35 -25 -41 -82h78c0 54 -17 82 -37 82z" />
    <glyph glyph-name="edotaccent" unicode="&#x117;" horiz-adv-x="202" 
d="M20 250c0 159 29 259 84 259c49 0 78 -81 78 -221v-73h-120c2 -79 16 -111 42 -111c23 0 35 21 35 54v4h41v-4c0 -98 -30 -167 -76 -167c-55 0 -84 99 -84 259zM130 663c0 -46 -11 -73 -27 -73c-17 0 -27 27 -27 73s10 73 27 73s27 -27 27 -73zM104 396
c-22 0 -35 -25 -41 -82h78c0 54 -17 82 -37 82z" />
    <glyph glyph-name="eogonek" unicode="&#x119;" horiz-adv-x="202" 
d="M63 314h78c0 54 -17 82 -37 82c-22 0 -35 -25 -41 -82zM93 -8c-48 12 -73 109 -73 258c0 159 29 259 84 259c49 0 78 -81 78 -221v-73h-120c2 -79 16 -111 42 -111c23 0 35 21 35 54v4h41v-4c0 -77 -19 -137 -49 -158c-9 -8 -13 -24 -13 -49c0 -30 6 -39 15 -39
c3 0 7 1 10 3v-109c-5 -4 -10 -6 -18 -6c-24 0 -40 37 -40 121c0 29 3 53 8 71z" />
    <glyph glyph-name="ecaron" unicode="&#x11b;" horiz-adv-x="202" 
d="M20 250c0 159 29 259 84 259c49 0 78 -81 78 -221v-73h-120c2 -79 16 -111 42 -111c23 0 35 21 35 54v4h41v-4c0 -98 -30 -167 -76 -167c-55 0 -84 99 -84 259zM134 750h39l-56 -173h-29l-55 173h38l32 -106zM104 396c-22 0 -35 -25 -41 -82h78c0 54 -17 82 -37 82z" />
    <glyph glyph-name="f" unicode="f" horiz-adv-x="129" 
d="M106 638c-20 0 -31 -34 -31 -83v-55h43v-112h-43v-388h-40v388h-21v112h21v55c0 115 26 195 71 195h16v-112h-16z" />
    <glyph glyph-name="g" unicode="g" horiz-adv-x="205" 
d="M154 426c7 48 18 74 37 74h4v-112h-4c-14 0 -21 -28 -21 -80c0 -119 -29 -187 -75 -187h-18c-11 0 -17 -14 -17 -35c0 -20 6 -34 17 -34h41c44 0 70 -56 70 -153c0 -99 -34 -156 -89 -156c-59 0 -89 50 -89 142c0 55 9 91 30 107c-10 19 -15 45 -15 71c0 36 8 72 22 91
c-18 27 -28 77 -28 154c0 128 26 201 76 201c30 0 50 -29 59 -83zM95 397c-23 0 -36 -30 -36 -89c0 -58 13 -89 36 -89s35 31 35 89c0 59 -12 89 -35 89zM147 -101c0 31 -10 47 -29 47h-43c-18 -1 -27 -17 -27 -47c0 -34 14 -52 51 -52c35 0 48 18 48 52z" />
    <glyph glyph-name="gcircumflex" unicode="&#x11d;" horiz-adv-x="205" 
d="M154 426c7 48 18 74 37 74h4v-112h-4c-14 0 -21 -28 -21 -80c0 -119 -29 -187 -75 -187h-18c-11 0 -17 -14 -17 -35c0 -20 6 -34 17 -34h41c44 0 70 -56 70 -153c0 -99 -34 -156 -89 -156c-59 0 -89 50 -89 142c0 55 9 91 30 107c-10 19 -15 45 -15 71c0 36 8 72 22 91
c-18 27 -28 77 -28 154c0 128 26 201 76 201c30 0 50 -29 59 -83zM95 397c-23 0 -36 -30 -36 -89c0 -58 13 -89 36 -89s35 31 35 89c0 59 -12 89 -35 89zM64 577h-39l56 173h29l55 -173h-38l-32 106zM147 -101c0 31 -10 47 -29 47h-41h-2c-18 -1 -27 -17 -27 -47
c0 -34 14 -52 51 -52c35 0 48 18 48 52z" />
    <glyph glyph-name="gbreve" unicode="&#x11f;" horiz-adv-x="205" 
d="M154 426c7 48 18 74 37 74h4v-112h-4c-14 0 -21 -28 -21 -80c0 -119 -29 -187 -75 -187h-18c-11 0 -17 -14 -17 -35c0 -20 6 -34 17 -34h41c44 0 70 -56 70 -153c0 -99 -34 -156 -89 -156c-59 0 -89 50 -89 142c0 55 9 91 30 107c-10 19 -15 45 -15 71c0 36 8 72 22 91
c-18 27 -28 77 -28 154c0 128 26 201 76 201c30 0 50 -29 59 -83zM74 739c0 -43 10 -67 29 -67c20 0 29 24 29 67v11h41v-11c0 -109 -27 -172 -70 -172s-70 63 -70 172v11h41v-11zM95 397c-23 0 -36 -30 -36 -89c0 -58 13 -89 36 -89s35 31 35 89c0 59 -12 89 -35 89z
M147 -101c0 31 -10 47 -29 47h-43c-18 -1 -27 -17 -27 -47c0 -34 14 -52 51 -52c35 0 48 18 48 52z" />
    <glyph glyph-name="gdotaccent" unicode="&#x121;" horiz-adv-x="205" 
d="M154 426c7 48 18 74 37 74h4v-112h-4c-14 0 -21 -28 -21 -80c0 -119 -29 -187 -75 -187h-18c-11 0 -17 -14 -17 -35c0 -20 6 -34 17 -34h41c44 0 70 -56 70 -153c0 -99 -34 -156 -89 -156c-59 0 -89 50 -89 142c0 55 9 91 30 107c-10 19 -15 45 -15 71c0 36 8 72 22 91
c-18 27 -28 77 -28 154c0 128 26 201 76 201c30 0 50 -29 59 -83zM95 397c-23 0 -36 -30 -36 -89c0 -58 13 -89 36 -89s35 31 35 89c0 59 -12 89 -35 89zM147 -101c0 31 -10 47 -29 47h-43c-18 -1 -27 -17 -27 -47c0 -34 14 -52 51 -52c35 0 48 18 48 52zM124 663
c0 -46 -11 -73 -27 -73c-17 0 -27 27 -27 73s10 73 27 73s27 -27 27 -73z" />
    <glyph glyph-name="uni0123" unicode="&#x123;" horiz-adv-x="205" 
d="M154 426c7 48 18 74 37 74h4v-112h-4c-14 0 -21 -28 -21 -80c0 -119 -29 -187 -75 -187h-18c-11 0 -17 -14 -17 -35c0 -20 6 -34 17 -34h41c44 0 70 -56 70 -153c0 -99 -34 -156 -89 -156c-59 0 -89 50 -89 142c0 55 9 91 30 107c-10 19 -15 45 -15 71c0 36 8 72 22 91
c-18 27 -28 77 -28 154c0 128 26 201 76 201c30 0 50 -29 59 -83zM95 397c-23 0 -36 -30 -36 -89c0 -58 13 -89 36 -89s35 31 35 89c0 59 -12 89 -35 89zM147 -101c0 31 -10 47 -29 47h-43c-18 -1 -27 -17 -27 -47c0 -34 14 -52 51 -52c35 0 48 18 48 52zM69 658
c0 19 2 46 9 72l12 50h28v-122c0 -43 -9 -69 -25 -69c-15 0 -24 26 -24 69z" />
    <glyph glyph-name="h" unicode="h" 
d="M68 449c10 39 24 60 45 60c43 0 65 -71 65 -205v-304h-40v304c0 61 -11 93 -32 93c-25 0 -38 -44 -38 -122v-275h-40v750h40v-301z" />
    <glyph glyph-name="hcircumflex" unicode="&#x125;" 
d="M68 449c10 39 24 60 45 60c43 0 65 -71 65 -205v-304h-40v304c0 61 -11 93 -32 93c-25 0 -38 -44 -38 -122v-275h-40v750h40v-301zM72 807h-39l56 173h29l55 -173h-38l-32 106z" />
    <glyph glyph-name="i" unicode="i" horiz-adv-x="97" 
d="M68 500v-500h-40v500h40zM49 590c-17 0 -27 27 -27 73s10 73 27 73s27 -27 27 -73s-11 -73 -27 -73z" />
    <glyph glyph-name="igrave" unicode="&#xec;" horiz-adv-x="97" 
d="M68 500v-500h-40v500h40zM62 577h-32l-36 173h44z" />
    <glyph glyph-name="iacute" unicode="&#xed;" horiz-adv-x="97" 
d="M68 500v-500h-40v500h40zM34 577l23 173h45l-36 -173h-32z" />
    <glyph glyph-name="icircumflex" unicode="&#xee;" horiz-adv-x="97" 
d="M28 500h40v-500h-40v500zM17 577h-39l56 173h29l55 -173h-38l-32 106z" />
    <glyph glyph-name="idieresis" unicode="&#xef;" horiz-adv-x="97" 
d="M68 500v-500h-40v500h40zM17 590c-17 0 -27 27 -27 73s10 73 27 73s27 -27 27 -73s-11 -73 -27 -73zM81 590c-17 0 -27 27 -27 73s10 73 27 73s27 -27 27 -73s-11 -73 -27 -73z" />
    <glyph glyph-name="itilde" unicode="&#x129;" horiz-adv-x="97" 
d="M68 500v-500h-40v500h40zM20 567c-28 0 -47 47 -47 171v12h41v-32c0 -30 3 -46 9 -46c13 0 25 88 54 88c28 0 47 -47 47 -171v-12h-40v32c0 30 -4 46 -10 46c-13 0 -25 -88 -54 -88z" />
    <glyph glyph-name="imacron" unicode="&#x12b;" horiz-adv-x="97" 
d="M68 500v-500h-40v500h40zM118 607h-140v112h140v-112z" />
    <glyph glyph-name="ibreve" unicode="&#x12d;" horiz-adv-x="97" 
d="M68 500v-500h-40v500h40zM48 672c20 0 29 24 29 67v11h41v-11c0 -109 -27 -172 -70 -172s-70 63 -70 172v11h41v-11c0 -43 10 -67 29 -67z" />
    <glyph glyph-name="iogonek" unicode="&#x12f;" horiz-adv-x="97" 
d="M22 -79c0 33 4 59 11 79h-5v500h40v-500c-9 -8 -13 -24 -13 -49c0 -30 6 -39 15 -39c3 0 7 1 10 3v-109c-5 -4 -10 -6 -18 -6c-24 0 -40 37 -40 121zM76 663c0 -46 -11 -73 -27 -73c-17 0 -27 27 -27 73s10 73 27 73s27 -27 27 -73z" />
    <glyph glyph-name="j" unicode="j" horiz-adv-x="97" 
d="M-45 -79h41c0 -50 5 -66 16 -66s16 16 16 66v579h41v-579c0 -121 -21 -178 -57 -178s-57 58 -57 178zM49 590c-17 0 -27 27 -27 73s10 73 27 73s27 -27 27 -73s-11 -73 -27 -73z" />
    <glyph glyph-name="jcircumflex" unicode="&#x135;" horiz-adv-x="97" 
d="M12 -257c-36 0 -57 58 -57 178h41c0 -50 5 -66 16 -66s16 16 16 66v579h41v-579c0 -121 -21 -178 -57 -178zM19 577h-39l56 173h29l55 -173h-38l-32 106z" />
    <glyph glyph-name="k" unicode="k" horiz-adv-x="189" 
d="M68 0h-40v750h40v-439h28l39 189h41l-50 -247l55 -253h-42l-43 199h-28v-199z" />
    <glyph glyph-name="uni0137" unicode="&#x137;" horiz-adv-x="189" 
d="M68 0h-40v750h40v-439h28l39 189h41l-50 -247l55 -253h-42l-43 199h-28v-199zM129 -135c0 -19 -2 -46 -8 -72l-13 -50h-27v122c0 43 9 69 24 69s24 -26 24 -69z" />
    <glyph glyph-name="l" unicode="l" horiz-adv-x="96" 
d="M68 750v-750h-40v750h40z" />
    <glyph glyph-name="lacute" unicode="&#x13a;" horiz-adv-x="97" 
d="M68 750v-750h-40v750h40zM33 780l23 173h45l-36 -173h-32z" />
    <glyph glyph-name="uni013C" unicode="&#x13c;" horiz-adv-x="97" 
d="M68 750v-750h-40v750h40zM55 -257h-27v122c0 43 9 69 24 69s24 -26 24 -69c0 -19 -2 -46 -8 -72z" />
    <glyph glyph-name="lcaron" unicode="&#x13e;" horiz-adv-x="148" 
d="M68 750v-750h-40v750h40zM123 576h-27v122c0 43 9 69 24 69s24 -26 24 -69c0 -19 -2 -46 -8 -72z" />
    <glyph glyph-name="m" unicode="m" horiz-adv-x="304" 
d="M68 450c9 38 23 59 43 59c22 0 39 -21 49 -62c11 40 29 62 55 62c41 0 61 -71 61 -205v-304h-40v304c0 61 -9 93 -29 93c-23 0 -35 -44 -35 -122v-275h-40v304c0 61 -9 93 -29 93c-23 0 -35 -44 -35 -122v-275h-40v500h40v-50z" />
    <glyph glyph-name="n" unicode="n" 
d="M68 449c10 39 24 60 45 60c43 0 65 -71 65 -205v-304h-40v304c0 61 -11 93 -32 93c-25 0 -38 -44 -38 -122v-275h-40v500h40v-51z" />
    <glyph glyph-name="ntilde" unicode="&#xf1;" 
d="M68 450c10 39 24 60 45 60c43 0 65 -71 65 -205v-304h-40v304c0 61 -11 93 -32 93c-25 0 -38 -44 -38 -122v-275h-40v500h40v-51zM129 656c-13 0 -25 -88 -54 -88c-28 0 -47 47 -47 171v12h41v-32c0 -30 3 -46 9 -46c13 0 25 88 54 88c28 0 47 -47 47 -171v-12h-40v32
c0 30 -4 46 -10 46z" />
    <glyph glyph-name="nacute" unicode="&#x144;" 
d="M68 449c10 39 24 60 45 60c43 0 65 -71 65 -205v-304h-40v304c0 61 -11 93 -32 93c-25 0 -38 -44 -38 -122v-275h-40v500h40v-51zM131 577h-32l23 173h45z" />
    <glyph glyph-name="uni0146" unicode="&#x146;" 
d="M68 449c10 39 24 60 45 60c43 0 65 -71 65 -205v-304h-40v304c0 61 -11 93 -32 93c-25 0 -38 -44 -38 -122v-275h-40v500h40v-51zM128 -135c0 -19 -2 -46 -8 -72l-13 -50h-27v122c0 43 9 69 24 69s24 -26 24 -69z" />
    <glyph glyph-name="ncaron" unicode="&#x148;" 
d="M68 449c10 39 24 60 45 60c43 0 65 -71 65 -205v-304h-40v304c0 61 -11 93 -32 93c-25 0 -38 -44 -38 -122v-275h-40v500h40v-51zM134 750h39l-56 -173h-29l-55 173h38l32 -106z" />
    <glyph glyph-name="o" unicode="o" horiz-adv-x="207" 
d="M104 509c54 0 83 -100 83 -259c0 -160 -29 -259 -83 -259c-55 0 -84 99 -84 259c0 159 29 259 84 259zM104 104c29 0 42 44 42 146c0 101 -13 146 -42 146c-30 0 -43 -45 -43 -146c0 -102 13 -146 43 -146z" />
    <glyph glyph-name="ograve" unicode="&#xf2;" horiz-adv-x="207" 
d="M104 509c54 0 83 -100 83 -259c0 -160 -29 -259 -83 -259c-55 0 -84 99 -84 259c0 159 29 259 84 259zM104 104c29 0 42 44 42 146c0 101 -13 146 -42 146c-30 0 -43 -45 -43 -146c0 -102 13 -146 43 -146zM115 577h-32l-36 173h44z" />
    <glyph glyph-name="oacute" unicode="&#xf3;" horiz-adv-x="207" 
d="M104 509c54 0 83 -100 83 -259c0 -160 -29 -259 -83 -259c-55 0 -84 99 -84 259c0 159 29 259 84 259zM104 104c29 0 42 44 42 146c0 101 -13 146 -42 146c-30 0 -43 -45 -43 -146c0 -102 13 -146 43 -146zM94 577l23 173h45l-36 -173h-32z" />
    <glyph glyph-name="ocircumflex" unicode="&#xf4;" horiz-adv-x="207" 
d="M20 250c0 159 29 259 84 259c54 0 83 -100 83 -259c0 -160 -29 -259 -83 -259c-55 0 -84 99 -84 259zM61 250c0 -102 13 -146 43 -146c29 0 42 44 42 146c0 101 -13 146 -42 146c-30 0 -43 -45 -43 -146zM74 577h-39l56 173h29l55 -173h-38l-32 106z" />
    <glyph glyph-name="otilde" unicode="&#xf5;" horiz-adv-x="207" 
d="M104 509c54 0 83 -100 83 -259c0 -160 -29 -259 -83 -259c-55 0 -84 99 -84 259c0 159 29 259 84 259zM104 104c29 0 42 44 42 146c0 101 -13 146 -42 146c-30 0 -43 -45 -43 -146c0 -102 13 -146 43 -146zM77 567c-28 0 -47 47 -47 171v12h41v-32c0 -30 3 -46 9 -46
c13 0 25 88 54 88c28 0 47 -47 47 -171v-12h-40v32c0 30 -4 46 -10 46c-13 0 -25 -88 -54 -88z" />
    <glyph glyph-name="odieresis" unicode="&#xf6;" horiz-adv-x="207" 
d="M104 509c54 0 83 -100 83 -259c0 -160 -29 -259 -83 -259c-55 0 -84 99 -84 259c0 159 29 259 84 259zM104 104c29 0 42 44 42 146c0 101 -13 146 -42 146c-30 0 -43 -45 -43 -146c0 -102 13 -146 43 -146zM66 590c-16 0 -26 27 -26 73s10 73 26 73s26 -27 26 -73
s-10 -73 -26 -73zM145 590c-16 0 -25 27 -25 73s9 73 25 73s26 -27 26 -73s-10 -73 -26 -73z" />
    <glyph glyph-name="omacron" unicode="&#x14d;" horiz-adv-x="207" 
d="M104 509c54 0 83 -100 83 -259c0 -160 -29 -259 -83 -259c-55 0 -84 99 -84 259c0 159 29 259 84 259zM104 104c29 0 42 44 42 146c0 101 -13 146 -42 146c-30 0 -43 -45 -43 -146c0 -102 13 -146 43 -146zM175 607h-140v112h140v-112z" />
    <glyph glyph-name="obreve" unicode="&#x14f;" horiz-adv-x="207" 
d="M104 509c54 0 83 -100 83 -259c0 -160 -29 -259 -83 -259c-55 0 -84 99 -84 259c0 159 29 259 84 259zM104 104c29 0 42 44 42 146c0 101 -13 146 -42 146c-30 0 -43 -45 -43 -146c0 -102 13 -146 43 -146zM105 672c20 0 29 24 29 67v11h41v-11c0 -109 -27 -172 -70 -172
s-70 63 -70 172v11h41v-11c0 -43 10 -67 29 -67z" />
    <glyph glyph-name="ohungarumlaut" unicode="&#x151;" horiz-adv-x="207" 
d="M104 509c54 0 83 -100 83 -259c0 -160 -29 -259 -83 -259c-55 0 -84 99 -84 259c0 159 29 259 84 259zM104 104c29 0 42 44 42 146c0 101 -13 146 -42 146c-30 0 -43 -45 -43 -146c0 -102 13 -146 43 -146zM78 577h-33l17 173h44zM150 577h-33l24 173h44z" />
    <glyph glyph-name="p" unicode="p" horiz-adv-x="214" 
d="M69 447c10 40 25 62 48 62c50 0 77 -99 77 -259c0 -159 -27 -259 -77 -259c-23 0 -38 22 -48 62v-303h-41v750h41v-53zM110 396c-27 0 -41 -44 -41 -121v-50c0 -77 14 -121 41 -121c30 0 43 43 43 146c0 104 -13 146 -43 146z" />
    <glyph glyph-name="q" unicode="q" horiz-adv-x="212" 
d="M20 250c0 160 27 259 76 259c23 0 38 -22 48 -62v53h40v-750h-40v303c-10 -40 -25 -62 -48 -62c-49 0 -76 100 -76 259zM103 104c28 0 41 44 41 121v50c0 77 -13 121 -41 121c-29 0 -43 -42 -43 -146c0 -103 14 -146 43 -146z" />
    <glyph glyph-name="r" unicode="r" horiz-adv-x="133" 
d="M68 439c9 46 23 70 43 70h13v-113h-13c-29 0 -43 -62 -43 -168v-228h-40v500h40v-61z" />
    <glyph glyph-name="racute" unicode="&#x155;" horiz-adv-x="133" 
d="M68 439c9 46 23 70 43 70h13v-113h-13c-29 0 -43 -62 -43 -168v-228h-40v500h40v-61zM74 577h-32l23 173h45z" />
    <glyph glyph-name="uni0157" unicode="&#x157;" horiz-adv-x="133" 
d="M68 439c9 46 23 70 43 70h13v-113h-13c-29 0 -43 -62 -43 -168v-228h-40v500h40v-61zM76 -135c0 -19 -2 -46 -8 -72l-13 -50h-27v122c0 43 9 69 24 69s24 -26 24 -69z" />
    <glyph glyph-name="rcaron" unicode="&#x159;" horiz-adv-x="133" 
d="M68 439c9 46 23 70 43 70h13v-113h-13c-29 0 -43 -62 -43 -168v-228h-40v500h40v-61zM107 750h39l-56 -173h-29l-55 173h38l32 -106z" />
    <glyph glyph-name="s" unicode="s" horiz-adv-x="186" 
d="M126 149c0 98 -103 74 -103 202c0 83 22 158 71 158c44 0 71 -59 71 -158v-17h-41v17c0 31 -10 45 -30 45c-25 0 -31 -21 -31 -45c0 -98 103 -74 103 -202c0 -81 -22 -158 -73 -158c-45 0 -73 65 -73 158v24h41v-24c0 -29 11 -45 32 -45c26 0 33 21 33 45z" />
    <glyph glyph-name="sacute" unicode="&#x15b;" horiz-adv-x="186" 
d="M126 149c0 98 -103 74 -103 202c0 83 22 158 71 158c44 0 71 -59 71 -158v-17h-41v17c0 31 -10 45 -30 45c-25 0 -31 -21 -31 -45c0 -98 103 -74 103 -202c0 -81 -22 -158 -73 -158c-45 0 -73 65 -73 158v24h41v-24c0 -29 11 -45 32 -45c26 0 33 21 33 45zM79 577l23 173
h45l-36 -173h-32z" />
    <glyph glyph-name="scircumflex" unicode="&#x15d;" horiz-adv-x="186" 
d="M93 104c26 0 33 21 33 45c0 98 -103 74 -103 202c0 83 22 158 71 158c44 0 71 -59 71 -158v-17h-41v17c0 31 -10 45 -30 45c-25 0 -31 -21 -31 -45c0 -98 103 -74 103 -202c0 -81 -22 -158 -73 -158c-45 0 -73 65 -73 158v24h41v-24c0 -29 11 -45 32 -45zM62 577h-39
l56 173h29l55 -173h-38l-32 106z" />
    <glyph glyph-name="scedilla" unicode="&#x15f;" horiz-adv-x="186" 
d="M93 104c26 0 33 21 33 45c0 98 -103 74 -103 202c0 83 22 158 71 158c44 0 71 -59 71 -158v-17h-41v17c0 31 -10 45 -30 45c-25 0 -31 -21 -31 -45c0 -98 103 -74 103 -202c0 -73 -18 -143 -59 -156v-13c18 -17 23 -54 23 -97c0 -73 -18 -105 -43 -105c-6 0 -12 1 -19 6
v110c4 -3 7 -4 13 -4c9 0 14 7 14 23c0 13 -2 22 -10 22h-9v59c-35 15 -56 74 -56 155v24h41v-24c0 -29 11 -45 32 -45z" />
    <glyph glyph-name="scaron" unicode="&#x161;" horiz-adv-x="186" 
d="M93 104c26 0 33 21 33 45c0 98 -103 74 -103 202c0 83 22 158 71 158c44 0 71 -59 71 -158v-17h-41v17c0 31 -10 45 -30 45c-25 0 -31 -21 -31 -45c0 -98 103 -74 103 -202c0 -81 -22 -158 -73 -158c-45 0 -73 65 -73 158v24h41v-24c0 -29 11 -45 32 -45zM124 750h39
l-56 -173h-29l-55 173h38l32 -106z" />
    <glyph glyph-name="uni0219" unicode="&#x219;" horiz-adv-x="186" 
d="M126 149c0 98 -103 74 -103 202c0 83 22 158 71 158c44 0 71 -59 71 -158v-17h-41v17c0 31 -10 45 -30 45c-25 0 -31 -21 -31 -45c0 -98 103 -74 103 -202c0 -81 -22 -158 -73 -158c-45 0 -73 65 -73 158v24h41v-24c0 -29 11 -45 32 -45c26 0 33 21 33 45zM101 -250h-27
v122c0 43 9 69 24 69s24 -26 24 -69c0 -19 -2 -46 -8 -72z" />
    <glyph glyph-name="t" unicode="t" horiz-adv-x="166" 
d="M97 104c15 0 23 15 23 65h40c0 -111 -22 -178 -63 -178c-40 0 -63 57 -63 178v219h-20v112h20l10 107h31v-107h53v-112h-53v-219c0 -50 9 -65 22 -65z" />
    <glyph glyph-name="uni0163" unicode="&#x163;" horiz-adv-x="166" 
d="M97 104c15 0 23 15 23 65h40c0 -111 -22 -178 -63 -178c-40 0 -63 57 -63 178v219h-20v112h20l10 107h31v-107h53v-112h-53v-219c0 -50 9 -65 22 -65zM116 -135c0 -19 -2 -46 -8 -72l-13 -50h-27v122c0 43 9 69 24 69s24 -26 24 -69z" />
    <glyph glyph-name="tcaron" unicode="&#x165;" horiz-adv-x="167" 
d="M97 104c15 0 23 15 23 65h40c0 -111 -22 -178 -63 -178c-40 0 -63 57 -63 178v219h-20v112h20l10 107h31v-107h53v-112h-53v-219c0 -50 9 -65 22 -65zM163 699c0 -19 -2 -46 -8 -72l-13 -50h-27v122c0 43 9 69 24 69s24 -26 24 -69z" />
    <glyph glyph-name="u" unicode="u" 
d="M138 52c-10 -40 -25 -61 -46 -61c-42 0 -64 71 -64 205v304h40v-304c0 -60 11 -92 32 -92c25 0 38 44 38 121v275h40v-500h-40v52z" />
    <glyph glyph-name="ugrave" unicode="&#xf9;" 
d="M138 52c-10 -40 -25 -61 -46 -61c-42 0 -64 71 -64 205v304h40v-304c0 -60 11 -92 32 -92c25 0 38 44 38 121v275h40v-500h-40v52zM93 750l24 -173h-32l-36 173h44z" />
    <glyph glyph-name="uacute" unicode="&#xfa;" 
d="M138 52c-10 -40 -25 -61 -46 -61c-42 0 -64 71 -64 205v304h40v-304c0 -60 11 -92 32 -92c25 0 38 44 38 121v275h40v-500h-40v52zM122 577h-32l23 173h45z" />
    <glyph glyph-name="ucircumflex" unicode="&#xfb;" 
d="M138 52c-10 -40 -25 -61 -46 -61c-42 0 -64 71 -64 205v304h40v-304c0 -60 11 -92 32 -92c25 0 38 44 38 121v275h40v-500h-40v52zM71 577h-39l56 173h29l55 -173h-38l-32 106z" />
    <glyph glyph-name="udieresis" unicode="&#xfc;" 
d="M138 52c-10 -40 -25 -61 -46 -61c-42 0 -64 71 -64 205v304h40v-304c0 -60 11 -92 32 -92c25 0 38 44 38 121v275h40v-500h-40v52zM89 663c0 -46 -10 -73 -26 -73s-26 27 -26 73s10 73 26 73s26 -27 26 -73zM168 663c0 -46 -10 -73 -26 -73s-25 27 -25 73s9 73 25 73
s26 -27 26 -73z" />
    <glyph glyph-name="utilde" unicode="&#x169;" 
d="M138 52c-10 -40 -25 -61 -46 -61c-42 0 -64 71 -64 205v304h40v-304c0 -60 11 -92 32 -92c25 0 38 44 38 121v275h40v-500h-40v52zM128 655c-13 0 -25 -88 -54 -88c-28 0 -47 47 -47 171v12h41v-32c0 -30 3 -46 9 -46c13 0 25 88 54 88c28 0 47 -47 47 -171v-12h-40v32
c0 30 -4 46 -10 46z" />
    <glyph glyph-name="umacron" unicode="&#x16b;" 
d="M138 52c-10 -40 -25 -61 -46 -61c-42 0 -64 71 -64 205v304h40v-304c0 -60 11 -92 32 -92c25 0 38 44 38 121v275h40v-500h-40v52zM172 719v-112h-140v112h140z" />
    <glyph glyph-name="ubreve" unicode="&#x16d;" 
d="M138 52c-10 -40 -25 -61 -46 -61c-42 0 -64 71 -64 205v304h40v-304c0 -60 11 -92 32 -92c25 0 38 44 38 121v275h40v-500h-40v52zM73 739c0 -43 10 -67 29 -67c20 0 29 24 29 67v11h41v-11c0 -109 -27 -172 -70 -172s-70 63 -70 172v11h41v-11z" />
    <glyph glyph-name="uring" unicode="&#x16f;" 
d="M138 52c-10 -40 -25 -61 -46 -61c-42 0 -64 71 -64 205v304h40v-304c0 -60 11 -92 32 -92c25 0 38 44 38 121v275h40v-500h-40v52zM157 715c0 -99 -20 -159 -55 -159s-55 60 -55 159c0 100 20 159 55 159s55 -59 55 -159zM80 715c0 -38 8 -61 22 -61s22 23 22 61
s-8 61 -22 61s-22 -23 -22 -61z" />
    <glyph glyph-name="uhungarumlaut" unicode="&#x171;" 
d="M138 52c-10 -40 -25 -61 -46 -61c-42 0 -64 71 -64 205v304h40v-304c0 -60 11 -92 32 -92c25 0 38 44 38 121v275h40v-500h-40v52zM145 750h44l-35 -173h-33zM110 750l-28 -173h-33l17 173h44z" />
    <glyph glyph-name="uogonek" unicode="&#x173;" 
d="M138 52c-10 -40 -25 -61 -46 -61c-42 0 -64 71 -64 205v304h40v-304c0 -60 11 -92 32 -92c25 0 38 44 38 121v275h40v-500c-9 -8 -13 -24 -13 -49c0 -30 6 -39 15 -39c3 0 7 1 10 3v-109c-5 -4 -10 -6 -18 -6c-24 0 -40 37 -40 121c0 33 4 59 11 79h-5v52z" />
    <glyph glyph-name="v" unicode="v" horiz-adv-x="181" 
d="M114 0h-47l-60 500h41l30 -250l12 -117h2l13 117l30 250h39z" />
    <glyph glyph-name="w" unicode="w" horiz-adv-x="281" 
d="M269 500l-48 -500h-46l-27 300l-6 84h-3l-5 -84l-27 -300h-46l-49 500h39l26 -300l5 -68h3l33 368h46l27 -300l5 -68h3l31 368h39z" />
    <glyph glyph-name="wcircumflex" unicode="&#x175;" horiz-adv-x="281" 
d="M230 500h39l-48 -500h-46l-27 300l-6 84h-3l-5 -84l-27 -300h-46l-49 500h39l26 -300l5 -68h3l33 368h46l27 -300l5 -68h3zM104 577h-39l56 173h29l55 -173h-38l-32 106z" />
    <glyph glyph-name="wgrave" unicode="&#x1e81;" horiz-adv-x="281" 
d="M269 500l-48 -500h-46l-27 300l-6 84h-3l-5 -84l-27 -300h-46l-49 500h39l26 -300l5 -68h3l33 368h46l27 -300l5 -68h3l31 368h39zM149 577h-32l-36 173h44z" />
    <glyph glyph-name="wacute" unicode="&#x1e83;" horiz-adv-x="281" 
d="M269 500l-48 -500h-46l-27 300l-6 84h-3l-5 -84l-27 -300h-46l-49 500h39l26 -300l5 -68h3l33 368h46l27 -300l5 -68h3l31 368h39zM121 577l23 173h45l-36 -173h-32z" />
    <glyph glyph-name="wdieresis" unicode="&#x1e85;" horiz-adv-x="281" 
d="M269 500l-48 -500h-46l-27 300l-6 84h-3l-5 -84l-27 -300h-46l-49 500h39l26 -300l5 -68h3l33 368h46l27 -300l5 -68h3l31 368h39zM96 590c-16 0 -26 27 -26 73s10 73 26 73s26 -27 26 -73s-10 -73 -26 -73zM175 590c-16 0 -25 27 -25 73s9 73 25 73s26 -27 26 -73
s-10 -73 -26 -73z" />
    <glyph glyph-name="x" unicode="x" horiz-adv-x="181" 
d="M169 500l-54 -239l58 -261h-43l-24 119l-14 76h-2l-14 -76l-26 -119h-42l58 256l-54 244h43l21 -98l14 -76h2l14 76l21 98h42z" />
    <glyph glyph-name="y" unicode="y" horiz-adv-x="185" 
d="M176 500l-70 -553c-22 -170 -42 -204 -70 -204h-9v112h9c10 0 22 15 31 92l6 45l-65 508h41l34 -265l9 -92h2l9 92l33 265h40z" />
    <glyph glyph-name="yacute" unicode="&#xfd;" horiz-adv-x="185" 
d="M176 500l-70 -553c-22 -170 -42 -204 -70 -204h-9v112h9c10 0 22 15 31 92l6 45l-65 508h41l34 -265l9 -92h2l9 92l33 265h40zM75 577l23 173h45l-36 -173h-32z" />
    <glyph glyph-name="ydieresis" unicode="&#xff;" horiz-adv-x="185" 
d="M176 500l-70 -553c-22 -170 -42 -204 -70 -204h-9v112h9c10 0 22 15 31 92l6 45l-65 508h41l34 -265l9 -92h2l9 92l33 265h40zM50 590c-16 0 -26 27 -26 73s10 73 26 73s26 -27 26 -73s-10 -73 -26 -73zM129 590c-16 0 -25 27 -25 73s9 73 25 73s26 -27 26 -73
s-10 -73 -26 -73z" />
    <glyph glyph-name="ycircumflex" unicode="&#x177;" horiz-adv-x="185" 
d="M36 -145c10 0 22 15 31 92l6 45l-65 508h41l34 -265l9 -92h2l9 92l33 265h40l-70 -553c-22 -170 -42 -204 -70 -204h-9v112h9zM58 577h-39l56 173h29l55 -173h-38l-32 106z" />
    <glyph glyph-name="ygrave" unicode="&#x1ef3;" horiz-adv-x="185" 
d="M176 500l-70 -553c-22 -170 -42 -204 -70 -204h-9v112h9c10 0 22 15 31 92l6 45l-65 508h41l34 -265l9 -92h2l9 92l33 265h40zM108 577h-32l-36 173h44z" />
    <glyph glyph-name="z" unicode="z" horiz-adv-x="159" 
d="M141 500v-106l-84 -282h87v-112h-129v106l84 282h-79v112h121z" />
    <glyph glyph-name="zacute" unicode="&#x17a;" horiz-adv-x="159" 
d="M141 500v-106l-84 -282h87v-112h-129v106l84 282h-79v112h121zM97 577h-32l23 173h45z" />
    <glyph glyph-name="zdotaccent" unicode="&#x17c;" horiz-adv-x="159" 
d="M141 500v-106l-84 -282h87v-112h-129v106l84 282h-79v112h121zM110 663c0 -46 -11 -73 -27 -73c-17 0 -27 27 -27 73s10 73 27 73s27 -27 27 -73z" />
    <glyph glyph-name="zcaron" unicode="&#x17e;" horiz-adv-x="159" 
d="M141 500v-106l-84 -282h87v-112h-129v106l84 282h-79v112h121zM110 750h39l-56 -173h-29l-55 173h38l32 -106z" />
    <glyph glyph-name="ordfeminine" unicode="&#xaa;" horiz-adv-x="146" 
d="M71 712c34 0 55 -50 55 -132v-231h-36v39c-8 -32 -20 -51 -36 -51c-26 0 -42 42 -42 112c0 69 20 110 51 110h27v21c0 22 -7 33 -19 33c-13 0 -20 -11 -20 -33v-8h-35v8c0 82 21 132 55 132zM48 452c0 -19 5 -30 14 -30c17 0 28 18 28 60h-28c-9 0 -14 -10 -14 -30z" />
    <glyph glyph-name="ordmasculine" unicode="&#xba;" horiz-adv-x="152" 
d="M76 437c19 0 28 27 28 87c0 61 -9 88 -28 88s-28 -27 -28 -88c0 -60 9 -87 28 -87zM76 712c42 0 64 -72 64 -188c0 -115 -22 -187 -64 -187c-41 0 -64 72 -64 187c0 116 23 188 64 188z" />
    <glyph glyph-name="germandbls" unicode="&#xdf;" horiz-adv-x="224" 
d="M28 555c0 115 27 195 71 195h101v-112l-43 -148c30 -36 47 -122 47 -240c0 -160 -30 -259 -84 -259h-21v113h21c29 0 43 44 43 146c0 101 -14 146 -43 146h-21v113h21l38 129h-59c-20 0 -30 -34 -30 -83v-555h-41v555z" />
    <glyph glyph-name="ae" unicode="&#xe6;" horiz-adv-x="307" 
d="M285 158c0 -98 -30 -167 -76 -167c-30 0 -50 32 -64 89c-14 -55 -38 -89 -70 -89c-35 0 -57 58 -57 155c0 95 22 151 57 151h50v55c0 30 -11 45 -31 45s-30 -15 -30 -45v-12h-41v12c0 98 27 157 71 157c25 0 45 -21 58 -60c14 38 33 60 57 60c49 0 78 -81 78 -221v-85
h-120c4 -70 17 -99 42 -99c23 0 35 21 35 54v6h41v-6zM209 396c-24 0 -38 -29 -42 -94h79v12c0 54 -17 82 -37 82zM58 150c0 -31 8 -47 22 -47c27 0 45 28 45 94h-45c-14 0 -22 -15 -22 -47z" />
    <glyph glyph-name="aeacute" unicode="&#x1fd;" horiz-adv-x="307" 
d="M285 158c0 -98 -30 -167 -76 -167c-30 0 -50 32 -64 89c-14 -55 -38 -89 -70 -89c-35 0 -57 58 -57 155c0 95 22 151 57 151h50v55c0 30 -11 45 -31 45s-30 -15 -30 -45v-12h-41v12c0 98 27 157 71 157c25 0 45 -21 58 -60c14 38 33 60 57 60c49 0 78 -81 78 -221v-85
h-120c4 -70 17 -99 42 -99c23 0 35 21 35 54v6h41v-6zM209 396c-24 0 -38 -29 -42 -94h79v12c0 54 -17 82 -37 82zM175 577h-32l23 173h45zM58 150c0 -31 8 -47 22 -47c27 0 45 28 45 94h-45c-14 0 -22 -15 -22 -47z" />
    <glyph glyph-name="eth" unicode="&#xf0;" horiz-adv-x="207" 
d="M187 230c0 -148 -30 -239 -84 -239s-83 91 -83 239c0 135 29 219 83 219c3 0 5 0 8 -1l-23 92l-23 -46l-24 99l23 46l-27 111h48l12 -48l24 48l24 -99l-24 -48l38 -159c19 -78 28 -136 28 -214zM146 230c0 86 -14 125 -43 126c-29 0 -43 -39 -43 -126
c0 -88 14 -126 43 -126c30 0 43 38 43 126z" />
    <glyph glyph-name="oslash" unicode="&#xf8;" horiz-adv-x="215" 
d="M22 250c0 159 30 259 86 259c13 0 27 -7 37 -27l5 18h45l-20 -76c12 -44 18 -103 18 -174c0 -160 -30 -259 -85 -259c-15 0 -28 8 -39 26l-4 -17h-45l20 76c-11 43 -18 103 -18 174zM152 250c0 29 -1 54 -3 74l-56 -216c5 -2 9 -4 15 -4c30 0 44 44 44 146zM63 250
c0 -29 1 -53 3 -74l56 216c-4 3 -9 4 -14 4c-31 0 -45 -45 -45 -146z" />
    <glyph glyph-name="oslashacute" unicode="&#x1ff;" horiz-adv-x="215" 
d="M22 250c0 159 30 259 86 259c13 0 27 -7 37 -27l5 18h45l-20 -76c12 -44 18 -103 18 -174c0 -160 -30 -259 -85 -259c-15 0 -28 8 -39 26l-4 -17h-45l20 76c-11 43 -18 103 -18 174zM116 577h-32l23 173h45zM152 250c0 29 -1 54 -3 74l-56 -216c5 -2 9 -4 15 -4
c30 0 44 44 44 146zM63 250c0 -29 1 -53 3 -74l56 216c-4 3 -9 4 -14 4c-31 0 -45 -45 -45 -146z" />
    <glyph glyph-name="thorn" unicode="&#xfe;" horiz-adv-x="213" 
d="M68 445c10 42 26 64 48 64c50 0 77 -99 77 -259c0 -159 -27 -259 -77 -259c-22 0 -38 22 -48 64v-305h-40v1000h40v-305zM110 396c-28 0 -42 -44 -42 -121v-50c0 -77 14 -121 42 -121c29 0 42 43 42 146c0 104 -13 146 -42 146z" />
    <glyph glyph-name="dcroat" unicode="&#x111;" horiz-adv-x="212" 
d="M144 53c-10 -40 -25 -62 -48 -62c-49 0 -76 99 -76 259c0 159 27 259 76 259c23 0 38 -22 48 -62v117h-44v112h44v74h40v-74h20v-112h-20v-564h-40v53zM103 104c28 0 41 44 41 121v50c0 77 -13 121 -41 121c-29 0 -43 -43 -43 -146c0 -104 14 -146 43 -146z" />
    <glyph glyph-name="hbar" unicode="&#x127;" 
d="M68 449c10 39 24 60 45 60c43 0 65 -71 65 -205v-304h-40v304c0 61 -11 93 -32 93c-25 0 -38 -44 -38 -122v-275h-40v575h-21v101h21v74h40v-74h51v-101h-51v-126z" />
    <glyph glyph-name="dotlessi" unicode="&#x131;" horiz-adv-x="97" 
d="M68 500v-500h-40v500h40z" />
    <glyph glyph-name="ij" unicode="&#x133;" horiz-adv-x="171" 
d="M68 500v-500h-40v500h40zM28 -79h41c0 -50 5 -66 16 -66s16 16 16 66v579h41v-579c0 -121 -21 -178 -57 -178s-57 58 -57 178zM49 590c-17 0 -27 27 -27 73s10 73 27 73s27 -27 27 -73s-11 -73 -27 -73zM122 590c-17 0 -27 27 -27 73s10 73 27 73s27 -27 27 -73
s-11 -73 -27 -73z" />
    <glyph glyph-name="ldot" unicode="&#x140;" horiz-adv-x="140" 
d="M68 750v-750h-40v750h40zM92 250c0 46 8 73 25 73s26 -27 26 -73s-9 -73 -26 -73s-25 27 -25 73z" />
    <glyph glyph-name="lslash" unicode="&#x142;" horiz-adv-x="97" 
d="M69 474l30 55v-132l-30 -55v-342h-40v268l-30 -56v132l30 56v350h40v-276z" />
    <glyph glyph-name="napostrophe" unicode="&#x149;" 
d="M68 449c10 39 24 60 45 60c43 0 65 -71 65 -205v-304h-40v304c0 61 -11 93 -32 93c-25 0 -38 -44 -38 -122v-275h-40v500h40v-51zM77 691c0 -19 -2 -46 -9 -72l-12 -50h-28v122c0 43 9 69 25 69c15 0 24 -26 24 -69z" />
    <glyph glyph-name="eng" unicode="&#x14b;" horiz-adv-x="205" 
d="M114 509c43 0 65 -71 65 -205v-363c0 -135 -23 -198 -69 -198h-9v112h9c19 0 29 28 29 86v363c0 61 -11 93 -32 93c-25 0 -38 -44 -38 -122v-275h-41v500h41v-51c10 39 24 60 45 60z" />
    <glyph glyph-name="oe" unicode="&#x153;" horiz-adv-x="328" 
d="M306 158c0 -98 -30 -167 -76 -167c-27 0 -49 29 -63 79c-15 -51 -35 -79 -63 -79c-55 0 -84 99 -84 259c0 159 29 259 84 259c27 0 49 -28 63 -79c13 51 35 79 63 79c49 0 78 -81 78 -221v-85h-120c4 -70 18 -99 42 -99c23 0 35 21 35 54v6h41v-6zM61 250
c0 -102 13 -146 43 -146c29 0 42 44 42 146c0 101 -13 146 -42 146c-30 0 -43 -45 -43 -146zM230 396c-23 0 -37 -29 -41 -94h78v12c0 54 -16 82 -37 82z" />
    <glyph glyph-name="tbar" unicode="&#x167;" horiz-adv-x="166" 
d="M97 104c15 0 23 15 23 65h40c0 -111 -22 -178 -63 -178c-40 0 -63 57 -63 178v46h-20v105h20v68h-20v112h20l10 107h31v-107h53v-112h-53v-68h53v-105h-53v-46c0 -50 9 -65 22 -65z" />
    <glyph glyph-name="uni0237" unicode="&#x237;" horiz-adv-x="97" 
d="M-45 -79h41c0 -50 5 -66 16 -66s16 16 16 66v579h41v-579c0 -121 -21 -178 -57 -178s-57 58 -57 178z" />
    <glyph glyph-name="uni0430" unicode="&#x430;" horiz-adv-x="196" 
d="M97 509c44 0 71 -59 71 -157v-352h-41v61c-10 -44 -27 -70 -49 -70c-36 0 -58 58 -58 155c0 95 22 151 58 151h49v55c0 30 -11 45 -30 45c-20 0 -31 -15 -31 -45v-12h-41v12c0 98 27 157 72 157zM61 150c0 -31 8 -47 22 -47c27 0 44 28 44 94h-44c-14 0 -22 -15 -22 -47z
" />
    <glyph glyph-name="uni0431" unicode="&#x431;" horiz-adv-x="215" 
d="M110 -9c-54 0 -84 91 -84 239v241c0 193 28 244 73 244h28c14 0 23 5 23 23v11h39v-34c0 -90 -23 -112 -62 -112h-28c-21 0 -37 -13 -37 -132v-93c10 59 27 91 55 91c50 0 76 -92 76 -239c0 -148 -29 -239 -83 -239zM110 356c-29 0 -43 -46 -43 -126
c4 -91 14 -127 43 -127s43 36 43 127c0 89 -14 126 -43 126z" />
    <glyph glyph-name="uni0432" unicode="&#x432;" horiz-adv-x="187" 
d="M167 153c0 -95 -23 -153 -64 -153h-75v500h75c42 0 62 -55 62 -149c0 -45 -9 -79 -27 -98c19 -19 29 -54 29 -100zM126 153c0 31 -8 50 -23 50h-35v-100h35c15 0 23 18 23 50zM124 351c0 30 -6 46 -21 46h-35v-92h35c15 0 21 16 21 46z" />
    <glyph glyph-name="uni0433" unicode="&#x433;" horiz-adv-x="154" 
d="M142 500v-112h-74v-388h-40v500h114z" />
    <glyph glyph-name="uni0453" unicode="&#x453;" horiz-adv-x="154" 
d="M142 500v-112h-74v-388h-40v500h114zM71 577l23 173h45l-36 -173h-32z" />
    <glyph glyph-name="uni0434" unicode="&#x434;" horiz-adv-x="214" 
d="M32 112c6 36 11 95 13 276l2 112h133v-388h21v-261h-41v149h-108v-149h-41v261h21zM85 388c-2 -155 -7 -231 -12 -276h66v276h-54z" />
    <glyph glyph-name="uni0435" unicode="&#x435;" horiz-adv-x="202" 
d="M20 250c0 159 29 259 84 259c49 0 78 -81 78 -221v-73h-120c2 -79 16 -111 42 -111c23 0 35 21 35 54v4h41v-4c0 -98 -30 -167 -76 -167c-55 0 -84 99 -84 259zM104 396c-22 0 -35 -25 -41 -82h78c0 54 -17 82 -37 82z" />
    <glyph glyph-name="uni0451" unicode="&#x451;" horiz-adv-x="202" 
d="M20 250c0 159 29 259 84 259c49 0 78 -81 78 -221v-73h-120c2 -79 16 -111 42 -111c23 0 35 21 35 54v4h41v-4c0 -98 -30 -167 -76 -167c-55 0 -84 99 -84 259zM82 663c0 -46 -10 -73 -26 -73s-26 27 -26 73s10 73 26 73s26 -27 26 -73zM161 663c0 -46 -10 -73 -26 -73
s-25 27 -25 73s9 73 25 73s26 -27 26 -73zM104 396c-22 0 -35 -25 -41 -82h78c0 54 -17 82 -37 82z" />
    <glyph glyph-name="uni0436" unicode="&#x436;" horiz-adv-x="273" 
d="M116 198h-26l-36 -198h-42l47 261l-44 239h41l35 -190h25v190h40v-190h25l36 190h40l-44 -239l48 -261h-43l-36 198h-26v-198h-40v198z" />
    <glyph glyph-name="uni04C2" unicode="&#x4c2;" horiz-adv-x="273" 
d="M116 198h-26l-36 -198h-42l47 261l-44 239h41l35 -190h25v190h40v-190h25l36 190h40l-44 -239l48 -261h-43l-36 198h-26v-198h-40v198zM107 739c0 -43 10 -67 29 -67c20 0 29 24 29 67v11h41v-11c0 -109 -27 -172 -70 -172s-70 63 -70 172v11h41v-11z" />
    <glyph glyph-name="uni0437" unicode="&#x437;" horiz-adv-x="187" 
d="M167 155c0 -90 -23 -164 -75 -164c-51 0 -74 74 -74 164v30h40v-30c0 -29 7 -51 34 -51s34 22 34 51c0 25 -4 44 -21 44h-28v112h27c16 0 20 15 20 39c0 28 -6 46 -32 46c-25 0 -31 -18 -31 -46v-26h-41v26c0 87 22 159 72 159s72 -72 72 -159c0 -45 -8 -76 -26 -95
c20 -18 29 -51 29 -100z" />
    <glyph glyph-name="uni0438" unicode="&#x438;" horiz-adv-x="215" 
d="M69 500v-348l61 348h57v-500h-41v347h-1l-60 -347h-57v500h41z" />
    <glyph glyph-name="uni0439" unicode="&#x439;" horiz-adv-x="215" 
d="M69 500v-348l61 348h57v-500h-41v347h-1l-60 -347h-57v500h41zM107 672c20 0 29 24 29 67v11h41v-11c0 -109 -27 -172 -70 -172s-70 63 -70 172v11h41v-11c0 -43 10 -67 29 -67z" />
    <glyph glyph-name="uni04E3" unicode="&#x4e3;" horiz-adv-x="215" 
d="M69 500v-348l61 348h57v-500h-41v347h-1l-60 -347h-57v500h41zM177 607h-140v112h140v-112z" />
    <glyph glyph-name="uni043A" unicode="&#x43a;" horiz-adv-x="190" 
d="M69 0h-41v500h41v-189h28l39 189h41l-50 -247l55 -253h-42l-43 199h-28v-199z" />
    <glyph glyph-name="uni045C" unicode="&#x45c;" horiz-adv-x="190" 
d="M69 0h-41v500h41v-189h28l39 189h41l-50 -247l55 -253h-42l-43 199h-28v-199zM103 577h-32l23 173h45z" />
    <glyph glyph-name="uni043B" unicode="&#x43b;" horiz-adv-x="204" 
d="M48 500h128v-500h-41v388h-49l-1 -94c-3 -263 -21 -298 -59 -298h-12v116h12c10 0 16 7 19 183z" />
    <glyph glyph-name="uni043C" unicode="&#x43c;" horiz-adv-x="261" 
d="M233 500v-500h-40v322l6 76h-2l-48 -309h-38l-48 309h-2l6 -76v-322h-39v500h59l34 -223l9 -76h2l9 76l33 223h59z" />
    <glyph glyph-name="uni043D" unicode="&#x43d;" 
d="M178 0h-40v199h-70v-199h-40v500h40v-189h70v189h40v-500z" />
    <glyph glyph-name="uni043E" unicode="&#x43e;" horiz-adv-x="207" 
d="M104 509c54 0 83 -100 83 -259c0 -160 -29 -259 -83 -259c-55 0 -84 99 -84 259c0 159 29 259 84 259zM104 104c29 0 42 44 42 146c0 101 -13 146 -42 146c-30 0 -43 -45 -43 -146c0 -102 13 -146 43 -146z" />
    <glyph glyph-name="uni04E7" unicode="&#x4e7;" horiz-adv-x="207" 
d="M104 509c54 0 83 -100 83 -259c0 -160 -29 -259 -83 -259c-55 0 -84 99 -84 259c0 159 29 259 84 259zM104 104c29 0 42 44 42 146c0 101 -13 146 -42 146c-30 0 -43 -45 -43 -146c0 -102 13 -146 43 -146zM58 590c-16 0 -26 27 -26 73s10 73 26 73s26 -27 26 -73
s-10 -73 -26 -73zM137 590c-16 0 -25 27 -25 73s9 73 25 73s26 -27 26 -73s-10 -73 -26 -73z" />
    <glyph glyph-name="uni043F" unicode="&#x43f;" 
d="M178 0h-40v388h-70v-388h-40v500h150v-500z" />
    <glyph glyph-name="uni0440" unicode="&#x440;" horiz-adv-x="214" 
d="M69 447c10 40 25 62 48 62c50 0 77 -99 77 -259c0 -159 -27 -259 -77 -259c-23 0 -38 22 -48 62v-303h-41v750h41v-53zM110 396c-27 0 -41 -44 -41 -121v-50c0 -77 14 -121 41 -121c30 0 43 43 43 146c0 104 -13 146 -43 146z" />
    <glyph glyph-name="uni0441" unicode="&#x441;" horiz-adv-x="202" 
d="M104 396c-30 0 -43 -45 -43 -146c0 -102 13 -146 43 -146c25 0 38 35 38 92v8h40v-8c0 -121 -30 -205 -78 -205c-55 0 -84 99 -84 259c0 159 29 259 84 259c48 0 78 -78 78 -195v-8h-40v8c0 50 -13 82 -38 82z" />
    <glyph glyph-name="uni0442" unicode="&#x442;" horiz-adv-x="158" 
d="M10 388v112h138v-112h-49v-388h-40v388h-49z" />
    <glyph glyph-name="uni0443" unicode="&#x443;" horiz-adv-x="185" 
d="M176 500l-70 -553c-22 -170 -42 -204 -70 -204h-9v112h9c10 0 22 15 31 92l6 45l-65 508h41l34 -265l9 -92h2l9 92l33 265h40z" />
    <glyph glyph-name="uni045E" unicode="&#x45e;" horiz-adv-x="185" 
d="M176 500l-70 -553c-22 -170 -42 -204 -70 -204h-9v112h9c10 0 22 15 31 92l6 45l-65 508h41l34 -265l9 -92h2l9 92l33 265h40zM89 672c20 0 29 24 29 67v11h41v-11c0 -109 -27 -172 -70 -172s-70 63 -70 172v11h41v-11c0 -43 10 -67 29 -67z" />
    <glyph glyph-name="uni04EF" unicode="&#x4ef;" horiz-adv-x="185" 
d="M176 500l-70 -553c-22 -170 -42 -204 -70 -204h-9v112h9c10 0 22 15 31 92l6 45l-65 508h41l34 -265l9 -92h2l9 92l33 265h40zM159 607h-140v112h140v-112z" />
    <glyph glyph-name="uni04F3" unicode="&#x4f3;" horiz-adv-x="185" 
d="M176 500l-70 -553c-22 -170 -42 -204 -70 -204h-9v112h9c10 0 22 15 31 92l6 45l-65 508h41l34 -265l9 -92h2l9 92l33 265h40zM65 577h-33l17 173h44zM137 577h-33l24 173h44z" />
    <glyph glyph-name="uni0444" unicode="&#x444;" horiz-adv-x="265" 
d="M162 0h-9v-250h-41v250h-9c-55 0 -83 93 -83 250s28 250 83 250h9v250h41v-250h9c54 0 83 -93 83 -250s-29 -250 -83 -250zM103 112h11v276h-11c-28 0 -43 -51 -43 -138s15 -138 43 -138zM162 388h-11v-276h11c27 0 43 51 43 138s-16 138 -43 138z" />
    <glyph glyph-name="uni0445" unicode="&#x445;" horiz-adv-x="181" 
d="M169 500l-54 -239l58 -261h-43l-24 119l-14 76h-2l-14 -76l-26 -119h-42l58 256l-54 244h43l21 -98l14 -76h2l14 76l21 98h42z" />
    <glyph glyph-name="uni0446" unicode="&#x446;" horiz-adv-x="213" 
d="M200 -149h-40v149h-132v500h41v-388h70v388h40v-388h21v-261z" />
    <glyph glyph-name="uni0447" unicode="&#x447;" horiz-adv-x="192" 
d="M84 281h39v219h41v-500h-41v169h-39c-50 0 -64 80 -64 162v169h41v-169c0 -23 5 -50 23 -50z" />
    <glyph glyph-name="uni0448" unicode="&#x448;" horiz-adv-x="284" 
d="M216 500h40v-500h-228v500h41v-388h53v388h40v-388h54v388z" />
    <glyph glyph-name="uni0449" unicode="&#x449;" horiz-adv-x="290" 
d="M277 -149h-40v149h-209v500h41v-388h53v388h40v-388h54v388h40v-388h21v-261z" />
    <glyph glyph-name="uni044A" unicode="&#x44a;" horiz-adv-x="199" 
d="M45 388h-41v112h82v-148h35c43 0 64 -65 64 -176c0 -109 -21 -176 -64 -176h-76v388zM86 112h35c16 0 23 24 23 64c0 41 -7 64 -23 64h-35v-128z" />
    <glyph glyph-name="uni044B" unicode="&#x44b;" horiz-adv-x="260" 
d="M69 352h35c43 0 64 -65 64 -176c0 -109 -21 -176 -64 -176h-76v500h41v-148zM69 112h35c16 0 23 24 23 64c0 41 -7 64 -23 64h-35v-128zM232 500v-500h-41v500h41z" />
    <glyph glyph-name="uni044C" unicode="&#x44c;" horiz-adv-x="182" 
d="M69 352h35c43 0 64 -65 64 -176c0 -109 -21 -176 -64 -176h-76v500h41v-148zM69 112h35c16 0 23 24 23 64c0 41 -7 64 -23 64h-35v-128z" />
    <glyph glyph-name="uni044D" unicode="&#x44d;" horiz-adv-x="205" 
d="M142 309c-5 60 -19 87 -42 87c-26 0 -40 -32 -40 -82v-8h-40v8c0 117 31 195 80 195c55 0 85 -100 85 -259c0 -160 -30 -259 -85 -259c-49 0 -80 84 -80 205v8h40v-8c0 -57 14 -92 40 -92c25 0 39 30 43 97h-64v108h63z" />
    <glyph glyph-name="uni044E" unicode="&#x44e;" horiz-adv-x="284" 
d="M101 309c7 126 34 200 81 200c54 0 82 -97 82 -259c0 -163 -28 -259 -82 -259c-48 0 -75 75 -81 206h-32v-197h-41v500h41v-191h32zM141 250c0 -93 14 -146 41 -146s42 53 42 146c0 92 -15 146 -42 146s-41 -54 -41 -146z" />
    <glyph glyph-name="uni044F" unicode="&#x44f;" horiz-adv-x="189" 
d="M21 324c0 109 21 176 64 176h76v-500h-41v158h-32l-27 -158h-40l31 184c-20 24 -31 72 -31 140zM61 324c0 -41 8 -64 24 -64h35v128h-35c-16 0 -24 -24 -24 -64z" />
    <glyph glyph-name="uni0452" unicode="&#x452;" 
d="M113 509c43 0 65 -71 65 -205v-363c0 -135 -23 -198 -69 -198h-9v112h9c19 0 29 28 29 86v363c0 61 -11 93 -32 93c-25 0 -38 -44 -38 -122v-275h-40v575h-21v101h21v74h40v-74h51v-101h-51v-126c10 39 24 60 45 60z" />
    <glyph glyph-name="uni0454" unicode="&#x454;" horiz-adv-x="205" 
d="M145 314c0 50 -14 82 -40 82c-23 0 -37 -27 -42 -87h63v-108h-64c4 -67 18 -97 43 -97c26 0 40 35 40 92v8h40v-8c0 -121 -31 -205 -80 -205c-55 0 -85 99 -85 259c0 159 30 259 85 259c49 0 80 -78 80 -195v-8h-40v8z" />
    <glyph glyph-name="uni0455" unicode="&#x455;" horiz-adv-x="186" 
d="M126 149c0 98 -103 74 -103 202c0 83 22 158 71 158c44 0 71 -59 71 -158v-17h-41v17c0 31 -10 45 -30 45c-25 0 -31 -21 -31 -45c0 -98 103 -74 103 -202c0 -81 -22 -158 -73 -158c-45 0 -73 65 -73 158v24h41v-24c0 -29 11 -45 32 -45c26 0 33 21 33 45z" />
    <glyph glyph-name="uni0456" unicode="&#x456;" horiz-adv-x="109" 
d="M74 500v-500h-40v500h40zM55 590c-17 0 -27 27 -27 73s10 73 27 73s27 -27 27 -73s-11 -73 -27 -73z" />
    <glyph glyph-name="uni0457" unicode="&#x457;" horiz-adv-x="97" 
d="M68 500v-500h-40v500h40zM17 590c-17 0 -27 27 -27 73s10 73 27 73s27 -27 27 -73s-11 -73 -27 -73zM81 590c-17 0 -27 27 -27 73s10 73 27 73s27 -27 27 -73s-11 -73 -27 -73z" />
    <glyph glyph-name="uni0458" unicode="&#x458;" horiz-adv-x="97" 
d="M-45 -79h41c0 -50 5 -66 16 -66s16 16 16 66v579h41v-579c0 -121 -21 -178 -57 -178s-57 58 -57 178zM49 590c-17 0 -27 27 -27 73s10 73 27 73s27 -27 27 -73s-11 -73 -27 -73z" />
    <glyph glyph-name="uni0459" unicode="&#x459;" horiz-adv-x="280" 
d="M172 112h30c16 0 23 24 23 64c0 41 -7 64 -23 64h-30v-128zM131 0v388h-44l-1 -94c-4 -263 -22 -298 -60 -298h-12v116h12c10 0 17 16 19 183l3 205h124v-148h30c43 0 64 -65 64 -176c0 -109 -21 -176 -64 -176h-71z" />
    <glyph glyph-name="uni045A" unicode="&#x45a;" horiz-adv-x="283" 
d="M174 112h31c16 0 23 17 23 44c0 28 -7 43 -23 43h-31v-87zM134 0v199h-65v-199h-41v500h41v-189h65v189h40v-189h31c43 0 64 -57 64 -155c0 -97 -21 -156 -64 -156h-71z" />
    <glyph glyph-name="uni045B" unicode="&#x45b;" 
d="M68 449c10 39 24 60 45 60c43 0 65 -71 65 -205v-304h-40v304c0 61 -11 93 -32 93c-25 0 -38 -44 -38 -122v-275h-40v575h-21v101h21v74h40v-74h51v-101h-51v-126z" />
    <glyph glyph-name="uni045F" unicode="&#x45f;" horiz-adv-x="207" 
d="M124 0v-149h-41v149h-55v500h41v-388h70v388h40v-500h-55z" />
    <glyph glyph-name="uni0491" unicode="&#x491;" horiz-adv-x="155" 
d="M28 500h75v149h40v-261h-75v-388h-40v500z" />
    <glyph glyph-name="uni0493" unicode="&#x493;" horiz-adv-x="154" 
d="M111 280v-112h-43v-168h-40v168h-20v112h20v220h114v-112h-74v-108h43z" />
    <glyph glyph-name="uni0497" unicode="&#x497;" horiz-adv-x="274" 
d="M116 198h-26l-36 -198h-42l47 261l-44 239h41l35 -190h25v190h40v-190h25l36 190h40l-44 -239l27 -149h39v-261h-40v149h-21l-36 198h-26v-198h-40v198z" />
    <glyph glyph-name="uni0499" unicode="&#x499;" horiz-adv-x="187" 
d="M126 155c0 25 -4 44 -21 44h-28v112h27c16 0 20 15 20 39c0 28 -6 46 -32 46c-25 0 -31 -18 -31 -46v-26h-41v26c0 87 22 159 72 159s72 -72 72 -159c0 -45 -8 -76 -26 -95c20 -18 29 -51 29 -100c0 -78 -17 -144 -56 -160v-144h-41v145c-36 19 -52 83 -52 159v30h40v-30
c0 -29 7 -51 34 -51s34 22 34 51z" />
    <glyph glyph-name="uni049B" unicode="&#x49b;" horiz-adv-x="213" 
d="M71 0h-41v500h41v-189h28l39 189h41l-50 -247l30 -141h44v-261h-40v149h-21l-43 199h-28v-199z" />
    <glyph glyph-name="uni049D" unicode="&#x49d;" horiz-adv-x="234" 
d="M127 80h-40v119h-17v-199h-40v500h40v-189h17v109h40v-109h14l39 189h41l-50 -247l55 -253h-42l-43 199h-14v-119z" />
    <glyph glyph-name="uni04A1" unicode="&#x4a1;" horiz-adv-x="207" 
d="M149 500h45l-50 -247l55 -253h-46l-43 199h-24v-199h-41v388h-41v112h82v-189h24z" />
    <glyph glyph-name="uni04A3" unicode="&#x4a3;" horiz-adv-x="212" 
d="M178 500v-388h21v-261h-40v149h-21v199h-70v-199h-40v500h40v-189h70v189h40z" />
    <glyph glyph-name="uni04AB" unicode="&#x4ab;" horiz-adv-x="202" 
d="M142 314c0 50 -13 82 -38 82c-30 0 -43 -45 -43 -146c0 -102 13 -146 43 -146c25 0 38 35 38 92v8h40v-8c0 -102 -21 -178 -57 -199v-146h-41v145c-42 22 -64 115 -64 254c0 159 29 259 84 259c48 0 78 -78 78 -195v-8h-40v8z" />
    <glyph glyph-name="uni04AF" unicode="&#x4af;" horiz-adv-x="181" 
d="M70 -250v250l-63 500h41l42 -354h3l42 354h39l-63 -500v-250h-41z" />
    <glyph glyph-name="uni04B1" unicode="&#x4b1;" horiz-adv-x="181" 
d="M70 -40v40l-63 500h41l42 -354h3l42 354h39l-63 -500v-40h41v-112h-41v-98h-41v98h-44v112h44z" />
    <glyph glyph-name="uni04B3" unicode="&#x4b3;" horiz-adv-x="201" 
d="M127 500h42l-54 -239l33 -149h43v-261h-40v149h-21l-24 119l-14 76h-2l-14 -76l-26 -119h-42l58 256l-54 244h43l21 -98l14 -76h2l14 76z" />
    <glyph glyph-name="uni04B7" unicode="&#x4b7;" horiz-adv-x="194" 
d="M61 331c0 -23 5 -50 23 -50h39v219h41v-388h17v-261h-41v149h-17v169h-39c-50 0 -64 80 -64 162v169h41v-169z" />
    <glyph glyph-name="uni04BB" unicode="&#x4bb;" 
d="M68 449c10 39 24 60 45 60c43 0 65 -71 65 -205v-304h-40v304c0 61 -11 93 -32 93c-25 0 -38 -44 -38 -122v-275h-40v750h40v-301z" />
    <glyph glyph-name="uni04CF" unicode="&#x4cf;" horiz-adv-x="97" 
d="M68 750v-750h-40v750h40z" />
    <glyph glyph-name="uni04D9" unicode="&#x4d9;" horiz-adv-x="192" 
d="M172 250c0 -159 -29 -259 -84 -259c-49 0 -78 81 -78 221v73h120c-2 79 -16 111 -42 111c-23 0 -35 -21 -35 -54v-4h-41v4c0 98 30 167 76 167c55 0 84 -99 84 -259zM88 104c22 0 35 25 41 82h-78c0 -54 17 -82 37 -82z" />
    <glyph glyph-name="uni04E9" unicode="&#x4e9;" horiz-adv-x="207" 
d="M20 250c0 159 29 259 84 259c54 0 83 -100 83 -259c0 -160 -29 -259 -83 -259c-55 0 -84 99 -84 259zM62 203c4 -69 17 -99 42 -99c24 0 37 30 41 99h-83zM104 396c-24 0 -37 -28 -41 -89h81c-4 61 -17 89 -40 89z" />
    <glyph glyph-name="zero" unicode="0" horiz-adv-x="211" 
d="M148 209v284c0 65 -15 103 -43 103s-42 -38 -42 -103v-284c0 -65 14 -103 42 -103s43 38 43 103zM190 493v-284c0 -138 -32 -219 -85 -219c-52 0 -84 81 -84 219v284c0 138 32 219 84 219c53 0 85 -81 85 -219z" />
    <glyph glyph-name="one" unicode="1" horiz-adv-x="190" 
d="M79 116v450l-47 -78h-4v127l51 85h42v-584h50v-116h-152v116h60z" />
    <glyph glyph-name="two" unicode="2" horiz-adv-x="211" 
d="M190 496c0 -89 -20 -166 -86 -302l-37 -77h123v-117h-169v117l55 114c66 137 72 191 72 265c0 64 -15 100 -43 100c-27 0 -42 -36 -42 -100v-55h-42v55c0 137 32 216 84 216c54 0 85 -79 85 -216z" />
    <glyph glyph-name="three" unicode="3" horiz-adv-x="214" 
d="M151 204c0 67 -16 106 -43 106h-19v116l55 158h-74v-84h-42v200h159v-116l-60 -172c42 -17 66 -91 66 -208c0 -137 -32 -216 -85 -216s-85 79 -85 216v45h42v-45c0 -64 15 -100 43 -100c27 0 43 36 43 100z" />
    <glyph glyph-name="four" unicode="4" horiz-adv-x="208" 
d="M18 246l47 454h42l-47 -454h75v331h42v-331h17v-116h-17v-130h-42v130h-117v116z" />
    <glyph glyph-name="five" unicode="5" horiz-adv-x="208" 
d="M150 204c0 67 -15 106 -43 106h-79v390h156v-116h-114v-158h37c54 0 85 -82 85 -222c0 -137 -31 -216 -85 -216c-52 0 -85 79 -85 216v15h42v-15c0 -64 15 -100 43 -100s43 36 43 100z" />
    <glyph glyph-name="six" unicode="6" horiz-adv-x="215" 
d="M109 596c-30 0 -46 -36 -46 -100v-132c12 37 29 56 50 56c53 0 84 -79 84 -216s-32 -216 -88 -216c-54 0 -88 79 -88 216v292c0 137 33 216 88 216s88 -79 88 -216v-15h-42v15c0 64 -15 100 -46 100zM109 304c-30 0 -46 -36 -46 -100s16 -100 46 -100s46 36 46 100
s-16 100 -46 100z" />
    <glyph glyph-name="seven" unicode="7" horiz-adv-x="181" 
d="M11 584v116h159v-116l-80 -584h-42l80 584h-117z" />
    <glyph glyph-name="eight" unicode="8" horiz-adv-x="212" 
d="M194 204c0 -136 -33 -214 -88 -214c-56 0 -88 78 -88 214c0 69 10 122 29 155c-17 32 -26 81 -26 145c0 131 32 208 85 208s84 -77 84 -208c0 -63 -9 -113 -25 -145c19 -33 29 -86 29 -155zM106 106c29 0 46 35 46 98s-17 98 -46 98c-30 0 -46 -35 -46 -98s16 -98 46 -98
zM106 596c-28 0 -43 -35 -43 -92c0 -58 15 -92 43 -92c27 0 42 34 42 92c0 57 -15 92 -42 92z" />
    <glyph glyph-name="nine" unicode="9" horiz-adv-x="215" 
d="M106 104c29 0 46 36 46 100v132c-12 -37 -29 -56 -50 -56c-53 0 -84 79 -84 216s32 216 88 216c54 0 88 -79 88 -216v-292c0 -137 -33 -216 -88 -216s-88 79 -88 216v15h42v-15c0 -64 15 -100 46 -100zM106 396c30 0 46 36 46 100s-16 100 -46 100s-46 -36 -46 -100
s16 -100 46 -100z" />
    <glyph glyph-name="underscore" unicode="_" horiz-adv-x="319" 
d="M28 108h263v-120h-263v120z" />
    <glyph glyph-name="hyphen" unicode="-" horiz-adv-x="160" 
d="M134 324v-116h-108v116h108z" />
    <glyph glyph-name="endash" unicode="&#x2013;" horiz-adv-x="191" 
d="M14 205v123h163v-123h-163z" />
    <glyph glyph-name="emdash" unicode="&#x2014;" horiz-adv-x="255" 
d="M11 205v123h233v-123h-233z" />
    <glyph glyph-name="parenleft" unicode="(" horiz-adv-x="132" 
d="M21 311c0 471 38 561 97 561h4v-116h-4c-32 0 -55 -59 -55 -445s23 -445 55 -445h4v-116h-4c-59 0 -97 90 -97 561z" />
    <glyph glyph-name="parenright" unicode=")" horiz-adv-x="132" 
d="M111 311c0 -471 -38 -561 -97 -561h-4v116h4c32 0 55 59 55 445s-23 445 -55 445h-4v116h4c59 0 97 -90 97 -561z" />
    <glyph glyph-name="bracketleft" unicode="[" horiz-adv-x="122" 
d="M32 -250v1122h80v-116h-38v-890h38v-116h-80z" />
    <glyph glyph-name="bracketright" unicode="]" horiz-adv-x="122" 
d="M90 872v-1122h-80v116h38v890h-38v116h80z" />
    <glyph glyph-name="braceleft" unicode="{" horiz-adv-x="133" 
d="M46 190c0 42 -8 67 -23 67h-9v106h9c15 0 23 25 23 67v266c0 109 22 175 60 175h17v-116h-17c-12 0 -18 -19 -18 -59v-266c0 -54 -8 -95 -23 -120c15 -25 23 -66 23 -120v-265c0 -40 6 -59 18 -59h17v-116h-17c-38 0 -60 66 -60 175v265z" />
    <glyph glyph-name="braceright" unicode="}" horiz-adv-x="133" 
d="M87 190v-265c0 -109 -22 -175 -60 -175h-17v116h17c12 0 18 19 18 59v265c0 54 8 95 23 120c-15 25 -23 66 -23 120v266c0 40 -6 59 -18 59h-17v116h17c38 0 60 -66 60 -175v-266c0 -42 8 -67 23 -67h9v-106h-9c-15 0 -23 -25 -23 -67z" />
    <glyph glyph-name="numbersign" unicode="#" horiz-adv-x="238" 
d="M86 166l-6 -166h-41l6 166h-31v112h36l5 141h-41v112h45l7 169h41l-7 -169h52l7 169h40l-7 -169h32v-112h-36l-5 -141h41v-112h-46l-6 -166h-40l6 166h-52zM96 419l-5 -141h52l5 141h-52z" />
    <glyph glyph-name="percent" unicode="%" horiz-adv-x="269" 
d="M71 490c13 0 21 23 21 61s-8 61 -21 61c-15 0 -22 -23 -22 -61s7 -61 22 -61zM71 392c-38 0 -57 60 -57 159c0 100 19 159 57 159c35 0 56 -59 56 -159c0 -99 -21 -159 -56 -159zM81 0h-43l150 700h43zM198 89c14 0 22 23 22 61c0 37 -8 61 -22 61c-15 0 -22 -23 -22 -61
s7 -61 22 -61zM198 -9c-37 0 -57 60 -57 159c0 100 20 159 57 159c36 0 57 -60 57 -159s-21 -159 -57 -159z" />
    <glyph glyph-name="perthousand" unicode="&#x2030;" horiz-adv-x="346" 
d="M332 150c0 -99 -19 -159 -57 -159c-16 0 -29 16 -38 44c-10 -28 -23 -44 -39 -44c-37 0 -57 60 -57 159c0 100 20 159 57 159c16 0 29 -15 39 -44c9 28 22 44 38 44c38 0 57 -59 57 -159zM127 551c0 -99 -21 -159 -56 -159c-38 0 -57 60 -57 159c0 100 19 159 57 159
c35 0 56 -59 56 -159zM231 700l-150 -700h-43l150 700h43zM176 150c0 -38 7 -61 22 -61c14 0 22 23 22 61c0 37 -8 61 -22 61c-15 0 -22 -23 -22 -61zM253 150c0 -38 8 -61 22 -61c15 0 22 23 22 61s-7 61 -22 61c-14 0 -22 -24 -22 -61zM49 551c0 -38 7 -61 22 -61
c13 0 21 23 21 61s-8 61 -21 61c-15 0 -22 -23 -22 -61z" />
    <glyph glyph-name="quotesingle" unicode="'" horiz-adv-x="78" 
d="M50 509h-32v241h42v-35z" />
    <glyph glyph-name="quotedbl" unicode="&#x22;" horiz-adv-x="136" 
d="M50 509h-32v241h42v-35zM108 509h-32v241h42v-35z" />
    <glyph glyph-name="quoteleft" unicode="&#x2018;" horiz-adv-x="85" 
d="M69 750v-181c0 -46 -8 -73 -25 -73s-26 27 -26 73c0 18 3 45 5 61l16 120h30z" />
    <glyph glyph-name="quoteright" unicode="&#x2019;" horiz-adv-x="85" 
d="M16 496v181c0 46 8 73 25 73s26 -27 26 -73c0 -18 -3 -45 -5 -61l-16 -120h-30z" />
    <glyph glyph-name="quotedblleft" unicode="&#x201c;" horiz-adv-x="160" 
d="M69 750v-181c0 -46 -8 -73 -25 -73s-26 27 -26 73c0 18 3 45 5 61l16 120h30zM144 750v-181c0 -46 -8 -73 -25 -73s-26 27 -26 73c0 18 3 45 5 61l16 120h30z" />
    <glyph glyph-name="quotedblright" unicode="&#x201d;" horiz-adv-x="160" 
d="M16 496v181c0 46 8 73 25 73s26 -27 26 -73c0 -18 -3 -45 -5 -61l-16 -120h-30zM91 496v181c0 46 8 73 25 73s26 -27 26 -73c0 -18 -3 -45 -5 -61l-16 -120h-30z" />
    <glyph glyph-name="quotesinglbase" unicode="&#x201a;" horiz-adv-x="85" 
d="M16 -120v181c0 46 8 73 25 73s26 -27 26 -73c0 -18 -3 -45 -5 -61l-16 -120h-30z" />
    <glyph glyph-name="quotedblbase" unicode="&#x201e;" horiz-adv-x="160" 
d="M16 -120v181c0 46 8 73 25 73s26 -27 26 -73c0 -18 -3 -45 -5 -61l-16 -120h-30zM91 -120v181c0 46 8 73 25 73s26 -27 26 -73c0 -18 -3 -45 -5 -61l-16 -120h-30z" />
    <glyph glyph-name="guilsinglleft" unicode="&#x2039;" horiz-adv-x="107" 
d="M58 248l35 -100v-117h-6l-76 219l76 218h6v-117l-35 -101v-2z" />
    <glyph glyph-name="guilsinglright" unicode="&#x203a;" horiz-adv-x="107" 
d="M14 148l35 100v2l-35 101v117h6l76 -218l-76 -219h-6v117z" />
    <glyph glyph-name="guillemotleft" unicode="&#xab;" horiz-adv-x="194" 
d="M58 248l35 -100v-117h-6l-76 219l76 218h6v-117l-35 -101v-2zM145 248l35 -100v-117h-6l-76 219l76 218h6v-117l-35 -101v-2z" />
    <glyph glyph-name="guillemotright" unicode="&#xbb;" horiz-adv-x="194" 
d="M14 148l35 100v2l-35 101v117h6l76 -218l-76 -219h-6v117zM101 148l35 100v2l-35 101v117h6l76 -218l-76 -219h-6v117z" />
    <glyph glyph-name="asterisk" unicode="*" horiz-adv-x="158" 
d="M135 401l-27 -55l-28 124h-1l-29 -125l-27 57l33 119l-51 40l10 91l50 -54l-3 152h34l-3 -153l51 55l9 -92l-51 -39z" />
    <glyph glyph-name="dagger" unicode="&#x2020;" horiz-adv-x="169" 
d="M106 0h-42v384h-50v116h50v200h42v-200h49v-116h-49v-384z" />
    <glyph glyph-name="daggerdbl" unicode="&#x2021;" horiz-adv-x="169" 
d="M106 0h-42v152h-50v116h50v116h-50v116h50v200h42v-200h49v-116h-49v-116h49v-116h-49v-152z" />
    <glyph glyph-name="period" unicode="." horiz-adv-x="73" 
d="M11 61c0 46 8 73 25 73s26 -27 26 -73s-9 -73 -26 -73s-25 27 -25 73z" />
    <glyph glyph-name="comma" unicode="," horiz-adv-x="73" 
d="M11 -120v181c0 46 8 73 25 73s26 -27 26 -73c0 -18 -3 -45 -5 -61l-16 -120h-30z" />
    <glyph glyph-name="colon" unicode=":" horiz-adv-x="73" 
d="M11 61c0 46 8 73 25 73s26 -27 26 -73s-9 -73 -26 -73s-25 27 -25 73zM11 377c0 46 8 73 25 73s26 -27 26 -73s-9 -73 -26 -73s-25 27 -25 73z" />
    <glyph glyph-name="semicolon" unicode=";" horiz-adv-x="73" 
d="M11 -120v181c0 46 8 73 25 73s26 -27 26 -73c0 -18 -3 -45 -5 -61l-16 -120h-30zM11 377c0 46 8 73 25 73s26 -27 26 -73s-9 -73 -26 -73s-25 27 -25 73z" />
    <glyph glyph-name="ellipsis" unicode="&#x2026;" horiz-adv-x="253" 
d="M11 61c0 46 8 73 25 73s26 -27 26 -73s-9 -73 -26 -73s-25 27 -25 73zM101 61c0 46 8 73 25 73s26 -27 26 -73s-9 -73 -26 -73s-25 27 -25 73zM191 61c0 46 8 73 25 73s26 -27 26 -73s-9 -73 -26 -73s-25 27 -25 73z" />
    <glyph glyph-name="exclam" unicode="!" horiz-adv-x="107" 
d="M33 700h42v-518h-42v518zM28 61c0 46 9 73 26 73c16 0 25 -27 25 -73s-9 -73 -25 -73c-17 0 -26 27 -26 73z" />
    <glyph glyph-name="exclamdown" unicode="&#xa1;" horiz-adv-x="107" 
d="M75 -203h-42v518h42v-518zM28 436c0 46 9 73 26 73c16 0 25 -27 25 -73s-9 -73 -25 -73c-17 0 -26 27 -26 73z" />
    <glyph glyph-name="question" unicode="?" horiz-adv-x="208" 
d="M188 503c0 -100 -22 -168 -62 -187v-134h-42v226h16c30 0 46 36 46 95s-15 93 -42 93c-28 0 -42 -30 -42 -83v-45h-42v45c0 126 31 199 84 199s84 -77 84 -209zM105 -12c-17 0 -26 27 -26 73s9 73 26 73c16 0 26 -27 26 -73s-10 -73 -26 -73z" />
    <glyph glyph-name="questiondown" unicode="&#xbf;" horiz-adv-x="208" 
d="M20 -5c0 100 22 168 62 187v134h42v-226h-16c-30 0 -46 -36 -46 -95s15 -93 42 -93c28 0 42 30 42 83v45h42v-45c0 -126 -31 -199 -84 -199s-84 77 -84 209zM103 510c17 0 26 -27 26 -73s-9 -73 -26 -73c-16 0 -26 27 -26 73s10 73 26 73z" />
    <glyph glyph-name="slash" unicode="/" horiz-adv-x="152" 
d="M131 700l-68 -700h-42l68 700h42z" />
    <glyph glyph-name="backslash" unicode="\" horiz-adv-x="152" 
d="M89 0l-68 700h42l68 -700h-42z" />
    <glyph glyph-name="fraction" unicode="&#x2044;" horiz-adv-x="280" 
d="M84 0h-41l153 700h41z" />
    <glyph glyph-name="bar" unicode="|" horiz-adv-x="116" 
d="M37 -250v950h42v-950h-42z" />
    <glyph glyph-name="brokenbar" unicode="&#xa6;" horiz-adv-x="122" 
d="M40 -250v416h42v-416h-42zM40 304v396h42v-396h-42z" />
    <glyph glyph-name="at" unicode="@" horiz-adv-x="332" 
d="M314 250c0 -291 -56 -462 -148 -462c-97 0 -148 171 -148 462s51 462 148 462c93 0 148 -171 148 -462zM56 250c0 -221 37 -356 110 -356c71 0 110 132 110 356c0 221 -40 356 -110 356c-73 0 -110 -135 -110 -356zM171 509c44 0 71 -59 71 -157v-352h-41v61
c-10 -44 -27 -70 -49 -70c-36 0 -58 58 -58 155c0 95 22 151 58 151h49v55c0 30 -11 45 -30 45c-20 0 -31 -15 -31 -45v-12h-41v12c0 98 27 157 72 157zM135 150c0 -31 8 -47 22 -47c27 0 44 28 44 94h-44c-14 0 -22 -15 -22 -47z" />
    <glyph glyph-name="ampersand" unicode="&#x26;" horiz-adv-x="241" 
d="M65 504c0 -56 5 -89 34 -89h122v-116h-25v-97c0 -136 -34 -214 -89 -214s-88 78 -88 214c0 71 9 126 31 156c-20 27 -27 77 -27 146c0 131 32 208 84 208c55 0 88 -77 88 -208v-36h-42v36c0 57 -15 92 -46 92c-27 0 -42 -35 -42 -92zM107 104c31 0 47 35 47 98v97h-55
c-27 0 -38 -36 -38 -97c0 -63 17 -98 46 -98z" />
    <glyph glyph-name="section" unicode="&#xa7;" horiz-adv-x="182" 
d="M126 142c0 97 -106 10 -106 208c0 39 8 78 24 107c-15 28 -22 64 -22 101c0 79 21 154 69 154c43 0 70 -63 70 -154v-18h-37v18c0 34 -12 53 -33 53c-26 0 -32 -24 -32 -53c0 -97 103 -10 103 -208c0 -39 -7 -77 -22 -105c16 -28 23 -65 23 -103c0 -79 -22 -154 -72 -154
c-44 0 -72 63 -72 154v18h37v-18c0 -34 12 -53 35 -53c28 0 35 24 35 53zM91 408c-27 0 -34 -26 -34 -58s7 -58 34 -58s34 26 34 58s-7 58 -34 58z" />
    <glyph glyph-name="paragraph" unicode="&#xb6;" horiz-adv-x="221" 
d="M18 482c0 138 29 218 79 218h96v-951h-42v835h-42v-834h-42v525c-31 27 -49 100 -49 207z" />
    <glyph glyph-name="uni2116" unicode="&#x2116;" horiz-adv-x="382" 
d="M302 293c14 0 22 25 22 68c0 42 -8 68 -22 68c-15 0 -22 -26 -22 -68c0 -43 7 -68 22 -68zM302 202c-36 0 -55 60 -55 159c0 100 19 159 55 159c35 0 55 -59 55 -159c0 -99 -20 -159 -55 -159zM182 700h168v-116h-128v-584h-65l-88 584h-2l3 -84v-500h-41v700h65l89 -584
h2l-3 84v500z" />
    <glyph glyph-name="periodcentered" unicode="&#xb7;" horiz-adv-x="73" 
d="M11 277c0 46 8 73 25 73s26 -27 26 -73s-9 -73 -26 -73s-25 27 -25 73z" />
    <glyph glyph-name="bullet" unicode="&#x2022;" horiz-adv-x="386" 
d="M193 -9c-94 0 -143 136 -143 360c0 226 49 359 143 359c90 0 143 -133 143 -359c0 -224 -53 -360 -143 -360z" />
    <glyph glyph-name="minute" unicode="&#x2032;" horiz-adv-x="74" 
d="M53 509h-42l10 206v35h42v-35z" />
    <glyph glyph-name="second" unicode="&#x2033;" horiz-adv-x="146" 
d="M53 509h-42l10 206v35h42v-35zM125 509h-42l10 206v35h42v-35z" />
    <glyph glyph-name="plus" unicode="+" horiz-adv-x="193" 
d="M184 415v-116h-66v-162h-42v162h-67v116h67v161h42v-161h66z" />
    <glyph glyph-name="minus" unicode="&#x2212;" horiz-adv-x="179" 
d="M177 415v-116h-175v116h175z" />
    <glyph glyph-name="plusminus" unicode="&#xb1;" horiz-adv-x="179" 
d="M2 417v116h67v151h42v-151h66v-116h-66v-163h-42v163h-67zM2 204h175v-116h-175v116z" />
    <glyph glyph-name="divide" unicode="&#xf7;" horiz-adv-x="179" 
d="M177 425v-116h-175v116h175zM64 169c0 46 8 73 25 73s26 -27 26 -73s-9 -73 -26 -73s-25 27 -25 73zM64 564c0 46 8 73 25 73s26 -27 26 -73s-9 -73 -26 -73s-25 27 -25 73z" />
    <glyph glyph-name="multiply" unicode="&#xd7;" horiz-adv-x="180" 
d="M60 357l-47 134l30 85l47 -134l47 134l29 -85l-46 -133l47 -136l-30 -85l-47 135l-47 -134l-30 85z" />
    <glyph glyph-name="equal" unicode="=" horiz-adv-x="179" 
d="M177 297v-116h-175v116h175zM177 533v-116h-175v116h175z" />
    <glyph glyph-name="less" unicode="&#x3c;" horiz-adv-x="172" 
d="M7 298v105l140 213h5v-120l-96 -146l96 -148v-119h-5z" />
    <glyph glyph-name="greater" unicode="&#x3e;" horiz-adv-x="172" 
d="M165 403v-105l-140 -215h-5v119l96 148l-96 146v120h5z" />
    <glyph glyph-name="lessequal" unicode="&#x2264;" horiz-adv-x="172" 
d="M7 381v105l140 213h5v-120l-96 -146l96 -148v-119h-5zM7 116h145v-116h-145v116z" />
    <glyph glyph-name="greaterequal" unicode="&#x2265;" horiz-adv-x="172" 
d="M20 580v120h5l140 -213v-105l-140 -215h-5v119l96 148zM20 116h145v-116h-145v116z" />
    <glyph glyph-name="approxequal" unicode="&#x2248;" horiz-adv-x="179" 
d="M124 341c29 0 53 -59 53 -177v-7h-42v7c0 40 -5 57 -16 57c-16 0 -34 -74 -63 -74s-54 60 -54 177v7h42v-7c0 -39 6 -57 16 -57c17 0 35 74 64 74zM124 567c29 0 53 -59 53 -177v-7h-42v7c0 40 -5 57 -16 57c-16 0 -34 -74 -63 -74s-54 60 -54 177v7h42v-7
c0 -39 6 -57 16 -57c17 0 35 74 64 74z" />
    <glyph glyph-name="dollar" unicode="$" horiz-adv-x="223" 
d="M166 469c0 78 -8 117 -36 125v-180c38 -26 81 -60 81 -207c1 -105 -26 -206 -81 -218v-121h-37v121c-54 10 -81 91 -81 246v18h42v-18c0 -81 9 -122 39 -130v199c-37 25 -77 62 -77 203c0 101 24 193 77 204v111h37v-111c52 -11 78 -91 78 -242v-18h-42v18zM169 207
c0 47 -17 66 -39 81v-182c28 8 39 51 39 101zM58 507c0 -44 15 -63 35 -78v165c-24 -9 -35 -47 -35 -87z" />
    <glyph glyph-name="cent" unicode="&#xa2;" horiz-adv-x="216" 
d="M20 250c0 146 24 242 71 257v143h37v-142c42 -10 68 -85 68 -194v-8h-40v8c0 43 -10 72 -28 80v-288c18 8 28 41 28 90v8h40v-8c0 -112 -26 -193 -68 -204v-142h-37v143c-47 15 -71 110 -71 257zM61 250c0 -86 9 -131 30 -143v286c-21 -13 -30 -58 -30 -143z" />
    <glyph glyph-name="sterling" unicode="&#xa3;" horiz-adv-x="237" 
d="M63 252v12h-21v112h21v135c0 106 23 201 75 201c50 0 75 -81 75 -243v-18h-42v18c0 88 -7 127 -33 127c-23 0 -33 -41 -33 -85v-135h52v-112h-52v-12c0 -59 -6 -105 -17 -136h125v-116h-185v116h6c20 0 29 28 29 136z" />
    <glyph glyph-name="yen" unicode="&#xa5;" horiz-adv-x="228" 
d="M164 700h46l-48 -308h29v-120h-57v-60h57v-120h-57v-92h-42v92h-55v120h55v60h-55v120h27l-46 308h46l41 -274l4 -34h9l4 34z" />
    <glyph glyph-name="Euro" unicode="&#x20ac;" horiz-adv-x="252" 
d="M127 712c58 0 104 -101 104 -280v-15h-42v15c0 107 -28 164 -62 164c-26 0 -45 -34 -57 -95h81l-14 -116h-78v-35v-25h70l-14 -116h-47c11 -67 32 -105 59 -105c34 0 62 63 62 175v18h43v-18c0 -186 -45 -291 -105 -291c-52 0 -89 80 -104 221h-23v116h17v25v35h-17v116
h24c15 135 52 211 103 211z" />
    <glyph glyph-name="uni20B4" unicode="&#x20b4;" horiz-adv-x="217" 
d="M198 546c0 -18 -2 -35 -6 -50h18v-116h-203v116h116c23 0 33 24 33 50c0 25 -14 50 -47 50c-32 0 -46 -25 -46 -50v-13h-42v13c0 87 27 166 88 166c62 0 89 -79 89 -166zM21 154c0 18 2 35 6 50h-20v116h203v-116h-115c-23 0 -32 -24 -32 -50c0 -25 14 -50 46 -50
c33 0 47 25 47 50v13h42v-13c0 -87 -27 -166 -89 -166c-61 0 -88 79 -88 166z" />
    <glyph glyph-name="uni20B8" unicode="&#x20b8;" horiz-adv-x="202" 
d="M8 404v116h186v-116h-72v-404h-42v404h-72zM194 584h-186v116h186v-116z" />
    <glyph glyph-name="asciicircum" unicode="^" horiz-adv-x="174" 
d="M162 387v-36h-37l-26 130l-11 67h-2l-11 -67l-26 -130h-37v36l63 313h24z" />
    <glyph glyph-name="acute" unicode="&#xb4;" horiz-adv-x="94" 
d="M13 577l23 173h45l-36 -173h-32z" />
    <glyph glyph-name="grave" unicode="`" horiz-adv-x="82" 
d="M75 577h-32l-36 173h44z" />
    <glyph glyph-name="hungarumlaut" unicode="&#x2dd;" horiz-adv-x="181" 
d="M54 577h-33l17 173h44zM126 577h-33l24 173h44z" />
    <glyph glyph-name="circumflex" unicode="&#x2c6;" horiz-adv-x="162" 
d="M50 577h-39l56 173h29l55 -173h-38l-32 106z" />
    <glyph glyph-name="caron" unicode="&#x2c7;" horiz-adv-x="162" 
d="M112 750h39l-56 -173h-29l-55 173h38l32 -106z" />
    <glyph glyph-name="breve" unicode="&#x2d8;" horiz-adv-x="182" 
d="M91 672c20 0 29 24 29 67v11h41v-11c0 -109 -27 -172 -70 -172s-70 63 -70 172v11h41v-11c0 -43 10 -67 29 -67z" />
    <glyph glyph-name="tilde" unicode="&#x2dc;" horiz-adv-x="193" 
d="M68 567c-28 0 -47 47 -47 171v12h41v-32c0 -30 3 -46 9 -46c13 0 25 88 54 88c28 0 47 -47 47 -171v-12h-40v32c0 30 -4 46 -10 46c-13 0 -25 -88 -54 -88z" />
    <glyph glyph-name="macron" unicode="&#xaf;" horiz-adv-x="182" 
d="M161 607h-140v112h140v-112z" />
    <glyph glyph-name="dieresis" unicode="&#xa8;" horiz-adv-x="187" 
d="M54 590c-16 0 -26 27 -26 73s10 73 26 73s26 -27 26 -73s-10 -73 -26 -73zM133 590c-16 0 -25 27 -25 73s9 73 25 73s26 -27 26 -73s-10 -73 -26 -73z" />
    <glyph glyph-name="dotaccent" unicode="&#x2d9;" horiz-adv-x="98" 
d="M49 590c-17 0 -27 27 -27 73s10 73 27 73s27 -27 27 -73s-11 -73 -27 -73z" />
    <glyph glyph-name="ring" unicode="&#x2da;" horiz-adv-x="154" 
d="M77 506c-35 0 -55 60 -55 159c0 100 20 159 55 159s55 -59 55 -159c0 -99 -20 -159 -55 -159zM77 604c14 0 22 23 22 61s-8 61 -22 61s-22 -23 -22 -61s8 -61 22 -61z" />
    <glyph glyph-name="cedilla" unicode="&#xb8;" horiz-adv-x="87" 
d="M42 -87c0 13 -2 22 -10 22h-9v108h31v-63c18 -17 23 -54 23 -97c0 -73 -18 -105 -43 -105c-6 0 -12 1 -19 6v110c4 -3 7 -4 13 -4c9 0 14 7 14 23z" />
    <glyph glyph-name="ogonek" unicode="&#x2db;" horiz-adv-x="87" 
d="M56 44l5 -44c-9 -8 -13 -24 -13 -49c0 -30 6 -39 15 -39c3 0 7 1 10 3v-109c-5 -4 -10 -6 -18 -6c-24 0 -40 37 -40 121c0 67 16 104 41 123z" />
    <glyph glyph-name="copyright" unicode="&#xa9;" horiz-adv-x="333" 
d="M167 -106c71 0 110 132 110 356c0 221 -40 356 -110 356c-73 0 -110 -135 -110 -356s37 -356 110 -356zM167 -212c-97 0 -149 171 -149 462s52 462 149 462c93 0 148 -171 148 -462s-56 -462 -148 -462zM167 396c-30 0 -43 -45 -43 -146c0 -102 13 -146 43 -146
c25 0 38 35 38 92v8h40v-8c0 -121 -30 -205 -78 -205c-55 0 -84 99 -84 259c0 159 29 259 84 259c48 0 78 -78 78 -195v-8h-40v8c0 50 -13 82 -38 82z" />
    <glyph glyph-name="uni24C5" unicode="&#x24c5;" horiz-adv-x="332" 
d="M145 148v-148h-41v500h77c42 0 64 -67 64 -176c0 -111 -22 -176 -64 -176h-36zM145 388v-128h36c15 0 23 23 23 64c0 40 -8 64 -23 64h-36zM166 -106c71 0 110 132 110 356c0 221 -40 356 -110 356c-73 0 -110 -135 -110 -356s37 -356 110 -356zM166 -212
c-97 0 -148 171 -148 462s51 462 148 462c93 0 148 -171 148 -462s-56 -462 -148 -462z" />
    <glyph glyph-name="registered" unicode="&#xae;" horiz-adv-x="333" 
d="M315 250c0 -291 -56 -462 -148 -462c-97 0 -149 171 -149 462s52 462 149 462c93 0 148 -171 148 -462zM57 250c0 -221 37 -356 110 -356c71 0 110 132 110 356c0 221 -40 356 -110 356c-73 0 -110 -135 -110 -356zM239 324c0 -65 -10 -112 -29 -137l32 -187h-44l-27 158
h-32v-158h-40v500h76c43 0 64 -67 64 -176zM198 324c0 40 -7 64 -23 64h-36v-128h36c16 0 23 23 23 64z" />
    <glyph glyph-name="trademark" unicode="&#x2122;" horiz-adv-x="289" 
d="M41 602h-34v98h152l31 -186l30 186h49v-351h-36v225l-30 -183h-27l-30 177v-219h-35v253h-35v-253h-35v253z" />
    <glyph glyph-name="degree" unicode="&#xb0;" horiz-adv-x="132" 
d="M66 490c13 0 22 23 22 61s-9 61 -22 61c-15 0 -22 -23 -22 -61s7 -61 22 -61zM66 392c-38 0 -57 60 -57 159c0 100 19 159 57 159c36 0 57 -59 57 -159c0 -99 -21 -159 -57 -159z" />
    <glyph glyph-name="uniF6C3" unicode="&#xf6c3;" horiz-adv-x="85" 
d="M39 780h28v-122c0 -43 -9 -69 -25 -69c-15 0 -24 26 -24 69c0 19 2 46 9 72z" />
    <glyph glyph-name="uniF6C9" unicode="&#xf6c9;" horiz-adv-x="106" 
d="M18 780l19 219h51l-34 -219h-36z" />
    <glyph glyph-name="uniF6CA" unicode="&#xf6ca;" horiz-adv-x="211" 
d="M89 780l-68 219h42l43 -144l42 144h42l-68 -219h-33z" />
    <glyph glyph-name="uniF6CB" unicode="&#xf6cb;" horiz-adv-x="212" 
d="M153 812c-18 0 -27 28 -27 77s9 77 27 77c16 0 27 -28 27 -77s-11 -77 -27 -77zM59 812c-17 0 -27 28 -27 77s10 77 27 77s27 -28 27 -77s-10 -77 -27 -77z" />
    <glyph glyph-name="uniF6CE" unicode="&#xf6ce;" horiz-adv-x="106" 
d="M88 780h-36l-34 219h51z" />
    <glyph glyph-name="uniF6CF" unicode="&#xf6cf;" horiz-adv-x="215" 
d="M60 780h-35l20 219h51zM148 780h-36l27 219h51z" />
    <glyph glyph-name="uniF6D0" unicode="&#xf6d0;" horiz-adv-x="211" 
d="M183 831h-155v116h155v-116z" />
    <glyph glyph-name="uni20BD" unicode="&#x20bd;" horiz-adv-x="209" 
d="M193 486c0 -135 -29 -214 -79 -214h-44v-64h99v-116h-99v-92h-42v92h-28v116h28v64h-28v116h28v312h86c50 0 79 -79 79 -214zM151 486c0 62 -13 98 -37 98h-44v-196h44c24 0 37 36 37 98z" />
    <glyph glyph-name="Breve" horiz-adv-x="211" 
d="M106 886c28 0 42 35 42 98v15h42v-15c0 -136 -32 -214 -84 -214c-53 0 -85 78 -85 214v15h42v-15c0 -63 15 -98 43 -98z" />
    <glyph glyph-name="Cedilla" horiz-adv-x="101" 
d="M50 -95c0 17 -3 25 -12 25h-11v124h36v-70c17 -15 23 -59 23 -104c0 -81 -19 -117 -46 -117c-7 0 -14 2 -22 7v115c6 -4 11 -6 16 -6c11 0 16 7 16 26z" />
    <glyph glyph-name="Circumflex" horiz-adv-x="211" 
d="M63 780h-42l68 219h33l68 -219h-42l-42 144z" />
    <glyph glyph-name="Dotaccent" horiz-adv-x="118" 
d="M59 812c-17 0 -27 28 -27 77s10 77 27 77s27 -28 27 -77s-10 -77 -27 -77z" />
    <glyph glyph-name="Ogonek" horiz-adv-x="115" 
d="M74 54l6 -54c-9 -12 -16 -35 -16 -68c0 -42 7 -53 16 -53c7 0 11 2 15 6v-115c-8 -5 -15 -7 -21 -7c-27 0 -46 39 -46 127c0 89 21 134 46 164z" />
    <glyph glyph-name="Tilde" horiz-adv-x="212" 
d="M140 1009c34 0 58 -47 58 -204v-25h-42v51c0 46 -6 62 -16 62c-15 0 -33 -123 -69 -123c-34 0 -57 47 -57 204v25h42v-51c0 -46 6 -62 15 -62c16 0 32 123 69 123z" />
    <glyph glyph-name="idotaccent" horiz-adv-x="97" 
d="M68 500v-500h-40v500h40zM49 590c-17 0 -27 27 -27 73s10 73 27 73s27 -27 27 -73s-11 -73 -27 -73z" />
    <glyph glyph-name="undercommaaccent" horiz-adv-x="82" 
d="M44 -257h-27v122c0 43 9 69 24 69s24 -26 24 -69c0 -19 -2 -46 -8 -72z" />
    <glyph glyph-name="hyphen.uc" horiz-adv-x="160" 
d="M134 415v-116h-108v116h108z" />
    <glyph glyph-name="endash.uc" horiz-adv-x="191" 
d="M14 295v123h163v-123h-163z" />
    <glyph glyph-name="emdash.uc" horiz-adv-x="255" 
d="M11 295v123h233v-123h-233z" />
    <glyph glyph-name="guillemotleft.uc" horiz-adv-x="194" 
d="M58 348l35 -100v-117h-6l-76 219l76 218h6v-117l-35 -101v-2zM145 348l35 -100v-117h-6l-76 219l76 218h6v-117l-35 -101v-2z" />
    <glyph glyph-name="guillemotright.uc" horiz-adv-x="194" 
d="M14 247l35 100v2l-35 101v117h6l76 -218l-76 -219h-6v117zM101 248l35 100v2l-35 101v117h6l76 -218l-76 -219h-6v117z" />
    <glyph glyph-name="at.uc" horiz-adv-x="330" 
d="M313 350c0 -291 -56 -462 -148 -462c-97 0 -148 171 -148 462s51 462 148 462c93 0 148 -171 148 -462zM55 350c0 -221 37 -356 110 -356c71 0 110 132 110 356c0 221 -40 356 -110 356c-73 0 -110 -135 -110 -356zM170 609c44 0 71 -59 71 -157v-352h-41v61
c-10 -44 -27 -70 -49 -70c-36 0 -58 58 -58 155c0 95 22 151 58 151h49v55c0 30 -11 45 -30 45c-20 0 -31 -15 -31 -45v-12h-41v12c0 98 27 157 72 157zM134 250c0 -31 8 -47 22 -47c27 0 44 28 44 94h-44c-14 0 -22 -15 -22 -47z" />
    <glyph glyph-name="exclamdown.uc" horiz-adv-x="107" 
d="M75 0h-42v518h42v-518zM28 639c0 46 9 73 26 73c16 0 25 -27 25 -73s-9 -73 -25 -73c-17 0 -26 27 -26 73z" />
    <glyph glyph-name="questiondown.uc" horiz-adv-x="208" 
d="M20 197c0 100 22 168 62 187v134h42v-226h-16c-30 0 -46 -36 -46 -95s15 -93 42 -93c28 0 42 30 42 83v45h42v-45c0 -126 -31 -199 -84 -199s-84 77 -84 209zM103 712c17 0 26 -27 26 -73s-9 -73 -26 -73c-16 0 -26 27 -26 73s10 73 26 73z" />
    <glyph glyph-name="uni0414.bgr" horiz-adv-x="265" 
d="M251 116v-315h-42v199h-153v-199h-42v315h23l69 584h54l69 -584h22zM79 116h105l-46 394l-5 68h-2l-6 -68z" />
    <glyph glyph-name="uni0416.bgr" horiz-adv-x="344" 
d="M281 700h43l-60 -331l68 -369h-43l-56 310h-40v-310h-42v310h-39l-57 -310h-43l69 371l-60 329h43l48 -274h39v274h42v-274h39z" />
    <glyph glyph-name="uni041A.bgr" horiz-adv-x="227" 
d="M30 0v700h42v-284h35l57 284h43l-70 -342l78 -358h-44l-64 300h-35v-300h-42z" />
    <glyph glyph-name="uni041B.bgr" horiz-adv-x="231" 
d="M84 700h62l71 -700h-42l-60 603h-2l-6 -73l-54 -530h-40z" />
    <glyph glyph-name="uni0432.bgr" horiz-adv-x="200" 
d="M105 -10c-48 0 -77 83 -77 215v328c0 156 27 227 74 227c46 0 74 -71 74 -227c0 -76 -8 -135 -26 -169c20 -33 32 -93 32 -159c0 -132 -29 -215 -77 -215zM102 647c-22 0 -33 -27 -33 -114v-124h33c26 0 34 45 34 124c0 87 -12 114 -34 114zM141 205c0 62 -9 102 -28 102
h-44v-102c0 -65 13 -102 36 -102c24 0 36 37 36 102z" />
    <glyph glyph-name="uni0433.bgr" horiz-adv-x="186" 
d="M60 149c0 -24 7 -45 33 -45c21 0 32 16 32 45v24h41v-24c0 -93 -28 -158 -73 -158c-51 0 -73 77 -73 158c0 128 103 104 103 202c0 24 -6 45 -31 45c-20 0 -30 -14 -30 -45v-17h-41v17c0 99 27 158 71 158c49 0 71 -75 71 -158c0 -128 -103 -104 -103 -202z" />
    <glyph glyph-name="uni0434.bgr" horiz-adv-x="213" 
d="M20 250c0 160 27 259 76 259c23 0 38 -22 48 -62v53h41v-559c0 -135 -27 -198 -83 -198c-55 0 -82 63 -82 198h40c0 -58 14 -86 42 -86c29 0 42 28 42 86v112c-10 -40 -25 -62 -48 -62c-49 0 -76 100 -76 259zM103 104c28 0 41 44 41 121v50c0 77 -13 121 -41 121
c-29 0 -43 -42 -43 -146c0 -103 14 -146 43 -146z" />
    <glyph glyph-name="uni0436.bgr" horiz-adv-x="273" 
d="M156 0h-40v198h-26l-36 -198h-42l47 261l-44 239h41l35 -190h25v440h40v-440h25l36 190h40l-44 -239l48 -261h-43l-36 198h-26v-198z" />
    <glyph glyph-name="uni0437.bgr" horiz-adv-x="182" 
d="M85 396c-28 0 -36 -35 -36 -90v-26h-40v26c0 109 23 203 76 203c54 0 77 -93 77 -206c0 -71 -8 -120 -24 -149c18 -34 26 -92 26 -178c0 -130 -24 -236 -79 -236c-54 0 -79 106 -79 236v30h41v-30c0 -70 8 -123 38 -123c31 0 39 53 39 123s-9 123 -39 123h-27v112h27
c30 0 36 35 36 92s-7 93 -36 93z" />
    <glyph glyph-name="uni0438.bgr" 
d="M138 52c-10 -40 -25 -61 -46 -61c-42 0 -64 71 -64 205v304h40v-304c0 -60 11 -92 32 -92c25 0 38 44 38 121v275h40v-500h-40v52z" />
    <glyph glyph-name="uni0439.bgr" 
d="M138 52c-10 -40 -25 -61 -46 -61c-42 0 -64 71 -64 205v304h40v-304c0 -60 11 -92 32 -92c25 0 38 44 38 121v275h40v-500h-40v52zM73 739c0 -43 10 -67 29 -67c20 0 29 24 29 67v11h41v-11c0 -109 -27 -172 -70 -172s-70 63 -70 172v11h41v-11z" />
    <glyph glyph-name="uni043A.bgr" horiz-adv-x="189" 
d="M68 0h-40v750h40v-439h28l39 189h41l-50 -247l55 -253h-42l-43 199h-28v-199z" />
    <glyph glyph-name="uni043B.bgr" horiz-adv-x="177" 
d="M112 500l60 -500h-41l-32 280l-10 104h-3l-10 -104l-32 -280h-39l60 500h47z" />
    <glyph glyph-name="uni043C.bgr" horiz-adv-x="304" 
d="M68 450c9 38 23 59 43 59c22 0 39 -21 49 -62c11 40 29 62 55 62c41 0 61 -71 61 -205v-304h-40v304c0 61 -9 93 -29 93c-23 0 -35 -44 -35 -122v-275h-40v304c0 61 -9 93 -29 93c-23 0 -35 -44 -35 -122v-275h-40v500h40v-50z" />
    <glyph glyph-name="uni043F.bgr" 
d="M68 449c10 39 24 60 45 60c43 0 65 -71 65 -205v-304h-40v304c0 61 -11 93 -32 93c-25 0 -38 -44 -38 -122v-275h-40v500h40v-51z" />
    <glyph glyph-name="uni0446.bgr" horiz-adv-x="212" 
d="M138 52c-10 -40 -25 -61 -46 -61c-42 0 -64 71 -64 205v304h40v-304c0 -60 11 -92 32 -92c25 0 38 44 38 121v275h40v-388h21v-261h-40v149h-21v52z" />
    <glyph glyph-name="uni0448.bgr" horiz-adv-x="306" 
d="M238 50c-9 -38 -23 -59 -43 -59c-22 0 -39 21 -49 62c-11 -40 -29 -62 -55 -62c-41 0 -61 71 -61 205v304h40v-304c0 -61 9 -93 29 -93c23 0 35 44 35 122v275h40v-304c0 -61 9 -93 29 -93c23 0 35 44 35 122v275h40v-500h-40v50z" />
    <glyph glyph-name="uni0449.bgr" horiz-adv-x="312" 
d="M238 50c-9 -38 -23 -59 -43 -59c-22 0 -39 21 -49 62c-11 -40 -29 -62 -55 -62c-41 0 -61 71 -61 205v304h40v-304c0 -61 9 -93 29 -93c23 0 35 44 35 122v275h40v-304c0 -61 9 -93 29 -93c23 0 35 44 35 122v275h40v-388h21v-261h-40v149h-21v50z" />
    <glyph glyph-name="uni044A.bgr" horiz-adv-x="199" 
d="M86 240v-69c0 -43 9 -69 29 -69s29 26 29 69c0 44 -7 69 -23 69h-35zM45 388h-41v112h82v-148h35c43 0 64 -67 64 -181c0 -112 -23 -181 -70 -181c-46 0 -70 69 -70 181v217z" />
    <glyph glyph-name="uni044B.bgr" horiz-adv-x="260" 
d="M69 240v-69c0 -43 9 -69 29 -69s29 26 29 69c0 44 -7 69 -23 69h-35zM28 171v329h41v-148h35c43 0 64 -67 64 -181c0 -112 -23 -181 -70 -181s-70 69 -70 181zM232 500v-500h-41v500h41z" />
    <glyph glyph-name="uni044C.bgr" horiz-adv-x="182" 
d="M69 240v-69c0 -43 9 -69 29 -69s29 26 29 69c0 44 -7 69 -23 69h-35zM28 171v329h41v-148h35c43 0 64 -67 64 -181c0 -112 -23 -181 -70 -181s-70 69 -70 181z" />
    <glyph glyph-name="uni044E.bgr" horiz-adv-x="284" 
d="M101 309c7 126 34 200 81 200c54 0 82 -97 82 -259c0 -163 -28 -259 -82 -259c-48 0 -75 75 -81 206h-32v-197h-41v750h41v-441h32zM141 250c0 -93 14 -146 41 -146s42 53 42 146c0 92 -15 146 -42 146s-41 -54 -41 -146z" />
    <glyph glyph-name="uni04C1" unicode="&#x4c1;" horiz-adv-x="344" 
d="M281 700h43l-60 -331l68 -369h-43l-56 310h-40v-310h-42v310h-39l-57 -310h-43l69 371l-60 329h43l48 -274h39v274h42v-274h39zM130 984c0 -63 15 -98 43 -98s42 35 42 98v15h42v-15c0 -136 -32 -214 -84 -214c-53 0 -85 78 -85 214v15h42v-15z" />
    <glyph glyph-name="uni04E2" unicode="&#x4e2;" horiz-adv-x="255" 
d="M159 700h66v-700h-41v500l3 84h-2l-89 -584h-66v700h42v-500l-3 -84h2zM205 831h-155v116h155v-116z" />
    <glyph glyph-name="uni04E6" unicode="&#x4e6;" horiz-adv-x="258" 
d="M194 350c0 153 -23 246 -65 246s-65 -93 -65 -246s23 -246 65 -246s65 93 65 246zM22 350c0 228 40 362 107 362s107 -134 107 -362s-40 -362 -107 -362s-107 134 -107 362zM176 812c-18 0 -27 28 -27 77s9 77 27 77c16 0 27 -28 27 -77s-11 -77 -27 -77zM82 812
c-17 0 -27 28 -27 77s10 77 27 77s27 -28 27 -77s-10 -77 -27 -77z" />
    <glyph glyph-name="uni04EE" unicode="&#x4ee;" horiz-adv-x="214" 
d="M50 700l51 -309l9 -79h2l9 79l43 309h38l-71 -503c-25 -175 -40 -201 -80 -201h-5v116h5c17 0 32 4 43 80l-84 508h40zM184 831h-155v116h155v-116z" />
    <glyph glyph-name="uni04F2" unicode="&#x4f2;" horiz-adv-x="214" 
d="M50 700l51 -309l9 -79h2l9 79l43 309h38l-71 -503c-25 -175 -40 -201 -80 -201h-5v116h5c17 0 32 4 43 80l-84 508h40zM81 780h-35l20 219h51zM169 780h-36l27 219h51z" />
    </font>
</defs>
</svg>
