<?xml version="1.0" standalone="no"?>
<!DOCTYPE svg PUBLIC "-//W3C//DTD SVG 1.1//EN" "http://www.w3.org/Graphics/SVG/1.1/DTD/svg11.dtd" >
<svg xmlns="http://www.w3.org/2000/svg" xmlns:xlink="http://www.w3.org/1999/xlink" version="1.1">
<metadata>
Created by FontForge 20190801 at Wed Nov  6 22:53:23 2019
 By Jimmy Wärting
\(c\) Nikita Kanarev Fonts, 2018
</metadata>
<defs>
<font id="Archaism-Ct1Wd25" horiz-adv-x="302" >
  <font-face 
    font-family="Archaism"
    font-weight="350"
    font-stretch="normal"
    units-per-em="1000"
    panose-1="0 0 0 0 0 0 0 0 0 0"
    ascent="750"
    descent="-250"
    x-height="500"
    cap-height="700"
    bbox="-72 -278 1048 1143"
    underline-thickness="50"
    underline-position="-100"
    stemh="79"
    stemv="50"
    unicode-range="U+000D-FB02"
  />
<missing-glyph horiz-adv-x="1068" 
d="M365 425l-59 -60s-3 -9 -10 -16c-33 -34 -89 -35 -126 -65c20 -27 77 -84 118 -118c24 43 23 104 51 131c2 3 5 4 9 4c7 0 15 -5 20 -8c1 -1 2 -1 4 -1s4 1 5 2l-21 21l59 60zM520 238c-35 36 -45 67 -45 67l-61 60l-49 -50l74 -74c45 -44 108 -88 150 -130
c33 -32 60 -68 68 -90l15 -8l40 40c-9 15 -29 39 -58 69c-57 56 -83 67 -134 116zM757 380l-49 49l-7 -5l50 -50zM572 200c17 13 33 27 121 115l-50 50l-60 -60s-11 -31 -50 -70c14 -15 27 -26 39 -35zM762 349c-7 7 -10 16 -10 16l-60 60l-50 -50l59 -60l-21 -21
c1 -1 3 -2 5 -2c1 0 2 0 3 1c5 3 14 8 21 8c4 0 7 -1 10 -4c27 -27 27 -88 51 -131c40 34 98 91 118 118c-38 30 -93 31 -126 65zM524 161l-39 32c-24 -20 -47 -38 -81 -71c-30 -30 -49 -54 -59 -69l41 -40l14 8c20 48 83 105 124 140zM350 429l-50 -49l6 -6l50 50z
M524 -278l-504 504v19l505 505h19l504 -504v-18l-505 -506h-19z" />
    <glyph glyph-name="fb" unicode="fb" horiz-adv-x="502" 
d="M51 585c0 107 35 165 104 165h131v-313c15 48 41 72 79 72c77 0 113 -86 113 -259c0 -174 -36 -259 -113 -259c-38 0 -64 24 -79 72v-63h-50v664h-81c-39 0 -54 -29 -54 -79v-85h72v-82h-72v-418h-50v418h-30v82h30v85zM357 426c-47 0 -71 -55 -71 -151v-50
c0 -96 24 -151 71 -151c52 0 71 51 71 176s-19 176 -71 176z" />
    <glyph glyph-name="fh" unicode="fh" horiz-adv-x="497" 
d="M51 585c0 107 35 165 104 165h131v-310c15 45 39 69 75 69c67 0 96 -63 96 -205v-304h-50v304c0 84 -16 123 -56 123c-43 0 -65 -55 -65 -152v-275h-50v664h-81c-39 0 -54 -29 -54 -79v-85h72v-82h-72v-418h-50v418h-30v82h30v85z" />
    <glyph glyph-name="fj" unicode="fj" horiz-adv-x="327" 
d="M169 760c74 0 117 -66 117 -197v-10h-50v10c0 80 -23 114 -67 114c-45 0 -68 -34 -68 -114v-63h72v-82h-72v-418h-50v418h-30v82h30v63c0 131 43 197 118 197zM205 -257c-58 0 -82 59 -82 179h50c0 -80 11 -97 32 -97c20 0 31 17 31 97v578h51v-579
c0 -124 -25 -178 -82 -178z" />
    <glyph glyph-name="fk" unicode="fk" horiz-adv-x="473" 
d="M51 585c0 107 35 165 104 165h131v-454h33l72 204h63l-92 -246l99 -254h-56l-78 214h-41v-214h-50v664h-81c-39 0 -54 -29 -54 -79v-85h72v-82h-72v-418h-50v418h-30v82h30v85z" />
    <glyph glyph-name="ft" unicode="ft" horiz-adv-x="410" 
d="M304 74c25 0 39 15 39 95h49c0 -115 -25 -178 -88 -178c-61 0 -88 55 -88 178v249h-115v-418h-50v418h-30v82h30v85c0 107 35 165 104 165h24v-86h-24c-39 0 -54 -29 -54 -79v-85h115l12 107h39v-107h87v-82h-87v-249c0 -80 13 -95 37 -95z" />
    <glyph glyph-name="fi" unicode="fi" horiz-adv-x="331" 
d="M169 760c74 0 117 -66 117 -197v-10h-50v10c0 80 -23 114 -67 114c-45 0 -68 -34 -68 -114v-63h72v-82h-72v-418h-50v418h-30v82h30v63c0 131 43 197 118 197zM236 500h50v-500h-50v500z" />
    <glyph glyph-name="fl" unicode="fl" horiz-adv-x="325" 
d="M51 585c0 107 35 165 104 165h131v-750h-50v664h-81c-39 0 -54 -29 -54 -79v-85h72v-82h-72v-418h-50v418h-30v82h30v85z" />
    <glyph glyph-name=".notdef" horiz-adv-x="1068" 
d="M365 425l-59 -60s-3 -9 -10 -16c-33 -34 -89 -35 -126 -65c20 -27 77 -84 118 -118c24 43 23 104 51 131c2 3 5 4 9 4c7 0 15 -5 20 -8c1 -1 2 -1 4 -1s4 1 5 2l-21 21l59 60zM520 238c-35 36 -45 67 -45 67l-61 60l-49 -50l74 -74c45 -44 108 -88 150 -130
c33 -32 60 -68 68 -90l15 -8l40 40c-9 15 -29 39 -58 69c-57 56 -83 67 -134 116zM757 380l-49 49l-7 -5l50 -50zM572 200c17 13 33 27 121 115l-50 50l-60 -60s-11 -31 -50 -70c14 -15 27 -26 39 -35zM762 349c-7 7 -10 16 -10 16l-60 60l-50 -50l59 -60l-21 -21
c1 -1 3 -2 5 -2c1 0 2 0 3 1c5 3 14 8 21 8c4 0 7 -1 10 -4c27 -27 27 -88 51 -131c40 34 98 91 118 118c-38 30 -93 31 -126 65zM524 161l-39 32c-24 -20 -47 -38 -81 -71c-30 -30 -49 -54 -59 -69l41 -40l14 8c20 48 83 105 124 140zM350 429l-50 -49l6 -6l50 50z
M524 -278l-504 504v19l505 505h19l504 -504v-18l-505 -506h-19z" />
    <glyph glyph-name="uni0000" horiz-adv-x="0" 
 />
    <glyph glyph-name="uni0000" horiz-adv-x="0" 
 />
    <glyph glyph-name="uni000D" unicode="&#xd;" horiz-adv-x="250" 
 />
    <glyph glyph-name="space" unicode=" " horiz-adv-x="183" 
 />
    <glyph glyph-name="uni2009" unicode="&#x2009;" horiz-adv-x="50" 
 />
    <glyph glyph-name="A" unicode="A" horiz-adv-x="333" 
d="M243 139h-153l-20 -139h-52l102 700h92l104 -700h-53zM101 225h129l-40 275l-14 119h-21l-15 -119z" />
    <glyph glyph-name="Agrave" unicode="&#xc0;" horiz-adv-x="333" 
d="M243 139h-153l-20 -139h-52l102 700h92l104 -700h-53zM101 225h129l-40 275l-14 119h-21l-15 -119zM158 999l28 -219h-43l-60 219h75z" />
    <glyph glyph-name="Aacute" unicode="&#xc1;" horiz-adv-x="333" 
d="M243 139h-153l-20 -139h-52l102 700h92l104 -700h-53zM101 225h129l-40 275l-14 119h-21l-15 -119zM190 780h-43l24 219h75z" />
    <glyph glyph-name="Acircumflex" unicode="&#xc2;" horiz-adv-x="333" 
d="M243 139h-153l-20 -139h-52l102 700h92l104 -700h-53zM101 225h129l-40 275l-14 119h-21l-15 -119zM110 780h-67l104 219h40l104 -219h-66l-57 151z" />
    <glyph glyph-name="Atilde" unicode="&#xc3;" horiz-adv-x="333" 
d="M243 139h-153l-20 -139h-52l102 700h92l104 -700h-53zM119 861c37 0 29 148 103 148c49 0 80 -42 75 -174v-55h-61l1 68c2 50 -7 69 -24 69c-36 0 -29 -147 -102 -147c-49 0 -80 42 -75 174v55h61l-1 -68c-2 -50 7 -70 23 -70zM101 225h129l-40 275l-14 119h-21l-15 -119
z" />
    <glyph glyph-name="Adieresis" unicode="&#xc4;" horiz-adv-x="333" 
d="M243 139h-153l-20 -139h-52l102 700h92l104 -700h-53zM101 225h129l-40 275l-14 119h-21l-15 -119zM136 889c0 -41 -15 -64 -40 -64s-39 23 -39 64s14 64 39 64s40 -23 40 -64zM273 889c0 -41 -15 -64 -40 -64s-39 23 -39 64s14 64 39 64s40 -23 40 -64z" />
    <glyph glyph-name="Aring" unicode="&#xc5;" horiz-adv-x="333" 
d="M247 837c0 -68 -12 -114 -35 -139l104 -698h-53l-20 139h-153l-20 -139h-52l102 698c-23 24 -35 71 -35 139c0 107 29 159 81 159c51 0 81 -52 81 -159zM101 225h129l-40 275l-14 119h-21l-15 -119zM126 837c0 -60 14 -85 40 -85c25 0 40 25 40 85s-15 85 -40 85
c-26 0 -40 -25 -40 -85z" />
    <glyph glyph-name="Amacron" unicode="&#x100;" horiz-adv-x="333" 
d="M243 139h-153l-20 -139h-52l102 700h92l104 -700h-53zM101 225h129l-40 275l-14 119h-21l-15 -119zM280 932v-86h-227v86h227z" />
    <glyph glyph-name="Abreve" unicode="&#x102;" horiz-adv-x="333" 
d="M243 139h-153l-20 -139h-52l102 700h92l104 -700h-53zM95 984c0 -86 21 -128 72 -128s72 42 72 128v15h52v-15c0 -137 -40 -214 -124 -214c-85 0 -124 77 -124 214v15h52v-15zM101 225h129l-40 275l-14 119h-21l-15 -119z" />
    <glyph glyph-name="Aogonek" unicode="&#x104;" horiz-adv-x="333" 
d="M237 -123c0 54 10 94 28 123h-3l-19 139h-154l-19 -139h-52l102 700h92l104 -700c-21 -20 -30 -53 -30 -96c0 -40 11 -54 27 -54c11 0 18 2 26 6v-86c-12 -5 -23 -7 -34 -7c-43 0 -68 34 -68 114zM101 225h129l-40 275l-14 119h-22l-14 -119z" />
    <glyph glyph-name="Aringacute" unicode="&#x1fa;" horiz-adv-x="333" 
d="M247 837c0 -68 -12 -114 -35 -139l104 -698h-53l-20 139h-153l-20 -139h-52l102 698c-23 24 -35 71 -35 139c0 97 24 148 66 158l27 148h65l-50 -153c35 -16 54 -67 54 -153zM101 225h129l-40 275l-14 119h-21l-15 -119zM126 837c0 -60 14 -85 40 -85c25 0 40 25 40 85
s-15 85 -40 85c-26 0 -40 -25 -40 -85z" />
    <glyph glyph-name="B" unicode="B" horiz-adv-x="330" 
d="M296 201c0 -127 -45 -201 -128 -201h-125v700h125c86 0 122 -72 122 -193c0 -74 -17 -126 -55 -149c39 -27 61 -82 61 -157zM244 201c0 71 -26 113 -76 113h-74v-228h74c50 0 76 42 76 115zM238 507c0 65 -16 107 -70 107h-74v-214h74c54 0 70 39 70 107z" />
    <glyph glyph-name="C" unicode="C" horiz-adv-x="359" 
d="M328 417h-52v15c0 125 -37 192 -92 192c-70 0 -103 -103 -103 -274s33 -274 103 -274c55 0 92 72 92 203v17h53v-17c0 -196 -59 -289 -145 -289c-101 0 -154 115 -154 360s53 360 154 360c85 0 144 -89 144 -278v-15z" />
    <glyph glyph-name="Ccedilla" unicode="&#xc7;" horiz-adv-x="359" 
d="M184 710c85 0 144 -89 144 -278v-15h-52v15c0 125 -37 192 -92 192c-70 0 -103 -103 -103 -274s33 -274 103 -274c55 0 92 72 92 203v17h53v-17c0 -178 -49 -271 -122 -287v-13c33 -13 40 -53 40 -99c0 -79 -27 -117 -73 -117c-12 0 -23 2 -34 7v86c11 -4 20 -6 30 -6
c20 0 27 13 27 46c0 26 -5 39 -24 39h-13v57c-85 18 -130 133 -130 358c0 245 53 360 154 360z" />
    <glyph glyph-name="Cacute" unicode="&#x106;" horiz-adv-x="359" 
d="M328 417h-52v15c0 125 -37 192 -92 192c-70 0 -103 -103 -103 -274s33 -274 103 -274c55 0 92 72 92 203v17h53v-17c0 -196 -59 -289 -145 -289c-101 0 -154 115 -154 360s53 360 154 360c85 0 144 -89 144 -278v-15zM161 780l24 219h75l-56 -219h-43z" />
    <glyph glyph-name="Ccircumflex" unicode="&#x108;" horiz-adv-x="359" 
d="M184 710c85 0 144 -89 144 -278v-15h-52v15c0 125 -37 192 -92 192c-70 0 -103 -103 -103 -274s33 -274 103 -274c55 0 92 72 92 203v17h53v-17c0 -196 -59 -289 -145 -289c-101 0 -154 115 -154 360s53 360 154 360zM122 780h-66l103 219h41l104 -219h-67l-57 150z" />
    <glyph glyph-name="Cdotaccent" unicode="&#x10a;" horiz-adv-x="359" 
d="M328 417h-52v15c0 125 -37 192 -92 192c-70 0 -103 -103 -103 -274s33 -274 103 -274c55 0 92 72 92 203v17h53v-17c0 -196 -59 -289 -145 -289c-101 0 -154 115 -154 360s53 360 154 360c85 0 144 -89 144 -278v-15zM179 825c-26 0 -40 23 -40 64s14 64 40 64
c24 0 39 -23 39 -64s-15 -64 -39 -64z" />
    <glyph glyph-name="Ccaron" unicode="&#x10c;" horiz-adv-x="359" 
d="M184 710c85 0 144 -89 144 -278v-15h-52v15c0 125 -37 192 -92 192c-70 0 -103 -103 -103 -274s33 -274 103 -274c55 0 92 72 92 203v17h53v-17c0 -196 -59 -289 -145 -289c-101 0 -154 115 -154 360s53 360 154 360zM159 780l-103 219h67l57 -147l57 147h67l-104 -219
h-41z" />
    <glyph glyph-name="D" unicode="D" horiz-adv-x="356" 
d="M43 700h120c112 0 164 -126 164 -350s-52 -350 -164 -350h-120v700zM163 614h-69v-528h69c77 0 112 99 112 264c0 164 -35 264 -112 264z" />
    <glyph glyph-name="Dcaron" unicode="&#x10e;" horiz-adv-x="356" 
d="M327 350c0 -224 -52 -350 -164 -350h-120v700h120c112 0 164 -126 164 -350zM275 350c0 164 -35 264 -112 264h-68v-528h68c77 0 112 99 112 264zM154 780l-104 219h68l57 -148l56 148h67l-103 -219h-41z" />
    <glyph glyph-name="E" unicode="E" horiz-adv-x="298" 
d="M43 0v700h225v-86h-174v-215h165v-86h-165v-227h174v-86h-225z" />
    <glyph glyph-name="Egrave" unicode="&#xc8;" horiz-adv-x="295" 
d="M43 0v700h225v-86h-174v-215h165v-86h-165v-227h174v-86h-225zM177 780h-44l-59 219h75z" />
    <glyph glyph-name="Eacute" unicode="&#xc9;" horiz-adv-x="295" 
d="M43 0v700h225v-86h-174v-215h165v-86h-165v-227h174v-86h-225zM137 780l24 219h75l-56 -219h-43z" />
    <glyph glyph-name="Ecircumflex" unicode="&#xca;" horiz-adv-x="296" 
d="M268 0h-225v700h225v-86h-173v-215h165v-86h-165v-227h173v-86zM98 780h-67l104 219h41l104 -219h-67l-57 151z" />
    <glyph glyph-name="Edieresis" unicode="&#xcb;" horiz-adv-x="295" 
d="M43 0v700h225v-86h-174v-215h165v-86h-165v-227h174v-86h-225zM224 825c-26 0 -40 23 -40 64s14 64 40 64c24 0 40 -23 40 -64s-16 -64 -40 -64zM87 825c-26 0 -40 23 -40 64s14 64 40 64c24 0 39 -23 39 -64s-15 -64 -39 -64z" />
    <glyph glyph-name="Emacron" unicode="&#x112;" horiz-adv-x="295" 
d="M43 0v700h225v-86h-174v-215h165v-86h-165v-227h174v-86h-225zM268 846h-227v86h227v-86z" />
    <glyph glyph-name="Ebreve" unicode="&#x114;" horiz-adv-x="295" 
d="M43 0v700h225v-86h-174v-215h165v-86h-165v-227h174v-86h-225zM154 856c52 0 72 42 72 128v15h52v-15c0 -137 -40 -214 -124 -214c-85 0 -124 77 -124 214v15h52v-15c0 -86 21 -128 72 -128z" />
    <glyph glyph-name="Edotaccent" unicode="&#x116;" horiz-adv-x="295" 
d="M43 0v700h225v-86h-174v-215h165v-86h-165v-227h174v-86h-225zM155 825c-25 0 -39 23 -39 64s14 64 39 64s40 -23 40 -64s-15 -64 -40 -64z" />
    <glyph glyph-name="Eogonek" unicode="&#x118;" horiz-adv-x="295" 
d="M188 -123c0 54 10 94 29 123h-174v700h225v-86h-174v-215h165v-86h-165v-227h174v-86c-22 -20 -30 -53 -30 -96c0 -40 11 -54 27 -54c11 0 18 2 25 6v-86c-11 -5 -22 -7 -33 -7c-43 0 -69 34 -69 114z" />
    <glyph glyph-name="Ecaron" unicode="&#x11a;" horiz-adv-x="296" 
d="M268 0h-225v700h225v-86h-174v-215h165v-86h-165v-227h174v-86zM136 780l-104 219h67l57 -147l57 147h67l-104 -219h-40z" />
    <glyph glyph-name="F" unicode="F" horiz-adv-x="288" 
d="M94 0h-51v700h225v-86h-174v-215h165v-86h-165v-313z" />
    <glyph glyph-name="G" unicode="G" horiz-adv-x="366" 
d="M184 76c56 0 94 54 94 153v8h-101v86h153v-323h-52v73c-20 -57 -53 -83 -94 -83c-101 0 -154 122 -154 360c0 245 53 360 154 360c85 0 144 -89 144 -278v-15h-52v15c0 125 -37 192 -92 192c-70 0 -103 -103 -103 -274s33 -274 103 -274z" />
    <glyph glyph-name="Gcircumflex" unicode="&#x11c;" horiz-adv-x="365" 
d="M184 76c56 0 94 54 94 153v8h-101v86h153v-323h-52v73c-20 -57 -53 -83 -94 -83c-101 0 -154 122 -154 360c0 245 53 360 154 360c85 0 144 -89 144 -278v-15h-52v15c0 125 -37 192 -92 192c-70 0 -103 -103 -103 -274s33 -274 103 -274zM122 780h-67l104 219h41
l104 -219h-67l-57 151z" />
    <glyph glyph-name="Gbreve" unicode="&#x11e;" horiz-adv-x="365" 
d="M184 76c56 0 94 54 94 153v8h-101v86h153v-323h-52v73c-20 -57 -53 -83 -94 -83c-101 0 -154 122 -154 360c0 245 53 360 154 360c85 0 144 -89 144 -278v-15h-52v15c0 125 -37 192 -92 192c-70 0 -103 -103 -103 -274s33 -274 103 -274zM107 984c0 -86 21 -128 72 -128
c52 0 72 42 72 128v15h52v-15c0 -137 -40 -214 -124 -214c-85 0 -124 77 -124 214v15h52v-15z" />
    <glyph glyph-name="Gdotaccent" unicode="&#x120;" horiz-adv-x="365" 
d="M184 76c56 0 94 54 94 153v8h-101v86h153v-323h-52v73c-20 -57 -53 -83 -94 -83c-101 0 -154 122 -154 360c0 245 53 360 154 360c85 0 144 -89 144 -278v-15h-52v15c0 125 -37 192 -92 192c-70 0 -103 -103 -103 -274s33 -274 103 -274zM219 889c0 -41 -15 -64 -39 -64
c-26 0 -40 23 -40 64s14 64 40 64c24 0 39 -23 39 -64z" />
    <glyph glyph-name="uni0122" unicode="&#x122;" horiz-adv-x="365" 
d="M184 76c56 0 94 54 94 153v8h-101v86h153v-323h-52v73c-20 -57 -53 -83 -94 -83c-101 0 -154 122 -154 360c0 245 53 360 154 360c85 0 144 -89 144 -278v-15h-52v15c0 125 -37 192 -92 192c-70 0 -103 -103 -103 -274s33 -274 103 -274zM224 -118c0 -19 -5 -46 -14 -69
l-23 -64h-34l-2 132c-1 37 12 60 36 60c23 0 37 -22 37 -59z" />
    <glyph glyph-name="H" unicode="H" horiz-adv-x="357" 
d="M315 0h-52v314h-169v-314h-51v700h51v-300h169v300h52v-700z" />
    <glyph glyph-name="Hcircumflex" unicode="&#x124;" horiz-adv-x="356" 
d="M315 700v-700h-52v314h-169v-314h-51v700h51v-300h169v300h52zM120 780h-66l104 219h40l104 -219h-67l-57 150z" />
    <glyph glyph-name="I" unicode="I" horiz-adv-x="181" 
d="M40 0v86h25v528h-25v86h101v-86h-24v-528h24v-86h-101z" />
    <glyph glyph-name="Igrave" unicode="&#xcc;" horiz-adv-x="180" 
d="M40 0v86h25v528h-25v86h101v-86h-24v-528h24v-86h-101zM110 780h-43l-60 219h75z" />
    <glyph glyph-name="Iacute" unicode="&#xcd;" horiz-adv-x="180" 
d="M40 0v86h25v528h-25v86h101v-86h-24v-528h24v-86h-101zM65 780l25 219h75l-56 -219h-44z" />
    <glyph glyph-name="Icircumflex" unicode="&#xce;" horiz-adv-x="180" 
d="M141 0h-101v86h25v528h-25v86h101v-86h-24v-528h24v-86zM49 780h-66l87 219h40l87 -219h-66l-41 148z" />
    <glyph glyph-name="Idieresis" unicode="&#xcf;" horiz-adv-x="180" 
d="M40 0v86h25v528h-25v86h101v-86h-24v-528h24v-86h-101zM147 825c-26 0 -39 23 -39 64s13 64 39 64c24 0 40 -23 40 -64s-16 -64 -40 -64zM33 825c-26 0 -40 23 -40 64s14 64 40 64c24 0 39 -23 39 -64s-15 -64 -39 -64z" />
    <glyph glyph-name="Itilde" unicode="&#x128;" horiz-adv-x="180" 
d="M40 0v86h25v528h-25v86h101v-86h-24v-528h24v-86h-101zM142 1009c48 0 79 -42 74 -174v-55h-60l1 68c2 50 -7 69 -23 69c-32 0 -28 -147 -98 -147c-48 0 -78 42 -74 174l1 55h59l-1 -68c-1 -50 7 -70 23 -70c33 0 27 148 98 148z" />
    <glyph glyph-name="Imacron" unicode="&#x12a;" horiz-adv-x="180" 
d="M40 0v86h25v528h-25v86h101v-86h-24v-528h24v-86h-101zM203 846h-227v86h227v-86z" />
    <glyph glyph-name="Ibreve" unicode="&#x12c;" horiz-adv-x="180" 
d="M40 0v86h25v528h-25v86h101v-86h-24v-528h24v-86h-101zM91 856c46 0 64 42 64 128v15h52v-15c0 -137 -37 -214 -116 -214c-80 0 -117 77 -117 214v15h52v-15c0 -86 19 -128 65 -128z" />
    <glyph glyph-name="Iogonek" unicode="&#x12e;" horiz-adv-x="180" 
d="M62 -123c0 54 10 94 28 123h-50v86h25v528h-25v86h101v-86h-24v-528h24v-86c-22 -20 -30 -53 -30 -96c0 -40 11 -54 27 -54c11 0 18 2 25 6v-86c-11 -5 -22 -7 -33 -7c-43 0 -68 34 -68 114z" />
    <glyph glyph-name="Idotaccent" unicode="&#x130;" horiz-adv-x="184" 
d="M43 0v86h24v528h-24v86h100v-86h-24v-528h24v-86h-100zM91 825c-25 0 -39 23 -39 64s14 64 39 64s40 -23 40 -64s-15 -64 -40 -64z" />
    <glyph glyph-name="J" unicode="J" horiz-adv-x="304" 
d="M73 253v-23c0 -105 11 -154 69 -154s69 48 69 154v470h52v-470c0 -158 -28 -240 -121 -240s-121 81 -121 240v23h52z" />
    <glyph glyph-name="Jcircumflex" unicode="&#x134;" horiz-adv-x="308" 
d="M145 -10c-93 0 -121 81 -121 240v23h52v-23c0 -105 11 -154 69 -154c59 0 69 48 69 154v470h52v-470c0 -158 -27 -240 -121 -240zM87 780h-67l104 219h41l103 -219h-66l-57 151z" />
    <glyph glyph-name="K" unicode="K" horiz-adv-x="331" 
d="M43 0v700h51v-298h40l102 298h67l-119 -345l129 -355h-58l-114 316h-47v-316h-51z" />
    <glyph glyph-name="uni0136" unicode="&#x136;" horiz-adv-x="331" 
d="M43 0v700h51v-298h40l102 298h67l-119 -345l129 -355h-58l-114 316h-47v-316h-51zM202 -118c0 -19 -4 -46 -13 -68l-24 -65h-33l-2 132c-1 37 12 60 36 60c23 0 36 -22 36 -59z" />
    <glyph glyph-name="L" unicode="L" horiz-adv-x="282" 
d="M265 86v-86h-222v700h51v-614h171z" />
    <glyph glyph-name="Lacute" unicode="&#x139;" horiz-adv-x="282" 
d="M265 86v-86h-222v700h51v-614h171zM50 780l24 219h75l-55 -219h-44z" />
    <glyph glyph-name="uni013B" unicode="&#x13b;" horiz-adv-x="282" 
d="M265 86v-86h-222v700h51v-614h171zM152 -252h-33l-2 132c-1 37 12 60 36 60c23 0 36 -22 36 -59c0 -19 -4 -45 -13 -68z" />
    <glyph glyph-name="Lcaron" unicode="&#x13d;" horiz-adv-x="288" 
d="M270 86v-86h-222v700h52v-614h170zM220 575h-33l-2 132c-1 37 12 60 35 60c24 0 37 -22 37 -59c0 -19 -5 -45 -13 -68z" />
    <glyph glyph-name="M" unicode="M" horiz-adv-x="451" 
d="M409 700v-700h-52v500l2 92l-100 -462h-58l-100 459l2 -89v-500h-60v700h85l97 -469h2l97 469h85z" />
    <glyph glyph-name="N" unicode="N" horiz-adv-x="368" 
d="M238 0l-147 614h-2l4 -114v-500h-50v700h87l147 -614h2l-3 114v500h49v-700h-87z" />
    <glyph glyph-name="Ntilde" unicode="&#xd1;" horiz-adv-x="366" 
d="M238 0l-147 614h-2l4 -114v-500h-50v700h87l147 -614h2l-3 114v500h49v-700h-87zM238 1009c49 0 80 -42 76 -174l-1 -55h-60v68c2 50 -7 69 -23 69c-37 0 -30 -147 -103 -147c-49 0 -79 42 -75 174l1 55h60v-68c-2 -50 7 -70 23 -70c37 0 28 148 102 148z" />
    <glyph glyph-name="Nacute" unicode="&#x143;" horiz-adv-x="366" 
d="M238 0l-147 614h-2l4 -114v-500h-50v700h87l147 -614h2l-3 114v500h49v-700h-87zM143 780l24 219h75l-55 -219h-44z" />
    <glyph glyph-name="uni0145" unicode="&#x145;" horiz-adv-x="366" 
d="M238 0l-147 614h-2l4 -114v-500h-50v700h87l147 -614h2l-3 114v500h49v-700h-87zM179 -252h-33l-2 132c-1 37 12 60 36 60c23 0 36 -22 36 -59c0 -19 -4 -45 -13 -68z" />
    <glyph glyph-name="Ncaron" unicode="&#x147;" horiz-adv-x="366" 
d="M93 0h-50v700h87l147 -614h2l-3 114v500h49v-700h-87l-147 614h-2l4 -114v-500zM163 780l-104 219h68l57 -148l56 148h68l-104 -219h-41z" />
    <glyph glyph-name="O" unicode="O" horiz-adv-x="368" 
d="M287 350c0 171 -33 274 -103 274s-103 -103 -103 -274s33 -274 103 -274s103 103 103 274zM30 350c0 245 53 360 154 360c100 0 154 -115 154 -360s-54 -360 -154 -360c-101 0 -154 115 -154 360z" />
    <glyph glyph-name="Ograve" unicode="&#xd2;" horiz-adv-x="368" 
d="M287 350c0 171 -33 274 -103 274s-103 -103 -103 -274s33 -274 103 -274s103 103 103 274zM30 350c0 245 53 360 154 360c100 0 154 -115 154 -360s-54 -360 -154 -360c-101 0 -154 115 -154 360zM206 780h-43l-59 219h74z" />
    <glyph glyph-name="Oacute" unicode="&#xd3;" horiz-adv-x="368" 
d="M287 350c0 171 -33 274 -103 274s-103 -103 -103 -274s33 -274 103 -274s103 103 103 274zM30 350c0 245 53 360 154 360c100 0 154 -115 154 -360s-54 -360 -154 -360c-101 0 -154 115 -154 360zM168 780l25 219h75l-56 -219h-44z" />
    <glyph glyph-name="Ocircumflex" unicode="&#xd4;" horiz-adv-x="368" 
d="M184 -10c-101 0 -154 115 -154 360s53 360 154 360c100 0 154 -115 154 -360s-54 -360 -154 -360zM184 76c70 0 103 103 103 274s-33 274 -103 274s-103 -103 -103 -274s33 -274 103 -274zM126 780h-66l104 219h40l104 -219h-67l-57 150z" />
    <glyph glyph-name="Otilde" unicode="&#xd5;" horiz-adv-x="368" 
d="M287 350c0 171 -33 274 -103 274s-103 -103 -103 -274s33 -274 103 -274s103 103 103 274zM30 350c0 245 53 360 154 360c100 0 154 -115 154 -360s-54 -360 -154 -360c-101 0 -154 115 -154 360zM238 1009c49 0 80 -42 76 -174l-1 -55h-61l1 68c2 50 -7 69 -23 69
c-37 0 -30 -147 -103 -147c-49 0 -79 42 -75 174v55h61l-1 -68c-1 -50 7 -70 23 -70c38 0 29 148 103 148z" />
    <glyph glyph-name="Odieresis" unicode="&#xd6;" horiz-adv-x="368" 
d="M287 350c0 171 -33 274 -103 274s-103 -103 -103 -274s33 -274 103 -274s103 103 103 274zM30 350c0 245 53 360 154 360c100 0 154 -115 154 -360s-54 -360 -154 -360c-101 0 -154 115 -154 360zM252 825c-26 0 -40 23 -40 64s14 64 40 64c24 0 39 -23 39 -64
s-15 -64 -39 -64zM114 825c-25 0 -39 23 -39 64s14 64 39 64s40 -23 40 -64s-15 -64 -40 -64z" />
    <glyph glyph-name="Omacron" unicode="&#x14c;" horiz-adv-x="368" 
d="M287 350c0 171 -33 274 -103 274s-103 -103 -103 -274s33 -274 103 -274s103 103 103 274zM30 350c0 245 53 360 154 360c100 0 154 -115 154 -360s-54 -360 -154 -360c-101 0 -154 115 -154 360zM297 846h-227v86h227v-86z" />
    <glyph glyph-name="Obreve" unicode="&#x14e;" horiz-adv-x="368" 
d="M287 350c0 171 -33 274 -103 274s-103 -103 -103 -274s33 -274 103 -274s103 103 103 274zM30 350c0 245 53 360 154 360c100 0 154 -115 154 -360s-54 -360 -154 -360c-101 0 -154 115 -154 360zM184 856c51 0 72 42 72 128v15h51v-15c0 -137 -39 -214 -123 -214
c-85 0 -124 77 -124 214v15h51v-15c0 -86 22 -128 73 -128z" />
    <glyph glyph-name="Ohungarumlaut" unicode="&#x150;" horiz-adv-x="370" 
d="M287 350c0 171 -33 274 -103 274s-103 -103 -103 -274s33 -274 103 -274s103 103 103 274zM30 350c0 245 53 360 154 360c100 0 154 -115 154 -360s-54 -360 -154 -360c-101 0 -154 115 -154 360zM137 780h-43l30 219h74zM266 780h-44l40 219h74z" />
    <glyph glyph-name="P" unicode="P" horiz-adv-x="310" 
d="M161 614h-67v-256h67c46 0 72 39 72 128s-26 128 -72 128zM43 700h118c78 0 123 -71 123 -214c0 -142 -45 -214 -123 -214h-67v-272h-51v700z" />
    <glyph glyph-name="Q" unicode="Q" horiz-adv-x="386" 
d="M186 -12c-102 0 -156 127 -156 362c0 236 54 362 156 362c103 0 157 -126 157 -362c0 -134 -18 -228 -59 -276h73v-86h-171zM186 74c71 0 105 104 105 276s-34 276 -105 276s-105 -104 -105 -276s34 -276 105 -276z" />
    <glyph glyph-name="R" unicode="R" horiz-adv-x="335" 
d="M295 486c0 -106 -28 -178 -78 -203l85 -283h-54l-81 272h-73v-272h-51v700h128c78 0 124 -79 124 -214zM243 486c0 81 -26 128 -72 128h-77v-256h77c46 0 72 47 72 128z" />
    <glyph glyph-name="Racute" unicode="&#x154;" horiz-adv-x="335" 
d="M295 486c0 -106 -28 -178 -78 -203l85 -283h-54l-81 272h-73v-272h-51v700h128c78 0 124 -79 124 -214zM243 486c0 81 -26 128 -72 128h-77v-256h77c46 0 72 47 72 128zM169 780h-44l24 219h75z" />
    <glyph glyph-name="uni0156" unicode="&#x156;" horiz-adv-x="335" 
d="M295 486c0 -106 -28 -178 -78 -203l85 -283h-54l-81 272h-73v-272h-51v700h128c78 0 124 -79 124 -214zM243 486c0 81 -26 128 -72 128h-77v-256h77c46 0 72 47 72 128zM208 -118c0 -19 -5 -46 -14 -68l-23 -65h-33l-3 132c-1 37 12 60 36 60c23 0 37 -22 37 -59z" />
    <glyph glyph-name="Rcaron" unicode="&#x158;" horiz-adv-x="335" 
d="M295 486c0 -106 -28 -178 -78 -203l85 -283h-54l-81 272h-73v-272h-51v700h128c78 0 124 -79 124 -214zM243 486c0 81 -26 128 -72 128h-77v-256h77c46 0 72 47 72 128zM149 780l-104 219h67l58 -148l56 148h67l-104 -219h-40z" />
    <glyph glyph-name="S" unicode="S" horiz-adv-x="333" 
d="M302 193c1 -112 -39 -203 -136 -203c-95 0 -135 73 -135 246v18h52v-18c0 -119 18 -160 83 -160c60 0 84 44 84 117c0 175 -214 114 -214 330c0 98 35 187 130 187c93 0 131 -79 131 -240v-18h-52v18c0 112 -17 154 -79 154c-55 0 -78 -42 -78 -101
c0 -175 214 -114 214 -330z" />
    <glyph glyph-name="Sacute" unicode="&#x15a;" horiz-adv-x="333" 
d="M302 193c1 -112 -39 -203 -136 -203c-95 0 -135 73 -135 246v18h52v-18c0 -119 18 -160 83 -160c60 0 84 44 84 117c0 175 -214 114 -214 330c0 98 35 187 130 187c93 0 131 -79 131 -240v-18h-52v18c0 112 -17 154 -79 154c-55 0 -78 -42 -78 -101
c0 -175 214 -114 214 -330zM140 780l25 219h74l-55 -219h-44z" />
    <glyph glyph-name="Scircumflex" unicode="&#x15c;" horiz-adv-x="333" 
d="M88 523c0 -175 214 -114 214 -330c1 -112 -39 -203 -136 -203c-95 0 -135 73 -135 246v18h52v-18c0 -119 18 -160 83 -160c60 0 84 44 84 117c0 175 -214 114 -214 330c0 98 35 187 130 187c93 0 131 -79 131 -240v-18h-52v18c0 112 -17 154 -79 154
c-55 0 -78 -42 -78 -101zM105 780h-67l104 219h41l103 -219h-66l-57 151z" />
    <glyph glyph-name="Scedilla" unicode="&#x15e;" horiz-adv-x="333" 
d="M88 523c0 -175 214 -114 214 -330c1 -102 -32 -186 -111 -201v-14c32 -12 40 -52 40 -98c0 -79 -27 -117 -74 -117c-11 0 -22 2 -33 7v86c10 -4 20 -6 29 -6c21 0 28 13 28 46c0 26 -5 39 -25 39h-13v57c-78 11 -112 86 -112 244v18h52v-18c0 -119 18 -160 83 -160
c60 0 84 44 84 117c0 175 -214 114 -214 330c0 98 35 187 130 187c93 0 131 -79 131 -240v-18h-52v18c0 112 -17 154 -79 154c-55 0 -78 -42 -78 -101z" />
    <glyph glyph-name="Scaron" unicode="&#x160;" horiz-adv-x="333" 
d="M88 523c0 -175 214 -114 214 -330c1 -112 -39 -203 -136 -203c-95 0 -135 73 -135 246v18h52v-18c0 -119 18 -160 83 -160c60 0 84 44 84 117c0 175 -214 114 -214 330c0 98 35 187 130 187c93 0 131 -79 131 -240v-18h-52v18c0 112 -17 154 -79 154
c-55 0 -78 -42 -78 -101zM142 780l-104 219h67l58 -148l56 148h67l-104 -219h-40z" />
    <glyph glyph-name="uni0218" unicode="&#x218;" horiz-adv-x="333" 
d="M302 193c1 -112 -39 -203 -136 -203c-95 0 -135 73 -135 246v18h52v-18c0 -119 18 -160 83 -160c60 0 84 44 84 117c0 175 -214 114 -214 330c0 98 35 187 130 187c93 0 131 -79 131 -240v-18h-52v18c0 112 -17 154 -79 154c-55 0 -78 -42 -78 -101
c0 -175 214 -114 214 -330zM162 -251h-33l-2 132c-1 37 12 60 36 60c23 0 36 -22 36 -59c0 -19 -4 -46 -13 -68z" />
    <glyph glyph-name="T" unicode="T" horiz-adv-x="298" 
d="M13 614v86h272v-86h-110v-614h-52v614h-110z" />
    <glyph glyph-name="uni0162" unicode="&#x162;" horiz-adv-x="298" 
d="M13 614v86h272v-86h-110v-614h-52v614h-110zM148 -252h-33l-2 132c-1 37 12 60 35 60c24 0 37 -22 37 -59c0 -19 -5 -45 -14 -68z" />
    <glyph glyph-name="Tcaron" unicode="&#x164;" horiz-adv-x="298" 
d="M123 614h-110v86h272v-86h-110v-614h-52v614zM128 780l-104 219h68l57 -148l56 148h68l-104 -219h-41z" />
    <glyph glyph-name="U" unicode="U" horiz-adv-x="354" 
d="M313 700v-403c0 -208 -43 -307 -135 -307c-95 0 -136 99 -136 307v403h51v-403c0 -151 26 -221 85 -221c57 0 83 70 83 221v403h52z" />
    <glyph glyph-name="Ugrave" unicode="&#xd9;" horiz-adv-x="352" 
d="M313 700v-403c0 -208 -43 -307 -135 -307c-95 0 -136 99 -136 307v403h51v-403c0 -151 26 -221 85 -221c57 0 83 70 83 221v403h52zM208 780h-44l-59 219h75z" />
    <glyph glyph-name="Uacute" unicode="&#xda;" horiz-adv-x="352" 
d="M313 700v-403c0 -208 -43 -307 -135 -307c-95 0 -136 99 -136 307v403h51v-403c0 -151 26 -221 85 -221c57 0 83 70 83 221v403h52zM158 780l24 219h75l-56 -219h-43z" />
    <glyph glyph-name="Ucircumflex" unicode="&#xdb;" horiz-adv-x="352" 
d="M178 76c57 0 83 70 83 221v403h52v-403c0 -208 -43 -307 -135 -307c-95 0 -136 99 -136 307v403h51v-403c0 -151 26 -221 85 -221zM118 780h-67l104 219h40l104 -219h-66l-57 151z" />
    <glyph glyph-name="Udieresis" unicode="&#xdc;" horiz-adv-x="352" 
d="M313 700v-403c0 -208 -43 -307 -135 -307c-95 0 -136 99 -136 307v403h51v-403c0 -151 26 -221 85 -221c57 0 83 70 83 221v403h52zM243 825c-26 0 -39 23 -39 64s13 64 39 64c25 0 40 -23 40 -64s-15 -64 -40 -64zM106 825c-25 0 -40 23 -40 64s15 64 40 64
s40 -23 40 -64s-15 -64 -40 -64z" />
    <glyph glyph-name="Utilde" unicode="&#x168;" horiz-adv-x="352" 
d="M313 700v-403c0 -208 -43 -307 -135 -307c-95 0 -136 99 -136 307v403h51v-403c0 -151 26 -221 85 -221c57 0 83 70 83 221v403h52zM232 1009c49 0 79 -42 75 -174v-55h-61l1 68c1 50 -7 69 -24 69c-36 0 -30 -147 -102 -147c-50 0 -80 42 -76 174l1 55h61l-1 -68
c-2 -50 7 -70 23 -70c37 0 29 148 103 148z" />
    <glyph glyph-name="Umacron" unicode="&#x16a;" horiz-adv-x="352" 
d="M313 700v-403c0 -208 -43 -307 -135 -307c-95 0 -136 99 -136 307v403h51v-403c0 -151 26 -221 85 -221c57 0 83 70 83 221v403h52zM289 846h-228v86h228v-86z" />
    <glyph glyph-name="Ubreve" unicode="&#x16c;" horiz-adv-x="352" 
d="M313 700v-403c0 -208 -43 -307 -135 -307c-95 0 -136 99 -136 307v403h51v-403c0 -151 26 -221 85 -221c57 0 83 70 83 221v403h52zM175 856c52 0 72 42 72 128v15h52v-15c0 -137 -40 -214 -124 -214s-124 77 -124 214v15h52v-15c0 -86 22 -128 72 -128z" />
    <glyph glyph-name="Uring" unicode="&#x16e;" horiz-adv-x="352" 
d="M313 700v-403c0 -208 -43 -307 -135 -307c-95 0 -136 99 -136 307v403h51v-403c0 -151 26 -221 85 -221c57 0 83 70 83 221v403h52zM175 706c-52 0 -81 53 -81 159c0 107 29 159 81 159c51 0 81 -52 81 -159c0 -106 -30 -159 -81 -159zM175 780c25 0 40 25 40 85
s-15 85 -40 85c-26 0 -40 -25 -40 -85s14 -85 40 -85z" />
    <glyph glyph-name="Uhungarumlaut" unicode="&#x170;" horiz-adv-x="352" 
d="M313 700v-403c0 -208 -43 -307 -135 -307c-95 0 -136 99 -136 307v403h51v-403c0 -151 26 -221 85 -221c57 0 83 70 83 221v403h52zM122 780h-43l29 219h75zM251 780h-44l39 219h75z" />
    <glyph glyph-name="Uogonek" unicode="&#x172;" horiz-adv-x="352" 
d="M134 -123c0 49 8 85 24 113c-81 13 -116 115 -116 307v403h51v-403c0 -152 26 -223 85 -223c57 0 83 71 83 223v403h52v-403c0 -180 -31 -279 -97 -303c-21 -7 -32 -49 -32 -90c0 -40 10 -54 26 -54c11 0 18 2 26 6v-86c-11 -5 -22 -7 -33 -7c-44 0 -69 34 -69 114z" />
    <glyph glyph-name="V" unicode="V" horiz-adv-x="323" 
d="M201 0h-79l-109 700h53l77 -500l14 -125h2l14 125l78 500h60z" />
    <glyph glyph-name="W" unicode="W" horiz-adv-x="512" 
d="M496 700l-92 -700h-74l-65 499l-8 108h-2l-8 -108l-65 -499h-74l-92 700h52l63 -491l10 -112h2l9 112l64 491h72l65 -491l9 -112h2l9 112l63 491h60z" />
    <glyph glyph-name="Wcircumflex" unicode="&#x174;" horiz-adv-x="512" 
d="M436 700h60l-92 -700h-74l-65 499l-8 108h-2l-8 -108l-65 -499h-74l-92 700h52l63 -491l10 -112h2l9 112l64 491h72l65 -491l9 -112h2l9 112zM197 780h-67l104 219h41l103 -219h-66l-57 151z" />
    <glyph glyph-name="Wgrave" unicode="&#x1e80;" horiz-adv-x="512" 
d="M496 700l-92 -700h-74l-65 499l-8 108h-2l-8 -108l-65 -499h-74l-92 700h52l63 -491l10 -112h2l9 112l64 491h72l65 -491l9 -112h2l9 112l63 491h60zM274 780h-44l-59 219h75z" />
    <glyph glyph-name="Wacute" unicode="&#x1e82;" horiz-adv-x="512" 
d="M496 700l-92 -700h-74l-65 499l-8 108h-2l-8 -108l-65 -499h-74l-92 700h52l63 -491l10 -112h2l9 112l64 491h72l65 -491l9 -112h2l9 112l63 491h60zM233 780l25 219h74l-55 -219h-44z" />
    <glyph glyph-name="Wdieresis" unicode="&#x1e84;" horiz-adv-x="512" 
d="M496 700l-92 -700h-74l-65 499l-8 108h-2l-8 -108l-65 -499h-74l-92 700h52l63 -491l10 -112h2l9 112l64 491h72l65 -491l9 -112h2l9 112l63 491h60zM322 825c-25 0 -39 23 -39 64s14 64 39 64s40 -23 40 -64s-15 -64 -40 -64zM185 825c-25 0 -39 23 -39 64s14 64 39 64
s40 -23 40 -64s-15 -64 -40 -64z" />
    <glyph glyph-name="X" unicode="X" horiz-adv-x="326" 
d="M236 700h63l-97 -341l106 -359h-58l-58 203l-25 114h-2l-25 -114l-57 -203h-65l106 364l-97 336h56l53 -192l23 -107h2l23 107z" />
    <glyph glyph-name="Y" unicode="Y" 
d="M125 0v206l-113 494h53l62 -271l19 -120h2l19 120l62 271h61l-113 -494v-206h-52z" />
    <glyph glyph-name="Yacute" unicode="&#xdd;" 
d="M125 0v206l-113 494h53l62 -271l19 -120h2l19 120l62 271h61l-113 -494v-206h-52zM172 780h-44l25 219h75z" />
    <glyph glyph-name="Ycircumflex" unicode="&#x176;" 
d="M125 0v206l-113 494h53l62 -271l19 -120h2l19 120l62 271h61l-113 -494v-206h-52zM93 780h-67l104 219h41l104 -219h-67l-57 150z" />
    <glyph glyph-name="Ydieresis" unicode="&#x178;" 
d="M125 0v206l-113 494h53l62 -271l19 -120h2l19 120l62 271h61l-113 -494v-206h-52zM119 889c0 -41 -15 -64 -40 -64s-39 23 -39 64s14 64 39 64s40 -23 40 -64zM256 889c0 -41 -15 -64 -40 -64s-39 23 -39 64s14 64 39 64s40 -23 40 -64z" />
    <glyph glyph-name="Ygrave" unicode="&#x1ef2;" 
d="M125 0v206l-113 494h53l62 -271l19 -120h2l19 120l62 271h61l-113 -494v-206h-52zM143 999l28 -219h-44l-59 219h75z" />
    <glyph glyph-name="Z" unicode="Z" horiz-adv-x="298" 
d="M266 614l-184 -526v-2h189v-86h-244v86l184 526v2h-175v86h230v-86z" />
    <glyph glyph-name="Zacute" unicode="&#x179;" horiz-adv-x="298" 
d="M266 614l-184 -526v-2h189v-86h-244v86l184 526v2h-175v86h230v-86zM118 780l24 219h75l-56 -219h-43z" />
    <glyph glyph-name="Zdotaccent" unicode="&#x17b;" horiz-adv-x="298" 
d="M266 614l-184 -526v-2h189v-86h-244v86l184 526v2h-175v86h230v-86zM150 825c-25 0 -39 23 -39 64s14 64 39 64s40 -23 40 -64s-15 -64 -40 -64z" />
    <glyph glyph-name="Zcaron" unicode="&#x17d;" horiz-adv-x="298" 
d="M267 700v-86l-184 -526v-2h188v-86h-243v86l183 526v2h-174v86h230zM129 780l-104 219h68l57 -147l56 147h68l-104 -219h-41z" />
    <glyph glyph-name="AE" unicode="&#xc6;" horiz-adv-x="477" 
d="M68 0h-52l124 700h307v-86h-168v-215h160v-86h-160v-226h168v-87h-220v143h-135zM227 614h-55l-65 -385h120v385z" />
    <glyph glyph-name="AEacute" unicode="&#x1fc;" horiz-adv-x="477" 
d="M68 0h-52l124 700h307v-86h-168v-215h160v-86h-160v-226h168v-87h-220v143h-135zM227 614h-55l-65 -385h120v385zM274 780h-44l24 219h75z" />
    <glyph glyph-name="Eth" unicode="&#xd0;" horiz-adv-x="356" 
d="M327 350c0 -224 -52 -350 -164 -350h-120v314h-43v86h43v300h120c112 0 164 -126 164 -350zM275 350c0 164 -35 264 -112 264h-69v-214h90v-86h-90v-228h69c77 0 112 99 112 264z" />
    <glyph glyph-name="Oslash" unicode="&#xd8;" horiz-adv-x="378" 
d="M189 710c36 0 65 -15 89 -46l13 36h55l-32 -87c23 -60 34 -149 34 -263c0 -234 -51 -360 -160 -360c-36 0 -65 15 -89 46l-13 -36h-54l32 87c-24 60 -35 148 -35 263c0 234 51 360 160 360zM297 350c0 68 -6 125 -18 170l-150 -404c15 -26 35 -40 59 -40
c74 0 109 104 109 274zM81 350c0 -69 5 -126 17 -171l150 405c-15 26 -34 40 -59 40c-74 0 -108 -104 -108 -274z" />
    <glyph glyph-name="Oslashacute" unicode="&#x1fe;" horiz-adv-x="378" 
d="M189 710c36 0 65 -15 89 -46l13 36h55l-32 -87c23 -60 34 -149 34 -263c0 -234 -51 -360 -160 -360c-36 0 -65 15 -89 46l-13 -36h-54l32 87c-24 60 -35 148 -35 263c0 234 51 360 160 360zM297 350c0 68 -6 125 -18 170l-150 -404c15 -26 35 -40 59 -40
c74 0 109 104 109 274zM81 350c0 -69 5 -126 17 -171l150 405c-15 26 -34 40 -59 40c-74 0 -108 -104 -108 -274zM203 777h-39l31 173h65z" />
    <glyph glyph-name="Thorn" unicode="&#xde;" horiz-adv-x="309" 
d="M94 221h67c46 0 72 47 72 128s-26 128 -72 128h-67v-256zM43 700h51v-137h67c78 0 123 -79 123 -214s-45 -214 -123 -214h-67v-135h-51v700z" />
    <glyph glyph-name="Dcroat" unicode="&#x110;" horiz-adv-x="356" 
d="M327 350c0 -224 -52 -350 -164 -350h-120v314h-43v86h43v300h120c112 0 164 -126 164 -350zM275 350c0 164 -35 264 -112 264h-69v-214h90v-86h-90v-228h69c77 0 112 99 112 264z" />
    <glyph glyph-name="Hbar" unicode="&#x126;" horiz-adv-x="356" 
d="M315 516v-516h-52v314h-169v-314h-51v516h-37v86h37v98h51v-98h169v98h52v-98h34v-86h-34zM263 400v116h-169v-116h169z" />
    <glyph glyph-name="IJ" unicode="&#x132;" horiz-adv-x="348" 
d="M41 298v86h24v230h-24v86h98v-86h-23v-230h23v-86h-98zM211 700h95v-470c0 -160 -27 -242 -120 -242c-94 0 -121 82 -121 242v26h51v-26c0 -104 11 -152 70 -152c58 0 69 47 69 152v384h-44v86z" />
    <glyph glyph-name="Ldot" unicode="&#x13f;" horiz-adv-x="281" 
d="M265 86v-86h-222v700h51v-614h171zM185 291c-25 0 -39 23 -39 64s14 64 39 64s40 -23 40 -64s-15 -64 -40 -64z" />
    <glyph glyph-name="Lslash" unicode="&#x141;" horiz-adv-x="281" 
d="M94 404l149 178h4v-100l-153 -182v-214h171v-86h-222v240l-32 -38h-3v100l35 42v356h51v-296z" />
    <glyph glyph-name="Eng" unicode="&#x14a;" horiz-adv-x="366" 
d="M325 -56c0 -128 -30 -203 -118 -203h-12v90h12c57 0 69 42 69 113v56h-38l-147 614h-2l4 -114v-500h-50v700h87l147 -614h2l-3 114v500h49v-756z" />
    <glyph glyph-name="OE" unicode="&#x152;" horiz-adv-x="531" 
d="M179 -10c-98 0 -149 115 -149 360s51 360 149 360c45 0 79 -29 102 -88v78h220v-89h-168v-210h160v-89h-160v-223h168v-89h-220v78c-23 -59 -57 -88 -102 -88zM181 79c68 0 100 102 100 271s-32 271 -100 271s-100 -102 -100 -271s32 -271 100 -271z" />
    <glyph glyph-name="Tbar" unicode="&#x166;" horiz-adv-x="298" 
d="M123 614h-110v86h272v-86h-110v-214h87v-86h-87v-314h-52v314h-89v86h89v214z" />
    <glyph glyph-name="uni0402" unicode="&#x402;" horiz-adv-x="404" 
d="M175 373c16 32 41 53 80 53c104 0 126 -103 126 -219s-22 -219 -127 -219h-16v86h12c68 0 80 67 80 133s-12 133 -80 133c-55 0 -71 -47 -75 -97v-243h-52v614h-110v86h272v-86h-110v-241z" />
    <glyph glyph-name="uni0404" unicode="&#x404;" horiz-adv-x="359" 
d="M184 710c85 0 144 -89 144 -278v-15h-52v15c0 125 -37 192 -92 192c-63 0 -96 -81 -102 -224h156v-86h-156c4 -152 37 -238 102 -238c55 0 92 72 92 203v17h53v-17c0 -196 -59 -289 -145 -289c-103 0 -154 114 -154 360s51 360 154 360z" />
    <glyph glyph-name="uni0405" unicode="&#x405;" horiz-adv-x="332" 
d="M302 193c1 -112 -39 -203 -136 -203c-95 0 -135 73 -135 246v18h52v-18c0 -119 18 -160 83 -160c60 0 84 44 84 117c0 175 -214 114 -214 330c0 98 35 187 130 187c93 0 131 -79 131 -240v-18h-52v18c0 112 -17 154 -79 154c-55 0 -78 -42 -78 -101
c0 -175 214 -114 214 -330z" />
    <glyph glyph-name="uni0406" unicode="&#x406;" horiz-adv-x="181" 
d="M40 0v86h25v528h-25v86h101v-86h-24v-528h24v-86h-101z" />
    <glyph glyph-name="uni0407" unicode="&#x407;" horiz-adv-x="180" 
d="M40 0v86h25v528h-25v86h101v-86h-24v-528h24v-86h-101zM147 825c-26 0 -39 23 -39 64s13 64 39 64c24 0 40 -23 40 -64s-16 -64 -40 -64zM33 825c-26 0 -40 23 -40 64s14 64 40 64c24 0 39 -23 39 -64s-15 -64 -39 -64z" />
    <glyph glyph-name="uni0408" unicode="&#x408;" 
d="M73 253v-23c0 -105 11 -154 69 -154s69 48 69 154v470h52v-470c0 -158 -28 -240 -121 -240s-121 81 -121 240v23h52z" />
    <glyph glyph-name="uni0409" unicode="&#x409;" horiz-adv-x="511" 
d="M35 84c30 0 45 14 50 304l7 312h214v-279h56c78 0 123 -71 123 -211s-45 -210 -123 -210h-107v614h-116l-4 -226c-7 -357 -30 -394 -100 -394h-13v90h13zM434 210c0 86 -25 125 -72 125h-56v-249h56c47 0 72 38 72 124z" />
    <glyph glyph-name="uni040A" unicode="&#x40a;" horiz-adv-x="507" 
d="M481 201c0 -134 -45 -201 -123 -201h-108v315h-156v-315h-52v700h52v-299h156v299h52v-299h56c78 0 123 -68 123 -200zM430 201c0 78 -26 114 -72 114h-56v-229h56c46 0 72 36 72 115z" />
    <glyph glyph-name="uni040B" unicode="&#x40b;" horiz-adv-x="407" 
d="M175 369c17 36 44 57 85 57c100 0 121 -85 121 -210v-216h-51v216c0 74 -10 124 -76 124c-56 0 -75 -43 -79 -104v-236h-52v614h-110v86h272v-86h-110v-245z" />
    <glyph glyph-name="uni040F" unicode="&#x40f;" horiz-adv-x="358" 
d="M153 -199v199h-110v700h51v-614h169v614h52v-700h-110v-199h-52z" />
    <glyph glyph-name="uni0410" unicode="&#x410;" horiz-adv-x="333" 
d="M242 139h-153l-20 -139h-52l103 700h91l104 -700h-53zM100 225h129l-40 275l-14 119h-21l-14 -119z" />
    <glyph glyph-name="uni0411" unicode="&#x411;" horiz-adv-x="310" 
d="M284 214c0 -135 -45 -214 -123 -214h-118v700h218v-86h-167v-186h67c78 0 123 -79 123 -214zM233 214c0 81 -26 128 -72 128h-67v-256h67c46 0 72 47 72 128z" />
    <glyph glyph-name="uni0412" unicode="&#x412;" horiz-adv-x="327" 
d="M296 201c0 -127 -45 -201 -128 -201h-125v700h125c86 0 122 -72 122 -193c0 -74 -17 -126 -55 -149c39 -27 61 -82 61 -157zM244 201c0 71 -26 113 -76 113h-74v-228h74c50 0 76 42 76 115zM238 507c0 65 -16 107 -70 107h-74v-214h74c54 0 70 39 70 107z" />
    <glyph glyph-name="uni0413" unicode="&#x413;" horiz-adv-x="277" 
d="M265 700v-86h-171v-614h-51v700h222z" />
    <glyph glyph-name="uni0403" unicode="&#x403;" horiz-adv-x="277" 
d="M265 700v-86h-171v-614h-51v700h222zM131 780l24 219h75l-56 -219h-43z" />
    <glyph glyph-name="uni0414" unicode="&#x414;" horiz-adv-x="384" 
d="M56 86c15 65 26 179 32 498l2 116h233v-614h42v-285h-52v199h-242v-199h-52v285h37zM138 584c-5 -287 -17 -426 -32 -498h166v528h-134v-30z" />
    <glyph glyph-name="uni0415" unicode="&#x415;" horiz-adv-x="298" 
d="M43 0v700h225v-86h-174v-215h165v-86h-165v-227h174v-86h-225z" />
    <glyph glyph-name="uni0401" unicode="&#x401;" horiz-adv-x="298" 
d="M43 0v700h225v-86h-174v-215h165v-86h-165v-227h174v-86h-225zM222 825c-26 0 -39 23 -39 64s13 64 39 64c24 0 40 -23 40 -64s-16 -64 -40 -64zM85 825c-26 0 -40 23 -40 64s14 64 40 64c25 0 40 -23 40 -64s-15 -64 -40 -64z" />
    <glyph glyph-name="uni0416" unicode="&#x416;" horiz-adv-x="500" 
d="M404 700h68l-107 -334l119 -366h-56l-100 325h-52v-325h-52v325h-39l-101 -325h-68l120 370l-108 330h57l89 -289h50v289h52v-289h39z" />
    <glyph glyph-name="uni0417" unicode="&#x417;" horiz-adv-x="319" 
d="M158 -10c-85 0 -129 75 -129 205v58h52v-58c0 -81 27 -119 77 -119c51 0 78 38 78 119c0 75 -20 119 -67 119h-50v86h50c53 0 61 42 61 112c0 76 -24 112 -72 112c-50 0 -76 -36 -76 -112v-61h-52v61c0 135 48 198 128 198c78 0 124 -63 124 -198
c0 -77 -13 -131 -52 -154c40 -26 57 -84 57 -163c0 -130 -42 -205 -129 -205z" />
    <glyph glyph-name="uni0418" unicode="&#x418;" horiz-adv-x="370" 
d="M239 700h89v-700h-52v500l4 114h-3l-145 -614h-89v700h51v-500l-3 -114h3z" />
    <glyph glyph-name="uni0419" unicode="&#x419;" horiz-adv-x="370" 
d="M239 700h89v-700h-52v500l4 114h-3l-145 -614h-89v700h51v-500l-3 -114h3zM186 856c51 0 71 42 71 128v15h52v-15c0 -137 -39 -214 -123 -214c-85 0 -125 77 -125 214v15h52v-15c0 -86 22 -128 73 -128z" />
    <glyph glyph-name="uni041A" unicode="&#x41a;" horiz-adv-x="331" 
d="M43 0v700h51v-298h40l102 298h67l-119 -345l129 -355h-58l-114 316h-47v-316h-51z" />
    <glyph glyph-name="uni040C" unicode="&#x40c;" horiz-adv-x="331" 
d="M43 0v700h51v-298h40l102 298h67l-119 -345l129 -355h-58l-114 316h-47v-316h-51zM173 780h-44l25 219h74z" />
    <glyph glyph-name="uni041B" unicode="&#x41b;" horiz-adv-x="361" 
d="M35 84c30 0 45 14 50 304l7 312h226v-700h-51v614h-128l-4 -226c-7 -357 -30 -394 -100 -394h-13v90h13z" />
    <glyph glyph-name="uni041C" unicode="&#x41c;" horiz-adv-x="451" 
d="M409 700v-700h-52v500l2 92l-100 -462h-58l-100 459l2 -89v-500h-60v700h85l97 -469h2l97 469h85z" />
    <glyph glyph-name="uni041D" unicode="&#x41d;" horiz-adv-x="357" 
d="M315 0h-52v314h-169v-314h-51v700h51v-300h169v300h52v-700z" />
    <glyph glyph-name="uni041E" unicode="&#x41e;" horiz-adv-x="368" 
d="M287 350c0 171 -33 274 -103 274s-103 -103 -103 -274s33 -274 103 -274s103 103 103 274zM30 350c0 245 53 360 154 360c100 0 154 -115 154 -360s-54 -360 -154 -360c-101 0 -154 115 -154 360z" />
    <glyph glyph-name="uni041F" unicode="&#x41f;" horiz-adv-x="358" 
d="M315 0h-52v614h-169v-614h-51v700h272v-700z" />
    <glyph glyph-name="uni0420" unicode="&#x420;" horiz-adv-x="310" 
d="M161 614h-67v-256h67c46 0 72 39 72 128s-26 128 -72 128zM43 700h118c78 0 123 -71 123 -214c0 -142 -45 -214 -123 -214h-67v-272h-51v700z" />
    <glyph glyph-name="uni0421" unicode="&#x421;" horiz-adv-x="359" 
d="M328 417h-52v15c0 125 -37 192 -92 192c-70 0 -103 -103 -103 -274s33 -274 103 -274c55 0 92 72 92 203v17h53v-17c0 -196 -59 -289 -145 -289c-101 0 -154 115 -154 360s53 360 154 360c85 0 144 -89 144 -278v-15z" />
    <glyph glyph-name="uni0422" unicode="&#x422;" horiz-adv-x="298" 
d="M13 614v86h272v-86h-110v-614h-52v614h-110z" />
    <glyph glyph-name="uni0423" unicode="&#x423;" horiz-adv-x="306" 
d="M64 700l74 -299l17 -88h2l15 88l62 299h60l-107 -499c-39 -183 -59 -205 -118 -205h-8v90h8c28 0 50 8 70 113l-126 501h51z" />
    <glyph glyph-name="uni040E" unicode="&#x40e;" horiz-adv-x="306" 
d="M64 700l74 -299l17 -88h2l15 88l62 299h60l-107 -499c-39 -183 -59 -205 -118 -205h-8v90h8c28 0 50 8 70 113l-126 501h51zM155 856c51 0 71 42 71 128v15h52v-15c0 -137 -39 -214 -123 -214c-85 0 -125 77 -125 214v15h52v-15c0 -86 22 -128 73 -128z" />
    <glyph glyph-name="uni0424" unicode="&#x424;" horiz-adv-x="441" 
d="M26 380c0 201 54 302 148 302h21v68h51v-68h21c94 0 149 -101 149 -302s-55 -302 -149 -302h-21v-78h-51v78h-21c-94 0 -148 101 -148 302zM364 380c0 144 -38 216 -97 216h-22v-432h22c59 0 97 73 97 216zM77 380c0 -144 38 -216 97 -216h22v432h-22
c-59 0 -97 -73 -97 -216z" />
    <glyph glyph-name="uni0425" unicode="&#x425;" horiz-adv-x="326" 
d="M236 700h63l-97 -341l106 -359h-58l-58 203l-25 114h-2l-25 -114l-57 -203h-65l106 364l-97 336h56l53 -192l23 -107h2l23 107z" />
    <glyph glyph-name="uni0426" unicode="&#x426;" horiz-adv-x="375" 
d="M304 0h-261v700h51v-614h169v614h52v-614h41v-285h-52v199z" />
    <glyph glyph-name="uni0427" unicode="&#x427;" horiz-adv-x="334" 
d="M139 360h101v340h51v-700h-51v274h-101c-92 0 -111 95 -111 193v233h51v-233c0 -50 7 -107 60 -107z" />
    <glyph glyph-name="uni0428" unicode="&#x428;" horiz-adv-x="487" 
d="M392 700h52v-700h-401v700h51v-614h123v614h52v-614h123v614z" />
    <glyph glyph-name="uni0429" unicode="&#x429;" horiz-adv-x="504" 
d="M433 0h-390v700h51v-614h123v614h52v-614h123v614h52v-614h41v-285h-52v199z" />
    <glyph glyph-name="uni042A" unicode="&#x42a;" horiz-adv-x="366" 
d="M217 86c46 0 71 39 71 128s-25 128 -71 128h-67v-256h67zM150 700v-272h67c78 0 123 -71 123 -214c0 -142 -45 -214 -123 -214h-119v614h-85v86h137z" />
    <glyph glyph-name="uni042B" unicode="&#x42b;" horiz-adv-x="430" 
d="M43 0v700h52v-272h67c78 0 123 -71 123 -214c0 -142 -45 -214 -123 -214h-119zM162 86c46 0 71 39 71 128s-25 128 -71 128h-67v-256h67zM387 700v-700h-51v700h51z" />
    <glyph glyph-name="uni042C" unicode="&#x42c;" horiz-adv-x="310" 
d="M43 0v700h51v-272h67c78 0 123 -71 123 -214c0 -142 -45 -214 -123 -214h-118zM161 86c46 0 72 39 72 128s-26 128 -72 128h-67v-256h67z" />
    <glyph glyph-name="uni042D" unicode="&#x42d;" horiz-adv-x="359" 
d="M175 624c-55 0 -92 -67 -92 -192v-15h-52v15c0 189 59 278 144 278c102 0 154 -114 154 -360s-52 -360 -154 -360c-86 0 -145 93 -145 289v17h53v-17c0 -131 37 -203 92 -203c65 0 97 86 102 238h-156v86h155c-6 143 -38 224 -101 224z" />
    <glyph glyph-name="uni042E" unicode="&#x42e;" horiz-adv-x="481" 
d="M302 -10c-93 0 -145 104 -150 324h-58v-314h-51v700h51v-300h59c7 211 58 310 149 310c97 0 150 -115 150 -360s-53 -360 -150 -360zM302 76c65 0 98 103 98 274s-33 274 -98 274c-66 0 -98 -103 -98 -274s32 -274 98 -274z" />
    <glyph glyph-name="uni042F" unicode="&#x42f;" horiz-adv-x="336" 
d="M37 482c0 138 47 218 127 218h130v-700h-52v264h-78h-9l-69 -264h-55l74 282c-43 31 -68 100 -68 200zM89 482c0 -84 27 -132 75 -132h78v264h-78c-48 0 -75 -48 -75 -132z" />
    <glyph glyph-name="uni0490" unicode="&#x490;" horiz-adv-x="277" 
d="M264 700h1v-86h-171v-614h-51v700h169v199h52v-199z" />
    <glyph glyph-name="uni0492" unicode="&#x492;" horiz-adv-x="276" 
d="M42 313h-39v86h39v301h222v-86h-170v-215h111v-86h-111v-313h-52v313z" />
    <glyph glyph-name="uni0496" unicode="&#x496;" horiz-adv-x="510" 
d="M404 700h68l-107 -334l91 -280h54v-285h-52v199h-30l-100 325h-52v-325h-52v325h-39l-101 -325h-68l120 370l-108 330h57l89 -289h50v289h52v-289h39z" />
    <glyph glyph-name="uni0498" unicode="&#x498;" horiz-adv-x="319" 
d="M132 -7c-68 14 -103 86 -103 202v58h52v-58c0 -81 27 -119 77 -119c51 0 78 38 78 119c0 75 -20 119 -67 119h-50v86h50c53 0 61 42 61 112c0 76 -24 112 -72 112c-50 0 -76 -36 -76 -112v-61h-52v61c0 135 48 198 128 198c78 0 124 -63 124 -198
c0 -77 -13 -131 -52 -154c40 -26 57 -84 57 -163c0 -116 -34 -189 -103 -203v-191h-52v192z" />
    <glyph glyph-name="uni049A" unicode="&#x49a;" horiz-adv-x="337" 
d="M43 0v700h51v-298h40l102 298h67l-120 -345l98 -269h56v-285h-52v199h-30l-114 316h-47v-316h-51z" />
    <glyph glyph-name="uni049C" unicode="&#x49c;" horiz-adv-x="377" 
d="M116 541h52v-139h15l97 298h70l-115 -345l125 -355h-61l-109 316h-22v-141h-52v141h-22v-316h-51v700h51v-298h22v139z" />
    <glyph glyph-name="uni04A0" unicode="&#x4a0;" horiz-adv-x="385" 
d="M290 700h67l-119 -345l130 -355h-59l-114 316h-47v-316h-51v614h-84v86h135v-298h40z" />
    <glyph glyph-name="uni04A2" unicode="&#x4a2;" horiz-adv-x="375" 
d="M315 86h40v-285h-51v199h-41v314h-169v-314h-51v700h51v-300h169v300h52v-614z" />
    <glyph glyph-name="uni04AA" unicode="&#x4aa;" horiz-adv-x="359" 
d="M329 279c0 -176 -48 -268 -120 -285v-193h-52v193c-83 20 -127 135 -127 356c0 245 53 360 154 360c85 0 144 -89 144 -278v-15h-52v15c0 125 -37 192 -92 192c-70 0 -103 -103 -103 -274s33 -274 103 -274c55 0 92 72 92 203v17h53v-17z" />
    <glyph glyph-name="uni04AE" unicode="&#x4ae;" 
d="M125 0v206l-113 494h53l62 -271l19 -120h2l19 120l62 271h61l-113 -494v-206h-52z" />
    <glyph glyph-name="uni04B0" unicode="&#x4b0;" 
d="M290 700l-113 -494v-23h75v-86h-75v-97h-52v97h-75v86h75v23l-113 494h53l62 -271l19 -120h2l19 120l62 271h61z" />
    <glyph glyph-name="uni04B2" unicode="&#x4b2;" horiz-adv-x="333" 
d="M124 364l-97 336h56l53 -192l23 -107h2l23 107l52 192h63l-98 -342l84 -302h48v-255h-52v199h-31l-58 203l-25 114h-2l-25 -114l-57 -203h-65z" />
    <glyph glyph-name="uni04B6" unicode="&#x4b6;" horiz-adv-x="351" 
d="M28 700h51v-233c0 -50 7 -107 60 -107h101v340h51v-614h41v-285h-52v199h-40v274h-101c-92 0 -111 95 -111 193v233z" />
    <glyph glyph-name="uni04BA" unicode="&#x4ba;" horiz-adv-x="332" 
d="M194 340h-101v-340h-52v700h52v-274h101c92 0 111 -95 111 -193v-233h-52v233c0 50 -7 107 -59 107z" />
    <glyph glyph-name="uni04C0" unicode="&#x4c0;" horiz-adv-x="136" 
d="M94 0h-52v700h52v-700z" />
    <glyph glyph-name="uni04D8" unicode="&#x4d8;" horiz-adv-x="359" 
d="M175 -10c-88 0 -145 87 -145 316v88h246c-5 160 -38 230 -101 230c-59 0 -92 -60 -92 -156v-10h-52v10c0 158 57 242 144 242c100 0 154 -95 154 -360c0 -258 -54 -360 -154 -360zM175 76c63 0 96 76 101 230h-193v-2c0 -155 36 -228 92 -228z" />
    <glyph glyph-name="uni04E8" unicode="&#x4e8;" horiz-adv-x="368" 
d="M184 -10c-101 0 -154 115 -154 360s53 360 154 360c100 0 154 -115 154 -360s-54 -360 -154 -360zM82 312c4 -147 37 -236 102 -236c64 0 97 89 102 236h-204zM286 398c-7 142 -40 226 -102 226s-95 -84 -102 -226h204z" />
    <glyph glyph-name="a" unicode="a" horiz-adv-x="285" 
d="M141 509c64 0 104 -48 104 -157v-352h-51v60c-15 -43 -42 -69 -78 -69c-55 0 -88 56 -88 148s36 147 95 147h71v66c0 57 -19 75 -53 75c-36 0 -55 -18 -55 -75v-12h-50v12c0 106 39 157 105 157zM78 141c0 -46 16 -68 44 -68c44 0 72 28 72 94v44h-65
c-32 0 -51 -22 -51 -70z" />
    <glyph glyph-name="agrave" unicode="&#xe0;" horiz-adv-x="285" 
d="M141 509c64 0 104 -48 104 -157v-352h-51v60c-15 -43 -42 -69 -78 -69c-55 0 -88 56 -88 148s36 147 95 147h71v66c0 57 -19 75 -53 75c-36 0 -55 -18 -55 -75v-12h-50v12c0 106 39 157 105 157zM78 141c0 -46 16 -68 44 -68c44 0 72 28 72 94v44h-65
c-32 0 -51 -22 -51 -70zM121 750l35 -173h-40l-60 173h65z" />
    <glyph glyph-name="aacute" unicode="&#xe1;" horiz-adv-x="285" 
d="M141 509c64 0 104 -48 104 -157v-352h-51v60c-15 -43 -42 -69 -78 -69c-55 0 -88 56 -88 148s36 147 95 147h71v66c0 57 -19 75 -53 75c-36 0 -55 -18 -55 -75v-12h-50v12c0 106 39 157 105 157zM78 141c0 -46 16 -68 44 -68c44 0 72 28 72 94v44h-65
c-32 0 -51 -22 -51 -70zM162 577h-40l31 173h65z" />
    <glyph glyph-name="acircumflex" unicode="&#xe2;" horiz-adv-x="285" 
d="M141 509c64 0 104 -48 104 -157v-352h-51v60c-15 -43 -42 -69 -78 -69c-55 0 -88 56 -88 148s36 147 95 147h71v66c0 57 -19 75 -53 75c-36 0 -55 -18 -55 -75v-12h-50v12c0 106 39 157 105 157zM97 577h-65l86 173h35l84 -173h-64l-38 107zM78 141c0 -46 16 -68 44 -68
c44 0 72 28 72 94v44h-65c-32 0 -51 -22 -51 -70z" />
    <glyph glyph-name="atilde" unicode="&#xe3;" horiz-adv-x="287" 
d="M142 509c65 0 104 -48 104 -157v-352h-50v61c-16 -44 -42 -70 -79 -70c-54 0 -87 56 -87 148s36 147 95 147h71v66c0 57 -20 75 -54 75c-35 0 -54 -18 -54 -75v-12h-51v12c0 106 40 157 105 157zM175 681c-30 0 -23 -114 -84 -114c-40 0 -64 38 -61 144v39h57v-49
c-2 -37 4 -55 15 -55c30 0 23 114 83 114c40 0 66 -38 62 -144l-1 -39h-56v49c2 37 -4 55 -15 55zM80 141c0 -46 16 -68 44 -68c44 0 72 28 72 94v44h-65c-32 0 -51 -22 -51 -70z" />
    <glyph glyph-name="adieresis" unicode="&#xe4;" horiz-adv-x="285" 
d="M141 509c64 0 104 -48 104 -157v-352h-51v60c-15 -43 -42 -69 -78 -69c-55 0 -88 56 -88 148s36 147 95 147h71v66c0 57 -19 75 -53 75c-36 0 -55 -18 -55 -75v-12h-50v12c0 106 39 157 105 157zM78 141c0 -46 16 -68 44 -68c44 0 72 28 72 94v44h-65
c-32 0 -51 -22 -51 -70zM121 664c0 -39 -15 -63 -39 -63c-25 0 -40 24 -40 63s15 63 40 63c24 0 39 -24 39 -63zM238 664c0 -39 -15 -63 -39 -63c-25 0 -39 24 -39 63s14 63 39 63s39 -24 39 -63z" />
    <glyph glyph-name="aring" unicode="&#xe5;" horiz-adv-x="285" 
d="M141 509c64 0 104 -48 104 -157v-352h-51v60c-15 -43 -42 -69 -78 -69c-55 0 -88 56 -88 148s36 147 95 147h71v66c0 57 -19 75 -53 75c-36 0 -55 -18 -55 -75v-12h-50v12c0 106 39 157 105 157zM225 715c0 -106 -30 -159 -81 -159c-53 0 -82 53 -82 159
c0 107 29 159 82 159c51 0 81 -52 81 -159zM78 141c0 -46 16 -68 44 -68c44 0 72 28 72 94v44h-65c-32 0 -51 -22 -51 -70zM104 715c0 -60 14 -85 40 -85c25 0 39 25 39 85s-14 85 -39 85c-26 0 -40 -25 -40 -85z" />
    <glyph glyph-name="amacron" unicode="&#x101;" horiz-adv-x="285" 
d="M141 509c64 0 104 -48 104 -157v-352h-51v60c-15 -43 -42 -69 -78 -69c-55 0 -88 56 -88 148s36 147 95 147h71v66c0 57 -19 75 -53 75c-36 0 -55 -18 -55 -75v-12h-50v12c0 106 39 157 105 157zM36 622v82h205v-82h-205zM78 141c0 -46 16 -68 44 -68c44 0 72 28 72 94
v44h-65c-32 0 -51 -22 -51 -70z" />
    <glyph glyph-name="abreve" unicode="&#x103;" horiz-adv-x="285" 
d="M141 509c64 0 104 -48 104 -157v-352h-51v60c-15 -43 -42 -69 -78 -69c-55 0 -88 56 -88 148s36 147 95 147h71v66c0 57 -19 75 -53 75c-36 0 -55 -18 -55 -75v-12h-50v12c0 106 39 157 105 157zM85 739c0 -67 18 -93 53 -93s52 26 52 93v11h50v-11
c0 -122 -39 -172 -102 -172c-64 0 -103 50 -103 172v11h50v-11zM78 141c0 -46 16 -68 44 -68c44 0 72 28 72 94v44h-65c-32 0 -51 -22 -51 -70z" />
    <glyph glyph-name="aogonek" unicode="&#x105;" horiz-adv-x="285" 
d="M141 509c64 0 104 -48 104 -157v-352c-21 -11 -28 -32 -28 -66c0 -43 10 -55 27 -55c8 0 14 1 20 3v-82c-8 -4 -16 -5 -28 -5c-39 0 -65 32 -65 119c0 36 8 65 23 87v59c-15 -43 -42 -69 -78 -69c-55 0 -88 56 -88 148s36 147 95 147h71v66c0 57 -19 75 -53 75
c-36 0 -55 -18 -55 -75v-12h-50v12c0 106 39 157 105 157zM78 141c0 -46 16 -68 44 -68c44 0 72 28 72 94v44h-65c-32 0 -51 -22 -51 -70z" />
    <glyph glyph-name="aringacute" unicode="&#x1fb;" horiz-adv-x="285" 
d="M140 509c65 0 104 -48 104 -157v-352h-50v61c-16 -44 -42 -70 -79 -70c-54 0 -87 56 -87 148s36 147 95 147h71v66c0 57 -20 75 -54 75c-35 0 -55 -18 -55 -75v-12h-50v12c0 106 40 157 105 157zM219 715c0 -106 -30 -159 -81 -159c-52 0 -81 53 -81 159
c0 94 22 145 63 157l25 140h65l-46 -143c35 -16 55 -66 55 -154zM78 141c0 -46 16 -68 43 -68c45 0 73 28 73 94v44h-65c-33 0 -51 -22 -51 -70zM98 715c0 -60 14 -85 40 -85c25 0 40 25 40 85s-15 85 -40 85c-26 0 -40 -25 -40 -85z" />
    <glyph glyph-name="b" unicode="b" horiz-adv-x="307" 
d="M282 250c0 -174 -35 -259 -113 -259c-37 0 -63 24 -78 70v-61h-50v750h50v-311c15 46 41 70 78 70c78 0 113 -86 113 -259zM162 426c-47 0 -71 -55 -71 -151v-50c0 -96 24 -151 71 -151c52 0 70 51 70 176s-18 176 -70 176z" />
    <glyph glyph-name="c" unicode="c" horiz-adv-x="288" 
d="M148 426c-55 0 -73 -51 -73 -176c0 -126 18 -176 73 -176c45 0 65 40 65 122v8h50v-8c0 -133 -41 -205 -115 -205c-85 0 -123 87 -123 259s38 259 123 259c73 0 115 -68 115 -195v-8h-50v8c0 76 -20 112 -65 112z" />
    <glyph glyph-name="ccedilla" unicode="&#xe7;" horiz-adv-x="288" 
d="M213 314c0 76 -20 112 -65 112c-55 0 -73 -51 -73 -176c0 -126 18 -176 73 -176c45 0 65 40 65 122v8h50v-8c0 -122 -34 -192 -97 -203v-12c32 -16 41 -55 41 -98c0 -81 -28 -105 -68 -105c-9 0 -19 1 -29 6v81c6 -3 12 -4 22 -4c17 0 25 7 25 42c0 29 -4 42 -22 42h-9
v48c-70 15 -101 101 -101 257c0 172 38 259 123 259c73 0 115 -68 115 -195v-8h-50v8z" />
    <glyph glyph-name="cacute" unicode="&#x107;" horiz-adv-x="288" 
d="M148 426c-55 0 -73 -51 -73 -176c0 -126 18 -176 73 -176c45 0 65 40 65 122v8h50v-8c0 -133 -41 -205 -115 -205c-85 0 -123 87 -123 259s38 259 123 259c73 0 115 -68 115 -195v-8h-50v8c0 76 -20 112 -65 112zM133 577l31 173h65l-56 -173h-40z" />
    <glyph glyph-name="ccircumflex" unicode="&#x109;" horiz-adv-x="288" 
d="M213 314c0 76 -20 112 -65 112c-55 0 -73 -51 -73 -176c0 -126 18 -176 73 -176c45 0 65 40 65 122v8h50v-8c0 -133 -41 -205 -115 -205c-85 0 -123 87 -123 259s38 259 123 259c73 0 115 -68 115 -195v-8h-50v8zM108 577h-65l86 173h35l85 -173h-64l-39 106z" />
    <glyph glyph-name="cdotaccent" unicode="&#x10b;" horiz-adv-x="288" 
d="M148 426c-55 0 -73 -51 -73 -176c0 -126 18 -176 73 -176c45 0 65 40 65 122v8h50v-8c0 -133 -41 -205 -115 -205c-85 0 -123 87 -123 259s38 259 123 259c73 0 115 -68 115 -195v-8h-50v8c0 76 -20 112 -65 112zM147 601c-25 0 -39 23 -39 62s14 62 39 62s40 -23 40 -62
s-16 -62 -40 -62z" />
    <glyph glyph-name="ccaron" unicode="&#x10d;" horiz-adv-x="288" 
d="M213 314c0 76 -20 112 -65 112c-55 0 -73 -51 -73 -176c0 -126 18 -176 73 -176c45 0 65 40 65 122v8h50v-8c0 -133 -41 -205 -115 -205c-85 0 -123 87 -123 259s38 259 123 259c73 0 115 -68 115 -195v-8h-50v8zM184 750h65l-85 -173h-36l-84 173h64l39 -104z" />
    <glyph glyph-name="d" unicode="d" horiz-adv-x="307" 
d="M217 63c-15 -48 -41 -72 -79 -72c-78 0 -113 85 -113 259c0 173 35 259 113 259c38 0 64 -24 79 -72v313h49v-750h-49v63zM146 74c47 0 71 55 71 151v50c0 96 -24 151 -71 151c-52 0 -71 -51 -71 -176s19 -176 71 -176z" />
    <glyph glyph-name="dcaron" unicode="&#x10f;" horiz-adv-x="374" 
d="M217 63c-15 -48 -41 -72 -79 -72c-78 0 -113 85 -113 259c0 173 35 259 113 259c38 0 64 -24 79 -72v313h49v-750h-49v63zM146 74c47 0 71 55 71 151v50c0 96 -24 151 -71 151c-52 0 -71 -51 -71 -176s19 -176 71 -176zM376 709c0 -19 -5 -46 -13 -68l-24 -65h-33l-2 132
c-1 37 12 60 35 60c24 0 37 -22 37 -59z" />
    <glyph glyph-name="e" unicode="e" horiz-adv-x="288" 
d="M25 250c0 172 38 259 122 259c74 0 115 -72 115 -221v-62h-187c3 -109 22 -152 72 -152c44 0 62 33 62 84v4h50v-4c0 -99 -39 -167 -112 -167c-84 0 -122 81 -122 259zM147 426c-44 0 -65 -35 -70 -123h135v11c0 74 -26 112 -65 112z" />
    <glyph glyph-name="egrave" unicode="&#xe8;" horiz-adv-x="288" 
d="M25 250c0 172 38 259 122 259c74 0 115 -72 115 -221v-62h-187c3 -109 22 -152 72 -152c44 0 62 33 62 84v4h50v-4c0 -99 -39 -167 -112 -167c-84 0 -122 81 -122 259zM147 426c-44 0 -65 -35 -70 -123h135v11c0 74 -26 112 -65 112zM129 750l35 -173h-40l-60 173h65z
" />
    <glyph glyph-name="eacute" unicode="&#xe9;" horiz-adv-x="288" 
d="M25 250c0 172 38 259 122 259c74 0 115 -72 115 -221v-62h-187c3 -109 22 -152 72 -152c44 0 62 33 62 84v4h50v-4c0 -99 -39 -167 -112 -167c-84 0 -122 81 -122 259zM147 426c-44 0 -65 -35 -70 -123h135v11c0 74 -26 112 -65 112zM171 577h-39l31 173h65z" />
    <glyph glyph-name="ecircumflex" unicode="&#xea;" horiz-adv-x="288" 
d="M25 250c0 172 38 259 122 259c74 0 115 -72 115 -221v-62h-187c3 -109 22 -152 72 -152c44 0 62 33 62 84v4h50v-4c0 -99 -39 -167 -112 -167c-84 0 -122 81 -122 259zM108 577h-65l86 173h35l85 -173h-64l-39 107zM147 426c-44 0 -65 -35 -70 -123h135v11
c0 74 -26 112 -65 112z" />
    <glyph glyph-name="edieresis" unicode="&#xeb;" horiz-adv-x="288" 
d="M25 250c0 172 38 259 122 259c74 0 115 -72 115 -221v-62h-187c3 -109 22 -152 72 -152c44 0 62 33 62 84v4h50v-4c0 -99 -39 -167 -112 -167c-84 0 -122 81 -122 259zM147 426c-44 0 -65 -35 -70 -123h135v11c0 74 -26 112 -65 112zM244 664c0 -39 -16 -63 -40 -63
c-25 0 -39 24 -39 63s14 63 39 63s40 -24 40 -63zM127 664c0 -39 -16 -63 -40 -63c-25 0 -39 24 -39 63s14 63 39 63s40 -24 40 -63z" />
    <glyph glyph-name="emacron" unicode="&#x113;" horiz-adv-x="288" 
d="M25 250c0 172 38 259 122 259c74 0 115 -72 115 -221v-62h-187c3 -109 22 -152 72 -152c44 0 62 33 62 84v4h50v-4c0 -99 -39 -167 -112 -167c-84 0 -122 81 -122 259zM249 704v-82h-205v82h205zM147 426c-44 0 -65 -35 -70 -123h135v11c0 74 -26 112 -65 112z" />
    <glyph glyph-name="ebreve" unicode="&#x115;" horiz-adv-x="288" 
d="M25 250c0 172 38 259 122 259c74 0 115 -72 115 -221v-62h-187c3 -109 22 -152 72 -152c44 0 62 33 62 84v4h50v-4c0 -99 -39 -167 -112 -167c-84 0 -122 81 -122 259zM94 739c0 -67 18 -93 52 -93c36 0 53 26 53 93v11h50v-11c0 -122 -40 -172 -103 -172
s-102 50 -102 172v11h50v-11zM147 426c-44 0 -65 -35 -70 -123h135v11c0 74 -26 112 -65 112z" />
    <glyph glyph-name="edotaccent" unicode="&#x117;" horiz-adv-x="288" 
d="M25 250c0 172 38 259 122 259c74 0 115 -72 115 -221v-62h-187c3 -109 22 -152 72 -152c44 0 62 33 62 84v4h50v-4c0 -99 -39 -167 -112 -167c-84 0 -122 81 -122 259zM147 426c-44 0 -65 -35 -70 -123h135v11c0 74 -26 112 -65 112zM186 663c0 -39 -16 -62 -40 -62
c-26 0 -39 23 -39 62s13 62 39 62c25 0 40 -23 40 -62z" />
    <glyph glyph-name="eogonek" unicode="&#x119;" horiz-adv-x="288" 
d="M25 250c0 172 38 259 122 259c74 0 115 -72 115 -221v-62h-187c3 -109 22 -152 72 -152c44 0 62 33 62 84v4h50v-4c0 -80 -26 -140 -74 -160c-18 -11 -24 -32 -24 -64c0 -43 10 -55 27 -55c8 0 14 1 20 3v-82c-9 -4 -16 -5 -29 -5c-38 0 -65 32 -65 119c0 31 6 57 18 78
c-74 9 -107 91 -107 258zM147 426c-44 0 -65 -35 -70 -123h135v11c0 74 -26 112 -65 112z" />
    <glyph glyph-name="ecaron" unicode="&#x11b;" horiz-adv-x="288" 
d="M25 250c0 172 38 259 122 259c74 0 115 -72 115 -221v-62h-187c3 -109 22 -152 72 -152c44 0 62 33 62 84v4h50v-4c0 -99 -39 -167 -112 -167c-84 0 -122 81 -122 259zM184 750h65l-85 -173h-36l-84 173h64l39 -104zM147 426c-44 0 -65 -35 -70 -123h135v11
c0 74 -26 112 -65 112z" />
    <glyph glyph-name="f" unicode="f" horiz-adv-x="190" 
d="M155 664c-39 0 -54 -29 -54 -79v-85h73v-82h-73v-418h-50v418h-30v82h30v85c0 107 35 165 104 165h24v-86h-24z" />
    <glyph glyph-name="g" unicode="g" horiz-adv-x="297" 
d="M228 419c7 58 23 81 49 81h7v-86h-6c-21 0 -32 -30 -32 -106c0 -119 -42 -187 -109 -187h-28c-20 0 -31 -12 -31 -34s11 -33 31 -33h56c68 0 108 -59 108 -155c0 -99 -50 -156 -131 -156c-86 0 -129 51 -129 144c0 66 16 108 52 125c-18 15 -27 39 -27 65
c0 30 13 58 35 71c-30 26 -47 76 -47 160c0 128 38 201 111 201c47 0 77 -32 91 -90zM137 427c-40 0 -62 -40 -62 -119c0 -73 22 -111 62 -111s61 38 61 111c0 79 -21 119 -61 119zM223 -101c0 52 -20 76 -58 76h-50c-37 0 -56 -26 -56 -76c0 -51 23 -78 83 -78
c59 0 81 27 81 78z" />
    <glyph glyph-name="gcircumflex" unicode="&#x11d;" horiz-adv-x="297" 
d="M228 419c7 58 23 81 49 81h7v-86h-6c-21 0 -32 -30 -32 -106c0 -119 -42 -187 -109 -187h-28c-20 0 -31 -12 -31 -34s11 -33 31 -33h56c68 0 108 -59 108 -155c0 -99 -50 -156 -131 -156c-86 0 -129 51 -129 144c0 66 16 108 52 125c-18 15 -27 39 -27 65
c0 30 13 58 35 71c-30 26 -47 76 -47 160c0 128 38 201 111 201c47 0 77 -32 91 -90zM137 427c-40 0 -62 -40 -62 -119c0 -73 22 -111 62 -111s61 38 61 111c0 79 -21 119 -61 119zM223 -101c0 52 -20 76 -58 76h-50c-37 0 -56 -26 -56 -76c0 -51 23 -78 83 -78
c59 0 81 27 81 78zM100 577h-65l85 173h36l84 -173h-64l-39 105z" />
    <glyph glyph-name="gbreve" unicode="&#x11f;" horiz-adv-x="297" 
d="M228 419c7 58 23 81 49 81h7v-86h-6c-21 0 -32 -30 -32 -106c0 -119 -42 -187 -109 -187h-28c-20 0 -31 -12 -31 -34s11 -33 31 -33h56c68 0 108 -59 108 -155c0 -99 -50 -156 -131 -156c-86 0 -129 51 -129 144c0 66 16 108 52 125c-18 15 -27 39 -27 65
c0 30 13 58 35 71c-30 26 -47 76 -47 160c0 128 38 201 111 201c47 0 77 -32 91 -90zM137 427c-40 0 -62 -40 -62 -119c0 -73 22 -111 62 -111s61 38 61 111c0 79 -21 119 -61 119zM91 739c0 -67 18 -93 53 -93s52 26 52 93v11h50v-11c0 -122 -39 -172 -102 -172
c-64 0 -103 50 -103 172v11h50v-11zM223 -101c0 52 -20 76 -58 76h-50c-37 0 -56 -26 -56 -76c0 -51 23 -78 83 -78c59 0 81 27 81 78z" />
    <glyph glyph-name="gdotaccent" unicode="&#x121;" horiz-adv-x="297" 
d="M228 419c7 58 23 81 49 81h7v-86h-6c-21 0 -32 -30 -32 -106c0 -119 -42 -187 -109 -187h-28c-20 0 -31 -12 -31 -34s11 -33 31 -33h56c68 0 108 -59 108 -155c0 -99 -50 -156 -131 -156c-86 0 -129 51 -129 144c0 66 16 108 52 125c-18 15 -27 39 -27 65
c0 30 13 58 35 71c-30 26 -47 76 -47 160c0 128 38 201 111 201c47 0 77 -32 91 -90zM137 427c-40 0 -62 -40 -62 -119c0 -73 22 -111 62 -111s61 38 61 111c0 79 -21 119 -61 119zM223 -101c0 52 -20 76 -58 76h-50c-37 0 -56 -26 -56 -76c0 -51 23 -78 83 -78
c59 0 81 27 81 78zM183 663c0 -39 -15 -62 -39 -62c-26 0 -40 23 -40 62s14 62 40 62c25 0 39 -23 39 -62z" />
    <glyph glyph-name="uni0123" unicode="&#x123;" horiz-adv-x="297" 
d="M228 419c7 58 23 81 49 81h7v-86h-6c-21 0 -32 -30 -32 -106c0 -119 -42 -187 -109 -187h-28c-20 0 -31 -12 -31 -34s11 -33 31 -33h56c68 0 108 -59 108 -155c0 -99 -50 -156 -131 -156c-86 0 -129 51 -129 144c0 66 16 108 52 125c-18 15 -27 39 -27 65
c0 30 13 58 35 71c-30 26 -47 76 -47 160c0 128 38 201 111 201c47 0 77 -32 91 -90zM137 427c-40 0 -62 -40 -62 -119c0 -73 22 -111 62 -111s61 38 61 111c0 79 -21 119 -61 119zM223 -101c0 52 -20 76 -58 76h-50c-37 0 -56 -26 -56 -76c0 -51 23 -78 83 -78
c59 0 81 27 81 78zM99 648c0 19 4 46 13 68l24 65h33l2 -132c1 -37 -12 -60 -36 -60c-23 0 -36 22 -36 59z" />
    <glyph glyph-name="h" unicode="h" 
d="M91 442c15 44 39 67 74 67c67 0 97 -63 97 -205v-304h-50v304c0 84 -16 123 -57 123c-42 0 -64 -55 -64 -152v-275h-50v750h50v-308z" />
    <glyph glyph-name="hcircumflex" unicode="&#x125;" 
d="M91 442c15 44 39 67 74 67c67 0 97 -63 97 -205v-304h-50v304c0 84 -16 123 -57 123c-42 0 -64 -55 -64 -152v-275h-50v750h50v-308zM112 807h-65l86 173h35l85 -173h-64l-39 106z" />
    <glyph glyph-name="i" unicode="i" horiz-adv-x="135" 
d="M92 500v-500h-50v500h50zM68 601c-25 0 -39 23 -39 62s14 62 39 62s40 -23 40 -62s-16 -62 -40 -62z" />
    <glyph glyph-name="igrave" unicode="&#xec;" horiz-adv-x="134" 
d="M91 500v-500h-49v500h49zM84 577h-40l-52 173h64z" />
    <glyph glyph-name="iacute" unicode="&#xed;" horiz-adv-x="134" 
d="M91 500v-500h-49v500h49zM48 577l28 173h66l-54 -173h-40z" />
    <glyph glyph-name="icircumflex" unicode="&#xee;" horiz-adv-x="134" 
d="M42 500h49v-500h-49v500zM31 577h-63l80 173h36l79 -173h-63l-35 106z" />
    <glyph glyph-name="idieresis" unicode="&#xef;" horiz-adv-x="135" 
d="M92 500v-500h-50v500h50zM21 601c-25 0 -39 23 -39 62s14 62 39 62s40 -23 40 -62s-16 -62 -40 -62zM112 601c-25 0 -39 23 -39 62s14 62 39 62s40 -23 40 -62s-16 -62 -40 -62z" />
    <glyph glyph-name="itilde" unicode="&#x129;" horiz-adv-x="134" 
d="M91 500v-500h-49v500h49zM23 567c-41 0 -64 38 -61 144v39h57v-49c-2 -37 3 -55 14 -55c25 0 19 114 75 114c41 0 65 -38 61 -144v-39h-57l1 49c1 37 -4 55 -15 55c-25 0 -18 -114 -75 -114z" />
    <glyph glyph-name="imacron" unicode="&#x12b;" horiz-adv-x="134" 
d="M91 500v-500h-49v500h49zM154 622h-175v82h175v-82z" />
    <glyph glyph-name="ibreve" unicode="&#x12d;" horiz-adv-x="134" 
d="M91 500v-500h-49v500h49zM66 646c30 0 44 26 44 93v11h51v-11c0 -122 -37 -172 -95 -172c-59 0 -95 50 -95 172v11h50v-11c0 -67 15 -93 45 -93z" />
    <glyph glyph-name="iogonek" unicode="&#x12f;" horiz-adv-x="134" 
d="M17 -87c0 38 9 68 25 90v497h50v-500h-1c-20 -11 -27 -32 -27 -66c0 -43 10 -55 27 -55c8 0 14 1 20 3v-82c-9 -4 -16 -5 -29 -5c-39 0 -65 32 -65 118zM108 663c0 -39 -16 -62 -40 -62c-25 0 -39 23 -39 62s14 62 39 62s40 -23 40 -62z" />
    <glyph glyph-name="j" unicode="j" horiz-adv-x="132" 
d="M-72 -78h50c0 -80 11 -97 32 -97c20 0 31 17 31 97v578h50v-579c0 -124 -24 -178 -81 -178c-59 0 -82 59 -82 179zM67 601c-26 0 -40 23 -40 62s14 62 40 62c25 0 39 -23 39 -62s-15 -62 -39 -62z" />
    <glyph glyph-name="jcircumflex" unicode="&#x135;" horiz-adv-x="132" 
d="M9 -257c-58 0 -81 59 -81 179h49c0 -80 12 -97 32 -97c21 0 32 17 32 97v578h50v-579c0 -124 -24 -178 -82 -178zM28 577h-65l86 173h35l85 -173h-64l-39 106z" />
    <glyph glyph-name="k" unicode="k" horiz-adv-x="278" 
d="M91 0h-50v750h50v-454h33l72 204h63l-92 -246l99 -254h-56l-78 214h-41v-214z" />
    <glyph glyph-name="uni0137" unicode="&#x137;" horiz-adv-x="278" 
d="M91 0h-50v750h50v-454h33l72 204h63l-92 -246l99 -254h-56l-78 214h-41v-214zM188 -125c0 -19 -4 -46 -13 -68l-24 -65h-32l-3 132c0 37 13 60 36 60s36 -22 36 -59z" />
    <glyph glyph-name="l" unicode="l" horiz-adv-x="132" 
d="M91 750v-750h-50v750h50z" />
    <glyph glyph-name="lacute" unicode="&#x13a;" horiz-adv-x="132" 
d="M91 750v-750h-50v750h50zM47 790l30 173h66l-57 -173h-39z" />
    <glyph glyph-name="uni013C" unicode="&#x13c;" horiz-adv-x="132" 
d="M91 750v-750h-50v750h50zM69 -258h-33l-2 132c-1 37 12 60 35 60c24 0 37 -22 37 -59c0 -19 -5 -46 -13 -68z" />
    <glyph glyph-name="lcaron" unicode="&#x13e;" horiz-adv-x="198" 
d="M91 750v-750h-50v750h50zM163 575h-33l-2 132c-1 37 12 60 36 60c23 0 36 -22 36 -59c0 -19 -4 -45 -13 -68z" />
    <glyph glyph-name="m" unicode="m" horiz-adv-x="446" 
d="M91 446c14 42 36 63 68 63c38 0 63 -23 76 -74c16 49 42 74 81 74c63 0 90 -63 90 -205v-304h-50v304c0 84 -13 123 -50 123c-38 0 -58 -55 -58 -152v-275h-49v304c0 84 -13 123 -51 123s-57 -55 -57 -152v-275h-50v500h50v-54z" />
    <glyph glyph-name="n" unicode="n" 
d="M91 440c15 46 40 69 75 69c67 0 96 -61 96 -205v-304h-50v304c0 88 -16 123 -56 123c-43 0 -65 -48 -65 -152v-275h-50v500h50v-60z" />
    <glyph glyph-name="ntilde" unicode="&#xf1;" 
d="M91 441c15 46 40 69 75 69c67 0 96 -61 96 -205v-304h-50v304c0 88 -16 123 -56 123c-43 0 -65 -48 -65 -152v-275h-50v500h50v-60zM188 682c-30 0 -23 -114 -83 -114c-41 0 -65 38 -62 144v39h57v-49c-1 -37 4 -55 15 -55c30 0 23 114 83 114c41 0 66 -39 62 -144v-39
h-57l1 49c1 37 -5 55 -16 55z" />
    <glyph glyph-name="nacute" unicode="&#x144;" 
d="M91 440c15 46 40 69 75 69c67 0 96 -61 96 -205v-304h-50v304c0 88 -16 123 -56 123c-43 0 -65 -48 -65 -152v-275h-50v500h50v-60zM185 577h-40l31 173h65z" />
    <glyph glyph-name="uni0146" unicode="&#x146;" 
d="M91 440c15 46 40 69 75 69c67 0 96 -61 96 -205v-304h-50v304c0 88 -16 123 -56 123c-43 0 -65 -48 -65 -152v-275h-50v500h50v-60zM189 -124c0 -19 -4 -46 -13 -69l-24 -64h-33l-2 132c-1 37 12 60 36 60c23 0 36 -22 36 -59z" />
    <glyph glyph-name="ncaron" unicode="&#x148;" 
d="M91 440c15 46 40 69 75 69c67 0 96 -61 96 -205v-304h-50v304c0 88 -16 123 -56 123c-43 0 -65 -48 -65 -152v-275h-50v500h50v-60zM189 750h65l-86 -173h-35l-84 173h64l38 -106z" />
    <glyph glyph-name="o" unicode="o" horiz-adv-x="295" 
d="M148 509c84 0 122 -87 122 -259s-38 -259 -122 -259c-85 0 -123 87 -123 259s38 259 123 259zM148 74c54 0 72 50 72 176c0 125 -18 176 -72 176c-55 0 -73 -51 -73 -176c0 -126 18 -176 73 -176z" />
    <glyph glyph-name="ograve" unicode="&#xf2;" horiz-adv-x="295" 
d="M148 509c84 0 122 -87 122 -259s-38 -259 -122 -259c-85 0 -123 87 -123 259s38 259 123 259zM148 74c54 0 72 50 72 176c0 125 -18 176 -72 176c-55 0 -73 -51 -73 -176c0 -126 18 -176 73 -176zM164 577h-40l-60 173h65z" />
    <glyph glyph-name="oacute" unicode="&#xf3;" horiz-adv-x="295" 
d="M148 509c84 0 122 -87 122 -259s-38 -259 -122 -259c-85 0 -123 87 -123 259s38 259 123 259zM148 74c54 0 72 50 72 176c0 125 -18 176 -72 176c-55 0 -73 -51 -73 -176c0 -126 18 -176 73 -176zM133 577l31 173h65l-56 -173h-40z" />
    <glyph glyph-name="ocircumflex" unicode="&#xf4;" horiz-adv-x="295" 
d="M25 250c0 172 38 259 123 259c84 0 122 -87 122 -259s-38 -259 -122 -259c-85 0 -123 87 -123 259zM75 250c0 -126 18 -176 73 -176c54 0 72 50 72 176c0 125 -18 176 -72 176c-55 0 -73 -51 -73 -176zM111 577h-65l85 173h36l84 -173h-64l-39 105z" />
    <glyph glyph-name="otilde" unicode="&#xf5;" horiz-adv-x="295" 
d="M148 509c84 0 122 -87 122 -259s-38 -259 -122 -259c-85 0 -123 87 -123 259s38 259 123 259zM148 74c54 0 72 50 72 176c0 125 -18 176 -72 176c-55 0 -73 -51 -73 -176c0 -126 18 -176 73 -176zM102 567c-40 0 -65 38 -62 144l1 39h57l-1 -49c-1 -37 4 -55 15 -55
c31 0 24 114 84 114c40 0 65 -38 62 -144l-1 -39h-56v49c1 37 -4 55 -15 55c-31 0 -23 -114 -84 -114z" />
    <glyph glyph-name="odieresis" unicode="&#xf6;" horiz-adv-x="295" 
d="M148 509c84 0 122 -87 122 -259s-38 -259 -122 -259c-85 0 -123 87 -123 259s38 259 123 259zM148 74c54 0 72 50 72 176c0 125 -18 176 -72 176c-55 0 -73 -51 -73 -176c0 -126 18 -176 73 -176zM91 601c-25 0 -39 24 -39 63s14 63 39 63s40 -24 40 -63s-16 -63 -40 -63
zM208 601c-25 0 -39 24 -39 63s14 63 39 63s40 -24 40 -63s-16 -63 -40 -63z" />
    <glyph glyph-name="omacron" unicode="&#x14d;" horiz-adv-x="295" 
d="M148 509c84 0 122 -87 122 -259s-38 -259 -122 -259c-85 0 -123 87 -123 259s38 259 123 259zM148 74c54 0 72 50 72 176c0 125 -18 176 -72 176c-55 0 -73 -51 -73 -176c0 -126 18 -176 73 -176zM253 622h-205v82h205v-82z" />
    <glyph glyph-name="obreve" unicode="&#x14f;" horiz-adv-x="295" 
d="M148 509c84 0 122 -87 122 -259s-38 -259 -122 -259c-85 0 -123 87 -123 259s38 259 123 259zM148 74c54 0 72 50 72 176c0 125 -18 176 -72 176c-55 0 -73 -51 -73 -176c0 -126 18 -176 73 -176zM149 646c36 0 52 26 52 93v11h51v-11c0 -122 -40 -172 -103 -172
s-102 50 -102 172v11h50v-11c0 -67 18 -93 52 -93z" />
    <glyph glyph-name="ohungarumlaut" unicode="&#x151;" horiz-adv-x="295" 
d="M148 509c84 0 122 -87 122 -259s-38 -259 -122 -259c-85 0 -123 87 -123 259s38 259 123 259zM148 74c54 0 72 50 72 176c0 125 -18 176 -72 176c-55 0 -73 -51 -73 -176c0 -126 18 -176 73 -176zM108 577h-40l21 173h65zM214 577h-41l32 173h64z" />
    <glyph glyph-name="p" unicode="p" horiz-adv-x="309" 
d="M91 436c15 48 41 73 79 73c78 0 114 -85 114 -259c0 -173 -36 -259 -114 -259c-38 0 -64 25 -79 73v-314h-50v750h50v-64zM162 426c-46 0 -71 -55 -71 -151v-50c0 -96 25 -151 71 -151c53 0 71 51 71 176s-18 176 -71 176z" />
    <glyph glyph-name="q" unicode="q" horiz-adv-x="307" 
d="M25 250c0 174 35 259 113 259c38 0 64 -24 79 -72v63h49v-750h-49v313c-15 -48 -41 -72 -79 -72c-78 0 -113 86 -113 259zM146 74c47 0 71 55 71 151v50c0 96 -24 151 -71 151c-52 0 -71 -51 -71 -176s19 -176 71 -176z" />
    <glyph glyph-name="r" unicode="r" horiz-adv-x="197" 
d="M91 421c15 57 39 88 76 88h15v-87h-15c-51 0 -76 -71 -76 -194v-228h-50v500h50v-79z" />
    <glyph glyph-name="racute" unicode="&#x155;" horiz-adv-x="197" 
d="M91 421c15 57 39 88 76 88h15v-87h-15c-51 0 -76 -71 -76 -194v-228h-50v500h50v-79zM115 577h-39l31 173h65z" />
    <glyph glyph-name="uni0157" unicode="&#x157;" horiz-adv-x="197" 
d="M91 421c15 57 39 88 76 88h15v-87h-15c-51 0 -76 -71 -76 -194v-228h-50v500h50v-79zM106 -125c0 -19 -5 -46 -14 -68l-23 -65h-33l-2 132c-1 37 12 60 35 60s37 -22 37 -59z" />
    <glyph glyph-name="rcaron" unicode="&#x159;" horiz-adv-x="197" 
d="M91 421c15 57 39 88 76 88h15v-87h-15c-51 0 -76 -71 -76 -194v-228h-50v500h50v-79zM148 750h65l-85 -173h-36l-84 173h64l38 -106z" />
    <glyph glyph-name="s" unicode="s" horiz-adv-x="266" 
d="M190 139c0 118 -160 70 -160 226c0 75 28 144 104 144c71 0 104 -58 104 -164v-11h-51v11c0 61 -16 81 -53 81c-43 0 -55 -25 -55 -61c0 -119 161 -70 161 -226c0 -82 -31 -148 -107 -148c-72 0 -107 58 -107 166v16h50v-16c0 -62 18 -83 57 -83c44 0 57 25 57 65z" />
    <glyph glyph-name="sacute" unicode="&#x15b;" horiz-adv-x="266" 
d="M190 139c0 118 -160 70 -160 226c0 75 28 144 104 144c71 0 104 -58 104 -164v-11h-51v11c0 61 -16 81 -53 81c-43 0 -55 -25 -55 -61c0 -119 161 -70 161 -226c0 -82 -31 -148 -107 -148c-72 0 -107 58 -107 166v16h50v-16c0 -62 18 -83 57 -83c44 0 57 25 57 65z
M118 577l31 173h65l-56 -173h-40z" />
    <glyph glyph-name="scircumflex" unicode="&#x15d;" horiz-adv-x="266" 
d="M133 74c44 0 57 25 57 65c0 118 -160 70 -160 226c0 75 28 144 104 144c71 0 104 -58 104 -164v-11h-51v11c0 61 -16 81 -53 81c-43 0 -55 -25 -55 -61c0 -119 161 -70 161 -226c0 -82 -31 -148 -107 -148c-72 0 -107 58 -107 166v16h50v-16c0 -62 18 -83 57 -83zM95 577
h-65l86 173h35l85 -173h-64l-39 106z" />
    <glyph glyph-name="scedilla" unicode="&#x15f;" horiz-adv-x="266" 
d="M133 74c44 0 57 25 57 65c0 118 -160 70 -160 226c0 75 28 144 104 144c71 0 104 -58 104 -164v-11h-51v11c0 61 -16 81 -53 81c-43 0 -55 -25 -55 -61c0 -119 161 -70 161 -226c0 -76 -27 -138 -91 -147v-12c33 -16 41 -55 41 -97c0 -81 -29 -105 -68 -105
c-10 0 -19 1 -30 6v81c7 -3 12 -4 22 -4c18 0 26 7 26 42c0 29 -5 42 -22 42h-10v49c-55 12 -82 68 -82 163v16h50v-16c0 -62 18 -83 57 -83z" />
    <glyph glyph-name="scaron" unicode="&#x161;" horiz-adv-x="266" 
d="M133 74c44 0 57 25 57 65c0 118 -160 70 -160 226c0 75 28 144 104 144c71 0 104 -58 104 -164v-11h-51v11c0 61 -16 81 -53 81c-43 0 -55 -25 -55 -61c0 -119 161 -70 161 -226c0 -82 -31 -148 -107 -148c-72 0 -107 58 -107 166v16h50v-16c0 -62 18 -83 57 -83z
M171 750h65l-85 -173h-36l-84 173h64l39 -104z" />
    <glyph glyph-name="uni0219" unicode="&#x219;" horiz-adv-x="266" 
d="M190 139c0 118 -160 70 -160 226c0 75 28 144 104 144c71 0 104 -58 104 -164v-11h-51v11c0 61 -16 81 -53 81c-43 0 -55 -25 -55 -61c0 -119 161 -70 161 -226c0 -82 -31 -148 -107 -148c-72 0 -107 58 -107 166v16h50v-16c0 -62 18 -83 57 -83c44 0 57 25 57 65z
M137 -253h-33l-2 132c-1 37 12 60 35 60s37 -22 37 -59c0 -19 -5 -45 -14 -68z" />
    <glyph glyph-name="t" unicode="t" horiz-adv-x="244" 
d="M139 74c24 0 38 15 38 95h50c0 -115 -26 -178 -88 -178s-88 55 -88 178v249h-30v82h30l11 107h39v-107h87v-82h-87v-249c0 -80 14 -95 38 -95z" />
    <glyph glyph-name="uni0163" unicode="&#x163;" horiz-adv-x="244" 
d="M139 74c24 0 38 15 38 95h50c0 -115 -26 -178 -88 -178s-88 55 -88 178v249h-30v82h30l11 107h39v-107h87v-82h-87v-249c0 -80 14 -95 38 -95zM170 -124c0 -18 -5 -45 -13 -68l-24 -64h-33l-2 132c-1 37 12 60 35 60c24 0 37 -23 37 -60z" />
    <glyph glyph-name="tcaron" unicode="&#x165;" horiz-adv-x="247" 
d="M139 74c24 0 38 15 38 95h50c0 -115 -26 -178 -88 -178s-88 55 -88 178v249h-30v82h30l11 107h39v-107h87v-82h-87v-249c0 -80 14 -95 38 -95zM233 709c0 -19 -4 -46 -13 -68l-24 -65h-32l-3 132c-1 37 12 60 36 60c23 0 36 -22 36 -59z" />
    <glyph glyph-name="u" unicode="u" 
d="M211 60c-15 -45 -39 -69 -75 -69c-67 0 -96 64 -96 205v304h50v-304c0 -84 16 -122 56 -122c43 0 65 54 65 151v275h50v-500h-50v60z" />
    <glyph glyph-name="ugrave" unicode="&#xf9;" 
d="M211 60c-15 -45 -39 -69 -75 -69c-67 0 -96 64 -96 205v304h50v-304c0 -84 16 -122 56 -122c43 0 65 54 65 151v275h50v-500h-50v60zM133 750l35 -173h-39l-60 173h64z" />
    <glyph glyph-name="uacute" unicode="&#xfa;" 
d="M211 60c-15 -45 -39 -69 -75 -69c-67 0 -96 64 -96 205v304h50v-304c0 -84 16 -122 56 -122c43 0 65 54 65 151v275h50v-500h-50v60zM173 577h-40l31 173h65z" />
    <glyph glyph-name="ucircumflex" unicode="&#xfb;" 
d="M211 60c-15 -45 -39 -69 -75 -69c-67 0 -96 64 -96 205v304h50v-304c0 -84 16 -122 56 -122c43 0 65 54 65 151v275h50v-500h-50v60zM112 577h-65l86 173h35l84 -173h-64l-38 107z" />
    <glyph glyph-name="udieresis" unicode="&#xfc;" 
d="M211 60c-15 -45 -39 -69 -75 -69c-67 0 -96 64 -96 205v304h50v-304c0 -84 16 -122 56 -122c43 0 65 54 65 151v275h50v-500h-50v60zM131 664c0 -39 -15 -63 -39 -63c-25 0 -40 24 -40 63s15 63 40 63c24 0 39 -24 39 -63zM248 664c0 -39 -15 -63 -39 -63
c-25 0 -39 24 -39 63s14 63 39 63s39 -24 39 -63z" />
    <glyph glyph-name="utilde" unicode="&#x169;" horiz-adv-x="301" 
d="M211 61c-15 -46 -39 -70 -75 -70c-67 0 -96 64 -96 205v304h49v-304c0 -84 17 -122 57 -122c43 0 65 54 65 151v275h49v-500h-49v61zM186 681c-31 0 -23 -114 -84 -114c-40 0 -65 38 -62 144l1 39h57l-1 -49c-1 -37 4 -55 15 -55c31 0 24 114 84 114c40 0 65 -38 62 -144
l-1 -39h-56v49c1 37 -4 55 -15 55z" />
    <glyph glyph-name="umacron" unicode="&#x16b;" 
d="M211 60c-15 -45 -39 -69 -75 -69c-67 0 -96 64 -96 205v304h50v-304c0 -84 16 -122 56 -122c43 0 65 54 65 151v275h50v-500h-50v60zM253 704v-82h-206v82h206z" />
    <glyph glyph-name="ubreve" unicode="&#x16d;" 
d="M211 60c-15 -45 -39 -69 -75 -69c-67 0 -96 64 -96 205v304h50v-304c0 -84 16 -122 56 -122c43 0 65 54 65 151v275h50v-500h-50v60zM98 739c0 -67 18 -93 52 -93c36 0 52 26 52 93v11h51v-11c0 -122 -40 -172 -103 -172s-103 50 -103 172v11h51v-11z" />
    <glyph glyph-name="uring" unicode="&#x16f;" 
d="M211 60c-15 -45 -39 -69 -75 -69c-67 0 -96 64 -96 205v304h50v-304c0 -84 16 -122 56 -122c43 0 65 54 65 151v275h50v-500h-50v60zM231 715c0 -106 -30 -159 -81 -159c-52 0 -81 53 -81 159c0 107 29 159 81 159c51 0 81 -52 81 -159zM110 715c0 -60 14 -85 40 -85
c25 0 40 25 40 85s-15 85 -40 85c-26 0 -40 -25 -40 -85z" />
    <glyph glyph-name="uhungarumlaut" unicode="&#x171;" 
d="M211 60c-15 -45 -39 -69 -75 -69c-67 0 -96 64 -96 205v304h50v-304c0 -84 16 -122 56 -122c43 0 65 54 65 151v275h50v-500h-50v60zM163 750l-45 -173h-41l21 173h65zM214 750h65l-56 -173h-40z" />
    <glyph glyph-name="uogonek" unicode="&#x173;" 
d="M211 60c-15 -45 -39 -69 -75 -69c-67 0 -96 64 -96 205v304h50v-304c0 -84 16 -122 56 -122c43 0 65 54 65 151v275h50v-500c-21 -11 -28 -32 -28 -66c0 -43 10 -55 27 -55c8 0 14 1 20 3v-82c-8 -4 -16 -5 -28 -5c-39 0 -65 32 -65 119c0 37 9 66 24 89v57z" />
    <glyph glyph-name="v" unicode="v" horiz-adv-x="263" 
d="M164 0h-64l-91 500h50l53 -288l14 -122h3l13 122l53 288h59z" />
    <glyph glyph-name="w" unicode="w" horiz-adv-x="404" 
d="M390 500l-71 -500h-61l-46 305l-8 110h-3l-8 -110l-46 -305h-62l-71 500h47l41 -303l8 -107h3l9 107l45 303h62l44 -303l9 -107h2l9 107l40 303h57z" />
    <glyph glyph-name="wcircumflex" unicode="&#x175;" horiz-adv-x="404" 
d="M333 500h57l-71 -500h-61l-46 305l-8 110h-3l-8 -110l-46 -305h-62l-71 500h47l41 -303l8 -107h3l9 107l45 303h62l44 -303l9 -107h2l9 107zM160 577h-65l85 173h36l84 -173h-64l-39 105z" />
    <glyph glyph-name="wgrave" unicode="&#x1e81;" horiz-adv-x="404" 
d="M390 500l-71 -500h-61l-46 305l-8 110h-3l-8 -110l-46 -305h-62l-71 500h47l41 -303l8 -107h3l9 107l45 303h62l44 -303l9 -107h2l9 107l40 303h57zM212 577h-39l-60 173h64z" />
    <glyph glyph-name="wacute" unicode="&#x1e83;" horiz-adv-x="404" 
d="M390 500l-71 -500h-61l-46 305l-8 110h-3l-8 -110l-46 -305h-62l-71 500h47l41 -303l8 -107h3l9 107l45 303h62l44 -303l9 -107h2l9 107l40 303h57zM181 577l31 173h65l-56 -173h-40z" />
    <glyph glyph-name="wdieresis" unicode="&#x1e85;" horiz-adv-x="404" 
d="M390 500l-71 -500h-61l-46 305l-8 110h-3l-8 -110l-46 -305h-62l-71 500h47l41 -303l8 -107h3l9 107l45 303h62l44 -303l9 -107h2l9 107l40 303h57zM140 601c-25 0 -40 24 -40 63s15 63 40 63c24 0 39 -24 39 -63s-15 -63 -39 -63zM257 601c-25 0 -39 24 -39 63
s14 63 39 63s39 -24 39 -63s-15 -63 -39 -63z" />
    <glyph glyph-name="x" unicode="x" horiz-adv-x="268" 
d="M249 500l-81 -242l87 -258h-55l-40 126l-22 86h-2l-21 -86l-38 -126h-64l87 260l-81 240h56l36 -110l19 -81h3l18 81l34 110h64z" />
    <glyph glyph-name="y" unicode="y" horiz-adv-x="266" 
d="M257 500l-111 -602c-27 -129 -55 -155 -95 -155h-12v89h12c14 0 35 9 47 66l15 96l-102 506h52l50 -250l18 -134h2l18 134l47 250h59z" />
    <glyph glyph-name="yacute" unicode="&#xfd;" horiz-adv-x="266" 
d="M257 500l-111 -602c-27 -129 -55 -155 -95 -155h-12v89h12c14 0 35 9 47 66l15 96l-102 506h52l50 -250l18 -134h2l18 134l47 250h59zM112 577l31 173h65l-56 -173h-40z" />
    <glyph glyph-name="ydieresis" unicode="&#xff;" horiz-adv-x="266" 
d="M257 500l-111 -602c-27 -129 -55 -155 -95 -155h-12v89h12c14 0 35 9 47 66l15 96l-102 506h52l50 -250l18 -134h2l18 134l47 250h59zM72 601c-25 0 -39 24 -39 63s14 63 39 63s40 -24 40 -63s-15 -63 -40 -63zM189 601c-25 0 -39 24 -39 63s14 63 39 63s40 -24 40 -63
s-15 -63 -40 -63z" />
    <glyph glyph-name="ycircumflex" unicode="&#x177;" horiz-adv-x="266" 
d="M51 -168c14 0 35 9 47 66l15 96l-102 506h52l50 -250l18 -134h2l18 134l47 250h59l-111 -602c-27 -129 -55 -155 -95 -155h-12v89h12zM94 577h-64l85 173h36l84 -173h-64l-39 106z" />
    <glyph glyph-name="ygrave" unicode="&#x1ef3;" horiz-adv-x="266" 
d="M257 500l-111 -602c-27 -129 -55 -155 -95 -155h-12v89h12c14 0 35 9 47 66l15 96l-102 506h52l50 -250l18 -134h2l18 134l47 250h59zM154 577h-40l-60 173h65z" />
    <glyph glyph-name="z" unicode="z" horiz-adv-x="237" 
d="M209 500v-76l-129 -342h133v-82h-189v76l129 342h-122v82h178z" />
    <glyph glyph-name="zacute" unicode="&#x17a;" horiz-adv-x="237" 
d="M209 500v-76l-129 -342h133v-82h-189v76l129 342h-122v82h178zM140 577h-40l31 173h65z" />
    <glyph glyph-name="zdotaccent" unicode="&#x17c;" horiz-adv-x="237" 
d="M209 500v-76l-129 -342h133v-82h-189v76l129 342h-122v82h178zM161 663c0 -39 -16 -62 -39 -62c-26 0 -40 23 -40 62s14 62 40 62c25 0 39 -23 39 -62z" />
    <glyph glyph-name="zcaron" unicode="&#x17e;" horiz-adv-x="237" 
d="M209 500v-76l-129 -342h133v-82h-189v76l129 342h-122v82h178zM156 750h65l-85 -173h-36l-84 173h64l38 -106z" />
    <glyph glyph-name="ordfeminine" unicode="&#xaa;" horiz-adv-x="210" 
d="M93 402c29 0 48 20 48 65v25h-45c-22 0 -34 -13 -34 -47c0 -27 11 -43 31 -43zM98 551h43v29c0 43 -14 58 -37 58c-24 0 -37 -15 -37 -58v-8h-43v8c0 90 30 132 80 132s81 -42 81 -132v-231h-44v42c-12 -33 -33 -54 -61 -54c-38 0 -62 39 -62 105s31 109 80 109z" />
    <glyph glyph-name="ordmasculine" unicode="&#xba;" horiz-adv-x="222" 
d="M111 412c34 0 50 34 50 112c0 79 -16 114 -50 114c-33 0 -49 -35 -49 -114c0 -78 16 -112 49 -112zM111 712c62 0 94 -72 94 -188c0 -115 -32 -187 -94 -187c-60 0 -93 72 -93 187c0 116 33 188 93 188z" />
    <glyph glyph-name="germandbls" unicode="&#xdf;" horiz-adv-x="324" 
d="M41 585c0 97 40 165 104 165h148v-82l-72 -176c50 -31 78 -119 78 -244c0 -159 -44 -257 -123 -257h-31v83h31c49 0 72 52 72 174c0 120 -23 174 -72 174h-31v83h29l64 163h-93c-36 0 -54 -34 -54 -83v-585h-50v585z" />
    <glyph glyph-name="ae" unicode="&#xe6;" horiz-adv-x="444" 
d="M415 158c0 -99 -37 -167 -107 -167c-45 0 -75 31 -92 95c-15 -58 -49 -95 -100 -95c-54 0 -88 56 -88 148c0 94 36 149 95 149h69v63c0 58 -19 76 -53 76c-35 0 -53 -18 -53 -75v-12h-50v12c0 106 39 157 103 157c40 0 69 -21 85 -72c18 49 46 72 84 72
c71 0 110 -72 110 -221v-73h-175c3 -101 22 -141 65 -141c41 0 57 33 57 84v5h50v-5zM308 426c-40 0 -60 -38 -65 -134h125v21c0 75 -24 113 -60 113zM78 141c0 -46 16 -68 44 -68c43 0 70 28 70 94v44h-63c-32 0 -51 -22 -51 -70z" />
    <glyph glyph-name="aeacute" unicode="&#x1fd;" horiz-adv-x="444" 
d="M415 158c0 -99 -37 -167 -107 -167c-45 0 -75 31 -92 95c-15 -58 -49 -95 -100 -95c-54 0 -88 56 -88 148c0 94 36 149 95 149h69v63c0 58 -19 76 -53 76c-35 0 -53 -18 -53 -75v-12h-50v12c0 106 39 157 103 157c40 0 69 -21 85 -72c18 49 46 72 84 72
c71 0 110 -72 110 -221v-73h-175c3 -101 22 -141 65 -141c41 0 57 33 57 84v5h50v-5zM308 426c-40 0 -60 -38 -65 -134h125v21c0 75 -24 113 -60 113zM78 141c0 -46 16 -68 44 -68c43 0 70 28 70 94v44h-63c-32 0 -51 -22 -51 -70zM252 577h-39l30 173h65z" />
    <glyph glyph-name="eth" unicode="&#xf0;" horiz-adv-x="297" 
d="M274 226c0 -156 -39 -235 -123 -235s-122 79 -122 235c0 149 38 223 122 223c11 0 20 -1 29 -4l-49 129l-44 -59l-24 78l40 54l-39 103h55l20 -54l40 54l24 -78l-37 -50l65 -176c32 -83 43 -126 43 -220zM223 226c0 108 -19 152 -72 153c-53 0 -72 -44 -72 -153
s19 -152 72 -152c54 0 72 43 72 152z" />
    <glyph glyph-name="oslash" unicode="&#xf8;" horiz-adv-x="307" 
d="M28 250c0 172 39 259 125 259c27 0 50 -10 66 -33l10 24h52l-27 -66c17 -42 25 -103 25 -184c0 -172 -39 -259 -124 -259c-28 0 -51 10 -67 32l-10 -23h-52l27 66c-17 42 -25 103 -25 184zM229 250c0 41 -3 74 -9 99l-103 -252c9 -16 21 -23 38 -23c54 0 74 50 74 176z
M78 250c0 -41 3 -74 9 -99l103 252c-9 16 -21 23 -37 23c-55 0 -75 -51 -75 -176z" />
    <glyph glyph-name="oslashacute" unicode="&#x1ff;" horiz-adv-x="307" 
d="M28 250c0 172 39 259 125 259c27 0 50 -10 66 -33l10 24h52l-27 -66c17 -42 25 -103 25 -184c0 -172 -39 -259 -124 -259c-28 0 -51 10 -67 32l-10 -23h-52l27 66c-17 42 -25 103 -25 184zM229 250c0 41 -3 74 -9 99l-103 -252c9 -16 21 -23 38 -23c54 0 74 50 74 176z
M78 250c0 -41 3 -74 9 -99l103 252c-9 16 -21 23 -37 23c-55 0 -75 -51 -75 -176zM168 577h-40l31 173h65z" />
    <glyph glyph-name="thorn" unicode="&#xfe;" horiz-adv-x="308" 
d="M91 439c15 46 41 70 78 70c78 0 114 -85 114 -259c0 -173 -36 -259 -114 -259c-37 0 -63 24 -78 70v-311h-50v1000h50v-311zM162 426c-47 0 -71 -55 -71 -151v-50c0 -96 24 -151 71 -151c52 0 70 51 70 176s-18 176 -70 176z" />
    <glyph glyph-name="dcroat" unicode="&#x111;" horiz-adv-x="307" 
d="M217 63c-15 -48 -41 -72 -79 -72c-78 0 -113 85 -113 259c0 173 35 259 113 259c38 0 64 -24 79 -72v157h-71v82h71v74h49v-74h32v-82h-32v-594h-49v63zM146 74c47 0 71 55 71 151v50c0 96 -24 151 -71 151c-52 0 -71 -51 -71 -176s19 -176 71 -176z" />
    <glyph glyph-name="hbar" unicode="&#x127;" 
d="M91 442c15 44 39 67 74 67c67 0 97 -63 97 -205v-304h-50v304c0 84 -16 123 -57 123c-42 0 -64 -55 -64 -152v-275h-50v601h-31v75h31v74h50v-74h83v-75h-83v-159z" />
    <glyph glyph-name="dotlessi" unicode="&#x131;" horiz-adv-x="132" 
d="M91 500v-500h-50v500h50z" />
    <glyph glyph-name="ij" unicode="&#x133;" horiz-adv-x="249" 
d="M92 500v-500h-49v500h49zM43 -78h49c0 -80 12 -97 32 -97c21 0 32 17 32 97v578h50v-579c0 -124 -24 -178 -82 -178s-81 59 -81 179zM68 601c-25 0 -39 23 -39 62s14 62 39 62s40 -23 40 -62s-16 -62 -40 -62zM181 601c-25 0 -39 23 -39 62s14 62 39 62s40 -23 40 -62
s-16 -62 -40 -62z" />
    <glyph glyph-name="ldot" unicode="&#x140;" horiz-adv-x="190" 
d="M91 750v-750h-50v750h50zM123 250c0 39 13 62 37 62c25 0 38 -23 38 -62s-13 -62 -38 -62c-24 0 -37 23 -37 62z" />
    <glyph glyph-name="lslash" unicode="&#x142;" horiz-adv-x="140" 
d="M95 455l43 56v-106l-43 -56v-349h-50v283l-43 -56v106l43 56v361h50v-295z" />
    <glyph glyph-name="napostrophe" unicode="&#x149;" 
d="M91 440c15 46 40 69 75 69c67 0 96 -61 96 -205v-304h-50v304c0 88 -16 123 -56 123c-43 0 -65 -48 -65 -152v-275h-50v500h50v-60zM112 701c0 -19 -5 -45 -14 -68l-23 -65h-34l-2 132c-1 37 12 60 36 60c23 0 37 -22 37 -59z" />
    <glyph glyph-name="eng" unicode="&#x14b;" horiz-adv-x="301" 
d="M165 509c68 0 97 -63 97 -205v-363c0 -135 -34 -198 -102 -198h-13v86h13c35 0 52 36 52 112v363c0 84 -16 123 -56 123c-43 0 -65 -55 -65 -152v-275h-50v500h50v-60c15 46 38 69 74 69z" />
    <glyph glyph-name="oe" unicode="&#x153;" horiz-adv-x="473" 
d="M444 158c0 -99 -37 -167 -109 -167c-44 0 -77 27 -96 83c-19 -56 -50 -83 -94 -83c-83 0 -120 87 -120 259s37 259 120 259c44 0 75 -26 94 -82c19 56 51 82 96 82c73 0 112 -72 112 -221v-69h-182c3 -104 23 -145 70 -145c42 0 59 33 59 84v5h50v-5zM75 250
c0 -126 18 -176 70 -176s70 50 70 176c0 125 -18 176 -70 176s-70 -51 -70 -176zM335 426c-43 0 -64 -37 -68 -131h130v19c0 74 -24 112 -62 112z" />
    <glyph glyph-name="tbar" unicode="&#x167;" horiz-adv-x="244" 
d="M139 74c24 0 38 15 38 95h50c0 -115 -26 -178 -88 -178s-88 55 -88 178v76h-30v76h30v97h-30v82h30l11 107h39v-107h87v-82h-87v-97h82v-76h-82v-76c0 -80 14 -95 38 -95z" />
    <glyph glyph-name="uni0237" unicode="&#x237;" horiz-adv-x="133" 
d="M-72 -78h50c0 -80 11 -97 32 -97c20 0 31 17 31 97v578h50v-579c0 -124 -24 -178 -81 -178c-59 0 -82 59 -82 179z" />
    <glyph glyph-name="uni0430" unicode="&#x430;" horiz-adv-x="286" 
d="M142 509c65 0 104 -48 104 -157v-352h-50v61c-16 -44 -42 -70 -79 -70c-54 0 -87 56 -87 148s36 147 95 147h71v66c0 57 -20 75 -54 75c-35 0 -55 -18 -55 -75v-12h-50v12c0 106 40 157 105 157zM80 141c0 -46 16 -68 43 -68c45 0 73 28 73 94v44h-65
c-33 0 -51 -22 -51 -70z" />
    <glyph glyph-name="uni0431" unicode="&#x431;" horiz-adv-x="305" 
d="M157 -9c-84 0 -123 81 -123 243v203c0 231 37 278 108 278h49c23 0 32 7 32 26v8h49v-28c0 -68 -23 -92 -78 -92h-52c-44 0 -63 -20 -63 -192l1 -51c15 60 43 91 87 91c75 0 112 -72 112 -243c0 -162 -38 -243 -122 -243zM158 394c-49 0 -75 -56 -75 -160
c3 -117 20 -161 74 -161c53 0 72 44 72 161s-19 160 -71 160z" />
    <glyph glyph-name="uni0432" unicode="&#x432;" horiz-adv-x="275" 
d="M246 146c0 -91 -37 -146 -100 -146h-105v500h105c65 0 96 -52 96 -141c0 -49 -13 -85 -40 -105c28 -21 44 -59 44 -108zM195 146c0 43 -17 70 -48 70h-56v-138h56c31 0 48 24 48 68zM192 359c0 41 -13 63 -45 63h-56v-130h56c32 0 45 23 45 67z" />
    <glyph glyph-name="uni0433" unicode="&#x433;" horiz-adv-x="223" 
d="M209 500v-82h-118v-418h-50v500h168z" />
    <glyph glyph-name="uni0453" unicode="&#x453;" horiz-adv-x="223" 
d="M209 500v-82h-118v-418h-50v500h168zM109 577l30 173h66l-57 -173h-39z" />
    <glyph glyph-name="uni0434" unicode="&#x434;" horiz-adv-x="311" 
d="M44 82c10 39 18 94 22 306l3 112h193v-418h31v-231h-51v149h-177v-149h-50v231h29zM114 388c-3 -182 -12 -261 -22 -306h119v336h-96z" />
    <glyph glyph-name="uni0435" unicode="&#x435;" horiz-adv-x="288" 
d="M25 250c0 172 38 259 122 259c74 0 115 -72 115 -221v-62h-187c3 -109 22 -152 72 -152c44 0 62 33 62 84v4h50v-4c0 -99 -39 -167 -112 -167c-84 0 -122 81 -122 259zM147 426c-44 0 -65 -35 -70 -123h135v11c0 74 -26 112 -65 112z" />
    <glyph glyph-name="uni0451" unicode="&#x451;" horiz-adv-x="288" 
d="M25 250c0 172 38 259 122 259c74 0 115 -72 115 -221v-62h-187c3 -109 22 -152 72 -152c44 0 62 33 62 84v4h50v-4c0 -99 -39 -167 -112 -167c-84 0 -122 81 -122 259zM147 426c-44 0 -65 -35 -70 -123h135v11c0 74 -26 112 -65 112zM237 664c0 -39 -16 -63 -40 -63
c-25 0 -39 24 -39 63s14 63 39 63s40 -24 40 -63zM119 664c0 -39 -15 -63 -39 -63c-25 0 -40 24 -40 63s15 63 40 63s39 -24 39 -63z" />
    <glyph glyph-name="uni0436" unicode="&#x436;" horiz-adv-x="399" 
d="M175 213h-28l-67 -213h-63l86 262l-81 238h53l64 -205h36v205h49v-205h27l64 205h61l-80 -240l86 -260h-55l-66 213h-37v-213h-49v213z" />
    <glyph glyph-name="uni04C2" unicode="&#x4c2;" horiz-adv-x="399" 
d="M175 213h-28l-67 -213h-63l86 262l-81 238h53l64 -205h36v205h49v-205h27l64 205h61l-80 -240l86 -260h-55l-66 213h-37v-213h-49v213zM147 739c0 -67 18 -93 52 -93c36 0 52 26 52 93v11h51v-11c0 -122 -40 -172 -103 -172s-102 50 -102 172v11h50v-11z" />
    <glyph glyph-name="uni0437" unicode="&#x437;" horiz-adv-x="275" 
d="M245 148c0 -86 -33 -157 -109 -157c-77 0 -109 71 -109 164v30h50v-30c0 -46 12 -81 59 -81s59 32 59 74c0 37 -10 66 -51 66h-32v82h31c39 0 49 24 49 62c0 41 -11 68 -56 68s-55 -30 -55 -76v-26h-51v26c0 94 33 159 106 159c75 0 105 -61 105 -151
c0 -51 -14 -85 -44 -103c32 -18 48 -53 48 -107z" />
    <glyph glyph-name="uni0438" unicode="&#x438;" horiz-adv-x="315" 
d="M91 500v-387h2l107 387h74v-500h-51v386h-2l-106 -386h-74v500h50z" />
    <glyph glyph-name="uni0439" unicode="&#x439;" horiz-adv-x="315" 
d="M91 500v-387h2l107 387h74v-500h-51v386h-2l-106 -386h-74v500h50zM158 646c36 0 52 26 52 93v11h51v-11c0 -122 -40 -172 -103 -172s-103 50 -103 172v11h51v-11c0 -67 18 -93 52 -93z" />
    <glyph glyph-name="uni04E3" unicode="&#x4e3;" horiz-adv-x="315" 
d="M91 500v-387h2l107 387h74v-500h-51v386h-2l-106 -386h-74v500h50zM260 622h-206v82h206v-82z" />
    <glyph glyph-name="uni043A" unicode="&#x43a;" horiz-adv-x="278" 
d="M91 0h-50v500h50v-204h32l73 204h63l-92 -246l99 -254h-56l-79 214h-40v-214z" />
    <glyph glyph-name="uni045C" unicode="&#x45c;" horiz-adv-x="278" 
d="M91 0h-50v500h50v-204h32l73 204h63l-92 -246l99 -254h-56l-79 214h-40v-214zM147 577h-40l31 173h65z" />
    <glyph glyph-name="uni043B" unicode="&#x43b;" horiz-adv-x="298" 
d="M71 500h186v-500h-50v418h-92l-2 -142c-4 -258 -28 -280 -76 -280h-17v90h17c14 0 25 9 29 190z" />
    <glyph glyph-name="uni043C" unicode="&#x43c;" horiz-adv-x="383" 
d="M342 500v-500h-50v320l6 101h-2l-77 -331h-48l-77 331h-2l6 -101v-320h-57v500h78l56 -233l16 -93h2l15 93l56 233h78z" />
    <glyph glyph-name="uni043D" unicode="&#x43d;" horiz-adv-x="303" 
d="M262 0h-50v214h-121v-214h-50v500h50v-204h121v204h50v-500z" />
    <glyph glyph-name="uni043E" unicode="&#x43e;" horiz-adv-x="295" 
d="M148 509c84 0 122 -87 122 -259s-38 -259 -122 -259c-85 0 -123 87 -123 259s38 259 123 259zM148 74c54 0 72 50 72 176c0 125 -18 176 -72 176c-55 0 -73 -51 -73 -176c0 -126 18 -176 73 -176z" />
    <glyph glyph-name="uni04E7" unicode="&#x4e7;" horiz-adv-x="295" 
d="M148 509c84 0 122 -87 122 -259s-38 -259 -122 -259c-85 0 -123 87 -123 259s38 259 123 259zM148 74c54 0 72 50 72 176c0 125 -18 176 -72 176c-55 0 -73 -51 -73 -176c0 -126 18 -176 73 -176zM84 601c-25 0 -39 24 -39 63s14 63 39 63s40 -24 40 -63s-15 -63 -40 -63
zM201 601c-25 0 -39 24 -39 63s14 63 39 63s40 -24 40 -63s-15 -63 -40 -63z" />
    <glyph glyph-name="uni043F" unicode="&#x43f;" horiz-adv-x="303" 
d="M262 0h-50v418h-121v-418h-50v500h221v-500z" />
    <glyph glyph-name="uni0440" unicode="&#x440;" horiz-adv-x="309" 
d="M92 439c15 46 41 70 78 70c78 0 114 -85 114 -259c0 -173 -36 -259 -114 -259c-37 0 -63 24 -78 70v-311h-51v750h51v-61zM163 426c-47 0 -71 -55 -71 -151v-50c0 -96 24 -151 71 -151c52 0 70 51 70 176s-18 176 -70 176z" />
    <glyph glyph-name="uni0441" unicode="&#x441;" horiz-adv-x="288" 
d="M148 426c-55 0 -73 -51 -73 -176c0 -126 18 -176 73 -176c45 0 65 40 65 122v8h50v-8c0 -133 -41 -205 -115 -205c-85 0 -123 87 -123 259s38 259 123 259c73 0 115 -68 115 -195v-8h-50v8c0 76 -20 112 -65 112z" />
    <glyph glyph-name="uni0442" unicode="&#x442;" horiz-adv-x="227" 
d="M13 418v82h202v-82h-77v-418h-49v418h-76z" />
    <glyph glyph-name="uni0443" unicode="&#x443;" horiz-adv-x="266" 
d="M257 500l-112 -602c-27 -129 -55 -155 -95 -155h-11v89h11c15 0 35 9 47 66l15 96l-101 506h51l51 -250l17 -134h3l17 134l47 250h60z" />
    <glyph glyph-name="uni045E" unicode="&#x45e;" horiz-adv-x="266" 
d="M257 500l-112 -602c-27 -129 -55 -155 -95 -155h-11v89h11c15 0 35 9 47 66l15 96l-101 506h51l51 -250l17 -134h3l17 134l47 250h60zM132 646c36 0 52 26 52 93v11h51v-11c0 -122 -40 -172 -103 -172s-103 50 -103 172v11h51v-11c0 -67 18 -93 52 -93z" />
    <glyph glyph-name="uni04EF" unicode="&#x4ef;" horiz-adv-x="266" 
d="M257 500l-112 -602c-27 -129 -55 -155 -95 -155h-11v89h11c15 0 35 9 47 66l15 96l-101 506h51l51 -250l17 -134h3l17 134l47 250h60zM233 622h-206v82h206v-82z" />
    <glyph glyph-name="uni04F3" unicode="&#x4f3;" horiz-adv-x="266" 
d="M257 500l-112 -602c-27 -129 -55 -155 -95 -155h-11v89h11c15 0 35 9 47 66l15 96l-101 506h51l51 -250l17 -134h3l17 134l47 250h60zM89 577h-40l21 173h65zM195 577h-41l32 173h64z" />
    <glyph glyph-name="uni0444" unicode="&#x444;" horiz-adv-x="380" 
d="M234 0h-19v-250h-50v250h-19c-80 0 -121 93 -121 250s41 250 121 250h19v250h50v-250h19c79 0 121 -93 121 -250s-42 -250 -121 -250zM146 82h21v336h-21c-47 0 -72 -62 -72 -168s25 -168 72 -168zM234 418h-21v-336h21c45 0 72 62 72 168s-27 168 -72 168z" />
    <glyph glyph-name="uni0445" unicode="&#x445;" horiz-adv-x="268" 
d="M249 500l-81 -242l87 -258h-55l-40 126l-22 86h-2l-21 -86l-38 -126h-64l87 260l-81 240h56l36 -110l19 -81h3l18 81l34 110h64z" />
    <glyph glyph-name="uni0446" unicode="&#x446;" horiz-adv-x="312" 
d="M293 -149h-49v149h-203v500h50v-418h122v418h49v-418h31v-231z" />
    <glyph glyph-name="uni0447" unicode="&#x447;" horiz-adv-x="280" 
d="M123 266h65v234h51v-500h-51v184h-65c-75 0 -95 73 -95 147v169h50v-169c0 -30 10 -65 45 -65z" />
    <glyph glyph-name="uni0448" unicode="&#x448;" horiz-adv-x="416" 
d="M326 500h49v-500h-334v500h50v-418h92v418h50v-418h93v418z" />
    <glyph glyph-name="uni0449" unicode="&#x449;" horiz-adv-x="425" 
d="M406 -149h-50v149h-315v500h50v-418h92v418h50v-418h93v418h49v-418h31v-231z" />
    <glyph glyph-name="uni044A" unicode="&#x44a;" horiz-adv-x="290" 
d="M65 418h-60v82h110v-161h54c67 0 101 -58 101 -170c0 -111 -34 -169 -101 -169h-104v418zM115 82h54c34 0 50 27 50 87c0 61 -16 88 -50 88h-54v-175z" />
    <glyph glyph-name="uni044B" unicode="&#x44b;" horiz-adv-x="381" 
d="M91 339h55c66 0 100 -58 100 -170c0 -111 -34 -169 -100 -169h-105v500h50v-161zM91 82h55c33 0 50 27 50 87c0 61 -17 88 -50 88h-55v-175zM340 500v-500h-51v500h51z" />
    <glyph glyph-name="uni044C" unicode="&#x44c;" horiz-adv-x="266" 
d="M91 339h55c66 0 100 -58 100 -170c0 -111 -34 -169 -100 -169h-105v500h50v-161zM91 82h55c33 0 50 27 50 87c0 61 -17 88 -50 88h-55v-175z" />
    <glyph glyph-name="uni044D" unicode="&#x44d;" horiz-adv-x="292" 
d="M216 294c-4 93 -25 132 -74 132c-46 0 -67 -36 -67 -112v-8h-49v8c0 127 42 195 116 195c86 0 125 -87 125 -259s-39 -259 -125 -259c-75 0 -116 72 -116 205v8h49v-8c0 -82 21 -122 67 -122c51 0 71 41 74 142h-113v78h113z" />
    <glyph glyph-name="uni044E" unicode="&#x44e;" horiz-adv-x="412" 
d="M148 294c6 144 43 215 119 215c83 0 120 -85 120 -259s-37 -259 -120 -259c-77 0 -114 73 -119 221h-57v-212h-50v500h50v-206h57zM197 250c0 -120 20 -176 70 -176c49 0 70 56 70 176s-21 176 -70 176c-50 0 -70 -56 -70 -176z" />
    <glyph glyph-name="uni044F" unicode="&#x44f;" horiz-adv-x="277" 
d="M31 335c0 102 34 165 101 165h104v-500h-50v169h-57l-48 -169h-52l54 189c-34 22 -52 73 -52 146zM81 335c0 -58 17 -90 51 -90h54v173h-54c-34 0 -51 -31 -51 -83z" />
    <glyph glyph-name="uni0452" unicode="&#x452;" 
d="M165 509c67 0 97 -63 97 -205v-363c0 -135 -34 -198 -102 -198h-13v86h13c35 0 52 36 52 112v363c0 84 -16 123 -57 123c-42 0 -64 -55 -64 -152v-275h-50v601h-31v75h31v74h50v-74h83v-75h-83v-159c15 44 39 67 74 67z" />
    <glyph glyph-name="uni0454" unicode="&#x454;" horiz-adv-x="292" 
d="M217 314c0 76 -21 112 -67 112c-48 0 -69 -39 -74 -132h113v-78h-113c3 -101 24 -142 74 -142c46 0 67 40 67 122v8h50v-8c0 -133 -42 -205 -117 -205c-86 0 -125 87 -125 259s39 259 125 259c74 0 117 -68 117 -195v-8h-50v8z" />
    <glyph glyph-name="uni0455" unicode="&#x455;" horiz-adv-x="269" 
d="M190 139c0 118 -160 70 -160 226c0 75 28 144 104 144c71 0 104 -58 104 -164v-11h-51v11c0 61 -16 81 -53 81c-43 0 -55 -25 -55 -61c0 -119 161 -70 161 -226c0 -82 -31 -148 -107 -148c-72 0 -107 58 -107 166v16h50v-16c0 -62 18 -83 57 -83c44 0 57 25 57 65z" />
    <glyph glyph-name="uni0456" unicode="&#x456;" horiz-adv-x="139" 
d="M94 500v-500h-49v500h49zM70 601c-25 0 -39 23 -39 62s14 62 39 62s40 -23 40 -62s-16 -62 -40 -62z" />
    <glyph glyph-name="uni0457" unicode="&#x457;" horiz-adv-x="135" 
d="M92 500v-500h-50v500h50zM21 601c-25 0 -39 23 -39 62s14 62 39 62s40 -23 40 -62s-16 -62 -40 -62zM112 601c-25 0 -39 23 -39 62s14 62 39 62s40 -23 40 -62s-16 -62 -40 -62z" />
    <glyph glyph-name="uni0458" unicode="&#x458;" horiz-adv-x="134" 
d="M-72 -78h50c0 -80 12 -97 32 -97c21 0 32 17 32 97v578h50v-579c0 -124 -24 -178 -82 -178s-82 59 -82 179zM67 601c-25 0 -39 23 -39 62s14 62 39 62s40 -23 40 -62s-16 -62 -40 -62z" />
    <glyph glyph-name="uni0459" unicode="&#x459;" horiz-adv-x="409" 
d="M246 82h42c34 0 51 27 51 87c0 61 -17 88 -51 88h-42v-175zM196 0v418h-80l-3 -142c-4 -258 -28 -280 -76 -280h-17v90h17c14 0 25 12 29 190l5 224h175v-161h42c67 0 101 -58 101 -170c0 -111 -34 -169 -101 -169h-92z" />
    <glyph glyph-name="uni045A" unicode="&#x45a;" horiz-adv-x="414" 
d="M250 82h43c34 0 51 21 51 66c0 47 -17 66 -51 66h-43v-132zM201 0v214h-110v-214h-50v500h50v-204h110v204h49v-204h43c67 0 101 -50 101 -148c0 -97 -34 -148 -101 -148h-92z" />
    <glyph glyph-name="uni045B" unicode="&#x45b;" 
d="M91 442c15 44 39 67 74 67c67 0 97 -63 97 -205v-304h-50v304c0 84 -16 123 -57 123c-42 0 -64 -55 -64 -152v-275h-50v601h-31v75h31v74h50v-74h83v-75h-83v-159z" />
    <glyph glyph-name="uni045F" unicode="&#x45f;" horiz-adv-x="303" 
d="M177 0v-149h-50v149h-86v500h50v-418h122v418h49v-500h-85z" />
    <glyph glyph-name="uni0491" unicode="&#x491;" horiz-adv-x="223" 
d="M41 500h119v149h49v-231h-118v-418h-50v500z" />
    <glyph glyph-name="uni0493" unicode="&#x493;" horiz-adv-x="223" 
d="M163 265v-82h-72v-183h-50v183h-29v82h29v235h168v-82h-118v-153h72z" />
    <glyph glyph-name="uni0497" unicode="&#x497;" horiz-adv-x="402" 
d="M175 213h-28l-67 -213h-63l86 262l-81 238h53l64 -205h36v205h49v-205h27l64 205h61l-80 -240l59 -178h45v-231h-49v149h-24l-66 213h-37v-213h-49v213z" />
    <glyph glyph-name="uni0499" unicode="&#x499;" horiz-adv-x="275" 
d="M158 -7v-142h-51v144c-56 15 -80 79 -80 160v30h50v-30c0 -46 12 -81 59 -81s59 32 59 74c0 37 -10 66 -51 66h-32v82h31c39 0 49 24 49 62c0 41 -11 68 -56 68s-55 -30 -55 -76v-26h-51v26c0 94 33 159 106 159c75 0 105 -61 105 -151c0 -51 -13 -85 -44 -103
c33 -18 48 -53 48 -107c0 -78 -27 -143 -87 -155z" />
    <glyph glyph-name="uni049B" unicode="&#x49b;" horiz-adv-x="295" 
d="M92 0h-50v500h50v-204h32l73 204h63l-92 -246l67 -172h51v-231h-49v149h-26l-79 214h-40v-214z" />
    <glyph glyph-name="uni049D" unicode="&#x49d;" horiz-adv-x="326" 
d="M162 80h-50v134h-21v-214h-49v500h49v-204h21v124h50v-124h13l67 204h64l-86 -246l93 -254h-55l-72 214h-24v-134z" />
    <glyph glyph-name="uni04A1" unicode="&#x4a1;" 
d="M218 500h64l-91 -246l98 -254h-55l-79 214h-40v-214h-50v418h-60v82h110v-204h30z" />
    <glyph glyph-name="uni04A3" unicode="&#x4a3;" horiz-adv-x="311" 
d="M262 500v-418h30v-231h-49v149h-31v214h-121v-214h-50v500h50v-204h121v204h50z" />
    <glyph glyph-name="uni04AB" unicode="&#x4ab;" horiz-adv-x="288" 
d="M213 314c0 76 -20 112 -65 112c-55 0 -73 -51 -73 -176c0 -126 18 -176 73 -176c45 0 65 40 65 122v8h50v-8c0 -118 -32 -188 -91 -202v-143h-51v143c-66 18 -96 103 -96 256c0 172 38 259 123 259c73 0 115 -68 115 -195v-8h-50v8z" />
    <glyph glyph-name="uni04AF" unicode="&#x4af;" horiz-adv-x="263" 
d="M106 -250v255l-97 495h50l52 -281l15 -115h3l15 115l51 281h59l-97 -495v-255h-51z" />
    <glyph glyph-name="uni04B1" unicode="&#x4b1;" horiz-adv-x="263" 
d="M106 -55v60l-97 495h50l52 -281l15 -115h3l15 115l51 281h59l-97 -495v-60h66v-82h-66v-113h-51v113h-68v82h68z" />
    <glyph glyph-name="uni04B3" unicode="&#x4b3;" horiz-adv-x="284" 
d="M185 500h64l-81 -242l59 -176h46v-231h-50v149h-23l-40 126l-22 86h-2l-21 -86l-38 -126h-64l87 260l-81 240h56l36 -110l19 -81h3l18 81z" />
    <glyph glyph-name="uni04B7" unicode="&#x4b7;" horiz-adv-x="286" 
d="M78 331c0 -30 10 -65 45 -65h65v234h51v-418h28v-231h-50v149h-29v184h-65c-75 0 -95 73 -95 147v169h50v-169z" />
    <glyph glyph-name="uni04BB" unicode="&#x4bb;" 
d="M91 442c15 44 39 67 74 67c67 0 97 -63 97 -205v-304h-50v304c0 84 -16 123 -57 123c-42 0 -64 -55 -64 -152v-275h-50v750h50v-308z" />
    <glyph glyph-name="uni04CF" unicode="&#x4cf;" horiz-adv-x="132" 
d="M91 750v-750h-50v750h50z" />
    <glyph glyph-name="uni04D9" unicode="&#x4d9;" horiz-adv-x="281" 
d="M256 250c0 -172 -38 -259 -122 -259c-75 0 -115 72 -115 221v62h187c-3 109 -22 152 -72 152c-45 0 -62 -33 -62 -84v-4h-50v4c0 99 38 167 112 167c84 0 122 -81 122 -259zM134 74c43 0 65 35 70 123h-136v-11c0 -74 27 -112 66 -112z" />
    <glyph glyph-name="uni04E9" unicode="&#x4e9;" horiz-adv-x="295" 
d="M25 250c0 172 38 259 123 259c84 0 122 -87 122 -259s-38 -259 -122 -259c-85 0 -123 87 -123 259zM76 214c3 -100 23 -140 72 -140s68 40 71 140h-143zM148 426c-48 0 -68 -39 -72 -134h143c-4 95 -24 134 -71 134z" />
    <glyph glyph-name="zero" unicode="0" horiz-adv-x="309" 
d="M227 212v279c0 92 -22 135 -73 135s-72 -43 -72 -135v-279c0 -93 21 -136 72 -136s73 43 73 136zM278 491v-279c0 -147 -39 -222 -124 -222s-123 75 -123 222v279c0 146 38 221 123 221s124 -75 124 -221z" />
    <glyph glyph-name="one" unicode="1" horiz-adv-x="272" 
d="M125 86v506l-79 -78h-5v101l84 85h52v-614h74v-86h-223v86h97z" />
    <glyph glyph-name="two" unicode="2" horiz-adv-x="309" 
d="M278 500c0 -94 -36 -180 -120 -306l-66 -107h186v-87h-247v87l85 136c95 132 111 200 111 277c0 90 -22 126 -73 126c-50 0 -72 -40 -72 -130v-55h-51v55c0 144 38 216 123 216c86 0 124 -69 124 -212z" />
    <glyph glyph-name="three" unicode="3" horiz-adv-x="315" 
d="M231 204c0 91 -27 121 -73 121h-28v86l89 203h-127v-114h-51v200h234v-86l-98 -212c66 -9 105 -68 105 -198c0 -156 -46 -215 -124 -215c-77 0 -124 59 -124 215v45h52v-45c0 -98 23 -129 72 -129c48 0 73 31 73 129z" />
    <glyph glyph-name="four" unicode="4" horiz-adv-x="301" 
d="M23 216l69 484h53l-69 -484h128v361h52v-361h25v-86h-25v-130h-52v130h-181v86z" />
    <glyph glyph-name="five" unicode="5" horiz-adv-x="305" 
d="M229 198c0 87 -21 127 -72 127h-116v375h229v-86h-177v-203h64c86 0 124 -73 124 -213c0 -139 -38 -210 -124 -210c-85 0 -124 70 -124 210v15h52v-15c0 -85 21 -124 72 -124s72 39 72 124z" />
    <glyph glyph-name="six" unicode="6" horiz-adv-x="315" 
d="M160 626c-55 0 -77 -40 -77 -130v-138c18 41 46 62 83 62c84 0 123 -73 123 -216s-40 -215 -129 -215s-129 72 -129 215v292c0 144 39 216 129 216c88 0 129 -73 129 -216v-15h-52v15c0 90 -22 130 -77 130zM160 334c-51 0 -77 -40 -77 -130c0 -89 22 -129 77 -129
c54 0 77 40 77 129c0 90 -23 130 -77 130z" />
    <glyph glyph-name="seven" unicode="7" horiz-adv-x="264" 
d="M14 614v86h233v-86l-121 -614h-52l120 614h-180z" />
    <glyph glyph-name="eight" unicode="8" horiz-adv-x="310" 
d="M284 196c0 -137 -40 -206 -129 -206c-90 0 -129 69 -129 206c0 78 15 132 46 163c-28 30 -40 80 -40 153c0 132 38 200 123 200s123 -68 123 -200c0 -72 -12 -123 -39 -153c31 -32 45 -85 45 -163zM155 76c53 0 77 37 77 120s-24 120 -77 120c-54 0 -77 -37 -77 -120
s23 -120 77 -120zM155 626c-50 0 -71 -36 -71 -114s21 -114 71 -114s72 36 72 114s-22 114 -72 114z" />
    <glyph glyph-name="nine" unicode="9" horiz-adv-x="315" 
d="M155 75c54 0 77 40 77 130v138c-18 -41 -46 -62 -83 -62c-85 0 -123 72 -123 215s40 216 129 216c88 0 129 -73 129 -215v-292c0 -144 -39 -216 -129 -216c-88 0 -129 72 -129 216v15h52v-15c0 -90 21 -130 77 -130zM155 367c51 0 77 40 77 129v1c0 89 -22 129 -77 129
c-54 0 -77 -40 -77 -130c0 -89 23 -129 77 -129z" />
    <glyph glyph-name="underscore" unicode="_" horiz-adv-x="467" 
d="M41 75h385v-87h-385v87z" />
    <glyph glyph-name="hyphen" unicode="-" horiz-adv-x="235" 
d="M197 309v-86h-159v86h159z" />
    <glyph glyph-name="endash" unicode="&#x2013;" horiz-adv-x="280" 
d="M21 220v93h238v-93h-238z" />
    <glyph glyph-name="emdash" unicode="&#x2014;" horiz-adv-x="373" 
d="M16 220v93h341v-93h-341z" />
    <glyph glyph-name="parenleft" unicode="(" horiz-adv-x="189" 
d="M31 311c0 471 55 561 142 561h6v-86h-6c-53 0 -90 -63 -90 -475s37 -475 90 -475h6v-86h-6c-87 0 -142 90 -142 561z" />
    <glyph glyph-name="parenright" unicode=")" horiz-adv-x="189" 
d="M158 311c0 -471 -56 -561 -142 -561h-6v86h6c53 0 90 63 90 475s-37 475 -90 475h-6v86h6c86 0 142 -90 142 -561z" />
    <glyph glyph-name="bracketleft" unicode="[" horiz-adv-x="174" 
d="M47 -250v1122h117v-86h-66v-950h66v-86h-117z" />
    <glyph glyph-name="bracketright" unicode="]" horiz-adv-x="174" 
d="M127 872v-1122h-117v86h66v950h-66v86h117z" />
    <glyph glyph-name="braceleft" unicode="{" horiz-adv-x="190" 
d="M67 216c0 34 -11 54 -32 54h-14v80h14c21 0 32 20 32 54v330c0 89 31 137 84 137h29v-86h-29c-21 0 -32 -17 -32 -51v-330c0 -43 -11 -75 -31 -94c20 -19 31 -51 31 -94v-329c0 -34 11 -51 32 -51h29v-86h-29c-53 0 -84 48 -84 137v329z" />
    <glyph glyph-name="braceright" unicode="}" horiz-adv-x="190" 
d="M123 216v-329c0 -89 -31 -137 -84 -137h-29v86h29c22 0 32 17 32 51v329c0 43 11 75 31 94c-20 19 -31 51 -31 94v330c0 34 -10 51 -32 51h-29v86h29c53 0 84 -48 84 -137v-330c0 -34 11 -54 32 -54h15v-80h-15c-21 0 -32 -20 -32 -54z" />
    <glyph glyph-name="numbersign" unicode="#" horiz-adv-x="349" 
d="M121 181l-13 -181h-51l13 181h-49v82h54l12 171h-66v82h72l13 184h51l-13 -184h85l13 184h50l-13 -184h49v-82h-55l-12 -171h67v-82h-72l-13 -181h-50l13 181h-85zM138 434l-12 -171h85l12 171h-85z" />
    <glyph glyph-name="percent" unicode="%" horiz-adv-x="395" 
d="M104 466c24 0 39 25 39 85s-15 85 -39 85c-28 0 -40 -25 -40 -85s12 -85 40 -85zM104 392c-56 0 -83 53 -83 159c0 107 27 159 83 159c51 0 82 -52 82 -159c0 -106 -31 -159 -82 -159zM108 0h-53l231 700h53zM290 65c26 0 40 25 40 85s-14 85 -40 85
c-27 0 -40 -25 -40 -85s13 -85 40 -85zM290 -9c-54 0 -83 53 -83 159c0 107 29 159 83 159c53 0 83 -52 83 -159c0 -106 -30 -159 -83 -159z" />
    <glyph glyph-name="perthousand" unicode="&#x2030;" horiz-adv-x="516" 
d="M495 150c0 -106 -29 -159 -83 -159c-26 0 -47 16 -61 46c-14 -31 -34 -46 -61 -46c-54 0 -83 53 -83 159c0 107 29 159 83 159c27 0 47 -14 61 -45c14 30 35 45 61 45c54 0 83 -52 83 -159zM186 551c0 -106 -31 -159 -82 -159c-56 0 -83 53 -83 159c0 107 27 159 83 159
c51 0 82 -52 82 -159zM339 700l-231 -700h-53l231 700h53zM250 150c0 -60 13 -85 40 -85c26 0 40 25 40 85s-14 85 -40 85c-27 0 -40 -25 -40 -85zM372 150c0 -60 14 -85 40 -85s40 25 40 85s-14 85 -40 85s-40 -25 -40 -85zM64 551c0 -60 12 -85 40 -85c24 0 39 25 39 85
s-15 85 -39 85c-28 0 -40 -25 -40 -85z" />
    <glyph glyph-name="quotesingle" unicode="'" horiz-adv-x="116" 
d="M66 509h-40v241h62v-35z" />
    <glyph glyph-name="quotedbl" unicode="&#x22;" horiz-adv-x="202" 
d="M66 509h-40v241h62v-35zM151 509h-39v241h61v-35z" />
    <glyph glyph-name="quoteleft" unicode="&#x2018;" horiz-adv-x="120" 
d="M93 750l3 -192c0 -38 -12 -62 -37 -62s-39 23 -39 62c0 18 5 45 9 63l29 129h35z" />
    <glyph glyph-name="quoteright" unicode="&#x2019;" horiz-adv-x="120" 
d="M27 496l-2 192c-1 39 12 62 37 62c24 0 38 -23 38 -62c0 -18 -5 -45 -9 -63l-29 -129h-35z" />
    <glyph glyph-name="quotedblleft" unicode="&#x201c;" horiz-adv-x="226" 
d="M93 750l3 -192c0 -38 -12 -62 -37 -62s-39 23 -39 62c0 18 5 45 9 63l29 129h35zM199 750l2 -192c1 -38 -12 -62 -37 -62s-38 23 -38 62c0 18 5 45 9 63l29 129h35z" />
    <glyph glyph-name="quotedblright" unicode="&#x201d;" horiz-adv-x="226" 
d="M27 496l-2 192c-1 39 12 62 37 62c24 0 38 -23 38 -62c0 -18 -5 -45 -9 -63l-29 -129h-35zM133 496l-3 192c-1 39 12 62 37 62s38 -23 38 -62c0 -18 -5 -45 -9 -63l-28 -129h-35z" />
    <glyph glyph-name="quotesinglbase" unicode="&#x201a;" horiz-adv-x="120" 
d="M27 -120l-2 192c-1 39 12 62 37 62c24 0 38 -23 38 -62c0 -18 -5 -45 -9 -63l-29 -129h-35z" />
    <glyph glyph-name="quotedblbase" unicode="&#x201e;" horiz-adv-x="226" 
d="M27 -120l-2 192c-1 39 12 62 37 62c24 0 38 -23 38 -62c0 -18 -5 -45 -9 -63l-29 -129h-35zM133 -120l-3 192c-1 39 12 62 37 62s38 -23 38 -62c0 -18 -5 -45 -9 -63l-28 -129h-35z" />
    <glyph glyph-name="guilsinglleft" unicode="&#x2039;" horiz-adv-x="161" 
d="M74 248l59 -98v-119h-6l-111 219l111 218h6v-119l-59 -99v-2z" />
    <glyph glyph-name="guilsinglright" unicode="&#x203a;" horiz-adv-x="161" 
d="M28 150l59 98v2l-59 99v119h6l111 -218l-111 -219h-6v119z" />
    <glyph glyph-name="guillemotleft" unicode="&#xab;" horiz-adv-x="290" 
d="M74 248l59 -98v-119h-6l-111 219l111 218h6v-119l-59 -99v-2zM203 248l59 -98v-119h-6l-111 219l111 218h6v-119l-59 -99v-2z" />
    <glyph glyph-name="guillemotright" unicode="&#xbb;" horiz-adv-x="290" 
d="M28 150l59 98v2l-59 99v119h6l111 -218l-111 -219h-6v119zM157 150l59 98v2l-59 99v119h6l111 -218l-111 -219h-6v119z" />
    <glyph glyph-name="asterisk" unicode="*" horiz-adv-x="232" 
d="M203 382l-42 -37l-34 106l-10 41h-1l-10 -41l-35 -107l-41 38l59 144l-82 31l13 68l79 -46l-7 171h49l-7 -171l80 46l11 -68l-82 -31z" />
    <glyph glyph-name="dagger" unicode="&#x2020;" horiz-adv-x="248" 
d="M150 0h-52v414h-77v86h77v200h52v-200h77v-86h-77v-414z" />
    <glyph glyph-name="daggerdbl" unicode="&#x2021;" horiz-adv-x="248" 
d="M150 0h-52v167h-77v86h77v161h-77v86h77v200h52v-200h77v-86h-77v-161h77v-86h-77v-167z" />
    <glyph glyph-name="period" unicode="." horiz-adv-x="107" 
d="M16 50c0 39 12 62 37 62c24 0 38 -23 38 -62s-14 -62 -38 -62c-25 0 -37 23 -37 62z" />
    <glyph glyph-name="comma" unicode="," horiz-adv-x="107" 
d="M18 -120l-2 192c-1 39 12 62 37 62s38 -23 38 -62c0 -18 -5 -45 -9 -63l-29 -129h-35z" />
    <glyph glyph-name="colon" unicode=":" horiz-adv-x="107" 
d="M16 50c0 39 12 62 37 62c24 0 38 -23 38 -62s-14 -62 -38 -62c-25 0 -37 23 -37 62zM16 366c0 39 12 62 37 62c24 0 38 -23 38 -62s-14 -62 -38 -62c-25 0 -37 23 -37 62z" />
    <glyph glyph-name="semicolon" unicode=";" horiz-adv-x="107" 
d="M18 -120l-2 192c-1 39 12 62 37 62s38 -23 38 -62c0 -18 -5 -45 -9 -63l-29 -129h-35zM16 366c0 39 12 62 37 62c24 0 38 -23 38 -62s-14 -62 -38 -62c-25 0 -37 23 -37 62z" />
    <glyph glyph-name="ellipsis" unicode="&#x2026;" horiz-adv-x="352" 
d="M16 50c0 39 12 62 37 62c24 0 38 -23 38 -62s-14 -62 -38 -62c-25 0 -37 23 -37 62zM138 50c0 39 13 62 38 62c24 0 38 -23 38 -62s-14 -62 -38 -62c-25 0 -38 23 -38 62zM261 50c0 39 12 62 37 62c24 0 38 -23 38 -62s-14 -62 -38 -62c-25 0 -37 23 -37 62z" />
    <glyph glyph-name="exclam" unicode="!" horiz-adv-x="157" 
d="M48 700h62l-7 -518h-48zM41 50c0 39 13 62 38 62c24 0 37 -23 37 -62s-13 -62 -37 -62c-25 0 -38 23 -38 62z" />
    <glyph glyph-name="exclamdown" unicode="&#xa1;" horiz-adv-x="157" 
d="M110 -203h-62l7 518h48zM41 447c0 39 13 62 38 62c24 0 37 -23 37 -62s-13 -61 -37 -61c-25 0 -38 22 -38 61z" />
    <glyph glyph-name="question" unicode="?" horiz-adv-x="307" 
d="M277 503c0 -101 -33 -171 -96 -188v-133h-52v204h20c50 0 76 44 76 117c0 76 -25 119 -71 119c-48 0 -72 -39 -72 -109v-45h-51v45c0 126 45 199 123 199c77 0 123 -77 123 -209zM155 -12c-25 0 -38 23 -38 62s13 62 38 62c24 0 38 -23 38 -62s-14 -62 -38 -62z" />
    <glyph glyph-name="questiondown" unicode="&#xbf;" horiz-adv-x="307" 
d="M31 -5c0 101 33 171 96 188v133h51v-203h-20c-49 0 -76 -45 -76 -118c0 -76 26 -119 72 -119c47 0 71 39 71 109v45h52v-45c0 -126 -46 -199 -123 -199c-78 0 -123 77 -123 209zM152 510c25 0 38 -23 38 -62s-13 -61 -38 -61c-23 0 -38 22 -38 61s15 62 38 62z" />
    <glyph glyph-name="slash" unicode="/" horiz-adv-x="223" 
d="M192 700l-109 -700h-52l109 700h52z" />
    <glyph glyph-name="backslash" unicode="\" horiz-adv-x="223" 
d="M140 0l-109 700h52l109 -700h-52z" />
    <glyph glyph-name="fraction" unicode="&#x2044;" horiz-adv-x="285" 
d="M116 0h-53l231 700h53z" />
    <glyph glyph-name="bar" unicode="|" horiz-adv-x="160" 
d="M54 -250v950h52v-950h-52z" />
    <glyph glyph-name="brokenbar" unicode="&#xa6;" horiz-adv-x="169" 
d="M59 -250v416h52v-416h-52zM59 304v396h52v-396h-52z" />
    <glyph glyph-name="at" unicode="@" horiz-adv-x="486" 
d="M460 250c0 -301 -71 -462 -217 -462c-151 0 -217 161 -217 462s66 462 217 462c147 0 217 -161 217 -462zM73 250c0 -245 52 -382 170 -382c116 0 170 135 170 382c0 245 -55 382 -170 382c-118 0 -170 -137 -170 -382zM245 509c64 0 104 -48 104 -157v-352h-51v60
c-15 -43 -42 -69 -78 -69c-54 0 -88 56 -88 148s36 147 96 147h70v66c0 57 -19 75 -53 75c-36 0 -55 -18 -55 -75v-12h-50v12c0 106 39 157 105 157zM183 141c0 -46 16 -68 43 -68c44 0 72 28 72 94v44h-64c-33 0 -51 -22 -51 -70z" />
    <glyph glyph-name="ampersand" unicode="&#x26;" horiz-adv-x="345" 
d="M86 512c0 -70 9 -112 65 -112h172v-86h-36v-119c0 -131 -44 -206 -130 -206c-85 0 -129 75 -129 206c0 78 17 136 55 164c-37 24 -49 77 -49 153c0 137 47 201 123 201c81 0 129 -64 129 -201v-44h-52v44c0 79 -25 115 -77 115c-46 0 -71 -36 -71 -115zM157 75
c51 0 78 37 78 120v119h-84c-50 0 -71 -44 -71 -119c0 -83 28 -120 77 -120z" />
    <glyph glyph-name="section" unicode="&#xa7;" horiz-adv-x="266" 
d="M193 131c0 106 -163 31 -163 219c0 40 11 87 42 114c-27 27 -40 65 -40 103c0 85 31 145 101 145c64 0 103 -48 103 -154v-18h-47v18c0 58 -20 79 -56 79c-44 0 -54 -31 -54 -70c0 -105 158 -30 158 -217c0 -40 -11 -86 -40 -113c29 -28 42 -67 42 -106
c0 -82 -32 -143 -106 -143c-65 0 -106 47 -106 154v18h47v-18c0 -59 21 -78 59 -78c48 0 60 30 60 67zM133 423c-46 0 -58 -33 -58 -73s12 -73 58 -73c47 0 59 33 59 73s-12 73 -59 73z" />
    <glyph glyph-name="paragraph" unicode="&#xb6;" horiz-adv-x="323" 
d="M26 482c0 138 43 218 117 218h140v-951h-52v865h-74v-864h-52v522c-51 24 -79 98 -79 210z" />
    <glyph glyph-name="uni2116" unicode="&#x2116;" horiz-adv-x="564" 
d="M442 271c25 0 40 30 40 90s-15 91 -40 91c-27 0 -40 -31 -40 -91s13 -90 40 -90zM442 202c-53 0 -81 52 -81 159c0 108 28 159 81 159c51 0 81 -51 81 -159c0 -107 -30 -159 -81 -159zM274 700h241v-86h-191v-614h-88l-146 614h-2l3 -114v-500h-50v700h88l147 -614h2
l-4 114v500z" />
    <glyph glyph-name="periodcentered" unicode="&#xb7;" horiz-adv-x="107" 
d="M16 266c0 39 12 62 37 62c24 0 38 -23 38 -62s-14 -62 -38 -62c-25 0 -37 23 -37 62z" />
    <glyph glyph-name="bullet" unicode="&#x2022;" horiz-adv-x="493" 
d="M247 -9c-130 0 -197 136 -197 360c0 226 67 359 197 359c123 0 196 -133 196 -359c0 -224 -73 -360 -196 -360z" />
    <glyph glyph-name="minute" unicode="&#x2032;" horiz-adv-x="107" 
d="M68 509h-52l13 206v35h61v-35z" />
    <glyph glyph-name="second" unicode="&#x2033;" horiz-adv-x="208" 
d="M68 509h-52l13 206v35h61v-35zM170 509h-52l12 206v35h62v-35z" />
    <glyph glyph-name="plus" unicode="+" horiz-adv-x="280" 
d="M261 400v-86h-95v-177h-51v177h-95v86h95v176h51v-176h95z" />
    <glyph glyph-name="minus" unicode="&#x2212;" horiz-adv-x="270" 
d="M256 400v-86h-241v86h241z" />
    <glyph glyph-name="plusminus" unicode="&#xb1;" horiz-adv-x="270" 
d="M15 432v86h95v169h51v-169h95v-86h-95v-178h-51v178h-95zM15 189h241v-86h-241v86z" />
    <glyph glyph-name="divide" unicode="&#xf7;" horiz-adv-x="270" 
d="M256 410v-86h-241v86h241zM98 169c0 39 12 62 37 62c24 0 38 -23 38 -62s-14 -62 -38 -62c-25 0 -37 23 -37 62zM98 564c0 39 12 62 37 62c24 0 38 -23 38 -62s-14 -62 -38 -62c-25 0 -37 23 -37 62z" />
    <glyph glyph-name="multiply" unicode="&#xd7;" horiz-adv-x="263" 
d="M98 357l-79 145l46 58l67 -137l66 137l45 -58l-78 -144l79 -146l-45 -58l-68 138l-67 -137l-45 57z" />
    <glyph glyph-name="equal" unicode="=" horiz-adv-x="270" 
d="M256 282v-86h-241v86h241zM256 518v-86h-241v86h241z" />
    <glyph glyph-name="less" unicode="&#x3c;" horiz-adv-x="254" 
d="M10 312v77l205 227h5v-100l-159 -166l159 -168v-99h-5z" />
    <glyph glyph-name="greater" unicode="&#x3e;" horiz-adv-x="254" 
d="M244 389v-77l-205 -229h-5v99l159 168l-159 166v100h5z" />
    <glyph glyph-name="lessequal" unicode="&#x2264;" horiz-adv-x="253" 
d="M10 396v76l205 227h5v-99l-159 -167l159 -168v-99h-5zM10 86h211v-86h-211v86z" />
    <glyph glyph-name="greaterequal" unicode="&#x2265;" horiz-adv-x="253" 
d="M243 473v-77l-205 -229h-5v99l159 169l-159 165v100h5zM32 86h211v-86h-211v86z" />
    <glyph glyph-name="approxequal" unicode="&#x2248;" horiz-adv-x="270" 
d="M185 339c42 0 74 -41 74 -143v-38h-49v36c0 39 -8 58 -24 58c-40 0 -35 -103 -101 -103c-41 0 -73 42 -73 143v38h48v-36c0 -39 8 -58 25 -58c40 0 34 103 100 103zM185 564c42 0 74 -42 74 -144v-38h-49v37c0 39 -8 57 -24 57c-40 0 -35 -103 -101 -103
c-41 0 -73 42 -73 144v37h48v-36c0 -39 8 -57 25 -57c40 0 34 103 100 103z" />
    <glyph glyph-name="dollar" unicode="$" horiz-adv-x="325" 
d="M252 470c0 106 -14 150 -66 156v-227c58 -31 123 -64 123 -206c1 -108 -35 -196 -123 -203v-122h-45v121c-86 7 -123 81 -123 247v18h52v-18c0 -112 16 -155 71 -160v245c-57 30 -118 65 -118 202c0 95 33 182 118 189v110h45v-110c84 -7 118 -87 118 -242v-18h-52v18z
M258 193c0 67 -33 93 -72 115v-232c51 6 72 49 72 117zM75 523c0 -62 29 -89 66 -109v212c-46 -6 -66 -47 -66 -103z" />
    <glyph glyph-name="cent" unicode="&#xa2;" horiz-adv-x="300" 
d="M20 250c0 162 34 248 108 258v142h46v-142c67 -7 104 -74 104 -194v-8h-49v8c0 69 -17 105 -55 111v-350c38 7 55 47 55 121v8h49v-8c0 -126 -37 -197 -104 -204v-142h-46v142c-74 10 -108 96 -108 258zM70 250c0 -114 15 -165 58 -175v349c-43 -9 -58 -61 -58 -174z" />
    <glyph glyph-name="sterling" unicode="&#xa3;" horiz-adv-x="342" 
d="M50 86c29 0 42 24 42 117v72h-31v82h31v154c0 120 29 201 110 201c79 0 110 -71 110 -243v-18h-51v18c0 120 -12 157 -59 157c-42 0 -58 -41 -58 -115v-154h86v-82h-86v-72c0 -51 -8 -90 -23 -117h191v-86h-271v86h9z" />
    <glyph glyph-name="yen" unicode="&#xa5;" horiz-adv-x="317" 
d="M244 700h54l-82 -381h55v-89h-41v-194h-144v194h-40v89h53l-80 381h55l56 -267l17 -102h23l17 102z" />
    <glyph glyph-name="Euro" unicode="&#x20ac;" horiz-adv-x="363" 
d="M186 712c90 0 152 -93 152 -280v-15h-52v15c0 127 -40 194 -100 194c-54 0 -87 -56 -102 -155h133l-18 -86h-121c-1 -11 -1 -23 -1 -35v-25h112l-18 -86h-88c13 -105 47 -165 103 -165c60 0 100 73 100 205v17h53v-17c0 -194 -62 -291 -153 -291c-86 0 -140 87 -156 251
h-30v86h25v25v35h-25v86h31c17 158 70 241 155 241z" />
    <glyph glyph-name="uni20B4" unicode="&#x20b4;" horiz-adv-x="320" 
d="M31 157c0 29 6 58 20 80h-41v86h297v-86h-168c-40 0 -57 -41 -57 -80c0 -45 24 -83 78 -83c55 0 78 40 78 80v13h52v-13c0 -87 -40 -166 -130 -166s-129 77 -129 169zM290 543c0 -28 -6 -55 -20 -76h37v-86h-297v86h170c40 0 58 37 58 76c0 45 -23 83 -78 83
c-54 0 -78 -40 -78 -80v-13h-51v13c0 87 39 166 129 166s130 -77 130 -169z" />
    <glyph glyph-name="uni20B8" unicode="&#x20b8;" horiz-adv-x="295" 
d="M12 434v86h272v-86h-110v-434h-52v434h-110zM284 614h-272v86h272v-86z" />
    <glyph glyph-name="asciicircum" unicode="^" horiz-adv-x="255" 
d="M237 387v-30h-46l-44 141l-18 78h-3l-18 -78l-44 -141h-46v30l94 313h31z" />
    <glyph glyph-name="acute" unicode="&#xb4;" horiz-adv-x="131" 
d="M22 577l31 173h65l-56 -173h-40z" />
    <glyph glyph-name="grave" unicode="`" horiz-adv-x="122" 
d="M110 577h-39l-60 173h64z" />
    <glyph glyph-name="hungarumlaut" unicode="&#x2dd;" horiz-adv-x="268" 
d="M75 577h-40l21 173h64zM180 577h-40l32 173h64z" />
    <glyph glyph-name="circumflex" unicode="&#x2c6;" horiz-adv-x="239" 
d="M81 577h-65l85 173h36l84 -173h-64l-39 105z" />
    <glyph glyph-name="caron" unicode="&#x2c7;" horiz-adv-x="237" 
d="M156 750h65l-85 -173h-36l-84 173h64l39 -104z" />
    <glyph glyph-name="breve" unicode="&#x2d8;" horiz-adv-x="267" 
d="M133 646c36 0 53 26 53 93v11h50v-11c0 -122 -40 -172 -103 -172s-102 50 -102 172v11h50v-11c0 -67 18 -93 52 -93z" />
    <glyph glyph-name="tilde" unicode="&#x2dc;" horiz-adv-x="285" 
d="M94 567c-40 0 -64 38 -61 144v39h57v-49c-2 -37 4 -55 15 -55c30 0 23 114 83 114c40 0 66 -38 62 -144l-1 -39h-56v49c2 37 -4 55 -15 55c-30 0 -23 -114 -84 -114z" />
    <glyph glyph-name="macron" unicode="&#xaf;" horiz-adv-x="262" 
d="M236 622h-205v82h205v-82z" />
    <glyph glyph-name="dieresis" unicode="&#xa8;" horiz-adv-x="272" 
d="M77 601c-25 0 -39 24 -39 63s14 63 39 63s40 -24 40 -63s-15 -63 -40 -63zM195 601c-26 0 -39 24 -39 63s13 63 39 63c24 0 39 -24 39 -63s-15 -63 -39 -63z" />
    <glyph glyph-name="dotaccent" unicode="&#x2d9;" horiz-adv-x="143" 
d="M72 601c-26 0 -40 23 -40 62s14 62 40 62c25 0 39 -23 39 -62s-15 -62 -39 -62z" />
    <glyph glyph-name="ring" unicode="&#x2da;" horiz-adv-x="225" 
d="M113 506c-52 0 -81 53 -81 159c0 107 29 159 81 159c51 0 81 -52 81 -159c0 -106 -30 -159 -81 -159zM113 580c25 0 40 25 40 85s-15 85 -40 85c-26 0 -40 -25 -40 -85s14 -85 40 -85z" />
    <glyph glyph-name="cedilla" unicode="&#xb8;" horiz-adv-x="140" 
d="M67 -97c0 29 -5 42 -22 42h-10v91h41v-55c32 -16 41 -55 41 -98c0 -81 -28 -105 -68 -105c-9 0 -19 1 -30 6v81c7 -3 12 -4 22 -4c18 0 26 7 26 42z" />
    <glyph glyph-name="ogonek" unicode="&#x2db;" horiz-adv-x="140" 
d="M85 39l7 -39c-20 -11 -28 -32 -28 -66c0 -43 11 -55 28 -55c8 0 14 1 19 3v-82c-8 -4 -15 -5 -28 -5c-39 0 -65 32 -65 119c0 63 26 105 67 125z" />
    <glyph glyph-name="copyright" unicode="&#xa9;" horiz-adv-x="487" 
d="M244 -132c115 0 169 135 169 382c0 245 -55 382 -169 382c-118 0 -170 -137 -170 -382s52 -382 170 -382zM244 -212c-152 0 -218 161 -218 462s66 462 218 462c147 0 216 -161 216 -462s-70 -462 -216 -462zM244 426c-55 0 -73 -51 -73 -176c0 -126 18 -176 73 -176
c45 0 65 40 65 122v8h49v-8c0 -133 -41 -205 -114 -205c-85 0 -123 87 -123 259s38 259 123 259c73 0 114 -68 114 -195v-8h-49v8c0 76 -21 112 -65 112z" />
    <glyph glyph-name="uni24C5" unicode="&#x24c5;" horiz-adv-x="486" 
d="M203 148v-148h-51v500h105c67 0 101 -67 101 -176c0 -111 -34 -176 -101 -176h-54zM203 418v-188h54c34 0 51 34 51 94c0 59 -17 94 -51 94h-54zM243 -132c116 0 170 135 170 382c0 245 -55 382 -170 382c-118 0 -170 -137 -170 -382s52 -382 170 -382zM243 -212
c-151 0 -217 161 -217 462s66 462 217 462c147 0 217 -161 217 -462s-71 -462 -217 -462z" />
    <glyph glyph-name="registered" unicode="&#xae;" horiz-adv-x="487" 
d="M460 250c0 -301 -70 -462 -216 -462c-152 0 -218 161 -218 462s66 462 218 462c147 0 216 -161 216 -462zM74 250c0 -245 52 -382 170 -382c115 0 169 135 169 382c0 245 -55 382 -169 382c-118 0 -170 -137 -170 -382zM349 324c0 -72 -17 -122 -49 -145l54 -179h-55
l-47 158h-59v-158h-49v500h105c67 0 100 -67 100 -176zM299 324c0 59 -16 94 -50 94h-56v-188h56c34 0 50 34 50 94z" />
    <glyph glyph-name="trademark" unicode="&#x2122;" horiz-adv-x="425" 
d="M68 625h-53v75h214l53 -189l52 189h64v-351h-44v245l-53 -203h-38l-53 199v-241h-43v276h-55v-276h-44v276z" />
    <glyph glyph-name="degree" unicode="&#xb0;" horiz-adv-x="193" 
d="M97 466c25 0 40 25 40 85s-15 85 -40 85c-27 0 -40 -25 -40 -85s13 -85 40 -85zM97 392c-56 0 -83 53 -83 159c0 107 27 159 83 159c53 0 83 -52 83 -159c0 -106 -30 -159 -83 -159z" />
    <glyph glyph-name="uniF6C3" unicode="&#xf6c3;" horiz-adv-x="124" 
d="M62 781h33l3 -132c0 -37 -13 -60 -36 -60c-24 0 -37 22 -37 59c0 19 5 46 14 68z" />
    <glyph glyph-name="uniF6C9" unicode="&#xf6c9;" horiz-adv-x="150" 
d="M30 780l24 219h75l-56 -219h-43z" />
    <glyph glyph-name="uniF6CA" unicode="&#xf6ca;" horiz-adv-x="310" 
d="M135 780l-104 219h67l58 -148l56 148h67l-104 -219h-40z" />
    <glyph glyph-name="uniF6CB" unicode="&#xf6cb;" horiz-adv-x="311" 
d="M224 825c-26 0 -40 23 -40 64s14 64 40 64c24 0 40 -23 40 -64s-16 -64 -40 -64zM87 825c-26 0 -40 23 -40 64s14 64 40 64c24 0 39 -23 39 -64s-15 -64 -39 -64z" />
    <glyph glyph-name="uniF6CE" unicode="&#xf6ce;" horiz-adv-x="150" 
d="M129 780h-44l-59 219h75z" />
    <glyph glyph-name="uniF6CF" unicode="&#xf6cf;" horiz-adv-x="317" 
d="M80 780h-44l30 219h75zM208 780h-44l40 219h75z" />
    <glyph glyph-name="uniF6D0" unicode="&#xf6d0;" horiz-adv-x="309" 
d="M268 846h-227v86h227v-86z" />
    <glyph glyph-name="uni20BD" unicode="&#x20bd;" horiz-adv-x="307" 
d="M283 486c0 -142 -46 -214 -124 -214h-66v-62h158v-86h-158v-124h-52v124h-41v86h41v62h-41v86h41v342h118c78 0 124 -71 124 -214zM231 486c0 89 -25 128 -72 128h-66v-256h66c47 0 72 39 72 128z" />
    <glyph glyph-name="Breve" horiz-adv-x="309" 
d="M155 856c51 0 72 42 72 128v15h52v-15c0 -137 -40 -214 -124 -214c-85 0 -124 77 -124 214v15h52v-15c0 -86 21 -128 72 -128z" />
    <glyph glyph-name="Cedilla" horiz-adv-x="157" 
d="M84 -104c0 26 -5 39 -24 39h-13v108h47v-64c33 -12 40 -53 40 -99c0 -79 -27 -117 -73 -117c-12 0 -23 2 -34 7v86c11 -4 20 -6 30 -6c20 0 27 13 27 46z" />
    <glyph glyph-name="Circumflex" horiz-adv-x="310" 
d="M98 780h-67l104 219h40l104 -219h-66l-57 151z" />
    <glyph glyph-name="Dotaccent" horiz-adv-x="173" 
d="M87 825c-26 0 -40 23 -40 64s14 64 40 64c24 0 39 -23 39 -64s-15 -64 -39 -64z" />
    <glyph glyph-name="Ogonek" horiz-adv-x="167" 
d="M112 40l13 -40c-22 -20 -30 -53 -30 -96c0 -40 11 -54 27 -54c11 0 18 2 25 6v-86c-11 -5 -22 -7 -33 -7c-43 0 -69 34 -69 114c0 84 24 132 67 163z" />
    <glyph glyph-name="Tilde" horiz-adv-x="310" 
d="M211 1009c49 0 80 -42 75 -174v-55h-61l1 68c2 50 -7 69 -24 69c-36 0 -29 -147 -102 -147c-49 0 -80 42 -75 174v55h61l-1 -68c-2 -50 7 -70 23 -70c37 0 29 148 103 148z" />
    <glyph glyph-name="idotaccent" horiz-adv-x="143" 
d="M92 500v-500h-50v500h50zM68 601c-25 0 -39 23 -39 62s14 62 39 62s40 -23 40 -62s-16 -62 -40 -62z" />
    <glyph glyph-name="undercommaaccent" horiz-adv-x="121" 
d="M60 -258h-33l-2 132c-1 37 12 60 35 60c24 0 37 -22 37 -59c0 -19 -5 -46 -13 -68z" />
    <glyph glyph-name="hyphen.uc" horiz-adv-x="235" 
d="M197 400v-86h-159v86h159z" />
    <glyph glyph-name="endash.uc" horiz-adv-x="280" 
d="M21 310v93h238v-93h-238z" />
    <glyph glyph-name="emdash.uc" horiz-adv-x="373" 
d="M16 310v93h341v-93h-341z" />
    <glyph glyph-name="guillemotleft.uc" horiz-adv-x="290" 
d="M74 348l59 -98v-119h-6l-111 219l111 218h6v-119l-59 -99v-2zM203 348l59 -98v-119h-6l-111 219l111 218h6v-119l-59 -99v-2z" />
    <glyph glyph-name="guillemotright.uc" horiz-adv-x="290" 
d="M28 249l59 98v2l-59 100v118h6l111 -218l-111 -219h-6v119zM157 250l59 98v2l-59 99v119h6l111 -218l-111 -219h-6v119z" />
    <glyph glyph-name="at.uc" horiz-adv-x="485" 
d="M459 350c0 -301 -70 -462 -216 -462c-152 0 -217 161 -217 462s65 462 217 462c147 0 216 -161 216 -462zM73 350c0 -245 52 -382 170 -382c115 0 169 135 169 382c0 245 -55 382 -169 382c-118 0 -170 -137 -170 -382zM248 609c65 0 104 -48 104 -157v-352h-50v60
c-15 -43 -42 -69 -78 -69c-55 0 -88 56 -88 148s36 147 95 147h71v66c0 57 -19 75 -54 75s-54 -18 -54 -75v-12h-51v12c0 106 40 157 105 157zM186 241c0 -46 16 -68 44 -68c44 0 72 28 72 94v44h-65c-32 0 -51 -22 -51 -70z" />
    <glyph glyph-name="exclamdown.uc" horiz-adv-x="157" 
d="M110 0h-62l7 518h48zM41 650c0 39 13 62 38 62c24 0 37 -23 37 -62s-13 -61 -37 -61c-25 0 -38 22 -38 61z" />
    <glyph glyph-name="questiondown.uc" horiz-adv-x="307" 
d="M31 197c0 101 33 171 96 188v133h51v-203h-20c-49 0 -76 -45 -76 -118c0 -75 26 -119 72 -119c47 0 71 39 71 109v45h52v-45c0 -126 -46 -199 -123 -199c-78 0 -123 77 -123 209zM152 712c25 0 38 -23 38 -62s-13 -61 -38 -61c-23 0 -38 22 -38 61s15 62 38 62z" />
    <glyph glyph-name="uni0414.bgr" horiz-adv-x="378" 
d="M362 86v-285h-51v199h-244v-199h-51v285h32l101 614h82l100 -614h31zM100 86h177l-67 418l-12 104h-19l-12 -104z" />
    <glyph glyph-name="uni0416.bgr" horiz-adv-x="500" 
d="M404 700h68l-107 -334l119 -366h-56l-100 325h-52v-325h-52v325h-39l-101 -325h-68l120 370l-108 330h57l89 -289h50v289h52v-289h39z" />
    <glyph glyph-name="uni041A.bgr" horiz-adv-x="331" 
d="M43 0v700h51v-298h40l102 298h67l-119 -345l129 -355h-58l-114 316h-47v-316h-51z" />
    <glyph glyph-name="uni041B.bgr" horiz-adv-x="332" 
d="M123 700h85l106 -700h-53l-74 505l-14 113h-18l-13 -113l-75 -505h-50z" />
    <glyph glyph-name="uni0432.bgr" horiz-adv-x="294" 
d="M154 -10c-71 0 -113 66 -113 201v350c0 161 40 219 109 219c67 0 108 -58 108 -219c0 -84 -15 -146 -48 -179c36 -32 57 -99 57 -171c0 -135 -43 -201 -113 -201zM150 676c-39 0 -59 -25 -59 -135v-145h55c48 0 63 52 63 145c0 110 -21 135 -59 135zM216 191
c0 78 -18 129 -56 129h-69v-129c0 -83 23 -117 63 -117c42 0 62 34 62 117z" />
    <glyph glyph-name="uni0433.bgr" horiz-adv-x="269" 
d="M77 139c0 -40 13 -65 58 -65c38 0 56 21 56 83v16h50v-16c0 -108 -35 -166 -106 -166c-77 0 -107 66 -107 148c0 156 160 107 160 226c0 36 -12 61 -54 61c-37 0 -54 -20 -54 -81v-11h-50v11c0 106 32 164 104 164c75 0 104 -69 104 -144c0 -156 -161 -108 -161 -226z
" />
    <glyph glyph-name="uni0434.bgr" horiz-adv-x="309" 
d="M26 250c0 174 35 259 112 259c39 0 65 -25 80 -73v64h50v-559c0 -143 -40 -199 -121 -199s-120 56 -120 199h49c0 -85 24 -116 71 -116c49 0 71 31 71 116v123c-15 -48 -41 -73 -80 -73c-77 0 -112 86 -112 259zM147 74c48 0 71 55 71 151v50c0 96 -23 151 -71 151
c-51 0 -71 -51 -71 -176s20 -176 71 -176z" />
    <glyph glyph-name="uni0436.bgr" horiz-adv-x="399" 
d="M80 0h-63l86 262l-81 238h53l64 -205h36v455h49v-455h27l64 205h61l-80 -240l86 -260h-55l-66 213h-37v-213h-49v213h-28z" />
    <glyph glyph-name="uni0437.bgr" horiz-adv-x="266" 
d="M128 425c-48 0 -62 -38 -62 -112v-33h-49v33c0 120 33 196 111 196c79 0 113 -75 113 -198c0 -77 -13 -129 -42 -156c31 -32 45 -94 45 -187c0 -142 -35 -228 -116 -228c-79 0 -115 86 -115 228v36h50v-36c0 -89 14 -144 65 -144c53 0 67 52 67 144c0 83 -16 146 -67 146
h-43v82h43c52 0 62 44 62 115c0 75 -12 114 -62 114z" />
    <glyph glyph-name="uni0438.bgr" 
d="M211 60c-15 -45 -39 -69 -75 -69c-67 0 -96 64 -96 205v304h50v-304c0 -84 16 -122 56 -122c43 0 65 54 65 151v275h50v-500h-50v60z" />
    <glyph glyph-name="uni0439.bgr" 
d="M211 60c-15 -45 -39 -69 -75 -69c-67 0 -96 64 -96 205v304h50v-304c0 -84 16 -122 56 -122c43 0 65 54 65 151v275h50v-500h-50v60zM97 739c0 -67 18 -93 53 -93s52 26 52 93v11h50v-11c0 -122 -39 -172 -102 -172c-64 0 -103 50 -103 172v11h50v-11z" />
    <glyph glyph-name="uni043A.bgr" horiz-adv-x="278" 
d="M91 0h-50v750h50v-454h33l72 204h63l-92 -246l99 -254h-56l-78 214h-41v-214z" />
    <glyph glyph-name="uni043B.bgr" horiz-adv-x="259" 
d="M164 500l88 -500h-50l-49 291l-15 121h-19l-14 -121l-49 -291h-49l88 500h69z" />
    <glyph glyph-name="uni043C.bgr" horiz-adv-x="447" 
d="M91 443c14 44 36 66 68 66c38 0 63 -23 77 -73c15 48 42 73 81 73c63 0 90 -63 90 -205v-304h-50v304c0 84 -13 123 -50 123c-39 0 -58 -55 -58 -152v-275h-50v304c0 84 -13 123 -50 123c-38 0 -58 -55 -58 -152v-275h-49v500h49v-57z" />
    <glyph glyph-name="uni043F.bgr" 
d="M91 440c15 46 40 69 75 69c67 0 96 -61 96 -205v-304h-50v304c0 88 -16 123 -56 123c-43 0 -65 -48 -65 -152v-275h-50v500h50v-60z" />
    <glyph glyph-name="uni0446.bgr" horiz-adv-x="310" 
d="M211 60c-15 -46 -38 -69 -74 -69c-67 0 -97 64 -97 205v304h50v-304c0 -84 16 -122 57 -122c42 0 64 54 64 151v275h50v-418h30v-231h-49v149h-31v60z" />
    <glyph glyph-name="uni0448.bgr" horiz-adv-x="448" 
d="M358 55c-14 -42 -36 -64 -68 -64c-38 0 -62 24 -76 74c-16 -49 -42 -74 -81 -74c-63 0 -90 64 -90 205v304h49v-304c0 -84 14 -123 51 -123c38 0 58 55 58 152v275h49v-304c0 -84 13 -123 50 -123c39 0 58 55 58 152v275h50v-500h-50v55z" />
    <glyph glyph-name="uni0449.bgr" horiz-adv-x="454" 
d="M355 50c-14 -39 -36 -59 -66 -59c-38 0 -62 24 -76 74c-16 -49 -42 -74 -81 -74c-63 0 -90 64 -90 205v304h49v-304c0 -84 14 -123 51 -123c38 0 58 55 58 152v275h49v-304c0 -84 13 -123 50 -123c39 0 58 55 58 152v275h50v-418h28v-231h-49v149h-31v50z" />
    <glyph glyph-name="uni044A.bgr" horiz-adv-x="290" 
d="M115 255v-91c0 -68 16 -91 52 -91s52 23 52 91c0 58 -15 91 -51 91h-53zM65 418h-60v82h110v-163h53c68 0 102 -64 102 -173c0 -119 -34 -174 -103 -174c-68 0 -102 55 -102 174v254z" />
    <glyph glyph-name="uni044B.bgr" horiz-adv-x="381" 
d="M91 255v-91c0 -68 17 -91 53 -91c35 0 52 23 52 91c0 58 -16 91 -51 91h-54zM41 164v336h50v-163h54c68 0 101 -64 101 -173c0 -119 -34 -174 -102 -174c-69 0 -103 55 -103 174zM340 500v-500h-51v500h51z" />
    <glyph glyph-name="uni044C.bgr" horiz-adv-x="266" 
d="M91 255v-91c0 -68 17 -91 53 -91c35 0 52 23 52 91c0 58 -16 91 -51 91h-54zM41 164v336h50v-163h54c68 0 101 -64 101 -173c0 -119 -34 -174 -102 -174c-69 0 -103 55 -103 174z" />
    <glyph glyph-name="uni044E.bgr" horiz-adv-x="412" 
d="M148 294c6 144 43 215 119 215c83 0 120 -85 120 -259s-37 -259 -120 -259c-77 0 -114 73 -119 221h-57v-212h-50v750h50v-456h57zM197 250c0 -120 20 -176 70 -176c49 0 70 56 70 176s-21 176 -70 176c-50 0 -70 -56 -70 -176z" />
    <glyph glyph-name="uni04C1" unicode="&#x4c1;" horiz-adv-x="500" 
d="M404 700h68l-107 -334l119 -366h-56l-100 325h-52v-325h-52v325h-39l-101 -325h-68l120 370l-108 330h57l89 -289h50v289h52v-289h39zM178 984c0 -86 21 -128 72 -128c52 0 72 42 72 128v15h52v-15c0 -137 -40 -214 -124 -214c-85 0 -124 77 -124 214v15h52v-15z" />
    <glyph glyph-name="uni04E2" unicode="&#x4e2;" horiz-adv-x="370" 
d="M239 700h89v-700h-52v500l4 114h-3l-145 -614h-89v700h51v-500l-3 -114h3zM299 846h-227v86h227v-86z" />
    <glyph glyph-name="uni04E6" unicode="&#x4e6;" horiz-adv-x="372" 
d="M287 350c0 171 -33 274 -103 274s-103 -103 -103 -274s33 -274 103 -274s103 103 103 274zM30 350c0 245 53 360 154 360c100 0 154 -115 154 -360s-54 -360 -154 -360c-101 0 -154 115 -154 360zM255 825c-26 0 -40 23 -40 64s14 64 40 64c24 0 39 -23 39 -64
s-15 -64 -39 -64zM117 825c-25 0 -39 23 -39 64s14 64 39 64s40 -23 40 -64s-15 -64 -40 -64z" />
    <glyph glyph-name="uni04EE" unicode="&#x4ee;" horiz-adv-x="306" 
d="M66 700l74 -299l16 -88h2l15 88l62 299h60l-106 -499c-40 -183 -60 -205 -118 -205h-8v90h8c28 0 49 8 69 113l-126 501h52zM269 846h-227v86h227v-86z" />
    <glyph glyph-name="uni04F2" unicode="&#x4f2;" horiz-adv-x="306" 
d="M64 700l74 -299l17 -88h2l15 88l62 299h60l-107 -499c-39 -183 -59 -205 -118 -205h-8v90h8c28 0 50 8 70 113l-126 501h51zM101 780h-43l29 219h75zM230 780h-44l39 219h75z" />
    </font>
</defs>
</svg>
