<svg width="262" height="61" viewBox="0 0 262 61" fill="none" xmlns="http://www.w3.org/2000/svg">
<path d="M261.432 0H0.0400391V60.8247H261.432V0Z" fill="#1D1D1D"/>
<path fill-rule="evenodd" clip-rule="evenodd" d="M25.0333 43.1513L18.1357 17.6732H22.7043L27.9894 37.2304L33.6329 17.6732H37.8431L43.5762 37.3201L48.8613 17.6732H53.4299L46.5323 43.1513H41.3367L35.8724 24.1324L30.3185 43.1513H25.0333ZM56.386 17.6732H60.6858V43.1513H56.386V17.6732ZM69.8228 39.1143H80.214V43.1513H65.6126V17.6732H69.8228V39.1143ZM93.4717 17.7629C96.9653 17.7629 99.9214 19.0188 102.25 21.4411C104.579 23.8633 105.744 26.9135 105.744 30.502C105.744 34.0007 104.579 37.0509 102.25 39.5629C99.9214 41.9851 96.9653 43.2411 93.4717 43.2411H83.4388V17.6732L93.4717 17.7629ZM93.4717 39.204C95.8903 39.204 97.8611 38.3966 99.3839 36.7818C100.907 35.167 101.713 33.0139 101.713 30.502C101.713 27.99 100.907 25.9267 99.3839 24.2221C97.8611 22.6073 95.8903 21.7999 93.4717 21.7999H87.6491V39.204H93.4717ZM128.408 35.8847C128.408 37.948 127.691 39.6526 126.168 41.088C124.645 42.4336 122.854 43.1513 120.704 43.1513H109.685V17.6732H119.898C122.047 17.6732 123.749 18.3909 125.272 19.7365C126.795 21.0822 127.512 22.7867 127.512 24.7604C127.512 27.0032 126.616 28.7077 124.914 29.9637C127.064 31.1299 128.408 33.283 128.408 35.8847ZM113.985 21.6205V28.3489H119.987C121.868 28.3489 123.302 26.9135 123.302 24.9398C123.302 23.0559 121.868 21.5308 119.987 21.5308L113.985 21.6205ZM120.704 39.204C122.674 39.204 124.197 37.6789 124.197 35.7053C124.197 33.7316 122.674 32.2065 120.704 32.2065H113.896V39.2937L120.704 39.204ZM136.649 39.1143H148.025V43.1513H132.439V17.6732H147.846V21.7102H136.649V28.3489H146.95V32.2962H136.649V39.1143ZM166.389 43.1513L160.925 33.911H155.998V43.1513H151.788V17.6732H162.089C164.418 17.6732 166.389 18.4806 167.912 20.0954C169.524 21.6205 170.33 23.5942 170.33 25.8369C170.33 29.0666 168.27 32.0271 165.224 33.1933L171.047 43.0616H166.389V43.1513ZM155.998 21.6205V30.1431H162C164.239 30.1431 166.031 28.2592 166.031 25.8369C166.031 23.5044 164.239 21.5308 162 21.5308L155.998 21.6205ZM188.873 43.1513L183.409 33.911H178.482V43.1513H174.272V17.6732H184.574C186.903 17.6732 188.873 18.4806 190.396 20.0954C192.009 21.6205 192.815 23.5942 192.815 25.8369C192.815 29.0666 190.755 32.0271 187.709 33.1933L193.621 43.0616H188.873V43.1513ZM178.482 21.6205V30.1431H184.484C186.723 30.1431 188.515 28.2592 188.515 25.8369C188.515 23.5044 186.723 21.5308 184.484 21.5308L178.482 21.6205ZM196.667 17.6732H200.877V43.1513H196.667V17.6732ZM210.014 39.1143H221.391V43.1513H205.804V17.6732H221.211V21.7102H210.014V28.3489H220.316V32.2962H210.014V39.1143ZM224.347 37.4098L227.93 35.2567C229.005 38.1275 231.065 39.5629 234.29 39.5629C237.515 39.5629 239.038 38.2172 239.038 36.1538C239.038 35.0773 238.59 34.3596 237.783 33.8213C236.977 33.283 235.454 32.6551 233.215 32.0271C230.796 31.3094 229.542 30.8608 227.84 29.6946C226.228 28.5283 225.332 26.8238 225.332 24.581C225.332 22.3382 226.138 20.5439 227.751 19.1983C229.363 17.8526 231.244 17.2246 233.573 17.2246C237.694 17.2246 240.829 19.3777 242.531 22.8765L239.038 24.9398C237.963 22.6073 236.171 21.4411 233.663 21.4411C231.244 21.4411 229.632 22.697 229.632 24.581C229.632 26.4649 230.886 27.362 234.827 28.5283C235.813 28.7974 236.529 29.0666 236.977 29.246C237.425 29.3357 238.052 29.6946 238.858 29.9637C239.665 30.2328 240.292 30.6814 240.74 31.0402C242.083 32.1168 243.517 33.8213 243.337 36.2435C243.337 38.576 242.531 40.3703 240.829 41.7159C239.217 43.0616 236.977 43.6896 234.29 43.6896C229.273 43.5999 225.69 41.2674 224.347 37.4098Z" fill="white"/>
</svg>
