<svg width="16" height="19" viewBox="0 0 16 19" fill="none" xmlns="http://www.w3.org/2000/svg">
<path fill-rule="evenodd" clip-rule="evenodd" d="M13.7787 1.83346C9.80053 1.38885 5.78521 1.38885 1.80704 1.83346C1.53787 1.86355 1.40824 2.1792 1.57859 2.38977L5.09561 6.73732C6.35551 8.29473 7.04286 10.2373 7.04286 12.2405V15.1297L8.54286 16.2297V12.2405C8.54286 10.2373 9.23023 8.29473 10.4901 6.73732L14.0071 2.38977C14.1775 2.1792 14.0479 1.86355 13.7787 1.83346ZM1.64043 0.342746C5.72932 -0.114249 9.85641 -0.114249 13.9453 0.342746C15.3922 0.504461 16.089 2.20125 15.1733 3.33318L11.6563 7.68072C10.6124 8.97115 10.0429 10.5807 10.0429 12.2405V17.7098C10.0429 17.9924 9.88398 18.251 9.63188 18.3788C9.37977 18.5065 9.07725 18.4817 8.84934 18.3146L5.84934 16.1146C5.65669 15.9733 5.54286 15.7487 5.54286 15.5098V12.2405C5.54286 10.5807 4.97334 8.97116 3.92943 7.68073L0.412406 3.33318C-0.503284 2.20125 0.1935 0.504461 1.64043 0.342746Z" fill="black"/>
</svg>
