<svg width="29" height="24" viewBox="0 0 29 24" fill="none" xmlns="http://www.w3.org/2000/svg">
<path fill-rule="evenodd" clip-rule="evenodd" d="M0 7.91139C0 3.4416 3.92134 0 8.52414 0C10.8968 0 12.9846 1.11251 14.4828 2.552C15.981 1.11251 18.0687 0 20.4414 0C25.0442 0 28.9655 3.4416 28.9655 7.91139C28.9655 10.9732 27.6598 13.6658 25.8508 15.9419C24.0449 18.2139 21.6827 20.1423 19.4209 21.7092C18.557 22.3077 17.6831 22.8598 16.8832 23.2671C16.1322 23.6496 15.2685 24 14.4828 24C13.697 24 12.8334 23.6496 12.0823 23.2671C11.2825 22.8598 10.4085 22.3077 9.54461 21.7092C7.28284 20.1423 4.92062 18.2139 3.11474 15.9419C1.30573 13.6658 0 10.9732 0 7.91139Z" fill="white"/>
<path fill-rule="evenodd" clip-rule="evenodd" d="M0 7.91139C0 3.4416 3.92134 0 8.52414 0C10.8968 0 12.9846 1.11251 14.4828 2.552C15.981 1.11251 18.0687 0 20.4414 0C25.0442 0 28.9655 3.4416 28.9655 7.91139C28.9655 10.9732 27.6598 13.6658 25.8508 15.9419C24.0449 18.2139 21.6827 20.1423 19.4209 21.7092C18.557 22.3077 17.6831 22.8598 16.8832 23.2671C16.1322 23.6496 15.2685 24 14.4828 24C13.697 24 12.8334 23.6496 12.0823 23.2671C11.2825 22.8598 10.4085 22.3077 9.5446 21.7092C7.28284 20.1423 4.92062 18.2139 3.11474 15.9419C1.30573 13.6658 0 10.9732 0 7.91139ZM8.52414 2.48276C5.08262 2.48276 2.48276 5.01368 2.48276 7.91139C2.48276 10.2344 3.46889 12.3972 5.05836 14.397C6.65095 16.4008 8.79381 18.1687 10.9585 19.6683C11.7776 20.2358 12.5491 20.7186 13.209 21.0547C13.9178 21.4157 14.3283 21.5172 14.4828 21.5172C14.6372 21.5172 15.0478 21.4157 15.7565 21.0547C16.4164 20.7186 17.1879 20.2358 18.007 19.6683C20.1717 18.1687 22.3146 16.4008 23.9072 14.397C25.4966 12.3972 26.4828 10.2344 26.4828 7.91139C26.4828 5.01368 23.8829 2.48276 20.4414 2.48276C18.4649 2.48276 16.6192 3.6636 15.4669 5.16235C15.2319 5.46796 14.8683 5.64706 14.4828 5.64706C14.0973 5.64706 13.7336 5.46796 13.4987 5.16235C12.3463 3.6636 10.5007 2.48276 8.52414 2.48276Z" fill="black"/>
</svg>
