<svg width="35" height="36" viewBox="0 0 35 36" fill="none" xmlns="http://www.w3.org/2000/svg">
<path d="M27.087 0H8.60745C3.85332 0 0 3.77729 0 8.43589V36H27.087C31.4563 36 35 32.5279 35 28.2431V28.2414C35 23.9583 31.458 20.4845 27.087 20.4845H8.14393C6.88456 20.4845 5.8001 19.5346 5.74063 18.3001C5.67766 16.9832 6.74638 15.8962 8.07571 15.8962H27.0835C31.4545 15.8962 34.9965 12.4224 34.9965 8.13926V7.75348C34.9982 3.47209 31.4563 0 27.087 0ZM29.2296 8.14269C29.2296 9.30177 28.2711 10.2414 27.0887 10.2414H10.1362C8.34858 10.2414 6.73238 10.9512 5.56047 12.0983C4.39031 13.2454 3.66792 14.8314 3.66792 16.582C3.66792 16.678 3.66967 16.7758 3.67491 16.8684C3.67666 16.9009 3.67841 16.9352 3.68191 16.9678C3.75362 18.1389 4.14718 19.2242 4.77686 20.1398C4.78736 20.157 4.7996 20.1724 4.81009 20.1878C5.54823 21.1943 6.61519 21.9813 7.90955 22.554C7.91654 22.5557 7.92179 22.5592 7.92704 22.5609C8.62319 22.8112 9.37531 22.9467 10.1607 22.9467H12.7686C15.0092 22.9467 17.2184 23.4473 19.2334 24.4109L19.7949 24.6801C21.8063 25.6437 24.019 26.1444 26.2596 26.1444H27.0905C27.6817 26.1444 28.2169 26.3793 28.6052 26.7582C28.9935 27.1389 29.2314 27.6653 29.2314 28.2465C29.2314 29.4159 28.2204 30.3435 27.0275 30.3435H2.05872V7.93523C2.05872 4.67403 4.75587 2.0301 8.08271 2.0301C9.37006 2.0301 10.6487 2.18613 11.8888 2.49133C13.1307 2.79482 14.3306 3.24919 15.4675 3.84416C16.6044 4.43913 17.8061 4.8935 19.0462 5.19699C20.2076 5.48333 21.4058 5.63764 22.6127 5.65651H27.0887C28.2711 5.65651 29.2296 6.59611 29.2296 7.75519V8.14269Z" fill="white"/>
</svg>
