<svg width="181" height="27" viewBox="0 0 181 27" fill="none" xmlns="http://www.w3.org/2000/svg">
<path d="M31 0H27V22H31V0Z" fill="white"/>
<path d="M4 4.5H0V26.5H4V4.5Z" fill="white"/>
<path d="M13 3H9V25H13V3Z" fill="white"/>
<path d="M22 1.5H18V23.5H22V1.5Z" fill="white"/>
<path d="M145.873 12.0392L138.885 4.27295H134.8V22.2545H139.065V10.7819L145.445 17.579H146.234L152.504 10.7819V22.2545H156.77V4.27295H152.684L145.873 12.0392Z" fill="white"/>
<path d="M177.092 4.27295L166.519 15.9603V4.27295H162.254V22.2545H166.162L176.734 10.5671V22.2545H181V4.27295H177.092Z" fill="white"/>
<path d="M111.825 10.8526C111.825 13.7155 113.391 15.9708 115.795 16.9163L111.287 22.2545H116.508L120.609 17.3983H125.047V22.2545H129.312V4.27295H118.453C114.404 4.27295 111.825 7.04155 111.825 10.8526ZM125.05 8.23333V13.5505H119.244C117.307 13.5505 116.268 12.4714 116.268 10.8893C116.268 9.30725 117.343 8.22809 119.244 8.22809L125.05 8.23333Z" fill="white"/>
<path d="M92.0037 7.86925C91.7427 14.0534 90.4374 18.0452 87.8818 18.0452H87.2422V22.3618L87.9235 22.3985C93.0479 22.684 95.8803 18.1893 96.3449 8.37216H103.085V22.2545H107.343V4.27295H92.1473L92.0037 7.86925Z" fill="white"/>
<path d="M75.9472 4.02148C70.178 4.02148 66.0273 8.0133 66.0273 13.2624C66.0273 18.6922 70.5435 22.5426 75.9472 22.5426C81.5754 22.5426 85.9479 18.4774 85.9479 13.2624C85.9479 8.04735 81.5754 4.02148 75.9472 4.02148ZM75.9472 18.226C72.6867 18.226 70.4652 16.1043 70.4652 13.2624C70.4652 10.3497 72.6893 8.28571 75.9472 8.28571C79.205 8.28571 81.5023 10.444 81.5023 13.2624C81.5023 16.0807 79.1737 18.226 75.9472 18.226Z" fill="white"/>
<path d="M61.5027 4.30664H46.4481L46.3045 7.90294C46.0904 13.0839 44.7382 18.0108 42.1825 18.0815L41 18.1182V26.5L45.3021 26.4913V22.2567H60.2471V26.4913H64.5857V18.0815H61.5027V4.30664ZM57.2372 18.0815H48.1344C49.6746 15.7451 50.4995 12.3636 50.6431 8.40847H57.2372V18.0815Z" fill="white"/>
</svg>
