<svg width="27" height="27" viewBox="0 0 27 27" fill="none" xmlns="http://www.w3.org/2000/svg">
<path d="M10.1677 5.99188C10.789 5.99188 11.2927 6.49556 11.2927 7.11688V9.74188H13.9177C14.539 9.74188 15.0427 10.2456 15.0427 10.8669C15.0427 11.4882 14.539 11.9919 13.9177 11.9919H11.2927V14.6169C11.2927 15.2382 10.789 15.7419 10.1677 15.7419C9.54634 15.7419 9.04266 15.2382 9.04266 14.6169V11.9919H6.41766C5.79634 11.9919 5.29266 11.4882 5.29266 10.8669C5.29266 10.2456 5.79634 9.74188 6.41766 9.74188H9.04266V7.11688C9.04266 6.49556 9.54634 5.99188 10.1677 5.99188Z" fill="#767676"/>
<path fill-rule="evenodd" clip-rule="evenodd" d="M2.96554 17.9837C6.65072 21.6689 12.4699 21.9194 16.4453 18.7355L24.1787 26.4689C24.6181 26.9083 25.3304 26.9083 25.7697 26.4689C26.2091 26.0296 26.2091 25.3173 25.7697 24.8779L18.0363 17.1445C21.2202 13.1691 20.9696 7.34993 17.2845 3.66476C13.3304 -0.289295 6.9196 -0.289296 2.96554 3.66476C-0.988515 7.61882 -0.988515 14.0296 2.96554 17.9837ZM4.55653 5.25575C1.48116 8.33113 1.48116 13.3173 4.55653 16.3927C7.62966 19.4658 12.6108 19.4681 15.6867 16.3994L15.6934 16.3926L15.7002 16.3859C18.7688 13.31 18.7666 8.32887 15.6935 5.25575C12.6181 2.18037 7.63191 2.18037 4.55653 5.25575Z" fill="#767676"/>
</svg>
