<svg width="54" height="54" viewBox="0 0 54 54" fill="none" xmlns="http://www.w3.org/2000/svg">
<path d="M27.2354 53.5293C42.0171 53.5293 54 41.5464 54 26.7647C54 11.9829 42.0171 0 27.2354 0C12.4537 0 0.470703 11.9829 0.470703 26.7647C0.470703 41.5464 12.4537 53.5293 27.2354 53.5293Z" fill="white"/>
<path d="M37.6038 12.6033C35.1516 10.2492 31.758 8.95264 28.0482 8.95264C22.3814 8.95264 18.896 11.2756 16.97 13.2241C14.5964 15.6255 13.2354 18.8142 13.2354 21.9725C13.2354 25.9381 14.8941 28.9818 17.6718 30.1141C17.8582 30.1905 18.0459 30.229 18.2299 30.229C18.8159 30.229 19.2802 29.8455 19.441 29.2305C19.5348 28.8777 19.752 28.0072 19.8465 27.6293C20.0487 26.8831 19.8854 26.5241 19.4444 26.0044C18.641 25.0538 18.2669 23.9297 18.2669 22.4668C18.2669 18.1215 21.5025 13.5034 27.4993 13.5034C32.2576 13.5034 35.2134 16.2078 35.2134 20.5611C35.2134 23.3083 34.6216 25.8524 33.5468 27.7251C32.8 29.0264 31.4867 30.5775 29.4705 30.5775C28.5987 30.5775 27.8155 30.2194 27.3213 29.595C26.8545 29.0047 26.7006 28.2423 26.8884 27.4476C27.1005 26.5498 27.3897 25.6132 27.6697 24.7079C28.1802 23.0542 28.6628 21.4924 28.6628 20.2463C28.6628 18.1149 27.3524 16.6827 25.4025 16.6827C22.9243 16.6827 20.9828 19.1997 20.9828 22.4129C20.9828 23.9887 21.4016 25.1674 21.5912 25.62C21.279 26.9427 19.4236 34.8066 19.0717 36.2895C18.8682 37.1551 17.6423 43.9923 19.6713 44.5374C21.951 45.15 23.9888 38.491 24.1962 37.7386C24.3643 37.1266 24.9525 34.8126 25.3129 33.3902C26.4135 34.4503 28.1855 35.1669 29.9096 35.1669C33.1601 35.1669 36.0832 33.7042 38.1408 31.0486C40.1363 28.4727 41.2353 24.8826 41.2353 20.9399C41.2351 17.8577 39.9114 14.819 37.6038 12.6033Z" fill="#1D1D1D"/>
</svg>
