<svg width="29" height="29" viewBox="0 0 29 29" fill="none" xmlns="http://www.w3.org/2000/svg">
<path fill-rule="evenodd" clip-rule="evenodd" d="M4.47768 11.4907C7.23287 17.4937 12.1357 22.2662 18.2305 24.8522L18.2497 24.8603L19.4272 25.3855C20.9265 26.0539 22.6888 25.5791 23.6501 24.2479L25.6146 21.5275C25.7346 21.3613 25.7036 21.1302 25.5442 21.0015L22.1147 18.2332C21.9442 18.0956 21.6935 18.1276 21.5631 18.3037L20.2283 20.1059C19.9042 20.5435 19.3188 20.6956 18.8228 20.471C14.2654 18.4074 10.6032 14.743 8.54075 10.183C8.31629 9.68671 8.46828 9.10098 8.90569 8.77663L10.7068 7.44111C10.8828 7.31062 10.9148 7.05978 10.7773 6.88919L8.01015 3.45724C7.88155 3.29773 7.65071 3.26675 7.48464 3.38671L4.75106 5.36125C3.41181 6.32864 2.94016 8.10681 3.62377 9.61136L4.47676 11.4887L4.47768 11.4907ZM17.318 26.9781C10.6956 24.1654 5.36909 18.9782 2.37538 12.4541L2.37358 12.4502L1.5188 10.5689C0.379462 8.06129 1.16553 5.09767 3.39763 3.48536L6.1312 1.51082C7.29369 0.671115 8.90956 0.887986 9.80981 2.00453L12.5769 5.43649C13.5397 6.63058 13.3154 8.38646 12.0835 9.29995L11.0515 10.0652C12.7948 13.4499 15.5578 16.2145 18.9405 17.9589L19.7053 16.9262C20.6183 15.6935 22.3732 15.4692 23.5666 16.4325L26.996 19.2008C28.1123 20.1019 28.3288 21.7193 27.4888 22.8825L25.5244 25.6029C23.9222 27.8216 20.985 28.6128 18.4861 27.4988L17.318 26.9781Z" fill="#1D1D1D" stroke="black" stroke-linejoin="round"/>
</svg>
