<svg width="71" height="70" viewBox="0 0 71 70" fill="none" xmlns="http://www.w3.org/2000/svg">
<path d="M35.2828 69.4874C54.4712 69.4874 70.0265 53.9321 70.0265 34.7437C70.0265 15.5553 54.4712 0 35.2828 0C16.0943 0 0.539062 15.5553 0.539062 34.7437C0.539062 53.9321 16.0943 69.4874 35.2828 69.4874Z" fill="#1D1D1D"/>
<path d="M14.9969 34.4429C14.9969 34.4429 32.3688 27.3134 38.3937 24.803C40.7032 23.7988 48.5356 20.5855 48.5356 20.5855C48.5356 20.5855 52.1506 19.1797 51.8493 22.5939C51.7489 23.9997 50.9456 28.92 50.1423 34.242C48.9373 41.7732 47.6319 50.0072 47.6319 50.0072C47.6319 50.0072 47.4311 52.3168 45.724 52.7185C44.0169 53.1201 41.2053 51.3126 40.7032 50.911C40.3016 50.6097 33.1721 46.091 30.5613 43.8819C29.8584 43.2794 29.0551 42.0744 30.6617 40.6686C34.2767 37.3549 38.5945 33.2379 41.2053 30.6271C42.4103 29.4221 43.6153 26.6105 38.5945 30.0246C31.465 34.9449 24.436 39.564 24.436 39.564C24.436 39.564 22.8293 40.5682 19.8169 39.6645C16.8044 38.7607 13.2899 37.5557 13.2899 37.5557C13.2899 37.5557 10.8799 36.0495 14.9969 34.4429Z" fill="white"/>
</svg>
